<?xml version="1.0" encoding="UTF-8" standalone="no"?>
<!DOCTYPE svg PUBLIC "-//W3C//DTD SVG 1.1//EN"
 "http://www.w3.org/Graphics/SVG/1.1/DTD/svg11.dtd">
<!-- Generated by graphviz version 9.0.0 (20230911.1827)
 -->
<!-- Title: Ogre::IdObject Pages: 1 -->
<svg width="640pt" height="1186pt"
 viewBox="0.00 0.00 639.75 1186.25" xmlns="http://www.w3.org/2000/svg" xmlns:xlink="http://www.w3.org/1999/xlink">
<g id="graph0" class="graph" transform="scale(1 1) rotate(0) translate(4 1182.25)">
<title>Ogre::IdObject</title>
<!-- Node1 -->
<g id="Node000001" class="node">
<title>Node1</title>
<g id="a_Node000001"><a xlink:title=" ">
<polygon fill="#999999" stroke="#666666" points="78.25,-296.25 0,-296.25 0,-277 78.25,-277 78.25,-296.25"/>
<text text-anchor="middle" x="39.12" y="-282.75" font-family="Helvetica,sans-Serif" font-size="10.00">Ogre::IdObject</text>
</a>
</g>
</g>
<!-- Node2 -->
<g id="Node000002" class="node">
<title>Node2</title>
<g id="a_Node000002"><a xlink:href="class_ogre_1_1_bone.html" target="_top" xlink:title="Class representing a Bone in the join hierarchy of a skeleton.">
<polygon fill="white" stroke="#666666" points="237.12,-826.25 173.12,-826.25 173.12,-807 237.12,-807 237.12,-826.25"/>
<text text-anchor="middle" x="205.12" y="-812.75" font-family="Helvetica,sans-Serif" font-size="10.00">Ogre::Bone</text>
</a>
</g>
</g>
<!-- Node1&#45;&gt;Node2 -->
<g id="edge1_Node000001_Node000002" class="edge">
<title>Node1&#45;&gt;Node2</title>
<g id="a_edge1_Node000001_Node000002"><a xlink:title=" ">
<path fill="none" stroke="#63b8ff" d="M40.07,-307.93C40.31,-395.5 45.8,-726.38 114.25,-798.62 129.03,-814.22 153.21,-818.37 172.77,-818.81"/>
<polygon fill="#63b8ff" stroke="#63b8ff" points="43.57,-307.95 40.07,-297.96 36.57,-307.96 43.57,-307.95"/>
</a>
</g>
</g>
<!-- Node3 -->
<g id="Node000003" class="node">
<title>Node3</title>
<g id="a_Node000003"><a xlink:href="class_ogre_1_1_compositor_node.html" target="_top" xlink:title="Compositor nodes are the core subject of compositing.">
<polygon fill="white" stroke="#666666" points="262.25,-789.25 148,-789.25 148,-770 262.25,-770 262.25,-789.25"/>
<text text-anchor="middle" x="205.12" y="-775.75" font-family="Helvetica,sans-Serif" font-size="10.00">Ogre::CompositorNode</text>
</a>
</g>
</g>
<!-- Node1&#45;&gt;Node3 -->
<g id="edge2_Node000001_Node000003" class="edge">
<title>Node1&#45;&gt;Node3</title>
<g id="a_edge2_Node000001_Node000003"><a xlink:title=" ">
<path fill="none" stroke="#63b8ff" d="M40.34,-307.98C41.63,-391.58 50.67,-695.26 114.25,-761.62 123.06,-770.82 135.14,-776.02 147.58,-778.83"/>
<polygon fill="#63b8ff" stroke="#63b8ff" points="43.84,-307.99 40.21,-298.04 36.84,-308.08 43.84,-307.99"/>
</a>
</g>
</g>
<!-- Node5 -->
<g id="Node000005" class="node">
<title>Node5</title>
<g id="a_Node000005"><a xlink:href="class_ogre_1_1_compositor_workspace.html" target="_top" xlink:title="A compositor workspace is the main interface to render into an RT, be it a RenderWindow or an RTT (Re...">
<polygon fill="white" stroke="#666666" points="275,-752.25 135.25,-752.25 135.25,-733 275,-733 275,-752.25"/>
<text text-anchor="middle" x="205.12" y="-738.75" font-family="Helvetica,sans-Serif" font-size="10.00">Ogre::CompositorWorkspace</text>
</a>
</g>
</g>
<!-- Node1&#45;&gt;Node5 -->
<g id="edge4_Node000001_Node000005" class="edge">
<title>Node1&#45;&gt;Node5</title>
<g id="a_edge4_Node000001_Node000005"><a xlink:title=" ">
<path fill="none" stroke="#63b8ff" d="M40.64,-307.83C43.02,-387.03 55.49,-664.07 114.25,-724.62 120.01,-730.56 127.14,-734.83 134.85,-737.86"/>
<polygon fill="#63b8ff" stroke="#63b8ff" points="44.15,-307.92 40.37,-298.02 37.15,-308.12 44.15,-307.92"/>
</a>
</g>
</g>
<!-- Node6 -->
<g id="Node000006" class="node">
<title>Node6</title>
<g id="a_Node000006"><a xlink:href="class_ogre_1_1_irradiance_field.html" target="_top" xlink:title="Implements an Irradiance Field with Depth, inspired on DDGI.">
<polygon fill="white" stroke="#666666" points="257.75,-715.25 152.5,-715.25 152.5,-696 257.75,-696 257.75,-715.25"/>
<text text-anchor="middle" x="205.12" y="-701.75" font-family="Helvetica,sans-Serif" font-size="10.00">Ogre::IrradianceField</text>
</a>
</g>
</g>
<!-- Node1&#45;&gt;Node6 -->
<g id="edge5_Node000001_Node000006" class="edge">
<title>Node1&#45;&gt;Node6</title>
<g id="a_edge5_Node000001_Node000006"><a xlink:title=" ">
<path fill="none" stroke="#63b8ff" d="M40.99,-307.46C44.5,-381.85 60.23,-632.8 114.25,-687.62 124.3,-697.83 138.39,-703.08 152.44,-705.6"/>
<polygon fill="#63b8ff" stroke="#63b8ff" points="44.5,-307.75 40.56,-297.91 37.51,-308.06 44.5,-307.75"/>
</a>
</g>
</g>
<!-- Node7 -->
<g id="Node000007" class="node">
<title>Node7</title>
<g id="a_Node000007"><a xlink:href="class_ogre_1_1_movable_object.html" target="_top" xlink:title="Abstract class defining a movable object in a scene.">
<polygon fill="white" stroke="#666666" points="258.5,-678.25 151.75,-678.25 151.75,-659 258.5,-659 258.5,-678.25"/>
<text text-anchor="middle" x="205.12" y="-664.75" font-family="Helvetica,sans-Serif" font-size="10.00">Ogre::MovableObject</text>
</a>
</g>
</g>
<!-- Node1&#45;&gt;Node7 -->
<g id="edge6_Node000001_Node000007" class="edge">
<title>Node1&#45;&gt;Node7</title>
<g id="a_edge6_Node000001_Node000007"><a xlink:title=" ">
<path fill="none" stroke="#63b8ff" d="M48.85,-306.95C78.95,-377.07 177.83,-607.38 199.78,-658.51"/>
<polygon fill="#63b8ff" stroke="#63b8ff" points="52.1,-305.65 44.94,-297.84 45.67,-308.41 52.1,-305.65"/>
</a>
</g>
</g>
<!-- Node38 -->
<g id="Node000038" class="node">
<title>Node38</title>
<g id="a_Node000038"><a xlink:href="class_ogre_1_1_node.html" target="_top" xlink:title="Class representing a general&#45;purpose node an articulated scene graph.">
<polygon fill="white" stroke="#666666" points="237.5,-315.25 172.75,-315.25 172.75,-296 237.5,-296 237.5,-315.25"/>
<text text-anchor="middle" x="205.12" y="-301.75" font-family="Helvetica,sans-Serif" font-size="10.00">Ogre::Node</text>
</a>
</g>
</g>
<!-- Node1&#45;&gt;Node38 -->
<g id="edge33_Node000001_Node000038" class="edge">
<title>Node1&#45;&gt;Node38</title>
<g id="a_edge33_Node000001_Node000038"><a xlink:title=" ">
<path fill="none" stroke="#63b8ff" d="M89.68,-292.37C116.49,-295.47 148.8,-299.22 172.25,-301.93"/>
<polygon fill="#63b8ff" stroke="#63b8ff" points="90.42,-288.93 80.08,-291.25 89.61,-295.88 90.42,-288.93"/>
</a>
</g>
</g>
<!-- Node44 -->
<g id="Node000044" class="node">
<title>Node44</title>
<g id="a_Node000044"><a xlink:href="class_ogre_1_1_parallax_corrected_cubemap_base.html" target="_top" xlink:title=" ">
<polygon fill="white" stroke="#666666" points="296,-278.25 114.25,-278.25 114.25,-259 296,-259 296,-278.25"/>
<text text-anchor="middle" x="205.12" y="-264.75" font-family="Helvetica,sans-Serif" font-size="10.00">Ogre::ParallaxCorrectedCubemapBase</text>
</a>
</g>
</g>
<!-- Node1&#45;&gt;Node44 -->
<g id="edge35_Node000001_Node000044" class="edge">
<title>Node1&#45;&gt;Node44</title>
<g id="a_edge35_Node000001_Node000044"><a xlink:title=" ">
<path fill="none" stroke="#63b8ff" d="M89.89,-281.16C97.6,-280.32 105.77,-279.42 114.04,-278.51"/>
<polygon fill="#63b8ff" stroke="#63b8ff" points="89.64,-277.67 80.08,-282.24 90.4,-284.63 89.64,-277.67"/>
</a>
</g>
</g>
<!-- Node47 -->
<g id="Node000047" class="node">
<title>Node47</title>
<g id="a_Node000047"><a xlink:href="class_ogre_1_1_scene_manager.html" target="_top" xlink:title="Manages the organisation and rendering of a &#39;scene&#39; i.e.">
<polygon fill="white" stroke="#666666" points="258.5,-204.25 151.75,-204.25 151.75,-185 258.5,-185 258.5,-204.25"/>
<text text-anchor="middle" x="205.12" y="-190.75" font-family="Helvetica,sans-Serif" font-size="10.00">Ogre::SceneManager</text>
</a>
</g>
</g>
<!-- Node1&#45;&gt;Node47 -->
<g id="edge38_Node000001_Node000047" class="edge">
<title>Node1&#45;&gt;Node47</title>
<g id="a_edge38_Node000001_Node000047"><a xlink:title=" ">
<path fill="none" stroke="#63b8ff" d="M67.69,-271.16C101.47,-252.21 157.71,-220.66 186.28,-204.63"/>
<polygon fill="#63b8ff" stroke="#63b8ff" points="66.32,-267.92 59.31,-275.86 69.74,-274.02 66.32,-267.92"/>
</a>
</g>
</g>
<!-- Node52 -->
<g id="Node000052" class="node">
<title>Node52</title>
<g id="a_Node000052"><a xlink:href="class_ogre_1_1_vct_lighting.html" target="_top" xlink:title=" ">
<polygon fill="white" stroke="#666666" points="250.62,-167.25 159.62,-167.25 159.62,-148 250.62,-148 250.62,-167.25"/>
<text text-anchor="middle" x="205.12" y="-153.75" font-family="Helvetica,sans-Serif" font-size="10.00">Ogre::VctLighting</text>
</a>
</g>
</g>
<!-- Node1&#45;&gt;Node52 -->
<g id="edge43_Node000001_Node000052" class="edge">
<title>Node1&#45;&gt;Node52</title>
<g id="a_edge43_Node000001_Node000052"><a xlink:title=" ">
<path fill="none" stroke="#63b8ff" d="M48.01,-266.07C58.88,-240.61 81,-197.88 114.25,-175.62 127.47,-166.77 144.08,-162.09 159.41,-159.67"/>
<polygon fill="#63b8ff" stroke="#63b8ff" points="44.77,-264.73 44.25,-275.31 51.26,-267.36 44.77,-264.73"/>
</a>
</g>
</g>
<!-- Node53 -->
<g id="Node000053" class="node">
<title>Node53</title>
<g id="a_Node000053"><a xlink:href="class_ogre_1_1_vct_material.html" target="_top" xlink:title=" ">
<polygon fill="white" stroke="#666666" points="250.62,-130.25 159.62,-130.25 159.62,-111 250.62,-111 250.62,-130.25"/>
<text text-anchor="middle" x="205.12" y="-116.75" font-family="Helvetica,sans-Serif" font-size="10.00">Ogre::VctMaterial</text>
</a>
</g>
</g>
<!-- Node1&#45;&gt;Node53 -->
<g id="edge44_Node000001_Node000053" class="edge">
<title>Node1&#45;&gt;Node53</title>
<g id="a_edge44_Node000001_Node000053"><a xlink:title=" ">
<path fill="none" stroke="#63b8ff" d="M44.39,-265.94C52.22,-233.43 72.12,-170.79 114.25,-138.62 127.02,-128.87 143.71,-124.01 159.23,-121.7"/>
<polygon fill="#63b8ff" stroke="#63b8ff" points="41.06,-264.79 42.29,-275.32 47.89,-266.32 41.06,-264.79"/>
</a>
</g>
</g>
<!-- Node54 -->
<g id="Node000054" class="node">
<title>Node54</title>
<g id="a_Node000054"><a xlink:href="class_ogre_1_1_vct_voxelizer_source_base.html" target="_top" xlink:title="This class contains shared functionality between voxelizer; and is used by VctLighting to source its ...">
<polygon fill="white" stroke="#666666" points="279.5,-75.25 130.75,-75.25 130.75,-56 279.5,-56 279.5,-75.25"/>
<text text-anchor="middle" x="205.12" y="-61.75" font-family="Helvetica,sans-Serif" font-size="10.00">Ogre::VctVoxelizerSourceBase</text>
</a>
</g>
</g>
<!-- Node1&#45;&gt;Node54 -->
<g id="edge45_Node000001_Node000054" class="edge">
<title>Node1&#45;&gt;Node54</title>
<g id="a_edge45_Node000001_Node000054"><a xlink:title=" ">
<path fill="none" stroke="#63b8ff" d="M43.05,-265.62C49.36,-227.89 67.65,-148.22 114.25,-101.62 126.49,-89.38 143.43,-81.17 159.31,-75.71"/>
<polygon fill="#63b8ff" stroke="#63b8ff" points="39.64,-264.79 41.57,-275.21 46.55,-265.86 39.64,-264.79"/>
</a>
</g>
</g>
<!-- Node57 -->
<g id="Node000057" class="node">
<title>Node57</title>
<g id="a_Node000057"><a xlink:href="class_ogre_1_1_voxelized_mesh_cache.html" target="_top" xlink:title="Uses a VctVoxelizer to convert a single mesh made up of triangles into a voxel 3D texture representat...">
<polygon fill="white" stroke="#666666" points="272.38,-38.25 137.88,-38.25 137.88,-19 272.38,-19 272.38,-38.25"/>
<text text-anchor="middle" x="205.12" y="-24.75" font-family="Helvetica,sans-Serif" font-size="10.00">Ogre::VoxelizedMeshCache</text>
</a>
</g>
</g>
<!-- Node1&#45;&gt;Node57 -->
<g id="edge48_Node000001_Node000057" class="edge">
<title>Node1&#45;&gt;Node57</title>
<g id="a_edge48_Node000001_Node000057"><a xlink:title=" ">
<path fill="none" stroke="#8b1a1a" d="M39.93,-265.07C40.75,-217.85 49.75,-104.86 114.25,-46.62 120.86,-40.65 128.89,-36.43 137.38,-33.48"/>
<polygon fill="#8b1a1a" stroke="#8b1a1a" points="36.43,-265.01 39.88,-275.03 43.43,-265.05 36.43,-265.01"/>
</a>
</g>
</g>
<!-- Node4 -->
<g id="Node000004" class="node">
<title>Node4</title>
<g id="a_Node000004"><a xlink:href="class_ogre_1_1_compositor_shadow_node.html" target="_top" xlink:title="Shadow Nodes are special nodes (not to be confused with.">
<polygon fill="white" stroke="#666666" points="496.5,-1178.25 347,-1178.25 347,-1159 496.5,-1159 496.5,-1178.25"/>
<text text-anchor="middle" x="421.75" y="-1164.75" font-family="Helvetica,sans-Serif" font-size="10.00">Ogre::CompositorShadowNode</text>
</a>
</g>
</g>
<!-- Node3&#45;&gt;Node4 -->
<g id="edge3_Node000003_Node000004" class="edge">
<title>Node3&#45;&gt;Node4</title>
<g id="a_edge3_Node000003_Node000004"><a xlink:title=" ">
<path fill="none" stroke="#63b8ff" d="M273.58,-783.18C282.08,-786.3 289.91,-790.92 296,-797.62 402.03,-914.36 226.11,-1033.76 332,-1150.62 336.22,-1155.29 341.29,-1158.93 346.84,-1161.76"/>
<polygon fill="#63b8ff" stroke="#63b8ff" points="274.58,-779.83 264.01,-780.4 272.64,-786.55 274.58,-779.83"/>
</a>
</g>
</g>
<!-- Node8 -->
<g id="Node000008" class="node">
<title>Node8</title>
<g id="a_Node000008"><a xlink:href="class_ogre_1_1_decal.html" target="_top" xlink:title="Decals can have diffuse, normal map, and emissive on top of regular objects.">
<polygon fill="white" stroke="#666666" points="454.88,-1141.25 388.62,-1141.25 388.62,-1122 454.88,-1122 454.88,-1141.25"/>
<text text-anchor="middle" x="421.75" y="-1127.75" font-family="Helvetica,sans-Serif" font-size="10.00">Ogre::Decal</text>
</a>
</g>
</g>
<!-- Node7&#45;&gt;Node8 -->
<g id="edge7_Node000007_Node000008" class="edge">
<title>Node7&#45;&gt;Node8</title>
<g id="a_edge7_Node000007_Node000008"><a xlink:title=" ">
<path fill="none" stroke="#63b8ff" d="M269.89,-670.79C279.83,-673.89 289.07,-678.87 296,-686.62 359.41,-757.67 268.68,-1042.5 332,-1113.62 345.8,-1129.13 368.96,-1133.43 388.17,-1133.96"/>
<polygon fill="#63b8ff" stroke="#63b8ff" points="270.94,-667.45 260.4,-668.48 269.28,-674.25 270.94,-667.45"/>
</a>
</g>
</g>
<!-- Node9 -->
<g id="Node000009" class="node">
<title>Node9</title>
<g id="a_Node000009"><a xlink:href="class_ogre_1_1_frustum.html" target="_top" xlink:title="A frustum represents a pyramid, capped at the near and far end which is used to represent either a vi...">
<polygon fill="white" stroke="#666666" points="460.5,-1104.25 383,-1104.25 383,-1085 460.5,-1085 460.5,-1104.25"/>
<text text-anchor="middle" x="421.75" y="-1090.75" font-family="Helvetica,sans-Serif" font-size="10.00">Ogre::Frustum</text>
</a>
</g>
</g>
<!-- Node7&#45;&gt;Node9 -->
<g id="edge8_Node000007_Node000009" class="edge">
<title>Node7&#45;&gt;Node9</title>
<g id="a_edge8_Node000007_Node000009"><a xlink:title=" ">
<path fill="none" stroke="#63b8ff" d="M269.84,-670.84C279.78,-673.94 289.04,-678.89 296,-686.62 354.21,-751.33 273.87,-1011.85 332,-1076.62 344.6,-1090.67 364.89,-1095.5 382.89,-1096.67"/>
<polygon fill="#63b8ff" stroke="#63b8ff" points="270.89,-667.49 260.34,-668.53 269.23,-674.29 270.89,-667.49"/>
</a>
</g>
</g>
<!-- Node13 -->
<g id="Node000013" class="node">
<title>Node13</title>
<g id="a_Node000013"><a xlink:href="class_ogre_1_1_ifd_probe_visualizer.html" target="_top" xlink:title=" ">
<polygon fill="white" stroke="#666666" points="481.88,-1067.25 361.62,-1067.25 361.62,-1048 481.88,-1048 481.88,-1067.25"/>
<text text-anchor="middle" x="421.75" y="-1053.75" font-family="Helvetica,sans-Serif" font-size="10.00">Ogre::IfdProbeVisualizer</text>
</a>
</g>
</g>
<!-- Node7&#45;&gt;Node13 -->
<g id="edge10_Node000007_Node000013" class="edge">
<title>Node7&#45;&gt;Node13</title>
<g id="a_edge10_Node000007_Node000013"><a xlink:title=" ">
<path fill="none" stroke="#63b8ff" d="M269.78,-670.9C279.73,-673.99 289.01,-678.93 296,-686.62 402.03,-803.36 226.11,-922.76 332,-1039.62 339.71,-1048.13 350.23,-1053.25 361.35,-1056.22"/>
<polygon fill="#63b8ff" stroke="#63b8ff" points="270.82,-667.55 260.28,-668.58 269.17,-674.35 270.82,-667.55"/>
</a>
</g>
</g>
<!-- Node14 -->
<g id="Node000014" class="node">
<title>Node14</title>
<g id="a_Node000014"><a xlink:href="class_ogre_1_1_internal_cubemap_probe.html" target="_top" xlink:title="This class is internal and should not be interfaced directly by users.">
<polygon fill="white" stroke="#666666" points="492,-1030.25 351.5,-1030.25 351.5,-1011 492,-1011 492,-1030.25"/>
<text text-anchor="middle" x="421.75" y="-1016.75" font-family="Helvetica,sans-Serif" font-size="10.00">Ogre::InternalCubemapProbe</text>
</a>
</g>
</g>
<!-- Node7&#45;&gt;Node14 -->
<g id="edge11_Node000007_Node000014" class="edge">
<title>Node7&#45;&gt;Node14</title>
<g id="a_edge11_Node000007_Node000014"><a xlink:title=" ">
<path fill="none" stroke="#63b8ff" d="M269.71,-670.96C279.66,-674.05 288.96,-678.97 296,-686.62 391.65,-790.7 236.47,-898.44 332,-1002.62 337.31,-1008.42 343.94,-1012.64 351.15,-1015.67"/>
<polygon fill="#63b8ff" stroke="#63b8ff" points="270.74,-667.61 260.2,-668.66 269.09,-674.42 270.74,-667.61"/>
</a>
</g>
</g>
<!-- Node15 -->
<g id="Node000015" class="node">
<title>Node15</title>
<g id="a_Node000015"><a xlink:href="class_ogre_1_1_item.html" target="_top" xlink:title="Defines an instance of a discrete, movable object based on a Mesh.">
<polygon fill="white" stroke="#666666" points="452.25,-993.25 391.25,-993.25 391.25,-974 452.25,-974 452.25,-993.25"/>
<text text-anchor="middle" x="421.75" y="-979.75" font-family="Helvetica,sans-Serif" font-size="10.00">Ogre::Item</text>
</a>
</g>
</g>
<!-- Node7&#45;&gt;Node15 -->
<g id="edge12_Node000007_Node000015" class="edge">
<title>Node7&#45;&gt;Node15</title>
<g id="a_edge12_Node000007_Node000015"><a xlink:title=" ">
<path fill="none" stroke="#63b8ff" d="M269.61,-671.05C279.57,-674.13 288.9,-679.02 296,-686.62 381.29,-778.04 246.82,-874.1 332,-965.62 346.78,-981.51 371.42,-985.5 390.99,-985.8"/>
<polygon fill="#63b8ff" stroke="#63b8ff" points="270.64,-667.7 260.1,-668.75 269,-674.5 270.64,-667.7"/>
</a>
</g>
</g>
<!-- Node16 -->
<g id="Node000016" class="node">
<title>Node16</title>
<g id="a_Node000016"><a xlink:href="class_ogre_1_1_light.html" target="_top" xlink:title="Representation of a dynamic light source in the scene.">
<polygon fill="white" stroke="#666666" points="453.38,-956.25 390.12,-956.25 390.12,-937 453.38,-937 453.38,-956.25"/>
<text text-anchor="middle" x="421.75" y="-942.75" font-family="Helvetica,sans-Serif" font-size="10.00">Ogre::Light</text>
</a>
</g>
</g>
<!-- Node7&#45;&gt;Node16 -->
<g id="edge13_Node000007_Node000016" class="edge">
<title>Node7&#45;&gt;Node16</title>
<g id="a_edge13_Node000007_Node000016"><a xlink:title=" ">
<path fill="none" stroke="#63b8ff" d="M270.14,-671.37C279.87,-674.44 288.99,-679.25 296,-686.62 370.94,-765.41 257.15,-849.75 332,-928.62 346.61,-944.02 370.49,-948.18 389.8,-948.68"/>
<polygon fill="#63b8ff" stroke="#63b8ff" points="270.99,-667.97 260.44,-668.96 269.3,-674.77 270.99,-667.97"/>
</a>
</g>
</g>
<!-- Node18 -->
<g id="Node000018" class="node">
<title>Node18</title>
<g id="a_Node000018"><a xlink:href="class_ogre_1_1_manual_object.html" target="_top" xlink:title=" ">
<polygon fill="white" stroke="#666666" points="472.5,-919.25 371,-919.25 371,-900 472.5,-900 472.5,-919.25"/>
<text text-anchor="middle" x="421.75" y="-905.75" font-family="Helvetica,sans-Serif" font-size="10.00">Ogre::ManualObject</text>
</a>
</g>
</g>
<!-- Node7&#45;&gt;Node18 -->
<g id="edge15_Node000007_Node000018" class="edge">
<title>Node7&#45;&gt;Node18</title>
<g id="a_edge15_Node000007_Node000018"><a xlink:title=" ">
<path fill="none" stroke="#63b8ff" d="M269.66,-671.43C279.53,-674.48 288.82,-679.27 296,-686.62 360.63,-752.81 267.45,-825.36 332,-891.62 342.09,-901.99 356.39,-907.22 370.57,-909.68"/>
<polygon fill="#63b8ff" stroke="#63b8ff" points="270.82,-668.11 260.27,-669.12 269.15,-674.9 270.82,-668.11"/>
</a>
</g>
</g>
<!-- Node19 -->
<g id="Node000019" class="node">
<title>Node19</title>
<g id="a_Node000019"><a xlink:href="class_ogre_1_1_movable_plane.html" target="_top" xlink:title="Definition of a Plane that may be attached to a node, and the derived details of it retrieved simply.">
<polygon fill="white" stroke="#666666" points="473.25,-882.25 370.25,-882.25 370.25,-863 473.25,-863 473.25,-882.25"/>
<text text-anchor="middle" x="421.75" y="-868.75" font-family="Helvetica,sans-Serif" font-size="10.00">Ogre::MovablePlane</text>
</a>
</g>
</g>
<!-- Node7&#45;&gt;Node19 -->
<g id="edge16_Node000007_Node000019" class="edge">
<title>Node7&#45;&gt;Node19</title>
<g id="a_edge16_Node000007_Node000019"><a xlink:title=" ">
<path fill="none" stroke="#63b8ff" d="M269.44,-671.65C279.33,-674.68 288.68,-679.4 296,-686.62 350.36,-740.26 277.71,-800.93 332,-854.62 342.06,-864.58 356.02,-869.75 369.88,-872.29"/>
<polygon fill="#63b8ff" stroke="#63b8ff" points="270.58,-668.33 260.03,-669.36 268.92,-675.13 270.58,-668.33"/>
</a>
</g>
</g>
<!-- Node20 -->
<g id="Node000020" class="node">
<title>Node20</title>
<g id="a_Node000020"><a xlink:href="class_ogre_1_1_null_entity.html" target="_top" xlink:title=" ">
<polygon fill="white" stroke="#666666" points="463.12,-845.25 380.38,-845.25 380.38,-826 463.12,-826 463.12,-845.25"/>
<text text-anchor="middle" x="421.75" y="-831.75" font-family="Helvetica,sans-Serif" font-size="10.00">Ogre::NullEntity</text>
</a>
</g>
</g>
<!-- Node7&#45;&gt;Node20 -->
<g id="edge17_Node000007_Node000020" class="edge">
<title>Node7&#45;&gt;Node20</title>
<g id="a_edge17_Node000007_Node000020"><a xlink:title=" ">
<path fill="none" stroke="#63b8ff" d="M269.75,-672.21C279.44,-675.2 288.64,-679.77 296,-686.62 340.17,-727.79 287.88,-776.41 332,-817.62 344.87,-829.64 363.46,-834.59 380.31,-836.36"/>
<polygon fill="#63b8ff" stroke="#63b8ff" points="270.69,-668.84 260.14,-669.83 269.01,-675.63 270.69,-668.84"/>
</a>
</g>
</g>
<!-- Node21 -->
<g id="Node000021" class="node">
<title>Node21</title>
<g id="a_Node000021"><a xlink:href="class_ogre_1_1_particle_system.html" target="_top" xlink:title="Class defining particle system based special effects.">
<polygon fill="white" stroke="#666666" points="475.5,-808.25 368,-808.25 368,-789 475.5,-789 475.5,-808.25"/>
<text text-anchor="middle" x="421.75" y="-794.75" font-family="Helvetica,sans-Serif" font-size="10.00">Ogre::ParticleSystem</text>
</a>
</g>
</g>
<!-- Node7&#45;&gt;Node21 -->
<g id="edge18_Node000007_Node000021" class="edge">
<title>Node7&#45;&gt;Node21</title>
<g id="a_edge18_Node000007_Node000021"><a xlink:title=" ">
<path fill="none" stroke="#63b8ff" d="M269.53,-672.93C279.16,-675.85 288.4,-680.21 296,-686.62 330.18,-715.49 297.86,-751.72 332,-780.62 341.96,-789.06 354.79,-793.91 367.58,-796.63"/>
<polygon fill="#63b8ff" stroke="#63b8ff" points="270.57,-669.59 260.02,-670.58 268.89,-676.38 270.57,-669.59"/>
</a>
</g>
</g>
<!-- Node22 -->
<g id="Node000022" class="node">
<title>Node22</title>
<g id="a_Node000022"><a xlink:href="class_ogre_1_1_portal_base.html" target="_top" xlink:title="PortalBase &#45; Base class to Portal and AntiPortal classes.">
<polygon fill="white" stroke="#666666" points="466.5,-771.25 377,-771.25 377,-752 466.5,-752 466.5,-771.25"/>
<text text-anchor="middle" x="421.75" y="-757.75" font-family="Helvetica,sans-Serif" font-size="10.00">Ogre::PortalBase</text>
</a>
</g>
</g>
<!-- Node7&#45;&gt;Node22 -->
<g id="edge19_Node000007_Node000022" class="edge">
<title>Node7&#45;&gt;Node22</title>
<g id="a_edge19_Node000007_Node000022"><a xlink:title=" ">
<path fill="none" stroke="#63b8ff" d="M269.83,-674.65C279.12,-677.39 288.18,-681.24 296,-686.62 320.69,-703.61 307.33,-726.61 332,-743.62 345.07,-752.64 361.64,-757.34 376.92,-759.73"/>
<polygon fill="#63b8ff" stroke="#63b8ff" points="270.89,-671.31 260.34,-672.29 269.2,-678.1 270.89,-671.31"/>
</a>
</g>
</g>
<!-- Node25 -->
<g id="Node000025" class="node">
<title>Node25</title>
<g id="a_Node000025"><a xlink:href="class_ogre_1_1_rectangle2_d.html" target="_top" xlink:title=" ">
<polygon fill="white" stroke="#666666" points="470.25,-734.25 373.25,-734.25 373.25,-715 470.25,-715 470.25,-734.25"/>
<text text-anchor="middle" x="421.75" y="-720.75" font-family="Helvetica,sans-Serif" font-size="10.00">Ogre::Rectangle2D</text>
</a>
</g>
</g>
<!-- Node7&#45;&gt;Node25 -->
<g id="edge22_Node000007_Node000025" class="edge">
<title>Node7&#45;&gt;Node25</title>
<g id="a_edge22_Node000007_Node000025"><a xlink:title=" ">
<path fill="none" stroke="#63b8ff" d="M269.88,-678.84C278.78,-681 287.7,-683.57 296,-686.62 313.18,-692.94 314.83,-700.29 332,-706.62 344.98,-711.42 359.52,-715.04 373.02,-717.73"/>
<polygon fill="#63b8ff" stroke="#63b8ff" points="270.69,-675.43 260.16,-676.65 269.15,-682.26 270.69,-675.43"/>
</a>
</g>
</g>
<!-- Node26 -->
<g id="Node000026" class="node">
<title>Node26</title>
<g id="a_Node000026"><a xlink:href="class_ogre_1_1_voxel_visualizer.html" target="_top" xlink:title=" ">
<polygon fill="white" stroke="#666666" points="475.5,-697.25 368,-697.25 368,-678 475.5,-678 475.5,-697.25"/>
<text text-anchor="middle" x="421.75" y="-683.75" font-family="Helvetica,sans-Serif" font-size="10.00">Ogre::VoxelVisualizer</text>
</a>
</g>
</g>
<!-- Node7&#45;&gt;Node26 -->
<g id="edge23_Node000007_Node000026" class="edge">
<title>Node7&#45;&gt;Node26</title>
<g id="a_edge23_Node000007_Node000026"><a xlink:title=" ">
<path fill="none" stroke="#63b8ff" d="M270.09,-674.29C301.25,-677.05 338.26,-680.32 367.8,-682.94"/>
<polygon fill="#63b8ff" stroke="#63b8ff" points="270.68,-670.83 260.41,-673.43 270.06,-677.8 270.68,-670.83"/>
</a>
</g>
</g>
<!-- Node27 -->
<g id="Node000027" class="node">
<title>Node27</title>
<g id="a_Node000027"><a xlink:href="class_ogre_1_1_wire_aabb.html" target="_top" xlink:title="Helper class to display the Aabb of a MovableObject as lines.">
<polygon fill="white" stroke="#666666" points="463.5,-660.25 380,-660.25 380,-641 463.5,-641 463.5,-660.25"/>
<text text-anchor="middle" x="421.75" y="-646.75" font-family="Helvetica,sans-Serif" font-size="10.00">Ogre::WireAabb</text>
</a>
</g>
</g>
<!-- Node7&#45;&gt;Node27 -->
<g id="edge24_Node000007_Node000027" class="edge">
<title>Node7&#45;&gt;Node27</title>
<g id="a_edge24_Node000007_Node000027"><a xlink:title=" ">
<path fill="none" stroke="#63b8ff" d="M270.13,-663.26C305.6,-660.28 348.66,-656.67 379.64,-654.07"/>
<polygon fill="#63b8ff" stroke="#63b8ff" points="270.08,-659.75 260.41,-664.07 270.67,-666.72 270.08,-659.75"/>
</a>
</g>
</g>
<!-- Node28 -->
<g id="Node000028" class="node">
<title>Node28</title>
<g id="a_Node000028"><a xlink:href="class_ogre_1_1v1_1_1_billboard_chain.html" target="_top" xlink:title="Allows the rendering of a chain of connected billboards.">
<polygon fill="#fff0f0" stroke="red" points="481.12,-623.25 362.38,-623.25 362.38,-604 481.12,-604 481.12,-623.25"/>
<text text-anchor="middle" x="421.75" y="-609.75" font-family="Helvetica,sans-Serif" font-size="10.00">Ogre::v1::BillboardChain</text>
</a>
</g>
</g>
<!-- Node7&#45;&gt;Node28 -->
<g id="edge25_Node000007_Node000028" class="edge">
<title>Node7&#45;&gt;Node28</title>
<g id="a_edge25_Node000007_Node000028"><a xlink:title=" ">
<path fill="none" stroke="#63b8ff" d="M248.72,-655.12C272.98,-647.67 304.04,-638.56 332,-631.62 343.29,-628.83 355.47,-626.14 367.08,-623.74"/>
<polygon fill="#63b8ff" stroke="#63b8ff" points="247.7,-651.77 239.18,-658.07 249.77,-658.45 247.7,-651.77"/>
</a>
</g>
</g>
<!-- Node30 -->
<g id="Node000030" class="node">
<title>Node30</title>
<g id="a_Node000030"><a xlink:href="class_ogre_1_1v1_1_1_billboard_set.html" target="_top" xlink:title="A collection of billboards (faces which are always facing the given direction) with the same (default...">
<polygon fill="white" stroke="#666666" points="476.25,-586.25 367.25,-586.25 367.25,-567 476.25,-567 476.25,-586.25"/>
<text text-anchor="middle" x="421.75" y="-572.75" font-family="Helvetica,sans-Serif" font-size="10.00">Ogre::v1::BillboardSet</text>
</a>
</g>
</g>
<!-- Node7&#45;&gt;Node30 -->
<g id="edge26_Node000007_Node000030" class="edge">
<title>Node7&#45;&gt;Node30</title>
<g id="a_edge26_Node000007_Node000030"><a xlink:title=" ">
<path fill="none" stroke="#63b8ff" d="M228.79,-652.15C253.13,-635.24 293.51,-609.37 332,-594.62 343.01,-590.41 355.19,-587.12 366.9,-584.57"/>
<polygon fill="#63b8ff" stroke="#63b8ff" points="227.08,-649.08 220.93,-657.7 231.12,-654.79 227.08,-649.08"/>
</a>
</g>
</g>
<!-- Node31 -->
<g id="Node000031" class="node">
<title>Node31</title>
<g id="a_Node000031"><a xlink:href="class_ogre_1_1v1_1_1_entity.html" target="_top" xlink:title="Defines an instance of a discrete, movable object based on a Mesh.">
<polygon fill="white" stroke="#666666" points="462,-549.25 381.5,-549.25 381.5,-530 462,-530 462,-549.25"/>
<text text-anchor="middle" x="421.75" y="-535.75" font-family="Helvetica,sans-Serif" font-size="10.00">Ogre::v1::Entity</text>
</a>
</g>
</g>
<!-- Node7&#45;&gt;Node31 -->
<g id="edge27_Node000007_Node000031" class="edge">
<title>Node7&#45;&gt;Node31</title>
<g id="a_edge27_Node000007_Node000031"><a xlink:title=" ">
<path fill="none" stroke="#63b8ff" d="M221.37,-650.14C243.16,-625.03 285.73,-580.63 332,-557.62 347.2,-550.07 365.38,-545.68 381.3,-543.14"/>
<polygon fill="#63b8ff" stroke="#63b8ff" points="218.85,-647.7 215.05,-657.58 224.19,-652.23 218.85,-647.7"/>
</a>
</g>
</g>
<!-- Node32 -->
<g id="Node000032" class="node">
<title>Node32</title>
<g id="a_Node000032"><a xlink:href="class_ogre_1_1v1_1_1_manual_object.html" target="_top" xlink:title="Class providing a much simplified interface to generating manual objects with custom geometry.">
<polygon fill="white" stroke="#666666" points="480,-512.25 363.5,-512.25 363.5,-493 480,-493 480,-512.25"/>
<text text-anchor="middle" x="421.75" y="-498.75" font-family="Helvetica,sans-Serif" font-size="10.00">Ogre::v1::ManualObject</text>
</a>
</g>
</g>
<!-- Node7&#45;&gt;Node32 -->
<g id="edge28_Node000007_Node000032" class="edge">
<title>Node7&#45;&gt;Node32</title>
<g id="a_edge28_Node000007_Node000032"><a xlink:title=" ">
<path fill="none" stroke="#63b8ff" d="M216.83,-649.09C235.61,-616.79 277.71,-552.66 332,-520.62 341.48,-515.03 352.41,-511.15 363.29,-508.47"/>
<polygon fill="#63b8ff" stroke="#63b8ff" points="214,-646.98 212.11,-657.41 220.09,-650.43 214,-646.98"/>
</a>
</g>
</g>
<!-- Node33 -->
<g id="Node000033" class="node">
<title>Node33</title>
<g id="a_Node000033"><a xlink:href="class_ogre_1_1v1_1_1_overlay.html" target="_top" xlink:title="Represents a layer which is rendered on top of the &#39;normal&#39; scene contents.">
<polygon fill="white" stroke="#666666" points="466.5,-475.25 377,-475.25 377,-456 466.5,-456 466.5,-475.25"/>
<text text-anchor="middle" x="421.75" y="-461.75" font-family="Helvetica,sans-Serif" font-size="10.00">Ogre::v1::Overlay</text>
</a>
</g>
</g>
<!-- Node7&#45;&gt;Node33 -->
<g id="edge29_Node000007_Node000033" class="edge">
<title>Node7&#45;&gt;Node33</title>
<g id="a_edge29_Node000007_Node000033"><a xlink:title=" ">
<path fill="none" stroke="#63b8ff" d="M213.89,-648.09C229.71,-609.23 269.55,-525.14 332,-483.62 345.09,-474.92 361.5,-470.27 376.63,-467.83"/>
<polygon fill="#63b8ff" stroke="#63b8ff" points="210.71,-646.6 210.31,-657.19 217.23,-649.17 210.71,-646.6"/>
</a>
</g>
</g>
<!-- Node34 -->
<g id="Node000034" class="node">
<title>Node34</title>
<g id="a_Node000034"><a xlink:href="class_ogre_1_1v1_1_1_rectangle2_d.html" target="_top" xlink:title="Allows the rendering of a simple 2D rectangle This class renders a simple 2D rectangle; this rectangl...">
<polygon fill="white" stroke="#666666" points="477.75,-438.25 365.75,-438.25 365.75,-419 477.75,-419 477.75,-438.25"/>
<text text-anchor="middle" x="421.75" y="-424.75" font-family="Helvetica,sans-Serif" font-size="10.00">Ogre::v1::Rectangle2D</text>
</a>
</g>
</g>
<!-- Node7&#45;&gt;Node34 -->
<g id="edge30_Node000007_Node000034" class="edge">
<title>Node7&#45;&gt;Node34</title>
<g id="a_edge30_Node000007_Node000034"><a xlink:title=" ">
<path fill="none" stroke="#63b8ff" d="M211.58,-647.77C224.39,-603.14 260.86,-498.23 332,-446.62 341.8,-439.52 353.73,-435.06 365.63,-432.29"/>
<polygon fill="#63b8ff" stroke="#63b8ff" points="208.26,-646.64 208.98,-657.21 215.01,-648.5 208.26,-646.64"/>
</a>
</g>
</g>
<!-- Node35 -->
<g id="Node000035" class="node">
<title>Node35</title>
<g id="a_Node000035"><a xlink:href="class_ogre_1_1v1_1_1_simple_renderable.html" target="_top" xlink:title="Simple implementation of MovableObject and Renderable for single&#45;part custom objects.">
<polygon fill="#fff0f0" stroke="red" points="489.38,-401.25 354.12,-401.25 354.12,-382 489.38,-382 489.38,-401.25"/>
<text text-anchor="middle" x="421.75" y="-387.75" font-family="Helvetica,sans-Serif" font-size="10.00">Ogre::v1::SimpleRenderable</text>
</a>
</g>
</g>
<!-- Node7&#45;&gt;Node35 -->
<g id="edge31_Node000007_Node000035" class="edge">
<title>Node7&#45;&gt;Node35</title>
<g id="a_edge31_Node000007_Node000035"><a xlink:title=" ">
<path fill="none" stroke="#63b8ff" d="M209.85,-647.46C219.83,-597.46 252.02,-471.6 332,-409.62 338.46,-404.62 345.96,-400.9 353.81,-398.16"/>
<polygon fill="#63b8ff" stroke="#63b8ff" points="206.43,-646.73 208.01,-657.21 213.31,-648.03 206.43,-646.73"/>
</a>
</g>
</g>
<!-- Node37 -->
<g id="Node000037" class="node">
<title>Node37</title>
<g id="a_Node000037"><a xlink:href="class_ogre_1_1v1_1_1_static_geometry_1_1_region.html" target="_top" xlink:title="The details of a topological region which is the highest level of partitioning for this class.">
<polygon fill="white" stroke="#666666" points="483.75,-363.88 359.75,-363.88 359.75,-333.38 483.75,-333.38 483.75,-363.88"/>
<text text-anchor="start" x="367.75" y="-350.38" font-family="Helvetica,sans-Serif" font-size="10.00">Ogre::v1::StaticGeometry</text>
<text text-anchor="middle" x="421.75" y="-339.12" font-family="Helvetica,sans-Serif" font-size="10.00">::Region</text>
</a>
</g>
</g>
<!-- Node7&#45;&gt;Node37 -->
<g id="edge32_Node000007_Node000037" class="edge">
<title>Node7&#45;&gt;Node37</title>
<g id="a_edge32_Node000007_Node000037"><a xlink:title=" ">
<path fill="none" stroke="#63b8ff" d="M208.78,-647.43C216.74,-593.13 245.44,-447.99 332,-372.62 339.82,-365.81 349.4,-360.91 359.33,-357.39"/>
<polygon fill="#63b8ff" stroke="#63b8ff" points="205.34,-646.78 207.45,-657.16 212.27,-647.72 205.34,-646.78"/>
</a>
</g>
</g>
<!-- Node10 -->
<g id="Node000010" class="node">
<title>Node10</title>
<g id="a_Node000010"><a xlink:href="class_ogre_1_1_camera.html" target="_top" xlink:title="A viewpoint from which the scene will be rendered.">
<polygon fill="#fff0f0" stroke="red" points="627.25,-1104.25 552,-1104.25 552,-1085 627.25,-1085 627.25,-1104.25"/>
<text text-anchor="middle" x="589.62" y="-1090.75" font-family="Helvetica,sans-Serif" font-size="10.00">Ogre::Camera</text>
</a>
</g>
</g>
<!-- Node9&#45;&gt;Node10 -->
<g id="edge9_Node000009_Node000010" class="edge">
<title>Node9&#45;&gt;Node10</title>
<g id="a_edge9_Node000009_Node000010"><a xlink:title=" ">
<path fill="none" stroke="#63b8ff" d="M472.11,-1094.62C497.6,-1094.62 528.17,-1094.62 551.6,-1094.62"/>
<polygon fill="#63b8ff" stroke="#63b8ff" points="472.32,-1091.13 462.32,-1094.63 472.32,-1098.13 472.32,-1091.13"/>
</a>
</g>
</g>
<!-- Node17 -->
<g id="Node000017" class="node">
<title>Node17</title>
<g id="a_Node000017"><a xlink:href="class_ogre_1_1_p_c_z_light.html" target="_top" xlink:title="Specialized version of Ogre::Light which caches which zones the light affects.">
<polygon fill="white" stroke="#666666" points="631,-956.25 548.25,-956.25 548.25,-937 631,-937 631,-956.25"/>
<text text-anchor="middle" x="589.62" y="-942.75" font-family="Helvetica,sans-Serif" font-size="10.00">Ogre::PCZLight</text>
</a>
</g>
</g>
<!-- Node16&#45;&gt;Node17 -->
<g id="edge14_Node000016_Node000017" class="edge">
<title>Node16&#45;&gt;Node17</title>
<g id="a_edge14_Node000016_Node000017"><a xlink:title=" ">
<path fill="none" stroke="#63b8ff" d="M464.75,-946.62C490.27,-946.62 522.69,-946.62 547.96,-946.62"/>
<polygon fill="#63b8ff" stroke="#63b8ff" points="465.07,-943.13 455.07,-946.63 465.07,-950.13 465.07,-943.13"/>
</a>
</g>
</g>
<!-- Node23 -->
<g id="Node000023" class="node">
<title>Node23</title>
<g id="a_Node000023"><a xlink:href="class_ogre_1_1_anti_portal.html" target="_top" xlink:title="AntiPortal datastructure for occlusion culling.">
<polygon fill="white" stroke="#666666" points="631.75,-789.25 547.5,-789.25 547.5,-770 631.75,-770 631.75,-789.25"/>
<text text-anchor="middle" x="589.62" y="-775.75" font-family="Helvetica,sans-Serif" font-size="10.00">Ogre::AntiPortal</text>
</a>
</g>
</g>
<!-- Node22&#45;&gt;Node23 -->
<g id="edge20_Node000022_Node000023" class="edge">
<title>Node22&#45;&gt;Node23</title>
<g id="a_edge20_Node000022_Node000023"><a xlink:title=" ">
<path fill="none" stroke="#63b8ff" d="M477.93,-767.61C500.55,-770.07 526.3,-772.86 547.26,-775.14"/>
<polygon fill="#63b8ff" stroke="#63b8ff" points="478.59,-764.16 468.27,-766.56 477.83,-771.12 478.59,-764.16"/>
</a>
</g>
</g>
<!-- Node24 -->
<g id="Node000024" class="node">
<title>Node24</title>
<g id="a_Node000024"><a xlink:href="class_ogre_1_1_portal.html" target="_top" xlink:title="Portal datastructure for connecting zones.">
<polygon fill="white" stroke="#666666" points="623.12,-752.25 556.12,-752.25 556.12,-733 623.12,-733 623.12,-752.25"/>
<text text-anchor="middle" x="589.62" y="-738.75" font-family="Helvetica,sans-Serif" font-size="10.00">Ogre::Portal</text>
</a>
</g>
</g>
<!-- Node22&#45;&gt;Node24 -->
<g id="edge21_Node000022_Node000024" class="edge">
<title>Node22&#45;&gt;Node24</title>
<g id="a_edge21_Node000022_Node000024"><a xlink:title=" ">
<path fill="none" stroke="#63b8ff" d="M477.91,-755.31C503.69,-752.35 533.53,-748.94 555.72,-746.39"/>
<polygon fill="#63b8ff" stroke="#63b8ff" points="477.81,-751.8 468.27,-756.41 478.6,-758.75 477.81,-751.8"/>
</a>
</g>
</g>
<!-- Node39 -->
<g id="Node000039" class="node">
<title>Node39</title>
<g id="a_Node000039"><a xlink:href="class_ogre_1_1_scene_node.html" target="_top" xlink:title="Class representing a node in the scene graph.">
<polygon fill="#fff0f0" stroke="red" points="468,-315.25 375.5,-315.25 375.5,-296 468,-296 468,-315.25"/>
<text text-anchor="middle" x="421.75" y="-301.75" font-family="Helvetica,sans-Serif" font-size="10.00">Ogre::SceneNode</text>
</a>
</g>
</g>
<!-- Node38&#45;&gt;Node39 -->
<g id="edge34_Node000038_Node000039" class="edge">
<title>Node38&#45;&gt;Node39</title>
<g id="a_edge34_Node000038_Node000039"><a xlink:title=" ">
<path fill="none" stroke="#63b8ff" d="M249.05,-305.62C285.54,-305.62 337.8,-305.62 375.07,-305.62"/>
<polygon fill="#63b8ff" stroke="#63b8ff" points="249.31,-302.13 239.31,-305.63 249.31,-309.13 249.31,-302.13"/>
</a>
</g>
</g>
<!-- Node45 -->
<g id="Node000045" class="node">
<title>Node45</title>
<g id="a_Node000045"><a xlink:href="class_ogre_1_1_parallax_corrected_cubemap.html" target="_top" xlink:title=" ">
<polygon fill="white" stroke="#666666" points="501.38,-278.25 342.12,-278.25 342.12,-259 501.38,-259 501.38,-278.25"/>
<text text-anchor="middle" x="421.75" y="-264.75" font-family="Helvetica,sans-Serif" font-size="10.00">Ogre::ParallaxCorrectedCubemap</text>
</a>
</g>
</g>
<!-- Node44&#45;&gt;Node45 -->
<g id="edge36_Node000044_Node000045" class="edge">
<title>Node44&#45;&gt;Node45</title>
<g id="a_edge36_Node000044_Node000045"><a xlink:title=" ">
<path fill="none" stroke="#63b8ff" d="M307.64,-268.62C319.11,-268.62 330.68,-268.62 341.8,-268.62"/>
<polygon fill="#63b8ff" stroke="#63b8ff" points="307.73,-265.13 297.73,-268.63 307.73,-272.13 307.73,-265.13"/>
</a>
</g>
</g>
<!-- Node46 -->
<g id="Node000046" class="node">
<title>Node46</title>
<g id="a_Node000046"><a xlink:href="class_ogre_1_1_parallax_corrected_cubemap_auto.html" target="_top" xlink:title="Per&#45;Pixel reflection probes.">
<polygon fill="white" stroke="#666666" points="511.5,-241.25 332,-241.25 332,-222 511.5,-222 511.5,-241.25"/>
<text text-anchor="middle" x="421.75" y="-227.75" font-family="Helvetica,sans-Serif" font-size="10.00">Ogre::ParallaxCorrectedCubemapAuto</text>
</a>
</g>
</g>
<!-- Node44&#45;&gt;Node46 -->
<g id="edge37_Node000044_Node000046" class="edge">
<title>Node44&#45;&gt;Node46</title>
<g id="a_edge37_Node000044_Node000046"><a xlink:title=" ">
<path fill="none" stroke="#63b8ff" d="M276.04,-256.57C303.88,-251.77 335.57,-246.31 362.17,-241.72"/>
<polygon fill="#63b8ff" stroke="#63b8ff" points="275.52,-253.11 266.26,-258.26 276.71,-260.01 275.52,-253.11"/>
</a>
</g>
</g>
<!-- Node48 -->
<g id="Node000048" class="node">
<title>Node48</title>
<g id="a_Node000048"><a xlink:href="class_ogre_1_1_bsp_scene_manager.html" target="_top" xlink:title="Specialisation of the SceneManager class to deal with indoor scenes based on a BSP tree.">
<polygon fill="white" stroke="#666666" points="483.75,-204.25 359.75,-204.25 359.75,-185 483.75,-185 483.75,-204.25"/>
<text text-anchor="middle" x="421.75" y="-190.75" font-family="Helvetica,sans-Serif" font-size="10.00">Ogre::BspSceneManager</text>
</a>
</g>
</g>
<!-- Node47&#45;&gt;Node48 -->
<g id="edge39_Node000047_Node000048" class="edge">
<title>Node47&#45;&gt;Node48</title>
<g id="a_edge39_Node000047_Node000048"><a xlink:title=" ">
<path fill="none" stroke="#63b8ff" d="M270.27,-194.62C298.51,-194.62 331.52,-194.62 359.42,-194.62"/>
<polygon fill="#63b8ff" stroke="#63b8ff" points="270.42,-191.13 260.42,-194.63 270.42,-198.13 270.42,-191.13"/>
</a>
</g>
</g>
<!-- Node49 -->
<g id="Node000049" class="node">
<title>Node49</title>
<g id="a_Node000049"><a xlink:href="class_ogre_1_1_default_scene_manager.html" target="_top" xlink:title="Default scene manager.">
<polygon fill="white" stroke="#666666" points="490.5,-167.25 353,-167.25 353,-148 490.5,-148 490.5,-167.25"/>
<text text-anchor="middle" x="421.75" y="-153.75" font-family="Helvetica,sans-Serif" font-size="10.00">Ogre::DefaultSceneManager</text>
</a>
</g>
</g>
<!-- Node47&#45;&gt;Node49 -->
<g id="edge40_Node000047_Node000049" class="edge">
<title>Node47&#45;&gt;Node49</title>
<g id="a_edge40_Node000047_Node000049"><a xlink:title=" ">
<path fill="none" stroke="#63b8ff" d="M270.22,-183.58C299.38,-178.55 333.66,-172.64 362.13,-167.73"/>
<polygon fill="#63b8ff" stroke="#63b8ff" points="269.65,-180.12 260.39,-185.27 270.84,-187.02 269.65,-180.12"/>
</a>
</g>
</g>
<!-- Node50 -->
<g id="Node000050" class="node">
<title>Node50</title>
<g id="a_Node000050"><a xlink:href="class_ogre_1_1_octree_scene_manager.html" target="_top" xlink:title="Specialized SceneManager that divides the geometry into an octree in order to facilitate spatial quer...">
<polygon fill="white" stroke="#666666" points="489.75,-130.25 353.75,-130.25 353.75,-111 489.75,-111 489.75,-130.25"/>
<text text-anchor="middle" x="421.75" y="-116.75" font-family="Helvetica,sans-Serif" font-size="10.00">Ogre::OctreeSceneManager</text>
</a>
</g>
</g>
<!-- Node47&#45;&gt;Node50 -->
<g id="edge41_Node000047_Node000050" class="edge">
<title>Node47&#45;&gt;Node50</title>
<g id="a_edge41_Node000047_Node000050"><a xlink:title=" ">
<path fill="none" stroke="#63b8ff" d="M269.95,-186.94C279.02,-184.41 287.98,-181.06 296,-176.62 316.36,-165.37 311.65,-149.91 332,-138.62 338.6,-134.97 345.84,-132.05 353.26,-129.72"/>
<polygon fill="#63b8ff" stroke="#63b8ff" points="269.24,-183.51 260.36,-189.28 270.9,-190.31 269.24,-183.51"/>
</a>
</g>
</g>
<!-- Node51 -->
<g id="Node000051" class="node">
<title>Node51</title>
<g id="a_Node000051"><a xlink:href="class_ogre_1_1_p_c_z_scene_manager.html" target="_top" xlink:title="Specialized SceneManager that uses Portal&#45;Connected&#45;Zones to divide the scene spatially.">
<polygon fill="white" stroke="#666666" points="484.88,-93.25 358.62,-93.25 358.62,-74 484.88,-74 484.88,-93.25"/>
<text text-anchor="middle" x="421.75" y="-79.75" font-family="Helvetica,sans-Serif" font-size="10.00">Ogre::PCZSceneManager</text>
</a>
</g>
</g>
<!-- Node47&#45;&gt;Node51 -->
<g id="edge42_Node000047_Node000051" class="edge">
<title>Node47&#45;&gt;Node51</title>
<g id="a_edge42_Node000047_Node000051"><a xlink:title=" ">
<path fill="none" stroke="#63b8ff" d="M269.43,-189.68C278.99,-186.82 288.24,-182.65 296,-176.62 325.2,-153.94 302.83,-124.34 332,-101.62 339.69,-95.64 348.86,-91.49 358.34,-88.65"/>
<polygon fill="#63b8ff" stroke="#63b8ff" points="268.89,-186.2 260.03,-192 270.57,-193 268.89,-186.2"/>
</a>
</g>
</g>
<!-- Node55 -->
<g id="Node000055" class="node">
<title>Node55</title>
<g id="a_Node000055"><a xlink:href="class_ogre_1_1_vct_image_voxelizer.html" target="_top" xlink:title="The image voxelizer aims to be faster than VctImageVoxelizer for the whole scene by following a diffe...">
<polygon fill="white" stroke="#666666" points="483,-56.25 360.5,-56.25 360.5,-37 483,-37 483,-56.25"/>
<text text-anchor="middle" x="421.75" y="-42.75" font-family="Helvetica,sans-Serif" font-size="10.00">Ogre::VctImageVoxelizer</text>
</a>
</g>
</g>
<!-- Node54&#45;&gt;Node55 -->
<g id="edge46_Node000054_Node000055" class="edge">
<title>Node54&#45;&gt;Node55</title>
<g id="a_edge46_Node000054_Node000055"><a xlink:title=" ">
<path fill="none" stroke="#63b8ff" d="M291.19,-58.09C314.29,-56.05 338.83,-53.88 360.27,-51.98"/>
<polygon fill="#63b8ff" stroke="#63b8ff" points="291.15,-54.58 281.49,-58.95 291.76,-61.56 291.15,-54.58"/>
</a>
</g>
</g>
<!-- Node56 -->
<g id="Node000056" class="node">
<title>Node56</title>
<g id="a_Node000056"><a xlink:href="class_ogre_1_1_vct_voxelizer.html" target="_top" xlink:title="The voxelizer consists in several stages.">
<polygon fill="white" stroke="#666666" points="469.5,-19.25 374,-19.25 374,0 469.5,0 469.5,-19.25"/>
<text text-anchor="middle" x="421.75" y="-5.75" font-family="Helvetica,sans-Serif" font-size="10.00">Ogre::VctVoxelizer</text>
</a>
</g>
</g>
<!-- Node54&#45;&gt;Node56 -->
<g id="edge47_Node000054_Node000056" class="edge">
<title>Node54&#45;&gt;Node56</title>
<g id="a_edge47_Node000054_Node000056"><a xlink:title=" ">
<path fill="none" stroke="#63b8ff" d="M280.28,-52.68C285.66,-51.17 290.95,-49.48 296,-47.62 313.18,-41.31 314.83,-33.96 332,-27.62 345.27,-22.73 360.18,-19.05 373.94,-16.33"/>
<polygon fill="#63b8ff" stroke="#63b8ff" points="279.44,-49.29 270.65,-55.2 281.21,-56.06 279.44,-49.29"/>
</a>
</g>
</g>
</g>
</svg>
