<?xml version="1.0" encoding="UTF-8" standalone="no"?>
<!DOCTYPE svg PUBLIC "-//W3C//DTD SVG 1.1//EN"
 "http://www.w3.org/Graphics/SVG/1.1/DTD/svg11.dtd">
<!-- Generated by graphviz version 9.0.0 (20230911.1827)
 -->
<!-- Title: Ogre::AsyncTextureTicket Pages: 1 -->
<svg width="492pt" height="199pt"
 viewBox="0.00 0.00 491.75 198.88" xmlns="http://www.w3.org/2000/svg" xmlns:xlink="http://www.w3.org/1999/xlink">
<g id="graph0" class="graph" transform="scale(1 1) rotate(0) translate(4 194.88)">
<title>Ogre::AsyncTextureTicket</title>
<!-- Node1 -->
<g id="Node000001" class="node">
<title>Node1</title>
<g id="a_Node000001"><a xlink:title="In Ogre 2.2 reading data from GPU back to CPU is asynchronous.">
<polygon fill="#999999" stroke="#666666" points="290.75,-104.88 163,-104.88 163,-85.62 290.75,-85.62 290.75,-104.88"/>
<text text-anchor="middle" x="226.88" y="-91.38" font-family="Helvetica,sans-Serif" font-size="10.00">Ogre::AsyncTextureTicket</text>
</a>
</g>
</g>
<!-- Node4 -->
<g id="Node000004" class="node">
<title>Node4</title>
<g id="a_Node000004"><a xlink:href="class_ogre_1_1_d3_d11_async_texture_ticket.html" target="_top" xlink:title="See AsyncTextureTicket.">
<polygon fill="white" stroke="#666666" points="483.75,-190.88 326.75,-190.88 326.75,-171.62 483.75,-171.62 483.75,-190.88"/>
<text text-anchor="middle" x="405.25" y="-177.38" font-family="Helvetica,sans-Serif" font-size="10.00">Ogre::D3D11AsyncTextureTicket</text>
</a>
</g>
</g>
<!-- Node1&#45;&gt;Node4 -->
<g id="edge3_Node000001_Node000004" class="edge">
<title>Node1&#45;&gt;Node4</title>
<g id="a_edge3_Node000001_Node000004"><a xlink:title=" ">
<path fill="none" stroke="#63b8ff" d="M248.25,-112.26C267.39,-127.44 297.41,-149.22 326.75,-162.25 334.73,-165.79 343.47,-168.74 352.12,-171.18"/>
<polygon fill="#63b8ff" stroke="#63b8ff" points="250.68,-109.73 240.71,-106.16 246.28,-115.17 250.68,-109.73"/>
</a>
</g>
</g>
<!-- Node5 -->
<g id="Node000005" class="node">
<title>Node5</title>
<g id="a_Node000005"><a xlink:href="class_ogre_1_1_g_l3_plus_async_texture_ticket.html" target="_top" xlink:title="See AsyncTextureTicket.">
<polygon fill="white" stroke="#666666" points="474.75,-153.5 335.75,-153.5 335.75,-123 474.75,-123 474.75,-153.5"/>
<text text-anchor="start" x="343.75" y="-140" font-family="Helvetica,sans-Serif" font-size="10.00">Ogre::GL3PlusAsyncTexture</text>
<text text-anchor="middle" x="405.25" y="-128.75" font-family="Helvetica,sans-Serif" font-size="10.00">Ticket</text>
</a>
</g>
</g>
<!-- Node1&#45;&gt;Node5 -->
<g id="edge4_Node000001_Node000005" class="edge">
<title>Node1&#45;&gt;Node5</title>
<g id="a_edge4_Node000001_Node000005"><a xlink:title=" ">
<path fill="none" stroke="#63b8ff" d="M280.18,-108C298.85,-112.55 320.11,-117.74 339.69,-122.51"/>
<polygon fill="#63b8ff" stroke="#63b8ff" points="281.24,-104.66 270.7,-105.69 279.58,-111.46 281.24,-104.66"/>
</a>
</g>
</g>
<!-- Node6 -->
<g id="Node000006" class="node">
<title>Node6</title>
<g id="a_Node000006"><a xlink:href="class_ogre_1_1_metal_async_texture_ticket.html" target="_top" xlink:title="See AsyncTextureTicket.">
<polygon fill="white" stroke="#666666" points="481.12,-104.88 329.38,-104.88 329.38,-85.62 481.12,-85.62 481.12,-104.88"/>
<text text-anchor="middle" x="405.25" y="-91.38" font-family="Helvetica,sans-Serif" font-size="10.00">Ogre::MetalAsyncTextureTicket</text>
</a>
</g>
</g>
<!-- Node1&#45;&gt;Node6 -->
<g id="edge5_Node000001_Node000006" class="edge">
<title>Node1&#45;&gt;Node6</title>
<g id="a_edge5_Node000001_Node000006"><a xlink:title=" ">
<path fill="none" stroke="#63b8ff" d="M302.51,-95.25C311.34,-95.25 320.35,-95.25 329.18,-95.25"/>
<polygon fill="#63b8ff" stroke="#63b8ff" points="302.57,-91.75 292.57,-95.25 302.57,-98.75 302.57,-91.75"/>
</a>
</g>
</g>
<!-- Node7 -->
<g id="Node000007" class="node">
<title>Node7</title>
<g id="a_Node000007"><a xlink:href="class_ogre_1_1_n_u_l_l_async_texture_ticket.html" target="_top" xlink:title="See AsyncTextureTicket.">
<polygon fill="white" stroke="#666666" points="482.62,-67.88 327.88,-67.88 327.88,-48.62 482.62,-48.62 482.62,-67.88"/>
<text text-anchor="middle" x="405.25" y="-54.38" font-family="Helvetica,sans-Serif" font-size="10.00">Ogre::NULLAsyncTextureTicket</text>
</a>
</g>
</g>
<!-- Node1&#45;&gt;Node7 -->
<g id="edge6_Node000001_Node000007" class="edge">
<title>Node1&#45;&gt;Node7</title>
<g id="a_edge6_Node000001_Node000007"><a xlink:title=" ">
<path fill="none" stroke="#63b8ff" d="M287.17,-82.81C309.6,-78.11 334.83,-72.81 356.11,-68.35"/>
<polygon fill="#63b8ff" stroke="#63b8ff" points="286.62,-79.35 277.55,-84.83 288.06,-86.2 286.62,-79.35"/>
</a>
</g>
</g>
<!-- Node8 -->
<g id="Node000008" class="node">
<title>Node8</title>
<g id="a_Node000008"><a xlink:href="class_ogre_1_1_vulkan_async_texture_ticket.html" target="_top" xlink:title="See AsyncTextureTicket.">
<polygon fill="white" stroke="#666666" points="470.62,-30.5 339.88,-30.5 339.88,0 470.62,0 470.62,-30.5"/>
<text text-anchor="start" x="347.88" y="-17" font-family="Helvetica,sans-Serif" font-size="10.00">Ogre::VulkanAsyncTexture</text>
<text text-anchor="middle" x="405.25" y="-5.75" font-family="Helvetica,sans-Serif" font-size="10.00">Ticket</text>
</a>
</g>
</g>
<!-- Node1&#45;&gt;Node8 -->
<g id="edge7_Node000001_Node000008" class="edge">
<title>Node1&#45;&gt;Node8</title>
<g id="a_edge7_Node000001_Node000008"><a xlink:title=" ">
<path fill="none" stroke="#63b8ff" d="M252.73,-79.18C272.28,-67.04 300.5,-50.59 326.75,-39.25 333.73,-36.23 341.22,-33.42 348.68,-30.86"/>
<polygon fill="#63b8ff" stroke="#63b8ff" points="250.97,-76.15 244.38,-84.45 254.7,-82.08 250.97,-76.15"/>
</a>
</g>
</g>
<!-- Node2 -->
<g id="Node000002" class="node">
<title>Node2</title>
<g id="a_Node000002"><a xlink:href="class_ogre_1_1_allocated_object.html" target="_top" xlink:title="Superclass for all objects that wish to use custom memory allocators when their new / delete operator...">
<polygon fill="white" stroke="#666666" points="93.62,-123.88 33.38,-123.88 33.38,-104.62 93.62,-104.62 93.62,-123.88"/>
<text text-anchor="middle" x="63.5" y="-110.38" font-family="Helvetica,sans-Serif" font-size="10.00">PassAlloc</text>
</a>
</g>
</g>
<!-- Node2&#45;&gt;Node1 -->
<g id="edge1_Node000001_Node000002" class="edge">
<title>Node2&#45;&gt;Node1</title>
<g id="a_edge1_Node000001_Node000002"><a xlink:title=" ">
<path fill="none" stroke="#63b8ff" d="M105.53,-109.42C122.88,-107.38 143.49,-104.95 162.7,-102.69"/>
<polygon fill="#63b8ff" stroke="#63b8ff" points="105.12,-105.94 95.6,-110.59 105.94,-112.89 105.12,-105.94"/>
</a>
</g>
</g>
<!-- Node3 -->
<g id="Node000003" class="node">
<title>Node3</title>
<g id="a_Node000003"><a xlink:href="class_ogre_1_1_texture_gpu_listener.html" target="_top" xlink:title=" ">
<polygon fill="white" stroke="#666666" points="127,-86.88 0,-86.88 0,-67.62 127,-67.62 127,-86.88"/>
<text text-anchor="middle" x="63.5" y="-73.38" font-family="Helvetica,sans-Serif" font-size="10.00">Ogre::TextureGpuListener</text>
</a>
</g>
</g>
<!-- Node3&#45;&gt;Node1 -->
<g id="edge2_Node000001_Node000003" class="edge">
<title>Node3&#45;&gt;Node1</title>
<g id="a_edge2_Node000001_Node000003"><a xlink:title=" ">
<path fill="none" stroke="#63b8ff" d="M138.62,-85.52C146.65,-86.41 154.77,-87.32 162.66,-88.2"/>
<polygon fill="#63b8ff" stroke="#63b8ff" points="139.18,-82.06 128.86,-84.43 138.41,-89.02 139.18,-82.06"/>
</a>
</g>
</g>
</g>
</svg>
