<?xml version="1.0" encoding="UTF-8" standalone="no"?>
<!DOCTYPE svg PUBLIC "-//W3C//DTD SVG 1.1//EN"
 "http://www.w3.org/Graphics/SVG/1.1/DTD/svg11.dtd">
<!-- Generated by graphviz version 9.0.0 (20230911.1827)
 -->
<!-- Title: Ogre::SmallVectorTemplateBase&lt; T, isPodLike &gt; Pages: 1 -->
<svg width="254pt" height="227pt"
 viewBox="0.00 0.00 253.50 226.75" xmlns="http://www.w3.org/2000/svg" xmlns:xlink="http://www.w3.org/1999/xlink">
<g id="graph0" class="graph" transform="scale(1 1) rotate(0) translate(4 222.75)">
<title>Ogre::SmallVectorTemplateBase&lt; T, isPodLike &gt;</title>
<!-- Node1 -->
<g id="Node000001" class="node">
<title>Node1</title>
<g id="a_Node000001"><a xlink:title="SmallVectorTemplateBase&lt;isPodLike = false&gt; &#45; This is where we put method implementations that are des...">
<polygon fill="#999999" stroke="#666666" points="190.38,-97 55.12,-97 55.12,-66.5 190.38,-66.5 190.38,-97"/>
<text text-anchor="start" x="63.12" y="-83.5" font-family="Helvetica,sans-Serif" font-size="10.00">Ogre::SmallVectorTemplate</text>
<text text-anchor="middle" x="122.75" y="-72.25" font-family="Helvetica,sans-Serif" font-size="10.00">Base&lt; T, isPodLike &gt;</text>
</a>
</g>
</g>
<!-- Node4 -->
<g id="Node000004" class="node">
<title>Node4</title>
<g id="a_Node000004"><a xlink:href="class_ogre_1_1_small_vector_impl.html" target="_top" xlink:title=" ">
<polygon fill="white" stroke="#666666" points="113.5,-30.5 0,-30.5 0,0 113.5,0 113.5,-30.5"/>
<text text-anchor="start" x="8" y="-17" font-family="Helvetica,sans-Serif" font-size="10.00">Ogre::SmallVectorImpl</text>
<text text-anchor="middle" x="56.75" y="-5.75" font-family="Helvetica,sans-Serif" font-size="10.00">&lt; Edge &gt;</text>
</a>
</g>
</g>
<!-- Node1&#45;&gt;Node4 -->
<g id="edge3_Node000001_Node000004" class="edge">
<title>Node1&#45;&gt;Node4</title>
<g id="a_edge3_Node000001_Node000004"><a xlink:title=" ">
<path fill="none" stroke="#63b8ff" d="M99.66,-58.19C90.37,-49.11 79.93,-38.9 71.67,-30.83"/>
<polygon fill="#63b8ff" stroke="#63b8ff" points="97.09,-60.57 106.69,-65.06 101.99,-55.56 97.09,-60.57"/>
</a>
</g>
</g>
<!-- Node5 -->
<g id="Node000005" class="node">
<title>Node5</title>
<g id="a_Node000005"><a xlink:href="class_ogre_1_1_small_vector_impl.html" target="_top" xlink:title=" ">
<polygon fill="white" stroke="#666666" points="245.5,-30.5 132,-30.5 132,0 245.5,0 245.5,-30.5"/>
<text text-anchor="start" x="140" y="-17" font-family="Helvetica,sans-Serif" font-size="10.00">Ogre::SmallVectorImpl</text>
<text text-anchor="middle" x="188.75" y="-5.75" font-family="Helvetica,sans-Serif" font-size="10.00">&lt; TriangleI &gt;</text>
</a>
</g>
</g>
<!-- Node1&#45;&gt;Node5 -->
<g id="edge4_Node000001_Node000005" class="edge">
<title>Node1&#45;&gt;Node5</title>
<g id="a_edge4_Node000001_Node000005"><a xlink:title=" ">
<path fill="none" stroke="#63b8ff" d="M145.84,-58.19C155.13,-49.11 165.57,-38.9 173.83,-30.83"/>
<polygon fill="#63b8ff" stroke="#63b8ff" points="143.51,-55.56 138.81,-65.06 148.41,-60.57 143.51,-55.56"/>
</a>
</g>
</g>
<!-- Node2 -->
<g id="Node000002" class="node">
<title>Node2</title>
<g id="a_Node000002"><a xlink:href="class_ogre_1_1_small_vector_template_common.html" target="_top" xlink:title=" ">
<polygon fill="white" stroke="#666666" points="190.38,-163.5 55.12,-163.5 55.12,-133 190.38,-133 190.38,-163.5"/>
<text text-anchor="start" x="63.12" y="-150" font-family="Helvetica,sans-Serif" font-size="10.00">Ogre::SmallVectorTemplate</text>
<text text-anchor="middle" x="122.75" y="-138.75" font-family="Helvetica,sans-Serif" font-size="10.00">Common&lt; T &gt;</text>
</a>
</g>
</g>
<!-- Node2&#45;&gt;Node1 -->
<g id="edge1_Node000001_Node000002" class="edge">
<title>Node2&#45;&gt;Node1</title>
<g id="a_edge1_Node000001_Node000002"><a xlink:title=" ">
<path fill="none" stroke="#63b8ff" d="M122.75,-121.31C122.75,-113.14 122.75,-104.41 122.75,-97.33"/>
<polygon fill="#63b8ff" stroke="#63b8ff" points="119.25,-121.1 122.75,-131.1 126.25,-121.1 119.25,-121.1"/>
</a>
</g>
</g>
<!-- Node3 -->
<g id="Node000003" class="node">
<title>Node3</title>
<g id="a_Node000003"><a xlink:href="class_ogre_1_1_small_vector_base.html" target="_top" xlink:title="SmallVectorBase &#45; This is all the non&#45;templated stuff common to all SmallVectors.">
<polygon fill="white" stroke="#666666" points="181.38,-218.75 64.12,-218.75 64.12,-199.5 181.38,-199.5 181.38,-218.75"/>
<text text-anchor="middle" x="122.75" y="-205.25" font-family="Helvetica,sans-Serif" font-size="10.00">Ogre::SmallVectorBase</text>
</a>
</g>
</g>
<!-- Node3&#45;&gt;Node2 -->
<g id="edge2_Node000002_Node000003" class="edge">
<title>Node3&#45;&gt;Node2</title>
<g id="a_edge2_Node000002_Node000003"><a xlink:title=" ">
<path fill="none" stroke="#63b8ff" d="M122.75,-187.92C122.75,-179.99 122.75,-171.06 122.75,-163.78"/>
<polygon fill="#63b8ff" stroke="#63b8ff" points="119.25,-187.67 122.75,-197.67 126.25,-187.67 119.25,-187.67"/>
</a>
</g>
</g>
</g>
</svg>
