<?xml version="1.0" encoding="UTF-8" standalone="no"?>
<!DOCTYPE svg PUBLIC "-//W3C//DTD SVG 1.1//EN"
 "http://www.w3.org/Graphics/SVG/1.1/DTD/svg11.dtd">
<!-- Generated by graphviz version 9.0.0 (20230911.1827)
 -->
<!-- Title: Ogre::v1::HardwareBufferManagerBase Pages: 1 -->
<svg width="625pt" height="504pt"
 viewBox="0.00 0.00 624.75 503.50" xmlns="http://www.w3.org/2000/svg" xmlns:xlink="http://www.w3.org/1999/xlink">
<g id="graph0" class="graph" transform="scale(1 1) rotate(0) translate(4 499.5)">
<title>Ogre::v1::HardwareBufferManagerBase</title>
<!-- Node1 -->
<g id="Node000001" class="node">
<title>Node1</title>
<g id="a_Node000001"><a xlink:title="Base definition of a hardware buffer manager.">
<polygon fill="#999999" stroke="#666666" points="223.25,-299.5 99.25,-299.5 99.25,-269 223.25,-269 223.25,-299.5"/>
<text text-anchor="start" x="107.25" y="-286" font-family="Helvetica,sans-Serif" font-size="10.00">Ogre::v1::HardwareBuffer</text>
<text text-anchor="middle" x="161.25" y="-274.75" font-family="Helvetica,sans-Serif" font-size="10.00">ManagerBase</text>
</a>
</g>
</g>
<!-- Node3 -->
<g id="Node000003" class="node">
<title>Node3</title>
<g id="a_Node000003"><a xlink:href="class_ogre_1_1v1_1_1_d3_d11_hardware_buffer_manager_base.html" target="_top" xlink:title="Implementation of HardwareBufferManager for D3D11.">
<polygon fill="white" stroke="#666666" points="416.25,-495.5 263,-495.5 263,-465 416.25,-465 416.25,-495.5"/>
<text text-anchor="start" x="271" y="-482" font-family="Helvetica,sans-Serif" font-size="10.00">Ogre::v1::D3D11HardwareBuffer</text>
<text text-anchor="middle" x="339.62" y="-470.75" font-family="Helvetica,sans-Serif" font-size="10.00">ManagerBase</text>
</a>
</g>
</g>
<!-- Node1&#45;&gt;Node3 -->
<g id="edge2_Node000001_Node000003" class="edge">
<title>Node1&#45;&gt;Node3</title>
<g id="a_edge2_Node000001_Node000003"><a xlink:title=" ">
<path fill="none" stroke="#63b8ff" d="M170.21,-310.37C182.96,-347.86 211.51,-416.64 259.25,-455.25 263.74,-458.88 268.77,-461.99 274.06,-464.65"/>
<polygon fill="#63b8ff" stroke="#63b8ff" points="173.66,-309.66 167.23,-301.25 167.01,-311.84 173.66,-309.66"/>
</a>
</g>
</g>
<!-- Node4 -->
<g id="Node000004" class="node">
<title>Node4</title>
<g id="a_Node000004"><a xlink:href="class_ogre_1_1v1_1_1_default_hardware_buffer_manager_base.html" target="_top" xlink:title="Specialisation of HardwareBufferManagerBase to emulate hardware buffers.">
<polygon fill="white" stroke="#666666" points="404.25,-446.5 275,-446.5 275,-416 404.25,-416 404.25,-446.5"/>
<text text-anchor="start" x="283" y="-433" font-family="Helvetica,sans-Serif" font-size="10.00">Ogre::v1::DefaultHardware</text>
<text text-anchor="middle" x="339.62" y="-421.75" font-family="Helvetica,sans-Serif" font-size="10.00">BufferManagerBase</text>
</a>
</g>
</g>
<!-- Node1&#45;&gt;Node4 -->
<g id="edge3_Node000001_Node000004" class="edge">
<title>Node1&#45;&gt;Node4</title>
<g id="a_edge3_Node000001_Node000004"><a xlink:title=" ">
<path fill="none" stroke="#63b8ff" d="M176.11,-309.54C192.5,-337.16 222.27,-380.84 259.25,-406.25 264.49,-409.85 270.27,-412.95 276.26,-415.62"/>
<polygon fill="#63b8ff" stroke="#63b8ff" points="179.29,-308.04 171.26,-301.13 173.22,-311.54 179.29,-308.04"/>
</a>
</g>
</g>
<!-- Node5 -->
<g id="Node000005" class="node">
<title>Node5</title>
<g id="a_Node000005"><a xlink:href="class_ogre_1_1v1_1_1_g_l3_plus_default_hardware_buffer_manager_base.html" target="_top" xlink:title="Specialisation of HardwareBufferManager to emulate hardware buffers.">
<polygon fill="white" stroke="#666666" points="411.38,-397.5 267.88,-397.5 267.88,-367 411.38,-367 411.38,-397.5"/>
<text text-anchor="start" x="275.88" y="-384" font-family="Helvetica,sans-Serif" font-size="10.00">Ogre::v1::GL3PlusDefault</text>
<text text-anchor="middle" x="339.62" y="-372.75" font-family="Helvetica,sans-Serif" font-size="10.00">HardwareBufferManagerBase</text>
</a>
</g>
</g>
<!-- Node1&#45;&gt;Node5 -->
<g id="edge4_Node000001_Node000005" class="edge">
<title>Node1&#45;&gt;Node5</title>
<g id="a_edge4_Node000001_Node000005"><a xlink:title=" ">
<path fill="none" stroke="#63b8ff" d="M187.76,-307.29C206.43,-323.16 233,-343.74 259.25,-357.25 266.06,-360.75 273.45,-363.88 280.89,-366.63"/>
<polygon fill="#63b8ff" stroke="#63b8ff" points="190.25,-304.82 180.4,-300.92 185.67,-310.11 190.25,-304.82"/>
</a>
</g>
</g>
<!-- Node6 -->
<g id="Node000006" class="node">
<title>Node6</title>
<g id="a_Node000006"><a xlink:href="class_ogre_1_1v1_1_1_g_l3_plus_hardware_buffer_manager_base.html" target="_top" xlink:title="Implementation of HardwareBufferManager for OpenGL.">
<polygon fill="white" stroke="#666666" points="408,-348.5 271.25,-348.5 271.25,-318 408,-318 408,-348.5"/>
<text text-anchor="start" x="279.25" y="-335" font-family="Helvetica,sans-Serif" font-size="10.00">Ogre::v1::GL3PlusHardware</text>
<text text-anchor="middle" x="339.62" y="-323.75" font-family="Helvetica,sans-Serif" font-size="10.00">BufferManagerBase</text>
</a>
</g>
</g>
<!-- Node1&#45;&gt;Node6 -->
<g id="edge5_Node000001_Node000006" class="edge">
<title>Node1&#45;&gt;Node6</title>
<g id="a_edge5_Node000001_Node000006"><a xlink:title=" ">
<path fill="none" stroke="#63b8ff" d="M229.19,-302.85C246.59,-307.68 265.15,-312.84 281.96,-317.51"/>
<polygon fill="#63b8ff" stroke="#63b8ff" points="230.57,-299.6 220,-300.29 228.7,-306.34 230.57,-299.6"/>
</a>
</g>
</g>
<!-- Node7 -->
<g id="Node000007" class="node">
<title>Node7</title>
<g id="a_Node000007"><a xlink:href="class_ogre_1_1v1_1_1_g_l_e_s2_default_hardware_buffer_manager_base.html" target="_top" xlink:title="Specialisation of HardwareBufferManager to emulate hardware buffers.">
<polygon fill="white" stroke="#666666" points="420,-299.5 259.25,-299.5 259.25,-269 420,-269 420,-299.5"/>
<text text-anchor="start" x="267.25" y="-286" font-family="Helvetica,sans-Serif" font-size="10.00">Ogre::v1::GLES2DefaultHardware</text>
<text text-anchor="middle" x="339.62" y="-274.75" font-family="Helvetica,sans-Serif" font-size="10.00">BufferManagerBase</text>
</a>
</g>
</g>
<!-- Node1&#45;&gt;Node7 -->
<g id="edge6_Node000001_Node000007" class="edge">
<title>Node1&#45;&gt;Node7</title>
<g id="a_edge6_Node000001_Node000007"><a xlink:title=" ">
<path fill="none" stroke="#63b8ff" d="M234.89,-284.25C242.81,-284.25 250.9,-284.25 258.9,-284.25"/>
<polygon fill="#63b8ff" stroke="#63b8ff" points="234.96,-280.75 224.96,-284.25 234.96,-287.75 234.96,-280.75"/>
</a>
</g>
</g>
<!-- Node8 -->
<g id="Node000008" class="node">
<title>Node8</title>
<g id="a_Node000008"><a xlink:href="class_ogre_1_1v1_1_1_g_l_e_s2_hardware_buffer_manager_base.html" target="_top" xlink:title="Implementation of HardwareBufferManager for OpenGL ES.">
<polygon fill="white" stroke="#666666" points="417.38,-250.5 261.88,-250.5 261.88,-220 417.38,-220 417.38,-250.5"/>
<text text-anchor="start" x="269.88" y="-237" font-family="Helvetica,sans-Serif" font-size="10.00">Ogre::v1::GLES2HardwareBuffer</text>
<text text-anchor="middle" x="339.62" y="-225.75" font-family="Helvetica,sans-Serif" font-size="10.00">ManagerBase</text>
</a>
</g>
</g>
<!-- Node1&#45;&gt;Node8 -->
<g id="edge7_Node000001_Node000008" class="edge">
<title>Node1&#45;&gt;Node8</title>
<g id="a_edge7_Node000001_Node000008"><a xlink:title=" ">
<path fill="none" stroke="#63b8ff" d="M229.19,-265.65C246.59,-260.82 265.15,-255.66 281.96,-250.99"/>
<polygon fill="#63b8ff" stroke="#63b8ff" points="228.7,-262.16 220,-268.21 230.57,-268.9 228.7,-262.16"/>
</a>
</g>
</g>
<!-- Node9 -->
<g id="Node000009" class="node">
<title>Node9</title>
<g id="a_Node000009"><a xlink:href="class_ogre_1_1v1_1_1_hardware_buffer_manager.html" target="_top" xlink:title="Singleton wrapper for hardware buffer manager.">
<polygon fill="white" stroke="#666666" points="401.62,-201.5 277.62,-201.5 277.62,-171 401.62,-171 401.62,-201.5"/>
<text text-anchor="start" x="285.62" y="-188" font-family="Helvetica,sans-Serif" font-size="10.00">Ogre::v1::HardwareBuffer</text>
<text text-anchor="middle" x="339.62" y="-176.75" font-family="Helvetica,sans-Serif" font-size="10.00">Manager</text>
</a>
</g>
</g>
<!-- Node1&#45;&gt;Node9 -->
<g id="edge8_Node000001_Node000009" class="edge">
<title>Node1&#45;&gt;Node9</title>
<g id="a_edge8_Node000001_Node000009"><a xlink:title=" ">
<path fill="none" stroke="#63b8ff" d="M187.76,-261.21C206.43,-245.34 233,-224.76 259.25,-211.25 266.06,-207.75 273.45,-204.62 280.89,-201.87"/>
<polygon fill="#63b8ff" stroke="#63b8ff" points="185.67,-258.39 180.4,-267.58 190.25,-263.68 185.67,-258.39"/>
</a>
</g>
</g>
<!-- Node18 -->
<g id="Node000018" class="node">
<title>Node18</title>
<g id="a_Node000018"><a xlink:href="class_ogre_1_1v1_1_1_metal_hardware_buffer_manager_base.html" target="_top" xlink:title="Implementation of HardwareBufferManager for Metal.">
<polygon fill="white" stroke="#666666" points="413.62,-152.5 265.62,-152.5 265.62,-122 413.62,-122 413.62,-152.5"/>
<text text-anchor="start" x="273.62" y="-139" font-family="Helvetica,sans-Serif" font-size="10.00">Ogre::v1::MetalHardwareBuffer</text>
<text text-anchor="middle" x="339.62" y="-127.75" font-family="Helvetica,sans-Serif" font-size="10.00">ManagerBase</text>
</a>
</g>
</g>
<!-- Node1&#45;&gt;Node18 -->
<g id="edge17_Node000001_Node000018" class="edge">
<title>Node1&#45;&gt;Node18</title>
<g id="a_edge17_Node000001_Node000018"><a xlink:title=" ">
<path fill="none" stroke="#63b8ff" d="M176.11,-258.96C192.5,-231.34 222.27,-187.66 259.25,-162.25 264.49,-158.65 270.27,-155.55 276.26,-152.88"/>
<polygon fill="#63b8ff" stroke="#63b8ff" points="173.22,-256.96 171.26,-267.37 179.29,-260.46 173.22,-256.96"/>
</a>
</g>
</g>
<!-- Node19 -->
<g id="Node000019" class="node">
<title>Node19</title>
<g id="a_Node000019"><a xlink:href="class_ogre_1_1v1_1_1_vulkan_hardware_buffer_manager_base.html" target="_top" xlink:title=" ">
<polygon fill="white" stroke="#666666" points="403.88,-103.5 275.38,-103.5 275.38,-73 403.88,-73 403.88,-103.5"/>
<text text-anchor="start" x="283.38" y="-90" font-family="Helvetica,sans-Serif" font-size="10.00">Ogre::v1::VulkanHardware</text>
<text text-anchor="middle" x="339.62" y="-78.75" font-family="Helvetica,sans-Serif" font-size="10.00">BufferManagerBase</text>
</a>
</g>
</g>
<!-- Node1&#45;&gt;Node19 -->
<g id="edge18_Node000001_Node000019" class="edge">
<title>Node1&#45;&gt;Node19</title>
<g id="a_edge18_Node000001_Node000019"><a xlink:title=" ">
<path fill="none" stroke="#63b8ff" d="M170.21,-258.13C182.96,-220.64 211.51,-151.86 259.25,-113.25 264.08,-109.34 269.53,-106.04 275.25,-103.26"/>
<polygon fill="#63b8ff" stroke="#63b8ff" points="167.01,-256.66 167.23,-267.25 173.66,-258.84 167.01,-256.66"/>
</a>
</g>
</g>
<!-- Node2 -->
<g id="Node000002" class="node">
<title>Node2</title>
<g id="a_Node000002"><a xlink:href="class_ogre_1_1_allocated_object.html" target="_top" xlink:title="Superclass for all objects that wish to use custom memory allocators when their new / delete operator...">
<polygon fill="white" stroke="#666666" points="63.25,-293.88 0,-293.88 0,-274.62 63.25,-274.62 63.25,-293.88"/>
<text text-anchor="middle" x="31.62" y="-280.38" font-family="Helvetica,sans-Serif" font-size="10.00">BufferAlloc</text>
</a>
</g>
</g>
<!-- Node2&#45;&gt;Node1 -->
<g id="edge1_Node000001_Node000002" class="edge">
<title>Node2&#45;&gt;Node1</title>
<g id="a_edge1_Node000001_Node000002"><a xlink:title=" ">
<path fill="none" stroke="#63b8ff" d="M74.81,-284.25C82.53,-284.25 90.74,-284.25 98.89,-284.25"/>
<polygon fill="#63b8ff" stroke="#63b8ff" points="75.03,-280.75 65.03,-284.25 75.03,-287.75 75.03,-280.75"/>
</a>
</g>
</g>
<!-- Node10 -->
<g id="Node000010" class="node">
<title>Node10</title>
<g id="a_Node000010"><a xlink:href="class_ogre_1_1v1_1_1_d3_d11_hardware_buffer_manager.html" target="_top" xlink:title="D3D11HardwareBufferManagerBase as a Singleton.">
<polygon fill="white" stroke="#666666" points="613,-373.5 459.75,-373.5 459.75,-343 613,-343 613,-373.5"/>
<text text-anchor="start" x="467.75" y="-360" font-family="Helvetica,sans-Serif" font-size="10.00">Ogre::v1::D3D11HardwareBuffer</text>
<text text-anchor="middle" x="536.38" y="-348.75" font-family="Helvetica,sans-Serif" font-size="10.00">Manager</text>
</a>
</g>
</g>
<!-- Node9&#45;&gt;Node10 -->
<g id="edge9_Node000009_Node000010" class="edge">
<title>Node9&#45;&gt;Node10</title>
<g id="a_edge9_Node000009_Node000010"><a xlink:title=" ">
<path fill="none" stroke="#63b8ff" d="M411.8,-204.36C414.74,-206.42 417.5,-208.7 420,-211.25 459.61,-251.59 416.39,-292.91 456,-333.25 459.54,-336.86 463.6,-339.95 467.97,-342.59"/>
<polygon fill="#63b8ff" stroke="#63b8ff" points="413.58,-201.35 403.18,-199.32 410.05,-207.39 413.58,-201.35"/>
</a>
</g>
</g>
<!-- Node11 -->
<g id="Node000011" class="node">
<title>Node11</title>
<g id="a_Node000011"><a xlink:href="class_ogre_1_1v1_1_1_default_hardware_buffer_manager.html" target="_top" xlink:title="DefaultHardwareBufferManager as a Singleton.">
<polygon fill="white" stroke="#666666" points="601,-324.5 471.75,-324.5 471.75,-294 601,-294 601,-324.5"/>
<text text-anchor="start" x="479.75" y="-311" font-family="Helvetica,sans-Serif" font-size="10.00">Ogre::v1::DefaultHardware</text>
<text text-anchor="middle" x="536.38" y="-299.75" font-family="Helvetica,sans-Serif" font-size="10.00">BufferManager</text>
</a>
</g>
</g>
<!-- Node9&#45;&gt;Node11 -->
<g id="edge10_Node000009_Node000011" class="edge">
<title>Node9&#45;&gt;Node11</title>
<g id="a_edge10_Node000009_Node000011"><a xlink:title=" ">
<path fill="none" stroke="#63b8ff" d="M411.94,-205.31C414.78,-207.12 417.48,-209.09 420,-211.25 447.46,-234.8 428.54,-260.7 456,-284.25 460.61,-288.2 465.84,-291.53 471.36,-294.33"/>
<polygon fill="#63b8ff" stroke="#63b8ff" points="413.63,-202.25 403.18,-200.54 410.28,-208.4 413.63,-202.25"/>
</a>
</g>
</g>
<!-- Node12 -->
<g id="Node000012" class="node">
<title>Node12</title>
<g id="a_Node000012"><a xlink:href="class_ogre_1_1v1_1_1_g_l3_plus_default_hardware_buffer_manager.html" target="_top" xlink:title="GL3PlusDefaultHardwareBufferManagerBase as a Singleton.">
<polygon fill="white" stroke="#666666" points="599.12,-275.5 473.62,-275.5 473.62,-245 599.12,-245 599.12,-275.5"/>
<text text-anchor="start" x="481.62" y="-262" font-family="Helvetica,sans-Serif" font-size="10.00">Ogre::v1::GL3PlusDefault</text>
<text text-anchor="middle" x="536.38" y="-250.75" font-family="Helvetica,sans-Serif" font-size="10.00">HardwareBufferManager</text>
</a>
</g>
</g>
<!-- Node9&#45;&gt;Node12 -->
<g id="edge11_Node000009_Node000012" class="edge">
<title>Node9&#45;&gt;Node12</title>
<g id="a_edge11_Node000009_Node000012"><a xlink:title=" ">
<path fill="none" stroke="#63b8ff" d="M407.81,-205.91C411.99,-207.59 416.08,-209.37 420,-211.25 437.34,-219.55 438.66,-226.95 456,-235.25 463.17,-238.68 470.92,-241.79 478.67,-244.56"/>
<polygon fill="#63b8ff" stroke="#63b8ff" points="409.33,-202.74 398.74,-202.47 406.85,-209.29 409.33,-202.74"/>
</a>
</g>
</g>
<!-- Node13 -->
<g id="Node000013" class="node">
<title>Node13</title>
<g id="a_Node000013"><a xlink:href="class_ogre_1_1v1_1_1_g_l3_plus_hardware_buffer_manager.html" target="_top" xlink:title="GL3PlusHardwareBufferManagerBase as a Singleton.">
<polygon fill="white" stroke="#666666" points="604.75,-226.5 468,-226.5 468,-196 604.75,-196 604.75,-226.5"/>
<text text-anchor="start" x="476" y="-213" font-family="Helvetica,sans-Serif" font-size="10.00">Ogre::v1::GL3PlusHardware</text>
<text text-anchor="middle" x="536.38" y="-201.75" font-family="Helvetica,sans-Serif" font-size="10.00">BufferManager</text>
</a>
</g>
</g>
<!-- Node9&#45;&gt;Node13 -->
<g id="edge12_Node000009_Node000013" class="edge">
<title>Node9&#45;&gt;Node13</title>
<g id="a_edge12_Node000009_Node000013"><a xlink:title=" ">
<path fill="none" stroke="#63b8ff" d="M413.19,-195.56C430.99,-197.85 449.99,-200.29 467.57,-202.55"/>
<polygon fill="#63b8ff" stroke="#63b8ff" points="413.84,-192.12 403.48,-194.32 412.95,-199.06 413.84,-192.12"/>
</a>
</g>
</g>
<!-- Node14 -->
<g id="Node000014" class="node">
<title>Node14</title>
<g id="a_Node000014"><a xlink:href="class_ogre_1_1v1_1_1_g_l_e_s2_default_hardware_buffer_manager.html" target="_top" xlink:title="GLES2DefaultHardwareBufferManagerBase as a Singleton.">
<polygon fill="white" stroke="#666666" points="616.75,-177.5 456,-177.5 456,-147 616.75,-147 616.75,-177.5"/>
<text text-anchor="start" x="464" y="-164" font-family="Helvetica,sans-Serif" font-size="10.00">Ogre::v1::GLES2DefaultHardware</text>
<text text-anchor="middle" x="536.38" y="-152.75" font-family="Helvetica,sans-Serif" font-size="10.00">BufferManager</text>
</a>
</g>
</g>
<!-- Node9&#45;&gt;Node14 -->
<g id="edge13_Node000009_Node000014" class="edge">
<title>Node9&#45;&gt;Node14</title>
<g id="a_edge13_Node000009_Node000014"><a xlink:title=" ">
<path fill="none" stroke="#63b8ff" d="M413.39,-177.28C427.21,-175.58 441.74,-173.79 455.76,-172.06"/>
<polygon fill="#63b8ff" stroke="#63b8ff" points="412.98,-173.81 403.48,-178.5 413.83,-180.75 412.98,-173.81"/>
</a>
</g>
</g>
<!-- Node15 -->
<g id="Node000015" class="node">
<title>Node15</title>
<g id="a_Node000015"><a xlink:href="class_ogre_1_1v1_1_1_g_l_e_s2_hardware_buffer_manager.html" target="_top" xlink:title="GLES2HardwareBufferManagerBase as a Singleton.">
<polygon fill="white" stroke="#666666" points="614.12,-128.5 458.62,-128.5 458.62,-98 614.12,-98 614.12,-128.5"/>
<text text-anchor="start" x="466.62" y="-115" font-family="Helvetica,sans-Serif" font-size="10.00">Ogre::v1::GLES2HardwareBuffer</text>
<text text-anchor="middle" x="536.38" y="-103.75" font-family="Helvetica,sans-Serif" font-size="10.00">Manager</text>
</a>
</g>
</g>
<!-- Node9&#45;&gt;Node15 -->
<g id="edge14_Node000009_Node000015" class="edge">
<title>Node9&#45;&gt;Node15</title>
<g id="a_edge14_Node000009_Node000015"><a xlink:title=" ">
<path fill="none" stroke="#63b8ff" d="M407.54,-166.59C411.8,-164.9 415.99,-163.12 420,-161.25 437.2,-153.22 438.8,-146.28 456,-138.25 463.33,-134.83 471.25,-131.71 479.16,-128.92"/>
<polygon fill="#63b8ff" stroke="#63b8ff" points="406.41,-163.28 398.26,-170.05 408.85,-169.84 406.41,-163.28"/>
</a>
</g>
</g>
<!-- Node16 -->
<g id="Node000016" class="node">
<title>Node16</title>
<g id="a_Node000016"><a xlink:href="class_ogre_1_1v1_1_1_metal_hardware_buffer_manager.html" target="_top" xlink:title="MetalHardwareBufferManagerBase as a Singleton.">
<polygon fill="white" stroke="#666666" points="610.38,-79.5 462.38,-79.5 462.38,-49 610.38,-49 610.38,-79.5"/>
<text text-anchor="start" x="470.38" y="-66" font-family="Helvetica,sans-Serif" font-size="10.00">Ogre::v1::MetalHardwareBuffer</text>
<text text-anchor="middle" x="536.38" y="-54.75" font-family="Helvetica,sans-Serif" font-size="10.00">Manager</text>
</a>
</g>
</g>
<!-- Node9&#45;&gt;Node16 -->
<g id="edge15_Node000009_Node000016" class="edge">
<title>Node9&#45;&gt;Node16</title>
<g id="a_edge15_Node000009_Node000016"><a xlink:title=" ">
<path fill="none" stroke="#63b8ff" d="M411.92,-167.17C414.76,-165.37 417.48,-163.4 420,-161.25 447.22,-138.03 428.78,-112.47 456,-89.25 460.29,-85.59 465.11,-82.47 470.21,-79.8"/>
<polygon fill="#63b8ff" stroke="#63b8ff" points="410.27,-164.08 403.15,-171.94 413.61,-170.24 410.27,-164.08"/>
</a>
</g>
</g>
<!-- Node17 -->
<g id="Node000017" class="node">
<title>Node17</title>
<g id="a_Node000017"><a xlink:href="class_ogre_1_1v1_1_1_vulkan_hardware_buffer_manager.html" target="_top" xlink:title=" ">
<polygon fill="white" stroke="#666666" points="600.62,-30.5 472.12,-30.5 472.12,0 600.62,0 600.62,-30.5"/>
<text text-anchor="start" x="480.12" y="-17" font-family="Helvetica,sans-Serif" font-size="10.00">Ogre::v1::VulkanHardware</text>
<text text-anchor="middle" x="536.38" y="-5.75" font-family="Helvetica,sans-Serif" font-size="10.00">BufferManager</text>
</a>
</g>
</g>
<!-- Node9&#45;&gt;Node17 -->
<g id="edge16_Node000009_Node000017" class="edge">
<title>Node9&#45;&gt;Node17</title>
<g id="a_edge16_Node000009_Node000017"><a xlink:title=" ">
<path fill="none" stroke="#63b8ff" d="M411.79,-168.13C414.74,-166.08 417.5,-163.79 420,-161.25 459.36,-121.26 416.64,-80.24 456,-40.25 460.56,-35.62 465.97,-31.84 471.79,-28.76"/>
<polygon fill="#63b8ff" stroke="#63b8ff" points="410.04,-165.11 403.17,-173.17 413.57,-171.15 410.04,-165.11"/>
</a>
</g>
</g>
</g>
</svg>
