<?xml version="1.0" encoding="UTF-8" standalone="no"?>
<!DOCTYPE svg PUBLIC "-//W3C//DTD SVG 1.1//EN"
 "http://www.w3.org/Graphics/SVG/1.1/DTD/svg11.dtd">
<!-- Generated by graphviz version 7.0.5 (20221223.1930)
 -->
<!-- Title: Ogre::RenderSystem Pages: 1 -->
<svg width="416pt" height="249pt"
 viewBox="0.00 0.00 416.00 249.00" xmlns="http://www.w3.org/2000/svg" xmlns:xlink="http://www.w3.org/1999/xlink">
<g id="graph0" class="graph" transform="scale(1 1) rotate(0) translate(4 245)">
<title>Ogre::RenderSystem</title>
<!-- Node1 -->
<g id="node1" class="node">
<title>Node1</title>
<g id="a_node1"><a xlink:title="Defines the functionality of a 3D API.">
<polygon fill="#999999" stroke="#666666" points="228,-130 122,-130 122,-111 228,-111 228,-130"/>
<text text-anchor="middle" x="175" y="-118" font-family="Helvetica,sans-Serif" font-size="10.00">Ogre::RenderSystem</text>
</a>
</g>
</g>
<!-- Node3 -->
<g id="node3" class="node">
<title>Node3</title>
<g id="a_node3"><a xlink:href="class_ogre_1_1_d3_d11_render_system.html" target="_top" xlink:title="Implementation of DirectX11 as a rendering system.">
<polygon fill="white" stroke="#666666" points="403.5,-241 268.5,-241 268.5,-222 403.5,-222 403.5,-241"/>
<text text-anchor="middle" x="336" y="-229" font-family="Helvetica,sans-Serif" font-size="10.00">Ogre::D3D11RenderSystem</text>
</a>
</g>
</g>
<!-- Node1&#45;&gt;Node3 -->
<g id="edge2" class="edge">
<title>Node1&#45;&gt;Node3</title>
<path fill="none" stroke="#63b8ff" d="M188.98,-139.7C204.38,-160.97 232.04,-194.74 264,-213.5 269.48,-216.72 275.53,-219.37 281.72,-221.54"/>
<polygon fill="#63b8ff" stroke="#63b8ff" points="191.92,-137.79 183.31,-131.62 186.19,-141.82 191.92,-137.79"/>
</g>
<!-- Node4 -->
<g id="node4" class="node">
<title>Node4</title>
<g id="a_node4"><a xlink:href="class_ogre_1_1_d3_d9_render_system.html" target="_top" xlink:title="Implementation of DirectX9 as a rendering system.">
<polygon fill="white" stroke="#666666" points="401,-204 271,-204 271,-185 401,-185 401,-204"/>
<text text-anchor="middle" x="336" y="-192" font-family="Helvetica,sans-Serif" font-size="10.00">Ogre::D3D9RenderSystem</text>
</a>
</g>
</g>
<!-- Node1&#45;&gt;Node4 -->
<g id="edge3" class="edge">
<title>Node1&#45;&gt;Node4</title>
<path fill="none" stroke="#63b8ff" d="M197.83,-137.18C214.99,-149.6 239.96,-166.12 264,-176.5 271.24,-179.62 279.14,-182.29 286.95,-184.54"/>
<polygon fill="#63b8ff" stroke="#63b8ff" points="200.02,-134.46 189.9,-131.33 195.86,-140.08 200.02,-134.46"/>
</g>
<!-- Node5 -->
<g id="node5" class="node">
<title>Node5</title>
<g id="a_node5"><a xlink:href="class_ogre_1_1_g_l3_plus_render_system.html" target="_top" xlink:title="Implementation of GL 3 as a rendering system.">
<polygon fill="white" stroke="#666666" points="408,-167 264,-167 264,-148 408,-148 408,-167"/>
<text text-anchor="middle" x="336" y="-155" font-family="Helvetica,sans-Serif" font-size="10.00">Ogre::GL3PlusRenderSystem</text>
</a>
</g>
</g>
<!-- Node1&#45;&gt;Node5 -->
<g id="edge4" class="edge">
<title>Node1&#45;&gt;Node5</title>
<path fill="none" stroke="#63b8ff" d="M229.64,-132.98C250.05,-137.73 273.01,-143.07 292.27,-147.56"/>
<polygon fill="#63b8ff" stroke="#63b8ff" points="230.62,-129.62 220.08,-130.76 229.03,-136.43 230.62,-129.62"/>
</g>
<!-- Node6 -->
<g id="node6" class="node">
<title>Node6</title>
<g id="a_node6"><a xlink:href="class_ogre_1_1_g_l_e_s2_render_system.html" target="_top" xlink:title="Implementation of GL ES 2.x as a rendering system.">
<polygon fill="white" stroke="#666666" points="404.5,-130 267.5,-130 267.5,-111 404.5,-111 404.5,-130"/>
<text text-anchor="middle" x="336" y="-118" font-family="Helvetica,sans-Serif" font-size="10.00">Ogre::GLES2RenderSystem</text>
</a>
</g>
</g>
<!-- Node1&#45;&gt;Node6 -->
<g id="edge5" class="edge">
<title>Node1&#45;&gt;Node6</title>
<path fill="none" stroke="#63b8ff" d="M239.43,-120.5C248.56,-120.5 257.98,-120.5 267.19,-120.5"/>
<polygon fill="#63b8ff" stroke="#63b8ff" points="239.58,-117 229.58,-120.5 239.58,-124 239.58,-117"/>
</g>
<!-- Node7 -->
<g id="node7" class="node">
<title>Node7</title>
<g id="a_node7"><a xlink:href="class_ogre_1_1_metal_render_system.html" target="_top" xlink:title="Implementation of Metal as a rendering system.">
<polygon fill="white" stroke="#666666" points="401,-93 271,-93 271,-74 401,-74 401,-93"/>
<text text-anchor="middle" x="336" y="-81" font-family="Helvetica,sans-Serif" font-size="10.00">Ogre::MetalRenderSystem</text>
</a>
</g>
</g>
<!-- Node1&#45;&gt;Node7 -->
<g id="edge6" class="edge">
<title>Node1&#45;&gt;Node7</title>
<path fill="none" stroke="#63b8ff" d="M229.64,-108.02C250.05,-103.27 273.01,-97.93 292.27,-93.44"/>
<polygon fill="#63b8ff" stroke="#63b8ff" points="229.03,-104.57 220.08,-110.24 230.62,-111.38 229.03,-104.57"/>
</g>
<!-- Node8 -->
<g id="node8" class="node">
<title>Node8</title>
<g id="a_node8"><a xlink:href="class_ogre_1_1_n_u_l_l_render_system.html" target="_top" xlink:title="Implementation of NULL as a rendering system.">
<polygon fill="white" stroke="#666666" points="402.5,-56 269.5,-56 269.5,-37 402.5,-37 402.5,-56"/>
<text text-anchor="middle" x="336" y="-44" font-family="Helvetica,sans-Serif" font-size="10.00">Ogre::NULLRenderSystem</text>
</a>
</g>
</g>
<!-- Node1&#45;&gt;Node8 -->
<g id="edge7" class="edge">
<title>Node1&#45;&gt;Node8</title>
<path fill="none" stroke="#63b8ff" d="M197.83,-103.82C214.99,-91.4 239.96,-74.88 264,-64.5 271.24,-61.38 279.14,-58.71 286.95,-56.46"/>
<polygon fill="#63b8ff" stroke="#63b8ff" points="195.86,-100.92 189.9,-109.67 200.02,-106.54 195.86,-100.92"/>
</g>
<!-- Node9 -->
<g id="node9" class="node">
<title>Node9</title>
<g id="a_node9"><a xlink:href="class_ogre_1_1_vulkan_render_system.html" target="_top" xlink:title="Implementation of Vulkan as a rendering system.">
<polygon fill="white" stroke="#666666" points="404,-19 268,-19 268,0 404,0 404,-19"/>
<text text-anchor="middle" x="336" y="-7" font-family="Helvetica,sans-Serif" font-size="10.00">Ogre::VulkanRenderSystem</text>
</a>
</g>
</g>
<!-- Node1&#45;&gt;Node9 -->
<g id="edge8" class="edge">
<title>Node1&#45;&gt;Node9</title>
<path fill="none" stroke="#63b8ff" d="M188.98,-101.3C204.38,-80.03 232.04,-46.26 264,-27.5 269.48,-24.28 275.53,-21.63 281.72,-19.46"/>
<polygon fill="#63b8ff" stroke="#63b8ff" points="186.19,-99.18 183.31,-109.38 191.92,-103.21 186.19,-99.18"/>
</g>
<!-- Node2 -->
<g id="node2" class="node">
<title>Node2</title>
<g id="a_node2"><a xlink:href="class_ogre_1_1_allocated_object.html" target="_top" xlink:title="Superclass for all objects that wish to use custom memory allocators when their new / delete operator...">
<polygon fill="white" stroke="#666666" points="86,-130 0,-130 0,-111 86,-111 86,-130"/>
<text text-anchor="middle" x="43" y="-118" font-family="Helvetica,sans-Serif" font-size="10.00">RenderSysAlloc</text>
</a>
</g>
</g>
<!-- Node2&#45;&gt;Node1 -->
<g id="edge1" class="edge">
<title>Node2&#45;&gt;Node1</title>
<path fill="none" stroke="#63b8ff" d="M97.58,-120.5C105.5,-120.5 113.65,-120.5 121.54,-120.5"/>
<polygon fill="#63b8ff" stroke="#63b8ff" points="97.72,-117 87.72,-120.5 97.72,-124 97.72,-117"/>
</g>
</g>
</svg>
