<?xml version="1.0" encoding="UTF-8" standalone="no"?>
<!DOCTYPE svg PUBLIC "-//W3C//DTD SVG 1.1//EN"
 "http://www.w3.org/Graphics/SVG/1.1/DTD/svg11.dtd">
<!-- Generated by graphviz version 7.0.5 (20221223.1930)
 -->
<!-- Title: Ogre::v1::HardwareBuffer Pages: 1 -->
<svg width="812pt" height="1766pt"
 viewBox="0.00 0.00 812.00 1766.00" xmlns="http://www.w3.org/2000/svg" xmlns:xlink="http://www.w3.org/1999/xlink">
<g id="graph0" class="graph" transform="scale(1 1) rotate(0) translate(4 1762)">
<title>Ogre::v1::HardwareBuffer</title>
<!-- Node1 -->
<g id="node1" class="node">
<title>Node1</title>
<g id="a_node1"><a xlink:title="Abstract class defining common features of hardware buffers.">
<polygon fill="#999999" stroke="#666666" points="225,-1224.5 100,-1224.5 100,-1205.5 225,-1205.5 225,-1224.5"/>
<text text-anchor="middle" x="162.5" y="-1212.5" font-family="Helvetica,sans-Serif" font-size="10.00">Ogre::v1::HardwareBuffer</text>
</a>
</g>
</g>
<!-- Node3 -->
<g id="node3" class="node">
<title>Node3</title>
<g id="a_node3"><a xlink:href="class_ogre_1_1v1_1_1_d3_d11_hardware_buffer.html" target="_top" xlink:title="Base implementation of a D3D11 buffer, dealing with all the common aspects.">
<polygon fill="white" stroke="#666666" points="415,-1699.5 261,-1699.5 261,-1680.5 415,-1680.5 415,-1699.5"/>
<text text-anchor="middle" x="338" y="-1687.5" font-family="Helvetica,sans-Serif" font-size="10.00">Ogre::v1::D3D11HardwareBuffer</text>
</a>
</g>
</g>
<!-- Node1&#45;&gt;Node3 -->
<g id="edge2" class="edge">
<title>Node1&#45;&gt;Node3</title>
<path fill="none" stroke="#63b8ff" d="M165.11,-1236.25C171.71,-1317.49 199.26,-1607.1 261,-1671 264.5,-1674.62 268.57,-1677.59 272.98,-1680.02"/>
<polygon fill="#63b8ff" stroke="#63b8ff" points="168.61,-1236.08 164.34,-1226.39 161.63,-1236.63 168.61,-1236.08"/>
</g>
<!-- Node4 -->
<g id="node4" class="node">
<title>Node4</title>
<g id="a_node4"><a xlink:href="class_ogre_1_1v1_1_1_hardware_counter_buffer.html" target="_top" xlink:title="Specialisation of HardwareBuffer for a counter buffer.">
<polygon fill="white" stroke="#666666" points="404.5,-1662 271.5,-1662 271.5,-1632 404.5,-1632 404.5,-1662"/>
<text text-anchor="start" x="279.5" y="-1650" font-family="Helvetica,sans-Serif" font-size="10.00">Ogre::v1::HardwareCounter</text>
<text text-anchor="middle" x="338" y="-1639" font-family="Helvetica,sans-Serif" font-size="10.00">Buffer</text>
</a>
</g>
</g>
<!-- Node1&#45;&gt;Node4 -->
<g id="edge3" class="edge">
<title>Node1&#45;&gt;Node4</title>
<path fill="none" stroke="#63b8ff" d="M171.58,-1235.11C201.39,-1309.33 304.81,-1566.86 330.96,-1631.96"/>
<polygon fill="#63b8ff" stroke="#63b8ff" points="174.99,-1234.21 168.01,-1226.24 168.49,-1236.82 174.99,-1234.21"/>
</g>
<!-- Node8 -->
<g id="node8" class="node">
<title>Node8</title>
<g id="a_node8"><a xlink:href="class_ogre_1_1v1_1_1_hardware_index_buffer.html" target="_top" xlink:title="Specialisation of HardwareBuffer for vertex index buffers, still abstract.">
<polygon fill="white" stroke="#666666" points="412,-1440.5 264,-1440.5 264,-1421.5 412,-1421.5 412,-1440.5"/>
<text text-anchor="middle" x="338" y="-1428.5" font-family="Helvetica,sans-Serif" font-size="10.00">Ogre::v1::HardwareIndexBuffer</text>
</a>
</g>
</g>
<!-- Node1&#45;&gt;Node8 -->
<g id="edge7" class="edge">
<title>Node1&#45;&gt;Node8</title>
<path fill="none" stroke="#63b8ff" d="M178.5,-1233.68C213.99,-1277.86 302.11,-1387.56 329.05,-1421.1"/>
<polygon fill="#63b8ff" stroke="#63b8ff" points="181.34,-1231.63 172.35,-1226.02 175.89,-1236.01 181.34,-1231.63"/>
</g>
<!-- Node16 -->
<g id="node16" class="node">
<title>Node16</title>
<g id="a_node16"><a xlink:href="class_ogre_1_1v1_1_1_hardware_pixel_buffer.html" target="_top" xlink:title="Specialisation of HardwareBuffer for a pixel buffer.">
<polygon fill="white" stroke="#666666" points="411,-1008.5 265,-1008.5 265,-989.5 411,-989.5 411,-1008.5"/>
<text text-anchor="middle" x="338" y="-996.5" font-family="Helvetica,sans-Serif" font-size="10.00">Ogre::v1::HardwarePixelBuffer</text>
</a>
</g>
</g>
<!-- Node1&#45;&gt;Node16 -->
<g id="edge15" class="edge">
<title>Node1&#45;&gt;Node16</title>
<path fill="none" stroke="#63b8ff" d="M178.5,-1196.32C213.99,-1152.14 302.11,-1042.44 329.05,-1008.9"/>
<polygon fill="#63b8ff" stroke="#63b8ff" points="175.89,-1193.99 172.35,-1203.98 181.34,-1198.37 175.89,-1193.99"/>
</g>
<!-- Node35 -->
<g id="node34" class="node">
<title>Node35</title>
<g id="a_node34"><a xlink:href="class_ogre_1_1v1_1_1_hardware_uniform_buffer.html" target="_top" xlink:title="Specialisation of HardwareBuffer for a uniform buffer.">
<polygon fill="white" stroke="#666666" points="405,-534 271,-534 271,-504 405,-504 405,-534"/>
<text text-anchor="start" x="279" y="-522" font-family="Helvetica,sans-Serif" font-size="10.00">Ogre::v1::HardwareUniform</text>
<text text-anchor="middle" x="338" y="-511" font-family="Helvetica,sans-Serif" font-size="10.00">Buffer</text>
</a>
</g>
</g>
<!-- Node1&#45;&gt;Node35 -->
<g id="edge33" class="edge">
<title>Node1&#45;&gt;Node35</title>
<path fill="none" stroke="#63b8ff" d="M168.66,-1194.3C194.63,-1090.12 310.66,-624.65 333.2,-534.24"/>
<polygon fill="#63b8ff" stroke="#63b8ff" points="165.34,-1193.14 166.32,-1203.69 172.13,-1194.84 165.34,-1193.14"/>
</g>
<!-- Node43 -->
<g id="node42" class="node">
<title>Node43</title>
<g id="a_node42"><a xlink:href="class_ogre_1_1v1_1_1_hardware_vertex_buffer.html" target="_top" xlink:title="Specialisation of HardwareBuffer for a vertex buffer.">
<polygon fill="white" stroke="#666666" points="401.5,-198 274.5,-198 274.5,-168 401.5,-168 401.5,-198"/>
<text text-anchor="start" x="282.5" y="-186" font-family="Helvetica,sans-Serif" font-size="10.00">Ogre::v1::HardwareVertex</text>
<text text-anchor="middle" x="338" y="-175" font-family="Helvetica,sans-Serif" font-size="10.00">Buffer</text>
</a>
</g>
</g>
<!-- Node1&#45;&gt;Node43 -->
<g id="edge41" class="edge">
<title>Node1&#45;&gt;Node43</title>
<path fill="none" stroke="#63b8ff" d="M165.55,-1193.84C174.14,-1106.93 209.2,-769.11 261,-495 282.74,-379.96 319.95,-243.71 332.63,-198.46"/>
<polygon fill="#63b8ff" stroke="#63b8ff" points="162.08,-1193.4 164.58,-1203.69 169.04,-1194.08 162.08,-1193.4"/>
</g>
<!-- Node2 -->
<g id="node2" class="node">
<title>Node2</title>
<g id="a_node2"><a xlink:href="class_ogre_1_1_allocated_object.html" target="_top" xlink:title="Superclass for all objects that wish to use custom memory allocators when their new / delete operator...">
<polygon fill="white" stroke="#666666" points="64,-1224.5 0,-1224.5 0,-1205.5 64,-1205.5 64,-1224.5"/>
<text text-anchor="middle" x="32" y="-1212.5" font-family="Helvetica,sans-Serif" font-size="10.00">BufferAlloc</text>
</a>
</g>
</g>
<!-- Node2&#45;&gt;Node1 -->
<g id="edge1" class="edge">
<title>Node2&#45;&gt;Node1</title>
<path fill="none" stroke="#63b8ff" d="M75.71,-1215C83.42,-1215 91.6,-1215 99.73,-1215"/>
<polygon fill="#63b8ff" stroke="#63b8ff" points="75.95,-1211.5 65.95,-1215 75.95,-1218.5 75.95,-1211.5"/>
</g>
<!-- Node5 -->
<g id="node5" class="node">
<title>Node5</title>
<g id="a_node5"><a xlink:href="class_ogre_1_1v1_1_1_default_hardware_counter_buffer.html" target="_top" xlink:title="Specialisation of HardwareCounterBuffer for emulation.">
<polygon fill="white" stroke="#666666" points="598.5,-1758 468.5,-1758 468.5,-1728 598.5,-1728 598.5,-1758"/>
<text text-anchor="start" x="476.5" y="-1746" font-family="Helvetica,sans-Serif" font-size="10.00">Ogre::v1::DefaultHardware</text>
<text text-anchor="middle" x="533.5" y="-1735" font-family="Helvetica,sans-Serif" font-size="10.00">CounterBuffer</text>
</a>
</g>
</g>
<!-- Node4&#45;&gt;Node5 -->
<g id="edge4" class="edge">
<title>Node4&#45;&gt;Node5</title>
<path fill="none" stroke="#63b8ff" d="M408.12,-1667.59C410.5,-1668.97 412.8,-1670.44 415,-1672 436.45,-1687.23 429.31,-1704.1 451,-1719 456.35,-1722.67 462.27,-1725.79 468.4,-1728.44"/>
<polygon fill="#63b8ff" stroke="#63b8ff" points="409.85,-1664.54 399.35,-1663.09 406.65,-1670.77 409.85,-1664.54"/>
</g>
<!-- Node6 -->
<g id="node6" class="node">
<title>Node6</title>
<g id="a_node6"><a xlink:href="class_ogre_1_1v1_1_1_g_l3_plus_default_hardware_counter_buffer.html" target="_top" xlink:title="Specialisation of HardwareCounterBuffer for emulation.">
<polygon fill="white" stroke="#666666" points="596.5,-1710 470.5,-1710 470.5,-1680 596.5,-1680 596.5,-1710"/>
<text text-anchor="start" x="478.5" y="-1698" font-family="Helvetica,sans-Serif" font-size="10.00">Ogre::v1::GL3PlusDefault</text>
<text text-anchor="middle" x="533.5" y="-1687" font-family="Helvetica,sans-Serif" font-size="10.00">HardwareCounterBuffer</text>
</a>
</g>
</g>
<!-- Node4&#45;&gt;Node6 -->
<g id="edge5" class="edge">
<title>Node4&#45;&gt;Node6</title>
<path fill="none" stroke="#63b8ff" d="M412.36,-1665.2C431.47,-1669.94 451.86,-1675 470.33,-1679.58"/>
<polygon fill="#63b8ff" stroke="#63b8ff" points="413.31,-1661.83 402.76,-1662.82 411.62,-1668.62 413.31,-1661.83"/>
</g>
<!-- Node7 -->
<g id="node7" class="node">
<title>Node7</title>
<g id="a_node7"><a xlink:href="class_ogre_1_1v1_1_1_g_l3_plus_hardware_counter_buffer.html" target="_top" xlink:title="Specialisation of HardwareCounterBuffer for OpenGL.">
<polygon fill="white" stroke="#666666" points="602,-1662 465,-1662 465,-1632 602,-1632 602,-1662"/>
<text text-anchor="start" x="473" y="-1650" font-family="Helvetica,sans-Serif" font-size="10.00">Ogre::v1::GL3PlusHardware</text>
<text text-anchor="middle" x="533.5" y="-1639" font-family="Helvetica,sans-Serif" font-size="10.00">CounterBuffer</text>
</a>
</g>
</g>
<!-- Node4&#45;&gt;Node7 -->
<g id="edge6" class="edge">
<title>Node4&#45;&gt;Node7</title>
<path fill="none" stroke="#63b8ff" d="M416.26,-1647C432.25,-1647 448.97,-1647 464.59,-1647"/>
<polygon fill="#63b8ff" stroke="#63b8ff" points="416.29,-1643.5 406.29,-1647 416.29,-1650.5 416.29,-1643.5"/>
</g>
<!-- Node9 -->
<g id="node9" class="node">
<title>Node9</title>
<g id="a_node9"><a xlink:href="class_ogre_1_1v1_1_1_d3_d11_hardware_index_buffer.html" target="_top" xlink:title=" ">
<polygon fill="white" stroke="#666666" points="609.5,-1614 457.5,-1614 457.5,-1584 609.5,-1584 609.5,-1614"/>
<text text-anchor="start" x="465.5" y="-1602" font-family="Helvetica,sans-Serif" font-size="10.00">Ogre::v1::D3D11HardwareIndex</text>
<text text-anchor="middle" x="533.5" y="-1591" font-family="Helvetica,sans-Serif" font-size="10.00">Buffer</text>
</a>
</g>
</g>
<!-- Node8&#45;&gt;Node9 -->
<g id="edge8" class="edge">
<title>Node8&#45;&gt;Node9</title>
<path fill="none" stroke="#63b8ff" d="M349.07,-1450.8C365.91,-1481.92 402.75,-1542.12 451,-1575 455.88,-1578.32 461.22,-1581.19 466.76,-1583.67"/>
<polygon fill="#63b8ff" stroke="#63b8ff" points="352.24,-1449.31 344.49,-1442.09 346.05,-1452.57 352.24,-1449.31"/>
</g>
<!-- Node10 -->
<g id="node10" class="node">
<title>Node10</title>
<g id="a_node10"><a xlink:href="class_ogre_1_1v1_1_1_default_hardware_index_buffer.html" target="_top" xlink:title="Specialisation of HardwareIndexBuffer for emulation.">
<polygon fill="white" stroke="#666666" points="598.5,-1566 468.5,-1566 468.5,-1536 598.5,-1536 598.5,-1566"/>
<text text-anchor="start" x="476.5" y="-1554" font-family="Helvetica,sans-Serif" font-size="10.00">Ogre::v1::DefaultHardware</text>
<text text-anchor="middle" x="533.5" y="-1543" font-family="Helvetica,sans-Serif" font-size="10.00">IndexBuffer</text>
</a>
</g>
</g>
<!-- Node8&#45;&gt;Node10 -->
<g id="edge9" class="edge">
<title>Node8&#45;&gt;Node10</title>
<path fill="none" stroke="#63b8ff" d="M355.56,-1449.28C376.01,-1470.81 412.8,-1506.25 451,-1527 456.96,-1530.24 463.41,-1533.09 469.99,-1535.58"/>
<polygon fill="#63b8ff" stroke="#63b8ff" points="358.25,-1447.03 348.87,-1442.1 353.13,-1451.8 358.25,-1447.03"/>
</g>
<!-- Node11 -->
<g id="node11" class="node">
<title>Node11</title>
<g id="a_node11"><a xlink:href="class_ogre_1_1v1_1_1_g_l3_plus_default_hardware_index_buffer.html" target="_top" xlink:title="Specialisation of HardwareIndexBuffer for emulation.">
<polygon fill="white" stroke="#666666" points="596.5,-1518 470.5,-1518 470.5,-1488 596.5,-1488 596.5,-1518"/>
<text text-anchor="start" x="478.5" y="-1506" font-family="Helvetica,sans-Serif" font-size="10.00">Ogre::v1::GL3PlusDefault</text>
<text text-anchor="middle" x="533.5" y="-1495" font-family="Helvetica,sans-Serif" font-size="10.00">HardwareIndexBuffer</text>
</a>
</g>
</g>
<!-- Node8&#45;&gt;Node11 -->
<g id="edge10" class="edge">
<title>Node8&#45;&gt;Node11</title>
<path fill="none" stroke="#63b8ff" d="M370.36,-1445.62C392.6,-1455.7 423.29,-1469.02 451,-1479 459.33,-1482 468.23,-1484.91 476.97,-1487.61"/>
<polygon fill="#63b8ff" stroke="#63b8ff" points="372.1,-1442.57 361.55,-1441.6 369.19,-1448.94 372.1,-1442.57"/>
</g>
<!-- Node12 -->
<g id="node12" class="node">
<title>Node12</title>
<g id="a_node12"><a xlink:href="class_ogre_1_1v1_1_1_g_l3_plus_hardware_index_buffer.html" target="_top" xlink:title=" ">
<polygon fill="white" stroke="#666666" points="602,-1470 465,-1470 465,-1440 602,-1440 602,-1470"/>
<text text-anchor="start" x="473" y="-1458" font-family="Helvetica,sans-Serif" font-size="10.00">Ogre::v1::GL3PlusHardware</text>
<text text-anchor="middle" x="533.5" y="-1447" font-family="Helvetica,sans-Serif" font-size="10.00">IndexBuffer</text>
</a>
</g>
</g>
<!-- Node8&#45;&gt;Node12 -->
<g id="edge11" class="edge">
<title>Node8&#45;&gt;Node12</title>
<path fill="none" stroke="#63b8ff" d="M423.78,-1441.52C437.41,-1443.21 451.36,-1444.94 464.53,-1446.57"/>
<polygon fill="#63b8ff" stroke="#63b8ff" points="424.29,-1438.05 413.93,-1440.29 423.43,-1445 424.29,-1438.05"/>
</g>
<!-- Node13 -->
<g id="node13" class="node">
<title>Node13</title>
<g id="a_node13"><a xlink:href="class_ogre_1_1v1_1_1_g_l_e_s2_default_hardware_index_buffer.html" target="_top" xlink:title="Specialisation of HardwareIndexBuffer for emulation.">
<polygon fill="white" stroke="#666666" points="614,-1422 453,-1422 453,-1392 614,-1392 614,-1422"/>
<text text-anchor="start" x="461" y="-1410" font-family="Helvetica,sans-Serif" font-size="10.00">Ogre::v1::GLES2DefaultHardware</text>
<text text-anchor="middle" x="533.5" y="-1399" font-family="Helvetica,sans-Serif" font-size="10.00">IndexBuffer</text>
</a>
</g>
</g>
<!-- Node8&#45;&gt;Node13 -->
<g id="edge12" class="edge">
<title>Node8&#45;&gt;Node13</title>
<path fill="none" stroke="#63b8ff" d="M423.65,-1420.5C433.29,-1419.31 443.09,-1418.09 452.66,-1416.9"/>
<polygon fill="#63b8ff" stroke="#63b8ff" points="423.43,-1417 413.93,-1421.71 424.29,-1423.95 423.43,-1417"/>
</g>
<!-- Node14 -->
<g id="node14" class="node">
<title>Node14</title>
<g id="a_node14"><a xlink:href="class_ogre_1_1v1_1_1_metal_hardware_index_buffer.html" target="_top" xlink:title="Specialisation of HardwareIndexBuffer for Metal.">
<polygon fill="white" stroke="#666666" points="606.5,-1374 460.5,-1374 460.5,-1344 606.5,-1344 606.5,-1374"/>
<text text-anchor="start" x="468.5" y="-1362" font-family="Helvetica,sans-Serif" font-size="10.00">Ogre::v1::MetalHardwareIndex</text>
<text text-anchor="middle" x="533.5" y="-1351" font-family="Helvetica,sans-Serif" font-size="10.00">Buffer</text>
</a>
</g>
</g>
<!-- Node8&#45;&gt;Node14 -->
<g id="edge13" class="edge">
<title>Node8&#45;&gt;Node14</title>
<path fill="none" stroke="#63b8ff" d="M370.36,-1416.38C392.6,-1406.3 423.29,-1392.98 451,-1383 459.33,-1380 468.23,-1377.09 476.97,-1374.39"/>
<polygon fill="#63b8ff" stroke="#63b8ff" points="369.19,-1413.06 361.55,-1420.4 372.1,-1419.43 369.19,-1413.06"/>
</g>
<!-- Node15 -->
<g id="node15" class="node">
<title>Node15</title>
<g id="a_node15"><a xlink:href="class_ogre_1_1v1_1_1_vulkan_hardware_index_buffer.html" target="_top" xlink:title=" ">
<polygon fill="white" stroke="#666666" points="598,-1326 469,-1326 469,-1296 598,-1296 598,-1326"/>
<text text-anchor="start" x="477" y="-1314" font-family="Helvetica,sans-Serif" font-size="10.00">Ogre::v1::VulkanHardware</text>
<text text-anchor="middle" x="533.5" y="-1303" font-family="Helvetica,sans-Serif" font-size="10.00">IndexBuffer</text>
</a>
</g>
</g>
<!-- Node8&#45;&gt;Node15 -->
<g id="edge14" class="edge">
<title>Node8&#45;&gt;Node15</title>
<path fill="none" stroke="#63b8ff" d="M355.56,-1412.72C376.01,-1391.19 412.8,-1355.75 451,-1335 456.96,-1331.76 463.41,-1328.91 469.99,-1326.42"/>
<polygon fill="#63b8ff" stroke="#63b8ff" points="353.13,-1410.2 348.87,-1419.9 358.25,-1414.97 353.13,-1410.2"/>
</g>
<!-- Node17 -->
<g id="node17" class="node">
<title>Node17</title>
<g id="a_node17"><a xlink:href="class_ogre_1_1v1_1_1_d3_d11_depth_pixel_buffer.html" target="_top" xlink:title=" ">
<polygon fill="white" stroke="#666666" points="600,-1278 467,-1278 467,-1248 600,-1248 600,-1278"/>
<text text-anchor="start" x="475" y="-1266" font-family="Helvetica,sans-Serif" font-size="10.00">Ogre::v1::D3D11DepthPixel</text>
<text text-anchor="middle" x="533.5" y="-1255" font-family="Helvetica,sans-Serif" font-size="10.00">Buffer</text>
</a>
</g>
</g>
<!-- Node16&#45;&gt;Node17 -->
<g id="edge16" class="edge">
<title>Node16&#45;&gt;Node17</title>
<path fill="none" stroke="#63b8ff" d="M342.77,-1020.04C352.23,-1066.63 381.38,-1179.13 451,-1239 455.7,-1243.04 461.05,-1246.4 466.71,-1249.19"/>
<polygon fill="#63b8ff" stroke="#63b8ff" points="346.25,-1019.62 340.93,-1010.46 339.38,-1020.94 346.25,-1019.62"/>
</g>
<!-- Node18 -->
<g id="node18" class="node">
<title>Node18</title>
<g id="a_node18"><a xlink:href="class_ogre_1_1v1_1_1_d3_d11_hardware_pixel_buffer.html" target="_top" xlink:title=" ">
<polygon fill="white" stroke="#666666" points="608,-1230 459,-1230 459,-1200 608,-1200 608,-1230"/>
<text text-anchor="start" x="467" y="-1218" font-family="Helvetica,sans-Serif" font-size="10.00">Ogre::v1::D3D11HardwarePixel</text>
<text text-anchor="middle" x="533.5" y="-1207" font-family="Helvetica,sans-Serif" font-size="10.00">Buffer</text>
</a>
</g>
</g>
<!-- Node16&#45;&gt;Node18 -->
<g id="edge17" class="edge">
<title>Node16&#45;&gt;Node18</title>
<path fill="none" stroke="#63b8ff" d="M345.25,-1019.5C358.3,-1058.8 392.21,-1144.94 451,-1191 455.18,-1194.27 459.8,-1197.1 464.64,-1199.55"/>
<polygon fill="#63b8ff" stroke="#63b8ff" points="348.64,-1018.6 342.27,-1010.14 341.97,-1020.73 348.64,-1018.6"/>
</g>
<!-- Node19 -->
<g id="node19" class="node">
<title>Node19</title>
<g id="a_node19"><a xlink:href="class_ogre_1_1v1_1_1_d3_d11_null_pixel_buffer.html" target="_top" xlink:title=" ">
<polygon fill="white" stroke="#666666" points="596,-1182 471,-1182 471,-1152 596,-1152 596,-1182"/>
<text text-anchor="start" x="479" y="-1170" font-family="Helvetica,sans-Serif" font-size="10.00">Ogre::v1::D3D11NullPixel</text>
<text text-anchor="middle" x="533.5" y="-1159" font-family="Helvetica,sans-Serif" font-size="10.00">Buffer</text>
</a>
</g>
</g>
<!-- Node16&#45;&gt;Node19 -->
<g id="edge18" class="edge">
<title>Node16&#45;&gt;Node19</title>
<path fill="none" stroke="#63b8ff" d="M349.07,-1018.8C365.91,-1049.92 402.75,-1110.12 451,-1143 456.97,-1147.07 463.65,-1150.46 470.53,-1153.28"/>
<polygon fill="#63b8ff" stroke="#63b8ff" points="352.24,-1017.31 344.49,-1010.09 346.05,-1020.57 352.24,-1017.31"/>
</g>
<!-- Node20 -->
<g id="node20" class="node">
<title>Node20</title>
<g id="a_node20"><a xlink:href="class_ogre_1_1v1_1_1_g_l3_plus_depth_pixel_buffer.html" target="_top" xlink:title=" ">
<polygon fill="white" stroke="#666666" points="604.5,-1134 462.5,-1134 462.5,-1104 604.5,-1104 604.5,-1134"/>
<text text-anchor="start" x="470.5" y="-1122" font-family="Helvetica,sans-Serif" font-size="10.00">Ogre::v1::GL3PlusDepthPixel</text>
<text text-anchor="middle" x="533.5" y="-1111" font-family="Helvetica,sans-Serif" font-size="10.00">Buffer</text>
</a>
</g>
</g>
<!-- Node16&#45;&gt;Node20 -->
<g id="edge19" class="edge">
<title>Node16&#45;&gt;Node20</title>
<path fill="none" stroke="#63b8ff" d="M355.56,-1017.28C376.01,-1038.81 412.8,-1074.25 451,-1095 456.96,-1098.24 463.41,-1101.09 469.99,-1103.58"/>
<polygon fill="#63b8ff" stroke="#63b8ff" points="358.25,-1015.03 348.87,-1010.1 353.13,-1019.8 358.25,-1015.03"/>
</g>
<!-- Node21 -->
<g id="node21" class="node">
<title>Node21</title>
<g id="a_node21"><a xlink:href="class_ogre_1_1v1_1_1_g_l3_plus_hardware_pixel_buffer.html" target="_top" xlink:title=" ">
<polygon fill="white" stroke="#666666" points="602,-1086 465,-1086 465,-1056 602,-1056 602,-1086"/>
<text text-anchor="start" x="473" y="-1074" font-family="Helvetica,sans-Serif" font-size="10.00">Ogre::v1::GL3PlusHardware</text>
<text text-anchor="middle" x="533.5" y="-1063" font-family="Helvetica,sans-Serif" font-size="10.00">PixelBuffer</text>
</a>
</g>
</g>
<!-- Node16&#45;&gt;Node21 -->
<g id="edge20" class="edge">
<title>Node16&#45;&gt;Node21</title>
<path fill="none" stroke="#63b8ff" d="M370.36,-1013.62C392.6,-1023.7 423.29,-1037.02 451,-1047 459.33,-1050 468.23,-1052.91 476.97,-1055.61"/>
<polygon fill="#63b8ff" stroke="#63b8ff" points="372.1,-1010.57 361.55,-1009.6 369.19,-1016.94 372.1,-1010.57"/>
</g>
<!-- Node24 -->
<g id="node24" class="node">
<title>Node24</title>
<g id="a_node24"><a xlink:href="class_ogre_1_1v1_1_1_g_l3_plus_null_pixel_buffer.html" target="_top" xlink:title=" ">
<polygon fill="white" stroke="#666666" points="600.5,-1038 466.5,-1038 466.5,-1008 600.5,-1008 600.5,-1038"/>
<text text-anchor="start" x="474.5" y="-1026" font-family="Helvetica,sans-Serif" font-size="10.00">Ogre::v1::GL3PlusNullPixel</text>
<text text-anchor="middle" x="533.5" y="-1015" font-family="Helvetica,sans-Serif" font-size="10.00">Buffer</text>
</a>
</g>
</g>
<!-- Node16&#45;&gt;Node24 -->
<g id="edge23" class="edge">
<title>Node16&#45;&gt;Node24</title>
<path fill="none" stroke="#63b8ff" d="M422.38,-1009.34C436.96,-1011.15 451.96,-1013.01 466.01,-1014.75"/>
<polygon fill="#63b8ff" stroke="#63b8ff" points="423.18,-1005.91 412.83,-1008.16 422.32,-1012.86 423.18,-1005.91"/>
</g>
<!-- Node25 -->
<g id="node25" class="node">
<title>Node25</title>
<g id="a_node25"><a xlink:href="class_ogre_1_1v1_1_1_g_l_e_s2_depth_pixel_buffer.html" target="_top" xlink:title=" ">
<polygon fill="white" stroke="#666666" points="601,-990 466,-990 466,-960 601,-960 601,-990"/>
<text text-anchor="start" x="474" y="-978" font-family="Helvetica,sans-Serif" font-size="10.00">Ogre::v1::GLES2DepthPixel</text>
<text text-anchor="middle" x="533.5" y="-967" font-family="Helvetica,sans-Serif" font-size="10.00">Buffer</text>
</a>
</g>
</g>
<!-- Node16&#45;&gt;Node25 -->
<g id="edge24" class="edge">
<title>Node16&#45;&gt;Node25</title>
<path fill="none" stroke="#63b8ff" d="M422.74,-988.61C437.1,-986.83 451.85,-985 465.69,-983.29"/>
<polygon fill="#63b8ff" stroke="#63b8ff" points="422.32,-985.14 412.83,-989.84 423.18,-992.09 422.32,-985.14"/>
</g>
<!-- Node26 -->
<g id="node26" class="node">
<title>Node26</title>
<g id="a_node26"><a xlink:href="class_ogre_1_1v1_1_1_g_l_e_s2_hardware_pixel_buffer.html" target="_top" xlink:title=" ">
<polygon fill="white" stroke="#666666" points="609.5,-942 457.5,-942 457.5,-912 609.5,-912 609.5,-942"/>
<text text-anchor="start" x="465.5" y="-930" font-family="Helvetica,sans-Serif" font-size="10.00">Ogre::v1::GLES2HardwarePixel</text>
<text text-anchor="middle" x="533.5" y="-919" font-family="Helvetica,sans-Serif" font-size="10.00">Buffer</text>
</a>
</g>
</g>
<!-- Node16&#45;&gt;Node26 -->
<g id="edge25" class="edge">
<title>Node16&#45;&gt;Node26</title>
<path fill="none" stroke="#63b8ff" d="M370.36,-984.38C392.6,-974.3 423.29,-960.98 451,-951 459.33,-948 468.23,-945.09 476.97,-942.39"/>
<polygon fill="#63b8ff" stroke="#63b8ff" points="369.19,-981.06 361.55,-988.4 372.1,-987.43 369.19,-981.06"/>
</g>
<!-- Node29 -->
<g id="node29" class="node">
<title>Node29</title>
<g id="a_node29"><a xlink:href="class_ogre_1_1v1_1_1_g_l_e_s2_null_pixel_buffer.html" target="_top" xlink:title=" ">
<polygon fill="white" stroke="#666666" points="597,-894 470,-894 470,-864 597,-864 597,-894"/>
<text text-anchor="start" x="478" y="-882" font-family="Helvetica,sans-Serif" font-size="10.00">Ogre::v1::GLES2NullPixel</text>
<text text-anchor="middle" x="533.5" y="-871" font-family="Helvetica,sans-Serif" font-size="10.00">Buffer</text>
</a>
</g>
</g>
<!-- Node16&#45;&gt;Node29 -->
<g id="edge28" class="edge">
<title>Node16&#45;&gt;Node29</title>
<path fill="none" stroke="#63b8ff" d="M355.56,-980.72C376.01,-959.19 412.8,-923.75 451,-903 456.96,-899.76 463.41,-896.91 469.99,-894.42"/>
<polygon fill="#63b8ff" stroke="#63b8ff" points="353.13,-978.2 348.87,-987.9 358.25,-982.97 353.13,-978.2"/>
</g>
<!-- Node30 -->
<g id="node30" class="node">
<title>Node30</title>
<g id="a_node30"><a xlink:href="class_ogre_1_1v1_1_1_metal_depth_pixel_buffer.html" target="_top" xlink:title=" ">
<polygon fill="white" stroke="#666666" points="597.5,-846 469.5,-846 469.5,-816 597.5,-816 597.5,-846"/>
<text text-anchor="start" x="477.5" y="-834" font-family="Helvetica,sans-Serif" font-size="10.00">Ogre::v1::MetalDepthPixel</text>
<text text-anchor="middle" x="533.5" y="-823" font-family="Helvetica,sans-Serif" font-size="10.00">Buffer</text>
</a>
</g>
</g>
<!-- Node16&#45;&gt;Node30 -->
<g id="edge29" class="edge">
<title>Node16&#45;&gt;Node30</title>
<path fill="none" stroke="#63b8ff" d="M349.07,-979.2C365.91,-948.08 402.75,-887.88 451,-855 456.61,-851.18 462.83,-847.96 469.27,-845.24"/>
<polygon fill="#63b8ff" stroke="#63b8ff" points="346.05,-977.43 344.49,-987.91 352.24,-980.69 346.05,-977.43"/>
</g>
<!-- Node31 -->
<g id="node31" class="node">
<title>Node31</title>
<g id="a_node31"><a xlink:href="class_ogre_1_1v1_1_1_metal_hardware_pixel_buffer.html" target="_top" xlink:title=" ">
<polygon fill="#fff0f0" stroke="red" points="605.5,-798 461.5,-798 461.5,-768 605.5,-768 605.5,-798"/>
<text text-anchor="start" x="469.5" y="-786" font-family="Helvetica,sans-Serif" font-size="10.00">Ogre::v1::MetalHardwarePixel</text>
<text text-anchor="middle" x="533.5" y="-775" font-family="Helvetica,sans-Serif" font-size="10.00">Buffer</text>
</a>
</g>
</g>
<!-- Node16&#45;&gt;Node31 -->
<g id="edge30" class="edge">
<title>Node16&#45;&gt;Node31</title>
<path fill="none" stroke="#63b8ff" d="M345.25,-978.5C358.3,-939.2 392.21,-853.06 451,-807 455.18,-803.73 459.8,-800.9 464.64,-798.45"/>
<polygon fill="#63b8ff" stroke="#63b8ff" points="341.97,-977.27 342.27,-987.86 348.64,-979.4 341.97,-977.27"/>
</g>
<!-- Node33 -->
<g id="node32" class="node">
<title>Node33</title>
<g id="a_node32"><a xlink:href="class_ogre_1_1v1_1_1_metal_null_pixel_buffer.html" target="_top" xlink:title=" ">
<polygon fill="white" stroke="#666666" points="593,-750 474,-750 474,-720 593,-720 593,-750"/>
<text text-anchor="start" x="482" y="-738" font-family="Helvetica,sans-Serif" font-size="10.00">Ogre::v1::MetalNullPixel</text>
<text text-anchor="middle" x="533.5" y="-727" font-family="Helvetica,sans-Serif" font-size="10.00">Buffer</text>
</a>
</g>
</g>
<!-- Node16&#45;&gt;Node33 -->
<g id="edge31" class="edge">
<title>Node16&#45;&gt;Node33</title>
<path fill="none" stroke="#63b8ff" d="M342.77,-977.96C352.23,-931.37 381.38,-818.87 451,-759 457.6,-753.33 465.48,-748.99 473.71,-745.68"/>
<polygon fill="#63b8ff" stroke="#63b8ff" points="339.38,-977.06 340.93,-987.54 346.25,-978.38 339.38,-977.06"/>
</g>
<!-- Node34 -->
<g id="node33" class="node">
<title>Node34</title>
<g id="a_node33"><a xlink:href="class_ogre_1_1v1_1_1_n_u_l_l_hardware_pixel_buffer.html" target="_top" xlink:title=" ">
<polygon fill="white" stroke="#666666" points="607,-702 460,-702 460,-672 607,-672 607,-702"/>
<text text-anchor="start" x="468" y="-690" font-family="Helvetica,sans-Serif" font-size="10.00">Ogre::v1::NULLHardwarePixel</text>
<text text-anchor="middle" x="533.5" y="-679" font-family="Helvetica,sans-Serif" font-size="10.00">Buffer</text>
</a>
</g>
</g>
<!-- Node16&#45;&gt;Node34 -->
<g id="edge32" class="edge">
<title>Node16&#45;&gt;Node34</title>
<path fill="none" stroke="#63b8ff" d="M340.95,-977.84C347,-924.82 370.17,-785.28 451,-711 454.58,-707.71 458.6,-704.86 462.87,-702.41"/>
<polygon fill="#63b8ff" stroke="#63b8ff" points="337.49,-977.29 339.94,-987.59 344.46,-978.01 337.49,-977.29"/>
</g>
<!-- Node22 -->
<g id="node22" class="node">
<title>Node22</title>
<g id="a_node22"><a xlink:href="class_ogre_1_1v1_1_1_g_l3_plus_render_buffer.html" target="_top" xlink:title="Renderbuffer surface.">
<polygon fill="white" stroke="#666666" points="804,-1101.5 652,-1101.5 652,-1082.5 804,-1082.5 804,-1101.5"/>
<text text-anchor="middle" x="728" y="-1089.5" font-family="Helvetica,sans-Serif" font-size="10.00">Ogre::v1::GL3PlusRenderBuffer</text>
</a>
</g>
</g>
<!-- Node21&#45;&gt;Node22 -->
<g id="edge21" class="edge">
<title>Node21&#45;&gt;Node22</title>
<path fill="none" stroke="#63b8ff" d="M613.72,-1079.64C626.23,-1081.01 639.13,-1082.41 651.55,-1083.77"/>
<polygon fill="#63b8ff" stroke="#63b8ff" points="614.19,-1076.17 603.87,-1078.57 613.43,-1083.13 614.19,-1076.17"/>
</g>
<!-- Node23 -->
<g id="node23" class="node">
<title>Node23</title>
<g id="a_node23"><a xlink:href="class_ogre_1_1v1_1_1_g_l3_plus_texture_buffer.html" target="_top" xlink:title="Texture surface.">
<polygon fill="white" stroke="#666666" points="792,-1064 664,-1064 664,-1034 792,-1034 792,-1064"/>
<text text-anchor="start" x="672" y="-1052" font-family="Helvetica,sans-Serif" font-size="10.00">Ogre::v1::GL3PlusTexture</text>
<text text-anchor="middle" x="728" y="-1041" font-family="Helvetica,sans-Serif" font-size="10.00">Buffer</text>
</a>
</g>
</g>
<!-- Node21&#45;&gt;Node23 -->
<g id="edge22" class="edge">
<title>Node21&#45;&gt;Node23</title>
<path fill="none" stroke="#63b8ff" d="M613.73,-1061.94C630.35,-1060.05 647.66,-1058.07 663.61,-1056.24"/>
<polygon fill="#63b8ff" stroke="#63b8ff" points="613.41,-1058.46 603.87,-1063.07 614.2,-1065.41 613.41,-1058.46"/>
</g>
<!-- Node27 -->
<g id="node27" class="node">
<title>Node27</title>
<g id="a_node27"><a xlink:href="class_ogre_1_1v1_1_1_g_l_e_s2_render_buffer.html" target="_top" xlink:title="Renderbuffer surface.">
<polygon fill="white" stroke="#666666" points="800.5,-954.5 655.5,-954.5 655.5,-935.5 800.5,-935.5 800.5,-954.5"/>
<text text-anchor="middle" x="728" y="-942.5" font-family="Helvetica,sans-Serif" font-size="10.00">Ogre::v1::GLES2RenderBuffer</text>
</a>
</g>
</g>
<!-- Node26&#45;&gt;Node27 -->
<g id="edge26" class="edge">
<title>Node26&#45;&gt;Node27</title>
<path fill="none" stroke="#63b8ff" d="M621.09,-935.1C632.52,-936.17 644.13,-937.25 655.27,-938.29"/>
<polygon fill="#63b8ff" stroke="#63b8ff" points="621.54,-931.62 611.26,-934.18 620.89,-938.59 621.54,-931.62"/>
</g>
<!-- Node28 -->
<g id="node28" class="node">
<title>Node28</title>
<g id="a_node28"><a xlink:href="class_ogre_1_1v1_1_1_g_l_e_s2_texture_buffer.html" target="_top" xlink:title="Texture surface.">
<polygon fill="white" stroke="#666666" points="801,-917.5 655,-917.5 655,-898.5 801,-898.5 801,-917.5"/>
<text text-anchor="middle" x="728" y="-905.5" font-family="Helvetica,sans-Serif" font-size="10.00">Ogre::v1::GLES2TextureBuffer</text>
</a>
</g>
</g>
<!-- Node26&#45;&gt;Node28 -->
<g id="edge27" class="edge">
<title>Node26&#45;&gt;Node28</title>
<path fill="none" stroke="#63b8ff" d="M620.93,-918.47C632.19,-917.36 643.64,-916.23 654.64,-915.14"/>
<polygon fill="#63b8ff" stroke="#63b8ff" points="620.87,-914.96 611.26,-919.42 621.55,-921.92 620.87,-914.96"/>
</g>
<!-- Node36 -->
<g id="node35" class="node">
<title>Node36</title>
<g id="a_node35"><a xlink:href="class_ogre_1_1v1_1_1_d3_d11_hardware_uniform_buffer.html" target="_top" xlink:title="Specialisation of HardwareBuffer for D3D11.">
<polygon fill="white" stroke="#666666" points="615,-654 452,-654 452,-624 615,-624 615,-654"/>
<text text-anchor="start" x="460" y="-642" font-family="Helvetica,sans-Serif" font-size="10.00">Ogre::v1::D3D11HardwareUniform</text>
<text text-anchor="middle" x="533.5" y="-631" font-family="Helvetica,sans-Serif" font-size="10.00">Buffer</text>
</a>
</g>
</g>
<!-- Node35&#45;&gt;Node36 -->
<g id="edge34" class="edge">
<title>Node35&#45;&gt;Node36</title>
<path fill="none" stroke="#63b8ff" d="M360.39,-542.3C381.49,-564 415.64,-595.79 451,-615 456.96,-618.24 463.41,-621.09 469.99,-623.58"/>
<polygon fill="#63b8ff" stroke="#63b8ff" points="363.18,-540.16 353.74,-535.34 358.12,-544.99 363.18,-540.16"/>
</g>
<!-- Node37 -->
<g id="node36" class="node">
<title>Node37</title>
<g id="a_node36"><a xlink:href="class_ogre_1_1v1_1_1_default_hardware_uniform_buffer.html" target="_top" xlink:title="Specialisation of HardwareUniformBuffer for emulation.">
<polygon fill="white" stroke="#666666" points="598.5,-606 468.5,-606 468.5,-576 598.5,-576 598.5,-606"/>
<text text-anchor="start" x="476.5" y="-594" font-family="Helvetica,sans-Serif" font-size="10.00">Ogre::v1::DefaultHardware</text>
<text text-anchor="middle" x="533.5" y="-583" font-family="Helvetica,sans-Serif" font-size="10.00">UniformBuffer</text>
</a>
</g>
</g>
<!-- Node35&#45;&gt;Node37 -->
<g id="edge35" class="edge">
<title>Node35&#45;&gt;Node37</title>
<path fill="none" stroke="#63b8ff" d="M382.24,-538.95C402.83,-548.09 427.95,-558.7 451,-567 459.33,-570 468.23,-572.91 476.97,-575.61"/>
<polygon fill="#63b8ff" stroke="#63b8ff" points="383.85,-535.84 373.29,-534.95 380.99,-542.23 383.85,-535.84"/>
</g>
<!-- Node38 -->
<g id="node37" class="node">
<title>Node38</title>
<g id="a_node37"><a xlink:href="class_ogre_1_1v1_1_1_g_l3_plus_default_hardware_uniform_buffer.html" target="_top" xlink:title="Specialisation of HardwareUniformBuffer for emulation.">
<polygon fill="white" stroke="#666666" points="596.5,-558 470.5,-558 470.5,-528 596.5,-528 596.5,-558"/>
<text text-anchor="start" x="478.5" y="-546" font-family="Helvetica,sans-Serif" font-size="10.00">Ogre::v1::GL3PlusDefault</text>
<text text-anchor="middle" x="533.5" y="-535" font-family="Helvetica,sans-Serif" font-size="10.00">HardwareUniformBuffer</text>
</a>
</g>
</g>
<!-- Node35&#45;&gt;Node38 -->
<g id="edge36" class="edge">
<title>Node35&#45;&gt;Node38</title>
<path fill="none" stroke="#63b8ff" d="M416.57,-528.62C434.39,-530.83 453.1,-533.15 470.18,-535.27"/>
<polygon fill="#63b8ff" stroke="#63b8ff" points="417.18,-525.17 406.82,-527.41 416.32,-532.12 417.18,-525.17"/>
</g>
<!-- Node39 -->
<g id="node38" class="node">
<title>Node39</title>
<g id="a_node38"><a xlink:href="class_ogre_1_1v1_1_1_g_l3_plus_hardware_shader_storage_buffer.html" target="_top" xlink:title="Specialisation of HardwareUniformBuffer for the OpenGL Shader Storage Buffer.">
<polygon fill="white" stroke="#666666" points="602,-510 465,-510 465,-480 602,-480 602,-510"/>
<text text-anchor="start" x="473" y="-498" font-family="Helvetica,sans-Serif" font-size="10.00">Ogre::v1::GL3PlusHardware</text>
<text text-anchor="middle" x="533.5" y="-487" font-family="Helvetica,sans-Serif" font-size="10.00">ShaderStorageBuffer</text>
</a>
</g>
</g>
<!-- Node35&#45;&gt;Node39 -->
<g id="edge37" class="edge">
<title>Node35&#45;&gt;Node39</title>
<path fill="none" stroke="#63b8ff" d="M416.72,-509.36C432.57,-507.39 449.14,-505.34 464.62,-503.42"/>
<polygon fill="#63b8ff" stroke="#63b8ff" points="416.32,-505.88 406.82,-510.59 417.18,-512.83 416.32,-505.88"/>
</g>
<!-- Node40 -->
<g id="node39" class="node">
<title>Node40</title>
<g id="a_node39"><a xlink:href="class_ogre_1_1v1_1_1_g_l3_plus_hardware_uniform_buffer.html" target="_top" xlink:title="Specialisation of HardwareUniformBuffer for OpenGL.">
<polygon fill="white" stroke="#666666" points="602,-462 465,-462 465,-432 602,-432 602,-462"/>
<text text-anchor="start" x="473" y="-450" font-family="Helvetica,sans-Serif" font-size="10.00">Ogre::v1::GL3PlusHardware</text>
<text text-anchor="middle" x="533.5" y="-439" font-family="Helvetica,sans-Serif" font-size="10.00">UniformBuffer</text>
</a>
</g>
</g>
<!-- Node35&#45;&gt;Node40 -->
<g id="edge38" class="edge">
<title>Node35&#45;&gt;Node40</title>
<path fill="none" stroke="#63b8ff" d="M382.24,-499.05C402.83,-489.91 427.95,-479.3 451,-471 459.33,-468 468.23,-465.09 476.97,-462.39"/>
<polygon fill="#63b8ff" stroke="#63b8ff" points="380.99,-495.77 373.29,-503.05 383.85,-502.16 380.99,-495.77"/>
</g>
<!-- Node41 -->
<g id="node40" class="node">
<title>Node41</title>
<g id="a_node40"><a xlink:href="class_ogre_1_1v1_1_1_g_l_e_s2_default_hardware_uniform_buffer.html" target="_top" xlink:title="Specialisation of HardwareUniformBuffer for emulation.">
<polygon fill="white" stroke="#666666" points="614,-414 453,-414 453,-384 614,-384 614,-414"/>
<text text-anchor="start" x="461" y="-402" font-family="Helvetica,sans-Serif" font-size="10.00">Ogre::v1::GLES2DefaultHardware</text>
<text text-anchor="middle" x="533.5" y="-391" font-family="Helvetica,sans-Serif" font-size="10.00">UniformBuffer</text>
</a>
</g>
</g>
<!-- Node35&#45;&gt;Node41 -->
<g id="edge39" class="edge">
<title>Node35&#45;&gt;Node41</title>
<path fill="none" stroke="#63b8ff" d="M360.39,-495.7C381.49,-474 415.64,-442.21 451,-423 456.96,-419.76 463.41,-416.91 469.99,-414.42"/>
<polygon fill="#63b8ff" stroke="#63b8ff" points="358.12,-493.01 353.74,-502.66 363.18,-497.84 358.12,-493.01"/>
</g>
<!-- Node42 -->
<g id="node41" class="node">
<title>Node42</title>
<g id="a_node41"><a xlink:href="class_ogre_1_1v1_1_1_g_l_e_s2_hardware_uniform_buffer.html" target="_top" xlink:title="Specialisation of HardwareUniformBuffer for OpenGL.">
<polygon fill="white" stroke="#666666" points="616,-366 451,-366 451,-336 616,-336 616,-366"/>
<text text-anchor="start" x="459" y="-354" font-family="Helvetica,sans-Serif" font-size="10.00">Ogre::v1::GLES2HardwareUniform</text>
<text text-anchor="middle" x="533.5" y="-343" font-family="Helvetica,sans-Serif" font-size="10.00">Buffer</text>
</a>
</g>
</g>
<!-- Node35&#45;&gt;Node42 -->
<g id="edge40" class="edge">
<title>Node35&#45;&gt;Node42</title>
<path fill="none" stroke="#63b8ff" d="M352,-493.86C369.96,-461.59 405.38,-406.08 451,-375 455.88,-371.68 461.22,-368.81 466.76,-366.33"/>
<polygon fill="#63b8ff" stroke="#63b8ff" points="349,-492.05 347.31,-502.51 355.15,-495.39 349,-492.05"/>
</g>
<!-- Node44 -->
<g id="node43" class="node">
<title>Node44</title>
<g id="a_node43"><a xlink:href="class_ogre_1_1v1_1_1_d3_d11_hardware_vertex_buffer.html" target="_top" xlink:title="Specialisation of HardwareVertexBuffer for D3D11.">
<polygon fill="white" stroke="#666666" points="611.5,-318 455.5,-318 455.5,-288 611.5,-288 611.5,-318"/>
<text text-anchor="start" x="463.5" y="-306" font-family="Helvetica,sans-Serif" font-size="10.00">Ogre::v1::D3D11HardwareVertex</text>
<text text-anchor="middle" x="533.5" y="-295" font-family="Helvetica,sans-Serif" font-size="10.00">Buffer</text>
</a>
</g>
</g>
<!-- Node43&#45;&gt;Node44 -->
<g id="edge42" class="edge">
<title>Node43&#45;&gt;Node44</title>
<path fill="none" stroke="#63b8ff" d="M360.39,-206.3C381.49,-228 415.64,-259.79 451,-279 456.96,-282.24 463.41,-285.09 469.99,-287.58"/>
<polygon fill="#63b8ff" stroke="#63b8ff" points="363.18,-204.16 353.74,-199.34 358.12,-208.99 363.18,-204.16"/>
</g>
<!-- Node45 -->
<g id="node44" class="node">
<title>Node45</title>
<g id="a_node44"><a xlink:href="class_ogre_1_1v1_1_1_default_hardware_vertex_buffer.html" target="_top" xlink:title="Specialisation of HardwareVertexBuffer for emulation.">
<polygon fill="white" stroke="#666666" points="598.5,-270 468.5,-270 468.5,-240 598.5,-240 598.5,-270"/>
<text text-anchor="start" x="476.5" y="-258" font-family="Helvetica,sans-Serif" font-size="10.00">Ogre::v1::DefaultHardware</text>
<text text-anchor="middle" x="533.5" y="-247" font-family="Helvetica,sans-Serif" font-size="10.00">VertexBuffer</text>
</a>
</g>
</g>
<!-- Node43&#45;&gt;Node45 -->
<g id="edge43" class="edge">
<title>Node43&#45;&gt;Node45</title>
<path fill="none" stroke="#63b8ff" d="M382.24,-202.95C402.83,-212.09 427.95,-222.7 451,-231 459.33,-234 468.23,-236.91 476.97,-239.61"/>
<polygon fill="#63b8ff" stroke="#63b8ff" points="383.85,-199.84 373.29,-198.95 380.99,-206.23 383.85,-199.84"/>
</g>
<!-- Node46 -->
<g id="node45" class="node">
<title>Node46</title>
<g id="a_node45"><a xlink:href="class_ogre_1_1v1_1_1_g_l3_plus_default_hardware_vertex_buffer.html" target="_top" xlink:title="Specialisation of HardwareVertexBuffer for emulation.">
<polygon fill="white" stroke="#666666" points="596.5,-222 470.5,-222 470.5,-192 596.5,-192 596.5,-222"/>
<text text-anchor="start" x="478.5" y="-210" font-family="Helvetica,sans-Serif" font-size="10.00">Ogre::v1::GL3PlusDefault</text>
<text text-anchor="middle" x="533.5" y="-199" font-family="Helvetica,sans-Serif" font-size="10.00">HardwareVertexBuffer</text>
</a>
</g>
</g>
<!-- Node43&#45;&gt;Node46 -->
<g id="edge44" class="edge">
<title>Node43&#45;&gt;Node46</title>
<path fill="none" stroke="#63b8ff" d="M413.09,-192.19C431.98,-194.53 452.09,-197.03 470.32,-199.29"/>
<polygon fill="#63b8ff" stroke="#63b8ff" points="413.68,-188.74 403.33,-190.98 412.82,-195.68 413.68,-188.74"/>
</g>
<!-- Node47 -->
<g id="node46" class="node">
<title>Node47</title>
<g id="a_node46"><a xlink:href="class_ogre_1_1v1_1_1_g_l3_plus_hardware_vertex_buffer.html" target="_top" xlink:title="Specialisation of HardwareVertexBuffer for OpenGL.">
<polygon fill="white" stroke="#666666" points="602,-174 465,-174 465,-144 602,-144 602,-174"/>
<text text-anchor="start" x="473" y="-162" font-family="Helvetica,sans-Serif" font-size="10.00">Ogre::v1::GL3PlusHardware</text>
<text text-anchor="middle" x="533.5" y="-151" font-family="Helvetica,sans-Serif" font-size="10.00">VertexBuffer</text>
</a>
</g>
</g>
<!-- Node43&#45;&gt;Node47 -->
<g id="edge45" class="edge">
<title>Node43&#45;&gt;Node47</title>
<path fill="none" stroke="#63b8ff" d="M412.84,-173.84C429.87,-171.73 447.9,-169.49 464.65,-167.42"/>
<polygon fill="#63b8ff" stroke="#63b8ff" points="412.82,-170.32 403.33,-175.02 413.68,-177.26 412.82,-170.32"/>
</g>
<!-- Node48 -->
<g id="node47" class="node">
<title>Node48</title>
<g id="a_node47"><a xlink:href="class_ogre_1_1v1_1_1_g_l_e_s2_default_hardware_vertex_buffer.html" target="_top" xlink:title="Specialisation of HardwareVertexBuffer for emulation.">
<polygon fill="white" stroke="#666666" points="614,-126 453,-126 453,-96 614,-96 614,-126"/>
<text text-anchor="start" x="461" y="-114" font-family="Helvetica,sans-Serif" font-size="10.00">Ogre::v1::GLES2DefaultHardware</text>
<text text-anchor="middle" x="533.5" y="-103" font-family="Helvetica,sans-Serif" font-size="10.00">VertexBuffer</text>
</a>
</g>
</g>
<!-- Node43&#45;&gt;Node48 -->
<g id="edge46" class="edge">
<title>Node43&#45;&gt;Node48</title>
<path fill="none" stroke="#63b8ff" d="M382.24,-163.05C402.83,-153.91 427.95,-143.3 451,-135 459.33,-132 468.23,-129.09 476.97,-126.39"/>
<polygon fill="#63b8ff" stroke="#63b8ff" points="380.99,-159.77 373.29,-167.05 383.85,-166.16 380.99,-159.77"/>
</g>
<!-- Node49 -->
<g id="node48" class="node">
<title>Node49</title>
<g id="a_node48"><a xlink:href="class_ogre_1_1v1_1_1_metal_hardware_vertex_buffer.html" target="_top" xlink:title="Specialisation of HardwareVertexBuffer for Metal.">
<polygon fill="white" stroke="#666666" points="609,-78 458,-78 458,-48 609,-48 609,-78"/>
<text text-anchor="start" x="466" y="-66" font-family="Helvetica,sans-Serif" font-size="10.00">Ogre::v1::MetalHardwareVertex</text>
<text text-anchor="middle" x="533.5" y="-55" font-family="Helvetica,sans-Serif" font-size="10.00">Buffer</text>
</a>
</g>
</g>
<!-- Node43&#45;&gt;Node49 -->
<g id="edge47" class="edge">
<title>Node43&#45;&gt;Node49</title>
<path fill="none" stroke="#63b8ff" d="M360.39,-159.7C381.49,-138 415.64,-106.21 451,-87 456.96,-83.76 463.41,-80.91 469.99,-78.42"/>
<polygon fill="#63b8ff" stroke="#63b8ff" points="358.12,-157.01 353.74,-166.66 363.18,-161.84 358.12,-157.01"/>
</g>
<!-- Node50 -->
<g id="node49" class="node">
<title>Node50</title>
<g id="a_node49"><a xlink:href="class_ogre_1_1v1_1_1_vulkan_hardware_vertex_buffer.html" target="_top" xlink:title=" ">
<polygon fill="white" stroke="#666666" points="598,-30 469,-30 469,0 598,0 598,-30"/>
<text text-anchor="start" x="477" y="-18" font-family="Helvetica,sans-Serif" font-size="10.00">Ogre::v1::VulkanHardware</text>
<text text-anchor="middle" x="533.5" y="-7" font-family="Helvetica,sans-Serif" font-size="10.00">VertexBuffer</text>
</a>
</g>
</g>
<!-- Node43&#45;&gt;Node50 -->
<g id="edge48" class="edge">
<title>Node43&#45;&gt;Node50</title>
<path fill="none" stroke="#63b8ff" d="M352,-157.86C369.96,-125.59 405.38,-70.08 451,-39 456.49,-35.26 462.56,-32.1 468.85,-29.42"/>
<polygon fill="#63b8ff" stroke="#63b8ff" points="349,-156.05 347.31,-166.51 355.15,-159.39 349,-156.05"/>
</g>
</g>
</svg>
