<?xml version="1.0" encoding="UTF-8" standalone="no"?>
<!DOCTYPE svg PUBLIC "-//W3C//DTD SVG 1.1//EN"
 "http://www.w3.org/Graphics/SVG/1.1/DTD/svg11.dtd">
<!-- Generated by graphviz version 9.0.0 (20230911.1827)
 -->
<!-- Title: Ogre::D3D11Window Pages: 1 -->
<svg width="249pt" height="204pt"
 viewBox="0.00 0.00 248.50 204.25" xmlns="http://www.w3.org/2000/svg" xmlns:xlink="http://www.w3.org/1999/xlink">
<g id="graph0" class="graph" transform="scale(1 1) rotate(0) translate(4 200.25)">
<title>Ogre::D3D11Window</title>
<!-- Node1 -->
<g id="Node000001" class="node">
<title>Node1</title>
<g id="a_Node000001"><a xlink:title=" ">
<polygon fill="#999999" stroke="#666666" points="158.12,-85.75 52.88,-85.75 52.88,-66.5 158.12,-66.5 158.12,-85.75"/>
<text text-anchor="middle" x="105.5" y="-72.25" font-family="Helvetica,sans-Serif" font-size="10.00">Ogre::D3D11Window</text>
</a>
</g>
</g>
<!-- Node5 -->
<g id="Node000005" class="node">
<title>Node5</title>
<g id="a_Node000005"><a xlink:href="class_ogre_1_1_d3_d11_window_swap_chain_based.html" target="_top" xlink:title=" ">
<polygon fill="white" stroke="#666666" points="182.88,-30.5 28.12,-30.5 28.12,0 182.88,0 182.88,-30.5"/>
<text text-anchor="start" x="36.12" y="-17" font-family="Helvetica,sans-Serif" font-size="10.00">Ogre::D3D11WindowSwapChain</text>
<text text-anchor="middle" x="105.5" y="-5.75" font-family="Helvetica,sans-Serif" font-size="10.00">Based</text>
</a>
</g>
</g>
<!-- Node1&#45;&gt;Node5 -->
<g id="edge4_Node000001_Node000005" class="edge">
<title>Node1&#45;&gt;Node5</title>
<g id="a_edge4_Node000001_Node000005"><a xlink:title=" ">
<path fill="none" stroke="#63b8ff" d="M105.5,-54.92C105.5,-46.99 105.5,-38.06 105.5,-30.78"/>
<polygon fill="#63b8ff" stroke="#63b8ff" points="102,-54.67 105.5,-64.67 109,-54.67 102,-54.67"/>
</a>
</g>
</g>
<!-- Node2 -->
<g id="Node000002" class="node">
<title>Node2</title>
<g id="a_Node000002"><a xlink:href="class_ogre_1_1_window.html" target="_top" xlink:title=" ">
<polygon fill="white" stroke="#666666" points="80.5,-141 4.5,-141 4.5,-121.75 80.5,-121.75 80.5,-141"/>
<text text-anchor="middle" x="42.5" y="-127.5" font-family="Helvetica,sans-Serif" font-size="10.00">Ogre::Window</text>
</a>
</g>
</g>
<!-- Node2&#45;&gt;Node1 -->
<g id="edge1_Node000001_Node000002" class="edge">
<title>Node2&#45;&gt;Node1</title>
<g id="a_edge1_Node000001_Node000002"><a xlink:title=" ">
<path fill="none" stroke="#63b8ff" d="M61.68,-114.16C72.62,-104.92 85.91,-93.68 94.97,-86.02"/>
<polygon fill="#63b8ff" stroke="#63b8ff" points="59.72,-111.24 54.34,-120.36 64.24,-116.58 59.72,-111.24"/>
</a>
</g>
</g>
<!-- Node3 -->
<g id="Node000003" class="node">
<title>Node3</title>
<g id="a_Node000003"><a xlink:href="class_ogre_1_1_allocated_object.html" target="_top" xlink:title="Superclass for all objects that wish to use custom memory allocators when their new / delete operator...">
<polygon fill="white" stroke="#666666" points="85,-196.25 0,-196.25 0,-177 85,-177 85,-196.25"/>
<text text-anchor="middle" x="42.5" y="-182.75" font-family="Helvetica,sans-Serif" font-size="10.00">RenderSysAlloc</text>
</a>
</g>
</g>
<!-- Node3&#45;&gt;Node2 -->
<g id="edge2_Node000002_Node000003" class="edge">
<title>Node3&#45;&gt;Node2</title>
<g id="a_edge2_Node000002_Node000003"><a xlink:title=" ">
<path fill="none" stroke="#63b8ff" d="M42.5,-165.38C42.5,-157.09 42.5,-147.92 42.5,-141.36"/>
<polygon fill="#63b8ff" stroke="#63b8ff" points="39,-165.32 42.5,-175.32 46,-165.32 39,-165.32"/>
</a>
</g>
</g>
<!-- Node4 -->
<g id="Node000004" class="node">
<title>Node4</title>
<g id="a_Node000004"><a xlink:href="class_ogre_1_1_d3_d11_device_resource.html" target="_top" xlink:title="Represents a Direct3D rendering resource.">
<polygon fill="white" stroke="#666666" points="240.5,-141 98.5,-141 98.5,-121.75 240.5,-121.75 240.5,-141"/>
<text text-anchor="middle" x="169.5" y="-127.5" font-family="Helvetica,sans-Serif" font-size="10.00">Ogre::D3D11DeviceResource</text>
</a>
</g>
</g>
<!-- Node4&#45;&gt;Node1 -->
<g id="edge3_Node000001_Node000004" class="edge">
<title>Node4&#45;&gt;Node1</title>
<g id="a_edge3_Node000001_Node000004"><a xlink:title=" ">
<path fill="none" stroke="#8b1a1a" d="M150.02,-114.16C138.9,-104.92 125.4,-93.68 116.2,-86.02"/>
<polygon fill="#8b1a1a" stroke="#8b1a1a" points="147.55,-116.67 157.48,-120.37 152.03,-111.29 147.55,-116.67"/>
</a>
</g>
</g>
</g>
</svg>
