<?xml version="1.0" encoding="UTF-8" standalone="no"?>
<!DOCTYPE svg PUBLIC "-//W3C//DTD SVG 1.1//EN"
 "http://www.w3.org/Graphics/SVG/1.1/DTD/svg11.dtd">
<!-- Generated by graphviz version 9.0.0 (20230911.1827)
 -->
<!-- Title: Ogre::VulkanSupport Pages: 1 -->
<svg width="436pt" height="83pt"
 viewBox="0.00 0.00 436.38 82.50" xmlns="http://www.w3.org/2000/svg" xmlns:xlink="http://www.w3.org/1999/xlink">
<g id="graph0" class="graph" transform="scale(1 1) rotate(0) translate(4 78.5)">
<title>Ogre::VulkanSupport</title>
<!-- Node1 -->
<g id="Node000001" class="node">
<title>Node1</title>
<g id="a_Node000001"><a xlink:title=" ">
<polygon fill="#999999" stroke="#666666" points="274.75,-74.5 169.5,-74.5 169.5,-55.25 274.75,-55.25 274.75,-74.5"/>
<text text-anchor="middle" x="222.12" y="-61" font-family="Helvetica,sans-Serif" font-size="10.00">Ogre::VulkanSupport</text>
</a>
</g>
</g>
<!-- Node2 -->
<g id="Node000002" class="node">
<title>Node2</title>
<g id="a_Node000002"><a xlink:href="class_ogre_1_1_vulkan_android_support.html" target="_top" xlink:title=" ">
<polygon fill="white" stroke="#666666" points="138.25,-19.25 0,-19.25 0,0 138.25,0 138.25,-19.25"/>
<text text-anchor="middle" x="69.12" y="-5.75" font-family="Helvetica,sans-Serif" font-size="10.00">Ogre::VulkanAndroidSupport</text>
</a>
</g>
</g>
<!-- Node1&#45;&gt;Node2 -->
<g id="edge1_Node000001_Node000002" class="edge">
<title>Node1&#45;&gt;Node2</title>
<g id="a_edge1_Node000001_Node000002"><a xlink:title=" ">
<path fill="none" stroke="#63b8ff" d="M185.65,-51.18C157.8,-41.49 120.09,-28.36 95.21,-19.7"/>
<polygon fill="#63b8ff" stroke="#63b8ff" points="184.15,-54.36 194.74,-54.34 186.45,-47.75 184.15,-54.36"/>
</a>
</g>
</g>
<!-- Node3 -->
<g id="Node000003" class="node">
<title>Node3</title>
<g id="a_Node000003"><a xlink:href="class_ogre_1_1_vulkan_win32_support.html" target="_top" xlink:title=" ">
<polygon fill="white" stroke="#666666" points="288.25,-19.25 156,-19.25 156,0 288.25,0 288.25,-19.25"/>
<text text-anchor="middle" x="222.12" y="-5.75" font-family="Helvetica,sans-Serif" font-size="10.00">Ogre::VulkanWin32Support</text>
</a>
</g>
</g>
<!-- Node1&#45;&gt;Node3 -->
<g id="edge2_Node000001_Node000003" class="edge">
<title>Node1&#45;&gt;Node3</title>
<g id="a_edge2_Node000001_Node000003"><a xlink:title=" ">
<path fill="none" stroke="#63b8ff" d="M222.12,-43.63C222.12,-35.34 222.12,-26.17 222.12,-19.61"/>
<polygon fill="#63b8ff" stroke="#63b8ff" points="218.63,-43.57 222.13,-53.57 225.63,-43.57 218.63,-43.57"/>
</a>
</g>
</g>
<!-- Node4 -->
<g id="Node000004" class="node">
<title>Node4</title>
<g id="a_Node000004"><a xlink:href="class_ogre_1_1_vulkan_xcb_support.html" target="_top" xlink:title=" ">
<polygon fill="white" stroke="#666666" points="428.38,-19.25 305.88,-19.25 305.88,0 428.38,0 428.38,-19.25"/>
<text text-anchor="middle" x="367.12" y="-5.75" font-family="Helvetica,sans-Serif" font-size="10.00">Ogre::VulkanXcbSupport</text>
</a>
</g>
</g>
<!-- Node1&#45;&gt;Node4 -->
<g id="edge3_Node000001_Node000004" class="edge">
<title>Node1&#45;&gt;Node4</title>
<g id="a_edge3_Node000001_Node000004"><a xlink:title=" ">
<path fill="none" stroke="#63b8ff" d="M257.39,-50.92C283.72,-41.25 319.04,-28.29 342.41,-19.7"/>
<polygon fill="#63b8ff" stroke="#63b8ff" points="256.32,-47.59 248.14,-54.32 258.74,-54.16 256.32,-47.59"/>
</a>
</g>
</g>
</g>
</svg>
