<?xml version="1.0" encoding="UTF-8" standalone="no"?>
<!DOCTYPE svg PUBLIC "-//W3C//DTD SVG 1.1//EN"
 "http://www.w3.org/Graphics/SVG/1.1/DTD/svg11.dtd">
<!-- Generated by graphviz version 9.0.0 (20230911.1827)
 -->
<!-- Title: Ogre::D3D11ReadOnlyBufferPacked Pages: 1 -->
<svg width="374pt" height="260pt"
 viewBox="0.00 0.00 374.00 259.50" xmlns="http://www.w3.org/2000/svg" xmlns:xlink="http://www.w3.org/1999/xlink">
<g id="graph0" class="graph" transform="scale(1 1) rotate(0) translate(4 255.5)">
<title>Ogre::D3D11ReadOnlyBufferPacked</title>
<!-- Node1 -->
<g id="Node000001" class="node">
<title>Node1</title>
<g id="a_Node000001"><a xlink:title=" ">
<polygon fill="#999999" stroke="#666666" points="284.12,-30.5 145.88,-30.5 145.88,0 284.12,0 284.12,-30.5"/>
<text text-anchor="start" x="153.88" y="-17" font-family="Helvetica,sans-Serif" font-size="10.00">Ogre::D3D11ReadOnlyBuffer</text>
<text text-anchor="middle" x="215" y="-5.75" font-family="Helvetica,sans-Serif" font-size="10.00">Packed</text>
</a>
</g>
</g>
<!-- Node2 -->
<g id="Node000002" class="node">
<title>Node2</title>
<g id="a_Node000002"><a xlink:href="class_ogre_1_1_read_only_buffer_packed.html" target="_top" xlink:title="Represents the best way to access read&#45;only data.">
<polygon fill="white" stroke="#666666" points="206,-85.75 64,-85.75 64,-66.5 206,-66.5 206,-85.75"/>
<text text-anchor="middle" x="135" y="-72.25" font-family="Helvetica,sans-Serif" font-size="10.00">Ogre::ReadOnlyBufferPacked</text>
</a>
</g>
</g>
<!-- Node2&#45;&gt;Node1 -->
<g id="edge1_Node000001_Node000002" class="edge">
<title>Node2&#45;&gt;Node1</title>
<g id="a_edge1_Node000001_Node000002"><a xlink:title=" ">
<path fill="none" stroke="#63b8ff" d="M156.11,-59.59C168.23,-50.67 183.37,-39.53 195.25,-30.78"/>
<polygon fill="#63b8ff" stroke="#63b8ff" points="154.35,-56.54 148.37,-65.29 158.5,-62.18 154.35,-56.54"/>
</a>
</g>
</g>
<!-- Node3 -->
<g id="Node000003" class="node">
<title>Node3</title>
<g id="a_Node000003"><a xlink:href="class_ogre_1_1_tex_buffer_packed.html" target="_top" xlink:title="Represents Texture buffers (also known as tbuffers in D3D11)">
<polygon fill="white" stroke="#666666" points="192.88,-141 77.12,-141 77.12,-121.75 192.88,-121.75 192.88,-141"/>
<text text-anchor="middle" x="135" y="-127.5" font-family="Helvetica,sans-Serif" font-size="10.00">Ogre::TexBufferPacked</text>
</a>
</g>
</g>
<!-- Node3&#45;&gt;Node2 -->
<g id="edge2_Node000002_Node000003" class="edge">
<title>Node3&#45;&gt;Node2</title>
<g id="a_edge2_Node000002_Node000003"><a xlink:title=" ">
<path fill="none" stroke="#63b8ff" d="M135,-110.13C135,-101.84 135,-92.67 135,-86.11"/>
<polygon fill="#63b8ff" stroke="#63b8ff" points="131.5,-110.07 135,-120.07 138.5,-110.07 131.5,-110.07"/>
</a>
</g>
</g>
<!-- Node4 -->
<g id="Node000004" class="node">
<title>Node4</title>
<g id="a_Node000004"><a xlink:href="class_ogre_1_1_buffer_packed.html" target="_top" xlink:title=" ">
<polygon fill="white" stroke="#666666" points="185,-196.25 85,-196.25 85,-177 185,-177 185,-196.25"/>
<text text-anchor="middle" x="135" y="-182.75" font-family="Helvetica,sans-Serif" font-size="10.00">Ogre::BufferPacked</text>
</a>
</g>
</g>
<!-- Node4&#45;&gt;Node3 -->
<g id="edge3_Node000003_Node000004" class="edge">
<title>Node4&#45;&gt;Node3</title>
<g id="a_edge3_Node000003_Node000004"><a xlink:title=" ">
<path fill="none" stroke="#63b8ff" d="M135,-165.38C135,-157.09 135,-147.92 135,-141.36"/>
<polygon fill="#63b8ff" stroke="#63b8ff" points="131.5,-165.32 135,-175.32 138.5,-165.32 131.5,-165.32"/>
</a>
</g>
</g>
<!-- Node5 -->
<g id="Node000005" class="node">
<title>Node5</title>
<g id="a_Node000005"><a xlink:href="struct_ogre_1_1_gpu_tracked_resource.html" target="_top" xlink:title=" ">
<polygon fill="white" stroke="#666666" points="136,-251.5 0,-251.5 0,-232.25 136,-232.25 136,-251.5"/>
<text text-anchor="middle" x="68" y="-238" font-family="Helvetica,sans-Serif" font-size="10.00">Ogre::GpuTrackedResource</text>
</a>
</g>
</g>
<!-- Node5&#45;&gt;Node4 -->
<g id="edge4_Node000004_Node000005" class="edge">
<title>Node5&#45;&gt;Node4</title>
<g id="a_edge4_Node000004_Node000005"><a xlink:title=" ">
<path fill="none" stroke="#63b8ff" d="M88.05,-224.94C99.75,-215.64 114.07,-204.26 123.8,-196.52"/>
<polygon fill="#63b8ff" stroke="#63b8ff" points="86.2,-221.94 80.55,-230.9 90.56,-227.42 86.2,-221.94"/>
</a>
</g>
</g>
<!-- Node6 -->
<g id="Node000006" class="node">
<title>Node6</title>
<g id="a_Node000006"><a xlink:href="class_ogre_1_1_allocated_object.html" target="_top" xlink:title="Superclass for all objects that wish to use custom memory allocators when their new / delete operator...">
<polygon fill="white" stroke="#666666" points="250.12,-251.5 153.88,-251.5 153.88,-232.25 250.12,-232.25 250.12,-251.5"/>
<text text-anchor="middle" x="202" y="-238" font-family="Helvetica,sans-Serif" font-size="10.00">BufferPackedAlloc</text>
</a>
</g>
</g>
<!-- Node6&#45;&gt;Node4 -->
<g id="edge5_Node000004_Node000006" class="edge">
<title>Node6&#45;&gt;Node4</title>
<g id="a_edge5_Node000004_Node000006"><a xlink:title=" ">
<path fill="none" stroke="#63b8ff" d="M181.95,-224.94C170.25,-215.64 155.93,-204.26 146.2,-196.52"/>
<polygon fill="#63b8ff" stroke="#63b8ff" points="179.44,-227.42 189.45,-230.9 183.8,-221.94 179.44,-227.42"/>
</a>
</g>
</g>
<!-- Node7 -->
<g id="Node000007" class="node">
<title>Node7</title>
<g id="a_Node000007"><a xlink:href="class_ogre_1_1_d3_d11_device_resource.html" target="_top" xlink:title="Represents a Direct3D rendering resource.">
<polygon fill="white" stroke="#666666" points="366,-85.75 224,-85.75 224,-66.5 366,-66.5 366,-85.75"/>
<text text-anchor="middle" x="295" y="-72.25" font-family="Helvetica,sans-Serif" font-size="10.00">Ogre::D3D11DeviceResource</text>
</a>
</g>
</g>
<!-- Node7&#45;&gt;Node1 -->
<g id="edge6_Node000001_Node000007" class="edge">
<title>Node7&#45;&gt;Node1</title>
<g id="a_edge6_Node000001_Node000007"><a xlink:title=" ">
<path fill="none" stroke="#8b1a1a" d="M273.89,-59.59C261.77,-50.67 246.63,-39.53 234.75,-30.78"/>
<polygon fill="#8b1a1a" stroke="#8b1a1a" points="271.5,-62.18 281.63,-65.29 275.65,-56.54 271.5,-62.18"/>
</a>
</g>
</g>
</g>
</svg>
