<?xml version="1.0" encoding="UTF-8" standalone="no"?>
<!DOCTYPE svg PUBLIC "-//W3C//DTD SVG 1.1//EN"
 "http://www.w3.org/Graphics/SVG/1.1/DTD/svg11.dtd">
<!-- Generated by graphviz version 3.0.0 (20220413.0242)
 -->
<!-- Title: Ogre::Window Pages: 1 -->
<svg width="733pt" height="366pt"
 viewBox="0.00 0.00 733.00 365.50" xmlns="http://www.w3.org/2000/svg" xmlns:xlink="http://www.w3.org/1999/xlink">
<g id="graph0" class="graph" transform="scale(1 1) rotate(0) translate(4 361.5)">
<title>Ogre::Window</title>
<!-- Node1 -->
<g id="node1" class="node">
<title>Node1</title>
<g id="a_node1"><a xlink:title=" ">
<polygon fill="#bfbfbf" stroke="black" points="122,-174.5 122,-193.5 199,-193.5 199,-174.5 122,-174.5"/>
<text text-anchor="middle" x="160.5" y="-181.5" font-family="Helvetica,sans-Serif" font-size="10.00">Ogre::Window</text>
</a>
</g>
</g>
<!-- Node3 -->
<g id="node3" class="node">
<title>Node3</title>
<g id="a_node3"><a xlink:href="class_ogre_1_1_cocoa_window.html" target="_top" xlink:title=" ">
<polygon fill="none" stroke="black" points="244,-326.5 244,-345.5 348,-345.5 348,-326.5 244,-326.5"/>
<text text-anchor="middle" x="296" y="-333.5" font-family="Helvetica,sans-Serif" font-size="10.00">Ogre::CocoaWindow</text>
</a>
</g>
</g>
<!-- Node1&#45;&gt;Node3 -->
<g id="edge2" class="edge">
<title>Node1&#45;&gt;Node3</title>
<path fill="none" stroke="midnightblue" d="M167.1,-203.39C176.43,-232.32 197.9,-286.61 235,-317 239.73,-320.88 245.27,-323.97 251.02,-326.43"/>
<polygon fill="midnightblue" stroke="midnightblue" points="170.39,-202.19 164.11,-193.65 163.7,-204.24 170.39,-202.19"/>
</g>
<!-- Node4 -->
<g id="node4" class="node">
<title>Node4</title>
<g id="a_node4"><a xlink:href="class_ogre_1_1_d3_d11_window.html" target="_top" xlink:title=" ">
<polygon fill="none" stroke="black" points="243,-288.5 243,-307.5 349,-307.5 349,-288.5 243,-288.5"/>
<text text-anchor="middle" x="296" y="-295.5" font-family="Helvetica,sans-Serif" font-size="10.00">Ogre::D3D11Window</text>
</a>
</g>
</g>
<!-- Node1&#45;&gt;Node4 -->
<g id="edge3" class="edge">
<title>Node1&#45;&gt;Node4</title>
<path fill="none" stroke="midnightblue" d="M171.16,-202.43C183.3,-223.84 206.09,-258.81 235,-279 240.55,-282.88 246.94,-285.99 253.42,-288.48"/>
<polygon fill="midnightblue" stroke="midnightblue" points="174.23,-200.74 166.35,-193.65 168.09,-204.1 174.23,-200.74"/>
</g>
<!-- Node6 -->
<g id="node6" class="node">
<title>Node6</title>
<g id="a_node6"><a xlink:href="class_ogre_1_1_e_g_l_window.html" target="_top" xlink:title=" ">
<polygon fill="none" stroke="black" points="248,-250.5 248,-269.5 344,-269.5 344,-250.5 248,-250.5"/>
<text text-anchor="middle" x="296" y="-257.5" font-family="Helvetica,sans-Serif" font-size="10.00">Ogre::EGLWindow</text>
</a>
</g>
</g>
<!-- Node1&#45;&gt;Node6 -->
<g id="edge5" class="edge">
<title>Node1&#45;&gt;Node6</title>
<path fill="none" stroke="midnightblue" d="M179.14,-200.6C193.31,-213.18 214.2,-230.09 235,-241 242.06,-244.71 249.98,-247.84 257.68,-250.43"/>
<polygon fill="midnightblue" stroke="midnightblue" points="181.39,-197.91 171.63,-193.78 176.68,-203.09 181.39,-197.91"/>
</g>
<!-- Node11 -->
<g id="node11" class="node">
<title>Node11</title>
<g id="a_node11"><a xlink:href="class_ogre_1_1_egl_p_buffer_window.html" target="_top" xlink:title="PBuffer implementation of EGL When supported, PBuffer is a surface&#45;less implementation of OpenGL.">
<polygon fill="none" stroke="black" points="235,-212.5 235,-231.5 357,-231.5 357,-212.5 235,-212.5"/>
<text text-anchor="middle" x="296" y="-219.5" font-family="Helvetica,sans-Serif" font-size="10.00">Ogre::EglPBufferWindow</text>
</a>
</g>
</g>
<!-- Node1&#45;&gt;Node11 -->
<g id="edge10" class="edge">
<title>Node1&#45;&gt;Node11</title>
<path fill="none" stroke="midnightblue" d="M205.03,-196.39C223.31,-201.59 244.25,-207.55 261.32,-212.41"/>
<polygon fill="midnightblue" stroke="midnightblue" points="205.76,-192.96 195.19,-193.59 203.85,-199.69 205.76,-192.96"/>
</g>
<!-- Node12 -->
<g id="node12" class="node">
<title>Node12</title>
<g id="a_node12"><a xlink:href="class_ogre_1_1_g_l_x_window.html" target="_top" xlink:title=" ">
<polygon fill="none" stroke="black" points="247.5,-174.5 247.5,-193.5 344.5,-193.5 344.5,-174.5 247.5,-174.5"/>
<text text-anchor="middle" x="296" y="-181.5" font-family="Helvetica,sans-Serif" font-size="10.00">Ogre::GLXWindow</text>
</a>
</g>
</g>
<!-- Node1&#45;&gt;Node12 -->
<g id="edge11" class="edge">
<title>Node1&#45;&gt;Node12</title>
<path fill="none" stroke="midnightblue" d="M209.17,-184C221.54,-184 234.87,-184 247.25,-184"/>
<polygon fill="midnightblue" stroke="midnightblue" points="209.04,-180.5 199.04,-184 209.04,-187.5 209.04,-180.5"/>
</g>
<!-- Node13 -->
<g id="node13" class="node">
<title>Node13</title>
<g id="a_node13"><a xlink:href="class_ogre_1_1_metal_window.html" target="_top" xlink:title=" ">
<polygon fill="none" stroke="black" points="245.5,-136.5 245.5,-155.5 346.5,-155.5 346.5,-136.5 245.5,-136.5"/>
<text text-anchor="middle" x="296" y="-143.5" font-family="Helvetica,sans-Serif" font-size="10.00">Ogre::MetalWindow</text>
</a>
</g>
</g>
<!-- Node1&#45;&gt;Node13 -->
<g id="edge12" class="edge">
<title>Node1&#45;&gt;Node13</title>
<path fill="none" stroke="midnightblue" d="M205.03,-171.61C223.31,-166.41 244.25,-160.45 261.32,-155.59"/>
<polygon fill="midnightblue" stroke="midnightblue" points="203.85,-168.31 195.19,-174.41 205.76,-175.04 203.85,-168.31"/>
</g>
<!-- Node14 -->
<g id="node14" class="node">
<title>Node14</title>
<g id="a_node14"><a xlink:href="class_ogre_1_1_n_u_l_l_window.html" target="_top" xlink:title=" ">
<polygon fill="none" stroke="black" points="244,-98.5 244,-117.5 348,-117.5 348,-98.5 244,-98.5"/>
<text text-anchor="middle" x="296" y="-105.5" font-family="Helvetica,sans-Serif" font-size="10.00">Ogre::NULLWindow</text>
</a>
</g>
</g>
<!-- Node1&#45;&gt;Node14 -->
<g id="edge13" class="edge">
<title>Node1&#45;&gt;Node14</title>
<path fill="none" stroke="midnightblue" d="M179.14,-167.4C193.31,-154.82 214.2,-137.91 235,-127 242.06,-123.29 249.98,-120.16 257.68,-117.57"/>
<polygon fill="midnightblue" stroke="midnightblue" points="176.68,-164.91 171.63,-174.22 181.39,-170.09 176.68,-164.91"/>
</g>
<!-- Node15 -->
<g id="node15" class="node">
<title>Node15</title>
<g id="a_node15"><a xlink:href="class_ogre_1_1_vulkan_window.html" target="_top" xlink:title=" ">
<polygon fill="none" stroke="black" points="242.5,-60.5 242.5,-79.5 349.5,-79.5 349.5,-60.5 242.5,-60.5"/>
<text text-anchor="middle" x="296" y="-67.5" font-family="Helvetica,sans-Serif" font-size="10.00">Ogre::VulkanWindow</text>
</a>
</g>
</g>
<!-- Node1&#45;&gt;Node15 -->
<g id="edge14" class="edge">
<title>Node1&#45;&gt;Node15</title>
<path fill="none" stroke="midnightblue" d="M171.16,-165.57C183.3,-144.16 206.09,-109.19 235,-89 240.55,-85.12 246.94,-82.01 253.42,-79.52"/>
<polygon fill="midnightblue" stroke="midnightblue" points="168.09,-163.9 166.35,-174.35 174.23,-167.26 168.09,-163.9"/>
</g>
<!-- Node21 -->
<g id="node21" class="node">
<title>Node21</title>
<g id="a_node21"><a xlink:href="class_ogre_1_1_win32_window.html" target="_top" xlink:title=" ">
<polygon fill="none" stroke="black" points="244,-22.5 244,-41.5 348,-41.5 348,-22.5 244,-22.5"/>
<text text-anchor="middle" x="296" y="-29.5" font-family="Helvetica,sans-Serif" font-size="10.00">Ogre::Win32Window</text>
</a>
</g>
</g>
<!-- Node1&#45;&gt;Node21 -->
<g id="edge20" class="edge">
<title>Node1&#45;&gt;Node21</title>
<path fill="none" stroke="midnightblue" d="M167.1,-164.61C176.43,-135.68 197.9,-81.39 235,-51 239.73,-47.12 245.27,-44.03 251.02,-41.57"/>
<polygon fill="midnightblue" stroke="midnightblue" points="163.7,-163.76 164.11,-174.35 170.39,-165.81 163.7,-163.76"/>
</g>
<!-- Node2 -->
<g id="node2" class="node">
<title>Node2</title>
<g id="a_node2"><a xlink:href="class_ogre_1_1_allocated_object.html" target="_top" xlink:title="Superclass for all objects that wish to use custom memory allocators when their new / delete operator...">
<polygon fill="none" stroke="black" points="0,-174.5 0,-193.5 86,-193.5 86,-174.5 0,-174.5"/>
<text text-anchor="middle" x="43" y="-181.5" font-family="Helvetica,sans-Serif" font-size="10.00">RenderSysAlloc</text>
</a>
</g>
</g>
<!-- Node2&#45;&gt;Node1 -->
<g id="edge1" class="edge">
<title>Node2&#45;&gt;Node1</title>
<path fill="none" stroke="midnightblue" d="M96.1,-184C104.8,-184 113.67,-184 121.91,-184"/>
<polygon fill="midnightblue" stroke="midnightblue" points="96.02,-180.5 86.02,-184 96.02,-187.5 96.02,-180.5"/>
</g>
<!-- Node5 -->
<g id="node5" class="node">
<title>Node5</title>
<g id="a_node5"><a xlink:href="class_ogre_1_1_d3_d11_window_swap_chain_based.html" target="_top" xlink:title=" ">
<polygon fill="none" stroke="black" points="393.5,-327 393.5,-357 548.5,-357 548.5,-327 393.5,-327"/>
<text text-anchor="start" x="401.5" y="-345" font-family="Helvetica,sans-Serif" font-size="10.00">Ogre::D3D11WindowSwapChain</text>
<text text-anchor="middle" x="471" y="-334" font-family="Helvetica,sans-Serif" font-size="10.00">Based</text>
</a>
</g>
</g>
<!-- Node4&#45;&gt;Node5 -->
<g id="edge4" class="edge">
<title>Node4&#45;&gt;Node5</title>
<path fill="none" stroke="midnightblue" d="M344.28,-310.03C364.81,-315.25 389.06,-321.41 410.77,-326.93"/>
<polygon fill="midnightblue" stroke="midnightblue" points="345.09,-306.62 334.54,-307.55 343.37,-313.4 345.09,-306.62"/>
</g>
<!-- Node7 -->
<g id="node7" class="node">
<title>Node7</title>
<g id="a_node7"><a xlink:href="class_ogre_1_1_android_e_g_l_window.html" target="_top" xlink:title=" ">
<polygon fill="none" stroke="black" points="406.5,-288.5 406.5,-307.5 535.5,-307.5 535.5,-288.5 406.5,-288.5"/>
<text text-anchor="middle" x="471" y="-295.5" font-family="Helvetica,sans-Serif" font-size="10.00">Ogre::AndroidEGLWindow</text>
</a>
</g>
</g>
<!-- Node6&#45;&gt;Node7 -->
<g id="edge6" class="edge">
<title>Node6&#45;&gt;Node7</title>
<path fill="none" stroke="midnightblue" d="M350.51,-271.75C374.97,-277.13 403.57,-283.41 426.66,-288.48"/>
<polygon fill="midnightblue" stroke="midnightblue" points="351.17,-268.32 340.66,-269.59 349.67,-275.15 351.17,-268.32"/>
</g>
<!-- Node8 -->
<g id="node8" class="node">
<title>Node8</title>
<g id="a_node8"><a xlink:href="class_ogre_1_1_emscripten_e_g_l_window.html" target="_top" xlink:title=" ">
<polygon fill="none" stroke="black" points="398.5,-250.5 398.5,-269.5 543.5,-269.5 543.5,-250.5 398.5,-250.5"/>
<text text-anchor="middle" x="471" y="-257.5" font-family="Helvetica,sans-Serif" font-size="10.00">Ogre::EmscriptenEGLWindow</text>
</a>
</g>
</g>
<!-- Node6&#45;&gt;Node8 -->
<g id="edge7" class="edge">
<title>Node6&#45;&gt;Node8</title>
<path fill="none" stroke="midnightblue" d="M354.32,-260C368.44,-260 383.73,-260 398.43,-260"/>
<polygon fill="midnightblue" stroke="midnightblue" points="354.27,-256.5 344.27,-260 354.27,-263.5 354.27,-256.5"/>
</g>
<!-- Node9 -->
<g id="node9" class="node">
<title>Node9</title>
<g id="a_node9"><a xlink:href="class_ogre_1_1_win32_e_g_l_window.html" target="_top" xlink:title=" ">
<polygon fill="none" stroke="black" points="409.5,-212.5 409.5,-231.5 532.5,-231.5 532.5,-212.5 409.5,-212.5"/>
<text text-anchor="middle" x="471" y="-219.5" font-family="Helvetica,sans-Serif" font-size="10.00">Ogre::Win32EGLWindow</text>
</a>
</g>
</g>
<!-- Node6&#45;&gt;Node9 -->
<g id="edge8" class="edge">
<title>Node6&#45;&gt;Node9</title>
<path fill="none" stroke="midnightblue" d="M350.51,-248.25C374.97,-242.87 403.57,-236.59 426.66,-231.52"/>
<polygon fill="midnightblue" stroke="midnightblue" points="349.67,-244.85 340.66,-250.41 351.17,-251.68 349.67,-244.85"/>
</g>
<!-- Node10 -->
<g id="node10" class="node">
<title>Node10</title>
<g id="a_node10"><a xlink:href="class_ogre_1_1_x11_e_g_l_window.html" target="_top" xlink:title=" ">
<polygon fill="none" stroke="black" points="414.5,-174.5 414.5,-193.5 527.5,-193.5 527.5,-174.5 414.5,-174.5"/>
<text text-anchor="middle" x="471" y="-181.5" font-family="Helvetica,sans-Serif" font-size="10.00">Ogre::X11EGLWindow</text>
</a>
</g>
</g>
<!-- Node6&#45;&gt;Node10 -->
<g id="edge9" class="edge">
<title>Node6&#45;&gt;Node10</title>
<path fill="none" stroke="midnightblue" d="M346.36,-246.66C350.07,-244.97 353.66,-243.09 357,-241 376.72,-228.65 372.89,-214.7 393,-203 399.66,-199.12 407.1,-196.03 414.64,-193.57"/>
<polygon fill="midnightblue" stroke="midnightblue" points="344.94,-243.46 336.99,-250.46 347.57,-249.94 344.94,-243.46"/>
</g>
<!-- Node16 -->
<g id="node16" class="node">
<title>Node16</title>
<g id="a_node16"><a xlink:href="class_ogre_1_1_vulkan_window_null.html" target="_top" xlink:title=" ">
<polygon fill="none" stroke="black" points="409,-82.5 409,-101.5 533,-101.5 533,-82.5 409,-82.5"/>
<text text-anchor="middle" x="471" y="-89.5" font-family="Helvetica,sans-Serif" font-size="10.00">Ogre::VulkanWindowNull</text>
</a>
</g>
</g>
<!-- Node15&#45;&gt;Node16 -->
<g id="edge15" class="edge">
<title>Node15&#45;&gt;Node16</title>
<path fill="none" stroke="midnightblue" d="M360.13,-78.03C376.07,-80.06 393.16,-82.23 408.99,-84.24"/>
<polygon fill="midnightblue" stroke="midnightblue" points="360.21,-74.51 349.85,-76.72 359.32,-81.45 360.21,-74.51"/>
</g>
<!-- Node17 -->
<g id="node17" class="node">
<title>Node17</title>
<g id="a_node17"><a xlink:href="class_ogre_1_1_vulkan_window_swap_chain_based.html" target="_top" xlink:title=" ">
<polygon fill="none" stroke="black" points="393,-33 393,-63 549,-63 549,-33 393,-33"/>
<text text-anchor="start" x="401" y="-51" font-family="Helvetica,sans-Serif" font-size="10.00">Ogre::VulkanWindowSwapChain</text>
<text text-anchor="middle" x="471" y="-40" font-family="Helvetica,sans-Serif" font-size="10.00">Based</text>
</a>
</g>
</g>
<!-- Node15&#45;&gt;Node17 -->
<g id="edge16" class="edge">
<title>Node15&#45;&gt;Node17</title>
<path fill="none" stroke="midnightblue" d="M359.94,-62C370.67,-60.63 381.92,-59.2 392.96,-57.8"/>
<polygon fill="midnightblue" stroke="midnightblue" points="359.32,-58.55 349.85,-63.28 360.21,-65.49 359.32,-58.55"/>
</g>
<!-- Node18 -->
<g id="node18" class="node">
<title>Node18</title>
<g id="a_node18"><a xlink:href="class_ogre_1_1_vulkan_android_window.html" target="_top" xlink:title=" ">
<polygon fill="none" stroke="black" points="585,-76.5 585,-95.5 725,-95.5 725,-76.5 585,-76.5"/>
<text text-anchor="middle" x="655" y="-83.5" font-family="Helvetica,sans-Serif" font-size="10.00">Ogre::VulkanAndroidWindow</text>
</a>
</g>
</g>
<!-- Node17&#45;&gt;Node18 -->
<g id="edge17" class="edge">
<title>Node17&#45;&gt;Node18</title>
<path fill="none" stroke="midnightblue" d="M553.96,-65.11C572.7,-69.02 591.95,-73.04 608.5,-76.5"/>
<polygon fill="midnightblue" stroke="midnightblue" points="554.44,-61.64 543.93,-63.02 553,-68.49 554.44,-61.64"/>
</g>
<!-- Node19 -->
<g id="node19" class="node">
<title>Node19</title>
<g id="a_node19"><a xlink:href="class_ogre_1_1_vulkan_win32_window.html" target="_top" xlink:title=" ">
<polygon fill="none" stroke="black" points="588,-38.5 588,-57.5 722,-57.5 722,-38.5 588,-38.5"/>
<text text-anchor="middle" x="655" y="-45.5" font-family="Helvetica,sans-Serif" font-size="10.00">Ogre::VulkanWin32Window</text>
</a>
</g>
</g>
<!-- Node17&#45;&gt;Node19 -->
<g id="edge18" class="edge">
<title>Node17&#45;&gt;Node19</title>
<path fill="none" stroke="midnightblue" d="M559.21,-48C568.86,-48 578.58,-48 587.91,-48"/>
<polygon fill="midnightblue" stroke="midnightblue" points="559.18,-44.5 549.18,-48 559.18,-51.5 559.18,-44.5"/>
</g>
<!-- Node20 -->
<g id="node20" class="node">
<title>Node20</title>
<g id="a_node20"><a xlink:href="class_ogre_1_1_vulkan_xcb_window.html" target="_top" xlink:title=" ">
<polygon fill="none" stroke="black" points="593,-0.5 593,-19.5 717,-19.5 717,-0.5 593,-0.5"/>
<text text-anchor="middle" x="655" y="-7.5" font-family="Helvetica,sans-Serif" font-size="10.00">Ogre::VulkanXcbWindow</text>
</a>
</g>
</g>
<!-- Node17&#45;&gt;Node20 -->
<g id="edge19" class="edge">
<title>Node17&#45;&gt;Node20</title>
<path fill="none" stroke="midnightblue" d="M553.96,-30.89C572.7,-26.98 591.95,-22.96 608.5,-19.5"/>
<polygon fill="midnightblue" stroke="midnightblue" points="553,-27.51 543.93,-32.98 554.44,-34.36 553,-27.51"/>
</g>
</g>
</svg>
