<?xml version="1.0" encoding="UTF-8" standalone="no"?>
<!DOCTYPE svg PUBLIC "-//W3C//DTD SVG 1.1//EN"
 "http://www.w3.org/Graphics/SVG/1.1/DTD/svg11.dtd">
<!-- Generated by graphviz version 7.0.5 (20221223.1930)
 -->
<!-- Title: Ogre::CompositorPass Pages: 1 -->
<svg width="461pt" height="409pt"
 viewBox="0.00 0.00 461.00 409.00" xmlns="http://www.w3.org/2000/svg" xmlns:xlink="http://www.w3.org/1999/xlink">
<g id="graph0" class="graph" transform="scale(1 1) rotate(0) translate(4 405)">
<title>Ogre::CompositorPass</title>
<!-- Node1 -->
<g id="node1" class="node">
<title>Node1</title>
<g id="a_node1"><a xlink:title="Abstract class for compositor passes.">
<polygon fill="#999999" stroke="#666666" points="254,-216 140,-216 140,-197 254,-197 254,-216"/>
<text text-anchor="middle" x="197" y="-204" font-family="Helvetica,sans-Serif" font-size="10.00">Ogre::CompositorPass</text>
</a>
</g>
</g>
<!-- Node3 -->
<g id="node3" class="node">
<title>Node3</title>
<g id="a_node3"><a xlink:href="class_ogre_1_1_compositor_pass_clear.html" target="_top" xlink:title="Implementation of CompositorPass This implementation will clear the RenderTarget using the parameters...">
<polygon fill="white" stroke="#666666" points="440,-401 303,-401 303,-382 440,-382 440,-401"/>
<text text-anchor="middle" x="371.5" y="-389" font-family="Helvetica,sans-Serif" font-size="10.00">Ogre::CompositorPassClear</text>
</a>
</g>
</g>
<!-- Node1&#45;&gt;Node3 -->
<g id="edge2" class="edge">
<title>Node1&#45;&gt;Node3</title>
<path fill="none" stroke="#63b8ff" d="M203.36,-227.26C213.73,-263.02 240.02,-336.01 290,-373.5 294.24,-376.68 298.93,-379.32 303.86,-381.5"/>
<polygon fill="#63b8ff" stroke="#63b8ff" points="206.77,-226.46 200.75,-217.74 200.02,-228.31 206.77,-226.46"/>
</g>
<!-- Node4 -->
<g id="node4" class="node">
<title>Node4</title>
<g id="a_node4"><a xlink:href="class_ogre_1_1_compositor_pass_compute.html" target="_top" xlink:title="Implementation of CompositorPass This implementation will render a fullscreen triangle/quad to the Re...">
<polygon fill="white" stroke="#666666" points="448,-364 295,-364 295,-345 448,-345 448,-364"/>
<text text-anchor="middle" x="371.5" y="-352" font-family="Helvetica,sans-Serif" font-size="10.00">Ogre::CompositorPassCompute</text>
</a>
</g>
</g>
<!-- Node1&#45;&gt;Node4 -->
<g id="edge3" class="edge">
<title>Node1&#45;&gt;Node4</title>
<path fill="none" stroke="#63b8ff" d="M206.52,-226.69C219.86,-255.75 248.53,-308.89 290,-336.5 294.89,-339.75 300.27,-342.43 305.87,-344.62"/>
<polygon fill="#63b8ff" stroke="#63b8ff" points="209.73,-225.3 202.49,-217.57 203.33,-228.13 209.73,-225.3"/>
</g>
<!-- Node5 -->
<g id="node5" class="node">
<title>Node5</title>
<g id="a_node5"><a xlink:href="class_ogre_1_1_compositor_pass_depth_copy.html" target="_top" xlink:title="Implementation of CompositorPass This implementation will copy one DepthBuffer to another DepthBuffer...">
<polygon fill="white" stroke="#666666" points="452,-327 291,-327 291,-308 452,-308 452,-327"/>
<text text-anchor="middle" x="371.5" y="-315" font-family="Helvetica,sans-Serif" font-size="10.00">Ogre::CompositorPassDepthCopy</text>
</a>
</g>
</g>
<!-- Node1&#45;&gt;Node5 -->
<g id="edge4" class="edge">
<title>Node1&#45;&gt;Node5</title>
<path fill="none" stroke="#63b8ff" d="M211.46,-225.56C227.61,-246.96 256.72,-281.08 290,-299.5 295.89,-302.76 302.33,-305.43 308.92,-307.61"/>
<polygon fill="#63b8ff" stroke="#63b8ff" points="214.42,-223.69 205.69,-217.69 208.77,-227.82 214.42,-223.69"/>
</g>
<!-- Node6 -->
<g id="node6" class="node">
<title>Node6</title>
<g id="a_node6"><a xlink:href="class_ogre_1_1_compositor_pass_ibl_specular.html" target="_top" xlink:title="Implementation of CompositorPass This implementation will generate IblSpeculars for the specified tex...">
<polygon fill="white" stroke="#666666" points="453,-290 290,-290 290,-271 453,-271 453,-290"/>
<text text-anchor="middle" x="371.5" y="-278" font-family="Helvetica,sans-Serif" font-size="10.00">Ogre::CompositorPassIblSpecular</text>
</a>
</g>
</g>
<!-- Node1&#45;&gt;Node6 -->
<g id="edge5" class="edge">
<title>Node1&#45;&gt;Node6</title>
<path fill="none" stroke="#63b8ff" d="M220.29,-222.94C238.27,-235.48 264.66,-252.28 290,-262.5 297.84,-265.66 306.34,-268.32 314.78,-270.54"/>
<polygon fill="#63b8ff" stroke="#63b8ff" points="222.39,-220.14 212.22,-217.19 218.33,-225.84 222.39,-220.14"/>
</g>
<!-- Node7 -->
<g id="node7" class="node">
<title>Node7</title>
<g id="a_node7"><a xlink:href="class_ogre_1_1_compositor_pass_mipmap.html" target="_top" xlink:title="Implementation of CompositorPass This implementation will generate mipmaps for the specified texture.">
<polygon fill="white" stroke="#666666" points="446,-253 297,-253 297,-234 446,-234 446,-253"/>
<text text-anchor="middle" x="371.5" y="-241" font-family="Helvetica,sans-Serif" font-size="10.00">Ogre::CompositorPassMipmap</text>
</a>
</g>
</g>
<!-- Node1&#45;&gt;Node7 -->
<g id="edge6" class="edge">
<title>Node1&#45;&gt;Node7</title>
<path fill="none" stroke="#63b8ff" d="M255.28,-218.79C277.65,-223.58 302.96,-229.01 324.15,-233.56"/>
<polygon fill="#63b8ff" stroke="#63b8ff" points="256.22,-215.41 245.71,-216.73 254.75,-222.25 256.22,-215.41"/>
</g>
<!-- Node8 -->
<g id="node8" class="node">
<title>Node8</title>
<g id="a_node8"><a xlink:href="class_ogre_1_1_compositor_pass_quad.html" target="_top" xlink:title="Implementation of CompositorPass This implementation will render a fullscreen triangle/quad to the Re...">
<polygon fill="white" stroke="#666666" points="440,-216 303,-216 303,-197 440,-197 440,-216"/>
<text text-anchor="middle" x="371.5" y="-204" font-family="Helvetica,sans-Serif" font-size="10.00">Ogre::CompositorPassQuad</text>
</a>
</g>
</g>
<!-- Node1&#45;&gt;Node8 -->
<g id="edge7" class="edge">
<title>Node1&#45;&gt;Node8</title>
<path fill="none" stroke="#63b8ff" d="M265.91,-206.5C278.03,-206.5 290.66,-206.5 302.77,-206.5"/>
<polygon fill="#63b8ff" stroke="#63b8ff" points="266,-203 256,-206.5 266,-210 266,-203"/>
</g>
<!-- Node9 -->
<g id="node9" class="node">
<title>Node9</title>
<g id="a_node9"><a xlink:href="class_ogre_1_1_compositor_pass_scene.html" target="_top" xlink:title="Implementation of CompositorPass This implementation will perform main rendering, selecting several p...">
<polygon fill="white" stroke="#666666" points="442.5,-179 300.5,-179 300.5,-160 442.5,-160 442.5,-179"/>
<text text-anchor="middle" x="371.5" y="-167" font-family="Helvetica,sans-Serif" font-size="10.00">Ogre::CompositorPassScene</text>
</a>
</g>
</g>
<!-- Node1&#45;&gt;Node9 -->
<g id="edge8" class="edge">
<title>Node1&#45;&gt;Node9</title>
<path fill="none" stroke="#63b8ff" d="M255.28,-194.21C277.65,-189.42 302.96,-183.99 324.15,-179.44"/>
<polygon fill="#63b8ff" stroke="#63b8ff" points="254.75,-190.75 245.71,-196.27 256.22,-197.59 254.75,-190.75"/>
</g>
<!-- Node10 -->
<g id="node10" class="node">
<title>Node10</title>
<g id="a_node10"><a xlink:href="class_ogre_1_1_compositor_pass_shadows.html" target="_top" xlink:title="CompositorPassShadows This class enables force&#45;updating multiple shadow nodes in batch in its own pas...">
<polygon fill="white" stroke="#666666" points="449,-142 294,-142 294,-123 449,-123 449,-142"/>
<text text-anchor="middle" x="371.5" y="-130" font-family="Helvetica,sans-Serif" font-size="10.00">Ogre::CompositorPassShadows</text>
</a>
</g>
</g>
<!-- Node1&#45;&gt;Node10 -->
<g id="edge9" class="edge">
<title>Node1&#45;&gt;Node10</title>
<path fill="none" stroke="#63b8ff" d="M220.29,-190.06C238.27,-177.52 264.66,-160.72 290,-150.5 297.84,-147.34 306.34,-144.68 314.78,-142.46"/>
<polygon fill="#63b8ff" stroke="#63b8ff" points="218.33,-187.16 212.22,-195.81 222.39,-192.86 218.33,-187.16"/>
</g>
<!-- Node11 -->
<g id="node11" class="node">
<title>Node11</title>
<g id="a_node11"><a xlink:href="class_ogre_1_1_compositor_pass_stencil.html" target="_top" xlink:title="Implementation of CompositorPass This implementation will clear the RenderTarget using the parameters...">
<polygon fill="white" stroke="#666666" points="443.5,-105 299.5,-105 299.5,-86 443.5,-86 443.5,-105"/>
<text text-anchor="middle" x="371.5" y="-93" font-family="Helvetica,sans-Serif" font-size="10.00">Ogre::CompositorPassStencil</text>
</a>
</g>
</g>
<!-- Node1&#45;&gt;Node11 -->
<g id="edge10" class="edge">
<title>Node1&#45;&gt;Node11</title>
<path fill="none" stroke="#63b8ff" d="M211.46,-187.44C227.61,-166.04 256.72,-131.92 290,-113.5 295.89,-110.24 302.33,-107.57 308.92,-105.39"/>
<polygon fill="#63b8ff" stroke="#63b8ff" points="208.77,-185.18 205.69,-195.31 214.42,-189.31 208.77,-185.18"/>
</g>
<!-- Node12 -->
<g id="node12" class="node">
<title>Node12</title>
<g id="a_node12"><a xlink:href="class_ogre_1_1_compositor_pass_target_barrier.html" target="_top" xlink:title=" ">
<polygon fill="white" stroke="#666666" points="442.5,-67.5 300.5,-67.5 300.5,-37.5 442.5,-37.5 442.5,-67.5"/>
<text text-anchor="start" x="308.5" y="-55.5" font-family="Helvetica,sans-Serif" font-size="10.00">Ogre::CompositorPassTarget</text>
<text text-anchor="middle" x="371.5" y="-44.5" font-family="Helvetica,sans-Serif" font-size="10.00">Barrier</text>
</a>
</g>
</g>
<!-- Node1&#45;&gt;Node12 -->
<g id="edge11" class="edge">
<title>Node1&#45;&gt;Node12</title>
<path fill="none" stroke="#63b8ff" d="M206.98,-186.26C220.73,-157.59 249.72,-105.4 290,-76.5 294.62,-73.18 299.7,-70.32 305,-67.85"/>
<polygon fill="#63b8ff" stroke="#63b8ff" points="203.83,-184.74 202.81,-195.28 210.18,-187.68 203.83,-184.74"/>
</g>
<!-- Node13 -->
<g id="node13" class="node">
<title>Node13</title>
<g id="a_node13"><a xlink:href="class_ogre_1_1_compositor_pass_uav.html" target="_top" xlink:title="Implementation of CompositorPass This implementation will set UAVs.">
<polygon fill="white" stroke="#666666" points="437.5,-19 305.5,-19 305.5,0 437.5,0 437.5,-19"/>
<text text-anchor="middle" x="371.5" y="-7" font-family="Helvetica,sans-Serif" font-size="10.00">Ogre::CompositorPassUav</text>
</a>
</g>
</g>
<!-- Node1&#45;&gt;Node13 -->
<g id="edge12" class="edge">
<title>Node1&#45;&gt;Node13</title>
<path fill="none" stroke="#63b8ff" d="M202.73,-185.49C212.33,-147.91 237.77,-69.27 290,-28.5 294.75,-24.79 300.12,-21.78 305.76,-19.35"/>
<polygon fill="#63b8ff" stroke="#63b8ff" points="199.36,-184.54 200.42,-195.08 206.17,-186.18 199.36,-184.54"/>
</g>
<!-- Node2 -->
<g id="node2" class="node">
<title>Node2</title>
<g id="a_node2"><a xlink:href="class_ogre_1_1_allocated_object.html" target="_top" xlink:title="Superclass for all objects that wish to use custom memory allocators when their new / delete operator...">
<polygon fill="white" stroke="#666666" points="104,-216 0,-216 0,-197 104,-197 104,-216"/>
<text text-anchor="middle" x="52" y="-204" font-family="Helvetica,sans-Serif" font-size="10.00">CompositorInstAlloc</text>
</a>
</g>
</g>
<!-- Node2&#45;&gt;Node1 -->
<g id="edge1" class="edge">
<title>Node2&#45;&gt;Node1</title>
<path fill="none" stroke="#63b8ff" d="M115.5,-206.5C123.59,-206.5 131.83,-206.5 139.8,-206.5"/>
<polygon fill="#63b8ff" stroke="#63b8ff" points="115.74,-203 105.74,-206.5 115.74,-210 115.74,-203"/>
</g>
</g>
</svg>
