<?xml version="1.0" encoding="UTF-8" standalone="no"?>
<!DOCTYPE svg PUBLIC "-//W3C//DTD SVG 1.1//EN"
 "http://www.w3.org/Graphics/SVG/1.1/DTD/svg11.dtd">
<!-- Generated by graphviz version 7.0.5 (20221223.1930)
 -->
<!-- Title: Ogre::Window Pages: 1 -->
<svg width="733pt" height="357pt"
 viewBox="0.00 0.00 733.00 356.50" xmlns="http://www.w3.org/2000/svg" xmlns:xlink="http://www.w3.org/1999/xlink">
<g id="graph0" class="graph" transform="scale(1 1) rotate(0) translate(4 352.5)">
<title>Ogre::Window</title>
<!-- Node1 -->
<g id="node1" class="node">
<title>Node1</title>
<g id="a_node1"><a xlink:title=" ">
<polygon fill="#999999" stroke="#666666" points="199,-189 122,-189 122,-170 199,-170 199,-189"/>
<text text-anchor="middle" x="160.5" y="-177" font-family="Helvetica,sans-Serif" font-size="10.00">Ogre::Window</text>
</a>
</g>
</g>
<!-- Node3 -->
<g id="node3" class="node">
<title>Node3</title>
<g id="a_node3"><a xlink:href="class_ogre_1_1_cocoa_window.html" target="_top" xlink:title=" ">
<polygon fill="white" stroke="#666666" points="348,-337 244,-337 244,-318 348,-318 348,-337"/>
<text text-anchor="middle" x="296" y="-325" font-family="Helvetica,sans-Serif" font-size="10.00">Ogre::CocoaWindow</text>
</a>
</g>
</g>
<!-- Node1&#45;&gt;Node3 -->
<g id="edge2" class="edge">
<title>Node1&#45;&gt;Node3</title>
<path fill="none" stroke="#63b8ff" d="M167.69,-200.09C177.37,-228.81 198.84,-280.62 235,-309.5 239.08,-312.76 243.74,-315.43 248.62,-317.61"/>
<polygon fill="#63b8ff" stroke="#63b8ff" points="171.09,-199.23 164.71,-190.77 164.42,-201.36 171.09,-199.23"/>
</g>
<!-- Node4 -->
<g id="node4" class="node">
<title>Node4</title>
<g id="a_node4"><a xlink:href="class_ogre_1_1_d3_d11_window.html" target="_top" xlink:title=" ">
<polygon fill="white" stroke="#666666" points="349,-300 243,-300 243,-281 349,-281 349,-300"/>
<text text-anchor="middle" x="296" y="-288" font-family="Helvetica,sans-Serif" font-size="10.00">Ogre::D3D11Window</text>
</a>
</g>
</g>
<!-- Node1&#45;&gt;Node4 -->
<g id="edge3" class="edge">
<title>Node1&#45;&gt;Node4</title>
<path fill="none" stroke="#63b8ff" d="M172.07,-199.09C184.44,-220.22 206.88,-253.4 235,-272.5 239.77,-275.74 245.13,-278.41 250.64,-280.61"/>
<polygon fill="#63b8ff" stroke="#63b8ff" points="175.24,-197.59 167.28,-190.59 169.14,-201.02 175.24,-197.59"/>
</g>
<!-- Node6 -->
<g id="node6" class="node">
<title>Node6</title>
<g id="a_node6"><a xlink:href="class_ogre_1_1_e_g_l_window.html" target="_top" xlink:title=" ">
<polygon fill="white" stroke="#666666" points="344,-263 248,-263 248,-244 344,-244 344,-263"/>
<text text-anchor="middle" x="296" y="-251" font-family="Helvetica,sans-Serif" font-size="10.00">Ogre::EGLWindow</text>
</a>
</g>
</g>
<!-- Node1&#45;&gt;Node6 -->
<g id="edge5" class="edge">
<title>Node1&#45;&gt;Node6</title>
<path fill="none" stroke="#63b8ff" d="M179.95,-196.58C194.1,-208.89 214.6,-225.1 235,-235.5 241.1,-238.61 247.84,-241.28 254.52,-243.54"/>
<polygon fill="#63b8ff" stroke="#63b8ff" points="182.56,-194.21 172.77,-190.16 177.89,-199.44 182.56,-194.21"/>
</g>
<!-- Node11 -->
<g id="node11" class="node">
<title>Node11</title>
<g id="a_node11"><a xlink:href="class_ogre_1_1_egl_p_buffer_window.html" target="_top" xlink:title="PBuffer implementation of EGL When supported, PBuffer is a surface&#45;less implementation of OpenGL.">
<polygon fill="white" stroke="#666666" points="357,-226 235,-226 235,-207 357,-207 357,-226"/>
<text text-anchor="middle" x="296" y="-214" font-family="Helvetica,sans-Serif" font-size="10.00">Ogre::EglPBufferWindow</text>
</a>
</g>
</g>
<!-- Node1&#45;&gt;Node11 -->
<g id="edge10" class="edge">
<title>Node1&#45;&gt;Node11</title>
<path fill="none" stroke="#63b8ff" d="M207.97,-192.38C224.74,-197.03 243.4,-202.2 259.13,-206.56"/>
<polygon fill="#63b8ff" stroke="#63b8ff" points="209.31,-189.12 198.73,-189.82 207.44,-195.86 209.31,-189.12"/>
</g>
<!-- Node12 -->
<g id="node12" class="node">
<title>Node12</title>
<g id="a_node12"><a xlink:href="class_ogre_1_1_g_l_x_window.html" target="_top" xlink:title=" ">
<polygon fill="white" stroke="#666666" points="344.5,-189 247.5,-189 247.5,-170 344.5,-170 344.5,-189"/>
<text text-anchor="middle" x="296" y="-177" font-family="Helvetica,sans-Serif" font-size="10.00">Ogre::GLXWindow</text>
</a>
</g>
</g>
<!-- Node1&#45;&gt;Node12 -->
<g id="edge11" class="edge">
<title>Node1&#45;&gt;Node12</title>
<path fill="none" stroke="#63b8ff" d="M210.63,-179.5C222.66,-179.5 235.52,-179.5 247.48,-179.5"/>
<polygon fill="#63b8ff" stroke="#63b8ff" points="210.91,-176 200.91,-179.5 210.91,-183 210.91,-176"/>
</g>
<!-- Node13 -->
<g id="node13" class="node">
<title>Node13</title>
<g id="a_node13"><a xlink:href="class_ogre_1_1_metal_window.html" target="_top" xlink:title=" ">
<polygon fill="white" stroke="#666666" points="346.5,-152 245.5,-152 245.5,-133 346.5,-133 346.5,-152"/>
<text text-anchor="middle" x="296" y="-140" font-family="Helvetica,sans-Serif" font-size="10.00">Ogre::MetalWindow</text>
</a>
</g>
</g>
<!-- Node1&#45;&gt;Node13 -->
<g id="edge12" class="edge">
<title>Node1&#45;&gt;Node13</title>
<path fill="none" stroke="#63b8ff" d="M207.97,-166.62C224.74,-161.97 243.4,-156.8 259.13,-152.44"/>
<polygon fill="#63b8ff" stroke="#63b8ff" points="207.44,-163.14 198.73,-169.18 209.31,-169.88 207.44,-163.14"/>
</g>
<!-- Node14 -->
<g id="node14" class="node">
<title>Node14</title>
<g id="a_node14"><a xlink:href="class_ogre_1_1_n_u_l_l_window.html" target="_top" xlink:title=" ">
<polygon fill="white" stroke="#666666" points="348,-115 244,-115 244,-96 348,-96 348,-115"/>
<text text-anchor="middle" x="296" y="-103" font-family="Helvetica,sans-Serif" font-size="10.00">Ogre::NULLWindow</text>
</a>
</g>
</g>
<!-- Node1&#45;&gt;Node14 -->
<g id="edge13" class="edge">
<title>Node1&#45;&gt;Node14</title>
<path fill="none" stroke="#63b8ff" d="M179.95,-162.42C194.1,-150.11 214.6,-133.9 235,-123.5 241.1,-120.39 247.84,-117.72 254.52,-115.46"/>
<polygon fill="#63b8ff" stroke="#63b8ff" points="177.89,-159.56 172.77,-168.84 182.56,-164.79 177.89,-159.56"/>
</g>
<!-- Node15 -->
<g id="node15" class="node">
<title>Node15</title>
<g id="a_node15"><a xlink:href="class_ogre_1_1_vulkan_window.html" target="_top" xlink:title=" ">
<polygon fill="white" stroke="#666666" points="349.5,-78 242.5,-78 242.5,-59 349.5,-59 349.5,-78"/>
<text text-anchor="middle" x="296" y="-66" font-family="Helvetica,sans-Serif" font-size="10.00">Ogre::VulkanWindow</text>
</a>
</g>
</g>
<!-- Node1&#45;&gt;Node15 -->
<g id="edge14" class="edge">
<title>Node1&#45;&gt;Node15</title>
<path fill="none" stroke="#63b8ff" d="M172.07,-159.91C184.44,-138.78 206.88,-105.6 235,-86.5 239.77,-83.26 245.13,-80.59 250.64,-78.39"/>
<polygon fill="#63b8ff" stroke="#63b8ff" points="169.14,-157.98 167.28,-168.41 175.24,-161.41 169.14,-157.98"/>
</g>
<!-- Node21 -->
<g id="node21" class="node">
<title>Node21</title>
<g id="a_node21"><a xlink:href="class_ogre_1_1_win32_window.html" target="_top" xlink:title=" ">
<polygon fill="white" stroke="#666666" points="348,-41 244,-41 244,-22 348,-22 348,-41"/>
<text text-anchor="middle" x="296" y="-29" font-family="Helvetica,sans-Serif" font-size="10.00">Ogre::Win32Window</text>
</a>
</g>
</g>
<!-- Node1&#45;&gt;Node21 -->
<g id="edge20" class="edge">
<title>Node1&#45;&gt;Node21</title>
<path fill="none" stroke="#63b8ff" d="M167.69,-158.91C177.37,-130.19 198.84,-78.38 235,-49.5 239.08,-46.24 243.74,-43.57 248.62,-41.39"/>
<polygon fill="#63b8ff" stroke="#63b8ff" points="164.42,-157.64 164.71,-168.23 171.09,-159.77 164.42,-157.64"/>
</g>
<!-- Node2 -->
<g id="node2" class="node">
<title>Node2</title>
<g id="a_node2"><a xlink:href="class_ogre_1_1_allocated_object.html" target="_top" xlink:title="Superclass for all objects that wish to use custom memory allocators when their new / delete operator...">
<polygon fill="white" stroke="#666666" points="86,-189 0,-189 0,-170 86,-170 86,-189"/>
<text text-anchor="middle" x="43" y="-177" font-family="Helvetica,sans-Serif" font-size="10.00">RenderSysAlloc</text>
</a>
</g>
</g>
<!-- Node2&#45;&gt;Node1 -->
<g id="edge1" class="edge">
<title>Node2&#45;&gt;Node1</title>
<path fill="none" stroke="#63b8ff" d="M97.7,-179.5C105.82,-179.5 114.05,-179.5 121.74,-179.5"/>
<polygon fill="#63b8ff" stroke="#63b8ff" points="97.87,-176 87.87,-179.5 97.87,-183 97.87,-176"/>
</g>
<!-- Node5 -->
<g id="node5" class="node">
<title>Node5</title>
<g id="a_node5"><a xlink:href="class_ogre_1_1_d3_d11_window_swap_chain_based.html" target="_top" xlink:title=" ">
<polygon fill="white" stroke="#666666" points="548.5,-348.5 393.5,-348.5 393.5,-318.5 548.5,-318.5 548.5,-348.5"/>
<text text-anchor="start" x="401.5" y="-336.5" font-family="Helvetica,sans-Serif" font-size="10.00">Ogre::D3D11WindowSwapChain</text>
<text text-anchor="middle" x="471" y="-325.5" font-family="Helvetica,sans-Serif" font-size="10.00">Based</text>
</a>
</g>
</g>
<!-- Node4&#45;&gt;Node5 -->
<g id="edge4" class="edge">
<title>Node4&#45;&gt;Node5</title>
<path fill="none" stroke="#63b8ff" d="M348.09,-303.2C366.79,-307.85 388.16,-313.16 407.73,-318.02"/>
<polygon fill="#63b8ff" stroke="#63b8ff" points="349.14,-299.85 338.59,-300.84 347.45,-306.65 349.14,-299.85"/>
</g>
<!-- Node7 -->
<g id="node7" class="node">
<title>Node7</title>
<g id="a_node7"><a xlink:href="class_ogre_1_1_android_e_g_l_window.html" target="_top" xlink:title=" ">
<polygon fill="white" stroke="#666666" points="535.5,-300 406.5,-300 406.5,-281 535.5,-281 535.5,-300"/>
<text text-anchor="middle" x="471" y="-288" font-family="Helvetica,sans-Serif" font-size="10.00">Ogre::AndroidEGLWindow</text>
</a>
</g>
</g>
<!-- Node6&#45;&gt;Node7 -->
<g id="edge6" class="edge">
<title>Node6&#45;&gt;Node7</title>
<path fill="none" stroke="#63b8ff" d="M354.44,-265.79C376.88,-270.58 402.26,-276.01 423.51,-280.56"/>
<polygon fill="#63b8ff" stroke="#63b8ff" points="355.35,-262.4 344.84,-263.73 353.89,-269.25 355.35,-262.4"/>
</g>
<!-- Node8 -->
<g id="node8" class="node">
<title>Node8</title>
<g id="a_node8"><a xlink:href="class_ogre_1_1_emscripten_e_g_l_window.html" target="_top" xlink:title=" ">
<polygon fill="white" stroke="#666666" points="543.5,-263 398.5,-263 398.5,-244 543.5,-244 543.5,-263"/>
<text text-anchor="middle" x="471" y="-251" font-family="Helvetica,sans-Serif" font-size="10.00">Ogre::EmscriptenEGLWindow</text>
</a>
</g>
</g>
<!-- Node6&#45;&gt;Node8 -->
<g id="edge7" class="edge">
<title>Node6&#45;&gt;Node8</title>
<path fill="none" stroke="#63b8ff" d="M355.49,-253.5C369.17,-253.5 383.91,-253.5 398.1,-253.5"/>
<polygon fill="#63b8ff" stroke="#63b8ff" points="355.79,-250 345.79,-253.5 355.79,-257 355.79,-250"/>
</g>
<!-- Node9 -->
<g id="node9" class="node">
<title>Node9</title>
<g id="a_node9"><a xlink:href="class_ogre_1_1_win32_e_g_l_window.html" target="_top" xlink:title=" ">
<polygon fill="white" stroke="#666666" points="532.5,-226 409.5,-226 409.5,-207 532.5,-207 532.5,-226"/>
<text text-anchor="middle" x="471" y="-214" font-family="Helvetica,sans-Serif" font-size="10.00">Ogre::Win32EGLWindow</text>
</a>
</g>
</g>
<!-- Node6&#45;&gt;Node9 -->
<g id="edge8" class="edge">
<title>Node6&#45;&gt;Node9</title>
<path fill="none" stroke="#63b8ff" d="M354.44,-241.21C376.88,-236.42 402.26,-230.99 423.51,-226.44"/>
<polygon fill="#63b8ff" stroke="#63b8ff" points="353.89,-237.75 344.84,-243.27 355.35,-244.6 353.89,-237.75"/>
</g>
<!-- Node10 -->
<g id="node10" class="node">
<title>Node10</title>
<g id="a_node10"><a xlink:href="class_ogre_1_1_x11_e_g_l_window.html" target="_top" xlink:title=" ">
<polygon fill="white" stroke="#666666" points="527.5,-189 414.5,-189 414.5,-170 527.5,-170 527.5,-189"/>
<text text-anchor="middle" x="471" y="-177" font-family="Helvetica,sans-Serif" font-size="10.00">Ogre::X11EGLWindow</text>
</a>
</g>
</g>
<!-- Node6&#45;&gt;Node10 -->
<g id="edge9" class="edge">
<title>Node6&#45;&gt;Node10</title>
<path fill="none" stroke="#63b8ff" d="M350.27,-239.16C352.59,-238.02 354.85,-236.81 357,-235.5 376.62,-223.6 373.09,-209.91 393,-198.5 399.57,-194.73 406.87,-191.71 414.29,-189.28"/>
<polygon fill="#63b8ff" stroke="#63b8ff" points="349.02,-235.89 341.19,-243.02 351.76,-242.33 349.02,-235.89"/>
</g>
<!-- Node16 -->
<g id="node16" class="node">
<title>Node16</title>
<g id="a_node16"><a xlink:href="class_ogre_1_1_vulkan_window_null.html" target="_top" xlink:title=" ">
<polygon fill="white" stroke="#666666" points="533,-99 409,-99 409,-80 533,-80 533,-99"/>
<text text-anchor="middle" x="471" y="-87" font-family="Helvetica,sans-Serif" font-size="10.00">Ogre::VulkanWindowNull</text>
</a>
</g>
</g>
<!-- Node15&#45;&gt;Node16 -->
<g id="edge15" class="edge">
<title>Node15&#45;&gt;Node16</title>
<path fill="none" stroke="#63b8ff" d="M360.98,-76.27C376.58,-78.16 393.22,-80.18 408.68,-82.06"/>
<polygon fill="#63b8ff" stroke="#63b8ff" points="361.7,-72.83 351.35,-75.1 360.85,-79.78 361.7,-72.83"/>
</g>
<!-- Node17 -->
<g id="node17" class="node">
<title>Node17</title>
<g id="a_node17"><a xlink:href="class_ogre_1_1_vulkan_window_swap_chain_based.html" target="_top" xlink:title=" ">
<polygon fill="white" stroke="#666666" points="549,-61.5 393,-61.5 393,-31.5 549,-31.5 549,-61.5"/>
<text text-anchor="start" x="401" y="-49.5" font-family="Helvetica,sans-Serif" font-size="10.00">Ogre::VulkanWindowSwapChain</text>
<text text-anchor="middle" x="471" y="-38.5" font-family="Helvetica,sans-Serif" font-size="10.00">Based</text>
</a>
</g>
</g>
<!-- Node15&#45;&gt;Node17 -->
<g id="edge16" class="edge">
<title>Node15&#45;&gt;Node17</title>
<path fill="none" stroke="#63b8ff" d="M361.19,-60.34C371.43,-59.03 382.13,-57.67 392.64,-56.34"/>
<polygon fill="#63b8ff" stroke="#63b8ff" points="360.83,-56.86 351.35,-61.59 361.71,-63.8 360.83,-56.86"/>
</g>
<!-- Node18 -->
<g id="node18" class="node">
<title>Node18</title>
<g id="a_node18"><a xlink:href="class_ogre_1_1_vulkan_android_window.html" target="_top" xlink:title=" ">
<polygon fill="white" stroke="#666666" points="725,-93 585,-93 585,-74 725,-74 725,-93"/>
<text text-anchor="middle" x="655" y="-81" font-family="Helvetica,sans-Serif" font-size="10.00">Ogre::VulkanAndroidWindow</text>
</a>
</g>
</g>
<!-- Node17&#45;&gt;Node18 -->
<g id="edge17" class="edge">
<title>Node17&#45;&gt;Node18</title>
<path fill="none" stroke="#63b8ff" d="M559,-64.19C574.76,-67.39 590.69,-70.63 604.88,-73.51"/>
<polygon fill="#63b8ff" stroke="#63b8ff" points="560.11,-60.84 549.61,-62.28 558.72,-67.7 560.11,-60.84"/>
</g>
<!-- Node19 -->
<g id="node19" class="node">
<title>Node19</title>
<g id="a_node19"><a xlink:href="class_ogre_1_1_vulkan_win32_window.html" target="_top" xlink:title=" ">
<polygon fill="white" stroke="#666666" points="722,-56 588,-56 588,-37 722,-37 722,-56"/>
<text text-anchor="middle" x="655" y="-44" font-family="Helvetica,sans-Serif" font-size="10.00">Ogre::VulkanWin32Window</text>
</a>
</g>
</g>
<!-- Node17&#45;&gt;Node19 -->
<g id="edge18" class="edge">
<title>Node17&#45;&gt;Node19</title>
<path fill="none" stroke="#63b8ff" d="M560.8,-46.5C569.8,-46.5 578.83,-46.5 587.53,-46.5"/>
<polygon fill="#63b8ff" stroke="#63b8ff" points="560.96,-43 550.96,-46.5 560.96,-50 560.96,-43"/>
</g>
<!-- Node20 -->
<g id="node20" class="node">
<title>Node20</title>
<g id="a_node20"><a xlink:href="class_ogre_1_1_vulkan_xcb_window.html" target="_top" xlink:title=" ">
<polygon fill="white" stroke="#666666" points="717,-19 593,-19 593,0 717,0 717,-19"/>
<text text-anchor="middle" x="655" y="-7" font-family="Helvetica,sans-Serif" font-size="10.00">Ogre::VulkanXcbWindow</text>
</a>
</g>
</g>
<!-- Node17&#45;&gt;Node20 -->
<g id="edge19" class="edge">
<title>Node17&#45;&gt;Node20</title>
<path fill="none" stroke="#63b8ff" d="M559,-28.81C574.76,-25.61 590.69,-22.37 604.88,-19.49"/>
<polygon fill="#63b8ff" stroke="#63b8ff" points="558.72,-25.3 549.61,-30.72 560.11,-32.16 558.72,-25.3"/>
</g>
</g>
</svg>
