<?xml version="1.0" encoding="UTF-8" standalone="no"?>
<!DOCTYPE svg PUBLIC "-//W3C//DTD SVG 1.1//EN"
 "http://www.w3.org/Graphics/SVG/1.1/DTD/svg11.dtd">
<!-- Generated by graphviz version 9.0.0 (20230911.1827)
 -->
<!-- Title: Ogre::CompositorWorkspaceListener Pages: 1 -->
<svg width="428pt" height="149pt"
 viewBox="0.00 0.00 428.12 149.00" xmlns="http://www.w3.org/2000/svg" xmlns:xlink="http://www.w3.org/1999/xlink">
<g id="graph0" class="graph" transform="scale(1 1) rotate(0) translate(4 145)">
<title>Ogre::CompositorWorkspaceListener</title>
<!-- Node1 -->
<g id="Node000001" class="node">
<title>Node1</title>
<g id="a_Node000001"><a xlink:title=" ">
<polygon fill="#999999" stroke="#666666" points="331.5,-141 191.75,-141 191.75,-110.5 331.5,-110.5 331.5,-141"/>
<text text-anchor="start" x="199.75" y="-127.5" font-family="Helvetica,sans-Serif" font-size="10.00">Ogre::CompositorWorkspace</text>
<text text-anchor="middle" x="261.62" y="-116.25" font-family="Helvetica,sans-Serif" font-size="10.00">Listener</text>
</a>
</g>
</g>
<!-- Node2 -->
<g id="Node000002" class="node">
<title>Node2</title>
<g id="a_Node000002"><a xlink:href="class_ogre_1_1_parallax_corrected_cubemap_base.html" target="_top" xlink:title=" ">
<polygon fill="white" stroke="#666666" points="263.5,-74.5 81.75,-74.5 81.75,-55.25 263.5,-55.25 263.5,-74.5"/>
<text text-anchor="middle" x="172.62" y="-61" font-family="Helvetica,sans-Serif" font-size="10.00">Ogre::ParallaxCorrectedCubemapBase</text>
</a>
</g>
</g>
<!-- Node1&#45;&gt;Node2 -->
<g id="edge1_Node000001_Node000002" class="edge">
<title>Node1&#45;&gt;Node2</title>
<g id="a_edge1_Node000001_Node000002"><a xlink:title=" ">
<path fill="none" stroke="#63b8ff" d="M230.16,-103.94C215.16,-94.01 197.99,-82.66 186.35,-74.95"/>
<polygon fill="#63b8ff" stroke="#63b8ff" points="228.09,-106.76 238.36,-109.36 231.95,-100.93 228.09,-106.76"/>
</a>
</g>
</g>
<!-- Node5 -->
<g id="Node000005" class="node">
<title>Node5</title>
<g id="a_Node000005"><a xlink:href="class_ogre_1_1_vct_cascaded_voxelizer.html" target="_top" xlink:title="This class manages multiple cascades of Voxels and each cascade can be composed of VctImageVoxelizer.">
<polygon fill="white" stroke="#666666" points="420.12,-74.5 281.12,-74.5 281.12,-55.25 420.12,-55.25 420.12,-74.5"/>
<text text-anchor="middle" x="350.62" y="-61" font-family="Helvetica,sans-Serif" font-size="10.00">Ogre::VctCascadedVoxelizer</text>
</a>
</g>
</g>
<!-- Node1&#45;&gt;Node5 -->
<g id="edge4_Node000001_Node000005" class="edge">
<title>Node1&#45;&gt;Node5</title>
<g id="a_edge4_Node000001_Node000005"><a xlink:title=" ">
<path fill="none" stroke="#63b8ff" d="M293.09,-103.94C308.09,-94.01 325.26,-82.66 336.9,-74.95"/>
<polygon fill="#63b8ff" stroke="#63b8ff" points="291.3,-100.93 284.89,-109.36 295.16,-106.76 291.3,-100.93"/>
</a>
</g>
</g>
<!-- Node3 -->
<g id="Node000003" class="node">
<title>Node3</title>
<g id="a_Node000003"><a xlink:href="class_ogre_1_1_parallax_corrected_cubemap.html" target="_top" xlink:title=" ">
<polygon fill="white" stroke="#666666" points="159.25,-19.25 0,-19.25 0,0 159.25,0 159.25,-19.25"/>
<text text-anchor="middle" x="79.62" y="-5.75" font-family="Helvetica,sans-Serif" font-size="10.00">Ogre::ParallaxCorrectedCubemap</text>
</a>
</g>
</g>
<!-- Node2&#45;&gt;Node3 -->
<g id="edge2_Node000002_Node000003" class="edge">
<title>Node2&#45;&gt;Node3</title>
<g id="a_edge2_Node000002_Node000003"><a xlink:title=" ">
<path fill="none" stroke="#63b8ff" d="M147.24,-49.34C130.71,-39.88 109.67,-27.83 95.48,-19.7"/>
<polygon fill="#63b8ff" stroke="#63b8ff" points="145.12,-52.16 155.54,-54.09 148.6,-46.08 145.12,-52.16"/>
</a>
</g>
</g>
<!-- Node4 -->
<g id="Node000004" class="node">
<title>Node4</title>
<g id="a_Node000004"><a xlink:href="class_ogre_1_1_parallax_corrected_cubemap_auto.html" target="_top" xlink:title="Per&#45;Pixel reflection probes.">
<polygon fill="white" stroke="#666666" points="356.38,-19.25 176.88,-19.25 176.88,0 356.38,0 356.38,-19.25"/>
<text text-anchor="middle" x="266.62" y="-5.75" font-family="Helvetica,sans-Serif" font-size="10.00">Ogre::ParallaxCorrectedCubemapAuto</text>
</a>
</g>
</g>
<!-- Node2&#45;&gt;Node4 -->
<g id="edge3_Node000002_Node000004" class="edge">
<title>Node2&#45;&gt;Node4</title>
<g id="a_edge3_Node000002_Node000004"><a xlink:title=" ">
<path fill="none" stroke="#63b8ff" d="M198.28,-49.34C214.99,-39.88 236.26,-27.83 250.6,-19.7"/>
<polygon fill="#63b8ff" stroke="#63b8ff" points="196.86,-46.12 189.89,-54.1 200.31,-52.21 196.86,-46.12"/>
</a>
</g>
</g>
</g>
</svg>
