<?xml version="1.0" encoding="UTF-8" standalone="no"?>
<!DOCTYPE svg PUBLIC "-//W3C//DTD SVG 1.1//EN"
 "http://www.w3.org/Graphics/SVG/1.1/DTD/svg11.dtd">
<!-- Generated by graphviz version 9.0.0 (20230911.1827)
 -->
<!-- Title: Ogre::TextureGpuListener Pages: 1 -->
<svg width="539pt" height="507pt"
 viewBox="0.00 0.00 539.00 506.88" xmlns="http://www.w3.org/2000/svg" xmlns:xlink="http://www.w3.org/1999/xlink">
<g id="graph0" class="graph" transform="scale(1 1) rotate(0) translate(4 502.88)">
<title>Ogre::TextureGpuListener</title>
<!-- Node1 -->
<g id="Node000001" class="node">
<title>Node1</title>
<g id="a_Node000001"><a xlink:title=" ">
<polygon fill="#999999" stroke="#666666" points="127,-227.88 0,-227.88 0,-208.62 127,-208.62 127,-227.88"/>
<text text-anchor="middle" x="63.5" y="-214.38" font-family="Helvetica,sans-Serif" font-size="10.00">Ogre::TextureGpuListener</text>
</a>
</g>
</g>
<!-- Node2 -->
<g id="Node000002" class="node">
<title>Node2</title>
<g id="a_Node000002"><a xlink:href="class_ogre_1_1_async_texture_ticket.html" target="_top" xlink:title="In Ogre 2.2 reading data from GPU back to CPU is asynchronous.">
<polygon fill="white" stroke="#666666" points="309.12,-412.88 181.38,-412.88 181.38,-393.62 309.12,-393.62 309.12,-412.88"/>
<text text-anchor="middle" x="245.25" y="-399.38" font-family="Helvetica,sans-Serif" font-size="10.00">Ogre::AsyncTextureTicket</text>
</a>
</g>
</g>
<!-- Node1&#45;&gt;Node2 -->
<g id="edge1_Node000001_Node000002" class="edge">
<title>Node1&#45;&gt;Node2</title>
<g id="a_edge1_Node000001_Node000002"><a xlink:title=" ">
<path fill="none" stroke="#63b8ff" d="M70.52,-238.58C82.19,-274.22 111.36,-347.76 163,-385.25 168.5,-389.24 174.71,-392.37 181.2,-394.82"/>
<polygon fill="#63b8ff" stroke="#63b8ff" points="74.01,-237.99 67.68,-229.49 67.33,-240.08 74.01,-237.99"/>
</a>
</g>
</g>
<!-- Node8 -->
<g id="Node000008" class="node">
<title>Node8</title>
<g id="a_Node000008"><a xlink:href="class_ogre_1_1_compositor_pass_uav.html" target="_top" xlink:title="Implementation of CompositorPass This implementation will set UAVs.">
<polygon fill="white" stroke="#666666" points="311,-375.88 179.5,-375.88 179.5,-356.62 311,-356.62 311,-375.88"/>
<text text-anchor="middle" x="245.25" y="-362.38" font-family="Helvetica,sans-Serif" font-size="10.00">Ogre::CompositorPassUav</text>
</a>
</g>
</g>
<!-- Node1&#45;&gt;Node8 -->
<g id="edge7_Node000001_Node000008" class="edge">
<title>Node1&#45;&gt;Node8</title>
<g id="a_edge7_Node000001_Node000008"><a xlink:title=" ">
<path fill="none" stroke="#63b8ff" d="M74.02,-238.5C88.8,-267.59 120.07,-320.72 163,-348.25 167.99,-351.45 173.46,-354.08 179.14,-356.25"/>
<polygon fill="#63b8ff" stroke="#63b8ff" points="77.23,-237.1 69.69,-229.66 70.95,-240.18 77.23,-237.1"/>
</a>
</g>
</g>
<!-- Node9 -->
<g id="Node000009" class="node">
<title>Node9</title>
<g id="a_Node000009"><a xlink:href="class_ogre_1_1_decal.html" target="_top" xlink:title="Decals can have diffuse, normal map, and emissive on top of regular objects.">
<polygon fill="white" stroke="#666666" points="278.38,-338.88 212.12,-338.88 212.12,-319.62 278.38,-319.62 278.38,-338.88"/>
<text text-anchor="middle" x="245.25" y="-325.38" font-family="Helvetica,sans-Serif" font-size="10.00">Ogre::Decal</text>
</a>
</g>
</g>
<!-- Node1&#45;&gt;Node9 -->
<g id="edge8_Node000001_Node000009" class="edge">
<title>Node1&#45;&gt;Node9</title>
<g id="a_edge8_Node000001_Node000009"><a xlink:title=" ">
<path fill="none" stroke="#63b8ff" d="M78.97,-237.01C96.49,-258.38 128.04,-292.72 163,-311.25 178.06,-319.23 196.5,-323.68 212.01,-326.16"/>
<polygon fill="#63b8ff" stroke="#63b8ff" points="81.86,-235.03 72.88,-229.4 76.39,-239.39 81.86,-235.03"/>
</a>
</g>
</g>
<!-- Node10 -->
<g id="Node000010" class="node">
<title>Node10</title>
<g id="a_Node000010"><a xlink:href="class_ogre_1_1_font.html" target="_top" xlink:title="Class representing a font in the system.">
<polygon fill="white" stroke="#666666" points="275.75,-301.88 214.75,-301.88 214.75,-282.62 275.75,-282.62 275.75,-301.88"/>
<text text-anchor="middle" x="245.25" y="-288.38" font-family="Helvetica,sans-Serif" font-size="10.00">Ogre::Font</text>
</a>
</g>
</g>
<!-- Node1&#45;&gt;Node10 -->
<g id="edge9_Node000001_Node000010" class="edge">
<title>Node1&#45;&gt;Node10</title>
<g id="a_edge9_Node000001_Node000010"><a xlink:title=" ">
<path fill="none" stroke="#63b8ff" d="M88.33,-234.5C107.68,-247.02 136.08,-263.89 163,-274.25 179.45,-280.58 198.67,-284.97 214.29,-287.82"/>
<polygon fill="#63b8ff" stroke="#63b8ff" points="90.37,-231.66 80.1,-229.07 86.52,-237.5 90.37,-231.66"/>
</a>
</g>
</g>
<!-- Node11 -->
<g id="Node000011" class="node">
<title>Node11</title>
<g id="a_Node000011"><a xlink:href="class_ogre_1_1_hlms_compute_job.html" target="_top" xlink:title=" ">
<polygon fill="white" stroke="#666666" points="305,-264.88 185.5,-264.88 185.5,-245.62 305,-245.62 305,-264.88"/>
<text text-anchor="middle" x="245.25" y="-251.38" font-family="Helvetica,sans-Serif" font-size="10.00">Ogre::HlmsComputeJob</text>
</a>
</g>
</g>
<!-- Node1&#45;&gt;Node11 -->
<g id="edge10_Node000001_Node000011" class="edge">
<title>Node1&#45;&gt;Node11</title>
<g id="a_edge10_Node000001_Node000011"><a xlink:title=" ">
<path fill="none" stroke="#63b8ff" d="M124.61,-230.62C147.55,-235.35 173.4,-240.67 195.19,-245.15"/>
<polygon fill="#63b8ff" stroke="#63b8ff" points="125.6,-227.25 115.1,-228.67 124.19,-234.11 125.6,-227.25"/>
</a>
</g>
</g>
<!-- Node12 -->
<g id="Node000012" class="node">
<title>Node12</title>
<g id="a_Node000012"><a xlink:href="class_ogre_1_1_light.html" target="_top" xlink:title="Representation of a dynamic light source in the scene.">
<polygon fill="white" stroke="#666666" points="276.88,-227.88 213.62,-227.88 213.62,-208.62 276.88,-208.62 276.88,-227.88"/>
<text text-anchor="middle" x="245.25" y="-214.38" font-family="Helvetica,sans-Serif" font-size="10.00">Ogre::Light</text>
</a>
</g>
</g>
<!-- Node1&#45;&gt;Node12 -->
<g id="edge11_Node000001_Node000012" class="edge">
<title>Node1&#45;&gt;Node12</title>
<g id="a_edge11_Node000001_Node000012"><a xlink:title=" ">
<path fill="none" stroke="#63b8ff" d="M138.82,-218.25C164.96,-218.25 192.9,-218.25 213.45,-218.25"/>
<polygon fill="#63b8ff" stroke="#63b8ff" points="138.88,-214.75 128.88,-218.25 138.88,-221.75 138.88,-214.75"/>
</a>
</g>
</g>
<!-- Node14 -->
<g id="Node000014" class="node">
<title>Node14</title>
<g id="a_Node000014"><a xlink:href="class_ogre_1_1_o_g_r_e___h_l_m_s___t_e_x_t_u_r_e___b_a_s_e___c_l_a_s_s.html" target="_top" xlink:title="This is not a regular header, therefore it has no include guards.">
<polygon fill="white" stroke="#666666" points="321.88,-190.5 168.62,-190.5 168.62,-160 321.88,-160 321.88,-190.5"/>
<text text-anchor="start" x="176.62" y="-177" font-family="Helvetica,sans-Serif" font-size="10.00">Ogre::OGRE_HLMS_TEXTURE</text>
<text text-anchor="middle" x="245.25" y="-165.75" font-family="Helvetica,sans-Serif" font-size="10.00">_BASE_CLASS</text>
</a>
</g>
</g>
<!-- Node1&#45;&gt;Node14 -->
<g id="edge13_Node000001_Node000014" class="edge">
<title>Node1&#45;&gt;Node14</title>
<g id="a_edge13_Node000001_Node000014"><a xlink:title=" ">
<path fill="none" stroke="#63b8ff" d="M117.81,-205.5C136.84,-200.95 158.5,-195.76 178.45,-190.99"/>
<polygon fill="#63b8ff" stroke="#63b8ff" points="117.03,-202.09 108.12,-207.82 118.66,-208.89 117.03,-202.09"/>
</a>
</g>
</g>
<!-- Node15 -->
<g id="Node000015" class="node">
<title>Node15</title>
<g id="a_Node000015"><a xlink:href="class_ogre_1_1_texture_gpu_manager.html" target="_top" xlink:title="This class manages all textures (i.e.">
<polygon fill="white" stroke="#666666" points="309.88,-141.88 180.62,-141.88 180.62,-122.62 309.88,-122.62 309.88,-141.88"/>
<text text-anchor="middle" x="245.25" y="-128.38" font-family="Helvetica,sans-Serif" font-size="10.00">Ogre::TextureGpuManager</text>
</a>
</g>
</g>
<!-- Node1&#45;&gt;Node15 -->
<g id="edge14_Node000001_Node000015" class="edge">
<title>Node1&#45;&gt;Node15</title>
<g id="a_edge14_Node000001_Node000015"><a xlink:title=" ">
<path fill="none" stroke="#63b8ff" d="M84.75,-201.16C103.79,-185.93 133.68,-164.12 163,-151.25 171.09,-147.7 179.94,-144.76 188.73,-142.35"/>
<polygon fill="#63b8ff" stroke="#63b8ff" points="82.78,-198.25 77.25,-207.28 87.21,-203.67 82.78,-198.25"/>
</a>
</g>
</g>
<!-- Node21 -->
<g id="Node000021" class="node">
<title>Node21</title>
<g id="a_Node000021"><a xlink:href="class_ogre_1_1_texture_gpu_manager_listener.html" target="_top" xlink:title=" ">
<polygon fill="white" stroke="#666666" points="327.5,-104.88 163,-104.88 163,-85.62 327.5,-85.62 327.5,-104.88"/>
<text text-anchor="middle" x="245.25" y="-91.38" font-family="Helvetica,sans-Serif" font-size="10.00">Ogre::TextureGpuManagerListener</text>
</a>
</g>
</g>
<!-- Node1&#45;&gt;Node21 -->
<g id="edge20_Node000001_Node000021" class="edge">
<title>Node1&#45;&gt;Node21</title>
<g id="a_edge20_Node000001_Node000021"><a xlink:title=" ">
<path fill="none" stroke="#63b8ff" d="M77.15,-198.82C93.84,-174.83 125.54,-134.58 163,-113.25 168.52,-110.1 174.55,-107.51 180.74,-105.37"/>
<polygon fill="#63b8ff" stroke="#63b8ff" points="74.3,-196.79 71.6,-207.04 80.1,-200.71 74.3,-196.79"/>
</a>
</g>
</g>
<!-- Node23 -->
<g id="Node000023" class="node">
<title>Node23</title>
<g id="a_Node000023"><a xlink:href="class_ogre_1_1_texture_unit_state.html" target="_top" xlink:title="Class representing the state of a single texture unit during a Pass of a Technique,...">
<polygon fill="white" stroke="#666666" points="302.75,-67.88 187.75,-67.88 187.75,-48.62 302.75,-48.62 302.75,-67.88"/>
<text text-anchor="middle" x="245.25" y="-54.38" font-family="Helvetica,sans-Serif" font-size="10.00">Ogre::TextureUnitState</text>
</a>
</g>
</g>
<!-- Node1&#45;&gt;Node23 -->
<g id="edge22_Node000001_Node000023" class="edge">
<title>Node1&#45;&gt;Node23</title>
<g id="a_edge22_Node000001_Node000023"><a xlink:title=" ">
<path fill="none" stroke="#63b8ff" d="M72.72,-197.94C86.48,-166.62 117.28,-106.94 163,-76.25 170.32,-71.34 178.76,-67.74 187.38,-65.12"/>
<polygon fill="#63b8ff" stroke="#63b8ff" points="69.54,-196.47 68.87,-207.04 75.98,-199.2 69.54,-196.47"/>
</a>
</g>
</g>
<!-- Node24 -->
<g id="Node000024" class="node">
<title>Node24</title>
<g id="a_Node000024"><a xlink:href="class_ogre_1_1_vct_lighting.html" target="_top" xlink:title=" ">
<polygon fill="white" stroke="#666666" points="290.75,-30.88 199.75,-30.88 199.75,-11.62 290.75,-11.62 290.75,-30.88"/>
<text text-anchor="middle" x="245.25" y="-17.38" font-family="Helvetica,sans-Serif" font-size="10.00">Ogre::VctLighting</text>
</a>
</g>
</g>
<!-- Node1&#45;&gt;Node24 -->
<g id="edge23_Node000001_Node000024" class="edge">
<title>Node1&#45;&gt;Node24</title>
<g id="a_edge23_Node000001_Node000024"><a xlink:title=" ">
<path fill="none" stroke="#63b8ff" d="M69.79,-197.52C80.55,-159.76 108.69,-79.93 163,-39.25 173.52,-31.37 186.83,-26.82 199.62,-24.22"/>
<polygon fill="#63b8ff" stroke="#63b8ff" points="66.53,-196.17 67.29,-206.74 73.28,-198 66.53,-196.17"/>
</a>
</g>
</g>
<!-- Node3 -->
<g id="Node000003" class="node">
<title>Node3</title>
<g id="a_Node000003"><a xlink:href="class_ogre_1_1_d3_d11_async_texture_ticket.html" target="_top" xlink:title="See AsyncTextureTicket.">
<polygon fill="white" stroke="#666666" points="525.75,-498.88 368.75,-498.88 368.75,-479.62 525.75,-479.62 525.75,-498.88"/>
<text text-anchor="middle" x="447.25" y="-485.38" font-family="Helvetica,sans-Serif" font-size="10.00">Ogre::D3D11AsyncTextureTicket</text>
</a>
</g>
</g>
<!-- Node2&#45;&gt;Node3 -->
<g id="edge2_Node000002_Node000003" class="edge">
<title>Node2&#45;&gt;Node3</title>
<g id="a_edge2_Node000002_Node000003"><a xlink:title=" ">
<path fill="none" stroke="#63b8ff" d="M269.93,-419.56C292.9,-434.7 329.22,-456.86 363.5,-470.25 372.56,-473.79 382.45,-476.77 392.14,-479.24"/>
<polygon fill="#63b8ff" stroke="#63b8ff" points="271.88,-416.66 261.62,-414 267.98,-422.47 271.88,-416.66"/>
</a>
</g>
</g>
<!-- Node4 -->
<g id="Node000004" class="node">
<title>Node4</title>
<g id="a_Node000004"><a xlink:href="class_ogre_1_1_g_l3_plus_async_texture_ticket.html" target="_top" xlink:title="See AsyncTextureTicket.">
<polygon fill="white" stroke="#666666" points="516.75,-461.5 377.75,-461.5 377.75,-431 516.75,-431 516.75,-461.5"/>
<text text-anchor="start" x="385.75" y="-448" font-family="Helvetica,sans-Serif" font-size="10.00">Ogre::GL3PlusAsyncTexture</text>
<text text-anchor="middle" x="447.25" y="-436.75" font-family="Helvetica,sans-Serif" font-size="10.00">Ticket</text>
</a>
</g>
</g>
<!-- Node2&#45;&gt;Node4 -->
<g id="edge3_Node000002_Node000004" class="edge">
<title>Node2&#45;&gt;Node4</title>
<g id="a_edge3_Node000002_Node000004"><a xlink:title=" ">
<path fill="none" stroke="#63b8ff" d="M304.37,-415.75C327.17,-420.65 353.53,-426.32 377.29,-431.42"/>
<polygon fill="#63b8ff" stroke="#63b8ff" points="305.13,-412.33 294.62,-413.65 303.66,-419.17 305.13,-412.33"/>
</a>
</g>
</g>
<!-- Node5 -->
<g id="Node000005" class="node">
<title>Node5</title>
<g id="a_Node000005"><a xlink:href="class_ogre_1_1_metal_async_texture_ticket.html" target="_top" xlink:title="See AsyncTextureTicket.">
<polygon fill="white" stroke="#666666" points="523.12,-412.88 371.38,-412.88 371.38,-393.62 523.12,-393.62 523.12,-412.88"/>
<text text-anchor="middle" x="447.25" y="-399.38" font-family="Helvetica,sans-Serif" font-size="10.00">Ogre::MetalAsyncTextureTicket</text>
</a>
</g>
</g>
<!-- Node2&#45;&gt;Node5 -->
<g id="edge4_Node000002_Node000005" class="edge">
<title>Node2&#45;&gt;Node5</title>
<g id="a_edge4_Node000002_Node000005"><a xlink:title=" ">
<path fill="none" stroke="#63b8ff" d="M320.74,-403.25C337.2,-403.25 354.65,-403.25 371.14,-403.25"/>
<polygon fill="#63b8ff" stroke="#63b8ff" points="321.04,-399.75 311.04,-403.25 321.04,-406.75 321.04,-399.75"/>
</a>
</g>
</g>
<!-- Node6 -->
<g id="Node000006" class="node">
<title>Node6</title>
<g id="a_Node000006"><a xlink:href="class_ogre_1_1_n_u_l_l_async_texture_ticket.html" target="_top" xlink:title="See AsyncTextureTicket.">
<polygon fill="white" stroke="#666666" points="524.62,-375.88 369.88,-375.88 369.88,-356.62 524.62,-356.62 524.62,-375.88"/>
<text text-anchor="middle" x="447.25" y="-362.38" font-family="Helvetica,sans-Serif" font-size="10.00">Ogre::NULLAsyncTextureTicket</text>
</a>
</g>
</g>
<!-- Node2&#45;&gt;Node6 -->
<g id="edge5_Node000002_Node000006" class="edge">
<title>Node2&#45;&gt;Node6</title>
<g id="a_edge5_Node000002_Node000006"><a xlink:title=" ">
<path fill="none" stroke="#63b8ff" d="M312.09,-391.07C337.87,-386.3 367.09,-380.89 391.67,-376.35"/>
<polygon fill="#63b8ff" stroke="#63b8ff" points="311.59,-387.6 302.39,-392.86 312.86,-394.49 311.59,-387.6"/>
</a>
</g>
</g>
<!-- Node7 -->
<g id="Node000007" class="node">
<title>Node7</title>
<g id="a_Node000007"><a xlink:href="class_ogre_1_1_vulkan_async_texture_ticket.html" target="_top" xlink:title="See AsyncTextureTicket.">
<polygon fill="white" stroke="#666666" points="512.62,-338.5 381.88,-338.5 381.88,-308 512.62,-308 512.62,-338.5"/>
<text text-anchor="start" x="389.88" y="-325" font-family="Helvetica,sans-Serif" font-size="10.00">Ogre::VulkanAsyncTexture</text>
<text text-anchor="middle" x="447.25" y="-313.75" font-family="Helvetica,sans-Serif" font-size="10.00">Ticket</text>
</a>
</g>
</g>
<!-- Node2&#45;&gt;Node7 -->
<g id="edge6_Node000002_Node000007" class="edge">
<title>Node2&#45;&gt;Node7</title>
<g id="a_edge6_Node000002_Node000007"><a xlink:title=" ">
<path fill="none" stroke="#63b8ff" d="M319.8,-389.14C322.45,-387.94 325.02,-386.65 327.5,-385.25 347.74,-373.79 343.63,-359.36 363.5,-347.25 369.12,-343.82 375.25,-340.87 381.56,-338.32"/>
<polygon fill="#63b8ff" stroke="#63b8ff" points="318.76,-385.79 310.73,-392.7 321.32,-392.3 318.76,-385.79"/>
</a>
</g>
</g>
<!-- Node13 -->
<g id="Node000013" class="node">
<title>Node13</title>
<g id="a_Node000013"><a xlink:href="class_ogre_1_1_p_c_z_light.html" target="_top" xlink:title="Specialized version of Ogre::Light which caches which zones the light affects.">
<polygon fill="white" stroke="#666666" points="488.62,-252.88 405.88,-252.88 405.88,-233.62 488.62,-233.62 488.62,-252.88"/>
<text text-anchor="middle" x="447.25" y="-239.38" font-family="Helvetica,sans-Serif" font-size="10.00">Ogre::PCZLight</text>
</a>
</g>
</g>
<!-- Node12&#45;&gt;Node13 -->
<g id="edge12_Node000012_Node000013" class="edge">
<title>Node12&#45;&gt;Node13</title>
<g id="a_edge12_Node000012_Node000013"><a xlink:title=" ">
<path fill="none" stroke="#63b8ff" d="M288.2,-223.49C322.78,-227.82 371.53,-233.91 405.71,-238.18"/>
<polygon fill="#63b8ff" stroke="#63b8ff" points="288.92,-220.06 278.56,-222.29 288.05,-227 288.92,-220.06"/>
</a>
</g>
</g>
<!-- Node16 -->
<g id="Node000016" class="node">
<title>Node16</title>
<g id="a_Node000016"><a xlink:href="class_ogre_1_1_d3_d11_texture_gpu_manager.html" target="_top" xlink:title=" ">
<polygon fill="white" stroke="#666666" points="526.5,-215.88 368,-215.88 368,-196.62 526.5,-196.62 526.5,-215.88"/>
<text text-anchor="middle" x="447.25" y="-202.38" font-family="Helvetica,sans-Serif" font-size="10.00">Ogre::D3D11TextureGpuManager</text>
</a>
</g>
</g>
<!-- Node15&#45;&gt;Node16 -->
<g id="edge15_Node000015_Node000016" class="edge">
<title>Node15&#45;&gt;Node16</title>
<g id="a_edge15_Node000015_Node000016"><a xlink:title=" ">
<path fill="none" stroke="#63b8ff" d="M317.42,-146.3C320.9,-147.79 324.28,-149.43 327.5,-151.25 347.47,-162.54 343.44,-177.12 363.5,-188.25 369.28,-191.46 375.59,-194.1 382.06,-196.27"/>
<polygon fill="#63b8ff" stroke="#63b8ff" points="318.75,-143.06 308.15,-142.83 316.29,-149.62 318.75,-143.06"/>
</a>
</g>
</g>
<!-- Node17 -->
<g id="Node000017" class="node">
<title>Node17</title>
<g id="a_Node000017"><a xlink:href="class_ogre_1_1_g_l3_plus_texture_gpu_manager.html" target="_top" xlink:title=" ">
<polygon fill="white" stroke="#666666" points="531,-178.88 363.5,-178.88 363.5,-159.62 531,-159.62 531,-178.88"/>
<text text-anchor="middle" x="447.25" y="-165.38" font-family="Helvetica,sans-Serif" font-size="10.00">Ogre::GL3PlusTextureGpuManager</text>
</a>
</g>
</g>
<!-- Node15&#45;&gt;Node17 -->
<g id="edge16_Node000015_Node000017" class="edge">
<title>Node15&#45;&gt;Node17</title>
<g id="a_edge16_Node000015_Node000017"><a xlink:title=" ">
<path fill="none" stroke="#63b8ff" d="M312.09,-144.43C337.87,-149.2 367.09,-154.61 391.67,-159.15"/>
<polygon fill="#63b8ff" stroke="#63b8ff" points="312.86,-141.01 302.39,-142.64 311.59,-147.9 312.86,-141.01"/>
</a>
</g>
</g>
<!-- Node18 -->
<g id="Node000018" class="node">
<title>Node18</title>
<g id="a_Node000018"><a xlink:href="class_ogre_1_1_metal_texture_gpu_manager.html" target="_top" xlink:title=" ">
<polygon fill="white" stroke="#666666" points="523.88,-141.88 370.62,-141.88 370.62,-122.62 523.88,-122.62 523.88,-141.88"/>
<text text-anchor="middle" x="447.25" y="-128.38" font-family="Helvetica,sans-Serif" font-size="10.00">Ogre::MetalTextureGpuManager</text>
</a>
</g>
</g>
<!-- Node15&#45;&gt;Node18 -->
<g id="edge17_Node000015_Node000018" class="edge">
<title>Node15&#45;&gt;Node18</title>
<g id="a_edge17_Node000015_Node000018"><a xlink:title=" ">
<path fill="none" stroke="#63b8ff" d="M321.74,-132.25C337.63,-132.25 354.39,-132.25 370.29,-132.25"/>
<polygon fill="#63b8ff" stroke="#63b8ff" points="321.87,-128.75 311.87,-132.25 321.87,-135.75 321.87,-128.75"/>
</a>
</g>
</g>
<!-- Node19 -->
<g id="Node000019" class="node">
<title>Node19</title>
<g id="a_Node000019"><a xlink:href="class_ogre_1_1_n_u_l_l_texture_gpu_manager.html" target="_top" xlink:title=" ">
<polygon fill="white" stroke="#666666" points="525.38,-104.88 369.12,-104.88 369.12,-85.62 525.38,-85.62 525.38,-104.88"/>
<text text-anchor="middle" x="447.25" y="-91.38" font-family="Helvetica,sans-Serif" font-size="10.00">Ogre::NULLTextureGpuManager</text>
</a>
</g>
</g>
<!-- Node15&#45;&gt;Node19 -->
<g id="edge18_Node000015_Node000019" class="edge">
<title>Node15&#45;&gt;Node19</title>
<g id="a_edge18_Node000015_Node000019"><a xlink:title=" ">
<path fill="none" stroke="#63b8ff" d="M312.09,-120.07C337.87,-115.3 367.09,-109.89 391.67,-105.35"/>
<polygon fill="#63b8ff" stroke="#63b8ff" points="311.59,-116.6 302.39,-121.86 312.86,-123.49 311.59,-116.6"/>
</a>
</g>
</g>
<!-- Node20 -->
<g id="Node000020" class="node">
<title>Node20</title>
<g id="a_Node000020"><a xlink:href="class_ogre_1_1_vulkan_texture_gpu_manager.html" target="_top" xlink:title=" ">
<polygon fill="white" stroke="#666666" points="526.88,-67.88 367.62,-67.88 367.62,-48.62 526.88,-48.62 526.88,-67.88"/>
<text text-anchor="middle" x="447.25" y="-54.38" font-family="Helvetica,sans-Serif" font-size="10.00">Ogre::VulkanTextureGpuManager</text>
</a>
</g>
</g>
<!-- Node15&#45;&gt;Node20 -->
<g id="edge19_Node000015_Node000020" class="edge">
<title>Node15&#45;&gt;Node20</title>
<g id="a_edge19_Node000015_Node000020"><a xlink:title=" ">
<path fill="none" stroke="#63b8ff" d="M319.8,-118.14C322.45,-116.94 325.02,-115.65 327.5,-114.25 347.74,-102.79 343.23,-87.67 363.5,-76.25 369.14,-73.07 375.28,-70.46 381.59,-68.3"/>
<polygon fill="#63b8ff" stroke="#63b8ff" points="318.76,-114.79 310.73,-121.7 321.32,-121.3 318.76,-114.79"/>
</a>
</g>
</g>
<!-- Node22 -->
<g id="Node000022" class="node">
<title>Node22</title>
<g id="a_Node000022"><a xlink:href="class_ogre_1_1_default_texture_gpu_manager_listener.html" target="_top" xlink:title="This is a Default implementation of TextureGpuManagerListener based on heuristics.">
<polygon fill="white" stroke="#666666" points="527.25,-30.5 367.25,-30.5 367.25,0 527.25,0 527.25,-30.5"/>
<text text-anchor="start" x="375.25" y="-17" font-family="Helvetica,sans-Serif" font-size="10.00">Ogre::DefaultTextureGpuManager</text>
<text text-anchor="middle" x="447.25" y="-5.75" font-family="Helvetica,sans-Serif" font-size="10.00">Listener</text>
</a>
</g>
</g>
<!-- Node21&#45;&gt;Node22 -->
<g id="edge21_Node000021_Node000022" class="edge">
<title>Node21&#45;&gt;Node22</title>
<g id="a_edge21_Node000021_Node000022"><a xlink:title=" ">
<path fill="none" stroke="#63b8ff" d="M319.8,-81.14C322.45,-79.94 325.02,-78.65 327.5,-77.25 347.74,-65.79 343.63,-51.36 363.5,-39.25 368.74,-36.06 374.42,-33.27 380.27,-30.85"/>
<polygon fill="#63b8ff" stroke="#63b8ff" points="318.76,-77.79 310.73,-84.7 321.32,-84.3 318.76,-77.79"/>
</a>
</g>
</g>
</g>
</svg>
