<?xml version="1.0" encoding="UTF-8" standalone="no"?>
<!DOCTYPE svg PUBLIC "-//W3C//DTD SVG 1.1//EN"
 "http://www.w3.org/Graphics/SVG/1.1/DTD/svg11.dtd">
<!-- Generated by graphviz version 9.0.0 (20230911.1827)
 -->
<!-- Title: Ogre::BufferInterface Pages: 1 -->
<svg width="511pt" height="230pt"
 viewBox="0.00 0.00 510.50 230.25" xmlns="http://www.w3.org/2000/svg" xmlns:xlink="http://www.w3.org/1999/xlink">
<g id="graph0" class="graph" transform="scale(1 1) rotate(0) translate(4 226.25)">
<title>Ogre::BufferInterface</title>
<!-- Node1 -->
<g id="Node000001" class="node">
<title>Node1</title>
<g id="a_Node000001"><a xlink:title="Most (if not all) buffers, can be treated with the same code.">
<polygon fill="#999999" stroke="#666666" points="105.25,-111.25 0,-111.25 0,-92 105.25,-92 105.25,-111.25"/>
<text text-anchor="middle" x="52.62" y="-97.75" font-family="Helvetica,sans-Serif" font-size="10.00">Ogre::BufferInterface</text>
</a>
</g>
</g>
<!-- Node2 -->
<g id="Node000002" class="node">
<title>Node2</title>
<g id="a_Node000002"><a xlink:href="class_ogre_1_1_d3_d11_buffer_interface_base.html" target="_top" xlink:title="For D3D11, most (if not all) buffers, can be treated with the same code.">
<polygon fill="white" stroke="#666666" points="298.25,-204.25 141.25,-204.25 141.25,-185 298.25,-185 298.25,-204.25"/>
<text text-anchor="middle" x="219.75" y="-190.75" font-family="Helvetica,sans-Serif" font-size="10.00">Ogre::D3D11BufferInterfaceBase</text>
</a>
</g>
</g>
<!-- Node1&#45;&gt;Node2 -->
<g id="edge1_Node000001_Node000002" class="edge">
<title>Node1&#45;&gt;Node2</title>
<g id="a_edge1_Node000001_Node000002"><a xlink:title=" ">
<path fill="none" stroke="#63b8ff" d="M69.78,-119.78C86.12,-137 112.94,-162.32 141.25,-176.62 147.54,-179.8 154.39,-182.43 161.35,-184.6"/>
<polygon fill="#63b8ff" stroke="#63b8ff" points="72.62,-117.7 63.27,-112.72 67.48,-122.45 72.62,-117.7"/>
</a>
</g>
</g>
<!-- Node5 -->
<g id="Node000005" class="node">
<title>Node5</title>
<g id="a_Node000005"><a xlink:href="class_ogre_1_1_g_l3_plus_buffer_interface.html" target="_top" xlink:title="For GL3+, most (if not all) buffers, can be treated with the same code.">
<polygon fill="white" stroke="#666666" points="291.5,-167.25 148,-167.25 148,-148 291.5,-148 291.5,-167.25"/>
<text text-anchor="middle" x="219.75" y="-153.75" font-family="Helvetica,sans-Serif" font-size="10.00">Ogre::GL3PlusBufferInterface</text>
</a>
</g>
</g>
<!-- Node1&#45;&gt;Node5 -->
<g id="edge4_Node000001_Node000005" class="edge">
<title>Node1&#45;&gt;Node5</title>
<g id="a_edge4_Node000001_Node000005"><a xlink:title=" ">
<path fill="none" stroke="#63b8ff" d="M83.97,-116.4C100.6,-124.09 121.75,-133.19 141.25,-139.62 150.17,-142.57 159.82,-145.22 169.18,-147.52"/>
<polygon fill="#63b8ff" stroke="#63b8ff" points="85.66,-113.33 75.13,-112.24 82.69,-119.67 85.66,-113.33"/>
</a>
</g>
</g>
<!-- Node6 -->
<g id="Node000006" class="node">
<title>Node6</title>
<g id="a_Node000006"><a xlink:href="class_ogre_1_1_g_l_e_s2_buffer_interface.html" target="_top" xlink:title="For GL3+, most (if not all) buffers, can be treated with the same code.">
<polygon fill="white" stroke="#666666" points="288.12,-130.25 151.38,-130.25 151.38,-111 288.12,-111 288.12,-130.25"/>
<text text-anchor="middle" x="219.75" y="-116.75" font-family="Helvetica,sans-Serif" font-size="10.00">Ogre::GLES2BufferInterface</text>
</a>
</g>
</g>
<!-- Node1&#45;&gt;Node6 -->
<g id="edge5_Node000001_Node000006" class="edge">
<title>Node1&#45;&gt;Node6</title>
<g id="a_edge5_Node000001_Node000006"><a xlink:title=" ">
<path fill="none" stroke="#63b8ff" d="M116.51,-108.86C127.82,-110.16 139.64,-111.52 151.07,-112.84"/>
<polygon fill="#63b8ff" stroke="#63b8ff" points="117.26,-105.42 106.92,-107.76 116.46,-112.38 117.26,-105.42"/>
</a>
</g>
</g>
<!-- Node7 -->
<g id="Node000007" class="node">
<title>Node7</title>
<g id="a_Node000007"><a xlink:href="class_ogre_1_1_metal_buffer_interface.html" target="_top" xlink:title="For Metal, all buffers can be treated with the same code.">
<polygon fill="white" stroke="#666666" points="284.38,-93.25 155.12,-93.25 155.12,-74 284.38,-74 284.38,-93.25"/>
<text text-anchor="middle" x="219.75" y="-79.75" font-family="Helvetica,sans-Serif" font-size="10.00">Ogre::MetalBufferInterface</text>
</a>
</g>
</g>
<!-- Node1&#45;&gt;Node7 -->
<g id="edge6_Node000001_Node000007" class="edge">
<title>Node1&#45;&gt;Node7</title>
<g id="a_edge6_Node000001_Node000007"><a xlink:title=" ">
<path fill="none" stroke="#63b8ff" d="M116.64,-94.76C129.09,-93.4 142.16,-91.97 154.65,-90.61"/>
<polygon fill="#63b8ff" stroke="#63b8ff" points="116.48,-91.25 106.92,-95.82 117.24,-98.21 116.48,-91.25"/>
</a>
</g>
</g>
<!-- Node8 -->
<g id="Node000008" class="node">
<title>Node8</title>
<g id="a_Node000008"><a xlink:href="class_ogre_1_1_n_u_l_l_buffer_interface.html" target="_top" xlink:title="For GL3+, most (if not all) buffers, can be treated with the same code.">
<polygon fill="white" stroke="#666666" points="285.88,-56.25 153.62,-56.25 153.62,-37 285.88,-37 285.88,-56.25"/>
<text text-anchor="middle" x="219.75" y="-42.75" font-family="Helvetica,sans-Serif" font-size="10.00">Ogre::NULLBufferInterface</text>
</a>
</g>
</g>
<!-- Node1&#45;&gt;Node8 -->
<g id="edge7_Node000001_Node000008" class="edge">
<title>Node1&#45;&gt;Node8</title>
<g id="a_edge7_Node000001_Node000008"><a xlink:title=" ">
<path fill="none" stroke="#63b8ff" d="M84.67,-86.98C101.21,-79.57 122.05,-70.86 141.25,-64.62 150.32,-61.68 160.12,-59.02 169.62,-56.7"/>
<polygon fill="#63b8ff" stroke="#63b8ff" points="83.51,-83.66 75.86,-90.99 86.42,-90.03 83.51,-83.66"/>
</a>
</g>
</g>
<!-- Node9 -->
<g id="Node000009" class="node">
<title>Node9</title>
<g id="a_Node000009"><a xlink:href="class_ogre_1_1_vulkan_buffer_interface.html" target="_top" xlink:title=" ">
<polygon fill="white" stroke="#666666" points="287.38,-19.25 152.12,-19.25 152.12,0 287.38,0 287.38,-19.25"/>
<text text-anchor="middle" x="219.75" y="-5.75" font-family="Helvetica,sans-Serif" font-size="10.00">Ogre::VulkanBufferInterface</text>
</a>
</g>
</g>
<!-- Node1&#45;&gt;Node9 -->
<g id="edge8_Node000001_Node000009" class="edge">
<title>Node1&#45;&gt;Node9</title>
<g id="a_edge8_Node000001_Node000009"><a xlink:title=" ">
<path fill="none" stroke="#63b8ff" d="M70.1,-83.44C86.5,-66.46 113.21,-41.68 141.25,-27.62 147.55,-24.47 154.41,-21.85 161.37,-19.69"/>
<polygon fill="#63b8ff" stroke="#63b8ff" points="67.84,-80.73 63.54,-90.41 72.94,-85.53 67.84,-80.73"/>
</a>
</g>
</g>
<!-- Node3 -->
<g id="Node000003" class="node">
<title>Node3</title>
<g id="a_Node000003"><a xlink:href="class_ogre_1_1_d3_d11_buffer_interface.html" target="_top" xlink:title="For D3D11, most (if not all) buffers, can be treated with the same code.">
<polygon fill="white" stroke="#666666" points="485.62,-222.25 351.12,-222.25 351.12,-203 485.62,-203 485.62,-222.25"/>
<text text-anchor="middle" x="418.38" y="-208.75" font-family="Helvetica,sans-Serif" font-size="10.00">Ogre::D3D11BufferInterface</text>
</a>
</g>
</g>
<!-- Node2&#45;&gt;Node3 -->
<g id="edge2_Node000002_Node000003" class="edge">
<title>Node2&#45;&gt;Node3</title>
<g id="a_edge2_Node000002_Node000003"><a xlink:title=" ">
<path fill="none" stroke="#63b8ff" d="M310.17,-202.81C323.87,-204.07 337.81,-205.34 350.9,-206.54"/>
<polygon fill="#63b8ff" stroke="#63b8ff" points="310.53,-199.33 300.25,-201.9 309.89,-206.3 310.53,-199.33"/>
</a>
</g>
</g>
<!-- Node4 -->
<g id="Node000004" class="node">
<title>Node4</title>
<g id="a_Node000004"><a xlink:href="class_ogre_1_1_d3_d11_compat_buffer_interface.html" target="_top" xlink:title="In D3D11, const buffers can&#39;t be bound by offset.">
<polygon fill="white" stroke="#666666" points="502.5,-185.25 334.25,-185.25 334.25,-166 502.5,-166 502.5,-185.25"/>
<text text-anchor="middle" x="418.38" y="-171.75" font-family="Helvetica,sans-Serif" font-size="10.00">Ogre::D3D11CompatBufferInterface</text>
</a>
</g>
</g>
<!-- Node2&#45;&gt;Node4 -->
<g id="edge3_Node000002_Node000004" class="edge">
<title>Node2&#45;&gt;Node4</title>
<g id="a_edge3_Node000002_Node000004"><a xlink:title=" ">
<path fill="none" stroke="#63b8ff" d="M309.97,-186C317.96,-185.23 326.04,-184.45 333.98,-183.68"/>
<polygon fill="#63b8ff" stroke="#63b8ff" points="309.87,-182.5 300.25,-186.94 310.54,-189.46 309.87,-182.5"/>
</a>
</g>
</g>
</g>
</svg>
