<?xml version="1.0" encoding="UTF-8" standalone="no"?>
<!DOCTYPE svg PUBLIC "-//W3C//DTD SVG 1.1//EN"
 "http://www.w3.org/Graphics/SVG/1.1/DTD/svg11.dtd">
<!-- Generated by graphviz version 9.0.0 (20230911.1827)
 -->
<!-- Title: Ogre::AsyncTicket Pages: 1 -->
<svg width="394pt" height="212pt"
 viewBox="0.00 0.00 394.25 212.25" xmlns="http://www.w3.org/2000/svg" xmlns:xlink="http://www.w3.org/1999/xlink">
<g id="graph0" class="graph" transform="scale(1 1) rotate(0) translate(4 208.25)">
<title>Ogre::AsyncTicket</title>
<!-- Node1 -->
<g id="Node000001" class="node">
<title>Node1</title>
<g id="a_Node000001"><a xlink:title="In Ogre 2.0 data structures, reading data from GPU back to CPU is asynchronous.">
<polygon fill="#999999" stroke="#666666" points="216.5,-111.25 121,-111.25 121,-92 216.5,-92 216.5,-111.25"/>
<text text-anchor="middle" x="168.75" y="-97.75" font-family="Helvetica,sans-Serif" font-size="10.00">Ogre::AsyncTicket</text>
</a>
</g>
</g>
<!-- Node3 -->
<g id="Node000003" class="node">
<title>Node3</title>
<g id="a_Node000003"><a xlink:href="class_ogre_1_1_d3_d11_async_ticket.html" target="_top" xlink:title=" ">
<polygon fill="white" stroke="#666666" points="381.75,-204.25 257,-204.25 257,-185 381.75,-185 381.75,-204.25"/>
<text text-anchor="middle" x="319.38" y="-190.75" font-family="Helvetica,sans-Serif" font-size="10.00">Ogre::D3D11AsyncTicket</text>
</a>
</g>
</g>
<!-- Node1&#45;&gt;Node3 -->
<g id="edge2_Node000001_Node000003" class="edge">
<title>Node1&#45;&gt;Node3</title>
<g id="a_edge2_Node000001_Node000003"><a xlink:title=" ">
<path fill="none" stroke="#63b8ff" d="M185.35,-120.05C200.75,-137.12 225.82,-162 252.5,-176.62 258.22,-179.76 264.52,-182.38 270.89,-184.56"/>
<polygon fill="#63b8ff" stroke="#63b8ff" points="188.06,-117.84 178.83,-112.63 182.8,-122.45 188.06,-117.84"/>
</a>
</g>
</g>
<!-- Node4 -->
<g id="Node000004" class="node">
<title>Node4</title>
<g id="a_Node000004"><a xlink:href="class_ogre_1_1_g_l3_plus_async_ticket.html" target="_top" xlink:title=" ">
<polygon fill="white" stroke="#666666" points="386.25,-167.25 252.5,-167.25 252.5,-148 386.25,-148 386.25,-167.25"/>
<text text-anchor="middle" x="319.38" y="-153.75" font-family="Helvetica,sans-Serif" font-size="10.00">Ogre::GL3PlusAsyncTicket</text>
</a>
</g>
</g>
<!-- Node1&#45;&gt;Node4 -->
<g id="edge3_Node000001_Node000004" class="edge">
<title>Node1&#45;&gt;Node4</title>
<g id="a_edge3_Node000001_Node000004"><a xlink:title=" ">
<path fill="none" stroke="#63b8ff" d="M199.18,-116.57C214.77,-124.12 234.39,-133.04 252.5,-139.62 260.41,-142.5 269,-145.17 277.29,-147.52"/>
<polygon fill="#63b8ff" stroke="#63b8ff" points="200.98,-113.55 190.46,-112.28 197.89,-119.83 200.98,-113.55"/>
</a>
</g>
</g>
<!-- Node5 -->
<g id="Node000005" class="node">
<title>Node5</title>
<g id="a_Node000005"><a xlink:href="class_ogre_1_1_g_l_e_s2_async_ticket.html" target="_top" xlink:title=" ">
<polygon fill="white" stroke="#666666" points="382.88,-130.25 255.88,-130.25 255.88,-111 382.88,-111 382.88,-130.25"/>
<text text-anchor="middle" x="319.38" y="-116.75" font-family="Helvetica,sans-Serif" font-size="10.00">Ogre::GLES2AsyncTicket</text>
</a>
</g>
</g>
<!-- Node1&#45;&gt;Node5 -->
<g id="edge4_Node000001_Node000005" class="edge">
<title>Node1&#45;&gt;Node5</title>
<g id="a_edge4_Node000001_Node000005"><a xlink:title=" ">
<path fill="none" stroke="#63b8ff" d="M228.02,-109.07C237.08,-110.23 246.47,-111.43 255.61,-112.6"/>
<polygon fill="#63b8ff" stroke="#63b8ff" points="228.64,-105.63 218.28,-107.83 227.75,-112.57 228.64,-105.63"/>
</a>
</g>
</g>
<!-- Node6 -->
<g id="Node000006" class="node">
<title>Node6</title>
<g id="a_Node000006"><a xlink:href="class_ogre_1_1_metal_async_ticket.html" target="_top" xlink:title=" ">
<polygon fill="white" stroke="#666666" points="379.12,-93.25 259.62,-93.25 259.62,-74 379.12,-74 379.12,-93.25"/>
<text text-anchor="middle" x="319.38" y="-79.75" font-family="Helvetica,sans-Serif" font-size="10.00">Ogre::MetalAsyncTicket</text>
</a>
</g>
</g>
<!-- Node1&#45;&gt;Node6 -->
<g id="edge5_Node000001_Node000006" class="edge">
<title>Node1&#45;&gt;Node6</title>
<g id="a_edge5_Node000001_Node000006"><a xlink:title=" ">
<path fill="none" stroke="#63b8ff" d="M228.14,-94.55C238.4,-93.31 249.09,-92.02 259.37,-90.77"/>
<polygon fill="#63b8ff" stroke="#63b8ff" points="227.79,-91.07 218.28,-95.75 228.63,-98.02 227.79,-91.07"/>
</a>
</g>
</g>
<!-- Node7 -->
<g id="Node000007" class="node">
<title>Node7</title>
<g id="a_Node000007"><a xlink:href="class_ogre_1_1_n_u_l_l_async_ticket.html" target="_top" xlink:title=" ">
<polygon fill="white" stroke="#666666" points="380.62,-56.25 258.12,-56.25 258.12,-37 380.62,-37 380.62,-56.25"/>
<text text-anchor="middle" x="319.38" y="-42.75" font-family="Helvetica,sans-Serif" font-size="10.00">Ogre::NULLAsyncTicket</text>
</a>
</g>
</g>
<!-- Node1&#45;&gt;Node7 -->
<g id="edge6_Node000001_Node000007" class="edge">
<title>Node1&#45;&gt;Node7</title>
<g id="a_edge6_Node000001_Node000007"><a xlink:title=" ">
<path fill="none" stroke="#63b8ff" d="M199.85,-86.82C215.35,-79.55 234.68,-71 252.5,-64.62 260.54,-61.75 269.26,-59.07 277.66,-56.7"/>
<polygon fill="#63b8ff" stroke="#63b8ff" points="198.69,-83.5 191.16,-90.96 201.7,-89.82 198.69,-83.5"/>
</a>
</g>
</g>
<!-- Node8 -->
<g id="Node000008" class="node">
<title>Node8</title>
<g id="a_Node000008"><a xlink:href="class_ogre_1_1_vulkan_async_ticket.html" target="_top" xlink:title=" ">
<polygon fill="white" stroke="#666666" points="382.12,-19.25 256.62,-19.25 256.62,0 382.12,0 382.12,-19.25"/>
<text text-anchor="middle" x="319.38" y="-5.75" font-family="Helvetica,sans-Serif" font-size="10.00">Ogre::VulkanAsyncTicket</text>
</a>
</g>
</g>
<!-- Node1&#45;&gt;Node8 -->
<g id="edge7_Node000001_Node000008" class="edge">
<title>Node1&#45;&gt;Node8</title>
<g id="a_edge7_Node000001_Node000008"><a xlink:title=" ">
<path fill="none" stroke="#63b8ff" d="M185.65,-83.18C201.11,-66.36 226.07,-42 252.5,-27.62 258.23,-24.51 264.54,-21.9 270.91,-19.73"/>
<polygon fill="#63b8ff" stroke="#63b8ff" points="183.15,-80.72 179.1,-90.51 188.37,-85.39 183.15,-80.72"/>
</a>
</g>
</g>
<!-- Node2 -->
<g id="Node000002" class="node">
<title>Node2</title>
<g id="a_Node000002"><a xlink:href="class_ogre_1_1_allocated_object.html" target="_top" xlink:title="Superclass for all objects that wish to use custom memory allocators when their new / delete operator...">
<polygon fill="white" stroke="#666666" points="85,-111.25 0,-111.25 0,-92 85,-92 85,-111.25"/>
<text text-anchor="middle" x="42.5" y="-97.75" font-family="Helvetica,sans-Serif" font-size="10.00">RenderSysAlloc</text>
</a>
</g>
</g>
<!-- Node2&#45;&gt;Node1 -->
<g id="edge1_Node000001_Node000002" class="edge">
<title>Node2&#45;&gt;Node1</title>
<g id="a_edge1_Node000001_Node000002"><a xlink:title=" ">
<path fill="none" stroke="#63b8ff" d="M96.73,-101.62C104.73,-101.62 112.93,-101.62 120.79,-101.62"/>
<polygon fill="#63b8ff" stroke="#63b8ff" points="96.73,-98.13 86.73,-101.63 96.73,-105.13 96.73,-98.13"/>
</a>
</g>
</g>
</g>
</svg>
