<?xml version="1.0" encoding="UTF-8" standalone="no"?>
<!DOCTYPE svg PUBLIC "-//W3C//DTD SVG 1.1//EN"
 "http://www.w3.org/Graphics/SVG/1.1/DTD/svg11.dtd">
<!-- Generated by graphviz version 9.0.0 (20230911.1827)
 -->
<!-- Title: Ogre::HighLevelGpuProgramFactory Pages: 1 -->
<svg width="457pt" height="261pt"
 viewBox="0.00 0.00 456.50 261.25" xmlns="http://www.w3.org/2000/svg" xmlns:xlink="http://www.w3.org/1999/xlink">
<g id="graph0" class="graph" transform="scale(1 1) rotate(0) translate(4 257.25)">
<title>Ogre::HighLevelGpuProgramFactory</title>
<!-- Node1 -->
<g id="Node000001" class="node">
<title>Node1</title>
<g id="a_Node000001"><a xlink:title="Interface definition for factories of HighLevelGpuProgram.">
<polygon fill="#999999" stroke="#666666" points="246.5,-147.88 106,-147.88 106,-117.38 246.5,-117.38 246.5,-147.88"/>
<text text-anchor="start" x="114" y="-134.38" font-family="Helvetica,sans-Serif" font-size="10.00">Ogre::HighLevelGpuProgram</text>
<text text-anchor="middle" x="176.25" y="-123.12" font-family="Helvetica,sans-Serif" font-size="10.00">Factory</text>
</a>
</g>
</g>
<!-- Node3 -->
<g id="Node000003" class="node">
<title>Node3</title>
<g id="a_Node000003"><a xlink:href="class_ogre_1_1_d3_d11_h_l_s_l_program_factory.html" target="_top" xlink:title="Factory class for D3D11 HLSL programs.">
<polygon fill="white" stroke="#666666" points="448.5,-253.25 282.5,-253.25 282.5,-234 448.5,-234 448.5,-253.25"/>
<text text-anchor="middle" x="365.5" y="-239.75" font-family="Helvetica,sans-Serif" font-size="10.00">Ogre::D3D11HLSLProgramFactory</text>
</a>
</g>
</g>
<!-- Node1&#45;&gt;Node3 -->
<g id="edge2_Node000001_Node000003" class="edge">
<title>Node1&#45;&gt;Node3</title>
<g id="a_edge2_Node000001_Node000003"><a xlink:title=" ">
<path fill="none" stroke="#63b8ff" d="M197.78,-156.69C217.38,-178.08 248.83,-208.53 282.5,-225.62 288.74,-228.79 295.52,-231.41 302.42,-233.56"/>
<polygon fill="#63b8ff" stroke="#63b8ff" points="200.42,-154.39 191.15,-149.27 195.21,-159.06 200.42,-154.39"/>
</a>
</g>
</g>
<!-- Node4 -->
<g id="Node000004" class="node">
<title>Node4</title>
<g id="a_Node000004"><a xlink:href="class_ogre_1_1_d3_d9_h_l_s_l_program_factory.html" target="_top" xlink:title="Factory class for D3D9 HLSL programs.">
<polygon fill="white" stroke="#666666" points="445.88,-216.25 285.12,-216.25 285.12,-197 445.88,-197 445.88,-216.25"/>
<text text-anchor="middle" x="365.5" y="-202.75" font-family="Helvetica,sans-Serif" font-size="10.00">Ogre::D3D9HLSLProgramFactory</text>
</a>
</g>
</g>
<!-- Node1&#45;&gt;Node4 -->
<g id="edge3_Node000001_Node000004" class="edge">
<title>Node1&#45;&gt;Node4</title>
<g id="a_edge3_Node000001_Node000004"><a xlink:title=" ">
<path fill="none" stroke="#63b8ff" d="M211.75,-154.07C231.78,-165.72 257.85,-179.56 282.5,-188.62 290.84,-191.69 299.87,-194.32 308.77,-196.55"/>
<polygon fill="#63b8ff" stroke="#63b8ff" points="213.56,-151.07 203.17,-148.99 209.99,-157.1 213.56,-151.07"/>
</a>
</g>
</g>
<!-- Node5 -->
<g id="Node000005" class="node">
<title>Node5</title>
<g id="a_Node000005"><a xlink:href="class_ogre_1_1_g_l_s_l_e_s_shader_factory.html" target="_top" xlink:title="Factory class for GLSL ES programs.">
<polygon fill="white" stroke="#666666" points="437.25,-179.25 293.75,-179.25 293.75,-160 437.25,-160 437.25,-179.25"/>
<text text-anchor="middle" x="365.5" y="-165.75" font-family="Helvetica,sans-Serif" font-size="10.00">Ogre::GLSLESShaderFactory</text>
</a>
</g>
</g>
<!-- Node1&#45;&gt;Node5 -->
<g id="edge4_Node000001_Node000005" class="edge">
<title>Node1&#45;&gt;Node5</title>
<g id="a_edge4_Node000001_Node000005"><a xlink:title=" ">
<path fill="none" stroke="#63b8ff" d="M258.22,-148.62C276.96,-152.33 296.4,-156.17 313.44,-159.54"/>
<polygon fill="#63b8ff" stroke="#63b8ff" points="258.95,-145.2 248.46,-146.7 257.59,-152.07 258.95,-145.2"/>
</a>
</g>
</g>
<!-- Node6 -->
<g id="Node000006" class="node">
<title>Node6</title>
<g id="a_Node000006"><a xlink:href="class_ogre_1_1_g_l_s_l_shader_factory.html" target="_top" xlink:title="Factory class for GLSL shaders.">
<polygon fill="white" stroke="#666666" points="430.88,-142.25 300.12,-142.25 300.12,-123 430.88,-123 430.88,-142.25"/>
<text text-anchor="middle" x="365.5" y="-128.75" font-family="Helvetica,sans-Serif" font-size="10.00">Ogre::GLSLShaderFactory</text>
</a>
</g>
</g>
<!-- Node1&#45;&gt;Node6 -->
<g id="edge5_Node000001_Node000006" class="edge">
<title>Node1&#45;&gt;Node6</title>
<g id="a_edge5_Node000001_Node000006"><a xlink:title=" ">
<path fill="none" stroke="#63b8ff" d="M258.44,-132.62C272.23,-132.62 286.38,-132.62 299.67,-132.62"/>
<polygon fill="#63b8ff" stroke="#63b8ff" points="258.49,-129.13 248.49,-132.63 258.49,-136.13 258.49,-129.13"/>
</a>
</g>
</g>
<!-- Node7 -->
<g id="Node000007" class="node">
<title>Node7</title>
<g id="a_Node000007"><a xlink:href="class_ogre_1_1_metal_program_factory.html" target="_top" xlink:title="Factory class for Metal programs.">
<polygon fill="white" stroke="#666666" points="432.75,-105.25 298.25,-105.25 298.25,-86 432.75,-86 432.75,-105.25"/>
<text text-anchor="middle" x="365.5" y="-91.75" font-family="Helvetica,sans-Serif" font-size="10.00">Ogre::MetalProgramFactory</text>
</a>
</g>
</g>
<!-- Node1&#45;&gt;Node7 -->
<g id="edge6_Node000001_Node000007" class="edge">
<title>Node1&#45;&gt;Node7</title>
<g id="a_edge6_Node000001_Node000007"><a xlink:title=" ">
<path fill="none" stroke="#63b8ff" d="M258.22,-116.63C276.96,-112.92 296.4,-109.08 313.44,-105.71"/>
<polygon fill="#63b8ff" stroke="#63b8ff" points="257.59,-113.18 248.46,-118.55 258.95,-120.05 257.59,-113.18"/>
</a>
</g>
</g>
<!-- Node8 -->
<g id="Node000008" class="node">
<title>Node8</title>
<g id="a_Node000008"><a xlink:href="class_ogre_1_1_unified_high_level_gpu_program_factory.html" target="_top" xlink:title="Factory class for Unified programs.">
<polygon fill="white" stroke="#666666" points="432.38,-67.88 298.62,-67.88 298.62,-37.38 432.38,-37.38 432.38,-67.88"/>
<text text-anchor="start" x="306.62" y="-54.38" font-family="Helvetica,sans-Serif" font-size="10.00">Ogre::UnifiedHighLevelGpu</text>
<text text-anchor="middle" x="365.5" y="-43.12" font-family="Helvetica,sans-Serif" font-size="10.00">ProgramFactory</text>
</a>
</g>
</g>
<!-- Node1&#45;&gt;Node8 -->
<g id="edge7_Node000001_Node000008" class="edge">
<title>Node1&#45;&gt;Node8</title>
<g id="a_edge7_Node000001_Node000008"><a xlink:title=" ">
<path fill="none" stroke="#63b8ff" d="M212.82,-111.36C232.81,-100.01 258.5,-86.4 282.5,-76.62 289.78,-73.66 297.56,-70.89 305.32,-68.37"/>
<polygon fill="#63b8ff" stroke="#63b8ff" points="211.15,-108.28 204.23,-116.3 214.64,-114.34 211.15,-108.28"/>
</a>
</g>
</g>
<!-- Node9 -->
<g id="Node000009" class="node">
<title>Node9</title>
<g id="a_Node000009"><a xlink:href="class_ogre_1_1_vulkan_program_factory.html" target="_top" xlink:title="Factory class for Vulkan programs.">
<polygon fill="white" stroke="#666666" points="435.75,-19.25 295.25,-19.25 295.25,0 435.75,0 435.75,-19.25"/>
<text text-anchor="middle" x="365.5" y="-5.75" font-family="Helvetica,sans-Serif" font-size="10.00">Ogre::VulkanProgramFactory</text>
</a>
</g>
</g>
<!-- Node1&#45;&gt;Node9 -->
<g id="edge8_Node000001_Node000009" class="edge">
<title>Node1&#45;&gt;Node9</title>
<g id="a_edge8_Node000001_Node000009"><a xlink:title=" ">
<path fill="none" stroke="#63b8ff" d="M195.13,-108.39C214.12,-84.42 246.35,-48.54 282.5,-28.62 289.03,-25.03 296.21,-22.11 303.52,-19.74"/>
<polygon fill="#63b8ff" stroke="#63b8ff" points="192.56,-105.99 189.21,-116.04 198.1,-110.27 192.56,-105.99"/>
</a>
</g>
</g>
<!-- Node2 -->
<g id="Node000002" class="node">
<title>Node2</title>
<g id="a_Node000002"><a xlink:href="class_ogre_1_1_allocated_object.html" target="_top" xlink:title="Superclass for all objects that wish to use custom memory allocators when their new / delete operator...">
<polygon fill="white" stroke="#666666" points="70,-142.25 0,-142.25 0,-123 70,-123 70,-142.25"/>
<text text-anchor="middle" x="35" y="-128.75" font-family="Helvetica,sans-Serif" font-size="10.00">FactoryAlloc</text>
</a>
</g>
</g>
<!-- Node2&#45;&gt;Node1 -->
<g id="edge1_Node000001_Node000002" class="edge">
<title>Node2&#45;&gt;Node1</title>
<g id="a_edge1_Node000001_Node000002"><a xlink:title=" ">
<path fill="none" stroke="#63b8ff" d="M81.67,-132.62C89.34,-132.62 97.46,-132.62 105.58,-132.62"/>
<polygon fill="#63b8ff" stroke="#63b8ff" points="81.93,-129.13 71.93,-132.63 81.93,-136.13 81.93,-129.13"/>
</a>
</g>
</g>
</g>
</svg>
