<?xml version="1.0" encoding="UTF-8" standalone="no"?>
<!DOCTYPE svg PUBLIC "-//W3C//DTD SVG 1.1//EN"
 "http://www.w3.org/Graphics/SVG/1.1/DTD/svg11.dtd">
<!-- Generated by graphviz version 9.0.0 (20230911.1827)
 -->
<!-- Title: Ogre::Window Pages: 1 -->
<svg width="729pt" height="357pt"
 viewBox="0.00 0.00 729.25 356.88" xmlns="http://www.w3.org/2000/svg" xmlns:xlink="http://www.w3.org/1999/xlink">
<g id="graph0" class="graph" transform="scale(1 1) rotate(0) translate(4 352.88)">
<title>Ogre::Window</title>
<!-- Node1 -->
<g id="Node000001" class="node">
<title>Node1</title>
<g id="a_Node000001"><a xlink:title=" ">
<polygon fill="#999999" stroke="#666666" points="197,-189.25 121,-189.25 121,-170 197,-170 197,-189.25"/>
<text text-anchor="middle" x="159" y="-175.75" font-family="Helvetica,sans-Serif" font-size="10.00">Ogre::Window</text>
</a>
</g>
</g>
<!-- Node3 -->
<g id="Node000003" class="node">
<title>Node3</title>
<g id="a_Node000003"><a xlink:href="class_ogre_1_1_cocoa_window.html" target="_top" xlink:title=" ">
<polygon fill="white" stroke="#666666" points="345.75,-337.25 242,-337.25 242,-318 345.75,-318 345.75,-337.25"/>
<text text-anchor="middle" x="293.88" y="-323.75" font-family="Helvetica,sans-Serif" font-size="10.00">Ogre::CocoaWindow</text>
</a>
</g>
</g>
<!-- Node1&#45;&gt;Node3 -->
<g id="edge2_Node000001_Node000003" class="edge">
<title>Node1&#45;&gt;Node3</title>
<g id="a_edge2_Node000001_Node000003"><a xlink:title=" ">
<path fill="none" stroke="#63b8ff" d="M166.11,-200.21C175.68,-228.93 196.95,-280.73 233,-309.62 236.98,-312.82 241.52,-315.44 246.27,-317.6"/>
<polygon fill="#63b8ff" stroke="#63b8ff" points="169.51,-199.38 163.17,-190.89 162.84,-201.48 169.51,-199.38"/>
</a>
</g>
</g>
<!-- Node4 -->
<g id="Node000004" class="node">
<title>Node4</title>
<g id="a_Node000004"><a xlink:href="class_ogre_1_1_d3_d11_window.html" target="_top" xlink:title=" ">
<polygon fill="white" stroke="#666666" points="346.5,-300.25 241.25,-300.25 241.25,-281 346.5,-281 346.5,-300.25"/>
<text text-anchor="middle" x="293.88" y="-286.75" font-family="Helvetica,sans-Serif" font-size="10.00">Ogre::D3D11Window</text>
</a>
</g>
</g>
<!-- Node1&#45;&gt;Node4 -->
<g id="edge3_Node000001_Node000004" class="edge">
<title>Node1&#45;&gt;Node4</title>
<g id="a_edge3_Node000001_Node000004"><a xlink:title=" ">
<path fill="none" stroke="#63b8ff" d="M170.65,-199.54C182.96,-220.68 205.13,-253.61 233,-272.62 237.66,-275.81 242.9,-278.44 248.29,-280.61"/>
<polygon fill="#63b8ff" stroke="#63b8ff" points="173.82,-198.03 165.88,-191.01 167.71,-201.45 173.82,-198.03"/>
</a>
</g>
</g>
<!-- Node6 -->
<g id="Node000006" class="node">
<title>Node6</title>
<g id="a_Node000006"><a xlink:href="class_ogre_1_1_e_g_l_window.html" target="_top" xlink:title=" ">
<polygon fill="white" stroke="#666666" points="341.62,-263.25 246.12,-263.25 246.12,-244 341.62,-244 341.62,-263.25"/>
<text text-anchor="middle" x="293.88" y="-249.75" font-family="Helvetica,sans-Serif" font-size="10.00">Ogre::EGLWindow</text>
</a>
</g>
</g>
<!-- Node1&#45;&gt;Node6 -->
<g id="edge5_Node000001_Node000006" class="edge">
<title>Node1&#45;&gt;Node6</title>
<g id="a_edge5_Node000001_Node000006"><a xlink:title=" ">
<path fill="none" stroke="#63b8ff" d="M178.79,-197.14C192.82,-209.39 212.94,-225.35 233,-235.62 238.99,-238.69 245.59,-241.33 252.16,-243.56"/>
<polygon fill="#63b8ff" stroke="#63b8ff" points="181.43,-194.8 171.65,-190.72 176.75,-200.01 181.43,-194.8"/>
</a>
</g>
</g>
<!-- Node11 -->
<g id="Node000011" class="node">
<title>Node11</title>
<g id="a_Node000011"><a xlink:href="class_ogre_1_1_egl_p_buffer_window.html" target="_top" xlink:title="PBuffer implementation of EGL When supported, PBuffer is a surface&#45;less implementation of OpenGL.">
<polygon fill="white" stroke="#666666" points="354.75,-226.25 233,-226.25 233,-207 354.75,-207 354.75,-226.25"/>
<text text-anchor="middle" x="293.88" y="-212.75" font-family="Helvetica,sans-Serif" font-size="10.00">Ogre::EglPBufferWindow</text>
</a>
</g>
</g>
<!-- Node1&#45;&gt;Node11 -->
<g id="edge10_Node000001_Node000011" class="edge">
<title>Node1&#45;&gt;Node11</title>
<g id="a_edge10_Node000001_Node000011"><a xlink:title=" ">
<path fill="none" stroke="#63b8ff" d="M207.23,-192.78C223.47,-197.3 241.38,-202.29 256.61,-206.53"/>
<polygon fill="#63b8ff" stroke="#63b8ff" points="208.34,-189.45 197.77,-190.14 206.46,-196.2 208.34,-189.45"/>
</a>
</g>
</g>
<!-- Node12 -->
<g id="Node000012" class="node">
<title>Node12</title>
<g id="a_Node000012"><a xlink:href="class_ogre_1_1_g_l_x_window.html" target="_top" xlink:title=" ">
<polygon fill="white" stroke="#666666" points="342,-189.25 245.75,-189.25 245.75,-170 342,-170 342,-189.25"/>
<text text-anchor="middle" x="293.88" y="-175.75" font-family="Helvetica,sans-Serif" font-size="10.00">Ogre::GLXWindow</text>
</a>
</g>
</g>
<!-- Node1&#45;&gt;Node12 -->
<g id="edge11_Node000001_Node000012" class="edge">
<title>Node1&#45;&gt;Node12</title>
<g id="a_edge11_Node000001_Node000012"><a xlink:title=" ">
<path fill="none" stroke="#63b8ff" d="M208.56,-179.62C220.56,-179.62 233.4,-179.62 245.35,-179.62"/>
<polygon fill="#63b8ff" stroke="#63b8ff" points="208.88,-176.13 198.88,-179.63 208.88,-183.13 208.88,-176.13"/>
</a>
</g>
</g>
<!-- Node13 -->
<g id="Node000013" class="node">
<title>Node13</title>
<g id="a_Node000013"><a xlink:href="class_ogre_1_1_metal_window.html" target="_top" xlink:title=" ">
<polygon fill="white" stroke="#666666" points="343.88,-152.25 243.88,-152.25 243.88,-133 343.88,-133 343.88,-152.25"/>
<text text-anchor="middle" x="293.88" y="-138.75" font-family="Helvetica,sans-Serif" font-size="10.00">Ogre::MetalWindow</text>
</a>
</g>
</g>
<!-- Node1&#45;&gt;Node13 -->
<g id="edge12_Node000001_Node000013" class="edge">
<title>Node1&#45;&gt;Node13</title>
<g id="a_edge12_Node000001_Node000013"><a xlink:title=" ">
<path fill="none" stroke="#63b8ff" d="M207.23,-166.47C223.47,-161.95 241.38,-156.96 256.61,-152.72"/>
<polygon fill="#63b8ff" stroke="#63b8ff" points="206.46,-163.05 197.77,-169.11 208.34,-169.8 206.46,-163.05"/>
</a>
</g>
</g>
<!-- Node14 -->
<g id="Node000014" class="node">
<title>Node14</title>
<g id="a_Node000014"><a xlink:href="class_ogre_1_1_n_u_l_l_window.html" target="_top" xlink:title=" ">
<polygon fill="white" stroke="#666666" points="345.38,-115.25 242.38,-115.25 242.38,-96 345.38,-96 345.38,-115.25"/>
<text text-anchor="middle" x="293.88" y="-101.75" font-family="Helvetica,sans-Serif" font-size="10.00">Ogre::NULLWindow</text>
</a>
</g>
</g>
<!-- Node1&#45;&gt;Node14 -->
<g id="edge13_Node000001_Node000014" class="edge">
<title>Node1&#45;&gt;Node14</title>
<g id="a_edge13_Node000001_Node000014"><a xlink:title=" ">
<path fill="none" stroke="#63b8ff" d="M178.79,-162.11C192.82,-149.86 212.94,-133.9 233,-123.62 238.99,-120.56 245.59,-117.92 252.16,-115.69"/>
<polygon fill="#63b8ff" stroke="#63b8ff" points="176.75,-159.24 171.65,-168.53 181.43,-164.45 176.75,-159.24"/>
</a>
</g>
</g>
<!-- Node15 -->
<g id="Node000015" class="node">
<title>Node15</title>
<g id="a_Node000015"><a xlink:href="class_ogre_1_1_vulkan_window.html" target="_top" xlink:title=" ">
<polygon fill="white" stroke="#666666" points="346.88,-78.25 240.88,-78.25 240.88,-59 346.88,-59 346.88,-78.25"/>
<text text-anchor="middle" x="293.88" y="-64.75" font-family="Helvetica,sans-Serif" font-size="10.00">Ogre::VulkanWindow</text>
</a>
</g>
</g>
<!-- Node1&#45;&gt;Node15 -->
<g id="edge14_Node000001_Node000015" class="edge">
<title>Node1&#45;&gt;Node15</title>
<g id="a_edge14_Node000001_Node000015"><a xlink:title=" ">
<path fill="none" stroke="#63b8ff" d="M170.65,-159.71C182.96,-138.57 205.13,-105.64 233,-86.62 237.66,-83.44 242.9,-80.81 248.29,-78.64"/>
<polygon fill="#63b8ff" stroke="#63b8ff" points="167.71,-157.8 165.88,-168.24 173.82,-161.22 167.71,-157.8"/>
</a>
</g>
</g>
<!-- Node21 -->
<g id="Node000021" class="node">
<title>Node21</title>
<g id="a_Node000021"><a xlink:href="class_ogre_1_1_win32_window.html" target="_top" xlink:title=" ">
<polygon fill="white" stroke="#666666" points="345.38,-41.25 242.38,-41.25 242.38,-22 345.38,-22 345.38,-41.25"/>
<text text-anchor="middle" x="293.88" y="-27.75" font-family="Helvetica,sans-Serif" font-size="10.00">Ogre::Win32Window</text>
</a>
</g>
</g>
<!-- Node1&#45;&gt;Node21 -->
<g id="edge20_Node000001_Node000021" class="edge">
<title>Node1&#45;&gt;Node21</title>
<g id="a_edge20_Node000001_Node000021"><a xlink:title=" ">
<path fill="none" stroke="#63b8ff" d="M166.11,-159.04C175.68,-130.32 196.95,-78.52 233,-49.62 236.98,-46.43 241.52,-43.81 246.27,-41.65"/>
<polygon fill="#63b8ff" stroke="#63b8ff" points="162.84,-157.77 163.17,-168.36 169.51,-159.87 162.84,-157.77"/>
</a>
</g>
</g>
<!-- Node2 -->
<g id="Node000002" class="node">
<title>Node2</title>
<g id="a_Node000002"><a xlink:href="class_ogre_1_1_allocated_object.html" target="_top" xlink:title="Superclass for all objects that wish to use custom memory allocators when their new / delete operator...">
<polygon fill="white" stroke="#666666" points="85,-189.25 0,-189.25 0,-170 85,-170 85,-189.25"/>
<text text-anchor="middle" x="42.5" y="-175.75" font-family="Helvetica,sans-Serif" font-size="10.00">RenderSysAlloc</text>
</a>
</g>
</g>
<!-- Node2&#45;&gt;Node1 -->
<g id="edge1_Node000001_Node000002" class="edge">
<title>Node2&#45;&gt;Node1</title>
<g id="a_edge1_Node000001_Node000002"><a xlink:title=" ">
<path fill="none" stroke="#63b8ff" d="M96.73,-179.62C104.78,-179.62 112.94,-179.62 120.56,-179.62"/>
<polygon fill="#63b8ff" stroke="#63b8ff" points="97,-176.13 87,-179.63 97,-183.13 97,-176.13"/>
</a>
</g>
</g>
<!-- Node5 -->
<g id="Node000005" class="node">
<title>Node5</title>
<g id="a_Node000005"><a xlink:href="class_ogre_1_1_d3_d11_window_swap_chain_based.html" target="_top" xlink:title=" ">
<polygon fill="white" stroke="#666666" points="545.88,-348.88 391.12,-348.88 391.12,-318.38 545.88,-318.38 545.88,-348.88"/>
<text text-anchor="start" x="399.12" y="-335.38" font-family="Helvetica,sans-Serif" font-size="10.00">Ogre::D3D11WindowSwapChain</text>
<text text-anchor="middle" x="468.5" y="-324.12" font-family="Helvetica,sans-Serif" font-size="10.00">Based</text>
</a>
</g>
</g>
<!-- Node4&#45;&gt;Node5 -->
<g id="edge4_Node000004_Node000005" class="edge">
<title>Node4&#45;&gt;Node5</title>
<g id="a_edge4_Node000004_Node000005"><a xlink:title=" ">
<path fill="none" stroke="#63b8ff" d="M346.33,-303.44C364.54,-307.98 385.24,-313.13 404.31,-317.88"/>
<polygon fill="#63b8ff" stroke="#63b8ff" points="347.37,-300.09 336.82,-301.07 345.67,-306.89 347.37,-300.09"/>
</a>
</g>
</g>
<!-- Node7 -->
<g id="Node000007" class="node">
<title>Node7</title>
<g id="a_Node000007"><a xlink:href="class_ogre_1_1_android_e_g_l_window.html" target="_top" xlink:title=" ">
<polygon fill="white" stroke="#666666" points="532.75,-300.25 404.25,-300.25 404.25,-281 532.75,-281 532.75,-300.25"/>
<text text-anchor="middle" x="468.5" y="-286.75" font-family="Helvetica,sans-Serif" font-size="10.00">Ogre::AndroidEGLWindow</text>
</a>
</g>
</g>
<!-- Node6&#45;&gt;Node7 -->
<g id="edge6_Node000006_Node000007" class="edge">
<title>Node6&#45;&gt;Node7</title>
<g id="a_edge6_Node000006_Node000007"><a xlink:title=" ">
<path fill="none" stroke="#63b8ff" d="M353.21,-266.13C375.08,-270.82 399.65,-276.08 420.39,-280.53"/>
<polygon fill="#63b8ff" stroke="#63b8ff" points="354.04,-262.73 343.53,-264.05 352.57,-269.57 354.04,-262.73"/>
</a>
</g>
</g>
<!-- Node8 -->
<g id="Node000008" class="node">
<title>Node8</title>
<g id="a_Node000008"><a xlink:href="class_ogre_1_1_emscripten_e_g_l_window.html" target="_top" xlink:title=" ">
<polygon fill="white" stroke="#666666" points="540.62,-263.25 396.38,-263.25 396.38,-244 540.62,-244 540.62,-263.25"/>
<text text-anchor="middle" x="468.5" y="-249.75" font-family="Helvetica,sans-Serif" font-size="10.00">Ogre::EmscriptenEGLWindow</text>
</a>
</g>
</g>
<!-- Node6&#45;&gt;Node8 -->
<g id="edge7_Node000006_Node000008" class="edge">
<title>Node6&#45;&gt;Node8</title>
<g id="a_edge7_Node000006_Node000008"><a xlink:title=" ">
<path fill="none" stroke="#63b8ff" d="M353.31,-253.62C367.05,-253.62 381.85,-253.62 396.09,-253.62"/>
<polygon fill="#63b8ff" stroke="#63b8ff" points="353.56,-250.13 343.56,-253.63 353.56,-257.13 353.56,-250.13"/>
</a>
</g>
</g>
<!-- Node9 -->
<g id="Node000009" class="node">
<title>Node9</title>
<g id="a_Node000009"><a xlink:href="class_ogre_1_1_win32_e_g_l_window.html" target="_top" xlink:title=" ">
<polygon fill="white" stroke="#666666" points="529.75,-226.25 407.25,-226.25 407.25,-207 529.75,-207 529.75,-226.25"/>
<text text-anchor="middle" x="468.5" y="-212.75" font-family="Helvetica,sans-Serif" font-size="10.00">Ogre::Win32EGLWindow</text>
</a>
</g>
</g>
<!-- Node6&#45;&gt;Node9 -->
<g id="edge8_Node000006_Node000009" class="edge">
<title>Node6&#45;&gt;Node9</title>
<g id="a_edge8_Node000006_Node000009"><a xlink:title=" ">
<path fill="none" stroke="#63b8ff" d="M353.21,-241.12C375.08,-236.43 399.65,-231.17 420.39,-226.72"/>
<polygon fill="#63b8ff" stroke="#63b8ff" points="352.57,-237.68 343.53,-243.2 354.04,-244.52 352.57,-237.68"/>
</a>
</g>
</g>
<!-- Node10 -->
<g id="Node000010" class="node">
<title>Node10</title>
<g id="a_Node000010"><a xlink:href="class_ogre_1_1_x11_e_g_l_window.html" target="_top" xlink:title=" ">
<polygon fill="white" stroke="#666666" points="524.88,-189.25 412.12,-189.25 412.12,-170 524.88,-170 524.88,-189.25"/>
<text text-anchor="middle" x="468.5" y="-175.75" font-family="Helvetica,sans-Serif" font-size="10.00">Ogre::X11EGLWindow</text>
</a>
</g>
</g>
<!-- Node6&#45;&gt;Node10 -->
<g id="edge9_Node000006_Node000010" class="edge">
<title>Node6&#45;&gt;Node10</title>
<g id="a_edge9_Node000006_Node000010"><a xlink:title=" ">
<path fill="none" stroke="#63b8ff" d="M348.56,-239.06C350.69,-237.99 352.76,-236.85 354.75,-235.62 374.56,-223.42 370.58,-209.21 390.75,-197.62 397.28,-193.88 404.54,-190.91 411.93,-188.56"/>
<polygon fill="#63b8ff" stroke="#63b8ff" points="347.41,-235.75 339.63,-242.95 350.2,-242.17 347.41,-235.75"/>
</a>
</g>
</g>
<!-- Node16 -->
<g id="Node000016" class="node">
<title>Node16</title>
<g id="a_Node000016"><a xlink:href="class_ogre_1_1_vulkan_window_null.html" target="_top" xlink:title=" ">
<polygon fill="white" stroke="#666666" points="530.12,-99.25 406.88,-99.25 406.88,-80 530.12,-80 530.12,-99.25"/>
<text text-anchor="middle" x="468.5" y="-85.75" font-family="Helvetica,sans-Serif" font-size="10.00">Ogre::VulkanWindowNull</text>
</a>
</g>
</g>
<!-- Node15&#45;&gt;Node16 -->
<g id="edge15_Node000015_Node000016" class="edge">
<title>Node15&#45;&gt;Node16</title>
<g id="a_edge15_Node000015_Node000016"><a xlink:title=" ">
<path fill="none" stroke="#63b8ff" d="M358.39,-76.35C374.14,-78.27 391,-80.32 406.62,-82.22"/>
<polygon fill="#63b8ff" stroke="#63b8ff" points="358.99,-72.9 348.64,-75.17 358.14,-79.85 358.99,-72.9"/>
</a>
</g>
</g>
<!-- Node17 -->
<g id="Node000017" class="node">
<title>Node17</title>
<g id="a_Node000017"><a xlink:href="class_ogre_1_1_vulkan_window_swap_chain_based.html" target="_top" xlink:title=" ">
<polygon fill="white" stroke="#666666" points="546.25,-61.88 390.75,-61.88 390.75,-31.38 546.25,-31.38 546.25,-61.88"/>
<text text-anchor="start" x="398.75" y="-48.38" font-family="Helvetica,sans-Serif" font-size="10.00">Ogre::VulkanWindowSwapChain</text>
<text text-anchor="middle" x="468.5" y="-37.12" font-family="Helvetica,sans-Serif" font-size="10.00">Based</text>
</a>
</g>
</g>
<!-- Node15&#45;&gt;Node17 -->
<g id="edge16_Node000015_Node000017" class="edge">
<title>Node15&#45;&gt;Node17</title>
<g id="a_edge16_Node000015_Node000017"><a xlink:title=" ">
<path fill="none" stroke="#63b8ff" d="M358.56,-60.51C368.87,-59.19 379.66,-57.82 390.26,-56.47"/>
<polygon fill="#63b8ff" stroke="#63b8ff" points="358.12,-57.04 348.64,-61.77 359,-63.98 358.12,-57.04"/>
</a>
</g>
</g>
<!-- Node18 -->
<g id="Node000018" class="node">
<title>Node18</title>
<g id="a_Node000018"><a xlink:href="class_ogre_1_1_vulkan_android_window.html" target="_top" xlink:title=" ">
<polygon fill="white" stroke="#666666" points="721.25,-93.25 582.25,-93.25 582.25,-74 721.25,-74 721.25,-93.25"/>
<text text-anchor="middle" x="651.75" y="-79.75" font-family="Helvetica,sans-Serif" font-size="10.00">Ogre::VulkanAndroidWindow</text>
</a>
</g>
</g>
<!-- Node17&#45;&gt;Node18 -->
<g id="edge17_Node000017_Node000018" class="edge">
<title>Node17&#45;&gt;Node18</title>
<g id="a_edge17_Node000017_Node000018"><a xlink:title=" ">
<path fill="none" stroke="#63b8ff" d="M557.53,-64.6C572.56,-67.66 587.69,-70.75 601.25,-73.52"/>
<polygon fill="#63b8ff" stroke="#63b8ff" points="558.61,-61.24 548.11,-62.67 557.21,-68.1 558.61,-61.24"/>
</a>
</g>
</g>
<!-- Node19 -->
<g id="Node000019" class="node">
<title>Node19</title>
<g id="a_Node000019"><a xlink:href="class_ogre_1_1_vulkan_win32_window.html" target="_top" xlink:title=" ">
<polygon fill="white" stroke="#666666" points="718.25,-56.25 585.25,-56.25 585.25,-37 718.25,-37 718.25,-56.25"/>
<text text-anchor="middle" x="651.75" y="-42.75" font-family="Helvetica,sans-Serif" font-size="10.00">Ogre::VulkanWin32Window</text>
</a>
</g>
</g>
<!-- Node17&#45;&gt;Node19 -->
<g id="edge18_Node000017_Node000019" class="edge">
<title>Node17&#45;&gt;Node19</title>
<g id="a_edge18_Node000017_Node000019"><a xlink:title=" ">
<path fill="none" stroke="#63b8ff" d="M558.03,-46.62C567.06,-46.62 576.11,-46.62 584.84,-46.62"/>
<polygon fill="#63b8ff" stroke="#63b8ff" points="558.14,-43.13 548.14,-46.63 558.14,-50.13 558.14,-43.13"/>
</a>
</g>
</g>
<!-- Node20 -->
<g id="Node000020" class="node">
<title>Node20</title>
<g id="a_Node000020"><a xlink:href="class_ogre_1_1_vulkan_xcb_window.html" target="_top" xlink:title=" ">
<polygon fill="white" stroke="#666666" points="713.38,-19.25 590.12,-19.25 590.12,0 713.38,0 713.38,-19.25"/>
<text text-anchor="middle" x="651.75" y="-5.75" font-family="Helvetica,sans-Serif" font-size="10.00">Ogre::VulkanXcbWindow</text>
</a>
</g>
</g>
<!-- Node17&#45;&gt;Node20 -->
<g id="edge19_Node000017_Node000020" class="edge">
<title>Node17&#45;&gt;Node20</title>
<g id="a_edge19_Node000017_Node000020"><a xlink:title=" ">
<path fill="none" stroke="#63b8ff" d="M557.53,-28.65C572.56,-25.59 587.69,-22.5 601.25,-19.73"/>
<polygon fill="#63b8ff" stroke="#63b8ff" points="557.21,-25.15 548.11,-30.58 558.61,-32.01 557.21,-25.15"/>
</a>
</g>
</g>
</g>
</svg>
