<?xml version="1.0" encoding="UTF-8" standalone="no"?>
<!DOCTYPE svg PUBLIC "-//W3C//DTD SVG 1.1//EN"
 "http://www.w3.org/Graphics/SVG/1.1/DTD/svg11.dtd">
<!-- Generated by graphviz version 9.0.0 (20230911.1827)
 -->
<!-- Title: Ogre::BufferPacked Pages: 1 -->
<svg width="998pt" height="692pt"
 viewBox="0.00 0.00 998.00 692.25" xmlns="http://www.w3.org/2000/svg" xmlns:xlink="http://www.w3.org/1999/xlink">
<g id="graph0" class="graph" transform="scale(1 1) rotate(0) translate(4 688.25)">
<title>Ogre::BufferPacked</title>
<!-- Node1 -->
<g id="Node000001" class="node">
<title>Node1</title>
<g id="a_Node000001"><a xlink:title=" ">
<polygon fill="#999999" stroke="#666666" points="272,-317.25 172,-317.25 172,-298 272,-298 272,-317.25"/>
<text text-anchor="middle" x="222" y="-303.75" font-family="Helvetica,sans-Serif" font-size="10.00">Ogre::BufferPacked</text>
</a>
</g>
</g>
<!-- Node4 -->
<g id="Node000004" class="node">
<title>Node4</title>
<g id="a_Node000004"><a xlink:href="class_ogre_1_1_const_buffer_packed.html" target="_top" xlink:title="Represents constant buffers (also known as Uniform Buffers in GL)">
<polygon fill="white" stroke="#666666" points="436.88,-561.25 311.38,-561.25 311.38,-542 436.88,-542 436.88,-561.25"/>
<text text-anchor="middle" x="374.12" y="-547.75" font-family="Helvetica,sans-Serif" font-size="10.00">Ogre::ConstBufferPacked</text>
</a>
</g>
</g>
<!-- Node1&#45;&gt;Node4 -->
<g id="edge3_Node000001_Node000004" class="edge">
<title>Node1&#45;&gt;Node4</title>
<g id="a_edge3_Node000001_Node000004"><a xlink:title=" ">
<path fill="none" stroke="#63b8ff" d="M235.1,-327.28C265.51,-376.72 344.36,-504.88 366.98,-541.63"/>
<polygon fill="#63b8ff" stroke="#63b8ff" points="238.09,-325.46 229.86,-318.78 232.12,-329.13 238.09,-325.46"/>
</a>
</g>
</g>
<!-- Node11 -->
<g id="Node000011" class="node">
<title>Node11</title>
<g id="a_Node000011"><a xlink:href="class_ogre_1_1_index_buffer_packed.html" target="_top" xlink:title=" ">
<polygon fill="white" stroke="#666666" points="435.75,-373.25 312.5,-373.25 312.5,-354 435.75,-354 435.75,-373.25"/>
<text text-anchor="middle" x="374.12" y="-359.75" font-family="Helvetica,sans-Serif" font-size="10.00">Ogre::IndexBufferPacked</text>
</a>
</g>
</g>
<!-- Node1&#45;&gt;Node11 -->
<g id="edge10_Node000001_Node000011" class="edge">
<title>Node1&#45;&gt;Node11</title>
<g id="a_edge10_Node000001_Node000011"><a xlink:title=" ">
<path fill="none" stroke="#63b8ff" d="M253.6,-322.65C269.58,-330.15 289.58,-339.01 308,-345.62 315.95,-348.48 324.58,-351.16 332.87,-353.52"/>
<polygon fill="#63b8ff" stroke="#63b8ff" points="255.16,-319.51 244.62,-318.37 252.14,-325.83 255.16,-319.51"/>
</a>
</g>
</g>
<!-- Node12 -->
<g id="Node000012" class="node">
<title>Node12</title>
<g id="a_Node000012"><a xlink:href="class_ogre_1_1_indirect_buffer_packed.html" target="_top" xlink:title="Represents Indirect buffers for storing draw call commands.">
<polygon fill="white" stroke="#666666" points="440.25,-336.25 308,-336.25 308,-317 440.25,-317 440.25,-336.25"/>
<text text-anchor="middle" x="374.12" y="-322.75" font-family="Helvetica,sans-Serif" font-size="10.00">Ogre::IndirectBufferPacked</text>
</a>
</g>
</g>
<!-- Node1&#45;&gt;Node12 -->
<g id="edge11_Node000001_Node000012" class="edge">
<title>Node1&#45;&gt;Node12</title>
<g id="a_edge11_Node000001_Node000012"><a xlink:title=" ">
<path fill="none" stroke="#63b8ff" d="M283.32,-315.26C291.36,-316.28 299.63,-317.32 307.75,-318.35"/>
<polygon fill="#63b8ff" stroke="#63b8ff" points="284.02,-311.82 273.66,-314.04 283.14,-318.76 284.02,-311.82"/>
</a>
</g>
</g>
<!-- Node13 -->
<g id="Node000013" class="node">
<title>Node13</title>
<g id="a_Node000013"><a xlink:href="class_ogre_1_1_tex_buffer_packed.html" target="_top" xlink:title="Represents Texture buffers (also known as tbuffers in D3D11)">
<polygon fill="white" stroke="#666666" points="432,-299.25 316.25,-299.25 316.25,-280 432,-280 432,-299.25"/>
<text text-anchor="middle" x="374.12" y="-285.75" font-family="Helvetica,sans-Serif" font-size="10.00">Ogre::TexBufferPacked</text>
</a>
</g>
</g>
<!-- Node1&#45;&gt;Node13 -->
<g id="edge12_Node000001_Node000013" class="edge">
<title>Node1&#45;&gt;Node13</title>
<g id="a_edge12_Node000001_Node000013"><a xlink:title=" ">
<path fill="none" stroke="#63b8ff" d="M283.51,-300.37C294.16,-299.09 305.21,-297.77 315.77,-296.5"/>
<polygon fill="#63b8ff" stroke="#63b8ff" points="283.17,-296.89 273.66,-301.55 284,-303.84 283.17,-296.89"/>
</a>
</g>
</g>
<!-- Node29 -->
<g id="Node000029" class="node">
<title>Node29</title>
<g id="a_Node000029"><a xlink:href="class_ogre_1_1_uav_buffer_packed.html" target="_top" xlink:title="Represents UAV buffers (also known as SSBOs in OpenGL) Uav buffers are supported in DX10/DX10....">
<polygon fill="white" stroke="#666666" points="433.12,-130.25 315.12,-130.25 315.12,-111 433.12,-111 433.12,-130.25"/>
<text text-anchor="middle" x="374.12" y="-116.75" font-family="Helvetica,sans-Serif" font-size="10.00">Ogre::UavBufferPacked</text>
</a>
</g>
</g>
<!-- Node1&#45;&gt;Node29 -->
<g id="edge28_Node000001_Node000029" class="edge">
<title>Node1&#45;&gt;Node29</title>
<g id="a_edge28_Node000001_Node000029"><a xlink:title=" ">
<path fill="none" stroke="#63b8ff" d="M238.15,-288.76C269.57,-249.61 340.93,-160.73 365.01,-130.73"/>
<polygon fill="#63b8ff" stroke="#63b8ff" points="235.55,-286.4 232.02,-296.39 241.01,-290.78 235.55,-286.4"/>
</a>
</g>
</g>
<!-- Node35 -->
<g id="Node000035" class="node">
<title>Node35</title>
<g id="a_Node000035"><a xlink:href="class_ogre_1_1_vertex_buffer_packed.html" target="_top" xlink:title=" ">
<polygon fill="white" stroke="#666666" points="438,-93.25 310.25,-93.25 310.25,-74 438,-74 438,-93.25"/>
<text text-anchor="middle" x="374.12" y="-79.75" font-family="Helvetica,sans-Serif" font-size="10.00">Ogre::VertexBufferPacked</text>
</a>
</g>
</g>
<!-- Node1&#45;&gt;Node35 -->
<g id="edge34_Node000001_Node000035" class="edge">
<title>Node1&#45;&gt;Node35</title>
<g id="a_edge34_Node000001_Node000035"><a xlink:title=" ">
<path fill="none" stroke="#63b8ff" d="M225.57,-286.53C231.79,-244.83 251.55,-151.59 308,-101.62 311.6,-98.44 315.72,-95.81 320.1,-93.64"/>
<polygon fill="#63b8ff" stroke="#63b8ff" points="222.13,-285.83 224.25,-296.21 229.07,-286.77 222.13,-285.83"/>
</a>
</g>
</g>
<!-- Node2 -->
<g id="Node000002" class="node">
<title>Node2</title>
<g id="a_Node000002"><a xlink:href="struct_ogre_1_1_gpu_tracked_resource.html" target="_top" xlink:title=" ">
<polygon fill="white" stroke="#666666" points="136,-336.25 0,-336.25 0,-317 136,-317 136,-336.25"/>
<text text-anchor="middle" x="68" y="-322.75" font-family="Helvetica,sans-Serif" font-size="10.00">Ogre::GpuTrackedResource</text>
</a>
</g>
</g>
<!-- Node2&#45;&gt;Node1 -->
<g id="edge1_Node000001_Node000002" class="edge">
<title>Node2&#45;&gt;Node1</title>
<g id="a_edge1_Node000001_Node000002"><a xlink:title=" ">
<path fill="none" stroke="#63b8ff" d="M147.35,-316.83C155.59,-315.8 163.81,-314.77 171.59,-313.8"/>
<polygon fill="#63b8ff" stroke="#63b8ff" points="147.1,-313.33 137.61,-318.05 147.97,-320.28 147.1,-313.33"/>
</a>
</g>
</g>
<!-- Node3 -->
<g id="Node000003" class="node">
<title>Node3</title>
<g id="a_Node000003"><a xlink:href="class_ogre_1_1_allocated_object.html" target="_top" xlink:title="Superclass for all objects that wish to use custom memory allocators when their new / delete operator...">
<polygon fill="white" stroke="#666666" points="116.12,-299.25 19.88,-299.25 19.88,-280 116.12,-280 116.12,-299.25"/>
<text text-anchor="middle" x="68" y="-285.75" font-family="Helvetica,sans-Serif" font-size="10.00">BufferPackedAlloc</text>
</a>
</g>
</g>
<!-- Node3&#45;&gt;Node1 -->
<g id="edge2_Node000001_Node000003" class="edge">
<title>Node3&#45;&gt;Node1</title>
<g id="a_edge2_Node000001_Node000003"><a xlink:title=" ">
<path fill="none" stroke="#63b8ff" d="M127.68,-296.57C142.21,-298.29 157.63,-300.12 171.67,-301.78"/>
<polygon fill="#63b8ff" stroke="#63b8ff" points="128.11,-293.1 117.76,-295.4 127.28,-300.05 128.11,-293.1"/>
</a>
</g>
</g>
<!-- Node5 -->
<g id="Node000005" class="node">
<title>Node5</title>
<g id="a_Node000005"><a xlink:href="class_ogre_1_1_d3_d11_const_buffer_packed.html" target="_top" xlink:title=" ">
<polygon fill="white" stroke="#666666" points="634.38,-684.25 479.62,-684.25 479.62,-665 634.38,-665 634.38,-684.25"/>
<text text-anchor="middle" x="557" y="-670.75" font-family="Helvetica,sans-Serif" font-size="10.00">Ogre::D3D11ConstBufferPacked</text>
</a>
</g>
</g>
<!-- Node4&#45;&gt;Node5 -->
<g id="edge4_Node000004_Node000005" class="edge">
<title>Node4&#45;&gt;Node5</title>
<g id="a_edge4_Node000004_Node000005"><a xlink:title=" ">
<path fill="none" stroke="#63b8ff" d="M388.36,-570.8C405.74,-594.46 438.51,-634.18 476.25,-655.62 482.69,-659.28 489.8,-662.24 497.04,-664.62"/>
<polygon fill="#63b8ff" stroke="#63b8ff" points="391.43,-569.08 382.77,-562.98 385.74,-573.15 391.43,-569.08"/>
</a>
</g>
</g>
<!-- Node6 -->
<g id="Node000006" class="node">
<title>Node6</title>
<g id="a_Node000006"><a xlink:href="class_ogre_1_1_g_l3_plus_const_buffer_packed.html" target="_top" xlink:title=" ">
<polygon fill="white" stroke="#666666" points="622.38,-646.88 491.62,-646.88 491.62,-616.38 622.38,-616.38 622.38,-646.88"/>
<text text-anchor="start" x="499.62" y="-633.38" font-family="Helvetica,sans-Serif" font-size="10.00">Ogre::GL3PlusConstBuffer</text>
<text text-anchor="middle" x="557" y="-622.12" font-family="Helvetica,sans-Serif" font-size="10.00">Packed</text>
</a>
</g>
</g>
<!-- Node4&#45;&gt;Node6 -->
<g id="edge5_Node000004_Node000006" class="edge">
<title>Node4&#45;&gt;Node6</title>
<g id="a_edge5_Node000004_Node000006"><a xlink:title=" ">
<path fill="none" stroke="#63b8ff" d="M400.3,-567.55C420.31,-579.71 449.32,-596.27 476.25,-607.62 483.31,-610.6 490.87,-613.38 498.41,-615.9"/>
<polygon fill="#63b8ff" stroke="#63b8ff" points="402.35,-564.7 392,-562.43 398.67,-570.66 402.35,-564.7"/>
</a>
</g>
</g>
<!-- Node7 -->
<g id="Node000007" class="node">
<title>Node7</title>
<g id="a_Node000007"><a xlink:href="class_ogre_1_1_g_l_e_s2_const_buffer_packed.html" target="_top" xlink:title=" ">
<polygon fill="white" stroke="#666666" points="635.5,-598.25 478.5,-598.25 478.5,-579 635.5,-579 635.5,-598.25"/>
<text text-anchor="middle" x="557" y="-584.75" font-family="Helvetica,sans-Serif" font-size="10.00">Ogre::GLES2ConstBufferPacked</text>
</a>
</g>
</g>
<!-- Node4&#45;&gt;Node7 -->
<g id="edge6_Node000004_Node000007" class="edge">
<title>Node4&#45;&gt;Node7</title>
<g id="a_edge6_Node000004_Node000007"><a xlink:title=" ">
<path fill="none" stroke="#63b8ff" d="M435.61,-564C458.69,-568.72 484.71,-574.04 506.63,-578.53"/>
<polygon fill="#63b8ff" stroke="#63b8ff" points="436.53,-560.61 426.03,-562.04 435.13,-567.47 436.53,-560.61"/>
</a>
</g>
</g>
<!-- Node8 -->
<g id="Node000008" class="node">
<title>Node8</title>
<g id="a_Node000008"><a xlink:href="class_ogre_1_1_metal_const_buffer_packed.html" target="_top" xlink:title=" ">
<polygon fill="white" stroke="#666666" points="631.75,-561.25 482.25,-561.25 482.25,-542 631.75,-542 631.75,-561.25"/>
<text text-anchor="middle" x="557" y="-547.75" font-family="Helvetica,sans-Serif" font-size="10.00">Ogre::MetalConstBufferPacked</text>
</a>
</g>
</g>
<!-- Node4&#45;&gt;Node8 -->
<g id="edge7_Node000004_Node000008" class="edge">
<title>Node4&#45;&gt;Node8</title>
<g id="a_edge7_Node000004_Node000008"><a xlink:title=" ">
<path fill="none" stroke="#63b8ff" d="M448.62,-551.62C459.55,-551.62 470.83,-551.62 481.79,-551.62"/>
<polygon fill="#63b8ff" stroke="#63b8ff" points="448.89,-548.13 438.89,-551.63 448.89,-555.13 448.89,-548.13"/>
</a>
</g>
</g>
<!-- Node9 -->
<g id="Node000009" class="node">
<title>Node9</title>
<g id="a_Node000009"><a xlink:href="class_ogre_1_1_n_u_l_l_const_buffer_packed.html" target="_top" xlink:title=" ">
<polygon fill="white" stroke="#666666" points="633.25,-524.25 480.75,-524.25 480.75,-505 633.25,-505 633.25,-524.25"/>
<text text-anchor="middle" x="557" y="-510.75" font-family="Helvetica,sans-Serif" font-size="10.00">Ogre::NULLConstBufferPacked</text>
</a>
</g>
</g>
<!-- Node4&#45;&gt;Node9 -->
<g id="edge8_Node000004_Node000009" class="edge">
<title>Node4&#45;&gt;Node9</title>
<g id="a_edge8_Node000004_Node000009"><a xlink:title=" ">
<path fill="none" stroke="#63b8ff" d="M435.61,-539.25C458.69,-534.53 484.71,-529.21 506.63,-524.72"/>
<polygon fill="#63b8ff" stroke="#63b8ff" points="435.13,-535.78 426.03,-541.21 436.53,-542.64 435.13,-535.78"/>
</a>
</g>
</g>
<!-- Node10 -->
<g id="Node000010" class="node">
<title>Node10</title>
<g id="a_Node000010"><a xlink:href="class_ogre_1_1_vulkan_const_buffer_packed.html" target="_top" xlink:title=" ">
<polygon fill="white" stroke="#666666" points="634.75,-487.25 479.25,-487.25 479.25,-468 634.75,-468 634.75,-487.25"/>
<text text-anchor="middle" x="557" y="-473.75" font-family="Helvetica,sans-Serif" font-size="10.00">Ogre::VulkanConstBufferPacked</text>
</a>
</g>
</g>
<!-- Node4&#45;&gt;Node10 -->
<g id="edge9_Node000004_Node000010" class="edge">
<title>Node4&#45;&gt;Node10</title>
<g id="a_edge9_Node000004_Node000010"><a xlink:title=" ">
<path fill="none" stroke="#63b8ff" d="M399.39,-535.61C419.3,-523.1 448.62,-506.15 476.25,-495.62 484.34,-492.54 493.1,-489.91 501.76,-487.68"/>
<polygon fill="#63b8ff" stroke="#63b8ff" points="397.7,-532.53 391.17,-540.86 401.48,-538.42 397.7,-532.53"/>
</a>
</g>
</g>
<!-- Node14 -->
<g id="Node000014" class="node">
<title>Node14</title>
<g id="a_Node000014"><a xlink:href="class_ogre_1_1_d3_d11_tex_buffer_packed.html" target="_top" xlink:title=" ">
<polygon fill="white" stroke="#666666" points="629.5,-450.25 484.5,-450.25 484.5,-431 629.5,-431 629.5,-450.25"/>
<text text-anchor="middle" x="557" y="-436.75" font-family="Helvetica,sans-Serif" font-size="10.00">Ogre::D3D11TexBufferPacked</text>
</a>
</g>
</g>
<!-- Node13&#45;&gt;Node14 -->
<g id="edge13_Node000013_Node000014" class="edge">
<title>Node13&#45;&gt;Node14</title>
<g id="a_edge13_Node000013_Node000014"><a xlink:title=" ">
<path fill="none" stroke="#63b8ff" d="M438.35,-305.9C439,-306.45 439.63,-307.03 440.25,-307.62 478.49,-344.51 437.35,-385.43 476.25,-421.62 480.11,-425.21 484.51,-428.16 489.23,-430.58"/>
<polygon fill="#63b8ff" stroke="#63b8ff" points="440.58,-303.18 430.33,-300.5 436.67,-308.99 440.58,-303.18"/>
</a>
</g>
</g>
<!-- Node15 -->
<g id="Node000015" class="node">
<title>Node15</title>
<g id="a_Node000015"><a xlink:href="class_ogre_1_1_g_l3_plus_tex_buffer_emulated_packed.html" target="_top" xlink:title=" ">
<polygon fill="white" stroke="#666666" points="637.75,-412.88 476.25,-412.88 476.25,-382.38 637.75,-382.38 637.75,-412.88"/>
<text text-anchor="start" x="484.25" y="-399.38" font-family="Helvetica,sans-Serif" font-size="10.00">Ogre::GL3PlusTexBufferEmulated</text>
<text text-anchor="middle" x="557" y="-388.12" font-family="Helvetica,sans-Serif" font-size="10.00">Packed</text>
</a>
</g>
</g>
<!-- Node13&#45;&gt;Node15 -->
<g id="edge14_Node000013_Node000015" class="edge">
<title>Node13&#45;&gt;Node15</title>
<g id="a_edge14_Node000013_Node000015"><a xlink:title=" ">
<path fill="none" stroke="#63b8ff" d="M436.72,-305.05C437.93,-305.87 439.11,-306.72 440.25,-307.62 466.43,-328.39 450.31,-352.57 476.25,-373.62 480.18,-376.81 484.52,-379.58 489.1,-381.98"/>
<polygon fill="#63b8ff" stroke="#63b8ff" points="438.6,-302.09 428.15,-300.34 435.23,-308.23 438.6,-302.09"/>
</a>
</g>
</g>
<!-- Node16 -->
<g id="Node000016" class="node">
<title>Node16</title>
<g id="a_Node000016"><a xlink:href="class_ogre_1_1_g_l3_plus_tex_buffer_packed.html" target="_top" xlink:title=" ">
<polygon fill="white" stroke="#666666" points="634,-364.25 480,-364.25 480,-345 634,-345 634,-364.25"/>
<text text-anchor="middle" x="557" y="-350.75" font-family="Helvetica,sans-Serif" font-size="10.00">Ogre::GL3PlusTexBufferPacked</text>
</a>
</g>
</g>
<!-- Node13&#45;&gt;Node16 -->
<g id="edge15_Node000013_Node000016" class="edge">
<title>Node13&#45;&gt;Node16</title>
<g id="a_edge15_Node000013_Node000016"><a xlink:title=" ">
<path fill="none" stroke="#63b8ff" d="M431.21,-303.57C434.32,-304.82 437.35,-306.17 440.25,-307.62 458.36,-316.72 457.98,-326.85 476.25,-335.62 483.69,-339.2 491.86,-342.13 500.03,-344.52"/>
<polygon fill="#63b8ff" stroke="#63b8ff" points="432.5,-300.31 421.9,-300.2 430.11,-306.89 432.5,-300.31"/>
</a>
</g>
</g>
<!-- Node17 -->
<g id="Node000017" class="node">
<title>Node17</title>
<g id="a_Node000017"><a xlink:href="class_ogre_1_1_g_l_e_s2_tex_buffer_emulated_packed.html" target="_top" xlink:title=" ">
<polygon fill="white" stroke="#666666" points="634.38,-326.88 479.62,-326.88 479.62,-296.38 634.38,-296.38 634.38,-326.88"/>
<text text-anchor="start" x="487.62" y="-313.38" font-family="Helvetica,sans-Serif" font-size="10.00">Ogre::GLES2TexBufferEmulated</text>
<text text-anchor="middle" x="557" y="-302.12" font-family="Helvetica,sans-Serif" font-size="10.00">Packed</text>
</a>
</g>
</g>
<!-- Node13&#45;&gt;Node17 -->
<g id="edge16_Node000013_Node000017" class="edge">
<title>Node13&#45;&gt;Node17</title>
<g id="a_edge16_Node000013_Node000017"><a xlink:title=" ">
<path fill="none" stroke="#63b8ff" d="M443.76,-297.97C455.37,-299.39 467.49,-300.86 479.29,-302.3"/>
<polygon fill="#63b8ff" stroke="#63b8ff" points="444.21,-294.5 433.86,-296.77 443.36,-301.45 444.21,-294.5"/>
</a>
</g>
</g>
<!-- Node18 -->
<g id="Node000018" class="node">
<title>Node18</title>
<g id="a_Node000018"><a xlink:href="class_ogre_1_1_n_u_l_l_tex_buffer_packed.html" target="_top" xlink:title=" ">
<polygon fill="white" stroke="#666666" points="628.38,-278.25 485.62,-278.25 485.62,-259 628.38,-259 628.38,-278.25"/>
<text text-anchor="middle" x="557" y="-264.75" font-family="Helvetica,sans-Serif" font-size="10.00">Ogre::NULLTexBufferPacked</text>
</a>
</g>
</g>
<!-- Node13&#45;&gt;Node18 -->
<g id="edge17_Node000013_Node000018" class="edge">
<title>Node13&#45;&gt;Node18</title>
<g id="a_edge17_Node000013_Node000018"><a xlink:title=" ">
<path fill="none" stroke="#63b8ff" d="M443.58,-281.68C457.18,-280.1 471.49,-278.44 485.16,-276.85"/>
<polygon fill="#63b8ff" stroke="#63b8ff" points="443.39,-278.18 433.86,-282.81 444.2,-285.13 443.39,-278.18"/>
</a>
</g>
</g>
<!-- Node19 -->
<g id="Node000019" class="node">
<title>Node19</title>
<g id="a_Node000019"><a xlink:href="class_ogre_1_1_read_only_buffer_packed.html" target="_top" xlink:title="Represents the best way to access read&#45;only data.">
<polygon fill="white" stroke="#666666" points="628,-241.25 486,-241.25 486,-222 628,-222 628,-241.25"/>
<text text-anchor="middle" x="557" y="-227.75" font-family="Helvetica,sans-Serif" font-size="10.00">Ogre::ReadOnlyBufferPacked</text>
</a>
</g>
</g>
<!-- Node13&#45;&gt;Node19 -->
<g id="edge18_Node000013_Node000019" class="edge">
<title>Node13&#45;&gt;Node19</title>
<g id="a_edge18_Node000013_Node000019"><a xlink:title=" ">
<path fill="none" stroke="#63b8ff" d="M408.14,-275.07C427.68,-266.83 453.07,-256.78 476.25,-249.62 485.74,-246.7 496.01,-244.02 505.91,-241.68"/>
<polygon fill="#63b8ff" stroke="#63b8ff" points="406.87,-271.8 399.05,-278.95 409.62,-278.24 406.87,-271.8"/>
</a>
</g>
</g>
<!-- Node28 -->
<g id="Node000028" class="node">
<title>Node28</title>
<g id="a_Node000028"><a xlink:href="class_ogre_1_1_vulkan_tex_buffer_packed.html" target="_top" xlink:title=" ">
<polygon fill="white" stroke="#666666" points="629.88,-204.25 484.12,-204.25 484.12,-185 629.88,-185 629.88,-204.25"/>
<text text-anchor="middle" x="557" y="-190.75" font-family="Helvetica,sans-Serif" font-size="10.00">Ogre::VulkanTexBufferPacked</text>
</a>
</g>
</g>
<!-- Node13&#45;&gt;Node28 -->
<g id="edge27_Node000013_Node000028" class="edge">
<title>Node13&#45;&gt;Node28</title>
<g id="a_edge27_Node000013_Node000028"><a xlink:title=" ">
<path fill="none" stroke="#63b8ff" d="M393.37,-271.79C412.47,-254.13 444.11,-227.61 476.25,-212.62 483.07,-209.45 490.48,-206.81 497.95,-204.63"/>
<polygon fill="#63b8ff" stroke="#63b8ff" points="391.01,-269.2 386.15,-278.62 395.82,-274.29 391.01,-269.2"/>
</a>
</g>
</g>
<!-- Node20 -->
<g id="Node000020" class="node">
<title>Node20</title>
<g id="a_Node000020"><a xlink:href="class_ogre_1_1_d3_d11_read_only_buffer_packed.html" target="_top" xlink:title=" ">
<polygon fill="white" stroke="#666666" points="816.5,-393.88 678.25,-393.88 678.25,-363.38 816.5,-363.38 816.5,-393.88"/>
<text text-anchor="start" x="686.25" y="-380.38" font-family="Helvetica,sans-Serif" font-size="10.00">Ogre::D3D11ReadOnlyBuffer</text>
<text text-anchor="middle" x="747.38" y="-369.12" font-family="Helvetica,sans-Serif" font-size="10.00">Packed</text>
</a>
</g>
</g>
<!-- Node19&#45;&gt;Node20 -->
<g id="edge19_Node000019_Node000020" class="edge">
<title>Node19&#45;&gt;Node20</title>
<g id="a_edge19_Node000019_Node000020"><a xlink:title=" ">
<path fill="none" stroke="#63b8ff" d="M635.74,-247.92C636.43,-248.47 637.1,-249.04 637.75,-249.62 674.21,-282.24 639.13,-319.07 673.75,-353.62 677.34,-357.2 681.46,-360.27 685.88,-362.9"/>
<polygon fill="#63b8ff" stroke="#63b8ff" points="637.73,-245.04 627.44,-242.52 633.91,-250.91 637.73,-245.04"/>
</a>
</g>
</g>
<!-- Node21 -->
<g id="Node000021" class="node">
<title>Node21</title>
<g id="a_Node000021"><a xlink:href="class_ogre_1_1_g_l3_plus_read_only_buffer_emulated_packed.html" target="_top" xlink:title=" ">
<polygon fill="white" stroke="#666666" points="821,-344.88 673.75,-344.88 673.75,-314.38 821,-314.38 821,-344.88"/>
<text text-anchor="start" x="681.75" y="-331.38" font-family="Helvetica,sans-Serif" font-size="10.00">Ogre::GL3PlusReadOnlyBuffer</text>
<text text-anchor="middle" x="747.38" y="-320.12" font-family="Helvetica,sans-Serif" font-size="10.00">EmulatedPacked</text>
</a>
</g>
</g>
<!-- Node19&#45;&gt;Node21 -->
<g id="edge20_Node000019_Node000021" class="edge">
<title>Node19&#45;&gt;Node21</title>
<g id="a_edge20_Node000019_Node000021"><a xlink:title=" ">
<path fill="none" stroke="#63b8ff" d="M632.91,-246.56C634.57,-247.52 636.19,-248.54 637.75,-249.62 661.75,-266.28 650.69,-286.68 673.75,-304.62 678.38,-308.23 683.56,-311.33 688.97,-314"/>
<polygon fill="#63b8ff" stroke="#63b8ff" points="634.84,-243.61 624.32,-242.36 631.76,-249.9 634.84,-243.61"/>
</a>
</g>
</g>
<!-- Node22 -->
<g id="Node000022" class="node">
<title>Node22</title>
<g id="a_Node000022"><a xlink:href="class_ogre_1_1_g_l3_plus_read_only_tex_buffer_packed.html" target="_top" xlink:title=" ">
<polygon fill="white" stroke="#666666" points="816.12,-295.88 678.62,-295.88 678.62,-265.38 816.12,-265.38 816.12,-295.88"/>
<text text-anchor="start" x="686.62" y="-282.38" font-family="Helvetica,sans-Serif" font-size="10.00">Ogre::GL3PlusReadOnlyTex</text>
<text text-anchor="middle" x="747.38" y="-271.12" font-family="Helvetica,sans-Serif" font-size="10.00">BufferPacked</text>
</a>
</g>
</g>
<!-- Node19&#45;&gt;Node22 -->
<g id="edge21_Node000019_Node000022" class="edge">
<title>Node19&#45;&gt;Node22</title>
<g id="a_edge21_Node000019_Node000022"><a xlink:title=" ">
<path fill="none" stroke="#63b8ff" d="M615.68,-244.24C623.12,-245.99 630.63,-247.81 637.75,-249.62 655.99,-254.28 675.83,-259.81 693.5,-264.89"/>
<polygon fill="#63b8ff" stroke="#63b8ff" points="616.5,-240.84 605.97,-242 614.92,-247.66 616.5,-240.84"/>
</a>
</g>
</g>
<!-- Node23 -->
<g id="Node000023" class="node">
<title>Node23</title>
<g id="a_Node000023"><a xlink:href="class_ogre_1_1_g_l3_plus_read_only_uav_buffer_packed.html" target="_top" xlink:title=" ">
<polygon fill="white" stroke="#666666" points="817.25,-246.88 677.5,-246.88 677.5,-216.38 817.25,-216.38 817.25,-246.88"/>
<text text-anchor="start" x="685.5" y="-233.38" font-family="Helvetica,sans-Serif" font-size="10.00">Ogre::GL3PlusReadOnlyUav</text>
<text text-anchor="middle" x="747.38" y="-222.12" font-family="Helvetica,sans-Serif" font-size="10.00">BufferPacked</text>
</a>
</g>
</g>
<!-- Node19&#45;&gt;Node23 -->
<g id="edge22_Node000019_Node000023" class="edge">
<title>Node19&#45;&gt;Node23</title>
<g id="a_edge22_Node000019_Node000023"><a xlink:title=" ">
<path fill="none" stroke="#63b8ff" d="M639.79,-231.62C652.3,-231.62 665.1,-231.62 677.3,-231.62"/>
<polygon fill="#63b8ff" stroke="#63b8ff" points="639.93,-228.13 629.93,-231.63 639.93,-235.13 639.93,-228.13"/>
</a>
</g>
</g>
<!-- Node24 -->
<g id="Node000024" class="node">
<title>Node24</title>
<g id="a_Node000024"><a xlink:href="class_ogre_1_1_metal_tex_buffer_packed.html" target="_top" xlink:title="In Metal, Tex and ReadOnly buffers are exactly the same, thus we derive from ReadOnlyBufferPacked to ...">
<polygon fill="white" stroke="#666666" points="817.25,-198.25 677.5,-198.25 677.5,-179 817.25,-179 817.25,-198.25"/>
<text text-anchor="middle" x="747.38" y="-184.75" font-family="Helvetica,sans-Serif" font-size="10.00">Ogre::MetalTexBufferPacked</text>
</a>
</g>
</g>
<!-- Node19&#45;&gt;Node24 -->
<g id="edge23_Node000019_Node000024" class="edge">
<title>Node19&#45;&gt;Node24</title>
<g id="a_edge23_Node000019_Node000024"><a xlink:title=" ">
<path fill="none" stroke="#63b8ff" d="M613.9,-219.04C621.9,-217.23 630.04,-215.38 637.75,-213.62 659.16,-208.74 682.94,-203.28 702.78,-198.7"/>
<polygon fill="#63b8ff" stroke="#63b8ff" points="613.18,-215.61 604.19,-221.23 614.72,-222.44 613.18,-215.61"/>
</a>
</g>
</g>
<!-- Node26 -->
<g id="Node000026" class="node">
<title>Node26</title>
<g id="a_Node000026"><a xlink:href="class_ogre_1_1_n_u_l_l_read_only_buffer_packed.html" target="_top" xlink:title=" ">
<polygon fill="white" stroke="#666666" points="815.38,-160.88 679.38,-160.88 679.38,-130.38 815.38,-130.38 815.38,-160.88"/>
<text text-anchor="start" x="687.38" y="-147.38" font-family="Helvetica,sans-Serif" font-size="10.00">Ogre::NULLReadOnlyBuffer</text>
<text text-anchor="middle" x="747.38" y="-136.12" font-family="Helvetica,sans-Serif" font-size="10.00">Packed</text>
</a>
</g>
</g>
<!-- Node19&#45;&gt;Node26 -->
<g id="edge25_Node000019_Node000026" class="edge">
<title>Node19&#45;&gt;Node26</title>
<g id="a_edge25_Node000019_Node000026"><a xlink:title=" ">
<path fill="none" stroke="#63b8ff" d="M631.45,-217.13C633.62,-216.04 635.72,-214.88 637.75,-213.62 659.24,-200.34 652.93,-183.94 673.75,-169.62 678.35,-166.47 683.39,-163.7 688.61,-161.28"/>
<polygon fill="#63b8ff" stroke="#63b8ff" points="630.16,-213.87 622.36,-221.04 632.93,-220.3 630.16,-213.87"/>
</a>
</g>
</g>
<!-- Node27 -->
<g id="Node000027" class="node">
<title>Node27</title>
<g id="a_Node000027"><a xlink:href="class_ogre_1_1_vulkan_read_only_buffer_packed.html" target="_top" xlink:title=" ">
<polygon fill="white" stroke="#666666" points="816.88,-111.88 677.88,-111.88 677.88,-81.38 816.88,-81.38 816.88,-111.88"/>
<text text-anchor="start" x="685.88" y="-98.38" font-family="Helvetica,sans-Serif" font-size="10.00">Ogre::VulkanReadOnlyBuffer</text>
<text text-anchor="middle" x="747.38" y="-87.12" font-family="Helvetica,sans-Serif" font-size="10.00">Packed</text>
</a>
</g>
</g>
<!-- Node19&#45;&gt;Node27 -->
<g id="edge26_Node000019_Node000027" class="edge">
<title>Node19&#45;&gt;Node27</title>
<g id="a_edge26_Node000019_Node000027"><a xlink:title=" ">
<path fill="none" stroke="#63b8ff" d="M635.29,-215.62C636.13,-214.98 636.95,-214.31 637.75,-213.62 671.05,-185.01 642.07,-152.02 673.75,-121.62 677.5,-118.02 681.8,-114.94 686.38,-112.3"/>
<polygon fill="#63b8ff" stroke="#63b8ff" points="633.59,-212.55 626.93,-220.79 637.28,-218.5 633.59,-212.55"/>
</a>
</g>
</g>
<!-- Node25 -->
<g id="Node000025" class="node">
<title>Node25</title>
<g id="a_Node000025"><a xlink:href="class_ogre_1_1_metal_read_only_buffer_packed.html" target="_top" xlink:title=" ">
<polygon fill="white" stroke="#666666" points="990,-203.88 857,-203.88 857,-173.38 990,-173.38 990,-203.88"/>
<text text-anchor="start" x="865" y="-190.38" font-family="Helvetica,sans-Serif" font-size="10.00">Ogre::MetalReadOnlyBuffer</text>
<text text-anchor="middle" x="923.5" y="-179.12" font-family="Helvetica,sans-Serif" font-size="10.00">Packed</text>
</a>
</g>
</g>
<!-- Node24&#45;&gt;Node25 -->
<g id="edge24_Node000024_Node000025" class="edge">
<title>Node24&#45;&gt;Node25</title>
<g id="a_edge24_Node000024_Node000025"><a xlink:title=" ">
<path fill="none" stroke="#63b8ff" d="M828.9,-188.62C838.16,-188.62 847.51,-188.62 856.54,-188.62"/>
<polygon fill="#63b8ff" stroke="#63b8ff" points="829.21,-185.13 819.21,-188.63 829.21,-192.13 829.21,-185.13"/>
</a>
</g>
</g>
<!-- Node30 -->
<g id="Node000030" class="node">
<title>Node30</title>
<g id="a_Node000030"><a xlink:href="class_ogre_1_1_d3_d11_uav_buffer_packed.html" target="_top" xlink:title=" ">
<polygon fill="white" stroke="#666666" points="630.62,-167.25 483.38,-167.25 483.38,-148 630.62,-148 630.62,-167.25"/>
<text text-anchor="middle" x="557" y="-153.75" font-family="Helvetica,sans-Serif" font-size="10.00">Ogre::D3D11UavBufferPacked</text>
</a>
</g>
</g>
<!-- Node29&#45;&gt;Node30 -->
<g id="edge29_Node000029_Node000030" class="edge">
<title>Node29&#45;&gt;Node30</title>
<g id="a_edge29_Node000029_Node000030"><a xlink:title=" ">
<path fill="none" stroke="#63b8ff" d="M435.61,-133C458.69,-137.72 484.71,-143.04 506.63,-147.53"/>
<polygon fill="#63b8ff" stroke="#63b8ff" points="436.53,-129.61 426.03,-131.04 435.13,-136.47 436.53,-129.61"/>
</a>
</g>
</g>
<!-- Node31 -->
<g id="Node000031" class="node">
<title>Node31</title>
<g id="a_Node000031"><a xlink:href="class_ogre_1_1_g_l3_plus_uav_buffer_packed.html" target="_top" xlink:title=" ">
<polygon fill="white" stroke="#666666" points="635.12,-130.25 478.88,-130.25 478.88,-111 635.12,-111 635.12,-130.25"/>
<text text-anchor="middle" x="557" y="-116.75" font-family="Helvetica,sans-Serif" font-size="10.00">Ogre::GL3PlusUavBufferPacked</text>
</a>
</g>
</g>
<!-- Node29&#45;&gt;Node31 -->
<g id="edge30_Node000029_Node000031" class="edge">
<title>Node29&#45;&gt;Node31</title>
<g id="a_edge30_Node000029_Node000031"><a xlink:title=" ">
<path fill="none" stroke="#63b8ff" d="M444.67,-120.62C455.72,-120.62 467.2,-120.62 478.42,-120.62"/>
<polygon fill="#63b8ff" stroke="#63b8ff" points="444.86,-117.13 434.86,-120.63 444.86,-124.13 444.86,-117.13"/>
</a>
</g>
</g>
<!-- Node32 -->
<g id="Node000032" class="node">
<title>Node32</title>
<g id="a_Node000032"><a xlink:href="class_ogre_1_1_metal_uav_buffer_packed.html" target="_top" xlink:title=" ">
<polygon fill="white" stroke="#666666" points="628,-93.25 486,-93.25 486,-74 628,-74 628,-93.25"/>
<text text-anchor="middle" x="557" y="-79.75" font-family="Helvetica,sans-Serif" font-size="10.00">Ogre::MetalUavBufferPacked</text>
</a>
</g>
</g>
<!-- Node29&#45;&gt;Node32 -->
<g id="edge31_Node000029_Node000032" class="edge">
<title>Node29&#45;&gt;Node32</title>
<g id="a_edge31_Node000029_Node000032"><a xlink:title=" ">
<path fill="none" stroke="#63b8ff" d="M435.61,-108.25C458.69,-103.53 484.71,-98.21 506.63,-93.72"/>
<polygon fill="#63b8ff" stroke="#63b8ff" points="435.13,-104.78 426.03,-110.21 436.53,-111.64 435.13,-104.78"/>
</a>
</g>
</g>
<!-- Node33 -->
<g id="Node000033" class="node">
<title>Node33</title>
<g id="a_Node000033"><a xlink:href="class_ogre_1_1_n_u_l_l_uav_buffer_packed.html" target="_top" xlink:title=" ">
<polygon fill="white" stroke="#666666" points="629.5,-56.25 484.5,-56.25 484.5,-37 629.5,-37 629.5,-56.25"/>
<text text-anchor="middle" x="557" y="-42.75" font-family="Helvetica,sans-Serif" font-size="10.00">Ogre::NULLUavBufferPacked</text>
</a>
</g>
</g>
<!-- Node29&#45;&gt;Node33 -->
<g id="edge32_Node000029_Node000033" class="edge">
<title>Node29&#45;&gt;Node33</title>
<g id="a_edge32_Node000029_Node000033"><a xlink:title=" ">
<path fill="none" stroke="#63b8ff" d="M433.89,-106.07C436.08,-105 438.21,-103.85 440.25,-102.62 460.19,-90.64 456.03,-76.13 476.25,-64.62 481.8,-61.47 487.87,-58.86 494.09,-56.72"/>
<polygon fill="#63b8ff" stroke="#63b8ff" points="432.56,-102.83 424.71,-109.95 435.29,-109.28 432.56,-102.83"/>
</a>
</g>
</g>
<!-- Node34 -->
<g id="Node000034" class="node">
<title>Node34</title>
<g id="a_Node000034"><a xlink:href="class_ogre_1_1_vulkan_uav_buffer_packed.html" target="_top" xlink:title=" ">
<polygon fill="white" stroke="#666666" points="631,-19.25 483,-19.25 483,0 631,0 631,-19.25"/>
<text text-anchor="middle" x="557" y="-5.75" font-family="Helvetica,sans-Serif" font-size="10.00">Ogre::VulkanUavBufferPacked</text>
</a>
</g>
</g>
<!-- Node29&#45;&gt;Node34 -->
<g id="edge33_Node000029_Node000034" class="edge">
<title>Node29&#45;&gt;Node34</title>
<g id="a_edge33_Node000029_Node000034"><a xlink:title=" ">
<path fill="none" stroke="#63b8ff" d="M437.32,-104.89C438.33,-104.17 439.31,-103.42 440.25,-102.62 468.61,-78.91 447.33,-50.66 476.25,-27.62 480.25,-24.44 484.7,-21.8 489.39,-19.6"/>
<polygon fill="#63b8ff" stroke="#63b8ff" points="435.82,-101.72 428.95,-109.78 439.35,-107.76 435.82,-101.72"/>
</a>
</g>
</g>
</g>
</svg>
