<?xml version="1.0" encoding="UTF-8" standalone="no"?>
<!DOCTYPE svg PUBLIC "-//W3C//DTD SVG 1.1//EN"
 "http://www.w3.org/Graphics/SVG/1.1/DTD/svg11.dtd">
<!-- Generated by graphviz version 7.0.5 (20221223.1930)
 -->
<!-- Title: Ogre::v1::HardwareVertexBuffer Pages: 1 -->
<svg width="593pt" height="326pt"
 viewBox="0.00 0.00 593.00 326.00" xmlns="http://www.w3.org/2000/svg" xmlns:xlink="http://www.w3.org/1999/xlink">
<g id="graph0" class="graph" transform="scale(1 1) rotate(0) translate(4 322)">
<title>Ogre::v1::HardwareVertexBuffer</title>
<!-- Node1 -->
<g id="node1" class="node">
<title>Node1</title>
<g id="a_node1"><a xlink:title="Specialisation of HardwareBuffer for a vertex buffer.">
<polygon fill="#999999" stroke="#666666" points="388,-174 261,-174 261,-144 388,-144 388,-174"/>
<text text-anchor="start" x="269" y="-162" font-family="Helvetica,sans-Serif" font-size="10.00">Ogre::v1::HardwareVertex</text>
<text text-anchor="middle" x="324.5" y="-151" font-family="Helvetica,sans-Serif" font-size="10.00">Buffer</text>
</a>
</g>
</g>
<!-- Node4 -->
<g id="node4" class="node">
<title>Node4</title>
<g id="a_node4"><a xlink:href="class_ogre_1_1v1_1_1_d3_d11_hardware_vertex_buffer.html" target="_top" xlink:title="Specialisation of HardwareVertexBuffer for D3D11.">
<polygon fill="white" stroke="#666666" points="582.5,-318 426.5,-318 426.5,-288 582.5,-288 582.5,-318"/>
<text text-anchor="start" x="434.5" y="-306" font-family="Helvetica,sans-Serif" font-size="10.00">Ogre::v1::D3D11HardwareVertex</text>
<text text-anchor="middle" x="504.5" y="-295" font-family="Helvetica,sans-Serif" font-size="10.00">Buffer</text>
</a>
</g>
</g>
<!-- Node1&#45;&gt;Node4 -->
<g id="edge3" class="edge">
<title>Node1&#45;&gt;Node4</title>
<path fill="none" stroke="#63b8ff" d="M339.72,-183.95C356.48,-211.18 386.82,-254.2 424,-279 428.92,-282.28 434.3,-285.13 439.87,-287.59"/>
<polygon fill="#63b8ff" stroke="#63b8ff" points="342.89,-182.44 334.75,-175.66 336.89,-186.03 342.89,-182.44"/>
</g>
<!-- Node5 -->
<g id="node5" class="node">
<title>Node5</title>
<g id="a_node5"><a xlink:href="class_ogre_1_1v1_1_1_default_hardware_vertex_buffer.html" target="_top" xlink:title="Specialisation of HardwareVertexBuffer for emulation.">
<polygon fill="white" stroke="#666666" points="569.5,-270 439.5,-270 439.5,-240 569.5,-240 569.5,-270"/>
<text text-anchor="start" x="447.5" y="-258" font-family="Helvetica,sans-Serif" font-size="10.00">Ogre::v1::DefaultHardware</text>
<text text-anchor="middle" x="504.5" y="-247" font-family="Helvetica,sans-Serif" font-size="10.00">VertexBuffer</text>
</a>
</g>
</g>
<!-- Node1&#45;&gt;Node5 -->
<g id="edge4" class="edge">
<title>Node1&#45;&gt;Node5</title>
<path fill="none" stroke="#63b8ff" d="M351.11,-181.49C370.13,-197.21 397.28,-217.69 424,-231 430.45,-234.21 437.42,-237.09 444.45,-239.63"/>
<polygon fill="#63b8ff" stroke="#63b8ff" points="353.53,-178.95 343.63,-175.19 349.02,-184.31 353.53,-178.95"/>
</g>
<!-- Node6 -->
<g id="node6" class="node">
<title>Node6</title>
<g id="a_node6"><a xlink:href="class_ogre_1_1v1_1_1_g_l3_plus_default_hardware_vertex_buffer.html" target="_top" xlink:title="Specialisation of HardwareVertexBuffer for emulation.">
<polygon fill="white" stroke="#666666" points="567.5,-222 441.5,-222 441.5,-192 567.5,-192 567.5,-222"/>
<text text-anchor="start" x="449.5" y="-210" font-family="Helvetica,sans-Serif" font-size="10.00">Ogre::v1::GL3PlusDefault</text>
<text text-anchor="middle" x="504.5" y="-199" font-family="Helvetica,sans-Serif" font-size="10.00">HardwareVertexBuffer</text>
</a>
</g>
</g>
<!-- Node1&#45;&gt;Node6 -->
<g id="edge5" class="edge">
<title>Node1&#45;&gt;Node6</title>
<path fill="none" stroke="#63b8ff" d="M393.48,-177.33C410.91,-182.03 429.48,-187.04 446.31,-191.58"/>
<polygon fill="#63b8ff" stroke="#63b8ff" points="394.83,-174.07 384.26,-174.85 393.01,-180.83 394.83,-174.07"/>
</g>
<!-- Node7 -->
<g id="node7" class="node">
<title>Node7</title>
<g id="a_node7"><a xlink:href="class_ogre_1_1v1_1_1_g_l3_plus_hardware_vertex_buffer.html" target="_top" xlink:title="Specialisation of HardwareVertexBuffer for OpenGL.">
<polygon fill="white" stroke="#666666" points="573,-174 436,-174 436,-144 573,-144 573,-174"/>
<text text-anchor="start" x="444" y="-162" font-family="Helvetica,sans-Serif" font-size="10.00">Ogre::v1::GL3PlusHardware</text>
<text text-anchor="middle" x="504.5" y="-151" font-family="Helvetica,sans-Serif" font-size="10.00">VertexBuffer</text>
</a>
</g>
</g>
<!-- Node1&#45;&gt;Node7 -->
<g id="edge6" class="edge">
<title>Node1&#45;&gt;Node7</title>
<path fill="none" stroke="#63b8ff" d="M399.55,-159C411.49,-159 423.79,-159 435.57,-159"/>
<polygon fill="#63b8ff" stroke="#63b8ff" points="399.77,-155.5 389.77,-159 399.77,-162.5 399.77,-155.5"/>
</g>
<!-- Node8 -->
<g id="node8" class="node">
<title>Node8</title>
<g id="a_node8"><a xlink:href="class_ogre_1_1v1_1_1_g_l_e_s2_default_hardware_vertex_buffer.html" target="_top" xlink:title="Specialisation of HardwareVertexBuffer for emulation.">
<polygon fill="white" stroke="#666666" points="585,-126 424,-126 424,-96 585,-96 585,-126"/>
<text text-anchor="start" x="432" y="-114" font-family="Helvetica,sans-Serif" font-size="10.00">Ogre::v1::GLES2DefaultHardware</text>
<text text-anchor="middle" x="504.5" y="-103" font-family="Helvetica,sans-Serif" font-size="10.00">VertexBuffer</text>
</a>
</g>
</g>
<!-- Node1&#45;&gt;Node8 -->
<g id="edge7" class="edge">
<title>Node1&#45;&gt;Node8</title>
<path fill="none" stroke="#63b8ff" d="M393.48,-140.67C410.91,-135.97 429.48,-130.96 446.31,-126.42"/>
<polygon fill="#63b8ff" stroke="#63b8ff" points="393.01,-137.17 384.26,-143.15 394.83,-143.93 393.01,-137.17"/>
</g>
<!-- Node9 -->
<g id="node9" class="node">
<title>Node9</title>
<g id="a_node9"><a xlink:href="class_ogre_1_1v1_1_1_metal_hardware_vertex_buffer.html" target="_top" xlink:title="Specialisation of HardwareVertexBuffer for Metal.">
<polygon fill="white" stroke="#666666" points="580,-78 429,-78 429,-48 580,-48 580,-78"/>
<text text-anchor="start" x="437" y="-66" font-family="Helvetica,sans-Serif" font-size="10.00">Ogre::v1::MetalHardwareVertex</text>
<text text-anchor="middle" x="504.5" y="-55" font-family="Helvetica,sans-Serif" font-size="10.00">Buffer</text>
</a>
</g>
</g>
<!-- Node1&#45;&gt;Node9 -->
<g id="edge8" class="edge">
<title>Node1&#45;&gt;Node9</title>
<path fill="none" stroke="#63b8ff" d="M351.11,-136.51C370.13,-120.79 397.28,-100.31 424,-87 430.45,-83.79 437.42,-80.91 444.45,-78.37"/>
<polygon fill="#63b8ff" stroke="#63b8ff" points="349.02,-133.69 343.63,-142.81 353.53,-139.05 349.02,-133.69"/>
</g>
<!-- Node10 -->
<g id="node10" class="node">
<title>Node10</title>
<g id="a_node10"><a xlink:href="class_ogre_1_1v1_1_1_vulkan_hardware_vertex_buffer.html" target="_top" xlink:title=" ">
<polygon fill="white" stroke="#666666" points="569,-30 440,-30 440,0 569,0 569,-30"/>
<text text-anchor="start" x="448" y="-18" font-family="Helvetica,sans-Serif" font-size="10.00">Ogre::v1::VulkanHardware</text>
<text text-anchor="middle" x="504.5" y="-7" font-family="Helvetica,sans-Serif" font-size="10.00">VertexBuffer</text>
</a>
</g>
</g>
<!-- Node1&#45;&gt;Node10 -->
<g id="edge9" class="edge">
<title>Node1&#45;&gt;Node10</title>
<path fill="none" stroke="#63b8ff" d="M339.72,-134.05C356.48,-106.82 386.82,-63.8 424,-39 428.92,-35.72 434.3,-32.87 439.87,-30.41"/>
<polygon fill="#63b8ff" stroke="#63b8ff" points="336.89,-131.97 334.75,-142.34 342.89,-135.56 336.89,-131.97"/>
</g>
<!-- Node2 -->
<g id="node2" class="node">
<title>Node2</title>
<g id="a_node2"><a xlink:href="class_ogre_1_1v1_1_1_hardware_buffer.html" target="_top" xlink:title="Abstract class defining common features of hardware buffers.">
<polygon fill="white" stroke="#666666" points="225,-168.5 100,-168.5 100,-149.5 225,-149.5 225,-168.5"/>
<text text-anchor="middle" x="162.5" y="-156.5" font-family="Helvetica,sans-Serif" font-size="10.00">Ogre::v1::HardwareBuffer</text>
</a>
</g>
</g>
<!-- Node2&#45;&gt;Node1 -->
<g id="edge1" class="edge">
<title>Node2&#45;&gt;Node1</title>
<path fill="none" stroke="#63b8ff" d="M236.65,-159C244.7,-159 252.84,-159 260.75,-159"/>
<polygon fill="#63b8ff" stroke="#63b8ff" points="236.87,-155.5 226.87,-159 236.87,-162.5 236.87,-155.5"/>
</g>
<!-- Node3 -->
<g id="node3" class="node">
<title>Node3</title>
<g id="a_node3"><a xlink:href="class_ogre_1_1_allocated_object.html" target="_top" xlink:title="Superclass for all objects that wish to use custom memory allocators when their new / delete operator...">
<polygon fill="white" stroke="#666666" points="64,-168.5 0,-168.5 0,-149.5 64,-149.5 64,-168.5"/>
<text text-anchor="middle" x="32" y="-156.5" font-family="Helvetica,sans-Serif" font-size="10.00">BufferAlloc</text>
</a>
</g>
</g>
<!-- Node3&#45;&gt;Node2 -->
<g id="edge2" class="edge">
<title>Node3&#45;&gt;Node2</title>
<path fill="none" stroke="#63b8ff" d="M75.71,-159C83.42,-159 91.6,-159 99.73,-159"/>
<polygon fill="#63b8ff" stroke="#63b8ff" points="75.95,-155.5 65.95,-159 75.95,-162.5 75.95,-155.5"/>
</g>
</g>
</svg>
