<?xml version="1.0" encoding="UTF-8" standalone="no"?>
<!DOCTYPE svg PUBLIC "-//W3C//DTD SVG 1.1//EN"
 "http://www.w3.org/Graphics/SVG/1.1/DTD/svg11.dtd">
<!-- Generated by graphviz version 9.0.0 (20230911.1827)
 -->
<!-- Title: Ogre::MetalReadOnlyBufferPacked Pages: 1 -->
<svg width="150pt" height="260pt"
 viewBox="0.00 0.00 150.00 259.50" xmlns="http://www.w3.org/2000/svg" xmlns:xlink="http://www.w3.org/1999/xlink">
<g id="graph0" class="graph" transform="scale(1 1) rotate(0) translate(4 255.5)">
<title>Ogre::MetalReadOnlyBufferPacked</title>
<!-- Node1 -->
<g id="Node000001" class="node">
<title>Node1</title>
<g id="a_Node000001"><a xlink:title=" ">
<polygon fill="#999999" stroke="#666666" points="137.5,-30.5 4.5,-30.5 4.5,0 137.5,0 137.5,-30.5"/>
<text text-anchor="start" x="12.5" y="-17" font-family="Helvetica,sans-Serif" font-size="10.00">Ogre::MetalReadOnlyBuffer</text>
<text text-anchor="middle" x="71" y="-5.75" font-family="Helvetica,sans-Serif" font-size="10.00">Packed</text>
</a>
</g>
</g>
<!-- Node2 -->
<g id="Node000002" class="node">
<title>Node2</title>
<g id="a_Node000002"><a xlink:href="class_ogre_1_1_metal_tex_buffer_packed.html" target="_top" xlink:title="In Metal, Tex and ReadOnly buffers are exactly the same, thus we derive from ReadOnlyBufferPacked to ...">
<polygon fill="white" stroke="#666666" points="140.88,-85.75 1.12,-85.75 1.12,-66.5 140.88,-66.5 140.88,-85.75"/>
<text text-anchor="middle" x="71" y="-72.25" font-family="Helvetica,sans-Serif" font-size="10.00">Ogre::MetalTexBufferPacked</text>
</a>
</g>
</g>
<!-- Node2&#45;&gt;Node1 -->
<g id="edge1_Node000001_Node000002" class="edge">
<title>Node2&#45;&gt;Node1</title>
<g id="a_edge1_Node000001_Node000002"><a xlink:title=" ">
<path fill="none" stroke="#63b8ff" d="M71,-54.92C71,-46.99 71,-38.06 71,-30.78"/>
<polygon fill="#63b8ff" stroke="#63b8ff" points="67.5,-54.67 71,-64.67 74.5,-54.67 67.5,-54.67"/>
</a>
</g>
</g>
<!-- Node3 -->
<g id="Node000003" class="node">
<title>Node3</title>
<g id="a_Node000003"><a xlink:href="class_ogre_1_1_read_only_buffer_packed.html" target="_top" xlink:title="Represents the best way to access read&#45;only data.">
<polygon fill="white" stroke="#666666" points="142,-141 0,-141 0,-121.75 142,-121.75 142,-141"/>
<text text-anchor="middle" x="71" y="-127.5" font-family="Helvetica,sans-Serif" font-size="10.00">Ogre::ReadOnlyBufferPacked</text>
</a>
</g>
</g>
<!-- Node3&#45;&gt;Node2 -->
<g id="edge2_Node000002_Node000003" class="edge">
<title>Node3&#45;&gt;Node2</title>
<g id="a_edge2_Node000002_Node000003"><a xlink:title=" ">
<path fill="none" stroke="#63b8ff" d="M71,-110.13C71,-101.84 71,-92.67 71,-86.11"/>
<polygon fill="#63b8ff" stroke="#63b8ff" points="67.5,-110.07 71,-120.07 74.5,-110.07 67.5,-110.07"/>
</a>
</g>
</g>
<!-- Node4 -->
<g id="Node000004" class="node">
<title>Node4</title>
<g id="a_Node000004"><a xlink:href="class_ogre_1_1_tex_buffer_packed.html" target="_top" xlink:title="Represents Texture buffers (also known as tbuffers in D3D11)">
<polygon fill="white" stroke="#666666" points="128.88,-196.25 13.12,-196.25 13.12,-177 128.88,-177 128.88,-196.25"/>
<text text-anchor="middle" x="71" y="-182.75" font-family="Helvetica,sans-Serif" font-size="10.00">Ogre::TexBufferPacked</text>
</a>
</g>
</g>
<!-- Node4&#45;&gt;Node3 -->
<g id="edge3_Node000003_Node000004" class="edge">
<title>Node4&#45;&gt;Node3</title>
<g id="a_edge3_Node000003_Node000004"><a xlink:title=" ">
<path fill="none" stroke="#63b8ff" d="M71,-165.38C71,-157.09 71,-147.92 71,-141.36"/>
<polygon fill="#63b8ff" stroke="#63b8ff" points="67.5,-165.32 71,-175.32 74.5,-165.32 67.5,-165.32"/>
</a>
</g>
</g>
<!-- Node5 -->
<g id="Node000005" class="node">
<title>Node5</title>
<g id="a_Node000005"><a xlink:href="class_ogre_1_1_buffer_packed.html" target="_top" xlink:title=" ">
<polygon fill="#fff0f0" stroke="red" points="121,-251.5 21,-251.5 21,-232.25 121,-232.25 121,-251.5"/>
<text text-anchor="middle" x="71" y="-238" font-family="Helvetica,sans-Serif" font-size="10.00">Ogre::BufferPacked</text>
</a>
</g>
</g>
<!-- Node5&#45;&gt;Node4 -->
<g id="edge4_Node000004_Node000005" class="edge">
<title>Node5&#45;&gt;Node4</title>
<g id="a_edge4_Node000004_Node000005"><a xlink:title=" ">
<path fill="none" stroke="#63b8ff" d="M71,-220.63C71,-212.34 71,-203.17 71,-196.61"/>
<polygon fill="#63b8ff" stroke="#63b8ff" points="67.5,-220.57 71,-230.57 74.5,-220.57 67.5,-220.57"/>
</a>
</g>
</g>
</g>
</svg>
