<?xml version="1.0" encoding="UTF-8" standalone="no"?>
<!DOCTYPE svg PUBLIC "-//W3C//DTD SVG 1.1//EN"
 "http://www.w3.org/Graphics/SVG/1.1/DTD/svg11.dtd">
<!-- Generated by graphviz version 9.0.0 (20230911.1827)
 -->
<!-- Title: Ogre::v1::HardwareIndexBuffer Pages: 1 -->
<svg width="611pt" height="333pt"
 viewBox="0.00 0.00 611.25 332.50" xmlns="http://www.w3.org/2000/svg" xmlns:xlink="http://www.w3.org/1999/xlink">
<g id="graph0" class="graph" transform="scale(1 1) rotate(0) translate(4 328.5)">
<title>Ogre::v1::HardwareIndexBuffer</title>
<!-- Node1 -->
<g id="Node000001" class="node">
<title>Node1</title>
<g id="a_Node000001"><a xlink:title="Specialisation of HardwareBuffer for vertex index buffers, still abstract.">
<polygon fill="#999999" stroke="#666666" points="406.5,-171.88 259.25,-171.88 259.25,-152.62 406.5,-152.62 406.5,-171.88"/>
<text text-anchor="middle" x="332.88" y="-158.38" font-family="Helvetica,sans-Serif" font-size="10.00">Ogre::v1::HardwareIndexBuffer</text>
</a>
</g>
</g>
<!-- Node4 -->
<g id="Node000004" class="node">
<title>Node4</title>
<g id="a_Node000004"><a xlink:href="class_ogre_1_1v1_1_1_d3_d11_hardware_index_buffer.html" target="_top" xlink:title=" ">
<polygon fill="white" stroke="#666666" points="598.38,-324.5 447.38,-324.5 447.38,-294 598.38,-294 598.38,-324.5"/>
<text text-anchor="start" x="455.38" y="-311" font-family="Helvetica,sans-Serif" font-size="10.00">Ogre::v1::D3D11HardwareIndex</text>
<text text-anchor="middle" x="522.88" y="-299.75" font-family="Helvetica,sans-Serif" font-size="10.00">Buffer</text>
</a>
</g>
</g>
<!-- Node1&#45;&gt;Node4 -->
<g id="edge3_Node000001_Node000004" class="edge">
<title>Node1&#45;&gt;Node4</title>
<g id="a_edge3_Node000001_Node000004"><a xlink:title=" ">
<path fill="none" stroke="#63b8ff" d="M346.08,-181.54C364.02,-208.38 400.04,-256.78 442.5,-284.25 448.08,-287.86 454.22,-290.98 460.53,-293.67"/>
<polygon fill="#63b8ff" stroke="#63b8ff" points="349.14,-179.82 340.74,-173.36 343.27,-183.65 349.14,-179.82"/>
</a>
</g>
</g>
<!-- Node5 -->
<g id="Node000005" class="node">
<title>Node5</title>
<g id="a_Node000005"><a xlink:href="class_ogre_1_1v1_1_1_default_hardware_index_buffer.html" target="_top" xlink:title="Specialisation of HardwareIndexBuffer for emulation.">
<polygon fill="white" stroke="#666666" points="587.5,-275.5 458.25,-275.5 458.25,-245 587.5,-245 587.5,-275.5"/>
<text text-anchor="start" x="466.25" y="-262" font-family="Helvetica,sans-Serif" font-size="10.00">Ogre::v1::DefaultHardware</text>
<text text-anchor="middle" x="522.88" y="-250.75" font-family="Helvetica,sans-Serif" font-size="10.00">IndexBuffer</text>
</a>
</g>
</g>
<!-- Node1&#45;&gt;Node5 -->
<g id="edge4_Node000001_Node000005" class="edge">
<title>Node1&#45;&gt;Node5</title>
<g id="a_edge4_Node000001_Node000005"><a xlink:title=" ">
<path fill="none" stroke="#63b8ff" d="M355.23,-179.32C376.36,-195.53 410.15,-219.69 442.5,-235.25 449.66,-238.7 457.41,-241.81 465.16,-244.59"/>
<polygon fill="#63b8ff" stroke="#63b8ff" points="357.43,-176.59 347.39,-173.21 353.12,-182.11 357.43,-176.59"/>
</a>
</g>
</g>
<!-- Node6 -->
<g id="Node000006" class="node">
<title>Node6</title>
<g id="a_Node000006"><a xlink:href="class_ogre_1_1v1_1_1_g_l3_plus_default_hardware_index_buffer.html" target="_top" xlink:title="Specialisation of HardwareIndexBuffer for emulation.">
<polygon fill="white" stroke="#666666" points="585.62,-226.5 460.12,-226.5 460.12,-196 585.62,-196 585.62,-226.5"/>
<text text-anchor="start" x="468.12" y="-213" font-family="Helvetica,sans-Serif" font-size="10.00">Ogre::v1::GL3PlusDefault</text>
<text text-anchor="middle" x="522.88" y="-201.75" font-family="Helvetica,sans-Serif" font-size="10.00">HardwareIndexBuffer</text>
</a>
</g>
</g>
<!-- Node1&#45;&gt;Node6 -->
<g id="edge5_Node000001_Node000006" class="edge">
<title>Node1&#45;&gt;Node6</title>
<g id="a_edge5_Node000001_Node000006"><a xlink:title=" ">
<path fill="none" stroke="#63b8ff" d="M383.35,-175.15C407.33,-181.39 436.33,-188.95 461.59,-195.54"/>
<polygon fill="#63b8ff" stroke="#63b8ff" points="384.4,-171.8 373.84,-172.67 382.63,-178.57 384.4,-171.8"/>
</a>
</g>
</g>
<!-- Node7 -->
<g id="Node000007" class="node">
<title>Node7</title>
<g id="a_Node000007"><a xlink:href="class_ogre_1_1v1_1_1_g_l3_plus_hardware_index_buffer.html" target="_top" xlink:title=" ">
<polygon fill="white" stroke="#666666" points="591.25,-177.5 454.5,-177.5 454.5,-147 591.25,-147 591.25,-177.5"/>
<text text-anchor="start" x="462.5" y="-164" font-family="Helvetica,sans-Serif" font-size="10.00">Ogre::v1::GL3PlusHardware</text>
<text text-anchor="middle" x="522.88" y="-152.75" font-family="Helvetica,sans-Serif" font-size="10.00">IndexBuffer</text>
</a>
</g>
</g>
<!-- Node1&#45;&gt;Node7 -->
<g id="edge6_Node000001_Node000007" class="edge">
<title>Node1&#45;&gt;Node7</title>
<g id="a_edge6_Node000001_Node000007"><a xlink:title=" ">
<path fill="none" stroke="#63b8ff" d="M418.27,-162.25C430.3,-162.25 442.54,-162.25 454.19,-162.25"/>
<polygon fill="#63b8ff" stroke="#63b8ff" points="418.34,-158.75 408.34,-162.25 418.34,-165.75 418.34,-158.75"/>
</a>
</g>
</g>
<!-- Node8 -->
<g id="Node000008" class="node">
<title>Node8</title>
<g id="a_Node000008"><a xlink:href="class_ogre_1_1v1_1_1_g_l_e_s2_default_hardware_index_buffer.html" target="_top" xlink:title="Specialisation of HardwareIndexBuffer for emulation.">
<polygon fill="white" stroke="#666666" points="603.25,-128.5 442.5,-128.5 442.5,-98 603.25,-98 603.25,-128.5"/>
<text text-anchor="start" x="450.5" y="-115" font-family="Helvetica,sans-Serif" font-size="10.00">Ogre::v1::GLES2DefaultHardware</text>
<text text-anchor="middle" x="522.88" y="-103.75" font-family="Helvetica,sans-Serif" font-size="10.00">IndexBuffer</text>
</a>
</g>
</g>
<!-- Node1&#45;&gt;Node8 -->
<g id="edge7_Node000001_Node000008" class="edge">
<title>Node1&#45;&gt;Node8</title>
<g id="a_edge7_Node000001_Node000008"><a xlink:title=" ">
<path fill="none" stroke="#63b8ff" d="M383.35,-149.35C407.33,-143.11 436.33,-135.55 461.59,-128.96"/>
<polygon fill="#63b8ff" stroke="#63b8ff" points="382.63,-145.93 373.84,-151.83 384.4,-152.7 382.63,-145.93"/>
</a>
</g>
</g>
<!-- Node9 -->
<g id="Node000009" class="node">
<title>Node9</title>
<g id="a_Node000009"><a xlink:href="class_ogre_1_1v1_1_1_metal_hardware_index_buffer.html" target="_top" xlink:title="Specialisation of HardwareIndexBuffer for Metal.">
<polygon fill="white" stroke="#666666" points="595.75,-79.5 450,-79.5 450,-49 595.75,-49 595.75,-79.5"/>
<text text-anchor="start" x="458" y="-66" font-family="Helvetica,sans-Serif" font-size="10.00">Ogre::v1::MetalHardwareIndex</text>
<text text-anchor="middle" x="522.88" y="-54.75" font-family="Helvetica,sans-Serif" font-size="10.00">Buffer</text>
</a>
</g>
</g>
<!-- Node1&#45;&gt;Node9 -->
<g id="edge8_Node000001_Node000009" class="edge">
<title>Node1&#45;&gt;Node9</title>
<g id="a_edge8_Node000001_Node000009"><a xlink:title=" ">
<path fill="none" stroke="#63b8ff" d="M355.23,-145.18C376.36,-128.97 410.15,-104.81 442.5,-89.25 449.66,-85.8 457.41,-82.69 465.16,-79.91"/>
<polygon fill="#63b8ff" stroke="#63b8ff" points="353.12,-142.39 347.39,-151.29 357.43,-147.91 353.12,-142.39"/>
</a>
</g>
</g>
<!-- Node10 -->
<g id="Node000010" class="node">
<title>Node10</title>
<g id="a_Node000010"><a xlink:href="class_ogre_1_1v1_1_1_vulkan_hardware_index_buffer.html" target="_top" xlink:title=" ">
<polygon fill="white" stroke="#666666" points="587.12,-30.5 458.62,-30.5 458.62,0 587.12,0 587.12,-30.5"/>
<text text-anchor="start" x="466.62" y="-17" font-family="Helvetica,sans-Serif" font-size="10.00">Ogre::v1::VulkanHardware</text>
<text text-anchor="middle" x="522.88" y="-5.75" font-family="Helvetica,sans-Serif" font-size="10.00">IndexBuffer</text>
</a>
</g>
</g>
<!-- Node1&#45;&gt;Node10 -->
<g id="edge9_Node000001_Node000010" class="edge">
<title>Node1&#45;&gt;Node10</title>
<g id="a_edge9_Node000001_Node000010"><a xlink:title=" ">
<path fill="none" stroke="#63b8ff" d="M346.08,-142.96C364.02,-116.12 400.04,-67.72 442.5,-40.25 448.08,-36.64 454.22,-33.52 460.53,-30.83"/>
<polygon fill="#63b8ff" stroke="#63b8ff" points="343.27,-140.85 340.74,-151.14 349.14,-144.68 343.27,-140.85"/>
</a>
</g>
</g>
<!-- Node2 -->
<g id="Node000002" class="node">
<title>Node2</title>
<g id="a_Node000002"><a xlink:href="class_ogre_1_1v1_1_1_hardware_buffer.html" target="_top" xlink:title="Abstract class defining common features of hardware buffers.">
<polygon fill="white" stroke="#666666" points="223.25,-171.88 99.25,-171.88 99.25,-152.62 223.25,-152.62 223.25,-171.88"/>
<text text-anchor="middle" x="161.25" y="-158.38" font-family="Helvetica,sans-Serif" font-size="10.00">Ogre::v1::HardwareBuffer</text>
</a>
</g>
</g>
<!-- Node2&#45;&gt;Node1 -->
<g id="edge1_Node000001_Node000002" class="edge">
<title>Node2&#45;&gt;Node1</title>
<g id="a_edge1_Node000001_Node000002"><a xlink:title=" ">
<path fill="none" stroke="#63b8ff" d="M234.96,-162.25C242.88,-162.25 250.95,-162.25 258.88,-162.25"/>
<polygon fill="#63b8ff" stroke="#63b8ff" points="235,-158.75 225,-162.25 235,-165.75 235,-158.75"/>
</a>
</g>
</g>
<!-- Node3 -->
<g id="Node000003" class="node">
<title>Node3</title>
<g id="a_Node000003"><a xlink:href="class_ogre_1_1_allocated_object.html" target="_top" xlink:title="Superclass for all objects that wish to use custom memory allocators when their new / delete operator...">
<polygon fill="white" stroke="#666666" points="63.25,-171.88 0,-171.88 0,-152.62 63.25,-152.62 63.25,-171.88"/>
<text text-anchor="middle" x="31.62" y="-158.38" font-family="Helvetica,sans-Serif" font-size="10.00">BufferAlloc</text>
</a>
</g>
</g>
<!-- Node3&#45;&gt;Node2 -->
<g id="edge2_Node000002_Node000003" class="edge">
<title>Node3&#45;&gt;Node2</title>
<g id="a_edge2_Node000002_Node000003"><a xlink:title=" ">
<path fill="none" stroke="#63b8ff" d="M74.81,-162.25C82.53,-162.25 90.74,-162.25 98.89,-162.25"/>
<polygon fill="#63b8ff" stroke="#63b8ff" points="75.03,-158.75 65.03,-162.25 75.03,-165.75 75.03,-158.75"/>
</a>
</g>
</g>
</g>
</svg>
