<?xml version="1.0" encoding="UTF-8" standalone="no"?>
<!DOCTYPE svg PUBLIC "-//W3C//DTD SVG 1.1//EN"
 "http://www.w3.org/Graphics/SVG/1.1/DTD/svg11.dtd">
<!-- Generated by graphviz version 9.0.0 (20230911.1827)
 -->
<!-- Title: Ogre::RenderSystem::Listener Pages: 1 -->
<svg width="547pt" height="138pt"
 viewBox="0.00 0.00 546.50 138.25" xmlns="http://www.w3.org/2000/svg" xmlns:xlink="http://www.w3.org/1999/xlink">
<g id="graph0" class="graph" transform="scale(1 1) rotate(0) translate(4 134.25)">
<title>Ogre::RenderSystem::Listener</title>
<!-- Node1 -->
<g id="Node000001" class="node">
<title>Node1</title>
<g id="a_Node000001"><a xlink:title="Defines a listener on the custom events that this render system can raise.">
<polygon fill="#999999" stroke="#666666" points="105.25,-79.88 0,-79.88 0,-49.38 105.25,-49.38 105.25,-79.88"/>
<text text-anchor="start" x="8" y="-66.38" font-family="Helvetica,sans-Serif" font-size="10.00">Ogre::RenderSystem</text>
<text text-anchor="middle" x="52.62" y="-55.12" font-family="Helvetica,sans-Serif" font-size="10.00">::Listener</text>
</a>
</g>
</g>
<!-- Node2 -->
<g id="Node000002" class="node">
<title>Node2</title>
<g id="a_Node000002"><a xlink:href="class_ogre_1_1_d3_d11_render_pass_descriptor.html" target="_top" xlink:title="D3D11 will share groups of ID3D11RenderTargetView all D3D11RenderPassDescriptor that share the same R...">
<polygon fill="white" stroke="#666666" points="316.25,-130.25 148,-130.25 148,-111 316.25,-111 316.25,-130.25"/>
<text text-anchor="middle" x="232.12" y="-116.75" font-family="Helvetica,sans-Serif" font-size="10.00">Ogre::D3D11RenderPassDescriptor</text>
</a>
</g>
</g>
<!-- Node1&#45;&gt;Node2 -->
<g id="edge1_Node000001_Node000002" class="edge">
<title>Node1&#45;&gt;Node2</title>
<g id="a_edge1_Node000001_Node000002"><a xlink:title=" ">
<path fill="none" stroke="#63b8ff" d="M95.89,-85.1C110.06,-91.39 126.12,-97.89 141.25,-102.62 150.97,-105.67 161.45,-108.31 171.69,-110.57"/>
<polygon fill="#63b8ff" stroke="#63b8ff" points="97.39,-81.94 86.84,-81 94.5,-88.31 97.39,-81.94"/>
</a>
</g>
</g>
<!-- Node3 -->
<g id="Node000003" class="node">
<title>Node3</title>
<g id="a_Node000003"><a xlink:href="class_ogre_1_1_d3_d9_stereo_driver_a_m_d.html" target="_top" xlink:title="Virtual interface of the stereo driver.">
<polygon fill="white" stroke="#666666" points="302.75,-93.25 161.5,-93.25 161.5,-74 302.75,-74 302.75,-93.25"/>
<text text-anchor="middle" x="232.12" y="-79.75" font-family="Helvetica,sans-Serif" font-size="10.00">Ogre::D3D9StereoDriverAMD</text>
</a>
</g>
</g>
<!-- Node1&#45;&gt;Node3 -->
<g id="edge2_Node000001_Node000003" class="edge">
<title>Node1&#45;&gt;Node3</title>
<g id="a_edge2_Node000001_Node000003"><a xlink:title=" ">
<path fill="none" stroke="#63b8ff" d="M116.73,-71.38C131.1,-72.92 146.45,-74.56 161.09,-76.13"/>
<polygon fill="#63b8ff" stroke="#63b8ff" points="117.26,-67.92 106.95,-70.33 116.52,-74.88 117.26,-67.92"/>
</a>
</g>
</g>
<!-- Node4 -->
<g id="Node000004" class="node">
<title>Node4</title>
<g id="a_Node000004"><a xlink:href="class_ogre_1_1_parallax_corrected_cubemap_base.html" target="_top" xlink:title=" ">
<polygon fill="white" stroke="#666666" points="323,-56.25 141.25,-56.25 141.25,-37 323,-37 323,-56.25"/>
<text text-anchor="middle" x="232.12" y="-42.75" font-family="Helvetica,sans-Serif" font-size="10.00">Ogre::ParallaxCorrectedCubemapBase</text>
</a>
</g>
</g>
<!-- Node1&#45;&gt;Node4 -->
<g id="edge3_Node000001_Node000004" class="edge">
<title>Node1&#45;&gt;Node4</title>
<g id="a_edge3_Node000001_Node000004"><a xlink:title=" ">
<path fill="none" stroke="#63b8ff" d="M116.7,-58.23C124.54,-57.43 132.68,-56.61 140.84,-55.78"/>
<polygon fill="#63b8ff" stroke="#63b8ff" points="116.54,-54.73 106.95,-59.22 117.25,-61.69 116.54,-54.73"/>
</a>
</g>
</g>
<!-- Node7 -->
<g id="Node000007" class="node">
<title>Node7</title>
<g id="a_Node000007"><a xlink:href="class_ogre_1_1v1_1_1_overlay_system.html" target="_top" xlink:title="This class simplify initialization / finalization of the overlay system.">
<polygon fill="white" stroke="#666666" points="293.38,-19.25 170.88,-19.25 170.88,0 293.38,0 293.38,-19.25"/>
<text text-anchor="middle" x="232.12" y="-5.75" font-family="Helvetica,sans-Serif" font-size="10.00">Ogre::v1::OverlaySystem</text>
</a>
</g>
</g>
<!-- Node1&#45;&gt;Node7 -->
<g id="edge6_Node000001_Node000007" class="edge">
<title>Node1&#45;&gt;Node7</title>
<g id="a_edge6_Node000001_Node000007"><a xlink:title=" ">
<path fill="none" stroke="#63b8ff" d="M96.65,-44.42C110.65,-38.4 126.41,-32.19 141.25,-27.62 151.14,-24.58 161.8,-21.92 172.2,-19.65"/>
<polygon fill="#63b8ff" stroke="#63b8ff" points="95.46,-41.12 87.71,-48.35 98.27,-47.53 95.46,-41.12"/>
</a>
</g>
</g>
<!-- Node5 -->
<g id="Node000005" class="node">
<title>Node5</title>
<g id="a_Node000005"><a xlink:href="class_ogre_1_1_parallax_corrected_cubemap.html" target="_top" xlink:title=" ">
<polygon fill="white" stroke="#666666" points="528.38,-74.25 369.12,-74.25 369.12,-55 528.38,-55 528.38,-74.25"/>
<text text-anchor="middle" x="448.75" y="-60.75" font-family="Helvetica,sans-Serif" font-size="10.00">Ogre::ParallaxCorrectedCubemap</text>
</a>
</g>
</g>
<!-- Node4&#45;&gt;Node5 -->
<g id="edge4_Node000004_Node000005" class="edge">
<title>Node4&#45;&gt;Node5</title>
<g id="a_edge4_Node000004_Node000005"><a xlink:title=" ">
<path fill="none" stroke="#63b8ff" d="M334.64,-55.14C346.11,-56.1 357.68,-57.07 368.8,-58"/>
<polygon fill="#63b8ff" stroke="#63b8ff" points="334.98,-51.65 324.72,-54.31 334.39,-58.63 334.98,-51.65"/>
</a>
</g>
</g>
<!-- Node6 -->
<g id="Node000006" class="node">
<title>Node6</title>
<g id="a_Node000006"><a xlink:href="class_ogre_1_1_parallax_corrected_cubemap_auto.html" target="_top" xlink:title="Per&#45;Pixel reflection probes.">
<polygon fill="white" stroke="#666666" points="538.5,-37.25 359,-37.25 359,-18 538.5,-18 538.5,-37.25"/>
<text text-anchor="middle" x="448.75" y="-23.75" font-family="Helvetica,sans-Serif" font-size="10.00">Ogre::ParallaxCorrectedCubemapAuto</text>
</a>
</g>
</g>
<!-- Node4&#45;&gt;Node6 -->
<g id="edge5_Node000004_Node000006" class="edge">
<title>Node4&#45;&gt;Node6</title>
<g id="a_edge5_Node000004_Node000006"><a xlink:title=" ">
<path fill="none" stroke="#63b8ff" d="M334.52,-37.65C342.56,-36.94 350.64,-36.22 358.58,-35.52"/>
<polygon fill="#63b8ff" stroke="#63b8ff" points="334.37,-34.15 324.72,-38.52 334.99,-41.12 334.37,-34.15"/>
</a>
</g>
</g>
</g>
</svg>
