<?xml version="1.0" encoding="UTF-8" standalone="no"?>
<!DOCTYPE svg PUBLIC "-//W3C//DTD SVG 1.1//EN"
 "http://www.w3.org/Graphics/SVG/1.1/DTD/svg11.dtd">
<!-- Generated by graphviz version 7.0.5 (20221223.1930)
 -->
<!-- Title: Ogre::v1::HardwareBufferManager Pages: 1 -->
<svg width="599pt" height="374pt"
 viewBox="0.00 0.00 599.00 374.00" xmlns="http://www.w3.org/2000/svg" xmlns:xlink="http://www.w3.org/1999/xlink">
<g id="graph0" class="graph" transform="scale(1 1) rotate(0) translate(4 370)">
<title>Ogre::v1::HardwareBufferManager</title>
<!-- Node1 -->
<g id="node1" class="node">
<title>Node1</title>
<g id="a_node1"><a xlink:title="Singleton wrapper for hardware buffer manager.">
<polygon fill="#999999" stroke="#666666" points="394,-198 269,-198 269,-168 394,-168 394,-198"/>
<text text-anchor="start" x="277" y="-186" font-family="Helvetica,sans-Serif" font-size="10.00">Ogre::v1::HardwareBuffer</text>
<text text-anchor="middle" x="331.5" y="-175" font-family="Helvetica,sans-Serif" font-size="10.00">Manager</text>
</a>
</g>
</g>
<!-- Node5 -->
<g id="node5" class="node">
<title>Node5</title>
<g id="a_node5"><a xlink:href="class_ogre_1_1v1_1_1_d3_d11_hardware_buffer_manager.html" target="_top" xlink:title="D3D11HardwareBufferManagerBase as a Singleton.">
<polygon fill="white" stroke="#666666" points="587.5,-366 433.5,-366 433.5,-336 587.5,-336 587.5,-366"/>
<text text-anchor="start" x="441.5" y="-354" font-family="Helvetica,sans-Serif" font-size="10.00">Ogre::v1::D3D11HardwareBuffer</text>
<text text-anchor="middle" x="510.5" y="-343" font-family="Helvetica,sans-Serif" font-size="10.00">Manager</text>
</a>
</g>
</g>
<!-- Node1&#45;&gt;Node5 -->
<g id="edge4" class="edge">
<title>Node1&#45;&gt;Node5</title>
<path fill="none" stroke="#63b8ff" d="M343.2,-208.53C358.01,-240.82 387.8,-295.95 430,-327 434.53,-330.33 439.52,-333.21 444.74,-335.68"/>
<polygon fill="#63b8ff" stroke="#63b8ff" points="346.45,-207.24 339.2,-199.52 340.06,-210.08 346.45,-207.24"/>
</g>
<!-- Node6 -->
<g id="node6" class="node">
<title>Node6</title>
<g id="a_node6"><a xlink:href="class_ogre_1_1v1_1_1_default_hardware_buffer_manager.html" target="_top" xlink:title="DefaultHardwareBufferManager as a Singleton.">
<polygon fill="white" stroke="#666666" points="575.5,-318 445.5,-318 445.5,-288 575.5,-288 575.5,-318"/>
<text text-anchor="start" x="453.5" y="-306" font-family="Helvetica,sans-Serif" font-size="10.00">Ogre::v1::DefaultHardware</text>
<text text-anchor="middle" x="510.5" y="-295" font-family="Helvetica,sans-Serif" font-size="10.00">BufferManager</text>
</a>
</g>
</g>
<!-- Node1&#45;&gt;Node6 -->
<g id="edge5" class="edge">
<title>Node1&#45;&gt;Node6</title>
<path fill="none" stroke="#63b8ff" d="M351.25,-207.24C369.25,-228.96 398.32,-260.21 430,-279 435.46,-282.24 441.38,-285.07 447.46,-287.54"/>
<polygon fill="#63b8ff" stroke="#63b8ff" points="353.97,-205.05 344.96,-199.47 348.53,-209.45 353.97,-205.05"/>
</g>
<!-- Node7 -->
<g id="node7" class="node">
<title>Node7</title>
<g id="a_node7"><a xlink:href="class_ogre_1_1v1_1_1_g_l3_plus_default_hardware_buffer_manager.html" target="_top" xlink:title="GL3PlusDefaultHardwareBufferManagerBase as a Singleton.">
<polygon fill="white" stroke="#666666" points="573.5,-270 447.5,-270 447.5,-240 573.5,-240 573.5,-270"/>
<text text-anchor="start" x="455.5" y="-258" font-family="Helvetica,sans-Serif" font-size="10.00">Ogre::v1::GL3PlusDefault</text>
<text text-anchor="middle" x="510.5" y="-247" font-family="Helvetica,sans-Serif" font-size="10.00">HardwareBufferManager</text>
</a>
</g>
</g>
<!-- Node1&#45;&gt;Node7 -->
<g id="edge6" class="edge">
<title>Node1&#45;&gt;Node7</title>
<path fill="none" stroke="#63b8ff" d="M370.5,-203.52C388.27,-212.64 409.9,-223.08 430,-231 437.65,-234.01 445.83,-236.87 453.93,-239.5"/>
<polygon fill="#63b8ff" stroke="#63b8ff" points="372.36,-200.54 361.87,-199.03 369.13,-206.75 372.36,-200.54"/>
</g>
<!-- Node8 -->
<g id="node8" class="node">
<title>Node8</title>
<g id="a_node8"><a xlink:href="class_ogre_1_1v1_1_1_g_l3_plus_hardware_buffer_manager.html" target="_top" xlink:title="GL3PlusHardwareBufferManagerBase as a Singleton.">
<polygon fill="white" stroke="#666666" points="579,-222 442,-222 442,-192 579,-192 579,-222"/>
<text text-anchor="start" x="450" y="-210" font-family="Helvetica,sans-Serif" font-size="10.00">Ogre::v1::GL3PlusHardware</text>
<text text-anchor="middle" x="510.5" y="-199" font-family="Helvetica,sans-Serif" font-size="10.00">BufferManager</text>
</a>
</g>
</g>
<!-- Node1&#45;&gt;Node8 -->
<g id="edge7" class="edge">
<title>Node1&#45;&gt;Node8</title>
<path fill="none" stroke="#63b8ff" d="M405.66,-192.92C417.56,-194.53 429.83,-196.2 441.59,-197.79"/>
<polygon fill="#63b8ff" stroke="#63b8ff" points="406.29,-189.47 395.91,-191.6 405.34,-196.41 406.29,-189.47"/>
</g>
<!-- Node9 -->
<g id="node9" class="node">
<title>Node9</title>
<g id="a_node9"><a xlink:href="class_ogre_1_1v1_1_1_g_l_e_s2_default_hardware_buffer_manager.html" target="_top" xlink:title="GLES2DefaultHardwareBufferManagerBase as a Singleton.">
<polygon fill="white" stroke="#666666" points="591,-174 430,-174 430,-144 591,-144 591,-174"/>
<text text-anchor="start" x="438" y="-162" font-family="Helvetica,sans-Serif" font-size="10.00">Ogre::v1::GLES2DefaultHardware</text>
<text text-anchor="middle" x="510.5" y="-151" font-family="Helvetica,sans-Serif" font-size="10.00">BufferManager</text>
</a>
</g>
</g>
<!-- Node1&#45;&gt;Node9 -->
<g id="edge8" class="edge">
<title>Node1&#45;&gt;Node9</title>
<path fill="none" stroke="#63b8ff" d="M405.77,-173.06C413.63,-172 421.65,-170.91 429.58,-169.84"/>
<polygon fill="#63b8ff" stroke="#63b8ff" points="405.34,-169.59 395.91,-174.4 406.29,-176.53 405.34,-169.59"/>
</g>
<!-- Node10 -->
<g id="node10" class="node">
<title>Node10</title>
<g id="a_node10"><a xlink:href="class_ogre_1_1v1_1_1_g_l_e_s2_hardware_buffer_manager.html" target="_top" xlink:title="GLES2HardwareBufferManagerBase as a Singleton.">
<polygon fill="white" stroke="#666666" points="588.5,-126 432.5,-126 432.5,-96 588.5,-96 588.5,-126"/>
<text text-anchor="start" x="440.5" y="-114" font-family="Helvetica,sans-Serif" font-size="10.00">Ogre::v1::GLES2HardwareBuffer</text>
<text text-anchor="middle" x="510.5" y="-103" font-family="Helvetica,sans-Serif" font-size="10.00">Manager</text>
</a>
</g>
</g>
<!-- Node1&#45;&gt;Node10 -->
<g id="edge9" class="edge">
<title>Node1&#45;&gt;Node10</title>
<path fill="none" stroke="#63b8ff" d="M370.5,-162.48C388.27,-153.36 409.9,-142.92 430,-135 437.65,-131.99 445.83,-129.13 453.93,-126.5"/>
<polygon fill="#63b8ff" stroke="#63b8ff" points="369.13,-159.25 361.87,-166.97 372.36,-165.46 369.13,-159.25"/>
</g>
<!-- Node11 -->
<g id="node11" class="node">
<title>Node11</title>
<g id="a_node11"><a xlink:href="class_ogre_1_1v1_1_1_metal_hardware_buffer_manager.html" target="_top" xlink:title="MetalHardwareBufferManagerBase as a Singleton.">
<polygon fill="white" stroke="#666666" points="585,-78 436,-78 436,-48 585,-48 585,-78"/>
<text text-anchor="start" x="444" y="-66" font-family="Helvetica,sans-Serif" font-size="10.00">Ogre::v1::MetalHardwareBuffer</text>
<text text-anchor="middle" x="510.5" y="-55" font-family="Helvetica,sans-Serif" font-size="10.00">Manager</text>
</a>
</g>
</g>
<!-- Node1&#45;&gt;Node11 -->
<g id="edge10" class="edge">
<title>Node1&#45;&gt;Node11</title>
<path fill="none" stroke="#63b8ff" d="M351.25,-158.76C369.25,-137.04 398.32,-105.79 430,-87 435.46,-83.76 441.38,-80.93 447.46,-78.46"/>
<polygon fill="#63b8ff" stroke="#63b8ff" points="348.53,-156.55 344.96,-166.53 353.97,-160.95 348.53,-156.55"/>
</g>
<!-- Node12 -->
<g id="node12" class="node">
<title>Node12</title>
<g id="a_node12"><a xlink:href="class_ogre_1_1v1_1_1_vulkan_hardware_buffer_manager.html" target="_top" xlink:title=" ">
<polygon fill="white" stroke="#666666" points="575,-30 446,-30 446,0 575,0 575,-30"/>
<text text-anchor="start" x="454" y="-18" font-family="Helvetica,sans-Serif" font-size="10.00">Ogre::v1::VulkanHardware</text>
<text text-anchor="middle" x="510.5" y="-7" font-family="Helvetica,sans-Serif" font-size="10.00">BufferManager</text>
</a>
</g>
</g>
<!-- Node1&#45;&gt;Node12 -->
<g id="edge11" class="edge">
<title>Node1&#45;&gt;Node12</title>
<path fill="none" stroke="#63b8ff" d="M343.2,-157.47C358.01,-125.18 387.8,-70.05 430,-39 434.76,-35.5 440.04,-32.5 445.54,-29.94"/>
<polygon fill="#63b8ff" stroke="#63b8ff" points="340.06,-155.92 339.2,-166.48 346.45,-158.76 340.06,-155.92"/>
</g>
<!-- Node2 -->
<g id="node2" class="node">
<title>Node2</title>
<g id="a_node2"><a xlink:href="class_ogre_1_1v1_1_1_hardware_buffer_manager_base.html" target="_top" xlink:title="Base definition of a hardware buffer manager.">
<polygon fill="white" stroke="#666666" points="229,-222 104,-222 104,-192 229,-192 229,-222"/>
<text text-anchor="start" x="112" y="-210" font-family="Helvetica,sans-Serif" font-size="10.00">Ogre::v1::HardwareBuffer</text>
<text text-anchor="middle" x="166.5" y="-199" font-family="Helvetica,sans-Serif" font-size="10.00">ManagerBase</text>
</a>
</g>
</g>
<!-- Node2&#45;&gt;Node1 -->
<g id="edge1" class="edge">
<title>Node2&#45;&gt;Node1</title>
<path fill="none" stroke="#63b8ff" d="M240.45,-196.26C249.82,-194.88 259.34,-193.48 268.52,-192.13"/>
<polygon fill="#63b8ff" stroke="#63b8ff" points="240,-192.79 230.62,-197.71 241.02,-199.71 240,-192.79"/>
</g>
<!-- Node3 -->
<g id="node3" class="node">
<title>Node3</title>
<g id="a_node3"><a xlink:href="class_ogre_1_1_allocated_object.html" target="_top" xlink:title="Superclass for all objects that wish to use custom memory allocators when their new / delete operator...">
<polygon fill="white" stroke="#666666" points="64,-216.5 0,-216.5 0,-197.5 64,-197.5 64,-216.5"/>
<text text-anchor="middle" x="32" y="-204.5" font-family="Helvetica,sans-Serif" font-size="10.00">BufferAlloc</text>
</a>
</g>
</g>
<!-- Node3&#45;&gt;Node2 -->
<g id="edge2" class="edge">
<title>Node3&#45;&gt;Node2</title>
<path fill="none" stroke="#63b8ff" d="M75.68,-207C84.6,-207 94.17,-207 103.62,-207"/>
<polygon fill="#63b8ff" stroke="#63b8ff" points="75.91,-203.5 65.91,-207 75.91,-210.5 75.91,-203.5"/>
</g>
<!-- Node4 -->
<g id="node4" class="node">
<title>Node4</title>
<g id="a_node4"><a xlink:href="class_ogre_1_1_singleton.html" target="_top" xlink:title=" ">
<polygon fill="white" stroke="#666666" points="233,-174 100,-174 100,-144 233,-144 233,-174"/>
<text text-anchor="start" x="108" y="-162" font-family="Helvetica,sans-Serif" font-size="10.00">Ogre::Singleton&lt; Hardware</text>
<text text-anchor="middle" x="166.5" y="-151" font-family="Helvetica,sans-Serif" font-size="10.00">BufferManager &gt;</text>
</a>
</g>
</g>
<!-- Node4&#45;&gt;Node1 -->
<g id="edge3" class="edge">
<title>Node4&#45;&gt;Node1</title>
<path fill="none" stroke="#63b8ff" d="M244.64,-170.36C252.69,-171.54 260.8,-172.74 268.65,-173.89"/>
<polygon fill="#63b8ff" stroke="#63b8ff" points="245.23,-166.91 234.83,-168.91 244.21,-173.83 245.23,-166.91"/>
</g>
</g>
</svg>
