<?xml version="1.0" encoding="UTF-8" standalone="no"?>
<!DOCTYPE svg PUBLIC "-//W3C//DTD SVG 1.1//EN"
 "http://www.w3.org/Graphics/SVG/1.1/DTD/svg11.dtd">
<!-- Generated by graphviz version 9.0.0 (20230911.1827)
 -->
<!-- Title: Ogre::ManualResourceLoader Pages: 1 -->
<svg width="425pt" height="83pt"
 viewBox="0.00 0.00 424.50 82.50" xmlns="http://www.w3.org/2000/svg" xmlns:xlink="http://www.w3.org/1999/xlink">
<g id="graph0" class="graph" transform="scale(1 1) rotate(0) translate(4 78.5)">
<title>Ogre::ManualResourceLoader</title>
<!-- Node1 -->
<g id="Node000001" class="node">
<title>Node1</title>
<g id="a_Node000001"><a xlink:title="Interface describing a manual resource loader.">
<polygon fill="#999999" stroke="#666666" points="272.62,-74.5 128.38,-74.5 128.38,-55.25 272.62,-55.25 272.62,-74.5"/>
<text text-anchor="middle" x="200.5" y="-61" font-family="Helvetica,sans-Serif" font-size="10.00">Ogre::ManualResourceLoader</text>
</a>
</g>
</g>
<!-- Node2 -->
<g id="Node000002" class="node">
<title>Node2</title>
<g id="a_Node000002"><a xlink:href="class_ogre_1_1_mesh_manager.html" target="_top" xlink:title="Handles the management of mesh resources.">
<polygon fill="white" stroke="#666666" points="103,-19.25 0,-19.25 0,0 103,0 103,-19.25"/>
<text text-anchor="middle" x="51.5" y="-5.75" font-family="Helvetica,sans-Serif" font-size="10.00">Ogre::MeshManager</text>
</a>
</g>
</g>
<!-- Node1&#45;&gt;Node2 -->
<g id="edge1_Node000001_Node000002" class="edge">
<title>Node1&#45;&gt;Node2</title>
<g id="a_edge1_Node000001_Node000002"><a xlink:title=" ">
<path fill="none" stroke="#63b8ff" d="M164.62,-51.05C137.53,-41.37 101.02,-28.32 76.9,-19.7"/>
<polygon fill="#63b8ff" stroke="#63b8ff" points="163.2,-54.26 173.8,-54.33 165.56,-47.67 163.2,-54.26"/>
</a>
</g>
</g>
<!-- Node3 -->
<g id="Node000003" class="node">
<title>Node3</title>
<g id="a_Node000003"><a xlink:href="class_ogre_1_1_parallax_corrected_cubemap.html" target="_top" xlink:title=" ">
<polygon fill="white" stroke="#666666" points="280.12,-19.25 120.88,-19.25 120.88,0 280.12,0 280.12,-19.25"/>
<text text-anchor="middle" x="200.5" y="-5.75" font-family="Helvetica,sans-Serif" font-size="10.00">Ogre::ParallaxCorrectedCubemap</text>
</a>
</g>
</g>
<!-- Node1&#45;&gt;Node3 -->
<g id="edge2_Node000001_Node000003" class="edge">
<title>Node1&#45;&gt;Node3</title>
<g id="a_edge2_Node000001_Node000003"><a xlink:title=" ">
<path fill="none" stroke="#8b1a1a" d="M200.5,-43.63C200.5,-35.34 200.5,-26.17 200.5,-19.61"/>
<polygon fill="#8b1a1a" stroke="#8b1a1a" points="197,-43.57 200.5,-53.57 204,-43.57 197,-43.57"/>
</a>
</g>
</g>
<!-- Node4 -->
<g id="Node000004" class="node">
<title>Node4</title>
<g id="a_Node000004"><a xlink:href="class_ogre_1_1v1_1_1_mesh_manager.html" target="_top" xlink:title="Handles the management of mesh resources.">
<polygon fill="white" stroke="#666666" points="416.5,-19.25 298.5,-19.25 298.5,0 416.5,0 416.5,-19.25"/>
<text text-anchor="middle" x="357.5" y="-5.75" font-family="Helvetica,sans-Serif" font-size="10.00">Ogre::v1::MeshManager</text>
</a>
</g>
</g>
<!-- Node1&#45;&gt;Node4 -->
<g id="edge3_Node000001_Node000004" class="edge">
<title>Node1&#45;&gt;Node4</title>
<g id="a_edge3_Node000001_Node000004"><a xlink:title=" ">
<path fill="none" stroke="#63b8ff" d="M237.93,-51.18C266.51,-41.49 305.2,-28.36 330.74,-19.7"/>
<polygon fill="#63b8ff" stroke="#63b8ff" points="236.91,-47.83 228.57,-54.36 239.16,-54.46 236.91,-47.83"/>
</a>
</g>
</g>
</g>
</svg>
