<?xml version="1.0" encoding="UTF-8" standalone="no"?>
<!DOCTYPE svg PUBLIC "-//W3C//DTD SVG 1.1//EN"
 "http://www.w3.org/Graphics/SVG/1.1/DTD/svg11.dtd">
<!-- Generated by graphviz version 9.0.0 (20230911.1827)
 -->
<!-- Title: Ogre::ParallaxCorrectedCubemapBase Pages: 1 -->
<svg width="392pt" height="149pt"
 viewBox="0.00 0.00 391.50 149.00" xmlns="http://www.w3.org/2000/svg" xmlns:xlink="http://www.w3.org/1999/xlink">
<g id="graph0" class="graph" transform="scale(1 1) rotate(0) translate(4 145)">
<title>Ogre::ParallaxCorrectedCubemapBase</title>
<!-- Node1 -->
<g id="Node000001" class="node">
<title>Node1</title>
<g id="a_Node000001"><a xlink:title=" ">
<polygon fill="#999999" stroke="#666666" points="263.5,-74.5 81.75,-74.5 81.75,-55.25 263.5,-55.25 263.5,-74.5"/>
<text text-anchor="middle" x="172.62" y="-61" font-family="Helvetica,sans-Serif" font-size="10.00">Ogre::ParallaxCorrectedCubemapBase</text>
</a>
</g>
</g>
<!-- Node5 -->
<g id="Node000005" class="node">
<title>Node5</title>
<g id="a_Node000005"><a xlink:href="class_ogre_1_1_parallax_corrected_cubemap.html" target="_top" xlink:title=" ">
<polygon fill="white" stroke="#666666" points="159.25,-19.25 0,-19.25 0,0 159.25,0 159.25,-19.25"/>
<text text-anchor="middle" x="79.62" y="-5.75" font-family="Helvetica,sans-Serif" font-size="10.00">Ogre::ParallaxCorrectedCubemap</text>
</a>
</g>
</g>
<!-- Node1&#45;&gt;Node5 -->
<g id="edge4_Node000001_Node000005" class="edge">
<title>Node1&#45;&gt;Node5</title>
<g id="a_edge4_Node000001_Node000005"><a xlink:title=" ">
<path fill="none" stroke="#63b8ff" d="M147.24,-49.34C130.71,-39.88 109.67,-27.83 95.48,-19.7"/>
<polygon fill="#63b8ff" stroke="#63b8ff" points="145.12,-52.16 155.54,-54.09 148.6,-46.08 145.12,-52.16"/>
</a>
</g>
</g>
<!-- Node6 -->
<g id="Node000006" class="node">
<title>Node6</title>
<g id="a_Node000006"><a xlink:href="class_ogre_1_1_parallax_corrected_cubemap_auto.html" target="_top" xlink:title="Per&#45;Pixel reflection probes.">
<polygon fill="white" stroke="#666666" points="356.38,-19.25 176.88,-19.25 176.88,0 356.38,0 356.38,-19.25"/>
<text text-anchor="middle" x="266.62" y="-5.75" font-family="Helvetica,sans-Serif" font-size="10.00">Ogre::ParallaxCorrectedCubemapAuto</text>
</a>
</g>
</g>
<!-- Node1&#45;&gt;Node6 -->
<g id="edge5_Node000001_Node000006" class="edge">
<title>Node1&#45;&gt;Node6</title>
<g id="a_edge5_Node000001_Node000006"><a xlink:title=" ">
<path fill="none" stroke="#63b8ff" d="M198.28,-49.34C214.99,-39.88 236.26,-27.83 250.6,-19.7"/>
<polygon fill="#63b8ff" stroke="#63b8ff" points="196.86,-46.12 189.89,-54.1 200.31,-52.21 196.86,-46.12"/>
</a>
</g>
</g>
<!-- Node2 -->
<g id="Node000002" class="node">
<title>Node2</title>
<g id="a_Node000002"><a xlink:href="class_ogre_1_1_id_object.html" target="_top" xlink:title=" ">
<polygon fill="white" stroke="#666666" points="101.75,-135.38 23.5,-135.38 23.5,-116.12 101.75,-116.12 101.75,-135.38"/>
<text text-anchor="middle" x="62.62" y="-121.88" font-family="Helvetica,sans-Serif" font-size="10.00">Ogre::IdObject</text>
</a>
</g>
</g>
<!-- Node2&#45;&gt;Node1 -->
<g id="edge1_Node000001_Node000002" class="edge">
<title>Node2&#45;&gt;Node1</title>
<g id="a_edge1_Node000001_Node000002"><a xlink:title=" ">
<path fill="none" stroke="#63b8ff" d="M89.39,-110.42C110.09,-99.35 138.09,-84.36 155.76,-74.9"/>
<polygon fill="#63b8ff" stroke="#63b8ff" points="87.83,-107.29 80.67,-115.09 91.13,-113.46 87.83,-107.29"/>
</a>
</g>
</g>
<!-- Node3 -->
<g id="Node000003" class="node">
<title>Node3</title>
<g id="a_Node000003"><a xlink:href="class_ogre_1_1_render_system_1_1_listener.html" target="_top" xlink:title="Defines a listener on the custom events that this render system can raise.">
<polygon fill="white" stroke="#666666" points="225.25,-141 120,-141 120,-110.5 225.25,-110.5 225.25,-141"/>
<text text-anchor="start" x="128" y="-127.5" font-family="Helvetica,sans-Serif" font-size="10.00">Ogre::RenderSystem</text>
<text text-anchor="middle" x="172.62" y="-116.25" font-family="Helvetica,sans-Serif" font-size="10.00">::Listener</text>
</a>
</g>
</g>
<!-- Node3&#45;&gt;Node1 -->
<g id="edge2_Node000001_Node000003" class="edge">
<title>Node3&#45;&gt;Node1</title>
<g id="a_edge2_Node000001_Node000003"><a xlink:title=" ">
<path fill="none" stroke="#63b8ff" d="M172.62,-98.73C172.62,-90.23 172.62,-81.34 172.62,-74.95"/>
<polygon fill="#63b8ff" stroke="#63b8ff" points="169.13,-98.68 172.63,-108.68 176.13,-98.68 169.13,-98.68"/>
</a>
</g>
</g>
<!-- Node4 -->
<g id="Node000004" class="node">
<title>Node4</title>
<g id="a_Node000004"><a xlink:href="class_ogre_1_1_compositor_workspace_listener.html" target="_top" xlink:title=" ">
<polygon fill="white" stroke="#666666" points="383.5,-141 243.75,-141 243.75,-110.5 383.5,-110.5 383.5,-141"/>
<text text-anchor="start" x="251.75" y="-127.5" font-family="Helvetica,sans-Serif" font-size="10.00">Ogre::CompositorWorkspace</text>
<text text-anchor="middle" x="313.62" y="-116.25" font-family="Helvetica,sans-Serif" font-size="10.00">Listener</text>
</a>
</g>
</g>
<!-- Node4&#45;&gt;Node1 -->
<g id="edge3_Node000001_Node000004" class="edge">
<title>Node4&#45;&gt;Node1</title>
<g id="a_edge3_Node000001_Node000004"><a xlink:title=" ">
<path fill="none" stroke="#63b8ff" d="M267.79,-105.61C243.08,-95.3 213.75,-83.05 194.25,-74.9"/>
<polygon fill="#63b8ff" stroke="#63b8ff" points="266.44,-108.84 277.01,-109.46 269.13,-102.38 266.44,-108.84"/>
</a>
</g>
</g>
</g>
</svg>
