<?xml version="1.0" encoding="UTF-8" standalone="no"?>
<!DOCTYPE svg PUBLIC "-//W3C//DTD SVG 1.1//EN"
 "http://www.w3.org/Graphics/SVG/1.1/DTD/svg11.dtd">
<!-- Generated by graphviz version 9.0.0 (20230911.1827)
 -->
<!-- Title: Ogre::TextureGpuManager Pages: 1 -->
<svg width="504pt" height="175pt"
 viewBox="0.00 0.00 503.75 175.25" xmlns="http://www.w3.org/2000/svg" xmlns:xlink="http://www.w3.org/1999/xlink">
<g id="graph0" class="graph" transform="scale(1 1) rotate(0) translate(4 171.25)">
<title>Ogre::TextureGpuManager</title>
<!-- Node1 -->
<g id="Node000001" class="node">
<title>Node1</title>
<g id="a_Node000001"><a xlink:title="This class manages all textures (i.e.">
<polygon fill="#999999" stroke="#666666" points="292.25,-93.25 163,-93.25 163,-74 292.25,-74 292.25,-93.25"/>
<text text-anchor="middle" x="227.62" y="-79.75" font-family="Helvetica,sans-Serif" font-size="10.00">Ogre::TextureGpuManager</text>
</a>
</g>
</g>
<!-- Node4 -->
<g id="Node000004" class="node">
<title>Node4</title>
<g id="a_Node000004"><a xlink:href="class_ogre_1_1_d3_d11_texture_gpu_manager.html" target="_top" xlink:title=" ">
<polygon fill="white" stroke="#666666" points="491.25,-167.25 332.75,-167.25 332.75,-148 491.25,-148 491.25,-167.25"/>
<text text-anchor="middle" x="412" y="-153.75" font-family="Helvetica,sans-Serif" font-size="10.00">Ogre::D3D11TextureGpuManager</text>
</a>
</g>
</g>
<!-- Node1&#45;&gt;Node4 -->
<g id="edge3_Node000001_Node000004" class="edge">
<title>Node1&#45;&gt;Node4</title>
<g id="a_edge3_Node000001_Node000004"><a xlink:title=" ">
<path fill="none" stroke="#63b8ff" d="M252.74,-99.89C272.32,-112.42 301.05,-129.29 328.25,-139.62 336.36,-142.71 345.13,-145.32 353.82,-147.53"/>
<polygon fill="#63b8ff" stroke="#63b8ff" points="254.69,-96.98 244.4,-94.45 250.86,-102.85 254.69,-96.98"/>
</a>
</g>
</g>
<!-- Node5 -->
<g id="Node000005" class="node">
<title>Node5</title>
<g id="a_Node000005"><a xlink:href="class_ogre_1_1_g_l3_plus_texture_gpu_manager.html" target="_top" xlink:title=" ">
<polygon fill="white" stroke="#666666" points="495.75,-130.25 328.25,-130.25 328.25,-111 495.75,-111 495.75,-130.25"/>
<text text-anchor="middle" x="412" y="-116.75" font-family="Helvetica,sans-Serif" font-size="10.00">Ogre::GL3PlusTextureGpuManager</text>
</a>
</g>
</g>
<!-- Node1&#45;&gt;Node5 -->
<g id="edge4_Node000001_Node000005" class="edge">
<title>Node1&#45;&gt;Node5</title>
<g id="a_edge4_Node000001_Node000005"><a xlink:title=" ">
<path fill="none" stroke="#63b8ff" d="M289.62,-96C312.89,-100.72 339.12,-106.04 361.23,-110.53"/>
<polygon fill="#63b8ff" stroke="#63b8ff" points="290.44,-92.59 279.94,-94.04 289.05,-99.45 290.44,-92.59"/>
</a>
</g>
</g>
<!-- Node6 -->
<g id="Node000006" class="node">
<title>Node6</title>
<g id="a_Node000006"><a xlink:href="class_ogre_1_1_metal_texture_gpu_manager.html" target="_top" xlink:title=" ">
<polygon fill="white" stroke="#666666" points="488.62,-93.25 335.38,-93.25 335.38,-74 488.62,-74 488.62,-93.25"/>
<text text-anchor="middle" x="412" y="-79.75" font-family="Helvetica,sans-Serif" font-size="10.00">Ogre::MetalTextureGpuManager</text>
</a>
</g>
</g>
<!-- Node1&#45;&gt;Node6 -->
<g id="edge5_Node000001_Node000006" class="edge">
<title>Node1&#45;&gt;Node6</title>
<g id="a_edge5_Node000001_Node000006"><a xlink:title=" ">
<path fill="none" stroke="#63b8ff" d="M304.04,-83.62C314.23,-83.62 324.7,-83.62 334.91,-83.62"/>
<polygon fill="#63b8ff" stroke="#63b8ff" points="304.18,-80.13 294.18,-83.63 304.18,-87.13 304.18,-80.13"/>
</a>
</g>
</g>
<!-- Node7 -->
<g id="Node000007" class="node">
<title>Node7</title>
<g id="a_Node000007"><a xlink:href="class_ogre_1_1_n_u_l_l_texture_gpu_manager.html" target="_top" xlink:title=" ">
<polygon fill="white" stroke="#666666" points="490.12,-56.25 333.88,-56.25 333.88,-37 490.12,-37 490.12,-56.25"/>
<text text-anchor="middle" x="412" y="-42.75" font-family="Helvetica,sans-Serif" font-size="10.00">Ogre::NULLTextureGpuManager</text>
</a>
</g>
</g>
<!-- Node1&#45;&gt;Node7 -->
<g id="edge6_Node000001_Node000007" class="edge">
<title>Node1&#45;&gt;Node7</title>
<g id="a_edge6_Node000001_Node000007"><a xlink:title=" ">
<path fill="none" stroke="#63b8ff" d="M289.62,-71.25C312.89,-66.53 339.12,-61.21 361.23,-56.72"/>
<polygon fill="#63b8ff" stroke="#63b8ff" points="289.05,-67.8 279.94,-73.21 290.44,-74.66 289.05,-67.8"/>
</a>
</g>
</g>
<!-- Node8 -->
<g id="Node000008" class="node">
<title>Node8</title>
<g id="a_Node000008"><a xlink:href="class_ogre_1_1_vulkan_texture_gpu_manager.html" target="_top" xlink:title=" ">
<polygon fill="white" stroke="#666666" points="491.62,-19.25 332.38,-19.25 332.38,0 491.62,0 491.62,-19.25"/>
<text text-anchor="middle" x="412" y="-5.75" font-family="Helvetica,sans-Serif" font-size="10.00">Ogre::VulkanTextureGpuManager</text>
</a>
</g>
</g>
<!-- Node1&#45;&gt;Node8 -->
<g id="edge7_Node000001_Node000008" class="edge">
<title>Node1&#45;&gt;Node8</title>
<g id="a_edge7_Node000001_Node000008"><a xlink:title=" ">
<path fill="none" stroke="#63b8ff" d="M252.74,-67.36C272.32,-54.83 301.05,-37.96 328.25,-27.62 336.36,-24.54 345.13,-21.93 353.82,-19.72"/>
<polygon fill="#63b8ff" stroke="#63b8ff" points="250.86,-64.4 244.4,-72.8 254.69,-70.27 250.86,-64.4"/>
</a>
</g>
</g>
<!-- Node2 -->
<g id="Node000002" class="node">
<title>Node2</title>
<g id="a_Node000002"><a xlink:href="class_ogre_1_1_allocated_object.html" target="_top" xlink:title="Superclass for all objects that wish to use custom memory allocators when their new / delete operator...">
<polygon fill="white" stroke="#666666" points="103,-112.25 24,-112.25 24,-93 103,-93 103,-112.25"/>
<text text-anchor="middle" x="63.5" y="-98.75" font-family="Helvetica,sans-Serif" font-size="10.00">ResourceAlloc</text>
</a>
</g>
</g>
<!-- Node2&#45;&gt;Node1 -->
<g id="edge1_Node000001_Node000002" class="edge">
<title>Node2&#45;&gt;Node1</title>
<g id="a_edge1_Node000001_Node000002"><a xlink:title=" ">
<path fill="none" stroke="#63b8ff" d="M114.6,-96.75C129.83,-94.97 146.78,-92.98 162.79,-91.11"/>
<polygon fill="#63b8ff" stroke="#63b8ff" points="114.36,-93.26 104.84,-97.9 115.18,-100.21 114.36,-93.26"/>
</a>
</g>
</g>
<!-- Node3 -->
<g id="Node000003" class="node">
<title>Node3</title>
<g id="a_Node000003"><a xlink:href="class_ogre_1_1_texture_gpu_listener.html" target="_top" xlink:title=" ">
<polygon fill="white" stroke="#666666" points="127,-75.25 0,-75.25 0,-56 127,-56 127,-75.25"/>
<text text-anchor="middle" x="63.5" y="-61.75" font-family="Helvetica,sans-Serif" font-size="10.00">Ogre::TextureGpuListener</text>
</a>
</g>
</g>
<!-- Node3&#45;&gt;Node1 -->
<g id="edge2_Node000001_Node000003" class="edge">
<title>Node3&#45;&gt;Node1</title>
<g id="a_edge2_Node000001_Node000003"><a xlink:title=" ">
<path fill="none" stroke="#63b8ff" d="M138.44,-73.83C146.47,-74.73 154.6,-75.63 162.5,-76.51"/>
<polygon fill="#63b8ff" stroke="#63b8ff" points="139.01,-70.38 128.69,-72.75 138.24,-77.33 139.01,-70.38"/>
</a>
</g>
</g>
</g>
</svg>
