<?xml version="1.0" encoding="UTF-8" standalone="no"?>
<!DOCTYPE svg PUBLIC "-//W3C//DTD SVG 1.1//EN"
 "http://www.w3.org/Graphics/SVG/1.1/DTD/svg11.dtd">
<!-- Generated by graphviz version 9.0.0 (20230911.1827)
 -->
<!-- Title: Ogre::v1::D3D11HardwareBuffer Pages: 1 -->
<svg width="292pt" height="138pt"
 viewBox="0.00 0.00 292.00 137.75" xmlns="http://www.w3.org/2000/svg" xmlns:xlink="http://www.w3.org/1999/xlink">
<g id="graph0" class="graph" transform="scale(1 1) rotate(0) translate(4 133.75)">
<title>Ogre::v1::D3D11HardwareBuffer</title>
<!-- Node1 -->
<g id="Node000001" class="node">
<title>Node1</title>
<g id="a_Node000001"><a xlink:title="Base implementation of a D3D11 buffer, dealing with all the common aspects.">
<polygon fill="#999999" stroke="#666666" points="213.62,-19.25 60.38,-19.25 60.38,0 213.62,0 213.62,-19.25"/>
<text text-anchor="middle" x="137" y="-5.75" font-family="Helvetica,sans-Serif" font-size="10.00">Ogre::v1::D3D11HardwareBuffer</text>
</a>
</g>
</g>
<!-- Node2 -->
<g id="Node000002" class="node">
<title>Node2</title>
<g id="a_Node000002"><a xlink:href="class_ogre_1_1v1_1_1_hardware_buffer.html" target="_top" xlink:title="Abstract class defining common features of hardware buffers.">
<polygon fill="white" stroke="#666666" points="124,-74.5 0,-74.5 0,-55.25 124,-55.25 124,-74.5"/>
<text text-anchor="middle" x="62" y="-61" font-family="Helvetica,sans-Serif" font-size="10.00">Ogre::v1::HardwareBuffer</text>
</a>
</g>
</g>
<!-- Node2&#45;&gt;Node1 -->
<g id="edge1_Node000001_Node000002" class="edge">
<title>Node2&#45;&gt;Node1</title>
<g id="a_edge1_Node000001_Node000002"><a xlink:title=" ">
<path fill="none" stroke="#63b8ff" d="M83.99,-48.26C97.07,-38.97 113.21,-27.52 124.21,-19.7"/>
<polygon fill="#63b8ff" stroke="#63b8ff" points="82.08,-45.32 75.96,-53.97 86.14,-51.03 82.08,-45.32"/>
</a>
</g>
</g>
<!-- Node3 -->
<g id="Node000003" class="node">
<title>Node3</title>
<g id="a_Node000003"><a xlink:href="class_ogre_1_1_allocated_object.html" target="_top" xlink:title="Superclass for all objects that wish to use custom memory allocators when their new / delete operator...">
<polygon fill="white" stroke="#666666" points="93.62,-129.75 30.38,-129.75 30.38,-110.5 93.62,-110.5 93.62,-129.75"/>
<text text-anchor="middle" x="62" y="-116.25" font-family="Helvetica,sans-Serif" font-size="10.00">BufferAlloc</text>
</a>
</g>
</g>
<!-- Node3&#45;&gt;Node2 -->
<g id="edge2_Node000002_Node000003" class="edge">
<title>Node3&#45;&gt;Node2</title>
<g id="a_edge2_Node000002_Node000003"><a xlink:title=" ">
<path fill="none" stroke="#63b8ff" d="M62,-98.88C62,-90.59 62,-81.42 62,-74.86"/>
<polygon fill="#63b8ff" stroke="#63b8ff" points="58.5,-98.82 62,-108.82 65.5,-98.82 58.5,-98.82"/>
</a>
</g>
</g>
<!-- Node4 -->
<g id="Node000004" class="node">
<title>Node4</title>
<g id="a_Node000004"><a xlink:href="class_ogre_1_1_d3_d11_device_resource.html" target="_top" xlink:title="Represents a Direct3D rendering resource.">
<polygon fill="white" stroke="#666666" points="284,-74.5 142,-74.5 142,-55.25 284,-55.25 284,-74.5"/>
<text text-anchor="middle" x="213" y="-61" font-family="Helvetica,sans-Serif" font-size="10.00">Ogre::D3D11DeviceResource</text>
</a>
</g>
</g>
<!-- Node4&#45;&gt;Node1 -->
<g id="edge3_Node000001_Node000004" class="edge">
<title>Node4&#45;&gt;Node1</title>
<g id="a_edge3_Node000001_Node000004"><a xlink:title=" ">
<path fill="none" stroke="#8b1a1a" d="M190.71,-48.26C177.46,-38.97 161.11,-27.52 149.96,-19.7"/>
<polygon fill="#8b1a1a" stroke="#8b1a1a" points="188.67,-51.1 198.87,-53.97 192.69,-45.37 188.67,-51.1"/>
</a>
</g>
</g>
</g>
</svg>
