<?xml version="1.0" encoding="UTF-8" standalone="no"?>
<!DOCTYPE svg PUBLIC "-//W3C//DTD SVG 1.1//EN"
 "http://www.w3.org/Graphics/SVG/1.1/DTD/svg11.dtd">
<!-- Generated by graphviz version 9.0.0 (20230911.1827)
 -->
<!-- Title: Ogre::ReadOnlyBufferPacked Pages: 1 -->
<svg width="962pt" height="321pt"
 viewBox="0.00 0.00 962.00 320.50" xmlns="http://www.w3.org/2000/svg" xmlns:xlink="http://www.w3.org/1999/xlink">
<g id="graph0" class="graph" transform="scale(1 1) rotate(0) translate(4 316.5)">
<title>Ogre::ReadOnlyBufferPacked</title>
<!-- Node1 -->
<g id="Node000001" class="node">
<title>Node1</title>
<g id="a_Node000001"><a xlink:title="Represents the best way to access read&#45;only data.">
<polygon fill="#999999" stroke="#666666" points="601.75,-159.88 459.75,-159.88 459.75,-140.62 601.75,-140.62 601.75,-159.88"/>
<text text-anchor="middle" x="530.75" y="-146.38" font-family="Helvetica,sans-Serif" font-size="10.00">Ogre::ReadOnlyBufferPacked</text>
</a>
</g>
</g>
<!-- Node6 -->
<g id="Node000006" class="node">
<title>Node6</title>
<g id="a_Node000006"><a xlink:href="class_ogre_1_1_d3_d11_read_only_buffer_packed.html" target="_top" xlink:title=" ">
<polygon fill="white" stroke="#666666" points="780.5,-312.5 642.25,-312.5 642.25,-282 780.5,-282 780.5,-312.5"/>
<text text-anchor="start" x="650.25" y="-299" font-family="Helvetica,sans-Serif" font-size="10.00">Ogre::D3D11ReadOnlyBuffer</text>
<text text-anchor="middle" x="711.38" y="-287.75" font-family="Helvetica,sans-Serif" font-size="10.00">Packed</text>
</a>
</g>
</g>
<!-- Node1&#45;&gt;Node6 -->
<g id="edge5_Node000001_Node000006" class="edge">
<title>Node1&#45;&gt;Node6</title>
<g id="a_edge5_Node000001_Node000006"><a xlink:title=" ">
<path fill="none" stroke="#63b8ff" d="M543.91,-169.8C561.49,-196.55 596.48,-244.41 637.75,-272.25 643.06,-275.83 648.93,-278.95 654.96,-281.65"/>
<polygon fill="#63b8ff" stroke="#63b8ff" points="547.01,-168.16 538.67,-161.63 541.12,-171.94 547.01,-168.16"/>
</a>
</g>
</g>
<!-- Node7 -->
<g id="Node000007" class="node">
<title>Node7</title>
<g id="a_Node000007"><a xlink:href="class_ogre_1_1_g_l3_plus_read_only_buffer_emulated_packed.html" target="_top" xlink:title=" ">
<polygon fill="white" stroke="#666666" points="785,-263.5 637.75,-263.5 637.75,-233 785,-233 785,-263.5"/>
<text text-anchor="start" x="645.75" y="-250" font-family="Helvetica,sans-Serif" font-size="10.00">Ogre::GL3PlusReadOnlyBuffer</text>
<text text-anchor="middle" x="711.38" y="-238.75" font-family="Helvetica,sans-Serif" font-size="10.00">EmulatedPacked</text>
</a>
</g>
</g>
<!-- Node1&#45;&gt;Node7 -->
<g id="edge6_Node000001_Node000007" class="edge">
<title>Node1&#45;&gt;Node7</title>
<g id="a_edge6_Node000001_Node000007"><a xlink:title=" ">
<path fill="none" stroke="#63b8ff" d="M552.61,-167.17C573.25,-183.27 606.23,-207.35 637.75,-223.25 644.54,-226.67 651.9,-229.81 659.25,-232.62"/>
<polygon fill="#63b8ff" stroke="#63b8ff" points="554.99,-164.58 544.97,-161.12 550.64,-170.07 554.99,-164.58"/>
</a>
</g>
</g>
<!-- Node8 -->
<g id="Node000008" class="node">
<title>Node8</title>
<g id="a_Node000008"><a xlink:href="class_ogre_1_1_g_l3_plus_read_only_tex_buffer_packed.html" target="_top" xlink:title=" ">
<polygon fill="white" stroke="#666666" points="780.12,-214.5 642.62,-214.5 642.62,-184 780.12,-184 780.12,-214.5"/>
<text text-anchor="start" x="650.62" y="-201" font-family="Helvetica,sans-Serif" font-size="10.00">Ogre::GL3PlusReadOnlyTex</text>
<text text-anchor="middle" x="711.38" y="-189.75" font-family="Helvetica,sans-Serif" font-size="10.00">BufferPacked</text>
</a>
</g>
</g>
<!-- Node1&#45;&gt;Node8 -->
<g id="edge7_Node000001_Node000008" class="edge">
<title>Node1&#45;&gt;Node8</title>
<g id="a_edge7_Node000001_Node000008"><a xlink:title=" ">
<path fill="none" stroke="#63b8ff" d="M579.38,-163.32C602.04,-169.53 629.31,-177.01 653.09,-183.54"/>
<polygon fill="#63b8ff" stroke="#63b8ff" points="580.36,-159.95 569.79,-160.68 578.51,-166.71 580.36,-159.95"/>
</a>
</g>
</g>
<!-- Node9 -->
<g id="Node000009" class="node">
<title>Node9</title>
<g id="a_Node000009"><a xlink:href="class_ogre_1_1_g_l3_plus_read_only_uav_buffer_packed.html" target="_top" xlink:title=" ">
<polygon fill="white" stroke="#666666" points="781.25,-165.5 641.5,-165.5 641.5,-135 781.25,-135 781.25,-165.5"/>
<text text-anchor="start" x="649.5" y="-152" font-family="Helvetica,sans-Serif" font-size="10.00">Ogre::GL3PlusReadOnlyUav</text>
<text text-anchor="middle" x="711.38" y="-140.75" font-family="Helvetica,sans-Serif" font-size="10.00">BufferPacked</text>
</a>
</g>
</g>
<!-- Node1&#45;&gt;Node9 -->
<g id="edge8_Node000001_Node000009" class="edge">
<title>Node1&#45;&gt;Node9</title>
<g id="a_edge8_Node000001_Node000009"><a xlink:title=" ">
<path fill="none" stroke="#63b8ff" d="M613.38,-150.25C622.7,-150.25 632.13,-150.25 641.27,-150.25"/>
<polygon fill="#63b8ff" stroke="#63b8ff" points="613.6,-146.75 603.6,-150.25 613.6,-153.75 613.6,-146.75"/>
</a>
</g>
</g>
<!-- Node10 -->
<g id="Node000010" class="node">
<title>Node10</title>
<g id="a_Node000010"><a xlink:href="class_ogre_1_1_metal_tex_buffer_packed.html" target="_top" xlink:title="In Metal, Tex and ReadOnly buffers are exactly the same, thus we derive from ReadOnlyBufferPacked to ...">
<polygon fill="white" stroke="#666666" points="781.25,-116.88 641.5,-116.88 641.5,-97.62 781.25,-97.62 781.25,-116.88"/>
<text text-anchor="middle" x="711.38" y="-103.38" font-family="Helvetica,sans-Serif" font-size="10.00">Ogre::MetalTexBufferPacked</text>
</a>
</g>
</g>
<!-- Node1&#45;&gt;Node10 -->
<g id="edge9_Node000001_Node000010" class="edge">
<title>Node1&#45;&gt;Node10</title>
<g id="a_edge9_Node000001_Node000010"><a xlink:title=" ">
<path fill="none" stroke="#63b8ff" d="M584.73,-137.5C611.47,-131.06 643.45,-123.36 668.45,-117.34"/>
<polygon fill="#63b8ff" stroke="#63b8ff" points="584,-134.07 575.1,-139.81 585.64,-140.88 584,-134.07"/>
</a>
</g>
</g>
<!-- Node12 -->
<g id="Node000012" class="node">
<title>Node12</title>
<g id="a_Node000012"><a xlink:href="class_ogre_1_1_n_u_l_l_read_only_buffer_packed.html" target="_top" xlink:title=" ">
<polygon fill="white" stroke="#666666" points="779.38,-79.5 643.38,-79.5 643.38,-49 779.38,-49 779.38,-79.5"/>
<text text-anchor="start" x="651.38" y="-66" font-family="Helvetica,sans-Serif" font-size="10.00">Ogre::NULLReadOnlyBuffer</text>
<text text-anchor="middle" x="711.38" y="-54.75" font-family="Helvetica,sans-Serif" font-size="10.00">Packed</text>
</a>
</g>
</g>
<!-- Node1&#45;&gt;Node12 -->
<g id="edge11_Node000001_Node000012" class="edge">
<title>Node1&#45;&gt;Node12</title>
<g id="a_edge11_Node000001_Node000012"><a xlink:title=" ">
<path fill="none" stroke="#63b8ff" d="M556.07,-134.04C577.06,-120.54 608.53,-101.45 637.75,-88.25 644.29,-85.3 651.29,-82.52 658.29,-79.98"/>
<polygon fill="#63b8ff" stroke="#63b8ff" points="554.39,-130.95 547.93,-139.34 558.22,-136.82 554.39,-130.95"/>
</a>
</g>
</g>
<!-- Node13 -->
<g id="Node000013" class="node">
<title>Node13</title>
<g id="a_Node000013"><a xlink:href="class_ogre_1_1_vulkan_read_only_buffer_packed.html" target="_top" xlink:title=" ">
<polygon fill="white" stroke="#666666" points="780.88,-30.5 641.88,-30.5 641.88,0 780.88,0 780.88,-30.5"/>
<text text-anchor="start" x="649.88" y="-17" font-family="Helvetica,sans-Serif" font-size="10.00">Ogre::VulkanReadOnlyBuffer</text>
<text text-anchor="middle" x="711.38" y="-5.75" font-family="Helvetica,sans-Serif" font-size="10.00">Packed</text>
</a>
</g>
</g>
<!-- Node1&#45;&gt;Node13 -->
<g id="edge12_Node000001_Node000013" class="edge">
<title>Node1&#45;&gt;Node13</title>
<g id="a_edge12_Node000001_Node000013"><a xlink:title=" ">
<path fill="none" stroke="#63b8ff" d="M545.43,-131.27C563.85,-106.97 598.84,-65.07 637.75,-40.25 643.26,-36.74 649.32,-33.65 655.52,-30.96"/>
<polygon fill="#63b8ff" stroke="#63b8ff" points="542.84,-128.88 539.69,-139 548.46,-133.05 542.84,-128.88"/>
</a>
</g>
</g>
<!-- Node2 -->
<g id="Node000002" class="node">
<title>Node2</title>
<g id="a_Node000002"><a xlink:href="class_ogre_1_1_tex_buffer_packed.html" target="_top" xlink:title="Represents Texture buffers (also known as tbuffers in D3D11)">
<polygon fill="white" stroke="#666666" points="423.75,-159.88 308,-159.88 308,-140.62 423.75,-140.62 423.75,-159.88"/>
<text text-anchor="middle" x="365.88" y="-146.38" font-family="Helvetica,sans-Serif" font-size="10.00">Ogre::TexBufferPacked</text>
</a>
</g>
</g>
<!-- Node2&#45;&gt;Node1 -->
<g id="edge1_Node000001_Node000002" class="edge">
<title>Node2&#45;&gt;Node1</title>
<g id="a_edge1_Node000001_Node000002"><a xlink:title=" ">
<path fill="none" stroke="#63b8ff" d="M435.32,-150.25C443.27,-150.25 451.38,-150.25 459.35,-150.25"/>
<polygon fill="#63b8ff" stroke="#63b8ff" points="435.35,-146.75 425.35,-150.25 435.35,-153.75 435.35,-146.75"/>
</a>
</g>
</g>
<!-- Node3 -->
<g id="Node000003" class="node">
<title>Node3</title>
<g id="a_Node000003"><a xlink:href="class_ogre_1_1_buffer_packed.html" target="_top" xlink:title=" ">
<polygon fill="white" stroke="#666666" points="272,-159.88 172,-159.88 172,-140.62 272,-140.62 272,-159.88"/>
<text text-anchor="middle" x="222" y="-146.38" font-family="Helvetica,sans-Serif" font-size="10.00">Ogre::BufferPacked</text>
</a>
</g>
</g>
<!-- Node3&#45;&gt;Node2 -->
<g id="edge2_Node000002_Node000003" class="edge">
<title>Node3&#45;&gt;Node2</title>
<g id="a_edge2_Node000002_Node000003"><a xlink:title=" ">
<path fill="none" stroke="#63b8ff" d="M283.51,-150.25C291.62,-150.25 299.91,-150.25 307.95,-150.25"/>
<polygon fill="#63b8ff" stroke="#63b8ff" points="283.74,-146.75 273.74,-150.25 283.74,-153.75 283.74,-146.75"/>
</a>
</g>
</g>
<!-- Node4 -->
<g id="Node000004" class="node">
<title>Node4</title>
<g id="a_Node000004"><a xlink:href="struct_ogre_1_1_gpu_tracked_resource.html" target="_top" xlink:title=" ">
<polygon fill="white" stroke="#666666" points="136,-178.88 0,-178.88 0,-159.62 136,-159.62 136,-178.88"/>
<text text-anchor="middle" x="68" y="-165.38" font-family="Helvetica,sans-Serif" font-size="10.00">Ogre::GpuTrackedResource</text>
</a>
</g>
</g>
<!-- Node4&#45;&gt;Node3 -->
<g id="edge3_Node000003_Node000004" class="edge">
<title>Node4&#45;&gt;Node3</title>
<g id="a_edge3_Node000003_Node000004"><a xlink:title=" ">
<path fill="none" stroke="#63b8ff" d="M147.35,-159.46C155.59,-158.43 163.81,-157.4 171.59,-156.43"/>
<polygon fill="#63b8ff" stroke="#63b8ff" points="147.1,-155.96 137.61,-160.67 147.97,-162.91 147.1,-155.96"/>
</a>
</g>
</g>
<!-- Node5 -->
<g id="Node000005" class="node">
<title>Node5</title>
<g id="a_Node000005"><a xlink:href="class_ogre_1_1_allocated_object.html" target="_top" xlink:title="Superclass for all objects that wish to use custom memory allocators when their new / delete operator...">
<polygon fill="white" stroke="#666666" points="116.12,-141.88 19.88,-141.88 19.88,-122.62 116.12,-122.62 116.12,-141.88"/>
<text text-anchor="middle" x="68" y="-128.38" font-family="Helvetica,sans-Serif" font-size="10.00">BufferPackedAlloc</text>
</a>
</g>
</g>
<!-- Node5&#45;&gt;Node3 -->
<g id="edge4_Node000003_Node000005" class="edge">
<title>Node5&#45;&gt;Node3</title>
<g id="a_edge4_Node000003_Node000005"><a xlink:title=" ">
<path fill="none" stroke="#63b8ff" d="M127.68,-139.2C142.21,-140.92 157.63,-142.75 171.67,-144.41"/>
<polygon fill="#63b8ff" stroke="#63b8ff" points="128.11,-135.73 117.76,-138.02 127.28,-142.68 128.11,-135.73"/>
</a>
</g>
</g>
<!-- Node11 -->
<g id="Node000011" class="node">
<title>Node11</title>
<g id="a_Node000011"><a xlink:href="class_ogre_1_1_metal_read_only_buffer_packed.html" target="_top" xlink:title=" ">
<polygon fill="white" stroke="#666666" points="954,-122.5 821,-122.5 821,-92 954,-92 954,-122.5"/>
<text text-anchor="start" x="829" y="-109" font-family="Helvetica,sans-Serif" font-size="10.00">Ogre::MetalReadOnlyBuffer</text>
<text text-anchor="middle" x="887.5" y="-97.75" font-family="Helvetica,sans-Serif" font-size="10.00">Packed</text>
</a>
</g>
</g>
<!-- Node10&#45;&gt;Node11 -->
<g id="edge10_Node000010_Node000011" class="edge">
<title>Node10&#45;&gt;Node11</title>
<g id="a_edge10_Node000010_Node000011"><a xlink:title=" ">
<path fill="none" stroke="#63b8ff" d="M792.9,-107.25C802.16,-107.25 811.51,-107.25 820.54,-107.25"/>
<polygon fill="#63b8ff" stroke="#63b8ff" points="793.21,-103.75 783.21,-107.25 793.21,-110.75 793.21,-103.75"/>
</a>
</g>
</g>
</g>
</svg>
