<?xml version="1.0" encoding="UTF-8" standalone="no"?>
<!DOCTYPE svg PUBLIC "-//W3C//DTD SVG 1.1//EN"
 "http://www.w3.org/Graphics/SVG/1.1/DTD/svg11.dtd">
<!-- Generated by graphviz version 7.0.5 (20221223.1930)
 -->
<!-- Title: Ogre::IdObject Pages: 1 -->
<svg width="642pt" height="1186pt"
 viewBox="0.00 0.00 642.00 1186.00" xmlns="http://www.w3.org/2000/svg" xmlns:xlink="http://www.w3.org/1999/xlink">
<g id="graph0" class="graph" transform="scale(1 1) rotate(0) translate(4 1182)">
<title>Ogre::IdObject</title>
<!-- Node1 -->
<g id="node1" class="node">
<title>Node1</title>
<g id="a_node1"><a xlink:title=" ">
<polygon fill="#999999" stroke="#666666" points="79,-296 0,-296 0,-277 79,-277 79,-296"/>
<text text-anchor="middle" x="39.5" y="-284" font-family="Helvetica,sans-Serif" font-size="10.00">Ogre::IdObject</text>
</a>
</g>
</g>
<!-- Node2 -->
<g id="node2" class="node">
<title>Node2</title>
<g id="a_node2"><a xlink:href="class_ogre_1_1_bone.html" target="_top" xlink:title="Class representing a Bone in the join hierarchy of a skeleton.">
<polygon fill="white" stroke="#666666" points="238.5,-826 173.5,-826 173.5,-807 238.5,-807 238.5,-826"/>
<text text-anchor="middle" x="206" y="-814" font-family="Helvetica,sans-Serif" font-size="10.00">Ogre::Bone</text>
</a>
</g>
</g>
<!-- Node1&#45;&gt;Node2 -->
<g id="edge1" class="edge">
<title>Node1&#45;&gt;Node2</title>
<path fill="none" stroke="#63b8ff" d="M40.46,-307.81C40.77,-395.38 46.5,-726.28 115,-798.5 129.69,-813.99 153.66,-818.2 173.17,-818.69"/>
<polygon fill="#63b8ff" stroke="#63b8ff" points="43.96,-307.83 40.45,-297.83 36.96,-307.83 43.96,-307.83"/>
</g>
<!-- Node3 -->
<g id="node3" class="node">
<title>Node3</title>
<g id="a_node3"><a xlink:href="class_ogre_1_1_compositor_node.html" target="_top" xlink:title="Compositor nodes are the core subject of compositing.">
<polygon fill="white" stroke="#666666" points="263.5,-789 148.5,-789 148.5,-770 263.5,-770 263.5,-789"/>
<text text-anchor="middle" x="206" y="-777" font-family="Helvetica,sans-Serif" font-size="10.00">Ogre::CompositorNode</text>
</a>
</g>
</g>
<!-- Node1&#45;&gt;Node3 -->
<g id="edge2" class="edge">
<title>Node1&#45;&gt;Node3</title>
<path fill="none" stroke="#63b8ff" d="M40.73,-307.86C42.09,-391.46 51.38,-695.16 115,-761.5 123.82,-770.7 135.92,-775.91 148.39,-778.72"/>
<polygon fill="#63b8ff" stroke="#63b8ff" points="44.23,-307.86 40.6,-297.91 37.23,-307.96 44.23,-307.86"/>
</g>
<!-- Node5 -->
<g id="node5" class="node">
<title>Node5</title>
<g id="a_node5"><a xlink:href="class_ogre_1_1_compositor_workspace.html" target="_top" xlink:title="A compositor workspace is the main interface to render into an RT, be it a RenderWindow or an RTT (Re...">
<polygon fill="white" stroke="#666666" points="276,-752 136,-752 136,-733 276,-733 276,-752"/>
<text text-anchor="middle" x="206" y="-740" font-family="Helvetica,sans-Serif" font-size="10.00">Ogre::CompositorWorkspace</text>
</a>
</g>
</g>
<!-- Node1&#45;&gt;Node5 -->
<g id="edge4" class="edge">
<title>Node1&#45;&gt;Node5</title>
<path fill="none" stroke="#63b8ff" d="M41.04,-307.7C43.49,-386.91 56.2,-663.97 115,-724.5 120.77,-730.44 127.92,-734.71 135.63,-737.75"/>
<polygon fill="#63b8ff" stroke="#63b8ff" points="44.54,-307.8 40.76,-297.9 37.54,-308 44.54,-307.8"/>
</g>
<!-- Node6 -->
<g id="node6" class="node">
<title>Node6</title>
<g id="a_node6"><a xlink:href="class_ogre_1_1_irradiance_field.html" target="_top" xlink:title="Implements an Irradiance Field with Depth, inspired on DDGI.">
<polygon fill="white" stroke="#666666" points="259,-715 153,-715 153,-696 259,-696 259,-715"/>
<text text-anchor="middle" x="206" y="-703" font-family="Helvetica,sans-Serif" font-size="10.00">Ogre::IrradianceField</text>
</a>
</g>
</g>
<!-- Node1&#45;&gt;Node6 -->
<g id="edge5" class="edge">
<title>Node1&#45;&gt;Node6</title>
<path fill="none" stroke="#63b8ff" d="M41.38,-307.34C44.97,-381.73 60.94,-632.7 115,-687.5 124.96,-697.6 138.87,-702.85 152.78,-705.4"/>
<polygon fill="#63b8ff" stroke="#63b8ff" points="44.9,-307.62 40.95,-297.79 37.91,-307.94 44.9,-307.62"/>
</g>
<!-- Node7 -->
<g id="node7" class="node">
<title>Node7</title>
<g id="a_node7"><a xlink:href="class_ogre_1_1_movable_object.html" target="_top" xlink:title="Abstract class defining a movable object in a scene.">
<polygon fill="white" stroke="#666666" points="259.5,-678 152.5,-678 152.5,-659 259.5,-659 259.5,-678"/>
<text text-anchor="middle" x="206" y="-666" font-family="Helvetica,sans-Serif" font-size="10.00">Ogre::MovableObject</text>
</a>
</g>
</g>
<!-- Node1&#45;&gt;Node7 -->
<g id="edge6" class="edge">
<title>Node1&#45;&gt;Node7</title>
<path fill="none" stroke="#63b8ff" d="M49.26,-306.85C79.54,-377.16 179.09,-608.33 200.8,-658.74"/>
<polygon fill="#63b8ff" stroke="#63b8ff" points="52.5,-305.52 45.33,-297.72 46.07,-308.29 52.5,-305.52"/>
</g>
<!-- Node38 -->
<g id="node34" class="node">
<title>Node38</title>
<g id="a_node34"><a xlink:href="class_ogre_1_1_node.html" target="_top" xlink:title="Class representing a general&#45;purpose node an articulated scene graph.">
<polygon fill="white" stroke="#666666" points="238.5,-315 173.5,-315 173.5,-296 238.5,-296 238.5,-315"/>
<text text-anchor="middle" x="206" y="-303" font-family="Helvetica,sans-Serif" font-size="10.00">Ogre::Node</text>
</a>
</g>
</g>
<!-- Node1&#45;&gt;Node38 -->
<g id="edge33" class="edge">
<title>Node1&#45;&gt;Node38</title>
<path fill="none" stroke="#63b8ff" d="M90.62,-292.29C117.49,-295.39 149.78,-299.12 173.19,-301.83"/>
<polygon fill="#63b8ff" stroke="#63b8ff" points="91.32,-288.85 80.99,-291.18 90.52,-295.8 91.32,-288.85"/>
</g>
<!-- Node44 -->
<g id="node36" class="node">
<title>Node44</title>
<g id="a_node36"><a xlink:href="class_ogre_1_1_parallax_corrected_cubemap_base.html" target="_top" xlink:title=" ">
<polygon fill="white" stroke="#666666" points="297,-278 115,-278 115,-259 297,-259 297,-278"/>
<text text-anchor="middle" x="206" y="-266" font-family="Helvetica,sans-Serif" font-size="10.00">Ogre::ParallaxCorrectedCubemapBase</text>
</a>
</g>
</g>
<!-- Node1&#45;&gt;Node44 -->
<g id="edge35" class="edge">
<title>Node1&#45;&gt;Node44</title>
<path fill="none" stroke="#63b8ff" d="M90.73,-281C98.38,-280.17 106.48,-279.28 114.69,-278.38"/>
<polygon fill="#63b8ff" stroke="#63b8ff" points="90.55,-277.5 80.99,-282.07 91.31,-284.46 90.55,-277.5"/>
</g>
<!-- Node47 -->
<g id="node39" class="node">
<title>Node47</title>
<g id="a_node39"><a xlink:href="class_ogre_1_1_scene_manager.html" target="_top" xlink:title="Manages the organisation and rendering of a &#39;scene&#39; i.e.">
<polygon fill="white" stroke="#666666" points="259.5,-204 152.5,-204 152.5,-185 259.5,-185 259.5,-204"/>
<text text-anchor="middle" x="206" y="-192" font-family="Helvetica,sans-Serif" font-size="10.00">Ogre::SceneManager</text>
</a>
</g>
</g>
<!-- Node1&#45;&gt;Node47 -->
<g id="edge38" class="edge">
<title>Node1&#45;&gt;Node47</title>
<path fill="none" stroke="#63b8ff" d="M67.86,-271.2C101.87,-252.18 158.91,-220.28 187.52,-204.27"/>
<polygon fill="#63b8ff" stroke="#63b8ff" points="66.44,-267.98 59.43,-275.92 69.86,-274.09 66.44,-267.98"/>
</g>
<!-- Node52 -->
<g id="node44" class="node">
<title>Node52</title>
<g id="a_node44"><a xlink:href="class_ogre_1_1_vct_lighting.html" target="_top" xlink:title=" ">
<polygon fill="white" stroke="#666666" points="252,-167 160,-167 160,-148 252,-148 252,-167"/>
<text text-anchor="middle" x="206" y="-155" font-family="Helvetica,sans-Serif" font-size="10.00">Ogre::VctLighting</text>
</a>
</g>
</g>
<!-- Node1&#45;&gt;Node52 -->
<g id="edge43" class="edge">
<title>Node1&#45;&gt;Node52</title>
<path fill="none" stroke="#63b8ff" d="M48.54,-266.18C59.59,-241 81.95,-198.71 115,-176.5 128.12,-167.68 144.55,-162.84 159.77,-160.22"/>
<polygon fill="#63b8ff" stroke="#63b8ff" points="45.35,-264.73 44.72,-275.31 51.81,-267.43 45.35,-264.73"/>
</g>
<!-- Node53 -->
<g id="node45" class="node">
<title>Node53</title>
<g id="a_node45"><a xlink:href="class_ogre_1_1_vct_material.html" target="_top" xlink:title=" ">
<polygon fill="white" stroke="#666666" points="252,-130 160,-130 160,-111 252,-111 252,-130"/>
<text text-anchor="middle" x="206" y="-118" font-family="Helvetica,sans-Serif" font-size="10.00">Ogre::VctMaterial</text>
</a>
</g>
</g>
<!-- Node1&#45;&gt;Node53 -->
<g id="edge44" class="edge">
<title>Node1&#45;&gt;Node53</title>
<path fill="none" stroke="#63b8ff" d="M45.01,-265.57C53.11,-233.22 73.33,-171.5 115,-139.5 127.67,-129.77 144.17,-124.75 159.58,-122.23"/>
<polygon fill="#63b8ff" stroke="#63b8ff" points="41.6,-264.75 42.74,-275.28 48.42,-266.34 41.6,-264.75"/>
</g>
<!-- Node54 -->
<g id="node46" class="node">
<title>Node54</title>
<g id="a_node46"><a xlink:href="class_ogre_1_1_vct_voxelizer_source_base.html" target="_top" xlink:title="This class contains shared functionality between voxelizer; and is used by VctLighting to source its ...">
<polygon fill="white" stroke="#666666" points="280.5,-75 131.5,-75 131.5,-56 280.5,-56 280.5,-75"/>
<text text-anchor="middle" x="206" y="-63" font-family="Helvetica,sans-Serif" font-size="10.00">Ogre::VctVoxelizerSourceBase</text>
</a>
</g>
</g>
<!-- Node1&#45;&gt;Node54 -->
<g id="edge45" class="edge">
<title>Node1&#45;&gt;Node54</title>
<path fill="none" stroke="#63b8ff" d="M43.55,-265.65C50.06,-228.18 68.71,-149.04 115,-102.5 127.75,-89.68 145.56,-81.12 161.98,-75.49"/>
<polygon fill="#63b8ff" stroke="#63b8ff" points="40.15,-264.73 42.02,-275.16 47.06,-265.84 40.15,-264.73"/>
</g>
<!-- Node57 -->
<g id="node49" class="node">
<title>Node57</title>
<g id="a_node49"><a xlink:href="class_ogre_1_1_voxelized_mesh_cache.html" target="_top" xlink:title="Uses a VctVoxelizer to convert a single mesh made up of triangles into a voxel 3D texture representat...">
<polygon fill="white" stroke="#666666" points="273.5,-38 138.5,-38 138.5,-19 273.5,-19 273.5,-38"/>
<text text-anchor="middle" x="206" y="-26" font-family="Helvetica,sans-Serif" font-size="10.00">Ogre::VoxelizedMeshCache</text>
</a>
</g>
</g>
<!-- Node1&#45;&gt;Node57 -->
<g id="edge48" class="edge">
<title>Node1&#45;&gt;Node57</title>
<path fill="none" stroke="#8b1a1a" d="M40.4,-265.72C41.39,-219.17 50.65,-106.06 115,-47.5 121.61,-41.48 129.64,-37.19 138.15,-34.15"/>
<polygon fill="#8b1a1a" stroke="#8b1a1a" points="36.91,-265.44 40.32,-275.47 43.91,-265.5 36.91,-265.44"/>
</g>
<!-- Node4 -->
<g id="node4" class="node">
<title>Node4</title>
<g id="a_node4"><a xlink:href="class_ogre_1_1_compositor_shadow_node.html" target="_top" xlink:title="Shadow Nodes are special nodes (not to be confused with.">
<polygon fill="white" stroke="#666666" points="498,-1178 348,-1178 348,-1159 498,-1159 498,-1178"/>
<text text-anchor="middle" x="423" y="-1166" font-family="Helvetica,sans-Serif" font-size="10.00">Ogre::CompositorShadowNode</text>
</a>
</g>
</g>
<!-- Node3&#45;&gt;Node4 -->
<g id="edge3" class="edge">
<title>Node3&#45;&gt;Node4</title>
<path fill="none" stroke="#63b8ff" d="M274.31,-783.72C282.92,-786.94 290.85,-791.66 297,-798.5 402.14,-915.44 227.36,-1034.01 333,-1150.5 337.24,-1155.17 342.32,-1158.82 347.89,-1161.66"/>
<polygon fill="#63b8ff" stroke="#63b8ff" points="275.58,-780.45 265,-780.95 273.58,-787.16 275.58,-780.45"/>
</g>
<!-- Node8 -->
<g id="node8" class="node">
<title>Node8</title>
<g id="a_node8"><a xlink:href="class_ogre_1_1_decal.html" target="_top" xlink:title="Decals can have diffuse, normal map, and emissive on top of regular objects.">
<polygon fill="white" stroke="#666666" points="456.5,-1141 389.5,-1141 389.5,-1122 456.5,-1122 456.5,-1141"/>
<text text-anchor="middle" x="423" y="-1129" font-family="Helvetica,sans-Serif" font-size="10.00">Ogre::Decal</text>
</a>
</g>
</g>
<!-- Node7&#45;&gt;Node8 -->
<g id="edge7" class="edge">
<title>Node7&#45;&gt;Node8</title>
<path fill="none" stroke="#63b8ff" d="M270.9,-671.4C280.84,-674.61 290.09,-679.68 297,-687.5 359.9,-758.7 269.8,-1042.56 333,-1113.5 346.84,-1129.04 370.07,-1133.34 389.33,-1133.86"/>
<polygon fill="#63b8ff" stroke="#63b8ff" points="271.94,-668.06 261.38,-668.98 270.21,-674.84 271.94,-668.06"/>
</g>
<!-- Node9 -->
<g id="node9" class="node">
<title>Node9</title>
<g id="a_node9"><a xlink:href="class_ogre_1_1_frustum.html" target="_top" xlink:title="A frustum represents a pyramid, capped at the near and far end which is used to represent either a vi...">
<polygon fill="white" stroke="#666666" points="462,-1104 384,-1104 384,-1085 462,-1085 462,-1104"/>
<text text-anchor="middle" x="423" y="-1092" font-family="Helvetica,sans-Serif" font-size="10.00">Ogre::Frustum</text>
</a>
</g>
</g>
<!-- Node7&#45;&gt;Node9 -->
<g id="edge8" class="edge">
<title>Node7&#45;&gt;Node9</title>
<path fill="none" stroke="#63b8ff" d="M270.85,-671.45C280.8,-674.65 290.06,-679.7 297,-687.5 354.73,-752.34 274.99,-1011.91 333,-1076.5 345.53,-1090.46 365.65,-1095.33 383.58,-1096.54"/>
<polygon fill="#63b8ff" stroke="#63b8ff" points="271.88,-668.1 261.33,-669.03 270.16,-674.88 271.88,-668.1"/>
</g>
<!-- Node13 -->
<g id="node11" class="node">
<title>Node13</title>
<g id="a_node11"><a xlink:href="class_ogre_1_1_ifd_probe_visualizer.html" target="_top" xlink:title=" ">
<polygon fill="white" stroke="#666666" points="483.5,-1067 362.5,-1067 362.5,-1048 483.5,-1048 483.5,-1067"/>
<text text-anchor="middle" x="423" y="-1055" font-family="Helvetica,sans-Serif" font-size="10.00">Ogre::IfdProbeVisualizer</text>
</a>
</g>
</g>
<!-- Node7&#45;&gt;Node13 -->
<g id="edge10" class="edge">
<title>Node7&#45;&gt;Node13</title>
<path fill="none" stroke="#63b8ff" d="M270.79,-671.5C280.74,-674.7 290.02,-679.74 297,-687.5 402.14,-804.44 227.36,-923.01 333,-1039.5 340.73,-1048.02 351.29,-1053.15 362.43,-1056.12"/>
<polygon fill="#63b8ff" stroke="#63b8ff" points="271.82,-668.16 261.27,-669.09 270.1,-674.94 271.82,-668.16"/>
</g>
<!-- Node14 -->
<g id="node12" class="node">
<title>Node14</title>
<g id="a_node12"><a xlink:href="class_ogre_1_1_internal_cubemap_probe.html" target="_top" xlink:title="This class is internal and should not be interfaced directly by users.">
<polygon fill="white" stroke="#666666" points="493.5,-1030 352.5,-1030 352.5,-1011 493.5,-1011 493.5,-1030"/>
<text text-anchor="middle" x="423" y="-1018" font-family="Helvetica,sans-Serif" font-size="10.00">Ogre::InternalCubemapProbe</text>
</a>
</g>
</g>
<!-- Node7&#45;&gt;Node14 -->
<g id="edge11" class="edge">
<title>Node7&#45;&gt;Node14</title>
<path fill="none" stroke="#63b8ff" d="M270.71,-671.57C280.67,-674.76 289.98,-679.78 297,-687.5 391.83,-791.72 237.72,-898.68 333,-1002.5 338.33,-1008.31 344.97,-1012.53 352.21,-1015.57"/>
<polygon fill="#63b8ff" stroke="#63b8ff" points="271.74,-668.22 261.19,-669.16 270.02,-675.01 271.74,-668.22"/>
</g>
<!-- Node15 -->
<g id="node13" class="node">
<title>Node15</title>
<g id="a_node13"><a xlink:href="class_ogre_1_1_item.html" target="_top" xlink:title="Defines an instance of a discrete, movable object based on a Mesh.">
<polygon fill="white" stroke="#666666" points="454,-993 392,-993 392,-974 454,-974 454,-993"/>
<text text-anchor="middle" x="423" y="-981" font-family="Helvetica,sans-Serif" font-size="10.00">Ogre::Item</text>
</a>
</g>
</g>
<!-- Node7&#45;&gt;Node15 -->
<g id="edge12" class="edge">
<title>Node7&#45;&gt;Node15</title>
<path fill="none" stroke="#63b8ff" d="M270.61,-671.66C280.59,-674.84 289.92,-679.83 297,-687.5 381.54,-779.02 248.08,-874.34 333,-965.5 347.72,-981.3 372.18,-985.35 391.73,-985.69"/>
<polygon fill="#63b8ff" stroke="#63b8ff" points="271.64,-668.31 261.09,-669.25 269.92,-675.1 271.64,-668.31"/>
</g>
<!-- Node16 -->
<g id="node14" class="node">
<title>Node16</title>
<g id="a_node14"><a xlink:href="class_ogre_1_1_light.html" target="_top" xlink:title="Representation of a dynamic light source in the scene.">
<polygon fill="white" stroke="#666666" points="455,-956 391,-956 391,-937 455,-937 455,-956"/>
<text text-anchor="middle" x="423" y="-944" font-family="Helvetica,sans-Serif" font-size="10.00">Ogre::Light</text>
</a>
</g>
</g>
<!-- Node7&#45;&gt;Node16 -->
<g id="edge13" class="edge">
<title>Node7&#45;&gt;Node16</title>
<path fill="none" stroke="#63b8ff" d="M270.83,-671.88C280.68,-675.06 289.92,-679.99 297,-687.5 371.26,-766.33 258.41,-849.98 333,-928.5 347.55,-943.81 371.25,-948.03 390.54,-948.57"/>
<polygon fill="#63b8ff" stroke="#63b8ff" points="271.98,-668.57 261.42,-669.47 270.24,-675.35 271.98,-668.57"/>
</g>
<!-- Node18 -->
<g id="node16" class="node">
<title>Node18</title>
<g id="a_node16"><a xlink:href="class_ogre_1_1_manual_object.html" target="_top" xlink:title=" ">
<polygon fill="white" stroke="#666666" points="474,-919 372,-919 372,-900 474,-900 474,-919"/>
<text text-anchor="middle" x="423" y="-907" font-family="Helvetica,sans-Serif" font-size="10.00">Ogre::ManualObject</text>
</a>
</g>
</g>
<!-- Node7&#45;&gt;Node18 -->
<g id="edge15" class="edge">
<title>Node7&#45;&gt;Node18</title>
<path fill="none" stroke="#63b8ff" d="M270.66,-672.04C280.54,-675.2 289.83,-680.08 297,-687.5 361.01,-753.68 268.71,-825.59 333,-891.5 343.13,-901.88 357.47,-907.13 371.69,-909.59"/>
<polygon fill="#63b8ff" stroke="#63b8ff" points="271.81,-668.72 261.25,-669.63 270.07,-675.5 271.81,-668.72"/>
</g>
<!-- Node19 -->
<g id="node17" class="node">
<title>Node19</title>
<g id="a_node17"><a xlink:href="class_ogre_1_1_movable_plane.html" target="_top" xlink:title="Definition of a Plane that may be attached to a node, and the derived details of it retrieved simply.">
<polygon fill="white" stroke="#666666" points="475,-882 371,-882 371,-863 475,-863 475,-882"/>
<text text-anchor="middle" x="423" y="-870" font-family="Helvetica,sans-Serif" font-size="10.00">Ogre::MovablePlane</text>
</a>
</g>
</g>
<!-- Node7&#45;&gt;Node19 -->
<g id="edge16" class="edge">
<title>Node7&#45;&gt;Node19</title>
<path fill="none" stroke="#63b8ff" d="M270.43,-672.27C280.33,-675.4 289.69,-680.22 297,-687.5 350.8,-741.07 278.97,-801.16 333,-854.5 342.98,-864.36 356.78,-869.54 370.54,-872.1"/>
<polygon fill="#63b8ff" stroke="#63b8ff" points="271.56,-668.95 261.01,-669.87 269.83,-675.73 271.56,-668.95"/>
</g>
<!-- Node20 -->
<g id="node18" class="node">
<title>Node20</title>
<g id="a_node18"><a xlink:href="class_ogre_1_1_null_entity.html" target="_top" xlink:title=" ">
<polygon fill="white" stroke="#666666" points="464.5,-845 381.5,-845 381.5,-826 464.5,-826 464.5,-845"/>
<text text-anchor="middle" x="423" y="-833" font-family="Helvetica,sans-Serif" font-size="10.00">Ogre::NullEntity</text>
</a>
</g>
</g>
<!-- Node7&#45;&gt;Node20 -->
<g id="edge17" class="edge">
<title>Node7&#45;&gt;Node20</title>
<path fill="none" stroke="#63b8ff" d="M270.73,-672.84C280.43,-675.93 289.64,-680.59 297,-687.5 340.69,-728.56 289.14,-776.63 333,-817.5 345.8,-829.43 364.23,-834.4 381.01,-836.2"/>
<polygon fill="#63b8ff" stroke="#63b8ff" points="271.67,-669.46 261.11,-670.35 269.92,-676.24 271.67,-669.46"/>
</g>
<!-- Node21 -->
<g id="node19" class="node">
<title>Node21</title>
<g id="a_node19"><a xlink:href="class_ogre_1_1_particle_system.html" target="_top" xlink:title="Class defining particle system based special effects.">
<polygon fill="white" stroke="#666666" points="477,-808 369,-808 369,-789 477,-789 477,-808"/>
<text text-anchor="middle" x="423" y="-796" font-family="Helvetica,sans-Serif" font-size="10.00">Ogre::ParticleSystem</text>
</a>
</g>
</g>
<!-- Node7&#45;&gt;Node21 -->
<g id="edge18" class="edge">
<title>Node7&#45;&gt;Node21</title>
<path fill="none" stroke="#63b8ff" d="M270.84,-673.68C280.36,-676.7 289.49,-681.11 297,-687.5 330.76,-716.21 299.12,-751.93 333,-780.5 343,-788.93 355.88,-793.79 368.7,-796.5"/>
<polygon fill="#63b8ff" stroke="#63b8ff" points="272.01,-670.37 261.45,-671.22 270.23,-677.14 272.01,-670.37"/>
</g>
<!-- Node22 -->
<g id="node20" class="node">
<title>Node22</title>
<g id="a_node20"><a xlink:href="class_ogre_1_1_portal_base.html" target="_top" xlink:title="PortalBase &#45; Base class to Portal and AntiPortal classes.">
<polygon fill="white" stroke="#666666" points="468,-771 378,-771 378,-752 468,-752 468,-771"/>
<text text-anchor="middle" x="423" y="-759" font-family="Helvetica,sans-Serif" font-size="10.00">Ogre::PortalBase</text>
</a>
</g>
</g>
<!-- Node7&#45;&gt;Node22 -->
<g id="edge19" class="edge">
<title>Node7&#45;&gt;Node22</title>
<path fill="none" stroke="#63b8ff" d="M270.78,-675.34C280.08,-678.17 289.16,-682.09 297,-687.5 321.36,-704.3 308.57,-726.81 333,-743.5 346.02,-752.39 362.44,-757.09 377.63,-759.5"/>
<polygon fill="#63b8ff" stroke="#63b8ff" points="271.83,-672 261.27,-672.87 270.07,-678.77 271.83,-672"/>
</g>
<!-- Node25 -->
<g id="node23" class="node">
<title>Node25</title>
<g id="a_node23"><a xlink:href="class_ogre_1_1_rectangle2_d.html" target="_top" xlink:title=" ">
<polygon fill="white" stroke="#666666" points="472,-734 374,-734 374,-715 472,-715 472,-734"/>
<text text-anchor="middle" x="423" y="-722" font-family="Helvetica,sans-Serif" font-size="10.00">Ogre::Rectangle2D</text>
</a>
</g>
</g>
<!-- Node7&#45;&gt;Node25 -->
<g id="edge22" class="edge">
<title>Node7&#45;&gt;Node25</title>
<path fill="none" stroke="#63b8ff" d="M270.49,-679.58C279.5,-681.83 288.57,-684.45 297,-687.5 314.01,-693.65 315.96,-700.42 333,-706.5 345.92,-711.11 360.33,-714.66 373.74,-717.35"/>
<polygon fill="#63b8ff" stroke="#63b8ff" points="271.57,-676.24 261.04,-677.38 269.98,-683.06 271.57,-676.24"/>
</g>
<!-- Node26 -->
<g id="node24" class="node">
<title>Node26</title>
<g id="a_node24"><a xlink:href="class_ogre_1_1_voxel_visualizer.html" target="_top" xlink:title=" ">
<polygon fill="white" stroke="#666666" points="477,-697 369,-697 369,-678 477,-678 477,-697"/>
<text text-anchor="middle" x="423" y="-685" font-family="Helvetica,sans-Serif" font-size="10.00">Ogre::VoxelVisualizer</text>
</a>
</g>
</g>
<!-- Node7&#45;&gt;Node26 -->
<g id="edge23" class="edge">
<title>Node7&#45;&gt;Node26</title>
<path fill="none" stroke="#63b8ff" d="M271.04,-674.16C302.12,-676.91 339.04,-680.17 368.59,-682.78"/>
<polygon fill="#63b8ff" stroke="#63b8ff" points="271.65,-670.7 261.38,-673.31 271.03,-677.67 271.65,-670.7"/>
</g>
<!-- Node27 -->
<g id="node25" class="node">
<title>Node27</title>
<g id="a_node25"><a xlink:href="class_ogre_1_1_wire_aabb.html" target="_top" xlink:title="Helper class to display the Aabb of a MovableObject as lines.">
<polygon fill="white" stroke="#666666" points="465,-660 381,-660 381,-641 465,-641 465,-660"/>
<text text-anchor="middle" x="423" y="-648" font-family="Helvetica,sans-Serif" font-size="10.00">Ogre::WireAabb</text>
</a>
</g>
</g>
<!-- Node7&#45;&gt;Node27 -->
<g id="edge24" class="edge">
<title>Node7&#45;&gt;Node27</title>
<path fill="none" stroke="#63b8ff" d="M271.12,-663.13C306.65,-660.16 349.78,-656.55 380.81,-653.95"/>
<polygon fill="#63b8ff" stroke="#63b8ff" points="271.05,-659.63 261.38,-663.95 271.64,-666.6 271.05,-659.63"/>
</g>
<!-- Node28 -->
<g id="node26" class="node">
<title>Node28</title>
<g id="a_node26"><a xlink:href="class_ogre_1_1v1_1_1_billboard_chain.html" target="_top" xlink:title="Allows the rendering of a chain of connected billboards.">
<polygon fill="#fff0f0" stroke="red" points="482.5,-623 363.5,-623 363.5,-604 482.5,-604 482.5,-623"/>
<text text-anchor="middle" x="423" y="-611" font-family="Helvetica,sans-Serif" font-size="10.00">Ogre::v1::BillboardChain</text>
</a>
</g>
</g>
<!-- Node7&#45;&gt;Node28 -->
<g id="edge25" class="edge">
<title>Node7&#45;&gt;Node28</title>
<path fill="none" stroke="#63b8ff" d="M250.44,-655.3C274.63,-648.15 305.37,-639.39 333,-632.5 345.72,-629.33 359.55,-626.22 372.43,-623.46"/>
<polygon fill="#63b8ff" stroke="#63b8ff" points="249.51,-651.93 240.92,-658.13 251.5,-658.64 249.51,-651.93"/>
</g>
<!-- Node30 -->
<g id="node27" class="node">
<title>Node30</title>
<g id="a_node27"><a xlink:href="class_ogre_1_1v1_1_1_billboard_set.html" target="_top" xlink:title="A collection of billboards (faces which are always facing the given direction) with the same (default...">
<polygon fill="white" stroke="#666666" points="478,-586 368,-586 368,-567 478,-567 478,-586"/>
<text text-anchor="middle" x="423" y="-574" font-family="Helvetica,sans-Serif" font-size="10.00">Ogre::v1::BillboardSet</text>
</a>
</g>
</g>
<!-- Node7&#45;&gt;Node30 -->
<g id="edge26" class="edge">
<title>Node7&#45;&gt;Node30</title>
<path fill="none" stroke="#63b8ff" d="M230.09,-652.12C254.54,-635.51 294.81,-610.21 333,-595.5 343.91,-591.3 355.95,-587.94 367.55,-585.28"/>
<polygon fill="#63b8ff" stroke="#63b8ff" points="228.11,-649.23 221.87,-657.79 232.09,-654.99 228.11,-649.23"/>
</g>
<!-- Node31 -->
<g id="node28" class="node">
<title>Node31</title>
<g id="a_node28"><a xlink:href="class_ogre_1_1v1_1_1_entity.html" target="_top" xlink:title="Defines an instance of a discrete, movable object based on a Mesh.">
<polygon fill="white" stroke="#666666" points="463.5,-549 382.5,-549 382.5,-530 463.5,-530 463.5,-549"/>
<text text-anchor="middle" x="423" y="-537" font-family="Helvetica,sans-Serif" font-size="10.00">Ogre::v1::Entity</text>
</a>
</g>
</g>
<!-- Node7&#45;&gt;Node31 -->
<g id="edge27" class="edge">
<title>Node7&#45;&gt;Node31</title>
<path fill="none" stroke="#63b8ff" d="M222.33,-650.26C244.23,-625.45 286.95,-581.55 333,-558.5 348.12,-550.93 366.15,-546.37 382.01,-543.63"/>
<polygon fill="#63b8ff" stroke="#63b8ff" points="219.88,-647.74 215.98,-657.6 225.17,-652.32 219.88,-647.74"/>
</g>
<!-- Node32 -->
<g id="node29" class="node">
<title>Node32</title>
<g id="a_node29"><a xlink:href="class_ogre_1_1v1_1_1_manual_object.html" target="_top" xlink:title="Class providing a much simplified interface to generating manual objects with custom geometry.">
<polygon fill="white" stroke="#666666" points="481.5,-512 364.5,-512 364.5,-493 481.5,-493 481.5,-512"/>
<text text-anchor="middle" x="423" y="-500" font-family="Helvetica,sans-Serif" font-size="10.00">Ogre::v1::ManualObject</text>
</a>
</g>
</g>
<!-- Node7&#45;&gt;Node32 -->
<g id="edge28" class="edge">
<title>Node7&#45;&gt;Node32</title>
<path fill="none" stroke="#63b8ff" d="M218.04,-648.74C237.07,-616.61 279.24,-553.45 333,-521.5 342.51,-515.85 353.47,-511.87 364.38,-509.07"/>
<polygon fill="#63b8ff" stroke="#63b8ff" points="215.01,-646.98 213.05,-657.39 221.07,-650.48 215.01,-646.98"/>
</g>
<!-- Node33 -->
<g id="node30" class="node">
<title>Node33</title>
<g id="a_node30"><a xlink:href="class_ogre_1_1v1_1_1_overlay.html" target="_top" xlink:title="Represents a layer which is rendered on top of the &#39;normal&#39; scene contents.">
<polygon fill="white" stroke="#666666" points="468,-475 378,-475 378,-456 468,-456 468,-475"/>
<text text-anchor="middle" x="423" y="-463" font-family="Helvetica,sans-Serif" font-size="10.00">Ogre::v1::Overlay</text>
</a>
</g>
</g>
<!-- Node7&#45;&gt;Node33 -->
<g id="edge29" class="edge">
<title>Node7&#45;&gt;Node33</title>
<path fill="none" stroke="#63b8ff" d="M214.95,-647.88C230.99,-609.22 271.05,-526.01 333,-484.5 346.13,-475.71 362.58,-470.88 377.75,-468.27"/>
<polygon fill="#63b8ff" stroke="#63b8ff" points="211.71,-646.57 211.24,-657.15 218.21,-649.17 211.71,-646.57"/>
</g>
<!-- Node34 -->
<g id="node31" class="node">
<title>Node34</title>
<g id="a_node31"><a xlink:href="class_ogre_1_1v1_1_1_rectangle2_d.html" target="_top" xlink:title="Allows the rendering of a simple 2D rectangle This class renders a simple 2D rectangle; this rectangl...">
<polygon fill="white" stroke="#666666" points="479.5,-438 366.5,-438 366.5,-419 479.5,-419 479.5,-438"/>
<text text-anchor="middle" x="423" y="-426" font-family="Helvetica,sans-Serif" font-size="10.00">Ogre::v1::Rectangle2D</text>
</a>
</g>
</g>
<!-- Node7&#45;&gt;Node34 -->
<g id="edge30" class="edge">
<title>Node7&#45;&gt;Node34</title>
<path fill="none" stroke="#63b8ff" d="M212.53,-647.79C225.51,-603.46 262.29,-499.22 333,-447.5 342.69,-440.41 354.47,-435.86 366.25,-432.96"/>
<polygon fill="#63b8ff" stroke="#63b8ff" points="209.24,-646.58 209.9,-657.16 215.98,-648.48 209.24,-646.58"/>
</g>
<!-- Node35 -->
<g id="node32" class="node">
<title>Node35</title>
<g id="a_node32"><a xlink:href="class_ogre_1_1v1_1_1_simple_renderable.html" target="_top" xlink:title="Simple implementation of MovableObject and Renderable for single&#45;part custom objects.">
<polygon fill="#fff0f0" stroke="red" points="491,-401 355,-401 355,-382 491,-382 491,-401"/>
<text text-anchor="middle" x="423" y="-389" font-family="Helvetica,sans-Serif" font-size="10.00">Ogre::v1::SimpleRenderable</text>
</a>
</g>
</g>
<!-- Node7&#45;&gt;Node35 -->
<g id="edge31" class="edge">
<title>Node7&#45;&gt;Node35</title>
<path fill="none" stroke="#63b8ff" d="M210.81,-647.46C220.96,-597.77 253.51,-472.62 333,-410.5 339.47,-405.44 346.99,-401.65 354.86,-398.83"/>
<polygon fill="#63b8ff" stroke="#63b8ff" points="207.4,-646.67 208.94,-657.15 214.27,-647.99 207.4,-646.67"/>
</g>
<!-- Node37 -->
<g id="node33" class="node">
<title>Node37</title>
<g id="a_node33"><a xlink:href="class_ogre_1_1v1_1_1_static_geometry_1_1_region.html" target="_top" xlink:title="The details of a topological region which is the highest level of partitioning for this class.">
<polygon fill="white" stroke="#666666" points="485.5,-363.5 360.5,-363.5 360.5,-333.5 485.5,-333.5 485.5,-363.5"/>
<text text-anchor="start" x="368.5" y="-351.5" font-family="Helvetica,sans-Serif" font-size="10.00">Ogre::v1::StaticGeometry</text>
<text text-anchor="middle" x="423" y="-340.5" font-family="Helvetica,sans-Serif" font-size="10.00">::Region</text>
</a>
</g>
</g>
<!-- Node7&#45;&gt;Node37 -->
<g id="edge32" class="edge">
<title>Node7&#45;&gt;Node37</title>
<path fill="none" stroke="#63b8ff" d="M209.73,-647.42C217.87,-593.42 246.99,-449.01 333,-373.5 340.84,-366.62 350.44,-361.62 360.39,-357.99"/>
<polygon fill="#63b8ff" stroke="#63b8ff" points="206.3,-646.7 208.37,-657.09 213.23,-647.67 206.3,-646.7"/>
</g>
<!-- Node10 -->
<g id="node10" class="node">
<title>Node10</title>
<g id="a_node10"><a xlink:href="class_ogre_1_1_camera.html" target="_top" xlink:title="A viewpoint from which the scene will be rendered.">
<polygon fill="#fff0f0" stroke="red" points="629.5,-1104 553.5,-1104 553.5,-1085 629.5,-1085 629.5,-1104"/>
<text text-anchor="middle" x="591.5" y="-1092" font-family="Helvetica,sans-Serif" font-size="10.00">Ogre::Camera</text>
</a>
</g>
</g>
<!-- Node9&#45;&gt;Node10 -->
<g id="edge9" class="edge">
<title>Node9&#45;&gt;Node10</title>
<path fill="none" stroke="#63b8ff" d="M473.51,-1094.5C498.99,-1094.5 529.56,-1094.5 553.05,-1094.5"/>
<polygon fill="#63b8ff" stroke="#63b8ff" points="473.71,-1091 463.71,-1094.5 473.71,-1098 473.71,-1091"/>
</g>
<!-- Node17 -->
<g id="node15" class="node">
<title>Node17</title>
<g id="a_node15"><a xlink:href="class_ogre_1_1_p_c_z_light.html" target="_top" xlink:title="Specialized version of Ogre::Light which caches which zones the light affects.">
<polygon fill="white" stroke="#666666" points="633,-956 550,-956 550,-937 633,-937 633,-956"/>
<text text-anchor="middle" x="591.5" y="-944" font-family="Helvetica,sans-Serif" font-size="10.00">Ogre::PCZLight</text>
</a>
</g>
</g>
<!-- Node16&#45;&gt;Node17 -->
<g id="edge14" class="edge">
<title>Node16&#45;&gt;Node17</title>
<path fill="none" stroke="#63b8ff" d="M466.52,-946.5C492.03,-946.5 524.33,-946.5 549.56,-946.5"/>
<polygon fill="#63b8ff" stroke="#63b8ff" points="466.83,-943 456.83,-946.5 466.83,-950 466.83,-943"/>
</g>
<!-- Node23 -->
<g id="node21" class="node">
<title>Node23</title>
<g id="a_node21"><a xlink:href="class_ogre_1_1_anti_portal.html" target="_top" xlink:title="AntiPortal datastructure for occlusion culling.">
<polygon fill="white" stroke="#666666" points="634,-789 549,-789 549,-770 634,-770 634,-789"/>
<text text-anchor="middle" x="591.5" y="-777" font-family="Helvetica,sans-Serif" font-size="10.00">Ogre::AntiPortal</text>
</a>
</g>
</g>
<!-- Node22&#45;&gt;Node23 -->
<g id="edge20" class="edge">
<title>Node22&#45;&gt;Node23</title>
<path fill="none" stroke="#63b8ff" d="M479.34,-767.48C501.96,-769.93 527.69,-772.71 548.69,-774.98"/>
<polygon fill="#63b8ff" stroke="#63b8ff" points="480,-764.03 469.69,-766.44 479.25,-770.99 480,-764.03"/>
</g>
<!-- Node24 -->
<g id="node22" class="node">
<title>Node24</title>
<g id="a_node22"><a xlink:href="class_ogre_1_1_portal.html" target="_top" xlink:title="Portal datastructure for connecting zones.">
<polygon fill="white" stroke="#666666" points="625.5,-752 557.5,-752 557.5,-733 625.5,-733 625.5,-752"/>
<text text-anchor="middle" x="591.5" y="-740" font-family="Helvetica,sans-Serif" font-size="10.00">Ogre::Portal</text>
</a>
</g>
</g>
<!-- Node22&#45;&gt;Node24 -->
<g id="edge21" class="edge">
<title>Node22&#45;&gt;Node24</title>
<path fill="none" stroke="#63b8ff" d="M479.33,-755.19C505.12,-752.24 534.95,-748.84 557.21,-746.3"/>
<polygon fill="#63b8ff" stroke="#63b8ff" points="479.22,-751.68 469.69,-756.29 480.02,-758.63 479.22,-751.68"/>
</g>
<!-- Node39 -->
<g id="node35" class="node">
<title>Node39</title>
<g id="a_node35"><a xlink:href="class_ogre_1_1_scene_node.html" target="_top" xlink:title="Class representing a node in the scene graph.">
<polygon fill="#fff0f0" stroke="red" points="469.5,-315 376.5,-315 376.5,-296 469.5,-296 469.5,-315"/>
<text text-anchor="middle" x="423" y="-303" font-family="Helvetica,sans-Serif" font-size="10.00">Ogre::SceneNode</text>
</a>
</g>
</g>
<!-- Node38&#45;&gt;Node39 -->
<g id="edge34" class="edge">
<title>Node38&#45;&gt;Node39</title>
<path fill="none" stroke="#63b8ff" d="M250,-305.5C286.56,-305.5 338.91,-305.5 376.24,-305.5"/>
<polygon fill="#63b8ff" stroke="#63b8ff" points="250.24,-302 240.24,-305.5 250.24,-309 250.24,-302"/>
</g>
<!-- Node45 -->
<g id="node37" class="node">
<title>Node45</title>
<g id="a_node37"><a xlink:href="class_ogre_1_1_parallax_corrected_cubemap.html" target="_top" xlink:title=" ">
<polygon fill="white" stroke="#666666" points="503,-278 343,-278 343,-259 503,-259 503,-278"/>
<text text-anchor="middle" x="423" y="-266" font-family="Helvetica,sans-Serif" font-size="10.00">Ogre::ParallaxCorrectedCubemap</text>
</a>
</g>
</g>
<!-- Node44&#45;&gt;Node45 -->
<g id="edge36" class="edge">
<title>Node44&#45;&gt;Node45</title>
<path fill="none" stroke="#63b8ff" d="M308.6,-268.5C320.01,-268.5 331.51,-268.5 342.57,-268.5"/>
<polygon fill="#63b8ff" stroke="#63b8ff" points="308.76,-265 298.76,-268.5 308.76,-272 308.76,-265"/>
</g>
<!-- Node46 -->
<g id="node38" class="node">
<title>Node46</title>
<g id="a_node38"><a xlink:href="class_ogre_1_1_parallax_corrected_cubemap_auto.html" target="_top" xlink:title="Per&#45;Pixel reflection probes.">
<polygon fill="white" stroke="#666666" points="513,-241 333,-241 333,-222 513,-222 513,-241"/>
<text text-anchor="middle" x="423" y="-229" font-family="Helvetica,sans-Serif" font-size="10.00">Ogre::ParallaxCorrectedCubemapAuto</text>
</a>
</g>
</g>
<!-- Node44&#45;&gt;Node46 -->
<g id="edge37" class="edge">
<title>Node44&#45;&gt;Node46</title>
<path fill="none" stroke="#63b8ff" d="M275.96,-256.63C304.35,-251.75 336.86,-246.15 364,-241.48"/>
<polygon fill="#63b8ff" stroke="#63b8ff" points="275.65,-253.13 266.39,-258.28 276.84,-260.03 275.65,-253.13"/>
</g>
<!-- Node48 -->
<g id="node40" class="node">
<title>Node48</title>
<g id="a_node40"><a xlink:href="class_ogre_1_1_bsp_scene_manager.html" target="_top" xlink:title="Specialisation of the SceneManager class to deal with indoor scenes based on a BSP tree.">
<polygon fill="white" stroke="#666666" points="485.5,-204 360.5,-204 360.5,-185 485.5,-185 485.5,-204"/>
<text text-anchor="middle" x="423" y="-192" font-family="Helvetica,sans-Serif" font-size="10.00">Ogre::BspSceneManager</text>
</a>
</g>
</g>
<!-- Node47&#45;&gt;Node48 -->
<g id="edge39" class="edge">
<title>Node47&#45;&gt;Node48</title>
<path fill="none" stroke="#63b8ff" d="M271.21,-194.5C299.37,-194.5 332.29,-194.5 360.18,-194.5"/>
<polygon fill="#63b8ff" stroke="#63b8ff" points="271.38,-191 261.38,-194.5 271.38,-198 271.38,-191"/>
</g>
<!-- Node49 -->
<g id="node41" class="node">
<title>Node49</title>
<g id="a_node41"><a xlink:href="class_ogre_1_1_default_scene_manager.html" target="_top" xlink:title="Default scene manager.">
<polygon fill="white" stroke="#666666" points="492,-167 354,-167 354,-148 492,-148 492,-167"/>
<text text-anchor="middle" x="423" y="-155" font-family="Helvetica,sans-Serif" font-size="10.00">Ogre::DefaultSceneManager</text>
</a>
</g>
</g>
<!-- Node47&#45;&gt;Node49 -->
<g id="edge40" class="edge">
<title>Node47&#45;&gt;Node49</title>
<path fill="none" stroke="#63b8ff" d="M270.91,-183.5C300.45,-178.42 335.27,-172.42 364.04,-167.47"/>
<polygon fill="#63b8ff" stroke="#63b8ff" points="270.62,-180 261.36,-185.14 271.81,-186.9 270.62,-180"/>
</g>
<!-- Node50 -->
<g id="node42" class="node">
<title>Node50</title>
<g id="a_node42"><a xlink:href="class_ogre_1_1_octree_scene_manager.html" target="_top" xlink:title="Specialized SceneManager that divides the geometry into an octree in order to facilitate spatial quer...">
<polygon fill="white" stroke="#666666" points="491.5,-130 354.5,-130 354.5,-111 491.5,-111 491.5,-130"/>
<text text-anchor="middle" x="423" y="-118" font-family="Helvetica,sans-Serif" font-size="10.00">Ogre::OctreeSceneManager</text>
</a>
</g>
</g>
<!-- Node47&#45;&gt;Node50 -->
<g id="edge41" class="edge">
<title>Node47&#45;&gt;Node50</title>
<path fill="none" stroke="#63b8ff" d="M270.86,-186.73C279.95,-184.21 288.94,-180.89 297,-176.5 317.15,-165.54 312.92,-150.59 333,-139.5 339.64,-135.83 346.92,-132.87 354.36,-130.48"/>
<polygon fill="#63b8ff" stroke="#63b8ff" points="270.14,-183.3 261.25,-189.06 271.79,-190.1 270.14,-183.3"/>
</g>
<!-- Node51 -->
<g id="node43" class="node">
<title>Node51</title>
<g id="a_node43"><a xlink:href="class_ogre_1_1_p_c_z_scene_manager.html" target="_top" xlink:title="Specialized SceneManager that uses Portal&#45;Connected&#45;Zones to divide the scene spatially.">
<polygon fill="white" stroke="#666666" points="486.5,-93 359.5,-93 359.5,-74 486.5,-74 486.5,-93"/>
<text text-anchor="middle" x="423" y="-81" font-family="Helvetica,sans-Serif" font-size="10.00">Ogre::PCZSceneManager</text>
</a>
</g>
</g>
<!-- Node47&#45;&gt;Node51 -->
<g id="edge42" class="edge">
<title>Node47&#45;&gt;Node51</title>
<path fill="none" stroke="#63b8ff" d="M271.01,-189.33C280.36,-186.49 289.39,-182.38 297,-176.5 325.94,-154.14 304.2,-125.04 333,-102.5 340.71,-96.46 349.91,-92.23 359.42,-89.29"/>
<polygon fill="#63b8ff" stroke="#63b8ff" points="270.25,-185.91 261.41,-191.75 271.96,-192.7 270.25,-185.91"/>
</g>
<!-- Node55 -->
<g id="node47" class="node">
<title>Node55</title>
<g id="a_node47"><a xlink:href="class_ogre_1_1_vct_image_voxelizer.html" target="_top" xlink:title="The image voxelizer aims to be faster than VctImageVoxelizer for the whole scene by following a diffe...">
<polygon fill="white" stroke="#666666" points="484.5,-56 361.5,-56 361.5,-37 484.5,-37 484.5,-56"/>
<text text-anchor="middle" x="423" y="-44" font-family="Helvetica,sans-Serif" font-size="10.00">Ogre::VctImageVoxelizer</text>
</a>
</g>
</g>
<!-- Node54&#45;&gt;Node55 -->
<g id="edge46" class="edge">
<title>Node54&#45;&gt;Node55</title>
<path fill="none" stroke="#63b8ff" d="M292.16,-57.97C315.19,-55.94 339.66,-53.78 361.07,-51.88"/>
<polygon fill="#63b8ff" stroke="#63b8ff" points="292.15,-54.46 282.5,-58.83 292.77,-61.43 292.15,-54.46"/>
</g>
<!-- Node56 -->
<g id="node48" class="node">
<title>Node56</title>
<g id="a_node48"><a xlink:href="class_ogre_1_1_vct_voxelizer.html" target="_top" xlink:title="The voxelizer consists in several stages.">
<polygon fill="white" stroke="#666666" points="471,-19 375,-19 375,0 471,0 471,-19"/>
<text text-anchor="middle" x="423" y="-7" font-family="Helvetica,sans-Serif" font-size="10.00">Ogre::VctVoxelizer</text>
</a>
</g>
</g>
<!-- Node54&#45;&gt;Node56 -->
<g id="edge47" class="edge">
<title>Node54&#45;&gt;Node56</title>
<path fill="none" stroke="#63b8ff" d="M280.21,-52.72C285.94,-51.15 291.6,-49.42 297,-47.5 314.05,-41.44 315.99,-34.67 333,-28.5 346.22,-23.71 361,-19.95 374.67,-17.09"/>
<polygon fill="#63b8ff" stroke="#63b8ff" points="279.43,-49.3 270.59,-55.15 281.15,-56.09 279.43,-49.3"/>
</g>
</g>
</svg>
