<?xml version="1.0" encoding="UTF-8" standalone="no"?>
<!DOCTYPE svg PUBLIC "-//W3C//DTD SVG 1.1//EN"
 "http://www.w3.org/Graphics/SVG/1.1/DTD/svg11.dtd">
<!-- Generated by graphviz version 9.0.0 (20230911.1827)
 -->
<!-- Title: Ogre::UavBufferPacked Pages: 1 -->
<svg width="626pt" height="175pt"
 viewBox="0.00 0.00 626.25 175.25" xmlns="http://www.w3.org/2000/svg" xmlns:xlink="http://www.w3.org/1999/xlink">
<g id="graph0" class="graph" transform="scale(1 1) rotate(0) translate(4 171.25)">
<title>Ogre::UavBufferPacked</title>
<!-- Node1 -->
<g id="Node000001" class="node">
<title>Node1</title>
<g id="a_Node000001"><a xlink:title="Represents UAV buffers (also known as SSBOs in OpenGL) Uav buffers are supported in DX10/DX10....">
<polygon fill="#999999" stroke="#666666" points="426,-93.25 308,-93.25 308,-74 426,-74 426,-93.25"/>
<text text-anchor="middle" x="367" y="-79.75" font-family="Helvetica,sans-Serif" font-size="10.00">Ogre::UavBufferPacked</text>
</a>
</g>
</g>
<!-- Node5 -->
<g id="Node000005" class="node">
<title>Node5</title>
<g id="a_Node000005"><a xlink:href="class_ogre_1_1_d3_d11_uav_buffer_packed.html" target="_top" xlink:title=" ">
<polygon fill="white" stroke="#666666" points="613.75,-167.25 466.5,-167.25 466.5,-148 613.75,-148 613.75,-167.25"/>
<text text-anchor="middle" x="540.12" y="-153.75" font-family="Helvetica,sans-Serif" font-size="10.00">Ogre::D3D11UavBufferPacked</text>
</a>
</g>
</g>
<!-- Node1&#45;&gt;Node5 -->
<g id="edge4_Node000001_Node000005" class="edge">
<title>Node1&#45;&gt;Node5</title>
<g id="a_edge4_Node000001_Node000005"><a xlink:title=" ">
<path fill="none" stroke="#63b8ff" d="M390.92,-100.02C409.33,-112.5 436.28,-129.26 462,-139.62 469.65,-142.71 477.95,-145.34 486.18,-147.55"/>
<polygon fill="#63b8ff" stroke="#63b8ff" points="393.08,-97.26 382.87,-94.45 389.1,-103.02 393.08,-97.26"/>
</a>
</g>
</g>
<!-- Node6 -->
<g id="Node000006" class="node">
<title>Node6</title>
<g id="a_Node000006"><a xlink:href="class_ogre_1_1_g_l3_plus_uav_buffer_packed.html" target="_top" xlink:title=" ">
<polygon fill="white" stroke="#666666" points="618.25,-130.25 462,-130.25 462,-111 618.25,-111 618.25,-130.25"/>
<text text-anchor="middle" x="540.12" y="-116.75" font-family="Helvetica,sans-Serif" font-size="10.00">Ogre::GL3PlusUavBufferPacked</text>
</a>
</g>
</g>
<!-- Node1&#45;&gt;Node6 -->
<g id="edge5_Node000001_Node000006" class="edge">
<title>Node1&#45;&gt;Node6</title>
<g id="a_edge5_Node000001_Node000006"><a xlink:title=" ">
<path fill="none" stroke="#63b8ff" d="M425.82,-96.13C447.51,-100.82 471.87,-106.08 492.42,-110.53"/>
<polygon fill="#63b8ff" stroke="#63b8ff" points="426.75,-92.75 416.24,-94.06 425.27,-99.59 426.75,-92.75"/>
</a>
</g>
</g>
<!-- Node7 -->
<g id="Node000007" class="node">
<title>Node7</title>
<g id="a_Node000007"><a xlink:href="class_ogre_1_1_metal_uav_buffer_packed.html" target="_top" xlink:title=" ">
<polygon fill="white" stroke="#666666" points="611.12,-93.25 469.12,-93.25 469.12,-74 611.12,-74 611.12,-93.25"/>
<text text-anchor="middle" x="540.12" y="-79.75" font-family="Helvetica,sans-Serif" font-size="10.00">Ogre::MetalUavBufferPacked</text>
</a>
</g>
</g>
<!-- Node1&#45;&gt;Node7 -->
<g id="edge6_Node000001_Node000007" class="edge">
<title>Node1&#45;&gt;Node7</title>
<g id="a_edge6_Node000001_Node000007"><a xlink:title=" ">
<path fill="none" stroke="#63b8ff" d="M437.81,-83.62C448.05,-83.62 458.6,-83.62 468.85,-83.62"/>
<polygon fill="#63b8ff" stroke="#63b8ff" points="437.93,-80.13 427.93,-83.63 437.93,-87.13 437.93,-80.13"/>
</a>
</g>
</g>
<!-- Node8 -->
<g id="Node000008" class="node">
<title>Node8</title>
<g id="a_Node000008"><a xlink:href="class_ogre_1_1_n_u_l_l_uav_buffer_packed.html" target="_top" xlink:title=" ">
<polygon fill="white" stroke="#666666" points="612.62,-56.25 467.62,-56.25 467.62,-37 612.62,-37 612.62,-56.25"/>
<text text-anchor="middle" x="540.12" y="-42.75" font-family="Helvetica,sans-Serif" font-size="10.00">Ogre::NULLUavBufferPacked</text>
</a>
</g>
</g>
<!-- Node1&#45;&gt;Node8 -->
<g id="edge7_Node000001_Node000008" class="edge">
<title>Node1&#45;&gt;Node8</title>
<g id="a_edge7_Node000001_Node000008"><a xlink:title=" ">
<path fill="none" stroke="#63b8ff" d="M425.82,-71.12C447.51,-66.43 471.87,-61.17 492.42,-56.72"/>
<polygon fill="#63b8ff" stroke="#63b8ff" points="425.27,-67.66 416.24,-73.19 426.75,-74.5 425.27,-67.66"/>
</a>
</g>
</g>
<!-- Node9 -->
<g id="Node000009" class="node">
<title>Node9</title>
<g id="a_Node000009"><a xlink:href="class_ogre_1_1_vulkan_uav_buffer_packed.html" target="_top" xlink:title=" ">
<polygon fill="white" stroke="#666666" points="614.12,-19.25 466.12,-19.25 466.12,0 614.12,0 614.12,-19.25"/>
<text text-anchor="middle" x="540.12" y="-5.75" font-family="Helvetica,sans-Serif" font-size="10.00">Ogre::VulkanUavBufferPacked</text>
</a>
</g>
</g>
<!-- Node1&#45;&gt;Node9 -->
<g id="edge8_Node000001_Node000009" class="edge">
<title>Node1&#45;&gt;Node9</title>
<g id="a_edge8_Node000001_Node000009"><a xlink:title=" ">
<path fill="none" stroke="#63b8ff" d="M390.92,-67.23C409.33,-54.75 436.28,-37.99 462,-27.62 469.65,-24.54 477.95,-21.91 486.18,-19.7"/>
<polygon fill="#63b8ff" stroke="#63b8ff" points="389.1,-64.23 382.87,-72.8 393.08,-69.99 389.1,-64.23"/>
</a>
</g>
</g>
<!-- Node2 -->
<g id="Node000002" class="node">
<title>Node2</title>
<g id="a_Node000002"><a xlink:href="class_ogre_1_1_buffer_packed.html" target="_top" xlink:title=" ">
<polygon fill="white" stroke="#666666" points="272,-93.25 172,-93.25 172,-74 272,-74 272,-93.25"/>
<text text-anchor="middle" x="222" y="-79.75" font-family="Helvetica,sans-Serif" font-size="10.00">Ogre::BufferPacked</text>
</a>
</g>
</g>
<!-- Node2&#45;&gt;Node1 -->
<g id="edge1_Node000001_Node000002" class="edge">
<title>Node2&#45;&gt;Node1</title>
<g id="a_edge1_Node000001_Node000002"><a xlink:title=" ">
<path fill="none" stroke="#63b8ff" d="M283.45,-83.62C291.53,-83.62 299.79,-83.62 307.83,-83.62"/>
<polygon fill="#63b8ff" stroke="#63b8ff" points="283.73,-80.13 273.73,-83.63 283.73,-87.13 283.73,-80.13"/>
</a>
</g>
</g>
<!-- Node3 -->
<g id="Node000003" class="node">
<title>Node3</title>
<g id="a_Node000003"><a xlink:href="struct_ogre_1_1_gpu_tracked_resource.html" target="_top" xlink:title=" ">
<polygon fill="white" stroke="#666666" points="136,-112.25 0,-112.25 0,-93 136,-93 136,-112.25"/>
<text text-anchor="middle" x="68" y="-98.75" font-family="Helvetica,sans-Serif" font-size="10.00">Ogre::GpuTrackedResource</text>
</a>
</g>
</g>
<!-- Node3&#45;&gt;Node2 -->
<g id="edge2_Node000002_Node000003" class="edge">
<title>Node3&#45;&gt;Node2</title>
<g id="a_edge2_Node000002_Node000003"><a xlink:title=" ">
<path fill="none" stroke="#63b8ff" d="M147.35,-92.83C155.59,-91.8 163.81,-90.77 171.59,-89.8"/>
<polygon fill="#63b8ff" stroke="#63b8ff" points="147.1,-89.33 137.61,-94.05 147.97,-96.28 147.1,-89.33"/>
</a>
</g>
</g>
<!-- Node4 -->
<g id="Node000004" class="node">
<title>Node4</title>
<g id="a_Node000004"><a xlink:href="class_ogre_1_1_allocated_object.html" target="_top" xlink:title="Superclass for all objects that wish to use custom memory allocators when their new / delete operator...">
<polygon fill="white" stroke="#666666" points="116.12,-75.25 19.88,-75.25 19.88,-56 116.12,-56 116.12,-75.25"/>
<text text-anchor="middle" x="68" y="-61.75" font-family="Helvetica,sans-Serif" font-size="10.00">BufferPackedAlloc</text>
</a>
</g>
</g>
<!-- Node4&#45;&gt;Node2 -->
<g id="edge3_Node000002_Node000004" class="edge">
<title>Node4&#45;&gt;Node2</title>
<g id="a_edge3_Node000002_Node000004"><a xlink:title=" ">
<path fill="none" stroke="#63b8ff" d="M127.68,-72.57C142.21,-74.29 157.63,-76.12 171.67,-77.78"/>
<polygon fill="#63b8ff" stroke="#63b8ff" points="128.11,-69.1 117.76,-71.4 127.28,-76.05 128.11,-69.1"/>
</a>
</g>
</g>
</g>
</svg>
