<?xml version="1.0" encoding="UTF-8" standalone="no"?>
<!DOCTYPE svg PUBLIC "-//W3C//DTD SVG 1.1//EN"
 "http://www.w3.org/Graphics/SVG/1.1/DTD/svg11.dtd">
<!-- Generated by graphviz version 9.0.0 (20230911.1827)
 -->
<!-- Title: Ogre::GpuResource Pages: 1 -->
<svg width="922pt" height="247pt"
 viewBox="0.00 0.00 921.50 246.88" xmlns="http://www.w3.org/2000/svg" xmlns:xlink="http://www.w3.org/1999/xlink">
<g id="graph0" class="graph" transform="scale(1 1) rotate(0) translate(4 242.88)">
<title>Ogre::GpuResource</title>
<!-- Node1 -->
<g id="Node000001" class="node">
<title>Node1</title>
<g id="a_Node000001"><a xlink:title=" ">
<polygon fill="#999999" stroke="#666666" points="215.75,-122.88 115,-122.88 115,-103.62 215.75,-103.62 215.75,-122.88"/>
<text text-anchor="middle" x="165.38" y="-109.38" font-family="Helvetica,sans-Serif" font-size="10.00">Ogre::GpuResource</text>
</a>
</g>
</g>
<!-- Node3 -->
<g id="Node000003" class="node">
<title>Node3</title>
<g id="a_Node000003"><a xlink:href="class_ogre_1_1_texture_gpu.html" target="_top" xlink:title=" ">
<polygon fill="white" stroke="#666666" points="343.5,-122.88 251.75,-122.88 251.75,-103.62 343.5,-103.62 343.5,-122.88"/>
<text text-anchor="middle" x="297.62" y="-109.38" font-family="Helvetica,sans-Serif" font-size="10.00">Ogre::TextureGpu</text>
</a>
</g>
</g>
<!-- Node1&#45;&gt;Node3 -->
<g id="edge2_Node000001_Node000003" class="edge">
<title>Node1&#45;&gt;Node3</title>
<g id="a_edge2_Node000001_Node000003"><a xlink:title=" ">
<path fill="none" stroke="#63b8ff" d="M227.34,-113.25C235.45,-113.25 243.65,-113.25 251.43,-113.25"/>
<polygon fill="#63b8ff" stroke="#63b8ff" points="227.5,-109.75 217.5,-113.25 227.5,-116.75 227.5,-109.75"/>
</a>
</g>
</g>
<!-- Node2 -->
<g id="Node000002" class="node">
<title>Node2</title>
<g id="a_Node000002"><a xlink:href="class_ogre_1_1_allocated_object.html" target="_top" xlink:title="Superclass for all objects that wish to use custom memory allocators when their new / delete operator...">
<polygon fill="white" stroke="#666666" points="79,-122.88 0,-122.88 0,-103.62 79,-103.62 79,-122.88"/>
<text text-anchor="middle" x="39.5" y="-109.38" font-family="Helvetica,sans-Serif" font-size="10.00">ResourceAlloc</text>
</a>
</g>
</g>
<!-- Node2&#45;&gt;Node1 -->
<g id="edge1_Node000001_Node000002" class="edge">
<title>Node2&#45;&gt;Node1</title>
<g id="a_edge1_Node000001_Node000002"><a xlink:title=" ">
<path fill="none" stroke="#63b8ff" d="M90.71,-113.25C98.63,-113.25 106.82,-113.25 114.72,-113.25"/>
<polygon fill="#63b8ff" stroke="#63b8ff" points="90.87,-109.75 80.87,-113.25 90.87,-116.75 90.87,-109.75"/>
</a>
</g>
</g>
<!-- Node4 -->
<g id="Node000004" class="node">
<title>Node4</title>
<g id="a_Node000004"><a xlink:href="class_ogre_1_1_d3_d11_texture_gpu.html" target="_top" xlink:title=" ">
<polygon fill="white" stroke="#666666" points="505,-217.88 384,-217.88 384,-198.62 505,-198.62 505,-217.88"/>
<text text-anchor="middle" x="444.5" y="-204.38" font-family="Helvetica,sans-Serif" font-size="10.00">Ogre::D3D11TextureGpu</text>
</a>
</g>
</g>
<!-- Node3&#45;&gt;Node4 -->
<g id="edge3_Node000003_Node000004" class="edge">
<title>Node3&#45;&gt;Node4</title>
<g id="a_edge3_Node000003_Node000004"><a xlink:title=" ">
<path fill="none" stroke="#63b8ff" d="M318.69,-130.24C334.62,-143.33 357.77,-161.47 379.5,-175.25 393.01,-183.82 409.01,-192.07 421.64,-198.18"/>
<polygon fill="#63b8ff" stroke="#63b8ff" points="321.29,-127.86 311.36,-124.15 316.82,-133.24 321.29,-127.86"/>
</a>
</g>
</g>
<!-- Node7 -->
<g id="Node000007" class="node">
<title>Node7</title>
<g id="a_Node000007"><a xlink:href="class_ogre_1_1_g_l3_plus_texture_gpu.html" target="_top" xlink:title=" ">
<polygon fill="white" stroke="#666666" points="509.5,-165.88 379.5,-165.88 379.5,-146.62 509.5,-146.62 509.5,-165.88"/>
<text text-anchor="middle" x="444.5" y="-152.38" font-family="Helvetica,sans-Serif" font-size="10.00">Ogre::GL3PlusTextureGpu</text>
</a>
</g>
</g>
<!-- Node3&#45;&gt;Node7 -->
<g id="edge6_Node000003_Node000007" class="edge">
<title>Node3&#45;&gt;Node7</title>
<g id="a_edge6_Node000003_Node000007"><a xlink:title=" ">
<path fill="none" stroke="#63b8ff" d="M343.35,-126.52C364.67,-132.85 389.76,-140.3 409.5,-146.16"/>
<polygon fill="#63b8ff" stroke="#63b8ff" points="344.63,-123.25 334.04,-123.76 342.63,-129.96 344.63,-123.25"/>
</a>
</g>
</g>
<!-- Node11 -->
<g id="Node000011" class="node">
<title>Node11</title>
<g id="a_Node000011"><a xlink:href="class_ogre_1_1_metal_texture_gpu.html" target="_top" xlink:title=" ">
<polygon fill="white" stroke="#666666" points="502.38,-122.88 386.62,-122.88 386.62,-103.62 502.38,-103.62 502.38,-122.88"/>
<text text-anchor="middle" x="444.5" y="-109.38" font-family="Helvetica,sans-Serif" font-size="10.00">Ogre::MetalTextureGpu</text>
</a>
</g>
</g>
<!-- Node3&#45;&gt;Node11 -->
<g id="edge10_Node000003_Node000011" class="edge">
<title>Node3&#45;&gt;Node11</title>
<g id="a_edge10_Node000003_Node000011"><a xlink:title=" ">
<path fill="none" stroke="#63b8ff" d="M354.99,-113.25C365.23,-113.25 375.93,-113.25 386.19,-113.25"/>
<polygon fill="#63b8ff" stroke="#63b8ff" points="355.18,-109.75 345.18,-113.25 355.18,-116.75 355.18,-109.75"/>
</a>
</g>
</g>
<!-- Node14 -->
<g id="Node000014" class="node">
<title>Node14</title>
<g id="a_Node000014"><a xlink:href="class_ogre_1_1_n_u_l_l_texture_gpu.html" target="_top" xlink:title=" ">
<polygon fill="white" stroke="#666666" points="503.88,-79.88 385.12,-79.88 385.12,-60.62 503.88,-60.62 503.88,-79.88"/>
<text text-anchor="middle" x="444.5" y="-66.38" font-family="Helvetica,sans-Serif" font-size="10.00">Ogre::NULLTextureGpu</text>
</a>
</g>
</g>
<!-- Node3&#45;&gt;Node14 -->
<g id="edge13_Node000003_Node000014" class="edge">
<title>Node3&#45;&gt;Node14</title>
<g id="a_edge13_Node000003_Node000014"><a xlink:title=" ">
<path fill="none" stroke="#63b8ff" d="M343.35,-99.98C364.67,-93.65 389.76,-86.2 409.5,-80.34"/>
<polygon fill="#63b8ff" stroke="#63b8ff" points="342.63,-96.54 334.04,-102.74 344.63,-103.25 342.63,-96.54"/>
</a>
</g>
</g>
<!-- Node16 -->
<g id="Node000016" class="node">
<title>Node16</title>
<g id="a_Node000016"><a xlink:href="class_ogre_1_1_vulkan_texture_gpu.html" target="_top" xlink:title=" ">
<polygon fill="white" stroke="#666666" points="505.38,-36.88 383.62,-36.88 383.62,-17.62 505.38,-17.62 505.38,-36.88"/>
<text text-anchor="middle" x="444.5" y="-23.38" font-family="Helvetica,sans-Serif" font-size="10.00">Ogre::VulkanTextureGpu</text>
</a>
</g>
</g>
<!-- Node3&#45;&gt;Node16 -->
<g id="edge15_Node000003_Node000016" class="edge">
<title>Node3&#45;&gt;Node16</title>
<g id="a_edge15_Node000003_Node000016"><a xlink:title=" ">
<path fill="none" stroke="#63b8ff" d="M317.72,-96C333.43,-82.47 356.74,-63.88 379.5,-51.25 389.36,-45.78 400.71,-41.07 411.1,-37.3"/>
<polygon fill="#63b8ff" stroke="#63b8ff" points="315.75,-93.07 310.54,-102.3 320.37,-98.33 315.75,-93.07"/>
</a>
</g>
</g>
<!-- Node5 -->
<g id="Node000005" class="node">
<title>Node5</title>
<g id="a_Node000005"><a xlink:href="class_ogre_1_1_d3_d11_texture_gpu_render_target.html" target="_top" xlink:title=" ">
<polygon fill="white" stroke="#666666" points="701.75,-238.5 550,-238.5 550,-208 701.75,-208 701.75,-238.5"/>
<text text-anchor="start" x="558" y="-225" font-family="Helvetica,sans-Serif" font-size="10.00">Ogre::D3D11TextureGpuRender</text>
<text text-anchor="middle" x="625.88" y="-213.75" font-family="Helvetica,sans-Serif" font-size="10.00">Target</text>
</a>
</g>
</g>
<!-- Node4&#45;&gt;Node5 -->
<g id="edge4_Node000004_Node000005" class="edge">
<title>Node4&#45;&gt;Node5</title>
<g id="a_edge4_Node000004_Node000005"><a xlink:title=" ">
<path fill="none" stroke="#63b8ff" d="M516.46,-214.18C527.41,-215.1 538.74,-216.05 549.77,-216.97"/>
<polygon fill="#63b8ff" stroke="#63b8ff" points="516.99,-210.72 506.74,-213.37 516.41,-217.69 516.99,-210.72"/>
</a>
</g>
</g>
<!-- Node6 -->
<g id="Node000006" class="node">
<title>Node6</title>
<g id="a_Node000006"><a xlink:href="class_ogre_1_1_d3_d11_texture_gpu_window.html" target="_top" xlink:title=" ">
<polygon fill="white" stroke="#666666" points="905.62,-238.88 750.12,-238.88 750.12,-219.62 905.62,-219.62 905.62,-238.88"/>
<text text-anchor="middle" x="827.88" y="-225.38" font-family="Helvetica,sans-Serif" font-size="10.00">Ogre::D3D11TextureGpuWindow</text>
</a>
</g>
</g>
<!-- Node5&#45;&gt;Node6 -->
<g id="edge5_Node000005_Node000006" class="edge">
<title>Node5&#45;&gt;Node6</title>
<g id="a_edge5_Node000005_Node000006"><a xlink:title=" ">
<path fill="none" stroke="#63b8ff" d="M713.67,-225.85C725.74,-226.22 738.08,-226.59 749.95,-226.94"/>
<polygon fill="#63b8ff" stroke="#63b8ff" points="713.81,-222.36 703.71,-225.56 713.6,-229.35 713.81,-222.36"/>
</a>
</g>
</g>
<!-- Node8 -->
<g id="Node000008" class="node">
<title>Node8</title>
<g id="a_Node000008"><a xlink:href="class_ogre_1_1_g_l3_plus_texture_gpu_render_target.html" target="_top" xlink:title=" ">
<polygon fill="white" stroke="#666666" points="706.25,-177.5 545.5,-177.5 545.5,-147 706.25,-147 706.25,-177.5"/>
<text text-anchor="start" x="553.5" y="-164" font-family="Helvetica,sans-Serif" font-size="10.00">Ogre::GL3PlusTextureGpuRender</text>
<text text-anchor="middle" x="625.88" y="-152.75" font-family="Helvetica,sans-Serif" font-size="10.00">Target</text>
</a>
</g>
</g>
<!-- Node7&#45;&gt;Node8 -->
<g id="edge7_Node000007_Node000008" class="edge">
<title>Node7&#45;&gt;Node8</title>
<g id="a_edge7_Node000007_Node000008"><a xlink:title=" ">
<path fill="none" stroke="#63b8ff" d="M521.2,-158.78C529.1,-159.05 537.16,-159.32 545.11,-159.58"/>
<polygon fill="#63b8ff" stroke="#63b8ff" points="521.38,-155.29 511.26,-158.45 521.14,-162.28 521.38,-155.29"/>
</a>
</g>
</g>
<!-- Node9 -->
<g id="Node000009" class="node">
<title>Node9</title>
<g id="a_Node000009"><a xlink:href="class_ogre_1_1_g_l3_plus_texture_gpu_headless_window.html" target="_top" xlink:title=" ">
<polygon fill="white" stroke="#666666" points="913.5,-201.5 742.25,-201.5 742.25,-171 913.5,-171 913.5,-201.5"/>
<text text-anchor="start" x="750.25" y="-188" font-family="Helvetica,sans-Serif" font-size="10.00">Ogre::GL3PlusTextureGpuHeadless</text>
<text text-anchor="middle" x="827.88" y="-176.75" font-family="Helvetica,sans-Serif" font-size="10.00">Window</text>
</a>
</g>
</g>
<!-- Node8&#45;&gt;Node9 -->
<g id="edge8_Node000008_Node000009" class="edge">
<title>Node8&#45;&gt;Node9</title>
<g id="a_edge8_Node000008_Node000009"><a xlink:title=" ">
<path fill="none" stroke="#63b8ff" d="M717.79,-173.16C725.84,-174.13 733.96,-175.1 741.95,-176.06"/>
<polygon fill="#63b8ff" stroke="#63b8ff" points="718.34,-169.7 708,-171.98 717.51,-176.65 718.34,-169.7"/>
</a>
</g>
</g>
<!-- Node10 -->
<g id="Node000010" class="node">
<title>Node10</title>
<g id="a_Node000010"><a xlink:href="class_ogre_1_1_g_l3_plus_texture_gpu_window.html" target="_top" xlink:title=" ">
<polygon fill="white" stroke="#666666" points="910.12,-152.88 745.62,-152.88 745.62,-133.62 910.12,-133.62 910.12,-152.88"/>
<text text-anchor="middle" x="827.88" y="-139.38" font-family="Helvetica,sans-Serif" font-size="10.00">Ogre::GL3PlusTextureGpuWindow</text>
</a>
</g>
</g>
<!-- Node8&#45;&gt;Node10 -->
<g id="edge9_Node000008_Node000010" class="edge">
<title>Node8&#45;&gt;Node10</title>
<g id="a_edge9_Node000008_Node000010"><a xlink:title=" ">
<path fill="none" stroke="#63b8ff" d="M717.95,-153.6C727.04,-152.73 736.24,-151.86 745.24,-151.01"/>
<polygon fill="#63b8ff" stroke="#63b8ff" points="717.63,-150.11 708,-154.54 718.29,-157.08 717.63,-150.11"/>
</a>
</g>
</g>
<!-- Node12 -->
<g id="Node000012" class="node">
<title>Node12</title>
<g id="a_Node000012"><a xlink:href="class_ogre_1_1_metal_texture_gpu_render_target.html" target="_top" xlink:title=" ">
<polygon fill="white" stroke="#666666" points="699.12,-128.5 552.62,-128.5 552.62,-98 699.12,-98 699.12,-128.5"/>
<text text-anchor="start" x="560.62" y="-115" font-family="Helvetica,sans-Serif" font-size="10.00">Ogre::MetalTextureGpuRender</text>
<text text-anchor="middle" x="625.88" y="-103.75" font-family="Helvetica,sans-Serif" font-size="10.00">Target</text>
</a>
</g>
</g>
<!-- Node11&#45;&gt;Node12 -->
<g id="edge11_Node000011_Node000012" class="edge">
<title>Node11&#45;&gt;Node12</title>
<g id="a_edge11_Node000011_Node000012"><a xlink:title=" ">
<path fill="none" stroke="#63b8ff" d="M514.08,-113.25C526.62,-113.25 539.75,-113.25 552.41,-113.25"/>
<polygon fill="#63b8ff" stroke="#63b8ff" points="514.26,-109.75 504.26,-113.25 514.26,-116.75 514.26,-109.75"/>
</a>
</g>
</g>
<!-- Node13 -->
<g id="Node000013" class="node">
<title>Node13</title>
<g id="a_Node000013"><a xlink:href="class_ogre_1_1_metal_texture_gpu_window.html" target="_top" xlink:title=" ">
<polygon fill="white" stroke="#666666" points="903,-115.88 752.75,-115.88 752.75,-96.62 903,-96.62 903,-115.88"/>
<text text-anchor="middle" x="827.88" y="-102.38" font-family="Helvetica,sans-Serif" font-size="10.00">Ogre::MetalTextureGpuWindow</text>
</a>
</g>
</g>
<!-- Node12&#45;&gt;Node13 -->
<g id="edge12_Node000012_Node000013" class="edge">
<title>Node12&#45;&gt;Node13</title>
<g id="a_edge12_Node000012_Node000013"><a xlink:title=" ">
<path fill="none" stroke="#63b8ff" d="M710.81,-110.31C724.57,-109.83 738.76,-109.33 752.28,-108.86"/>
<polygon fill="#63b8ff" stroke="#63b8ff" points="710.75,-106.81 700.87,-110.66 710.99,-113.81 710.75,-106.81"/>
</a>
</g>
</g>
<!-- Node15 -->
<g id="Node000015" class="node">
<title>Node15</title>
<g id="a_Node000015"><a xlink:href="class_ogre_1_1_n_u_l_l_texture_gpu_render_target.html" target="_top" xlink:title=" ">
<polygon fill="white" stroke="#666666" points="700.62,-79.5 551.12,-79.5 551.12,-49 700.62,-49 700.62,-79.5"/>
<text text-anchor="start" x="559.12" y="-66" font-family="Helvetica,sans-Serif" font-size="10.00">Ogre::NULLTextureGpuRender</text>
<text text-anchor="middle" x="625.88" y="-54.75" font-family="Helvetica,sans-Serif" font-size="10.00">Target</text>
</a>
</g>
</g>
<!-- Node14&#45;&gt;Node15 -->
<g id="edge14_Node000014_Node000015" class="edge">
<title>Node14&#45;&gt;Node15</title>
<g id="a_edge14_Node000014_Node000015"><a xlink:title=" ">
<path fill="none" stroke="#63b8ff" d="M515.64,-67.9C527.22,-67.52 539.26,-67.11 550.94,-66.72"/>
<polygon fill="#63b8ff" stroke="#63b8ff" points="515.62,-64.4 505.75,-68.23 515.86,-71.4 515.62,-64.4"/>
</a>
</g>
</g>
<!-- Node17 -->
<g id="Node000017" class="node">
<title>Node17</title>
<g id="a_Node000017"><a xlink:href="class_ogre_1_1_vulkan_texture_gpu_render_target.html" target="_top" xlink:title=" ">
<polygon fill="white" stroke="#666666" points="702.12,-30.5 549.62,-30.5 549.62,0 702.12,0 702.12,-30.5"/>
<text text-anchor="start" x="557.62" y="-17" font-family="Helvetica,sans-Serif" font-size="10.00">Ogre::VulkanTextureGpuRender</text>
<text text-anchor="middle" x="625.88" y="-5.75" font-family="Helvetica,sans-Serif" font-size="10.00">Target</text>
</a>
</g>
</g>
<!-- Node16&#45;&gt;Node17 -->
<g id="edge16_Node000016_Node000017" class="edge">
<title>Node16&#45;&gt;Node17</title>
<g id="a_edge16_Node000016_Node000017"><a xlink:title=" ">
<path fill="none" stroke="#63b8ff" d="M517.04,-22.46C527.61,-21.76 538.54,-21.03 549.19,-20.31"/>
<polygon fill="#63b8ff" stroke="#63b8ff" points="516.98,-18.96 507.24,-23.12 517.45,-25.94 516.98,-18.96"/>
</a>
</g>
</g>
<!-- Node18 -->
<g id="Node000018" class="node">
<title>Node18</title>
<g id="a_Node000018"><a xlink:href="class_ogre_1_1_vulkan_texture_gpu_window.html" target="_top" xlink:title=" ">
<polygon fill="white" stroke="#666666" points="906,-24.88 749.75,-24.88 749.75,-5.62 906,-5.62 906,-24.88"/>
<text text-anchor="middle" x="827.88" y="-11.38" font-family="Helvetica,sans-Serif" font-size="10.00">Ogre::VulkanTextureGpuWindow</text>
</a>
</g>
</g>
<!-- Node17&#45;&gt;Node18 -->
<g id="edge17_Node000017_Node000018" class="edge">
<title>Node17&#45;&gt;Node18</title>
<g id="a_edge17_Node000017_Node000018"><a xlink:title=" ">
<path fill="none" stroke="#63b8ff" d="M713.78,-15.25C725.66,-15.25 737.8,-15.25 749.49,-15.25"/>
<polygon fill="#63b8ff" stroke="#63b8ff" points="714,-11.75 704,-15.25 714,-18.75 714,-11.75"/>
</a>
</g>
</g>
</g>
</svg>
