<?xml version="1.0" encoding="UTF-8" standalone="no"?>
<!DOCTYPE svg PUBLIC "-//W3C//DTD SVG 1.1//EN"
 "http://www.w3.org/Graphics/SVG/1.1/DTD/svg11.dtd">
<!-- Generated by graphviz version 9.0.0 (20230911.1827)
 -->
<!-- Title: Ogre::StagingTexture Pages: 1 -->
<svg width="604pt" height="138pt"
 viewBox="0.00 0.00 603.75 138.25" xmlns="http://www.w3.org/2000/svg" xmlns:xlink="http://www.w3.org/1999/xlink">
<g id="graph0" class="graph" transform="scale(1 1) rotate(0) translate(4 134.25)">
<title>Ogre::StagingTexture</title>
<!-- Node1 -->
<g id="Node000001" class="node">
<title>Node1</title>
<g id="a_Node000001"><a xlink:title="A StagingTexture is an intermediate texture that can be read and be written from both CPU &amp; GPU.">
<polygon fill="#999999" stroke="#666666" points="227.75,-92.25 121,-92.25 121,-73 227.75,-73 227.75,-92.25"/>
<text text-anchor="middle" x="174.38" y="-78.75" font-family="Helvetica,sans-Serif" font-size="10.00">Ogre::StagingTexture</text>
</a>
</g>
</g>
<!-- Node3 -->
<g id="Node000003" class="node">
<title>Node3</title>
<g id="a_Node000003"><a xlink:href="class_ogre_1_1_d3_d11_staging_texture.html" target="_top" xlink:title=" ">
<polygon fill="white" stroke="#666666" points="407.25,-111.25 271.25,-111.25 271.25,-92 407.25,-92 407.25,-111.25"/>
<text text-anchor="middle" x="339.25" y="-97.75" font-family="Helvetica,sans-Serif" font-size="10.00">Ogre::D3D11StagingTexture</text>
</a>
</g>
</g>
<!-- Node1&#45;&gt;Node3 -->
<g id="edge2_Node000001_Node000003" class="edge">
<title>Node1&#45;&gt;Node3</title>
<g id="a_edge2_Node000001_Node000003"><a xlink:title=" ">
<path fill="none" stroke="#63b8ff" d="M239.01,-90.05C249.51,-91.27 260.43,-92.55 271.03,-93.78"/>
<polygon fill="#63b8ff" stroke="#63b8ff" points="239.65,-86.6 229.31,-88.92 238.84,-93.55 239.65,-86.6"/>
</a>
</g>
</g>
<!-- Node4 -->
<g id="Node000004" class="node">
<title>Node4</title>
<g id="a_Node000004"><a xlink:href="class_ogre_1_1_staging_texture_buffer_impl.html" target="_top" xlink:title="This implementation can be used by all RenderSystem APIs except D3D11, which is why this implementati...">
<polygon fill="white" stroke="#666666" points="414.75,-74.25 263.75,-74.25 263.75,-55 414.75,-55 414.75,-74.25"/>
<text text-anchor="middle" x="339.25" y="-60.75" font-family="Helvetica,sans-Serif" font-size="10.00">Ogre::StagingTextureBufferImpl</text>
</a>
</g>
</g>
<!-- Node1&#45;&gt;Node4 -->
<g id="edge3_Node000001_Node000004" class="edge">
<title>Node1&#45;&gt;Node4</title>
<g id="a_edge3_Node000001_Node000004"><a xlink:title=" ">
<path fill="none" stroke="#63b8ff" d="M239.22,-75.57C247.14,-74.69 255.3,-73.79 263.38,-72.9"/>
<polygon fill="#63b8ff" stroke="#63b8ff" points="238.87,-72.09 229.31,-76.66 239.63,-79.04 238.87,-72.09"/>
</a>
</g>
</g>
<!-- Node2 -->
<g id="Node000002" class="node">
<title>Node2</title>
<g id="a_Node000002"><a xlink:href="class_ogre_1_1_allocated_object.html" target="_top" xlink:title="Superclass for all objects that wish to use custom memory allocators when their new / delete operator...">
<polygon fill="white" stroke="#666666" points="85,-92.25 0,-92.25 0,-73 85,-73 85,-92.25"/>
<text text-anchor="middle" x="42.5" y="-78.75" font-family="Helvetica,sans-Serif" font-size="10.00">RenderSysAlloc</text>
</a>
</g>
</g>
<!-- Node2&#45;&gt;Node1 -->
<g id="edge1_Node000001_Node000002" class="edge">
<title>Node2&#45;&gt;Node1</title>
<g id="a_edge1_Node000001_Node000002"><a xlink:title=" ">
<path fill="none" stroke="#63b8ff" d="M96.69,-82.62C104.62,-82.62 112.79,-82.62 120.7,-82.62"/>
<polygon fill="#63b8ff" stroke="#63b8ff" points="96.82,-79.13 86.82,-82.63 96.82,-86.13 96.82,-79.13"/>
</a>
</g>
</g>
<!-- Node5 -->
<g id="Node000005" class="node">
<title>Node5</title>
<g id="a_Node000005"><a xlink:href="class_ogre_1_1_g_l3_plus_staging_texture.html" target="_top" xlink:title=" ">
<polygon fill="white" stroke="#666666" points="595.75,-130.25 450.75,-130.25 450.75,-111 595.75,-111 595.75,-130.25"/>
<text text-anchor="middle" x="523.25" y="-116.75" font-family="Helvetica,sans-Serif" font-size="10.00">Ogre::GL3PlusStagingTexture</text>
</a>
</g>
</g>
<!-- Node4&#45;&gt;Node5 -->
<g id="edge4_Node000004_Node000005" class="edge">
<title>Node4&#45;&gt;Node5</title>
<g id="a_edge4_Node000004_Node000005"><a xlink:title=" ">
<path fill="none" stroke="#63b8ff" d="M401.08,-77.87C405.75,-79.33 410.36,-80.91 414.75,-82.62 431.8,-89.28 433.73,-95.89 450.75,-102.62 458.37,-105.64 466.64,-108.27 474.78,-110.52"/>
<polygon fill="#63b8ff" stroke="#63b8ff" points="402.15,-74.53 391.57,-75.12 400.21,-81.26 402.15,-74.53"/>
</a>
</g>
</g>
<!-- Node6 -->
<g id="Node000006" class="node">
<title>Node6</title>
<g id="a_Node000006"><a xlink:href="class_ogre_1_1_metal_staging_texture.html" target="_top" xlink:title=" ">
<polygon fill="white" stroke="#666666" points="588.62,-93.25 457.88,-93.25 457.88,-74 588.62,-74 588.62,-93.25"/>
<text text-anchor="middle" x="523.25" y="-79.75" font-family="Helvetica,sans-Serif" font-size="10.00">Ogre::MetalStagingTexture</text>
</a>
</g>
</g>
<!-- Node4&#45;&gt;Node6 -->
<g id="edge5_Node000004_Node000006" class="edge">
<title>Node4&#45;&gt;Node6</title>
<g id="a_edge5_Node000004_Node000006"><a xlink:title=" ">
<path fill="none" stroke="#63b8ff" d="M426.4,-73.62C436.91,-74.72 447.5,-75.82 457.61,-76.88"/>
<polygon fill="#63b8ff" stroke="#63b8ff" points="426.88,-70.15 416.57,-72.59 426.15,-77.11 426.88,-70.15"/>
</a>
</g>
</g>
<!-- Node7 -->
<g id="Node000007" class="node">
<title>Node7</title>
<g id="a_Node000007"><a xlink:href="class_ogre_1_1_n_u_l_l_staging_texture.html" target="_top" xlink:title=" ">
<polygon fill="white" stroke="#666666" points="590.12,-56.25 456.38,-56.25 456.38,-37 590.12,-37 590.12,-56.25"/>
<text text-anchor="middle" x="523.25" y="-42.75" font-family="Helvetica,sans-Serif" font-size="10.00">Ogre::NULLStagingTexture</text>
</a>
</g>
</g>
<!-- Node4&#45;&gt;Node7 -->
<g id="edge6_Node000004_Node000007" class="edge">
<title>Node4&#45;&gt;Node7</title>
<g id="a_edge6_Node000004_Node000007"><a xlink:title=" ">
<path fill="none" stroke="#63b8ff" d="M426.25,-56.12C436.21,-55.13 446.25,-54.14 455.89,-53.19"/>
<polygon fill="#63b8ff" stroke="#63b8ff" points="426.18,-52.61 416.57,-57.08 426.87,-59.58 426.18,-52.61"/>
</a>
</g>
</g>
<!-- Node8 -->
<g id="Node000008" class="node">
<title>Node8</title>
<g id="a_Node000008"><a xlink:href="class_ogre_1_1_vulkan_staging_texture.html" target="_top" xlink:title=" ">
<polygon fill="white" stroke="#666666" points="591.62,-19.25 454.88,-19.25 454.88,0 591.62,0 591.62,-19.25"/>
<text text-anchor="middle" x="523.25" y="-5.75" font-family="Helvetica,sans-Serif" font-size="10.00">Ogre::VulkanStagingTexture</text>
</a>
</g>
</g>
<!-- Node4&#45;&gt;Node8 -->
<g id="edge7_Node000004_Node000008" class="edge">
<title>Node4&#45;&gt;Node8</title>
<g id="a_edge7_Node000004_Node000008"><a xlink:title=" ">
<path fill="none" stroke="#63b8ff" d="M379.01,-50.84C400.1,-43.54 426.72,-34.66 450.75,-27.62 460.21,-24.86 470.45,-22.12 480.14,-19.66"/>
<polygon fill="#63b8ff" stroke="#63b8ff" points="377.94,-47.5 369.65,-54.1 380.25,-54.11 377.94,-47.5"/>
</a>
</g>
</g>
</g>
</svg>
