<?xml version="1.0" encoding="UTF-8" standalone="no"?>
<!DOCTYPE svg PUBLIC "-//W3C//DTD SVG 1.1//EN"
 "http://www.w3.org/Graphics/SVG/1.1/DTD/svg11.dtd">
<!-- Generated by graphviz version 7.0.5 (20221223.1930)
 -->
<!-- Title: Ogre::GpuResource Pages: 1 -->
<svg width="925pt" height="245pt"
 viewBox="0.00 0.00 925.00 244.50" xmlns="http://www.w3.org/2000/svg" xmlns:xlink="http://www.w3.org/1999/xlink">
<g id="graph0" class="graph" transform="scale(1 1) rotate(0) translate(4 240.5)">
<title>Ogre::GpuResource</title>
<!-- Node1 -->
<g id="node1" class="node">
<title>Node1</title>
<g id="a_node1"><a xlink:title=" ">
<polygon fill="#999999" stroke="#666666" points="217,-120.5 116,-120.5 116,-101.5 217,-101.5 217,-120.5"/>
<text text-anchor="middle" x="166.5" y="-108.5" font-family="Helvetica,sans-Serif" font-size="10.00">Ogre::GpuResource</text>
</a>
</g>
</g>
<!-- Node3 -->
<g id="node3" class="node">
<title>Node3</title>
<g id="a_node3"><a xlink:href="class_ogre_1_1_texture_gpu.html" target="_top" xlink:title=" ">
<polygon fill="white" stroke="#666666" points="345,-120.5 253,-120.5 253,-101.5 345,-101.5 345,-120.5"/>
<text text-anchor="middle" x="299" y="-108.5" font-family="Helvetica,sans-Serif" font-size="10.00">Ogre::TextureGpu</text>
</a>
</g>
</g>
<!-- Node1&#45;&gt;Node3 -->
<g id="edge2" class="edge">
<title>Node1&#45;&gt;Node3</title>
<path fill="none" stroke="#63b8ff" d="M228.59,-111C236.71,-111 244.92,-111 252.71,-111"/>
<polygon fill="#63b8ff" stroke="#63b8ff" points="228.72,-107.5 218.72,-111 228.72,-114.5 228.72,-107.5"/>
</g>
<!-- Node2 -->
<g id="node2" class="node">
<title>Node2</title>
<g id="a_node2"><a xlink:href="class_ogre_1_1_allocated_object.html" target="_top" xlink:title="Superclass for all objects that wish to use custom memory allocators when their new / delete operator...">
<polygon fill="white" stroke="#666666" points="80,-120.5 0,-120.5 0,-101.5 80,-101.5 80,-120.5"/>
<text text-anchor="middle" x="40" y="-108.5" font-family="Helvetica,sans-Serif" font-size="10.00">ResourceAlloc</text>
</a>
</g>
</g>
<!-- Node2&#45;&gt;Node1 -->
<g id="edge1" class="edge">
<title>Node2&#45;&gt;Node1</title>
<path fill="none" stroke="#63b8ff" d="M91.78,-111C99.73,-111 107.93,-111 115.85,-111"/>
<polygon fill="#63b8ff" stroke="#63b8ff" points="91.91,-107.5 81.91,-111 91.91,-114.5 91.91,-107.5"/>
</g>
<!-- Node4 -->
<g id="node4" class="node">
<title>Node4</title>
<g id="a_node4"><a xlink:href="class_ogre_1_1_d3_d11_texture_gpu.html" target="_top" xlink:title=" ">
<polygon fill="white" stroke="#666666" points="507.5,-214.5 385.5,-214.5 385.5,-195.5 507.5,-195.5 507.5,-214.5"/>
<text text-anchor="middle" x="446.5" y="-202.5" font-family="Helvetica,sans-Serif" font-size="10.00">Ogre::D3D11TextureGpu</text>
</a>
</g>
</g>
<!-- Node3&#45;&gt;Node4 -->
<g id="edge3" class="edge">
<title>Node3&#45;&gt;Node4</title>
<path fill="none" stroke="#63b8ff" d="M320.4,-127.92C336.37,-140.78 359.42,-158.49 381,-172 394.75,-180.61 411.03,-188.92 423.78,-195.05"/>
<polygon fill="#63b8ff" stroke="#63b8ff" points="323.02,-125.54 313.05,-121.94 318.6,-130.97 323.02,-125.54"/>
</g>
<!-- Node7 -->
<g id="node7" class="node">
<title>Node7</title>
<g id="a_node7"><a xlink:href="class_ogre_1_1_g_l3_plus_texture_gpu.html" target="_top" xlink:title=" ">
<polygon fill="white" stroke="#666666" points="512,-162.5 381,-162.5 381,-143.5 512,-143.5 512,-162.5"/>
<text text-anchor="middle" x="446.5" y="-150.5" font-family="Helvetica,sans-Serif" font-size="10.00">Ogre::GL3PlusTextureGpu</text>
</a>
</g>
</g>
<!-- Node3&#45;&gt;Node7 -->
<g id="edge6" class="edge">
<title>Node3&#45;&gt;Node7</title>
<path fill="none" stroke="#63b8ff" d="M345.49,-124.13C366.66,-130.24 391.42,-137.39 411.01,-143.05"/>
<polygon fill="#63b8ff" stroke="#63b8ff" points="346.51,-120.78 335.94,-121.37 344.57,-127.51 346.51,-120.78"/>
</g>
<!-- Node11 -->
<g id="node11" class="node">
<title>Node11</title>
<g id="a_node11"><a xlink:href="class_ogre_1_1_metal_texture_gpu.html" target="_top" xlink:title=" ">
<polygon fill="white" stroke="#666666" points="504.5,-120.5 388.5,-120.5 388.5,-101.5 504.5,-101.5 504.5,-120.5"/>
<text text-anchor="middle" x="446.5" y="-108.5" font-family="Helvetica,sans-Serif" font-size="10.00">Ogre::MetalTextureGpu</text>
</a>
</g>
</g>
<!-- Node3&#45;&gt;Node11 -->
<g id="edge10" class="edge">
<title>Node3&#45;&gt;Node11</title>
<path fill="none" stroke="#63b8ff" d="M356.68,-111C367.03,-111 377.84,-111 388.21,-111"/>
<polygon fill="#63b8ff" stroke="#63b8ff" points="356.75,-107.5 346.75,-111 356.75,-114.5 356.75,-107.5"/>
</g>
<!-- Node14 -->
<g id="node14" class="node">
<title>Node14</title>
<g id="a_node14"><a xlink:href="class_ogre_1_1_n_u_l_l_texture_gpu.html" target="_top" xlink:title=" ">
<polygon fill="white" stroke="#666666" points="506,-77.5 387,-77.5 387,-58.5 506,-58.5 506,-77.5"/>
<text text-anchor="middle" x="446.5" y="-65.5" font-family="Helvetica,sans-Serif" font-size="10.00">Ogre::NULLTextureGpu</text>
</a>
</g>
</g>
<!-- Node3&#45;&gt;Node14 -->
<g id="edge13" class="edge">
<title>Node3&#45;&gt;Node14</title>
<path fill="none" stroke="#63b8ff" d="M344.63,-97.81C366.23,-91.43 391.73,-83.89 411.68,-77.99"/>
<polygon fill="#63b8ff" stroke="#63b8ff" points="343.8,-94.41 335.2,-100.6 345.78,-101.12 343.8,-94.41"/>
</g>
<!-- Node16 -->
<g id="node16" class="node">
<title>Node16</title>
<g id="a_node16"><a xlink:href="class_ogre_1_1_vulkan_texture_gpu.html" target="_top" xlink:title=" ">
<polygon fill="white" stroke="#666666" points="507.5,-35.5 385.5,-35.5 385.5,-16.5 507.5,-16.5 507.5,-35.5"/>
<text text-anchor="middle" x="446.5" y="-23.5" font-family="Helvetica,sans-Serif" font-size="10.00">Ogre::VulkanTextureGpu</text>
</a>
</g>
</g>
<!-- Node3&#45;&gt;Node16 -->
<g id="edge15" class="edge">
<title>Node3&#45;&gt;Node16</title>
<path fill="none" stroke="#63b8ff" d="M318.54,-94.11C334.25,-80.49 357.85,-61.59 381,-49 390.5,-43.83 401.4,-39.43 411.5,-35.91"/>
<polygon fill="#63b8ff" stroke="#63b8ff" points="316.56,-91.18 311.4,-100.43 321.2,-96.42 316.56,-91.18"/>
</g>
<!-- Node5 -->
<g id="node5" class="node">
<title>Node5</title>
<g id="a_node5"><a xlink:href="class_ogre_1_1_d3_d11_texture_gpu_render_target.html" target="_top" xlink:title=" ">
<polygon fill="white" stroke="#666666" points="704.5,-235 552.5,-235 552.5,-205 704.5,-205 704.5,-235"/>
<text text-anchor="start" x="560.5" y="-223" font-family="Helvetica,sans-Serif" font-size="10.00">Ogre::D3D11TextureGpuRender</text>
<text text-anchor="middle" x="628.5" y="-212" font-family="Helvetica,sans-Serif" font-size="10.00">Target</text>
</a>
</g>
</g>
<!-- Node4&#45;&gt;Node5 -->
<g id="edge4" class="edge">
<title>Node4&#45;&gt;Node5</title>
<path fill="none" stroke="#63b8ff" d="M519.11,-210.97C529.99,-211.87 541.24,-212.81 552.19,-213.72"/>
<polygon fill="#63b8ff" stroke="#63b8ff" points="519.7,-207.5 509.45,-210.16 519.12,-214.48 519.7,-207.5"/>
</g>
<!-- Node6 -->
<g id="node6" class="node">
<title>Node6</title>
<g id="a_node6"><a xlink:href="class_ogre_1_1_d3_d11_texture_gpu_window.html" target="_top" xlink:title=" ">
<polygon fill="white" stroke="#666666" points="909,-236.5 753,-236.5 753,-217.5 909,-217.5 909,-236.5"/>
<text text-anchor="middle" x="831" y="-224.5" font-family="Helvetica,sans-Serif" font-size="10.00">Ogre::D3D11TextureGpuWindow</text>
</a>
</g>
</g>
<!-- Node5&#45;&gt;Node6 -->
<g id="edge5" class="edge">
<title>Node5&#45;&gt;Node6</title>
<path fill="none" stroke="#63b8ff" d="M715.87,-223.02C728.11,-223.44 740.63,-223.88 752.68,-224.3"/>
<polygon fill="#63b8ff" stroke="#63b8ff" points="716.36,-219.53 706.24,-222.68 716.11,-226.53 716.36,-219.53"/>
</g>
<!-- Node8 -->
<g id="node8" class="node">
<title>Node8</title>
<g id="a_node8"><a xlink:href="class_ogre_1_1_g_l3_plus_texture_gpu_render_target.html" target="_top" xlink:title=" ">
<polygon fill="white" stroke="#666666" points="709,-174 548,-174 548,-144 709,-144 709,-174"/>
<text text-anchor="start" x="556" y="-162" font-family="Helvetica,sans-Serif" font-size="10.00">Ogre::GL3PlusTextureGpuRender</text>
<text text-anchor="middle" x="628.5" y="-151" font-family="Helvetica,sans-Serif" font-size="10.00">Target</text>
</a>
</g>
</g>
<!-- Node7&#45;&gt;Node8 -->
<g id="edge7" class="edge">
<title>Node7&#45;&gt;Node8</title>
<path fill="none" stroke="#63b8ff" d="M523.84,-155.54C531.69,-155.81 539.67,-156.07 547.55,-156.34"/>
<polygon fill="#63b8ff" stroke="#63b8ff" points="524.11,-152.05 514,-155.22 523.87,-159.05 524.11,-152.05"/>
</g>
<!-- Node9 -->
<g id="node9" class="node">
<title>Node9</title>
<g id="a_node9"><a xlink:href="class_ogre_1_1_g_l3_plus_texture_gpu_headless_window.html" target="_top" xlink:title=" ">
<polygon fill="white" stroke="#666666" points="917,-199 745,-199 745,-169 917,-169 917,-199"/>
<text text-anchor="start" x="753" y="-187" font-family="Helvetica,sans-Serif" font-size="10.00">Ogre::GL3PlusTextureGpuHeadless</text>
<text text-anchor="middle" x="831" y="-176" font-family="Helvetica,sans-Serif" font-size="10.00">Window</text>
</a>
</g>
</g>
<!-- Node8&#45;&gt;Node9 -->
<g id="edge8" class="edge">
<title>Node8&#45;&gt;Node9</title>
<path fill="none" stroke="#63b8ff" d="M720.54,-170.35C728.53,-171.35 736.59,-172.35 744.53,-173.34"/>
<polygon fill="#63b8ff" stroke="#63b8ff" points="721.18,-166.9 710.82,-169.14 720.31,-173.85 721.18,-166.9"/>
</g>
<!-- Node10 -->
<g id="node10" class="node">
<title>Node10</title>
<g id="a_node10"><a xlink:href="class_ogre_1_1_g_l3_plus_texture_gpu_window.html" target="_top" xlink:title=" ">
<polygon fill="white" stroke="#666666" points="913.5,-150.5 748.5,-150.5 748.5,-131.5 913.5,-131.5 913.5,-150.5"/>
<text text-anchor="middle" x="831" y="-138.5" font-family="Helvetica,sans-Serif" font-size="10.00">Ogre::GL3PlusTextureGpuWindow</text>
</a>
</g>
</g>
<!-- Node8&#45;&gt;Node10 -->
<g id="edge9" class="edge">
<title>Node8&#45;&gt;Node10</title>
<path fill="none" stroke="#63b8ff" d="M720.49,-150.83C729.72,-150 739.04,-149.17 748.16,-148.35"/>
<polygon fill="#63b8ff" stroke="#63b8ff" points="720.47,-147.32 710.83,-151.7 721.1,-154.29 720.47,-147.32"/>
</g>
<!-- Node12 -->
<g id="node12" class="node">
<title>Node12</title>
<g id="a_node12"><a xlink:href="class_ogre_1_1_metal_texture_gpu_render_target.html" target="_top" xlink:title=" ">
<polygon fill="white" stroke="#666666" points="702,-126 555,-126 555,-96 702,-96 702,-126"/>
<text text-anchor="start" x="563" y="-114" font-family="Helvetica,sans-Serif" font-size="10.00">Ogre::MetalTextureGpuRender</text>
<text text-anchor="middle" x="628.5" y="-103" font-family="Helvetica,sans-Serif" font-size="10.00">Target</text>
</a>
</g>
</g>
<!-- Node11&#45;&gt;Node12 -->
<g id="edge11" class="edge">
<title>Node11&#45;&gt;Node12</title>
<path fill="none" stroke="#63b8ff" d="M516.31,-111C528.9,-111 542.08,-111 554.78,-111"/>
<polygon fill="#63b8ff" stroke="#63b8ff" points="516.46,-107.5 506.46,-111 516.46,-114.5 516.46,-107.5"/>
</g>
<!-- Node13 -->
<g id="node13" class="node">
<title>Node13</title>
<g id="a_node13"><a xlink:href="class_ogre_1_1_metal_texture_gpu_window.html" target="_top" xlink:title=" ">
<polygon fill="white" stroke="#666666" points="906.5,-113.5 755.5,-113.5 755.5,-94.5 906.5,-94.5 906.5,-113.5"/>
<text text-anchor="middle" x="831" y="-101.5" font-family="Helvetica,sans-Serif" font-size="10.00">Ogre::MetalTextureGpuWindow</text>
</a>
</g>
</g>
<!-- Node12&#45;&gt;Node13 -->
<g id="edge12" class="edge">
<title>Node12&#45;&gt;Node13</title>
<path fill="none" stroke="#63b8ff" d="M713.84,-108.06C727.53,-107.58 741.63,-107.09 755.08,-106.62"/>
<polygon fill="#63b8ff" stroke="#63b8ff" points="713.84,-104.55 703.96,-108.4 714.08,-111.55 713.84,-104.55"/>
</g>
<!-- Node15 -->
<g id="node15" class="node">
<title>Node15</title>
<g id="a_node15"><a xlink:href="class_ogre_1_1_n_u_l_l_texture_gpu_render_target.html" target="_top" xlink:title=" ">
<polygon fill="white" stroke="#666666" points="703.5,-78 553.5,-78 553.5,-48 703.5,-48 703.5,-78"/>
<text text-anchor="start" x="561.5" y="-66" font-family="Helvetica,sans-Serif" font-size="10.00">Ogre::NULLTextureGpuRender</text>
<text text-anchor="middle" x="628.5" y="-55" font-family="Helvetica,sans-Serif" font-size="10.00">Target</text>
</a>
</g>
</g>
<!-- Node14&#45;&gt;Node15 -->
<g id="edge14" class="edge">
<title>Node14&#45;&gt;Node15</title>
<path fill="none" stroke="#63b8ff" d="M517.88,-66.04C529.51,-65.72 541.59,-65.39 553.3,-65.06"/>
<polygon fill="#63b8ff" stroke="#63b8ff" points="517.85,-62.54 507.95,-66.32 518.05,-69.54 517.85,-62.54"/>
</g>
<!-- Node17 -->
<g id="node17" class="node">
<title>Node17</title>
<g id="a_node17"><a xlink:href="class_ogre_1_1_vulkan_texture_gpu_render_target.html" target="_top" xlink:title=" ">
<polygon fill="white" stroke="#666666" points="705,-30 552,-30 552,0 705,0 705,-30"/>
<text text-anchor="start" x="560" y="-18" font-family="Helvetica,sans-Serif" font-size="10.00">Ogre::VulkanTextureGpuRender</text>
<text text-anchor="middle" x="628.5" y="-7" font-family="Helvetica,sans-Serif" font-size="10.00">Target</text>
</a>
</g>
</g>
<!-- Node16&#45;&gt;Node17 -->
<g id="edge16" class="edge">
<title>Node16&#45;&gt;Node17</title>
<path fill="none" stroke="#63b8ff" d="M519.29,-21.61C529.9,-20.96 540.86,-20.29 551.56,-19.64"/>
<polygon fill="#63b8ff" stroke="#63b8ff" points="519.22,-18.11 509.45,-22.21 519.64,-25.1 519.22,-18.11"/>
</g>
<!-- Node18 -->
<g id="node18" class="node">
<title>Node18</title>
<g id="a_node18"><a xlink:href="class_ogre_1_1_vulkan_texture_gpu_window.html" target="_top" xlink:title=" ">
<polygon fill="white" stroke="#666666" points="909.5,-24.5 752.5,-24.5 752.5,-5.5 909.5,-5.5 909.5,-24.5"/>
<text text-anchor="middle" x="831" y="-12.5" font-family="Helvetica,sans-Serif" font-size="10.00">Ogre::VulkanTextureGpuWindow</text>
</a>
</g>
</g>
<!-- Node17&#45;&gt;Node18 -->
<g id="edge17" class="edge">
<title>Node17&#45;&gt;Node18</title>
<path fill="none" stroke="#63b8ff" d="M716.54,-15C728.37,-15 740.44,-15 752.09,-15"/>
<polygon fill="#63b8ff" stroke="#63b8ff" points="716.81,-11.5 706.81,-15 716.81,-18.5 716.81,-11.5"/>
</g>
</g>
</svg>
