<?xml version="1.0" encoding="UTF-8" standalone="no"?>
<!DOCTYPE svg PUBLIC "-//W3C//DTD SVG 1.1//EN"
 "http://www.w3.org/Graphics/SVG/1.1/DTD/svg11.dtd">
<!-- Generated by graphviz version 9.0.0 (20230911.1827)
 -->
<!-- Title: Ogre::VulkanRootLayout Pages: 1 -->
<svg width="196pt" height="83pt"
 viewBox="0.00 0.00 196.00 82.50" xmlns="http://www.w3.org/2000/svg" xmlns:xlink="http://www.w3.org/1999/xlink">
<g id="graph0" class="graph" transform="scale(1 1) rotate(0) translate(4 78.5)">
<title>Ogre::VulkanRootLayout</title>
<!-- Node1 -->
<g id="Node000001" class="node">
<title>Node1</title>
<g id="a_Node000001"><a xlink:title=" ">
<polygon fill="#999999" stroke="#666666" points="157,-19.25 36,-19.25 36,0 157,0 157,-19.25"/>
<text text-anchor="middle" x="96.5" y="-5.75" font-family="Helvetica,sans-Serif" font-size="10.00">Ogre::VulkanRootLayout</text>
</a>
</g>
</g>
<!-- Node2 -->
<g id="Node000002" class="node">
<title>Node2</title>
<g id="a_Node000002"><a xlink:href="class_ogre_1_1_root_layout.html" target="_top" xlink:title="The RootLayout class.">
<polygon fill="white" stroke="#666666" points="91,-74.5 0,-74.5 0,-55.25 91,-55.25 91,-74.5"/>
<text text-anchor="middle" x="45.5" y="-61" font-family="Helvetica,sans-Serif" font-size="10.00">Ogre::RootLayout</text>
</a>
</g>
</g>
<!-- Node2&#45;&gt;Node1 -->
<g id="edge1_Node000001_Node000002" class="edge">
<title>Node2&#45;&gt;Node1</title>
<g id="a_edge1_Node000001_Node000002"><a xlink:title=" ">
<path fill="none" stroke="#8b1a1a" d="M61.86,-46.79C70.52,-37.75 80.8,-27.02 87.9,-19.61"/>
<polygon fill="#8b1a1a" stroke="#8b1a1a" points="59.36,-44.35 54.97,-53.99 64.41,-49.19 59.36,-44.35"/>
</a>
</g>
</g>
<!-- Node3 -->
<g id="Node000003" class="node">
<title>Node3</title>
<g id="a_Node000003"><a xlink:href="class_ogre_1_1_allocated_object.html" target="_top" xlink:title="Superclass for all objects that wish to use custom memory allocators when their new / delete operator...">
<polygon fill="white" stroke="#666666" points="188,-74.5 109,-74.5 109,-55.25 188,-55.25 188,-74.5"/>
<text text-anchor="middle" x="148.5" y="-61" font-family="Helvetica,sans-Serif" font-size="10.00">ResourceAlloc</text>
</a>
</g>
</g>
<!-- Node3&#45;&gt;Node1 -->
<g id="edge2_Node000001_Node000003" class="edge">
<title>Node3&#45;&gt;Node1</title>
<g id="a_edge2_Node000001_Node000003"><a xlink:title=" ">
<path fill="none" stroke="#63b8ff" d="M132.09,-47.07C123.21,-37.98 112.59,-27.1 105.27,-19.61"/>
<polygon fill="#63b8ff" stroke="#63b8ff" points="129.37,-49.29 138.86,-54 134.37,-44.4 129.37,-49.29"/>
</a>
</g>
</g>
</g>
</svg>
