<?xml version="1.0" encoding="UTF-8" standalone="no"?>
<!DOCTYPE svg PUBLIC "-//W3C//DTD SVG 1.1//EN"
 "http://www.w3.org/Graphics/SVG/1.1/DTD/svg11.dtd">
<!-- Generated by graphviz version 7.0.5 (20221223.1930)
 -->
<!-- Title: Ogre::D3D11DeviceResource Pages: 1 -->
<svg width="753pt" height="538pt"
 viewBox="0.00 0.00 753.00 538.00" xmlns="http://www.w3.org/2000/svg" xmlns:xlink="http://www.w3.org/1999/xlink">
<g id="graph0" class="graph" transform="scale(1 1) rotate(0) translate(4 534)">
<title>Ogre::D3D11DeviceResource</title>
<!-- Node1 -->
<g id="node1" class="node">
<title>Node1</title>
<g id="a_node1"><a xlink:title="Represents a Direct3D rendering resource.">
<polygon fill="#999999" stroke="#666666" points="143,-259 0,-259 0,-240 143,-240 143,-259"/>
<text text-anchor="middle" x="71.5" y="-247" font-family="Helvetica,sans-Serif" font-size="10.00">Ogre::D3D11DeviceResource</text>
</a>
</g>
</g>
<!-- Node2 -->
<g id="node2" class="node">
<title>Node2</title>
<g id="a_node2"><a xlink:href="class_ogre_1_1_d3_d11_buffer_interface_base.html" target="_top" xlink:title="For D3D11, most (if not all) buffers, can be treated with the same code.">
<polygon fill="white" stroke="#666666" points="342.5,-512 184.5,-512 184.5,-493 342.5,-493 342.5,-512"/>
<text text-anchor="middle" x="263.5" y="-500" font-family="Helvetica,sans-Serif" font-size="10.00">Ogre::D3D11BufferInterfaceBase</text>
</a>
</g>
</g>
<!-- Node1&#45;&gt;Node2 -->
<g id="edge1" class="edge">
<title>Node1&#45;&gt;Node2</title>
<path fill="none" stroke="#8b1a1a" d="M75.64,-270.75C83.68,-317.28 109.53,-428.46 179,-484.5 182.92,-487.67 187.28,-490.31 191.88,-492.51"/>
<polygon fill="#8b1a1a" stroke="#8b1a1a" points="79.1,-270.26 74.06,-260.94 72.19,-271.37 79.1,-270.26"/>
</g>
<!-- Node5 -->
<g id="node5" class="node">
<title>Node5</title>
<g id="a_node5"><a xlink:href="class_ogre_1_1_d3_d11_dynamic_buffer.html" target="_top" xlink:title="D3D11 doesn&#39;t support mapping the same buffer twice even if the regions don&#39;t overlap.">
<polygon fill="white" stroke="#666666" points="330.5,-475 196.5,-475 196.5,-456 330.5,-456 330.5,-475"/>
<text text-anchor="middle" x="263.5" y="-463" font-family="Helvetica,sans-Serif" font-size="10.00">Ogre::D3D11DynamicBuffer</text>
</a>
</g>
</g>
<!-- Node1&#45;&gt;Node5 -->
<g id="edge4" class="edge">
<title>Node1&#45;&gt;Node5</title>
<path fill="none" stroke="#8b1a1a" d="M77.42,-270.17C88.27,-310.96 118.22,-401.79 179,-447.5 184.21,-451.42 190.1,-454.53 196.28,-456.98"/>
<polygon fill="#8b1a1a" stroke="#8b1a1a" points="80.87,-269.53 75.03,-260.7 74.08,-271.25 80.87,-269.53"/>
</g>
<!-- Node6 -->
<g id="node6" class="node">
<title>Node6</title>
<g id="a_node6"><a xlink:href="class_ogre_1_1_d3_d11_h_l_s_l_program.html" target="_top" xlink:title="Specialization of HighLevelGpuProgram to provide support for D3D11 High&#45;Level Shader Language (HLSL).">
<polygon fill="white" stroke="#666666" points="330.5,-438 196.5,-438 196.5,-419 330.5,-419 330.5,-438"/>
<text text-anchor="middle" x="263.5" y="-426" font-family="Helvetica,sans-Serif" font-size="10.00">Ogre::D3D11HLSLProgram</text>
</a>
</g>
</g>
<!-- Node1&#45;&gt;Node6 -->
<g id="edge5" class="edge">
<title>Node1&#45;&gt;Node6</title>
<path fill="none" stroke="#8b1a1a" d="M80.15,-269.91C94.18,-304.4 127.39,-373.92 179,-409.5 184.39,-413.21 190.39,-416.21 196.63,-418.63"/>
<polygon fill="#8b1a1a" stroke="#8b1a1a" points="83.45,-268.73 76.54,-260.7 76.93,-271.29 83.45,-268.73"/>
</g>
<!-- Node7 -->
<g id="node7" class="node">
<title>Node7</title>
<g id="a_node7"><a xlink:href="class_ogre_1_1_d3_d11_read_only_buffer_packed.html" target="_top" xlink:title=" ">
<polygon fill="white" stroke="#666666" points="333,-400.5 194,-400.5 194,-370.5 333,-370.5 333,-400.5"/>
<text text-anchor="start" x="202" y="-388.5" font-family="Helvetica,sans-Serif" font-size="10.00">Ogre::D3D11ReadOnlyBuffer</text>
<text text-anchor="middle" x="263.5" y="-377.5" font-family="Helvetica,sans-Serif" font-size="10.00">Packed</text>
</a>
</g>
</g>
<!-- Node1&#45;&gt;Node7 -->
<g id="edge6" class="edge">
<title>Node1&#45;&gt;Node7</title>
<path fill="none" stroke="#8b1a1a" d="M85.44,-268.39C103.51,-293.36 138.67,-337.04 179,-361.5 184.42,-364.79 190.3,-367.64 196.36,-370.11"/>
<polygon fill="#8b1a1a" stroke="#8b1a1a" points="88.47,-266.62 79.85,-260.47 82.76,-270.66 88.47,-266.62"/>
</g>
<!-- Node8 -->
<g id="node8" class="node">
<title>Node8</title>
<g id="a_node8"><a xlink:href="class_ogre_1_1_d3_d11_render_pass_descriptor.html" target="_top" xlink:title="D3D11 will share groups of ID3D11RenderTargetView all D3D11RenderPassDescriptor that share the same R...">
<polygon fill="white" stroke="#666666" points="348,-352 179,-352 179,-333 348,-333 348,-352"/>
<text text-anchor="middle" x="263.5" y="-340" font-family="Helvetica,sans-Serif" font-size="10.00">Ogre::D3D11RenderPassDescriptor</text>
</a>
</g>
</g>
<!-- Node1&#45;&gt;Node8 -->
<g id="edge7" class="edge">
<title>Node1&#45;&gt;Node8</title>
<path fill="none" stroke="#8b1a1a" d="M92,-266.92C112.3,-284.13 145.74,-309.93 179,-324.5 186.33,-327.71 194.29,-330.37 202.28,-332.57"/>
<polygon fill="#8b1a1a" stroke="#8b1a1a" points="94.39,-264.36 84.54,-260.46 89.81,-269.65 94.39,-264.36"/>
</g>
<!-- Node9 -->
<g id="node9" class="node">
<title>Node9</title>
<g id="a_node9"><a xlink:href="class_ogre_1_1_d3_d11_render_texture.html" target="_top" xlink:title="RenderTexture implementation for D3D11.">
<polygon fill="white" stroke="#666666" points="330.5,-315 196.5,-315 196.5,-296 330.5,-296 330.5,-315"/>
<text text-anchor="middle" x="263.5" y="-303" font-family="Helvetica,sans-Serif" font-size="10.00">Ogre::D3D11RenderTexture</text>
</a>
</g>
</g>
<!-- Node1&#45;&gt;Node9 -->
<g id="edge8" class="edge">
<title>Node1&#45;&gt;Node9</title>
<path fill="none" stroke="#8b1a1a" d="M107.91,-263.45C128.46,-271.2 154.95,-280.65 179,-287.5 189.27,-290.43 200.37,-293.13 211.01,-295.5"/>
<polygon fill="#8b1a1a" stroke="#8b1a1a" points="109.17,-260.18 98.58,-259.88 106.67,-266.72 109.17,-260.18"/>
</g>
<!-- Node10 -->
<g id="node10" class="node">
<title>Node10</title>
<g id="a_node10"><a xlink:href="class_ogre_1_1_d3_d11_render_window_base.html" target="_top" xlink:title=" ">
<polygon fill="white" stroke="#666666" points="343,-278 184,-278 184,-259 343,-259 343,-278"/>
<text text-anchor="middle" x="263.5" y="-266" font-family="Helvetica,sans-Serif" font-size="10.00">Ogre::D3D11RenderWindowBase</text>
</a>
</g>
</g>
<!-- Node1&#45;&gt;Node10 -->
<g id="edge9" class="edge">
<title>Node1&#45;&gt;Node10</title>
<path fill="none" stroke="#8b1a1a" d="M154.51,-257.7C164.2,-258.67 174.07,-259.66 183.71,-260.62"/>
<polygon fill="#8b1a1a" stroke="#8b1a1a" points="155.05,-254.24 144.76,-256.73 154.36,-261.2 155.05,-254.24"/>
</g>
<!-- Node12 -->
<g id="node12" class="node">
<title>Node12</title>
<g id="a_node12"><a xlink:href="class_ogre_1_1_d3_d11_staging_buffer.html" target="_top" xlink:title="NOTE FOR D3D12 PORTING: The GL3Plus implementation should be used as reference, since it is much lowe...">
<polygon fill="white" stroke="#666666" points="328.5,-241 198.5,-241 198.5,-222 328.5,-222 328.5,-241"/>
<text text-anchor="middle" x="263.5" y="-229" font-family="Helvetica,sans-Serif" font-size="10.00">Ogre::D3D11StagingBuffer</text>
</a>
</g>
</g>
<!-- Node1&#45;&gt;Node12 -->
<g id="edge11" class="edge">
<title>Node1&#45;&gt;Node12</title>
<path fill="none" stroke="#8b1a1a" d="M154.37,-241.74C169.06,-240.35 184.18,-238.92 198.28,-237.58"/>
<polygon fill="#8b1a1a" stroke="#8b1a1a" points="154.38,-238.23 144.76,-242.65 155.04,-245.2 154.38,-238.23"/>
</g>
<!-- Node13 -->
<g id="node13" class="node">
<title>Node13</title>
<g id="a_node13"><a xlink:href="class_ogre_1_1_d3_d11_tex_buffer_packed.html" target="_top" xlink:title=" ">
<polygon fill="white" stroke="#666666" points="336.5,-204 190.5,-204 190.5,-185 336.5,-185 336.5,-204"/>
<text text-anchor="middle" x="263.5" y="-192" font-family="Helvetica,sans-Serif" font-size="10.00">Ogre::D3D11TexBufferPacked</text>
</a>
</g>
</g>
<!-- Node1&#45;&gt;Node13 -->
<g id="edge12" class="edge">
<title>Node1&#45;&gt;Node13</title>
<path fill="none" stroke="#8b1a1a" d="M110.07,-235.75C130.33,-228.61 155.86,-220.03 179,-213.5 190.59,-210.23 203.21,-207.13 215.04,-204.42"/>
<polygon fill="#8b1a1a" stroke="#8b1a1a" points="109.07,-232.39 100.83,-239.05 111.42,-238.99 109.07,-232.39"/>
</g>
<!-- Node14 -->
<g id="node14" class="node">
<title>Node14</title>
<g id="a_node14"><a xlink:href="class_ogre_1_1_d3_d11_texture.html" target="_top" xlink:title=" ">
<polygon fill="white" stroke="#666666" points="315.5,-167 211.5,-167 211.5,-148 315.5,-148 315.5,-167"/>
<text text-anchor="middle" x="263.5" y="-155" font-family="Helvetica,sans-Serif" font-size="10.00">Ogre::D3D11Texture</text>
</a>
</g>
</g>
<!-- Node1&#45;&gt;Node14 -->
<g id="edge13" class="edge">
<title>Node1&#45;&gt;Node14</title>
<path fill="none" stroke="#8b1a1a" d="M92.45,-232.37C112.88,-215.7 146.2,-190.85 179,-176.5 189.08,-172.09 200.31,-168.64 211.18,-165.97"/>
<polygon fill="#8b1a1a" stroke="#8b1a1a" points="90.37,-229.55 84.93,-238.64 94.85,-234.93 90.37,-229.55"/>
</g>
<!-- Node17 -->
<g id="node17" class="node">
<title>Node17</title>
<g id="a_node17"><a xlink:href="class_ogre_1_1_d3_d11_texture_gpu.html" target="_top" xlink:title=" ">
<polygon fill="white" stroke="#666666" points="324.5,-130 202.5,-130 202.5,-111 324.5,-111 324.5,-130"/>
<text text-anchor="middle" x="263.5" y="-118" font-family="Helvetica,sans-Serif" font-size="10.00">Ogre::D3D11TextureGpu</text>
</a>
</g>
</g>
<!-- Node1&#45;&gt;Node17 -->
<g id="edge16" class="edge">
<title>Node1&#45;&gt;Node17</title>
<path fill="none" stroke="#8b1a1a" d="M85.32,-230.62C103.27,-205.73 138.28,-162.42 179,-139.5 186.13,-135.49 194.04,-132.33 202.08,-129.83"/>
<polygon fill="#8b1a1a" stroke="#8b1a1a" points="82.66,-228.32 79.78,-238.52 88.39,-232.34 82.66,-228.32"/>
</g>
<!-- Node20 -->
<g id="node20" class="node">
<title>Node20</title>
<g id="a_node20"><a xlink:href="class_ogre_1_1_d3_d11_uav_buffer_packed.html" target="_top" xlink:title=" ">
<polygon fill="white" stroke="#666666" points="337.5,-93 189.5,-93 189.5,-74 337.5,-74 337.5,-93"/>
<text text-anchor="middle" x="263.5" y="-81" font-family="Helvetica,sans-Serif" font-size="10.00">Ogre::D3D11UavBufferPacked</text>
</a>
</g>
</g>
<!-- Node1&#45;&gt;Node20 -->
<g id="edge19" class="edge">
<title>Node1&#45;&gt;Node20</title>
<path fill="none" stroke="#8b1a1a" d="M81.25,-229.4C96.31,-197.26 130.29,-134.68 179,-102.5 184.58,-98.81 190.78,-95.83 197.21,-93.43"/>
<polygon fill="#8b1a1a" stroke="#8b1a1a" points="78.12,-227.81 77.18,-238.37 84.5,-230.7 78.12,-227.81"/>
</g>
<!-- Node21 -->
<g id="node21" class="node">
<title>Node21</title>
<g id="a_node21"><a xlink:href="class_ogre_1_1_d3_d11_window.html" target="_top" xlink:title=" ">
<polygon fill="white" stroke="#666666" points="316.5,-56 210.5,-56 210.5,-37 316.5,-37 316.5,-56"/>
<text text-anchor="middle" x="263.5" y="-44" font-family="Helvetica,sans-Serif" font-size="10.00">Ogre::D3D11Window</text>
</a>
</g>
</g>
<!-- Node1&#45;&gt;Node21 -->
<g id="edge20" class="edge">
<title>Node1&#45;&gt;Node21</title>
<path fill="none" stroke="#8b1a1a" d="M78.33,-228.58C90.29,-189.71 121.46,-106.49 179,-64.5 188.1,-57.86 199.16,-53.57 210.21,-50.83"/>
<polygon fill="#8b1a1a" stroke="#8b1a1a" points="75,-227.5 75.53,-238.08 81.71,-229.47 75,-227.5"/>
</g>
<!-- Node23 -->
<g id="node23" class="node">
<title>Node23</title>
<g id="a_node23"><a xlink:href="class_ogre_1_1v1_1_1_d3_d11_hardware_buffer.html" target="_top" xlink:title="Base implementation of a D3D11 buffer, dealing with all the common aspects.">
<polygon fill="white" stroke="#666666" points="340.5,-19 186.5,-19 186.5,0 340.5,0 340.5,-19"/>
<text text-anchor="middle" x="263.5" y="-7" font-family="Helvetica,sans-Serif" font-size="10.00">Ogre::v1::D3D11HardwareBuffer</text>
</a>
</g>
</g>
<!-- Node1&#45;&gt;Node23 -->
<g id="edge22" class="edge">
<title>Node1&#45;&gt;Node23</title>
<path fill="none" stroke="#8b1a1a" d="M76.2,-228.5C85.2,-183.98 112.57,-79.9 179,-27.5 183.08,-24.29 187.6,-21.61 192.37,-19.4"/>
<polygon fill="#8b1a1a" stroke="#8b1a1a" points="72.8,-227.65 74.37,-238.13 79.68,-228.95 72.8,-227.65"/>
</g>
<!-- Node3 -->
<g id="node3" class="node">
<title>Node3</title>
<g id="a_node3"><a xlink:href="class_ogre_1_1_d3_d11_buffer_interface.html" target="_top" xlink:title="For D3D11, most (if not all) buffers, can be treated with the same code.">
<polygon fill="white" stroke="#666666" points="536,-530 401,-530 401,-511 536,-511 536,-530"/>
<text text-anchor="middle" x="468.5" y="-518" font-family="Helvetica,sans-Serif" font-size="10.00">Ogre::D3D11BufferInterface</text>
</a>
</g>
</g>
<!-- Node2&#45;&gt;Node3 -->
<g id="edge2" class="edge">
<title>Node2&#45;&gt;Node3</title>
<path fill="none" stroke="#63b8ff" d="M354.27,-510.46C369.9,-511.85 385.9,-513.26 400.76,-514.58"/>
<polygon fill="#63b8ff" stroke="#63b8ff" points="354.76,-506.99 344.49,-509.59 354.14,-513.96 354.76,-506.99"/>
</g>
<!-- Node4 -->
<g id="node4" class="node">
<title>Node4</title>
<g id="a_node4"><a xlink:href="class_ogre_1_1_d3_d11_compat_buffer_interface.html" target="_top" xlink:title="In D3D11, const buffers can&#39;t be bound by offset.">
<polygon fill="white" stroke="#666666" points="553,-493 384,-493 384,-474 553,-474 553,-493"/>
<text text-anchor="middle" x="468.5" y="-481" font-family="Helvetica,sans-Serif" font-size="10.00">Ogre::D3D11CompatBufferInterface</text>
</a>
</g>
</g>
<!-- Node2&#45;&gt;Node4 -->
<g id="edge3" class="edge">
<title>Node2&#45;&gt;Node4</title>
<path fill="none" stroke="#63b8ff" d="M354.3,-494.1C364.01,-493.19 373.87,-492.26 383.5,-491.36"/>
<polygon fill="#63b8ff" stroke="#63b8ff" points="354.12,-490.6 344.49,-495.01 354.77,-497.57 354.12,-490.6"/>
</g>
<!-- Node11 -->
<g id="node11" class="node">
<title>Node11</title>
<g id="a_node11"><a xlink:href="class_ogre_1_1_d3_d11_render_window_swap_chain_based.html" target="_top" xlink:title=" ">
<polygon fill="white" stroke="#666666" points="549,-283.5 388,-283.5 388,-253.5 549,-253.5 549,-283.5"/>
<text text-anchor="start" x="396" y="-271.5" font-family="Helvetica,sans-Serif" font-size="10.00">Ogre::D3D11RenderWindowSwap</text>
<text text-anchor="middle" x="468.5" y="-260.5" font-family="Helvetica,sans-Serif" font-size="10.00">ChainBased</text>
</a>
</g>
</g>
<!-- Node10&#45;&gt;Node11 -->
<g id="edge10" class="edge">
<title>Node10&#45;&gt;Node11</title>
<path fill="none" stroke="#63b8ff" d="M354.68,-268.5C365.7,-268.5 376.91,-268.5 387.76,-268.5"/>
<polygon fill="#63b8ff" stroke="#63b8ff" points="354.79,-265 344.79,-268.5 354.79,-272 354.79,-265"/>
</g>
<!-- Node15 -->
<g id="node15" class="node">
<title>Node15</title>
<g id="a_node15"><a xlink:href="class_ogre_1_1_d3_d11_depth_texture.html" target="_top" xlink:title=" ">
<polygon fill="white" stroke="#666666" points="533,-204 404,-204 404,-185 533,-185 533,-204"/>
<text text-anchor="middle" x="468.5" y="-192" font-family="Helvetica,sans-Serif" font-size="10.00">Ogre::D3D11DepthTexture</text>
</a>
</g>
</g>
<!-- Node14&#45;&gt;Node15 -->
<g id="edge14" class="edge">
<title>Node14&#45;&gt;Node15</title>
<path fill="none" stroke="#63b8ff" d="M327.05,-168.9C354.49,-173.9 386.4,-179.72 412.87,-184.54"/>
<polygon fill="#63b8ff" stroke="#63b8ff" points="327.94,-165.51 317.48,-167.16 326.69,-172.39 327.94,-165.51"/>
</g>
<!-- Node16 -->
<g id="node16" class="node">
<title>Node16</title>
<g id="a_node16"><a xlink:href="class_ogre_1_1_d3_d11_null_texture.html" target="_top" xlink:title=" ">
<polygon fill="white" stroke="#666666" points="529,-167 408,-167 408,-148 529,-148 529,-167"/>
<text text-anchor="middle" x="468.5" y="-155" font-family="Helvetica,sans-Serif" font-size="10.00">Ogre::D3D11NullTexture</text>
</a>
</g>
</g>
<!-- Node14&#45;&gt;Node16 -->
<g id="edge15" class="edge">
<title>Node14&#45;&gt;Node16</title>
<path fill="none" stroke="#63b8ff" d="M327.45,-157.5C353.06,-157.5 382.52,-157.5 407.79,-157.5"/>
<polygon fill="#63b8ff" stroke="#63b8ff" points="327.5,-154 317.5,-157.5 327.5,-161 327.5,-154"/>
</g>
<!-- Node18 -->
<g id="node18" class="node">
<title>Node18</title>
<g id="a_node18"><a xlink:href="class_ogre_1_1_d3_d11_texture_gpu_render_target.html" target="_top" xlink:title=" ">
<polygon fill="white" stroke="#666666" points="544.5,-129.5 392.5,-129.5 392.5,-99.5 544.5,-99.5 544.5,-129.5"/>
<text text-anchor="start" x="400.5" y="-117.5" font-family="Helvetica,sans-Serif" font-size="10.00">Ogre::D3D11TextureGpuRender</text>
<text text-anchor="middle" x="468.5" y="-106.5" font-family="Helvetica,sans-Serif" font-size="10.00">Target</text>
</a>
</g>
</g>
<!-- Node17&#45;&gt;Node18 -->
<g id="edge17" class="edge">
<title>Node17&#45;&gt;Node18</title>
<path fill="none" stroke="#63b8ff" d="M336.25,-118.38C354.4,-117.84 373.94,-117.27 392.26,-116.72"/>
<polygon fill="#63b8ff" stroke="#63b8ff" points="336.26,-114.88 326.37,-118.67 336.47,-121.87 336.26,-114.88"/>
</g>
<!-- Node19 -->
<g id="node19" class="node">
<title>Node19</title>
<g id="a_node19"><a xlink:href="class_ogre_1_1_d3_d11_texture_gpu_window.html" target="_top" xlink:title=" ">
<polygon fill="white" stroke="#666666" points="745,-124 589,-124 589,-105 745,-105 745,-124"/>
<text text-anchor="middle" x="667" y="-112" font-family="Helvetica,sans-Serif" font-size="10.00">Ogre::D3D11TextureGpuWindow</text>
</a>
</g>
</g>
<!-- Node18&#45;&gt;Node19 -->
<g id="edge18" class="edge">
<title>Node18&#45;&gt;Node19</title>
<path fill="none" stroke="#63b8ff" d="M556.41,-114.5C567.1,-114.5 577.98,-114.5 588.51,-114.5"/>
<polygon fill="#63b8ff" stroke="#63b8ff" points="556.42,-111 546.42,-114.5 556.42,-118 556.42,-111"/>
</g>
<!-- Node22 -->
<g id="node22" class="node">
<title>Node22</title>
<g id="a_node22"><a xlink:href="class_ogre_1_1_d3_d11_window_swap_chain_based.html" target="_top" xlink:title=" ">
<polygon fill="white" stroke="#666666" points="546,-61.5 391,-61.5 391,-31.5 546,-31.5 546,-61.5"/>
<text text-anchor="start" x="399" y="-49.5" font-family="Helvetica,sans-Serif" font-size="10.00">Ogre::D3D11WindowSwapChain</text>
<text text-anchor="middle" x="468.5" y="-38.5" font-family="Helvetica,sans-Serif" font-size="10.00">Based</text>
</a>
</g>
</g>
<!-- Node21&#45;&gt;Node22 -->
<g id="edge21" class="edge">
<title>Node21&#45;&gt;Node22</title>
<path fill="none" stroke="#63b8ff" d="M328.14,-46.5C347.91,-46.5 369.93,-46.5 390.51,-46.5"/>
<polygon fill="#63b8ff" stroke="#63b8ff" points="328.29,-43 318.29,-46.5 328.29,-50 328.29,-43"/>
</g>
</g>
</svg>
