<?xml version="1.0" encoding="UTF-8" standalone="no"?>
<!DOCTYPE svg PUBLIC "-//W3C//DTD SVG 1.1//EN"
 "http://www.w3.org/Graphics/SVG/1.1/DTD/svg11.dtd">
<!-- Generated by graphviz version 9.0.0 (20230911.1827)
 -->
<!-- Title: Ogre::RenderSystem Pages: 1 -->
<svg width="414pt" height="249pt"
 viewBox="0.00 0.00 413.75 249.25" xmlns="http://www.w3.org/2000/svg" xmlns:xlink="http://www.w3.org/1999/xlink">
<g id="graph0" class="graph" transform="scale(1 1) rotate(0) translate(4 245.25)">
<title>Ogre::RenderSystem</title>
<!-- Node1 -->
<g id="Node000001" class="node">
<title>Node1</title>
<g id="a_Node000001"><a xlink:title="Defines the functionality of a 3D API.">
<polygon fill="#999999" stroke="#666666" points="226.25,-130.25 121,-130.25 121,-111 226.25,-111 226.25,-130.25"/>
<text text-anchor="middle" x="173.62" y="-116.75" font-family="Helvetica,sans-Serif" font-size="10.00">Ogre::RenderSystem</text>
</a>
</g>
</g>
<!-- Node3 -->
<g id="Node000003" class="node">
<title>Node3</title>
<g id="a_Node000003"><a xlink:href="class_ogre_1_1_d3_d11_render_system.html" target="_top" xlink:title="Implementation of DirectX11 as a rendering system.">
<polygon fill="white" stroke="#666666" points="401.25,-241.25 266.75,-241.25 266.75,-222 401.25,-222 401.25,-241.25"/>
<text text-anchor="middle" x="334" y="-227.75" font-family="Helvetica,sans-Serif" font-size="10.00">Ogre::D3D11RenderSystem</text>
</a>
</g>
</g>
<!-- Node1&#45;&gt;Node3 -->
<g id="edge2_Node000001_Node000003" class="edge">
<title>Node1&#45;&gt;Node3</title>
<g id="a_edge2_Node000001_Node000003"><a xlink:title=" ">
<path fill="none" stroke="#63b8ff" d="M187.54,-139.82C202.86,-161.09 230.38,-194.86 262.25,-213.62 267.6,-216.78 273.5,-219.38 279.53,-221.53"/>
<polygon fill="#63b8ff" stroke="#63b8ff" points="190.49,-137.94 181.9,-131.75 184.75,-141.95 190.49,-137.94"/>
</a>
</g>
</g>
<!-- Node4 -->
<g id="Node000004" class="node">
<title>Node4</title>
<g id="a_Node000004"><a xlink:href="class_ogre_1_1_d3_d9_render_system.html" target="_top" xlink:title="Implementation of DirectX9 as a rendering system.">
<polygon fill="white" stroke="#666666" points="398.62,-204.25 269.38,-204.25 269.38,-185 398.62,-185 398.62,-204.25"/>
<text text-anchor="middle" x="334" y="-190.75" font-family="Helvetica,sans-Serif" font-size="10.00">Ogre::D3D9RenderSystem</text>
</a>
</g>
</g>
<!-- Node1&#45;&gt;Node4 -->
<g id="edge3_Node000001_Node000004" class="edge">
<title>Node1&#45;&gt;Node4</title>
<g id="a_edge3_Node000001_Node000004"><a xlink:title=" ">
<path fill="none" stroke="#63b8ff" d="M196.35,-137.31C213.44,-149.72 238.29,-166.24 262.25,-176.62 269.34,-179.7 277.07,-182.33 284.73,-184.55"/>
<polygon fill="#63b8ff" stroke="#63b8ff" points="198.58,-134.6 188.46,-131.45 194.41,-140.22 198.58,-134.6"/>
</a>
</g>
</g>
<!-- Node5 -->
<g id="Node000005" class="node">
<title>Node5</title>
<g id="a_Node000005"><a xlink:href="class_ogre_1_1_g_l3_plus_render_system.html" target="_top" xlink:title="Implementation of GL 3 as a rendering system.">
<polygon fill="white" stroke="#666666" points="405.75,-167.25 262.25,-167.25 262.25,-148 405.75,-148 405.75,-167.25"/>
<text text-anchor="middle" x="334" y="-153.75" font-family="Helvetica,sans-Serif" font-size="10.00">Ogre::GL3PlusRenderSystem</text>
</a>
</g>
</g>
<!-- Node1&#45;&gt;Node5 -->
<g id="edge4_Node000001_Node000005" class="edge">
<title>Node1&#45;&gt;Node5</title>
<g id="a_edge4_Node000001_Node000005"><a xlink:title=" ">
<path fill="none" stroke="#63b8ff" d="M228.97,-133.32C248.83,-137.96 271.01,-143.14 289.78,-147.53"/>
<polygon fill="#63b8ff" stroke="#63b8ff" points="229.91,-129.95 219.38,-131.08 228.32,-136.76 229.91,-129.95"/>
</a>
</g>
</g>
<!-- Node6 -->
<g id="Node000006" class="node">
<title>Node6</title>
<g id="a_Node000006"><a xlink:href="class_ogre_1_1_g_l_e_s2_render_system.html" target="_top" xlink:title="Implementation of GL ES 2.x as a rendering system.">
<polygon fill="white" stroke="#666666" points="402.38,-130.25 265.62,-130.25 265.62,-111 402.38,-111 402.38,-130.25"/>
<text text-anchor="middle" x="334" y="-116.75" font-family="Helvetica,sans-Serif" font-size="10.00">Ogre::GLES2RenderSystem</text>
</a>
</g>
</g>
<!-- Node1&#45;&gt;Node6 -->
<g id="edge5_Node000001_Node000006" class="edge">
<title>Node1&#45;&gt;Node6</title>
<g id="a_edge5_Node000001_Node000006"><a xlink:title=" ">
<path fill="none" stroke="#63b8ff" d="M237.72,-120.62C246.74,-120.62 256.06,-120.62 265.17,-120.62"/>
<polygon fill="#63b8ff" stroke="#63b8ff" points="238,-117.13 228,-120.63 238,-124.13 238,-117.13"/>
</a>
</g>
</g>
<!-- Node7 -->
<g id="Node000007" class="node">
<title>Node7</title>
<g id="a_Node000007"><a xlink:href="class_ogre_1_1_metal_render_system.html" target="_top" xlink:title="Implementation of Metal as a rendering system.">
<polygon fill="white" stroke="#666666" points="398.62,-93.25 269.38,-93.25 269.38,-74 398.62,-74 398.62,-93.25"/>
<text text-anchor="middle" x="334" y="-79.75" font-family="Helvetica,sans-Serif" font-size="10.00">Ogre::MetalRenderSystem</text>
</a>
</g>
</g>
<!-- Node1&#45;&gt;Node7 -->
<g id="edge6_Node000001_Node000007" class="edge">
<title>Node1&#45;&gt;Node7</title>
<g id="a_edge6_Node000001_Node000007"><a xlink:title=" ">
<path fill="none" stroke="#63b8ff" d="M228.97,-107.93C248.83,-103.29 271.01,-98.11 289.78,-93.72"/>
<polygon fill="#63b8ff" stroke="#63b8ff" points="228.32,-104.49 219.38,-110.17 229.91,-111.3 228.32,-104.49"/>
</a>
</g>
</g>
<!-- Node8 -->
<g id="Node000008" class="node">
<title>Node8</title>
<g id="a_Node000008"><a xlink:href="class_ogre_1_1_n_u_l_l_render_system.html" target="_top" xlink:title="Implementation of NULL as a rendering system.">
<polygon fill="white" stroke="#666666" points="400.12,-56.25 267.88,-56.25 267.88,-37 400.12,-37 400.12,-56.25"/>
<text text-anchor="middle" x="334" y="-42.75" font-family="Helvetica,sans-Serif" font-size="10.00">Ogre::NULLRenderSystem</text>
</a>
</g>
</g>
<!-- Node1&#45;&gt;Node8 -->
<g id="edge7_Node000001_Node000008" class="edge">
<title>Node1&#45;&gt;Node8</title>
<g id="a_edge7_Node000001_Node000008"><a xlink:title=" ">
<path fill="none" stroke="#63b8ff" d="M196.35,-103.94C213.44,-91.53 238.29,-75.01 262.25,-64.62 269.34,-61.55 277.07,-58.92 284.73,-56.7"/>
<polygon fill="#63b8ff" stroke="#63b8ff" points="194.41,-101.03 188.46,-109.8 198.58,-106.65 194.41,-101.03"/>
</a>
</g>
</g>
<!-- Node9 -->
<g id="Node000009" class="node">
<title>Node9</title>
<g id="a_Node000009"><a xlink:href="class_ogre_1_1_vulkan_render_system.html" target="_top" xlink:title="Implementation of Vulkan as a rendering system.">
<polygon fill="white" stroke="#666666" points="401.62,-19.25 266.38,-19.25 266.38,0 401.62,0 401.62,-19.25"/>
<text text-anchor="middle" x="334" y="-5.75" font-family="Helvetica,sans-Serif" font-size="10.00">Ogre::VulkanRenderSystem</text>
</a>
</g>
</g>
<!-- Node1&#45;&gt;Node9 -->
<g id="edge8_Node000001_Node000009" class="edge">
<title>Node1&#45;&gt;Node9</title>
<g id="a_edge8_Node000001_Node000009"><a xlink:title=" ">
<path fill="none" stroke="#63b8ff" d="M187.54,-101.43C202.86,-80.16 230.38,-46.39 262.25,-27.62 267.6,-24.47 273.5,-21.87 279.53,-19.72"/>
<polygon fill="#63b8ff" stroke="#63b8ff" points="184.75,-99.3 181.9,-109.5 190.49,-103.31 184.75,-99.3"/>
</a>
</g>
</g>
<!-- Node2 -->
<g id="Node000002" class="node">
<title>Node2</title>
<g id="a_Node000002"><a xlink:href="class_ogre_1_1_allocated_object.html" target="_top" xlink:title="Superclass for all objects that wish to use custom memory allocators when their new / delete operator...">
<polygon fill="white" stroke="#666666" points="85,-130.25 0,-130.25 0,-111 85,-111 85,-130.25"/>
<text text-anchor="middle" x="42.5" y="-116.75" font-family="Helvetica,sans-Serif" font-size="10.00">RenderSysAlloc</text>
</a>
</g>
</g>
<!-- Node2&#45;&gt;Node1 -->
<g id="edge1_Node000001_Node000002" class="edge">
<title>Node2&#45;&gt;Node1</title>
<g id="a_edge1_Node000001_Node000002"><a xlink:title=" ">
<path fill="none" stroke="#63b8ff" d="M96.72,-120.62C104.58,-120.62 112.68,-120.62 120.52,-120.62"/>
<polygon fill="#63b8ff" stroke="#63b8ff" points="96.94,-117.13 86.94,-120.63 96.94,-124.13 96.94,-117.13"/>
</a>
</g>
</g>
</g>
</svg>
