<?xml version="1.0" encoding="UTF-8" standalone="no"?>
<!DOCTYPE svg PUBLIC "-//W3C//DTD SVG 1.1//EN"
 "http://www.w3.org/Graphics/SVG/1.1/DTD/svg11.dtd">
<!-- Generated by graphviz version 9.0.0 (20230911.1827)
 -->
<!-- Title: Ogre::D3D11CompatBufferInterface Pages: 1 -->
<svg width="274pt" height="138pt"
 viewBox="0.00 0.00 273.62 137.75" xmlns="http://www.w3.org/2000/svg" xmlns:xlink="http://www.w3.org/1999/xlink">
<g id="graph0" class="graph" transform="scale(1 1) rotate(0) translate(4 133.75)">
<title>Ogre::D3D11CompatBufferInterface</title>
<!-- Node1 -->
<g id="Node000001" class="node">
<title>Node1</title>
<g id="a_Node000001"><a xlink:title="In D3D11, const buffers can&#39;t be bound by offset.">
<polygon fill="#999999" stroke="#666666" points="207.75,-19.25 39.5,-19.25 39.5,0 207.75,0 207.75,-19.25"/>
<text text-anchor="middle" x="123.62" y="-5.75" font-family="Helvetica,sans-Serif" font-size="10.00">Ogre::D3D11CompatBufferInterface</text>
</a>
</g>
</g>
<!-- Node2 -->
<g id="Node000002" class="node">
<title>Node2</title>
<g id="a_Node000002"><a xlink:href="class_ogre_1_1_d3_d11_buffer_interface_base.html" target="_top" xlink:title="For D3D11, most (if not all) buffers, can be treated with the same code.">
<polygon fill="white" stroke="#666666" points="202.12,-74.5 45.12,-74.5 45.12,-55.25 202.12,-55.25 202.12,-74.5"/>
<text text-anchor="middle" x="123.62" y="-61" font-family="Helvetica,sans-Serif" font-size="10.00">Ogre::D3D11BufferInterfaceBase</text>
</a>
</g>
</g>
<!-- Node2&#45;&gt;Node1 -->
<g id="edge1_Node000001_Node000002" class="edge">
<title>Node2&#45;&gt;Node1</title>
<g id="a_edge1_Node000001_Node000002"><a xlink:title=" ">
<path fill="none" stroke="#63b8ff" d="M123.62,-43.63C123.62,-35.34 123.62,-26.17 123.62,-19.61"/>
<polygon fill="#63b8ff" stroke="#63b8ff" points="120.13,-43.57 123.63,-53.57 127.13,-43.57 120.13,-43.57"/>
</a>
</g>
</g>
<!-- Node3 -->
<g id="Node000003" class="node">
<title>Node3</title>
<g id="a_Node000003"><a xlink:href="class_ogre_1_1_buffer_interface.html" target="_top" xlink:title="Most (if not all) buffers, can be treated with the same code.">
<polygon fill="white" stroke="#666666" points="105.25,-129.75 0,-129.75 0,-110.5 105.25,-110.5 105.25,-129.75"/>
<text text-anchor="middle" x="52.62" y="-116.25" font-family="Helvetica,sans-Serif" font-size="10.00">Ogre::BufferInterface</text>
</a>
</g>
</g>
<!-- Node3&#45;&gt;Node2 -->
<g id="edge2_Node000002_Node000003" class="edge">
<title>Node3&#45;&gt;Node2</title>
<g id="a_edge2_Node000002_Node000003"><a xlink:title=" ">
<path fill="none" stroke="#63b8ff" d="M73.87,-103.19C86.27,-93.89 101.45,-82.51 111.76,-74.77"/>
<polygon fill="#63b8ff" stroke="#63b8ff" points="71.78,-100.38 65.88,-109.18 75.98,-105.98 71.78,-100.38"/>
</a>
</g>
</g>
<!-- Node4 -->
<g id="Node000004" class="node">
<title>Node4</title>
<g id="a_Node000004"><a xlink:href="class_ogre_1_1_d3_d11_device_resource.html" target="_top" xlink:title="Represents a Direct3D rendering resource.">
<polygon fill="white" stroke="#666666" points="265.62,-129.75 123.62,-129.75 123.62,-110.5 265.62,-110.5 265.62,-129.75"/>
<text text-anchor="middle" x="194.62" y="-116.25" font-family="Helvetica,sans-Serif" font-size="10.00">Ogre::D3D11DeviceResource</text>
</a>
</g>
</g>
<!-- Node4&#45;&gt;Node2 -->
<g id="edge3_Node000002_Node000004" class="edge">
<title>Node4&#45;&gt;Node2</title>
<g id="a_edge3_Node000002_Node000004"><a xlink:title=" ">
<path fill="none" stroke="#8b1a1a" d="M173.38,-103.19C160.98,-93.89 145.8,-82.51 135.49,-74.77"/>
<polygon fill="#8b1a1a" stroke="#8b1a1a" points="171.27,-105.98 181.37,-109.18 175.47,-100.38 171.27,-105.98"/>
</a>
</g>
</g>
</g>
</svg>
