<?xml version="1.0" encoding="UTF-8" standalone="no"?>
<!DOCTYPE svg PUBLIC "-//W3C//DTD SVG 1.1//EN"
 "http://www.w3.org/Graphics/SVG/1.1/DTD/svg11.dtd">
<!-- Generated by graphviz version 9.0.0 (20230911.1827)
 -->
<!-- Title: Ogre::v1::HardwareBuffer Pages: 1 -->
<svg width="808pt" height="1558pt"
 viewBox="0.00 0.00 808.00 1557.50" xmlns="http://www.w3.org/2000/svg" xmlns:xlink="http://www.w3.org/1999/xlink">
<g id="graph0" class="graph" transform="scale(1 1) rotate(0) translate(4 1553.5)">
<title>Ogre::v1::HardwareBuffer</title>
<!-- Node1 -->
<g id="Node000001" class="node">
<title>Node1</title>
<g id="a_Node000001"><a xlink:title="Abstract class defining common features of hardware buffers.">
<polygon fill="#999999" stroke="#666666" points="223.25,-1053.88 99.25,-1053.88 99.25,-1034.62 223.25,-1034.62 223.25,-1053.88"/>
<text text-anchor="middle" x="161.25" y="-1040.38" font-family="Helvetica,sans-Serif" font-size="10.00">Ogre::v1::HardwareBuffer</text>
</a>
</g>
</g>
<!-- Node3 -->
<g id="Node000003" class="node">
<title>Node3</title>
<g id="a_Node000003"><a xlink:href="class_ogre_1_1v1_1_1_d3_d11_hardware_buffer.html" target="_top" xlink:title="Base implementation of a D3D11 buffer, dealing with all the common aspects.">
<polygon fill="white" stroke="#666666" points="412.5,-1488.88 259.25,-1488.88 259.25,-1469.62 412.5,-1469.62 412.5,-1488.88"/>
<text text-anchor="middle" x="335.88" y="-1475.38" font-family="Helvetica,sans-Serif" font-size="10.00">Ogre::v1::D3D11HardwareBuffer</text>
</a>
</g>
</g>
<!-- Node1&#45;&gt;Node3 -->
<g id="edge2_Node000001_Node000003" class="edge">
<title>Node1&#45;&gt;Node3</title>
<g id="a_edge2_Node000001_Node000003"><a xlink:title=" ">
<path fill="none" stroke="#63b8ff" d="M164.3,-1065.35C172.12,-1141.78 202.62,-1402.64 259.25,-1460.25 262.76,-1463.82 266.84,-1466.76 271.24,-1469.17"/>
<polygon fill="#63b8ff" stroke="#63b8ff" points="167.83,-1065.48 163.35,-1055.88 160.86,-1066.17 167.83,-1065.48"/>
</a>
</g>
</g>
<!-- Node4 -->
<g id="Node000004" class="node">
<title>Node4</title>
<g id="a_Node000004"><a xlink:href="class_ogre_1_1v1_1_1_hardware_counter_buffer.html" target="_top" xlink:title="Specialisation of HardwareBuffer for a counter buffer.">
<polygon fill="white" stroke="#666666" points="402,-1451.5 269.75,-1451.5 269.75,-1421 402,-1421 402,-1451.5"/>
<text text-anchor="start" x="277.75" y="-1438" font-family="Helvetica,sans-Serif" font-size="10.00">Ogre::v1::HardwareCounter</text>
<text text-anchor="middle" x="335.88" y="-1426.75" font-family="Helvetica,sans-Serif" font-size="10.00">Buffer</text>
</a>
</g>
</g>
<!-- Node1&#45;&gt;Node4 -->
<g id="edge3_Node000001_Node000004" class="edge">
<title>Node1&#45;&gt;Node4</title>
<g id="a_edge3_Node000001_Node000004"><a xlink:title=" ">
<path fill="none" stroke="#63b8ff" d="M171.28,-1064.75C201.83,-1134.13 300.96,-1359.23 328,-1420.65"/>
<polygon fill="#63b8ff" stroke="#63b8ff" points="174.53,-1063.46 167.3,-1055.72 168.13,-1066.28 174.53,-1063.46"/>
</a>
</g>
</g>
<!-- Node8 -->
<g id="Node000008" class="node">
<title>Node8</title>
<g id="a_Node000008"><a xlink:href="class_ogre_1_1v1_1_1_hardware_index_buffer.html" target="_top" xlink:title="Specialisation of HardwareBuffer for vertex index buffers, still abstract.">
<polygon fill="white" stroke="#666666" points="409.5,-1224.88 262.25,-1224.88 262.25,-1205.62 409.5,-1205.62 409.5,-1224.88"/>
<text text-anchor="middle" x="335.88" y="-1211.38" font-family="Helvetica,sans-Serif" font-size="10.00">Ogre::v1::HardwareIndexBuffer</text>
</a>
</g>
</g>
<!-- Node1&#45;&gt;Node8 -->
<g id="edge7_Node000001_Node000008" class="edge">
<title>Node1&#45;&gt;Node8</title>
<g id="a_edge7_Node000001_Node000008"><a xlink:title=" ">
<path fill="none" stroke="#63b8ff" d="M180.03,-1061.86C216.03,-1097.53 296.54,-1177.28 324.82,-1205.29"/>
<polygon fill="#63b8ff" stroke="#63b8ff" points="182.92,-1059.8 173.35,-1055.25 177.99,-1064.77 182.92,-1059.8"/>
</a>
</g>
</g>
<!-- Node16 -->
<g id="Node000016" class="node">
<title>Node16</title>
<g id="a_Node000016"><a xlink:href="class_ogre_1_1v1_1_1_hardware_pixel_buffer.html" target="_top" xlink:title="Specialisation of HardwareBuffer for a pixel buffer.">
<polygon fill="white" stroke="#666666" points="408.38,-906.88 263.38,-906.88 263.38,-887.62 408.38,-887.62 408.38,-906.88"/>
<text text-anchor="middle" x="335.88" y="-893.38" font-family="Helvetica,sans-Serif" font-size="10.00">Ogre::v1::HardwarePixelBuffer</text>
</a>
</g>
</g>
<!-- Node1&#45;&gt;Node16 -->
<g id="edge15_Node000001_Node000016" class="edge">
<title>Node1&#45;&gt;Node16</title>
<g id="a_edge15_Node000001_Node000016"><a xlink:title=" ">
<path fill="none" stroke="#63b8ff" d="M182.49,-1027.01C218.96,-995.96 294.57,-931.57 323.38,-907.04"/>
<polygon fill="#63b8ff" stroke="#63b8ff" points="180.61,-1024.02 175.27,-1033.16 185.15,-1029.35 180.61,-1024.02"/>
</a>
</g>
</g>
<!-- Node30 -->
<g id="Node000030" class="node">
<title>Node30</title>
<g id="a_Node000030"><a xlink:href="class_ogre_1_1v1_1_1_hardware_uniform_buffer.html" target="_top" xlink:title="Specialisation of HardwareBuffer for a uniform buffer.">
<polygon fill="white" stroke="#666666" points="402.38,-544.5 269.38,-544.5 269.38,-514 402.38,-514 402.38,-544.5"/>
<text text-anchor="start" x="277.38" y="-531" font-family="Helvetica,sans-Serif" font-size="10.00">Ogre::v1::HardwareUniform</text>
<text text-anchor="middle" x="335.88" y="-519.75" font-family="Helvetica,sans-Serif" font-size="10.00">Buffer</text>
</a>
</g>
</g>
<!-- Node1&#45;&gt;Node30 -->
<g id="edge29_Node000001_Node000030" class="edge">
<title>Node1&#45;&gt;Node30</title>
<g id="a_edge29_Node000001_Node000030"><a xlink:title=" ">
<path fill="none" stroke="#63b8ff" d="M169.13,-1023.72C197.45,-939.22 304.71,-619.25 329.66,-544.8"/>
<polygon fill="#63b8ff" stroke="#63b8ff" points="165.88,-1022.39 166.03,-1032.99 172.52,-1024.62 165.88,-1022.39"/>
</a>
</g>
</g>
<!-- Node38 -->
<g id="Node000038" class="node">
<title>Node38</title>
<g id="a_Node000038"><a xlink:href="class_ogre_1_1v1_1_1_hardware_vertex_buffer.html" target="_top" xlink:title="Specialisation of HardwareBuffer for a vertex buffer.">
<polygon fill="white" stroke="#666666" points="399,-202.5 272.75,-202.5 272.75,-172 399,-172 399,-202.5"/>
<text text-anchor="start" x="280.75" y="-189" font-family="Helvetica,sans-Serif" font-size="10.00">Ogre::v1::HardwareVertex</text>
<text text-anchor="middle" x="335.88" y="-177.75" font-family="Helvetica,sans-Serif" font-size="10.00">Buffer</text>
</a>
</g>
</g>
<!-- Node1&#45;&gt;Node38 -->
<g id="edge37_Node000001_Node000038" class="edge">
<title>Node1&#45;&gt;Node38</title>
<g id="a_edge37_Node000001_Node000038"><a xlink:title=" ">
<path fill="none" stroke="#63b8ff" d="M165.61,-1023.17C177.25,-950.79 217.37,-705.88 259.25,-505.25 283.66,-388.32 319.06,-248.68 330.87,-202.73"/>
<polygon fill="#63b8ff" stroke="#63b8ff" points="162.2,-1022.37 164.07,-1032.79 169.11,-1023.47 162.2,-1022.37"/>
</a>
</g>
</g>
<!-- Node2 -->
<g id="Node000002" class="node">
<title>Node2</title>
<g id="a_Node000002"><a xlink:href="class_ogre_1_1_allocated_object.html" target="_top" xlink:title="Superclass for all objects that wish to use custom memory allocators when their new / delete operator...">
<polygon fill="white" stroke="#666666" points="63.25,-1053.88 0,-1053.88 0,-1034.62 63.25,-1034.62 63.25,-1053.88"/>
<text text-anchor="middle" x="31.62" y="-1040.38" font-family="Helvetica,sans-Serif" font-size="10.00">BufferAlloc</text>
</a>
</g>
</g>
<!-- Node2&#45;&gt;Node1 -->
<g id="edge1_Node000001_Node000002" class="edge">
<title>Node2&#45;&gt;Node1</title>
<g id="a_edge1_Node000001_Node000002"><a xlink:title=" ">
<path fill="none" stroke="#63b8ff" d="M74.81,-1044.25C82.53,-1044.25 90.74,-1044.25 98.89,-1044.25"/>
<polygon fill="#63b8ff" stroke="#63b8ff" points="75.03,-1040.75 65.03,-1044.25 75.03,-1047.75 75.03,-1040.75"/>
</a>
</g>
</g>
<!-- Node5 -->
<g id="Node000005" class="node">
<title>Node5</title>
<g id="a_Node000005"><a xlink:href="class_ogre_1_1v1_1_1_default_hardware_counter_buffer.html" target="_top" xlink:title="Specialisation of HardwareCounterBuffer for emulation.">
<polygon fill="white" stroke="#666666" points="595.38,-1549.5 466.12,-1549.5 466.12,-1519 595.38,-1519 595.38,-1549.5"/>
<text text-anchor="start" x="474.12" y="-1536" font-family="Helvetica,sans-Serif" font-size="10.00">Ogre::v1::DefaultHardware</text>
<text text-anchor="middle" x="530.75" y="-1524.75" font-family="Helvetica,sans-Serif" font-size="10.00">CounterBuffer</text>
</a>
</g>
</g>
<!-- Node4&#45;&gt;Node5 -->
<g id="edge4_Node000004_Node000005" class="edge">
<title>Node4&#45;&gt;Node5</title>
<g id="a_edge4_Node000004_Node000005"><a xlink:title=" ">
<path fill="none" stroke="#63b8ff" d="M408.29,-1457.43C409.73,-1458.33 411.14,-1459.27 412.5,-1460.25 434.46,-1476 426.47,-1493.6 448.5,-1509.25 453.79,-1513.01 459.67,-1516.22 465.77,-1518.95"/>
<polygon fill="#63b8ff" stroke="#63b8ff" points="410.14,-1454.45 399.69,-1452.73 406.78,-1460.59 410.14,-1454.45"/>
</a>
</g>
</g>
<!-- Node6 -->
<g id="Node000006" class="node">
<title>Node6</title>
<g id="a_Node000006"><a xlink:href="class_ogre_1_1v1_1_1_g_l3_plus_default_hardware_counter_buffer.html" target="_top" xlink:title="Specialisation of HardwareCounterBuffer for emulation.">
<polygon fill="white" stroke="#666666" points="593.5,-1500.5 468,-1500.5 468,-1470 593.5,-1470 593.5,-1500.5"/>
<text text-anchor="start" x="476" y="-1487" font-family="Helvetica,sans-Serif" font-size="10.00">Ogre::v1::GL3PlusDefault</text>
<text text-anchor="middle" x="530.75" y="-1475.75" font-family="Helvetica,sans-Serif" font-size="10.00">HardwareCounterBuffer</text>
</a>
</g>
</g>
<!-- Node4&#45;&gt;Node6 -->
<g id="edge5_Node000004_Node000006" class="edge">
<title>Node4&#45;&gt;Node6</title>
<g id="a_edge5_Node000004_Node000006"><a xlink:title=" ">
<path fill="none" stroke="#63b8ff" d="M409.8,-1454.78C428.96,-1459.64 449.43,-1464.85 467.95,-1469.55"/>
<polygon fill="#63b8ff" stroke="#63b8ff" points="410.72,-1451.4 400.16,-1452.33 408.99,-1458.18 410.72,-1451.4"/>
</a>
</g>
</g>
<!-- Node7 -->
<g id="Node000007" class="node">
<title>Node7</title>
<g id="a_Node000007"><a xlink:href="class_ogre_1_1v1_1_1_g_l3_plus_hardware_counter_buffer.html" target="_top" xlink:title="Specialisation of HardwareCounterBuffer for OpenGL.">
<polygon fill="white" stroke="#666666" points="599.12,-1451.5 462.38,-1451.5 462.38,-1421 599.12,-1421 599.12,-1451.5"/>
<text text-anchor="start" x="470.38" y="-1438" font-family="Helvetica,sans-Serif" font-size="10.00">Ogre::v1::GL3PlusHardware</text>
<text text-anchor="middle" x="530.75" y="-1426.75" font-family="Helvetica,sans-Serif" font-size="10.00">CounterBuffer</text>
</a>
</g>
</g>
<!-- Node4&#45;&gt;Node7 -->
<g id="edge6_Node000004_Node000007" class="edge">
<title>Node4&#45;&gt;Node7</title>
<g id="a_edge6_Node000004_Node000007"><a xlink:title=" ">
<path fill="none" stroke="#63b8ff" d="M413.89,-1436.25C429.82,-1436.25 446.49,-1436.25 462.06,-1436.25"/>
<polygon fill="#63b8ff" stroke="#63b8ff" points="413.96,-1432.75 403.96,-1436.25 413.96,-1439.75 413.96,-1432.75"/>
</a>
</g>
</g>
<!-- Node9 -->
<g id="Node000009" class="node">
<title>Node9</title>
<g id="a_Node000009"><a xlink:href="class_ogre_1_1v1_1_1_d3_d11_hardware_index_buffer.html" target="_top" xlink:title=" ">
<polygon fill="white" stroke="#666666" points="606.25,-1402.5 455.25,-1402.5 455.25,-1372 606.25,-1372 606.25,-1402.5"/>
<text text-anchor="start" x="463.25" y="-1389" font-family="Helvetica,sans-Serif" font-size="10.00">Ogre::v1::D3D11HardwareIndex</text>
<text text-anchor="middle" x="530.75" y="-1377.75" font-family="Helvetica,sans-Serif" font-size="10.00">Buffer</text>
</a>
</g>
</g>
<!-- Node8&#45;&gt;Node9 -->
<g id="edge8_Node000008_Node000009" class="edge">
<title>Node8&#45;&gt;Node9</title>
<g id="a_edge8_Node000008_Node000009"><a xlink:title=" ">
<path fill="none" stroke="#63b8ff" d="M346.83,-1235.39C363.51,-1267.07 400.07,-1328.41 448.5,-1362.25 453.7,-1365.89 459.45,-1369 465.41,-1371.68"/>
<polygon fill="#63b8ff" stroke="#63b8ff" points="349.96,-1233.83 342.29,-1226.52 343.73,-1237.01 349.96,-1233.83"/>
</a>
</g>
</g>
<!-- Node10 -->
<g id="Node000010" class="node">
<title>Node10</title>
<g id="a_Node000010"><a xlink:href="class_ogre_1_1v1_1_1_default_hardware_index_buffer.html" target="_top" xlink:title="Specialisation of HardwareIndexBuffer for emulation.">
<polygon fill="white" stroke="#666666" points="595.38,-1353.5 466.12,-1353.5 466.12,-1323 595.38,-1323 595.38,-1353.5"/>
<text text-anchor="start" x="474.12" y="-1340" font-family="Helvetica,sans-Serif" font-size="10.00">Ogre::v1::DefaultHardware</text>
<text text-anchor="middle" x="530.75" y="-1328.75" font-family="Helvetica,sans-Serif" font-size="10.00">IndexBuffer</text>
</a>
</g>
</g>
<!-- Node8&#45;&gt;Node10 -->
<g id="edge9_Node000008_Node000010" class="edge">
<title>Node8&#45;&gt;Node10</title>
<g id="a_edge9_Node000008_Node000010"><a xlink:title=" ">
<path fill="none" stroke="#63b8ff" d="M353.02,-1233.52C373.29,-1255.4 410.09,-1291.79 448.5,-1313.25 454.81,-1316.78 461.69,-1319.87 468.67,-1322.57"/>
<polygon fill="#63b8ff" stroke="#63b8ff" points="355.72,-1231.28 346.41,-1226.23 350.54,-1235.99 355.72,-1231.28"/>
</a>
</g>
</g>
<!-- Node11 -->
<g id="Node000011" class="node">
<title>Node11</title>
<g id="a_Node000011"><a xlink:href="class_ogre_1_1v1_1_1_g_l3_plus_default_hardware_index_buffer.html" target="_top" xlink:title="Specialisation of HardwareIndexBuffer for emulation.">
<polygon fill="white" stroke="#666666" points="593.5,-1304.5 468,-1304.5 468,-1274 593.5,-1274 593.5,-1304.5"/>
<text text-anchor="start" x="476" y="-1291" font-family="Helvetica,sans-Serif" font-size="10.00">Ogre::v1::GL3PlusDefault</text>
<text text-anchor="middle" x="530.75" y="-1279.75" font-family="Helvetica,sans-Serif" font-size="10.00">HardwareIndexBuffer</text>
</a>
</g>
</g>
<!-- Node8&#45;&gt;Node11 -->
<g id="edge10_Node000008_Node000011" class="edge">
<title>Node8&#45;&gt;Node11</title>
<g id="a_edge10_Node000008_Node000011"><a xlink:title=" ">
<path fill="none" stroke="#63b8ff" d="M367.72,-1229.94C389.91,-1240.22 420.71,-1253.92 448.5,-1264.25 457.21,-1267.49 466.56,-1270.65 475.7,-1273.57"/>
<polygon fill="#63b8ff" stroke="#63b8ff" points="369.48,-1226.89 358.94,-1225.83 366.51,-1233.24 369.48,-1226.89"/>
</a>
</g>
</g>
<!-- Node12 -->
<g id="Node000012" class="node">
<title>Node12</title>
<g id="a_Node000012"><a xlink:href="class_ogre_1_1v1_1_1_g_l3_plus_hardware_index_buffer.html" target="_top" xlink:title=" ">
<polygon fill="white" stroke="#666666" points="599.12,-1255.5 462.38,-1255.5 462.38,-1225 599.12,-1225 599.12,-1255.5"/>
<text text-anchor="start" x="470.38" y="-1242" font-family="Helvetica,sans-Serif" font-size="10.00">Ogre::v1::GL3PlusHardware</text>
<text text-anchor="middle" x="530.75" y="-1230.75" font-family="Helvetica,sans-Serif" font-size="10.00">IndexBuffer</text>
</a>
</g>
</g>
<!-- Node8&#45;&gt;Node12 -->
<g id="edge11_Node000008_Node000012" class="edge">
<title>Node8&#45;&gt;Node12</title>
<g id="a_edge11_Node000008_Node000012"><a xlink:title=" ">
<path fill="none" stroke="#63b8ff" d="M421.19,-1226.18C434.88,-1227.95 448.91,-1229.77 462.13,-1231.49"/>
<polygon fill="#63b8ff" stroke="#63b8ff" points="421.66,-1222.71 411.29,-1224.9 420.76,-1229.65 421.66,-1222.71"/>
</a>
</g>
</g>
<!-- Node13 -->
<g id="Node000013" class="node">
<title>Node13</title>
<g id="a_Node000013"><a xlink:href="class_ogre_1_1v1_1_1_g_l_e_s2_default_hardware_index_buffer.html" target="_top" xlink:title="Specialisation of HardwareIndexBuffer for emulation.">
<polygon fill="white" stroke="#666666" points="611.12,-1206.5 450.38,-1206.5 450.38,-1176 611.12,-1176 611.12,-1206.5"/>
<text text-anchor="start" x="458.38" y="-1193" font-family="Helvetica,sans-Serif" font-size="10.00">Ogre::v1::GLES2DefaultHardware</text>
<text text-anchor="middle" x="530.75" y="-1181.75" font-family="Helvetica,sans-Serif" font-size="10.00">IndexBuffer</text>
</a>
</g>
</g>
<!-- Node8&#45;&gt;Node13 -->
<g id="edge12_Node000008_Node000013" class="edge">
<title>Node8&#45;&gt;Node13</title>
<g id="a_edge12_Node000008_Node000013"><a xlink:title=" ">
<path fill="none" stroke="#63b8ff" d="M420.99,-1204.78C430.61,-1203.59 440.4,-1202.37 449.96,-1201.18"/>
<polygon fill="#63b8ff" stroke="#63b8ff" points="420.79,-1201.28 411.29,-1205.99 421.65,-1208.23 420.79,-1201.28"/>
</a>
</g>
</g>
<!-- Node14 -->
<g id="Node000014" class="node">
<title>Node14</title>
<g id="a_Node000014"><a xlink:href="class_ogre_1_1v1_1_1_metal_hardware_index_buffer.html" target="_top" xlink:title="Specialisation of HardwareIndexBuffer for Metal.">
<polygon fill="white" stroke="#666666" points="603.62,-1157.5 457.88,-1157.5 457.88,-1127 603.62,-1127 603.62,-1157.5"/>
<text text-anchor="start" x="465.88" y="-1144" font-family="Helvetica,sans-Serif" font-size="10.00">Ogre::v1::MetalHardwareIndex</text>
<text text-anchor="middle" x="530.75" y="-1132.75" font-family="Helvetica,sans-Serif" font-size="10.00">Buffer</text>
</a>
</g>
</g>
<!-- Node8&#45;&gt;Node14 -->
<g id="edge13_Node000008_Node000014" class="edge">
<title>Node8&#45;&gt;Node14</title>
<g id="a_edge13_Node000008_Node000014"><a xlink:title=" ">
<path fill="none" stroke="#63b8ff" d="M368.87,-1200.4C390.99,-1190.41 421.23,-1177.28 448.5,-1167.25 457.23,-1164.04 466.58,-1160.9 475.72,-1157.98"/>
<polygon fill="#63b8ff" stroke="#63b8ff" points="367.44,-1197.21 359.79,-1204.54 370.34,-1203.58 367.44,-1197.21"/>
</a>
</g>
</g>
<!-- Node15 -->
<g id="Node000015" class="node">
<title>Node15</title>
<g id="a_Node000015"><a xlink:href="class_ogre_1_1v1_1_1_vulkan_hardware_index_buffer.html" target="_top" xlink:title=" ">
<polygon fill="white" stroke="#666666" points="595,-1108.5 466.5,-1108.5 466.5,-1078 595,-1078 595,-1108.5"/>
<text text-anchor="start" x="474.5" y="-1095" font-family="Helvetica,sans-Serif" font-size="10.00">Ogre::v1::VulkanHardware</text>
<text text-anchor="middle" x="530.75" y="-1083.75" font-family="Helvetica,sans-Serif" font-size="10.00">IndexBuffer</text>
</a>
</g>
</g>
<!-- Node8&#45;&gt;Node15 -->
<g id="edge14_Node000008_Node000015" class="edge">
<title>Node8&#45;&gt;Node15</title>
<g id="a_edge14_Node000008_Node000015"><a xlink:title=" ">
<path fill="none" stroke="#63b8ff" d="M353.37,-1196.84C373.75,-1175.16 410.4,-1139.41 448.5,-1118.25 454.82,-1114.74 461.7,-1111.66 468.69,-1108.97"/>
<polygon fill="#63b8ff" stroke="#63b8ff" points="350.91,-1194.35 346.71,-1204.08 356.06,-1199.1 350.91,-1194.35"/>
</a>
</g>
</g>
<!-- Node17 -->
<g id="Node000017" class="node">
<title>Node17</title>
<g id="a_Node000017"><a xlink:href="class_ogre_1_1v1_1_1_d3_d11_depth_pixel_buffer.html" target="_top" xlink:title=" ">
<polygon fill="white" stroke="#666666" points="596.88,-1059.5 464.62,-1059.5 464.62,-1029 596.88,-1029 596.88,-1059.5"/>
<text text-anchor="start" x="472.62" y="-1046" font-family="Helvetica,sans-Serif" font-size="10.00">Ogre::v1::D3D11DepthPixel</text>
<text text-anchor="middle" x="530.75" y="-1034.75" font-family="Helvetica,sans-Serif" font-size="10.00">Buffer</text>
</a>
</g>
</g>
<!-- Node16&#45;&gt;Node17 -->
<g id="edge16_Node000016_Node000017" class="edge">
<title>Node16&#45;&gt;Node17</title>
<g id="a_edge16_Node000016_Node000017"><a xlink:title=" ">
<path fill="none" stroke="#63b8ff" d="M349.52,-916.57C368.08,-943.44 405.24,-991.88 448.5,-1019.25 454.11,-1022.8 460.26,-1025.88 466.59,-1028.53"/>
<polygon fill="#63b8ff" stroke="#63b8ff" points="352.48,-914.69 343.98,-908.36 346.67,-918.61 352.48,-914.69"/>
</a>
</g>
</g>
<!-- Node18 -->
<g id="Node000018" class="node">
<title>Node18</title>
<g id="a_Node000018"><a xlink:href="class_ogre_1_1v1_1_1_d3_d11_hardware_pixel_buffer.html" target="_top" xlink:title=" ">
<polygon fill="white" stroke="#666666" points="605.12,-1010.5 456.38,-1010.5 456.38,-980 605.12,-980 605.12,-1010.5"/>
<text text-anchor="start" x="464.38" y="-997" font-family="Helvetica,sans-Serif" font-size="10.00">Ogre::v1::D3D11HardwarePixel</text>
<text text-anchor="middle" x="530.75" y="-985.75" font-family="Helvetica,sans-Serif" font-size="10.00">Buffer</text>
</a>
</g>
</g>
<!-- Node16&#45;&gt;Node18 -->
<g id="edge17_Node000016_Node000018" class="edge">
<title>Node16&#45;&gt;Node18</title>
<g id="a_edge17_Node000016_Node000018"><a xlink:title=" ">
<path fill="none" stroke="#63b8ff" d="M358.58,-914.11C380.32,-930.33 415.24,-954.64 448.5,-970.25 455.85,-973.7 463.79,-976.82 471.73,-979.59"/>
<polygon fill="#63b8ff" stroke="#63b8ff" points="360.86,-911.44 350.78,-908.19 356.63,-917.02 360.86,-911.44"/>
</a>
</g>
</g>
<!-- Node19 -->
<g id="Node000019" class="node">
<title>Node19</title>
<g id="a_Node000019"><a xlink:href="class_ogre_1_1v1_1_1_d3_d11_null_pixel_buffer.html" target="_top" xlink:title=" ">
<polygon fill="white" stroke="#666666" points="592.75,-961.5 468.75,-961.5 468.75,-931 592.75,-931 592.75,-961.5"/>
<text text-anchor="start" x="476.75" y="-948" font-family="Helvetica,sans-Serif" font-size="10.00">Ogre::v1::D3D11NullPixel</text>
<text text-anchor="middle" x="530.75" y="-936.75" font-family="Helvetica,sans-Serif" font-size="10.00">Buffer</text>
</a>
</g>
</g>
<!-- Node16&#45;&gt;Node19 -->
<g id="edge18_Node000016_Node000019" class="edge">
<title>Node16&#45;&gt;Node19</title>
<g id="a_edge18_Node000016_Node000019"><a xlink:title=" ">
<path fill="none" stroke="#63b8ff" d="M387.35,-910.07C412.12,-916.37 442.17,-924 468.28,-930.63"/>
<polygon fill="#63b8ff" stroke="#63b8ff" points="388.39,-906.73 377.84,-907.66 386.67,-913.51 388.39,-906.73"/>
</a>
</g>
</g>
<!-- Node20 -->
<g id="Node000020" class="node">
<title>Node20</title>
<g id="a_Node000020"><a xlink:href="class_ogre_1_1v1_1_1_g_l3_plus_hardware_pixel_buffer.html" target="_top" xlink:title=" ">
<polygon fill="white" stroke="#666666" points="599.12,-912.5 462.38,-912.5 462.38,-882 599.12,-882 599.12,-912.5"/>
<text text-anchor="start" x="470.38" y="-899" font-family="Helvetica,sans-Serif" font-size="10.00">Ogre::v1::GL3PlusHardware</text>
<text text-anchor="middle" x="530.75" y="-887.75" font-family="Helvetica,sans-Serif" font-size="10.00">PixelBuffer</text>
</a>
</g>
</g>
<!-- Node16&#45;&gt;Node20 -->
<g id="edge19_Node000016_Node000020" class="edge">
<title>Node16&#45;&gt;Node20</title>
<g id="a_edge19_Node000016_Node000020"><a xlink:title=" ">
<path fill="none" stroke="#63b8ff" d="M419.87,-897.25C433.94,-897.25 448.4,-897.25 462.02,-897.25"/>
<polygon fill="#63b8ff" stroke="#63b8ff" points="420.21,-893.75 410.21,-897.25 420.21,-900.75 420.21,-893.75"/>
</a>
</g>
</g>
<!-- Node23 -->
<g id="Node000023" class="node">
<title>Node23</title>
<g id="a_Node000023"><a xlink:href="class_ogre_1_1v1_1_1_g_l_e_s2_hardware_pixel_buffer.html" target="_top" xlink:title=" ">
<polygon fill="white" stroke="#666666" points="606.25,-863.5 455.25,-863.5 455.25,-833 606.25,-833 606.25,-863.5"/>
<text text-anchor="start" x="463.25" y="-850" font-family="Helvetica,sans-Serif" font-size="10.00">Ogre::v1::GLES2HardwarePixel</text>
<text text-anchor="middle" x="530.75" y="-838.75" font-family="Helvetica,sans-Serif" font-size="10.00">Buffer</text>
</a>
</g>
</g>
<!-- Node16&#45;&gt;Node23 -->
<g id="edge22_Node000016_Node000023" class="edge">
<title>Node16&#45;&gt;Node23</title>
<g id="a_edge22_Node000016_Node000023"><a xlink:title=" ">
<path fill="none" stroke="#63b8ff" d="M387.3,-884.44C411.96,-878.17 441.87,-870.58 467.9,-863.96"/>
<polygon fill="#63b8ff" stroke="#63b8ff" points="386.67,-880.99 377.84,-886.84 388.39,-887.77 386.67,-880.99"/>
</a>
</g>
</g>
<!-- Node26 -->
<g id="Node000026" class="node">
<title>Node26</title>
<g id="a_Node000026"><a xlink:href="class_ogre_1_1v1_1_1_metal_hardware_pixel_buffer.html" target="_top" xlink:title=" ">
<polygon fill="white" stroke="#666666" points="602.5,-814.5 459,-814.5 459,-784 602.5,-784 602.5,-814.5"/>
<text text-anchor="start" x="467" y="-801" font-family="Helvetica,sans-Serif" font-size="10.00">Ogre::v1::MetalHardwarePixel</text>
<text text-anchor="middle" x="530.75" y="-789.75" font-family="Helvetica,sans-Serif" font-size="10.00">Buffer</text>
</a>
</g>
</g>
<!-- Node16&#45;&gt;Node26 -->
<g id="edge25_Node000016_Node000026" class="edge">
<title>Node16&#45;&gt;Node26</title>
<g id="a_edge25_Node000016_Node000026"><a xlink:title=" ">
<path fill="none" stroke="#63b8ff" d="M358.58,-880.39C380.32,-864.17 415.24,-839.86 448.5,-824.25 455.85,-820.8 463.79,-817.68 471.73,-814.91"/>
<polygon fill="#63b8ff" stroke="#63b8ff" points="356.63,-877.48 350.78,-886.31 360.86,-883.06 356.63,-877.48"/>
</a>
</g>
</g>
<!-- Node28 -->
<g id="Node000028" class="node">
<title>Node28</title>
<g id="a_Node000028"><a xlink:href="class_ogre_1_1v1_1_1_metal_null_pixel_buffer.html" target="_top" xlink:title=" ">
<polygon fill="white" stroke="#666666" points="590.12,-765.5 471.38,-765.5 471.38,-735 590.12,-735 590.12,-765.5"/>
<text text-anchor="start" x="479.38" y="-752" font-family="Helvetica,sans-Serif" font-size="10.00">Ogre::v1::MetalNullPixel</text>
<text text-anchor="middle" x="530.75" y="-740.75" font-family="Helvetica,sans-Serif" font-size="10.00">Buffer</text>
</a>
</g>
</g>
<!-- Node16&#45;&gt;Node28 -->
<g id="edge27_Node000016_Node000028" class="edge">
<title>Node16&#45;&gt;Node28</title>
<g id="a_edge27_Node000016_Node000028"><a xlink:title=" ">
<path fill="none" stroke="#63b8ff" d="M349.52,-877.93C368.08,-851.06 405.24,-802.62 448.5,-775.25 455.48,-770.83 463.3,-767.15 471.25,-764.09"/>
<polygon fill="#63b8ff" stroke="#63b8ff" points="346.67,-875.89 343.98,-886.14 352.48,-879.81 346.67,-875.89"/>
</a>
</g>
</g>
<!-- Node29 -->
<g id="Node000029" class="node">
<title>Node29</title>
<g id="a_Node000029"><a xlink:href="class_ogre_1_1v1_1_1_n_u_l_l_hardware_pixel_buffer.html" target="_top" xlink:title=" ">
<polygon fill="white" stroke="#666666" points="604,-716.5 457.5,-716.5 457.5,-686 604,-686 604,-716.5"/>
<text text-anchor="start" x="465.5" y="-703" font-family="Helvetica,sans-Serif" font-size="10.00">Ogre::v1::NULLHardwarePixel</text>
<text text-anchor="middle" x="530.75" y="-691.75" font-family="Helvetica,sans-Serif" font-size="10.00">Buffer</text>
</a>
</g>
</g>
<!-- Node16&#45;&gt;Node29 -->
<g id="edge28_Node000016_Node000029" class="edge">
<title>Node16&#45;&gt;Node29</title>
<g id="a_edge28_Node000016_Node000029"><a xlink:title=" ">
<path fill="none" stroke="#63b8ff" d="M344.68,-876.85C359.43,-841 394.81,-766.68 448.5,-726.25 453.33,-722.61 458.7,-719.49 464.31,-716.83"/>
<polygon fill="#63b8ff" stroke="#63b8ff" points="341.47,-875.44 341.03,-886.02 347.98,-878.02 341.47,-875.44"/>
</a>
</g>
</g>
<!-- Node21 -->
<g id="Node000021" class="node">
<title>Node21</title>
<g id="a_Node000021"><a xlink:href="class_ogre_1_1v1_1_1_g_l3_plus_render_buffer.html" target="_top" xlink:title="Renderbuffer surface.">
<polygon fill="white" stroke="#666666" points="800,-949.88 649,-949.88 649,-930.62 800,-930.62 800,-949.88"/>
<text text-anchor="middle" x="724.5" y="-936.38" font-family="Helvetica,sans-Serif" font-size="10.00">Ogre::v1::GL3PlusRenderBuffer</text>
</a>
</g>
</g>
<!-- Node20&#45;&gt;Node21 -->
<g id="edge20_Node000020_Node000021" class="edge">
<title>Node20&#45;&gt;Node21</title>
<g id="a_edge20_Node000020_Node000021"><a xlink:title=" ">
<path fill="none" stroke="#63b8ff" d="M610.82,-914.98C633.91,-920.16 658.34,-925.64 678.53,-930.16"/>
<polygon fill="#63b8ff" stroke="#63b8ff" points="611.62,-911.57 601.1,-912.8 610.09,-918.41 611.62,-911.57"/>
</a>
</g>
</g>
<!-- Node22 -->
<g id="Node000022" class="node">
<title>Node22</title>
<g id="a_Node000022"><a xlink:href="class_ogre_1_1v1_1_1_g_l3_plus_texture_buffer.html" target="_top" xlink:title="Texture surface.">
<polygon fill="white" stroke="#666666" points="788,-912.5 661,-912.5 661,-882 788,-882 788,-912.5"/>
<text text-anchor="start" x="669" y="-899" font-family="Helvetica,sans-Serif" font-size="10.00">Ogre::v1::GL3PlusTexture</text>
<text text-anchor="middle" x="724.5" y="-887.75" font-family="Helvetica,sans-Serif" font-size="10.00">Buffer</text>
</a>
</g>
</g>
<!-- Node20&#45;&gt;Node22 -->
<g id="edge21_Node000020_Node000022" class="edge">
<title>Node20&#45;&gt;Node22</title>
<g id="a_edge21_Node000020_Node000022"><a xlink:title=" ">
<path fill="none" stroke="#63b8ff" d="M610.93,-897.25C627.46,-897.25 644.68,-897.25 660.53,-897.25"/>
<polygon fill="#63b8ff" stroke="#63b8ff" points="611.14,-893.75 601.14,-897.25 611.14,-900.75 611.14,-893.75"/>
</a>
</g>
</g>
<!-- Node24 -->
<g id="Node000024" class="node">
<title>Node24</title>
<g id="a_Node000024"><a xlink:href="class_ogre_1_1v1_1_1_g_l_e_s2_render_buffer.html" target="_top" xlink:title="Renderbuffer surface.">
<polygon fill="white" stroke="#666666" points="796.62,-863.88 652.38,-863.88 652.38,-844.62 796.62,-844.62 796.62,-863.88"/>
<text text-anchor="middle" x="724.5" y="-850.38" font-family="Helvetica,sans-Serif" font-size="10.00">Ogre::v1::GLES2RenderBuffer</text>
</a>
</g>
</g>
<!-- Node23&#45;&gt;Node24 -->
<g id="edge23_Node000023_Node000024" class="edge">
<title>Node23&#45;&gt;Node24</title>
<g id="a_edge23_Node000023_Node000024"><a xlink:title=" ">
<path fill="none" stroke="#63b8ff" d="M618.01,-850.95C629.39,-851.31 640.95,-851.67 652.05,-852.01"/>
<polygon fill="#63b8ff" stroke="#63b8ff" points="618.33,-847.46 608.22,-850.64 618.11,-854.45 618.33,-847.46"/>
</a>
</g>
</g>
<!-- Node25 -->
<g id="Node000025" class="node">
<title>Node25</title>
<g id="a_Node000025"><a xlink:href="class_ogre_1_1v1_1_1_g_l_e_s2_texture_buffer.html" target="_top" xlink:title="Texture surface.">
<polygon fill="white" stroke="#666666" points="797.38,-826.88 651.62,-826.88 651.62,-807.62 797.38,-807.62 797.38,-826.88"/>
<text text-anchor="middle" x="724.5" y="-813.38" font-family="Helvetica,sans-Serif" font-size="10.00">Ogre::v1::GLES2TextureBuffer</text>
</a>
</g>
</g>
<!-- Node23&#45;&gt;Node25 -->
<g id="edge24_Node000023_Node000025" class="edge">
<title>Node23&#45;&gt;Node25</title>
<g id="a_edge24_Node000023_Node000025"><a xlink:title=" ">
<path fill="none" stroke="#63b8ff" d="M617.76,-834.34C632.32,-831.99 647.18,-829.59 660.99,-827.36"/>
<polygon fill="#63b8ff" stroke="#63b8ff" points="617.52,-830.84 608.2,-835.89 618.63,-837.75 617.52,-830.84"/>
</a>
</g>
</g>
<!-- Node27 -->
<g id="Node000027" class="node">
<title>Node27</title>
<g id="a_Node000027"><a xlink:href="class_ogre_1_1v1_1_1_metal_texture_buffer.html" target="_top" xlink:title="Texture surface.">
<polygon fill="white" stroke="#666666" points="793.62,-789.88 655.38,-789.88 655.38,-770.62 793.62,-770.62 793.62,-789.88"/>
<text text-anchor="middle" x="724.5" y="-776.38" font-family="Helvetica,sans-Serif" font-size="10.00">Ogre::v1::MetalTextureBuffer</text>
</a>
</g>
</g>
<!-- Node26&#45;&gt;Node27 -->
<g id="edge26_Node000026_Node000027" class="edge">
<title>Node26&#45;&gt;Node27</title>
<g id="a_edge26_Node000026_Node000027"><a xlink:title=" ">
<path fill="none" stroke="#63b8ff" d="M614.21,-791.08C627.82,-789.73 641.81,-788.34 655.04,-787.03"/>
<polygon fill="#63b8ff" stroke="#63b8ff" points="613.99,-787.58 604.38,-792.05 614.68,-794.55 613.99,-787.58"/>
</a>
</g>
</g>
<!-- Node31 -->
<g id="Node000031" class="node">
<title>Node31</title>
<g id="a_Node000031"><a xlink:href="class_ogre_1_1v1_1_1_d3_d11_hardware_uniform_buffer.html" target="_top" xlink:title="Specialisation of HardwareBuffer for D3D11.">
<polygon fill="white" stroke="#666666" points="611.88,-667.5 449.62,-667.5 449.62,-637 611.88,-637 611.88,-667.5"/>
<text text-anchor="start" x="457.62" y="-654" font-family="Helvetica,sans-Serif" font-size="10.00">Ogre::v1::D3D11HardwareUniform</text>
<text text-anchor="middle" x="530.75" y="-642.75" font-family="Helvetica,sans-Serif" font-size="10.00">Buffer</text>
</a>
</g>
</g>
<!-- Node30&#45;&gt;Node31 -->
<g id="edge30_Node000030_Node000031" class="edge">
<title>Node30&#45;&gt;Node31</title>
<g id="a_edge30_Node000030_Node000031"><a xlink:title=" ">
<path fill="none" stroke="#63b8ff" d="M358.13,-552.96C379.12,-575.06 413.12,-607.49 448.5,-627.25 454.81,-630.78 461.69,-633.87 468.67,-636.57"/>
<polygon fill="#63b8ff" stroke="#63b8ff" points="360.9,-550.8 351.52,-545.87 355.78,-555.57 360.9,-550.8"/>
</a>
</g>
</g>
<!-- Node32 -->
<g id="Node000032" class="node">
<title>Node32</title>
<g id="a_Node000032"><a xlink:href="class_ogre_1_1v1_1_1_default_hardware_uniform_buffer.html" target="_top" xlink:title="Specialisation of HardwareUniformBuffer for emulation.">
<polygon fill="white" stroke="#666666" points="595.38,-618.5 466.12,-618.5 466.12,-588 595.38,-588 595.38,-618.5"/>
<text text-anchor="start" x="474.12" y="-605" font-family="Helvetica,sans-Serif" font-size="10.00">Ogre::v1::DefaultHardware</text>
<text text-anchor="middle" x="530.75" y="-593.75" font-family="Helvetica,sans-Serif" font-size="10.00">UniformBuffer</text>
</a>
</g>
</g>
<!-- Node30&#45;&gt;Node32 -->
<g id="edge31_Node000030_Node000032" class="edge">
<title>Node30&#45;&gt;Node32</title>
<g id="a_edge31_Node000030_Node000032"><a xlink:title=" ">
<path fill="none" stroke="#63b8ff" d="M379.97,-549.55C400.49,-558.86 425.53,-569.71 448.5,-578.25 457.21,-581.49 466.56,-584.65 475.7,-587.57"/>
<polygon fill="#63b8ff" stroke="#63b8ff" points="381.6,-546.45 371.05,-545.47 378.69,-552.82 381.6,-546.45"/>
</a>
</g>
</g>
<!-- Node33 -->
<g id="Node000033" class="node">
<title>Node33</title>
<g id="a_Node000033"><a xlink:href="class_ogre_1_1v1_1_1_g_l3_plus_default_hardware_uniform_buffer.html" target="_top" xlink:title="Specialisation of HardwareUniformBuffer for emulation.">
<polygon fill="white" stroke="#666666" points="593.5,-569.5 468,-569.5 468,-539 593.5,-539 593.5,-569.5"/>
<text text-anchor="start" x="476" y="-556" font-family="Helvetica,sans-Serif" font-size="10.00">Ogre::v1::GL3PlusDefault</text>
<text text-anchor="middle" x="530.75" y="-544.75" font-family="Helvetica,sans-Serif" font-size="10.00">HardwareUniformBuffer</text>
</a>
</g>
</g>
<!-- Node30&#45;&gt;Node33 -->
<g id="edge32_Node000030_Node000033" class="edge">
<title>Node30&#45;&gt;Node33</title>
<g id="a_edge32_Node000030_Node000033"><a xlink:title=" ">
<path fill="none" stroke="#63b8ff" d="M414,-539.25C431.87,-541.56 450.66,-544 467.79,-546.22"/>
<polygon fill="#63b8ff" stroke="#63b8ff" points="414.58,-535.79 404.21,-537.98 413.68,-542.73 414.58,-535.79"/>
</a>
</g>
</g>
<!-- Node34 -->
<g id="Node000034" class="node">
<title>Node34</title>
<g id="a_Node000034"><a xlink:href="class_ogre_1_1v1_1_1_g_l3_plus_hardware_shader_storage_buffer.html" target="_top" xlink:title="Specialisation of HardwareUniformBuffer for the OpenGL Shader Storage Buffer.">
<polygon fill="white" stroke="#666666" points="599.12,-520.5 462.38,-520.5 462.38,-490 599.12,-490 599.12,-520.5"/>
<text text-anchor="start" x="470.38" y="-507" font-family="Helvetica,sans-Serif" font-size="10.00">Ogre::v1::GL3PlusHardware</text>
<text text-anchor="middle" x="530.75" y="-495.75" font-family="Helvetica,sans-Serif" font-size="10.00">ShaderStorageBuffer</text>
</a>
</g>
</g>
<!-- Node30&#45;&gt;Node34 -->
<g id="edge33_Node000030_Node000034" class="edge">
<title>Node30&#45;&gt;Node34</title>
<g id="a_edge33_Node000030_Node000034"><a xlink:title=" ">
<path fill="none" stroke="#63b8ff" d="M414.08,-519.64C429.9,-517.67 446.45,-515.62 461.91,-513.69"/>
<polygon fill="#63b8ff" stroke="#63b8ff" points="413.71,-516.16 404.21,-520.87 414.57,-523.11 413.71,-516.16"/>
</a>
</g>
</g>
<!-- Node35 -->
<g id="Node000035" class="node">
<title>Node35</title>
<g id="a_Node000035"><a xlink:href="class_ogre_1_1v1_1_1_g_l3_plus_hardware_uniform_buffer.html" target="_top" xlink:title="Specialisation of HardwareUniformBuffer for OpenGL.">
<polygon fill="white" stroke="#666666" points="599.12,-471.5 462.38,-471.5 462.38,-441 599.12,-441 599.12,-471.5"/>
<text text-anchor="start" x="470.38" y="-458" font-family="Helvetica,sans-Serif" font-size="10.00">Ogre::v1::GL3PlusHardware</text>
<text text-anchor="middle" x="530.75" y="-446.75" font-family="Helvetica,sans-Serif" font-size="10.00">UniformBuffer</text>
</a>
</g>
</g>
<!-- Node30&#45;&gt;Node35 -->
<g id="edge34_Node000030_Node000035" class="edge">
<title>Node30&#45;&gt;Node35</title>
<g id="a_edge34_Node000030_Node000035"><a xlink:title=" ">
<path fill="none" stroke="#63b8ff" d="M381.2,-508.89C401.5,-499.9 426.01,-489.52 448.5,-481.25 457.23,-478.04 466.58,-474.9 475.72,-471.98"/>
<polygon fill="#63b8ff" stroke="#63b8ff" points="379.77,-505.69 372.07,-512.96 382.63,-512.08 379.77,-505.69"/>
</a>
</g>
</g>
<!-- Node36 -->
<g id="Node000036" class="node">
<title>Node36</title>
<g id="a_Node000036"><a xlink:href="class_ogre_1_1v1_1_1_g_l_e_s2_default_hardware_uniform_buffer.html" target="_top" xlink:title="Specialisation of HardwareUniformBuffer for emulation.">
<polygon fill="white" stroke="#666666" points="611.12,-422.5 450.38,-422.5 450.38,-392 611.12,-392 611.12,-422.5"/>
<text text-anchor="start" x="458.38" y="-409" font-family="Helvetica,sans-Serif" font-size="10.00">Ogre::v1::GLES2DefaultHardware</text>
<text text-anchor="middle" x="530.75" y="-397.75" font-family="Helvetica,sans-Serif" font-size="10.00">UniformBuffer</text>
</a>
</g>
</g>
<!-- Node30&#45;&gt;Node36 -->
<g id="edge35_Node000030_Node000036" class="edge">
<title>Node30&#45;&gt;Node36</title>
<g id="a_edge35_Node000030_Node000036"><a xlink:title=" ">
<path fill="none" stroke="#63b8ff" d="M358.53,-505.42C379.58,-483.57 413.43,-451.73 448.5,-432.25 454.82,-428.74 461.7,-425.66 468.69,-422.97"/>
<polygon fill="#63b8ff" stroke="#63b8ff" points="356.22,-502.77 351.89,-512.44 361.31,-507.58 356.22,-502.77"/>
</a>
</g>
</g>
<!-- Node37 -->
<g id="Node000037" class="node">
<title>Node37</title>
<g id="a_Node000037"><a xlink:href="class_ogre_1_1v1_1_1_g_l_e_s2_hardware_uniform_buffer.html" target="_top" xlink:title="Specialisation of HardwareUniformBuffer for OpenGL.">
<polygon fill="white" stroke="#666666" points="613,-373.5 448.5,-373.5 448.5,-343 613,-343 613,-373.5"/>
<text text-anchor="start" x="456.5" y="-360" font-family="Helvetica,sans-Serif" font-size="10.00">Ogre::v1::GLES2HardwareUniform</text>
<text text-anchor="middle" x="530.75" y="-348.75" font-family="Helvetica,sans-Serif" font-size="10.00">Buffer</text>
</a>
</g>
</g>
<!-- Node30&#45;&gt;Node37 -->
<g id="edge36_Node000030_Node000037" class="edge">
<title>Node30&#45;&gt;Node37</title>
<g id="a_edge36_Node000030_Node000037"><a xlink:title=" ">
<path fill="none" stroke="#63b8ff" d="M349.78,-503.84C367.63,-471.21 402.86,-415.03 448.5,-383.25 453.71,-379.62 459.46,-376.51 465.42,-373.84"/>
<polygon fill="#63b8ff" stroke="#63b8ff" points="346.73,-502.12 345.12,-512.6 352.91,-505.41 346.73,-502.12"/>
</a>
</g>
</g>
<!-- Node39 -->
<g id="Node000039" class="node">
<title>Node39</title>
<g id="a_Node000039"><a xlink:href="class_ogre_1_1v1_1_1_d3_d11_hardware_vertex_buffer.html" target="_top" xlink:title="Specialisation of HardwareVertexBuffer for D3D11.">
<polygon fill="white" stroke="#666666" points="608.5,-324.5 453,-324.5 453,-294 608.5,-294 608.5,-324.5"/>
<text text-anchor="start" x="461" y="-311" font-family="Helvetica,sans-Serif" font-size="10.00">Ogre::v1::D3D11HardwareVertex</text>
<text text-anchor="middle" x="530.75" y="-299.75" font-family="Helvetica,sans-Serif" font-size="10.00">Buffer</text>
</a>
</g>
</g>
<!-- Node38&#45;&gt;Node39 -->
<g id="edge38_Node000038_Node000039" class="edge">
<title>Node38&#45;&gt;Node39</title>
<g id="a_edge38_Node000038_Node000039"><a xlink:title=" ">
<path fill="none" stroke="#63b8ff" d="M358.53,-211.08C379.58,-232.93 413.43,-264.77 448.5,-284.25 454.82,-287.76 461.7,-290.84 468.69,-293.53"/>
<polygon fill="#63b8ff" stroke="#63b8ff" points="361.31,-208.92 351.89,-204.06 356.22,-213.73 361.31,-208.92"/>
</a>
</g>
</g>
<!-- Node40 -->
<g id="Node000040" class="node">
<title>Node40</title>
<g id="a_Node000040"><a xlink:href="class_ogre_1_1v1_1_1_default_hardware_vertex_buffer.html" target="_top" xlink:title="Specialisation of HardwareVertexBuffer for emulation.">
<polygon fill="white" stroke="#666666" points="595.38,-275.5 466.12,-275.5 466.12,-245 595.38,-245 595.38,-275.5"/>
<text text-anchor="start" x="474.12" y="-262" font-family="Helvetica,sans-Serif" font-size="10.00">Ogre::v1::DefaultHardware</text>
<text text-anchor="middle" x="530.75" y="-250.75" font-family="Helvetica,sans-Serif" font-size="10.00">VertexBuffer</text>
</a>
</g>
</g>
<!-- Node38&#45;&gt;Node40 -->
<g id="edge39_Node000038_Node000040" class="edge">
<title>Node38&#45;&gt;Node40</title>
<g id="a_edge39_Node000038_Node000040"><a xlink:title=" ">
<path fill="none" stroke="#63b8ff" d="M381.2,-207.61C401.5,-216.6 426.01,-226.98 448.5,-235.25 457.23,-238.46 466.58,-241.6 475.72,-244.52"/>
<polygon fill="#63b8ff" stroke="#63b8ff" points="382.63,-204.42 372.07,-203.54 379.77,-210.81 382.63,-204.42"/>
</a>
</g>
</g>
<!-- Node41 -->
<g id="Node000041" class="node">
<title>Node41</title>
<g id="a_Node000041"><a xlink:href="class_ogre_1_1v1_1_1_g_l3_plus_default_hardware_vertex_buffer.html" target="_top" xlink:title="Specialisation of HardwareVertexBuffer for emulation.">
<polygon fill="white" stroke="#666666" points="593.5,-226.5 468,-226.5 468,-196 593.5,-196 593.5,-226.5"/>
<text text-anchor="start" x="476" y="-213" font-family="Helvetica,sans-Serif" font-size="10.00">Ogre::v1::GL3PlusDefault</text>
<text text-anchor="middle" x="530.75" y="-201.75" font-family="Helvetica,sans-Serif" font-size="10.00">HardwareVertexBuffer</text>
</a>
</g>
</g>
<!-- Node38&#45;&gt;Node41 -->
<g id="edge40_Node000038_Node000041" class="edge">
<title>Node38&#45;&gt;Node41</title>
<g id="a_edge40_Node000038_Node000041"><a xlink:title=" ">
<path fill="none" stroke="#63b8ff" d="M410.73,-196.44C429.56,-198.78 449.6,-201.28 467.77,-203.54"/>
<polygon fill="#63b8ff" stroke="#63b8ff" points="411.35,-192.99 401,-195.23 410.49,-199.94 411.35,-192.99"/>
</a>
</g>
</g>
<!-- Node42 -->
<g id="Node000042" class="node">
<title>Node42</title>
<g id="a_Node000042"><a xlink:href="class_ogre_1_1v1_1_1_g_l3_plus_hardware_vertex_buffer.html" target="_top" xlink:title="Specialisation of HardwareVertexBuffer for OpenGL.">
<polygon fill="white" stroke="#666666" points="599.12,-177.5 462.38,-177.5 462.38,-147 599.12,-147 599.12,-177.5"/>
<text text-anchor="start" x="470.38" y="-164" font-family="Helvetica,sans-Serif" font-size="10.00">Ogre::v1::GL3PlusHardware</text>
<text text-anchor="middle" x="530.75" y="-152.75" font-family="Helvetica,sans-Serif" font-size="10.00">VertexBuffer</text>
</a>
</g>
</g>
<!-- Node38&#45;&gt;Node42 -->
<g id="edge41_Node000038_Node000042" class="edge">
<title>Node38&#45;&gt;Node42</title>
<g id="a_edge41_Node000038_Node000042"><a xlink:title=" ">
<path fill="none" stroke="#63b8ff" d="M410.48,-177.71C427.45,-175.51 445.42,-173.18 462.12,-171.02"/>
<polygon fill="#63b8ff" stroke="#63b8ff" points="410.46,-174.18 401,-178.94 411.36,-181.12 410.46,-174.18"/>
</a>
</g>
</g>
<!-- Node43 -->
<g id="Node000043" class="node">
<title>Node43</title>
<g id="a_Node000043"><a xlink:href="class_ogre_1_1v1_1_1_g_l_e_s2_default_hardware_vertex_buffer.html" target="_top" xlink:title="Specialisation of HardwareVertexBuffer for emulation.">
<polygon fill="white" stroke="#666666" points="611.12,-128.5 450.38,-128.5 450.38,-98 611.12,-98 611.12,-128.5"/>
<text text-anchor="start" x="458.38" y="-115" font-family="Helvetica,sans-Serif" font-size="10.00">Ogre::v1::GLES2DefaultHardware</text>
<text text-anchor="middle" x="530.75" y="-103.75" font-family="Helvetica,sans-Serif" font-size="10.00">VertexBuffer</text>
</a>
</g>
</g>
<!-- Node38&#45;&gt;Node43 -->
<g id="edge42_Node000038_Node000043" class="edge">
<title>Node38&#45;&gt;Node43</title>
<g id="a_edge42_Node000038_Node000043"><a xlink:title=" ">
<path fill="none" stroke="#63b8ff" d="M379.97,-166.95C400.49,-157.64 425.53,-146.79 448.5,-138.25 457.21,-135.01 466.56,-131.85 475.7,-128.93"/>
<polygon fill="#63b8ff" stroke="#63b8ff" points="378.69,-163.68 371.05,-171.03 381.6,-170.05 378.69,-163.68"/>
</a>
</g>
</g>
<!-- Node44 -->
<g id="Node000044" class="node">
<title>Node44</title>
<g id="a_Node000044"><a xlink:href="class_ogre_1_1v1_1_1_metal_hardware_vertex_buffer.html" target="_top" xlink:title="Specialisation of HardwareVertexBuffer for Metal.">
<polygon fill="white" stroke="#666666" points="605.88,-79.5 455.62,-79.5 455.62,-49 605.88,-49 605.88,-79.5"/>
<text text-anchor="start" x="463.62" y="-66" font-family="Helvetica,sans-Serif" font-size="10.00">Ogre::v1::MetalHardwareVertex</text>
<text text-anchor="middle" x="530.75" y="-54.75" font-family="Helvetica,sans-Serif" font-size="10.00">Buffer</text>
</a>
</g>
</g>
<!-- Node38&#45;&gt;Node44 -->
<g id="edge43_Node000038_Node000044" class="edge">
<title>Node38&#45;&gt;Node44</title>
<g id="a_edge43_Node000038_Node000044"><a xlink:title=" ">
<path fill="none" stroke="#63b8ff" d="M358.13,-163.54C379.12,-141.44 413.12,-109.01 448.5,-89.25 454.81,-85.72 461.69,-82.63 468.67,-79.93"/>
<polygon fill="#63b8ff" stroke="#63b8ff" points="355.78,-160.93 351.52,-170.63 360.9,-165.7 355.78,-160.93"/>
</a>
</g>
</g>
<!-- Node45 -->
<g id="Node000045" class="node">
<title>Node45</title>
<g id="a_Node000045"><a xlink:href="class_ogre_1_1v1_1_1_vulkan_hardware_vertex_buffer.html" target="_top" xlink:title=" ">
<polygon fill="white" stroke="#666666" points="595,-30.5 466.5,-30.5 466.5,0 595,0 595,-30.5"/>
<text text-anchor="start" x="474.5" y="-17" font-family="Helvetica,sans-Serif" font-size="10.00">Ogre::v1::VulkanHardware</text>
<text text-anchor="middle" x="530.75" y="-5.75" font-family="Helvetica,sans-Serif" font-size="10.00">VertexBuffer</text>
</a>
</g>
</g>
<!-- Node38&#45;&gt;Node45 -->
<g id="edge44_Node000038_Node000045" class="edge">
<title>Node38&#45;&gt;Node45</title>
<g id="a_edge44_Node000038_Node000045"><a xlink:title=" ">
<path fill="none" stroke="#63b8ff" d="M349.74,-161.66C367.53,-128.81 402.72,-72.24 448.5,-40.25 453.94,-36.45 459.98,-33.21 466.24,-30.45"/>
<polygon fill="#63b8ff" stroke="#63b8ff" points="346.65,-160.01 345.08,-170.49 352.85,-163.27 346.65,-160.01"/>
</a>
</g>
</g>
</g>
</svg>
