<?xml version="1.0" encoding="UTF-8" standalone="no"?>
<!DOCTYPE svg PUBLIC "-//W3C//DTD SVG 1.1//EN"
 "http://www.w3.org/Graphics/SVG/1.1/DTD/svg11.dtd">
<!-- Generated by graphviz version 9.0.0 (20230911.1827)
 -->
<!-- Title: Ogre::ResourceManager Pages: 1 -->
<svg width="646pt" height="434pt"
 viewBox="0.00 0.00 645.75 434.25" xmlns="http://www.w3.org/2000/svg" xmlns:xlink="http://www.w3.org/1999/xlink">
<g id="graph0" class="graph" transform="scale(1 1) rotate(0) translate(4 430.25)">
<title>Ogre::ResourceManager</title>
<!-- Node1 -->
<g id="Node000001" class="node">
<title>Node1</title>
<g id="a_Node000001"><a xlink:title="Defines a generic resource handler.">
<polygon fill="#999999" stroke="#666666" points="253.25,-216.25 133,-216.25 133,-197 253.25,-197 253.25,-216.25"/>
<text text-anchor="middle" x="193.12" y="-202.75" font-family="Helvetica,sans-Serif" font-size="10.00">Ogre::ResourceManager</text>
</a>
</g>
</g>
<!-- Node4 -->
<g id="Node000004" class="node">
<title>Node4</title>
<g id="a_Node000004"><a xlink:href="class_ogre_1_1_bsp_resource_manager.html" target="_top" xlink:title="Manages the locating and loading of BSP&#45;based indoor levels.">
<polygon fill="white" stroke="#666666" points="431.62,-376.25 294.12,-376.25 294.12,-357 431.62,-357 431.62,-376.25"/>
<text text-anchor="middle" x="362.88" y="-362.75" font-family="Helvetica,sans-Serif" font-size="10.00">Ogre::BspResourceManager</text>
</a>
</g>
</g>
<!-- Node1&#45;&gt;Node4 -->
<g id="edge3_Node000001_Node000004" class="edge">
<title>Node1&#45;&gt;Node4</title>
<g id="a_edge3_Node000001_Node000004"><a xlink:title=" ">
<path fill="none" stroke="#63b8ff" d="M202.15,-227.24C215.4,-258.49 244.88,-317.5 289.25,-348.62 293.82,-351.83 298.91,-354.47 304.21,-356.64"/>
<polygon fill="#63b8ff" stroke="#63b8ff" points="205.45,-226.08 198.44,-218.14 198.97,-228.73 205.45,-226.08"/>
</a>
</g>
</g>
<!-- Node5 -->
<g id="Node000005" class="node">
<title>Node5</title>
<g id="a_Node000005"><a xlink:href="class_ogre_1_1_font_manager.html" target="_top" xlink:title="Manages Font resources, parsing .fontdef files and generally organising them.">
<polygon fill="white" stroke="#666666" points="412.12,-339.25 313.62,-339.25 313.62,-320 412.12,-320 412.12,-339.25"/>
<text text-anchor="middle" x="362.88" y="-325.75" font-family="Helvetica,sans-Serif" font-size="10.00">Ogre::FontManager</text>
</a>
</g>
</g>
<!-- Node1&#45;&gt;Node5 -->
<g id="edge4_Node000001_Node000005" class="edge">
<title>Node1&#45;&gt;Node5</title>
<g id="a_edge4_Node000001_Node000005"><a xlink:title=" ">
<path fill="none" stroke="#63b8ff" d="M206.27,-225.91C222.31,-249.76 252.84,-289.86 289.25,-311.62 296.61,-316.02 305,-319.35 313.4,-321.87"/>
<polygon fill="#63b8ff" stroke="#63b8ff" points="209.35,-224.23 200.95,-217.77 203.49,-228.06 209.35,-224.23"/>
</a>
</g>
</g>
<!-- Node6 -->
<g id="Node000006" class="node">
<title>Node6</title>
<g id="a_Node000006"><a xlink:href="class_ogre_1_1_gpu_program_manager.html" target="_top" xlink:title=" ">
<polygon fill="white" stroke="#666666" points="429.75,-302.25 296,-302.25 296,-283 429.75,-283 429.75,-302.25"/>
<text text-anchor="middle" x="362.88" y="-288.75" font-family="Helvetica,sans-Serif" font-size="10.00">Ogre::GpuProgramManager</text>
</a>
</g>
</g>
<!-- Node1&#45;&gt;Node6 -->
<g id="edge5_Node000001_Node000006" class="edge">
<title>Node1&#45;&gt;Node6</title>
<g id="a_edge5_Node000001_Node000006"><a xlink:title=" ">
<path fill="none" stroke="#63b8ff" d="M213.91,-223.78C232.29,-238.9 261.01,-260.51 289.25,-273.62 296.82,-277.14 305.14,-280.08 313.36,-282.52"/>
<polygon fill="#63b8ff" stroke="#63b8ff" points="216.36,-221.27 206.46,-217.52 211.86,-226.63 216.36,-221.27"/>
</a>
</g>
</g>
<!-- Node13 -->
<g id="Node000013" class="node">
<title>Node13</title>
<g id="a_Node000013"><a xlink:href="class_ogre_1_1_high_level_gpu_program_manager.html" target="_top" xlink:title="This ResourceManager manages high&#45;level vertex and fragment programs.">
<polygon fill="white" stroke="#666666" points="433.12,-264.88 292.62,-264.88 292.62,-234.38 433.12,-234.38 433.12,-264.88"/>
<text text-anchor="start" x="300.62" y="-251.38" font-family="Helvetica,sans-Serif" font-size="10.00">Ogre::HighLevelGpuProgram</text>
<text text-anchor="middle" x="362.88" y="-240.12" font-family="Helvetica,sans-Serif" font-size="10.00">Manager</text>
</a>
</g>
</g>
<!-- Node1&#45;&gt;Node13 -->
<g id="edge12_Node000001_Node000013" class="edge">
<title>Node1&#45;&gt;Node13</title>
<g id="a_edge12_Node000001_Node000013"><a xlink:title=" ">
<path fill="none" stroke="#63b8ff" d="M244.38,-219.51C262.01,-224.03 282.02,-229.16 300.47,-233.88"/>
<polygon fill="#63b8ff" stroke="#63b8ff" points="245.48,-216.18 234.92,-217.08 243.74,-222.96 245.48,-216.18"/>
</a>
</g>
</g>
<!-- Node14 -->
<g id="Node000014" class="node">
<title>Node14</title>
<g id="a_Node000014"><a xlink:href="class_ogre_1_1_material_manager.html" target="_top" xlink:title="Class for managing Material settings for Ogre.">
<polygon fill="white" stroke="#666666" points="419.62,-216.25 306.12,-216.25 306.12,-197 419.62,-197 419.62,-216.25"/>
<text text-anchor="middle" x="362.88" y="-202.75" font-family="Helvetica,sans-Serif" font-size="10.00">Ogre::MaterialManager</text>
</a>
</g>
</g>
<!-- Node1&#45;&gt;Node14 -->
<g id="edge13_Node000001_Node000014" class="edge">
<title>Node1&#45;&gt;Node14</title>
<g id="a_edge13_Node000001_Node000014"><a xlink:title=" ">
<path fill="none" stroke="#63b8ff" d="M265.04,-206.62C278.66,-206.62 292.75,-206.62 305.82,-206.62"/>
<polygon fill="#63b8ff" stroke="#63b8ff" points="265.25,-203.13 255.25,-206.63 265.25,-210.13 265.25,-203.13"/>
</a>
</g>
</g>
<!-- Node15 -->
<g id="Node000015" class="node">
<title>Node15</title>
<g id="a_Node000015"><a xlink:href="class_ogre_1_1_mesh_manager.html" target="_top" xlink:title="Handles the management of mesh resources.">
<polygon fill="white" stroke="#666666" points="414.38,-179.25 311.38,-179.25 311.38,-160 414.38,-160 414.38,-179.25"/>
<text text-anchor="middle" x="362.88" y="-165.75" font-family="Helvetica,sans-Serif" font-size="10.00">Ogre::MeshManager</text>
</a>
</g>
</g>
<!-- Node1&#45;&gt;Node15 -->
<g id="edge14_Node000001_Node000015" class="edge">
<title>Node1&#45;&gt;Node15</title>
<g id="a_edge14_Node000001_Node000015"><a xlink:title=" ">
<path fill="none" stroke="#63b8ff" d="M251.1,-194.06C272.29,-189.38 296.03,-184.15 316.09,-179.72"/>
<polygon fill="#63b8ff" stroke="#63b8ff" points="250.45,-190.62 241.44,-196.19 251.96,-197.45 250.45,-190.62"/>
</a>
</g>
</g>
<!-- Node16 -->
<g id="Node000016" class="node">
<title>Node16</title>
<g id="a_Node000016"><a xlink:href="class_ogre_1_1_texture_manager.html" target="_top" xlink:title="Class for loading &amp; managing textures.">
<polygon fill="white" stroke="#666666" points="418.5,-142.25 307.25,-142.25 307.25,-123 418.5,-123 418.5,-142.25"/>
<text text-anchor="middle" x="362.88" y="-128.75" font-family="Helvetica,sans-Serif" font-size="10.00">Ogre::TextureManager</text>
</a>
</g>
</g>
<!-- Node1&#45;&gt;Node16 -->
<g id="edge15_Node000001_Node000016" class="edge">
<title>Node1&#45;&gt;Node16</title>
<g id="a_edge15_Node000001_Node000016"><a xlink:title=" ">
<path fill="none" stroke="#63b8ff" d="M217.71,-190.12C236.38,-177.73 263.5,-161.13 289.25,-150.62 296.71,-147.58 304.81,-144.96 312.81,-142.73"/>
<polygon fill="#63b8ff" stroke="#63b8ff" points="215.84,-187.16 209.52,-195.67 219.77,-192.96 215.84,-187.16"/>
</a>
</g>
</g>
<!-- Node23 -->
<g id="Node000023" class="node">
<title>Node23</title>
<g id="a_Node000023"><a xlink:href="class_ogre_1_1v1_1_1_mesh_manager.html" target="_top" xlink:title="Handles the management of mesh resources.">
<polygon fill="white" stroke="#666666" points="421.88,-105.25 303.88,-105.25 303.88,-86 421.88,-86 421.88,-105.25"/>
<text text-anchor="middle" x="362.88" y="-91.75" font-family="Helvetica,sans-Serif" font-size="10.00">Ogre::v1::MeshManager</text>
</a>
</g>
</g>
<!-- Node1&#45;&gt;Node23 -->
<g id="edge22_Node000001_Node000023" class="edge">
<title>Node1&#45;&gt;Node23</title>
<g id="a_edge22_Node000001_Node000023"><a xlink:title=" ">
<path fill="none" stroke="#63b8ff" d="M208.26,-187.71C225.17,-166.45 255.46,-132.46 289.25,-113.62 294.92,-110.46 301.15,-107.85 307.5,-105.69"/>
<polygon fill="#63b8ff" stroke="#63b8ff" points="205.55,-185.49 202.2,-195.54 211.09,-189.78 205.55,-185.49"/>
</a>
</g>
</g>
<!-- Node24 -->
<g id="Node000024" class="node">
<title>Node24</title>
<g id="a_Node000024"><a xlink:href="class_ogre_1_1v1_1_1_old_skeleton_manager.html" target="_top" xlink:title="Handles the management of skeleton resources.">
<polygon fill="white" stroke="#666666" points="436.5,-68.25 289.25,-68.25 289.25,-49 436.5,-49 436.5,-68.25"/>
<text text-anchor="middle" x="362.88" y="-54.75" font-family="Helvetica,sans-Serif" font-size="10.00">Ogre::v1::OldSkeletonManager</text>
</a>
</g>
</g>
<!-- Node1&#45;&gt;Node24 -->
<g id="edge23_Node000001_Node000024" class="edge">
<title>Node1&#45;&gt;Node24</title>
<g id="a_edge23_Node000001_Node000024"><a xlink:title=" ">
<path fill="none" stroke="#63b8ff" d="M203.22,-186.52C217.37,-157.6 247.43,-104.69 289.25,-76.62 294,-73.44 299.26,-70.82 304.71,-68.66"/>
<polygon fill="#63b8ff" stroke="#63b8ff" points="200.19,-184.74 199.09,-195.28 206.52,-187.73 200.19,-184.74"/>
</a>
</g>
</g>
<!-- Node2 -->
<g id="Node000002" class="node">
<title>Node2</title>
<g id="a_Node000002"><a xlink:href="class_ogre_1_1_script_loader.html" target="_top" xlink:title="Abstract class defining the interface used by classes which wish to perform script loading to define ...">
<polygon fill="white" stroke="#666666" points="97,-235.25 0,-235.25 0,-216 97,-216 97,-235.25"/>
<text text-anchor="middle" x="48.5" y="-221.75" font-family="Helvetica,sans-Serif" font-size="10.00">Ogre::ScriptLoader</text>
</a>
</g>
</g>
<!-- Node2&#45;&gt;Node1 -->
<g id="edge1_Node000001_Node000002" class="edge">
<title>Node2&#45;&gt;Node1</title>
<g id="a_edge1_Node000001_Node000002"><a xlink:title=" ">
<path fill="none" stroke="#63b8ff" d="M108.78,-217.73C116.69,-216.67 124.8,-215.59 132.71,-214.54"/>
<polygon fill="#63b8ff" stroke="#63b8ff" points="108.34,-214.26 98.89,-219.05 109.26,-221.19 108.34,-214.26"/>
</a>
</g>
</g>
<!-- Node3 -->
<g id="Node000003" class="node">
<title>Node3</title>
<g id="a_Node000003"><a xlink:href="class_ogre_1_1_allocated_object.html" target="_top" xlink:title="Superclass for all objects that wish to use custom memory allocators when their new / delete operator...">
<polygon fill="white" stroke="#666666" points="88,-198.25 9,-198.25 9,-179 88,-179 88,-198.25"/>
<text text-anchor="middle" x="48.5" y="-184.75" font-family="Helvetica,sans-Serif" font-size="10.00">ResourceAlloc</text>
</a>
</g>
</g>
<!-- Node3&#45;&gt;Node1 -->
<g id="edge2_Node000001_Node000003" class="edge">
<title>Node3&#45;&gt;Node1</title>
<g id="a_edge2_Node000001_Node000003"><a xlink:title=" ">
<path fill="none" stroke="#63b8ff" d="M99.69,-194.96C110.32,-196.3 121.64,-197.73 132.58,-199.11"/>
<polygon fill="#63b8ff" stroke="#63b8ff" points="100.33,-191.51 89.97,-193.73 99.46,-198.46 100.33,-191.51"/>
</a>
</g>
</g>
<!-- Node7 -->
<g id="Node000007" class="node">
<title>Node7</title>
<g id="a_Node000007"><a xlink:href="class_ogre_1_1_d3_d11_gpu_program_manager.html" target="_top" xlink:title=" ">
<polygon fill="white" stroke="#666666" points="636.62,-426.25 473.62,-426.25 473.62,-407 636.62,-407 636.62,-426.25"/>
<text text-anchor="middle" x="555.12" y="-412.75" font-family="Helvetica,sans-Serif" font-size="10.00">Ogre::D3D11GpuProgramManager</text>
</a>
</g>
</g>
<!-- Node6&#45;&gt;Node7 -->
<g id="edge6_Node000006_Node000007" class="edge">
<title>Node6&#45;&gt;Node7</title>
<g id="a_edge6_Node000006_Node000007"><a xlink:title=" ">
<path fill="none" stroke="#63b8ff" d="M434.05,-308.64C434.89,-309.28 435.7,-309.94 436.5,-310.62 468.47,-338.26 440.17,-371.41 472.5,-398.62 476.27,-401.8 480.49,-404.45 484.95,-406.66"/>
<polygon fill="#63b8ff" stroke="#63b8ff" points="436.04,-305.76 425.69,-303.5 432.38,-311.72 436.04,-305.76"/>
</a>
</g>
</g>
<!-- Node8 -->
<g id="Node000008" class="node">
<title>Node8</title>
<g id="a_Node000008"><a xlink:href="class_ogre_1_1_d3_d9_gpu_program_manager.html" target="_top" xlink:title=" ">
<polygon fill="white" stroke="#666666" points="634,-389.25 476.25,-389.25 476.25,-370 634,-370 634,-389.25"/>
<text text-anchor="middle" x="555.12" y="-375.75" font-family="Helvetica,sans-Serif" font-size="10.00">Ogre::D3D9GpuProgramManager</text>
</a>
</g>
</g>
<!-- Node6&#45;&gt;Node8 -->
<g id="edge7_Node000006_Node000008" class="edge">
<title>Node6&#45;&gt;Node8</title>
<g id="a_edge7_Node000006_Node000008"><a xlink:title=" ">
<path fill="none" stroke="#63b8ff" d="M431.58,-307.57C433.27,-308.52 434.91,-309.54 436.5,-310.62 459.41,-326.28 449.39,-346.27 472.5,-361.62 477.21,-364.76 482.39,-367.35 487.77,-369.5"/>
<polygon fill="#63b8ff" stroke="#63b8ff" points="433.36,-304.54 422.83,-303.38 430.34,-310.85 433.36,-304.54"/>
</a>
</g>
</g>
<!-- Node9 -->
<g id="Node000009" class="node">
<title>Node9</title>
<g id="a_Node000009"><a xlink:href="class_ogre_1_1_g_l_e_s2_gpu_program_manager.html" target="_top" xlink:title=" ">
<polygon fill="white" stroke="#666666" points="637.75,-352.25 472.5,-352.25 472.5,-333 637.75,-333 637.75,-352.25"/>
<text text-anchor="middle" x="555.12" y="-338.75" font-family="Helvetica,sans-Serif" font-size="10.00">Ogre::GLES2GpuProgramManager</text>
</a>
</g>
</g>
<!-- Node6&#45;&gt;Node9 -->
<g id="edge8_Node000006_Node000009" class="edge">
<title>Node6&#45;&gt;Node9</title>
<g id="a_edge8_Node000006_Node000009"><a xlink:title=" ">
<path fill="none" stroke="#63b8ff" d="M419.4,-305.61C425.2,-307.2 430.99,-308.88 436.5,-310.62 452.87,-315.81 456.07,-319.65 472.5,-324.62 482.22,-327.57 492.73,-330.25 502.87,-332.59"/>
<polygon fill="#63b8ff" stroke="#63b8ff" points="420.32,-302.23 409.76,-303.06 418.53,-309 420.32,-302.23"/>
</a>
</g>
</g>
<!-- Node10 -->
<g id="Node000010" class="node">
<title>Node10</title>
<g id="a_Node000010"><a xlink:href="class_ogre_1_1_g_l_s_l_shader_manager.html" target="_top" xlink:title=" ">
<polygon fill="white" stroke="#666666" points="623.12,-315.25 487.12,-315.25 487.12,-296 623.12,-296 623.12,-315.25"/>
<text text-anchor="middle" x="555.12" y="-301.75" font-family="Helvetica,sans-Serif" font-size="10.00">Ogre::GLSLShaderManager</text>
</a>
</g>
</g>
<!-- Node6&#45;&gt;Node10 -->
<g id="edge9_Node000006_Node000010" class="edge">
<title>Node6&#45;&gt;Node10</title>
<g id="a_edge9_Node000006_Node000010"><a xlink:title=" ">
<path fill="none" stroke="#63b8ff" d="M441.49,-297.93C456.51,-298.96 472.14,-300.02 486.8,-301.02"/>
<polygon fill="#63b8ff" stroke="#63b8ff" points="441.87,-294.45 431.66,-297.26 441.4,-301.43 441.87,-294.45"/>
</a>
</g>
</g>
<!-- Node11 -->
<g id="Node000011" class="node">
<title>Node11</title>
<g id="a_Node000011"><a xlink:href="class_ogre_1_1_metal_gpu_program_manager.html" target="_top" xlink:title=" ">
<polygon fill="white" stroke="#666666" points="634,-278.25 476.25,-278.25 476.25,-259 634,-259 634,-278.25"/>
<text text-anchor="middle" x="555.12" y="-264.75" font-family="Helvetica,sans-Serif" font-size="10.00">Ogre::MetalGpuProgramManager</text>
</a>
</g>
</g>
<!-- Node6&#45;&gt;Node11 -->
<g id="edge10_Node000006_Node000011" class="edge">
<title>Node6&#45;&gt;Node11</title>
<g id="a_edge10_Node000006_Node000011"><a xlink:title=" ">
<path fill="none" stroke="#63b8ff" d="M441.41,-282.84C452.82,-281.4 464.58,-279.92 476,-278.48"/>
<polygon fill="#63b8ff" stroke="#63b8ff" points="441.13,-279.35 431.65,-284.08 442.01,-286.3 441.13,-279.35"/>
</a>
</g>
</g>
<!-- Node12 -->
<g id="Node000012" class="node">
<title>Node12</title>
<g id="a_Node000012"><a xlink:href="class_ogre_1_1_vulkan_gpu_program_manager.html" target="_top" xlink:title=" ">
<polygon fill="white" stroke="#666666" points="637,-241.25 473.25,-241.25 473.25,-222 637,-222 637,-241.25"/>
<text text-anchor="middle" x="555.12" y="-227.75" font-family="Helvetica,sans-Serif" font-size="10.00">Ogre::VulkanGpuProgramManager</text>
</a>
</g>
</g>
<!-- Node6&#45;&gt;Node12 -->
<g id="edge11_Node000006_Node000012" class="edge">
<title>Node6&#45;&gt;Node12</title>
<g id="a_edge11_Node000006_Node000012"><a xlink:title=" ">
<path fill="none" stroke="#63b8ff" d="M422.29,-279.19C427.17,-277.51 431.96,-275.66 436.5,-273.62 454.04,-265.75 454.81,-257.16 472.5,-249.62 479.84,-246.5 487.8,-243.88 495.76,-241.71"/>
<polygon fill="#63b8ff" stroke="#63b8ff" points="421.46,-275.78 412.98,-282.13 423.57,-282.45 421.46,-275.78"/>
</a>
</g>
</g>
<!-- Node17 -->
<g id="Node000017" class="node">
<title>Node17</title>
<g id="a_Node000017"><a xlink:href="class_ogre_1_1_d3_d11_texture_manager.html" target="_top" xlink:title=" ">
<polygon fill="white" stroke="#666666" points="625.38,-204.25 484.88,-204.25 484.88,-185 625.38,-185 625.38,-204.25"/>
<text text-anchor="middle" x="555.12" y="-190.75" font-family="Helvetica,sans-Serif" font-size="10.00">Ogre::D3D11TextureManager</text>
</a>
</g>
</g>
<!-- Node16&#45;&gt;Node17 -->
<g id="edge16_Node000016_Node000017" class="edge">
<title>Node16&#45;&gt;Node17</title>
<g id="a_edge16_Node000016_Node000017"><a xlink:title=" ">
<path fill="none" stroke="#63b8ff" d="M426.04,-146.32C429.63,-147.63 433.14,-149.07 436.5,-150.62 454.4,-158.93 454.49,-168.55 472.5,-176.62 479.52,-179.77 487.13,-182.38 494.79,-184.55"/>
<polygon fill="#63b8ff" stroke="#63b8ff" points="427.16,-143 416.56,-143.17 424.95,-149.64 427.16,-143"/>
</a>
</g>
</g>
<!-- Node18 -->
<g id="Node000018" class="node">
<title>Node18</title>
<g id="a_Node000018"><a xlink:href="class_ogre_1_1_d3_d9_texture_manager.html" target="_top" xlink:title=" ">
<polygon fill="white" stroke="#666666" points="622.75,-167.25 487.5,-167.25 487.5,-148 622.75,-148 622.75,-167.25"/>
<text text-anchor="middle" x="555.12" y="-153.75" font-family="Helvetica,sans-Serif" font-size="10.00">Ogre::D3D9TextureManager</text>
</a>
</g>
</g>
<!-- Node16&#45;&gt;Node18 -->
<g id="edge17_Node000016_Node000018" class="edge">
<title>Node16&#45;&gt;Node18</title>
<g id="a_edge17_Node000016_Node000018"><a xlink:title=" ">
<path fill="none" stroke="#63b8ff" d="M430.14,-141.33C448.57,-143.75 468.6,-146.39 487.07,-148.81"/>
<polygon fill="#63b8ff" stroke="#63b8ff" points="430.77,-137.89 420.4,-140.05 429.86,-144.83 430.77,-137.89"/>
</a>
</g>
</g>
<!-- Node19 -->
<g id="Node000019" class="node">
<title>Node19</title>
<g id="a_Node000019"><a xlink:href="class_ogre_1_1_g_l3_plus_texture_manager.html" target="_top" xlink:title="GL3Plus&#45;specific implementation of a TextureManager.">
<polygon fill="white" stroke="#666666" points="629.88,-130.25 480.38,-130.25 480.38,-111 629.88,-111 629.88,-130.25"/>
<text text-anchor="middle" x="555.12" y="-116.75" font-family="Helvetica,sans-Serif" font-size="10.00">Ogre::GL3PlusTextureManager</text>
</a>
</g>
</g>
<!-- Node16&#45;&gt;Node19 -->
<g id="edge18_Node000016_Node000019" class="edge">
<title>Node16&#45;&gt;Node19</title>
<g id="a_edge18_Node000016_Node000019"><a xlink:title=" ">
<path fill="none" stroke="#63b8ff" d="M430.36,-128.43C446.44,-127.42 463.71,-126.33 480.11,-125.29"/>
<polygon fill="#63b8ff" stroke="#63b8ff" points="430.17,-124.94 420.41,-129.06 430.61,-131.92 430.17,-124.94"/>
</a>
</g>
</g>
<!-- Node20 -->
<g id="Node000020" class="node">
<title>Node20</title>
<g id="a_Node000020"><a xlink:href="class_ogre_1_1_g_l_e_s2_texture_manager.html" target="_top" xlink:title="GL ES&#45;specific implementation of a TextureManager.">
<polygon fill="white" stroke="#666666" points="626.5,-93.25 483.75,-93.25 483.75,-74 626.5,-74 626.5,-93.25"/>
<text text-anchor="middle" x="555.12" y="-79.75" font-family="Helvetica,sans-Serif" font-size="10.00">Ogre::GLES2TextureManager</text>
</a>
</g>
</g>
<!-- Node16&#45;&gt;Node20 -->
<g id="edge19_Node000016_Node000020" class="edge">
<title>Node16&#45;&gt;Node20</title>
<g id="a_edge19_Node000016_Node000020"><a xlink:title=" ">
<path fill="none" stroke="#63b8ff" d="M418.67,-119.69C424.71,-118.07 430.75,-116.37 436.5,-114.62 452.78,-109.68 456.16,-106.36 472.5,-101.62 482.54,-98.72 493.38,-96.02 503.79,-93.65"/>
<polygon fill="#63b8ff" stroke="#63b8ff" points="418.12,-116.22 409.32,-122.12 419.88,-122.99 418.12,-116.22"/>
</a>
</g>
</g>
<!-- Node21 -->
<g id="Node000021" class="node">
<title>Node21</title>
<g id="a_Node000021"><a xlink:href="class_ogre_1_1_metal_texture_manager.html" target="_top" xlink:title=" ">
<polygon fill="white" stroke="#666666" points="622.75,-56.25 487.5,-56.25 487.5,-37 622.75,-37 622.75,-56.25"/>
<text text-anchor="middle" x="555.12" y="-42.75" font-family="Helvetica,sans-Serif" font-size="10.00">Ogre::MetalTextureManager</text>
</a>
</g>
</g>
<!-- Node16&#45;&gt;Node21 -->
<g id="edge20_Node000016_Node000021" class="edge">
<title>Node16&#45;&gt;Node21</title>
<g id="a_edge20_Node000016_Node000021"><a xlink:title=" ">
<path fill="none" stroke="#63b8ff" d="M429.09,-118.99C431.67,-117.67 434.15,-116.22 436.5,-114.62 459.18,-99.28 449.62,-79.68 472.5,-64.62 477.35,-61.43 482.68,-58.8 488.21,-56.63"/>
<polygon fill="#63b8ff" stroke="#63b8ff" points="427.97,-115.67 420.21,-122.88 430.77,-122.08 427.97,-115.67"/>
</a>
</g>
</g>
<!-- Node22 -->
<g id="Node000022" class="node">
<title>Node22</title>
<g id="a_Node000022"><a xlink:href="class_ogre_1_1_n_u_l_l_texture_manager.html" target="_top" xlink:title=" ">
<polygon fill="white" stroke="#666666" points="624.25,-19.25 486,-19.25 486,0 624.25,0 624.25,-19.25"/>
<text text-anchor="middle" x="555.12" y="-5.75" font-family="Helvetica,sans-Serif" font-size="10.00">Ogre::NULLTextureManager</text>
</a>
</g>
</g>
<!-- Node16&#45;&gt;Node22 -->
<g id="edge21_Node000016_Node000022" class="edge">
<title>Node16&#45;&gt;Node22</title>
<g id="a_edge21_Node000016_Node000022"><a xlink:title=" ">
<path fill="none" stroke="#63b8ff" d="M429.03,-119.99C431.67,-118.4 434.18,-116.62 436.5,-114.62 468.22,-87.33 440.43,-54.51 472.5,-27.62 476.5,-24.27 480.99,-21.5 485.76,-19.22"/>
<polygon fill="#63b8ff" stroke="#63b8ff" points="427.76,-116.72 420.33,-124.28 430.85,-123 427.76,-116.72"/>
</a>
</g>
</g>
</g>
</svg>
