<?xml version="1.0" encoding="UTF-8" standalone="no"?>
<!DOCTYPE svg PUBLIC "-//W3C//DTD SVG 1.1//EN"
 "http://www.w3.org/Graphics/SVG/1.1/DTD/svg11.dtd">
<!-- Generated by graphviz version 7.0.5 (20221223.1930)
 -->
<!-- Title: Ogre::HighLevelGpuProgram Pages: 1 -->
<svg width="713pt" height="224pt"
 viewBox="0.00 0.00 713.00 224.00" xmlns="http://www.w3.org/2000/svg" xmlns:xlink="http://www.w3.org/1999/xlink">
<g id="graph0" class="graph" transform="scale(1 1) rotate(0) translate(4 220)">
<title>Ogre::HighLevelGpuProgram</title>
<!-- Node1 -->
<g id="node1" class="node">
<title>Node1</title>
<g id="a_node1"><a xlink:title="Abstract base class representing a high&#45;level program (a vertex or fragment program).">
<polygon fill="#999999" stroke="#666666" points="535,-123 394,-123 394,-104 535,-104 535,-123"/>
<text text-anchor="middle" x="464.5" y="-111" font-family="Helvetica,sans-Serif" font-size="10.00">Ogre::HighLevelGpuProgram</text>
</a>
</g>
</g>
<!-- Node6 -->
<g id="node6" class="node">
<title>Node6</title>
<g id="a_node6"><a xlink:href="class_ogre_1_1_d3_d11_h_l_s_l_program.html" target="_top" xlink:title="Specialization of HighLevelGpuProgram to provide support for D3D11 High&#45;Level Shader Language (HLSL).">
<polygon fill="white" stroke="#666666" points="705,-216 571,-216 571,-197 705,-197 705,-216"/>
<text text-anchor="middle" x="638" y="-204" font-family="Helvetica,sans-Serif" font-size="10.00">Ogre::D3D11HLSLProgram</text>
</a>
</g>
</g>
<!-- Node1&#45;&gt;Node6 -->
<g id="edge5" class="edge">
<title>Node1&#45;&gt;Node6</title>
<path fill="none" stroke="#63b8ff" d="M484.95,-130.56C505.18,-147.48 538.39,-173.06 571,-188.5 577.66,-191.65 584.96,-194.33 592.21,-196.58"/>
<polygon fill="#63b8ff" stroke="#63b8ff" points="487.41,-128.05 477.53,-124.23 482.87,-133.38 487.41,-128.05"/>
</g>
<!-- Node7 -->
<g id="node7" class="node">
<title>Node7</title>
<g id="a_node7"><a xlink:href="class_ogre_1_1_d3_d9_h_l_s_l_program.html" target="_top" xlink:title="Specialisation of HighLevelGpuProgram to provide support for D3D9 High&#45;Level Shader Language (HLSL).">
<polygon fill="white" stroke="#666666" points="702.5,-179 573.5,-179 573.5,-160 702.5,-160 702.5,-179"/>
<text text-anchor="middle" x="638" y="-167" font-family="Helvetica,sans-Serif" font-size="10.00">Ogre::D3D9HLSLProgram</text>
</a>
</g>
</g>
<!-- Node1&#45;&gt;Node7 -->
<g id="edge6" class="edge">
<title>Node1&#45;&gt;Node7</title>
<path fill="none" stroke="#63b8ff" d="M501.94,-127.43C522.15,-134.96 547.82,-144.18 571,-151.5 579.83,-154.29 589.41,-157.05 598.46,-159.54"/>
<polygon fill="#63b8ff" stroke="#63b8ff" points="503.33,-124.22 492.74,-123.98 500.87,-130.77 503.33,-124.22"/>
</g>
<!-- Node8 -->
<g id="node8" class="node">
<title>Node8</title>
<g id="a_node8"><a xlink:href="class_ogre_1_1_g_l_s_l_shader.html" target="_top" xlink:title="Specialisation of HighLevelGpuProgram to encapsulate shader objects obtained from compiled shaders wr...">
<polygon fill="white" stroke="#666666" points="687.5,-142 588.5,-142 588.5,-123 687.5,-123 687.5,-142"/>
<text text-anchor="middle" x="638" y="-130" font-family="Helvetica,sans-Serif" font-size="10.00">Ogre::GLSLShader</text>
</a>
</g>
</g>
<!-- Node1&#45;&gt;Node8 -->
<g id="edge7" class="edge">
<title>Node1&#45;&gt;Node8</title>
<path fill="none" stroke="#63b8ff" d="M546.56,-122.48C560.74,-124.05 575.09,-125.64 588.06,-127.08"/>
<polygon fill="#63b8ff" stroke="#63b8ff" points="547.08,-119.02 536.76,-121.39 546.31,-125.97 547.08,-119.02"/>
</g>
<!-- Node9 -->
<g id="node9" class="node">
<title>Node9</title>
<g id="a_node9"><a xlink:href="class_ogre_1_1_metal_program.html" target="_top" xlink:title="Specialisation of HighLevelGpuProgram to provide support for Metal Shader Language.">
<polygon fill="white" stroke="#666666" points="689.5,-105 586.5,-105 586.5,-86 689.5,-86 689.5,-105"/>
<text text-anchor="middle" x="638" y="-93" font-family="Helvetica,sans-Serif" font-size="10.00">Ogre::MetalProgram</text>
</a>
</g>
</g>
<!-- Node1&#45;&gt;Node9 -->
<g id="edge8" class="edge">
<title>Node1&#45;&gt;Node9</title>
<path fill="none" stroke="#63b8ff" d="M546.55,-104.99C560.07,-103.57 573.75,-102.14 586.24,-100.83"/>
<polygon fill="#63b8ff" stroke="#63b8ff" points="546.34,-101.5 536.76,-106.02 547.07,-108.46 546.34,-101.5"/>
</g>
<!-- Node10 -->
<g id="node10" class="node">
<title>Node10</title>
<g id="a_node10"><a xlink:href="class_ogre_1_1_unified_high_level_gpu_program.html" target="_top" xlink:title="Specialisation of HighLevelGpuProgram which just delegates its implementation to one other high level...">
<polygon fill="white" stroke="#666666" points="705,-67.5 571,-67.5 571,-37.5 705,-37.5 705,-67.5"/>
<text text-anchor="start" x="579" y="-55.5" font-family="Helvetica,sans-Serif" font-size="10.00">Ogre::UnifiedHighLevelGpu</text>
<text text-anchor="middle" x="638" y="-44.5" font-family="Helvetica,sans-Serif" font-size="10.00">Program</text>
</a>
</g>
</g>
<!-- Node1&#45;&gt;Node10 -->
<g id="edge9" class="edge">
<title>Node1&#45;&gt;Node10</title>
<path fill="none" stroke="#63b8ff" d="M504.25,-99.72C530.83,-90.26 566.13,-77.71 593.65,-67.92"/>
<polygon fill="#63b8ff" stroke="#63b8ff" points="503.11,-96.41 494.86,-103.06 505.46,-103 503.11,-96.41"/>
</g>
<!-- Node11 -->
<g id="node11" class="node">
<title>Node11</title>
<g id="a_node11"><a xlink:href="class_ogre_1_1_vulkan_program.html" target="_top" xlink:title="Specialisation of HighLevelGpuProgram to provide support for Vulkan Shader Language.">
<polygon fill="white" stroke="#666666" points="692.5,-19 583.5,-19 583.5,0 692.5,0 692.5,-19"/>
<text text-anchor="middle" x="638" y="-7" font-family="Helvetica,sans-Serif" font-size="10.00">Ogre::VulkanProgram</text>
</a>
</g>
</g>
<!-- Node1&#45;&gt;Node11 -->
<g id="edge10" class="edge">
<title>Node1&#45;&gt;Node11</title>
<path fill="none" stroke="#63b8ff" d="M483.04,-95.62C502.79,-76.45 536.61,-46.37 571,-28.5 577.88,-24.93 585.52,-21.94 593.09,-19.48"/>
<polygon fill="#63b8ff" stroke="#63b8ff" points="480.73,-92.98 476.09,-102.51 485.66,-97.96 480.73,-92.98"/>
</g>
<!-- Node2 -->
<g id="node2" class="node">
<title>Node2</title>
<g id="a_node2"><a xlink:href="class_ogre_1_1_gpu_program.html" target="_top" xlink:title="Defines a program which runs on the GPU such as a vertex or fragment program.">
<polygon fill="white" stroke="#666666" points="358,-123 261,-123 261,-104 358,-104 358,-123"/>
<text text-anchor="middle" x="309.5" y="-111" font-family="Helvetica,sans-Serif" font-size="10.00">Ogre::GpuProgram</text>
</a>
</g>
</g>
<!-- Node2&#45;&gt;Node1 -->
<g id="edge1" class="edge">
<title>Node2&#45;&gt;Node1</title>
<path fill="none" stroke="#63b8ff" d="M369.98,-113.5C377.71,-113.5 385.67,-113.5 393.55,-113.5"/>
<polygon fill="#63b8ff" stroke="#63b8ff" points="370,-110 360,-113.5 370,-117 370,-110"/>
</g>
<!-- Node3 -->
<g id="node3" class="node">
<title>Node3</title>
<g id="a_node3"><a xlink:href="class_ogre_1_1_resource.html" target="_top" xlink:title="Abstract class representing a loadable resource (e.g.">
<polygon fill="white" stroke="#666666" points="225,-123 142,-123 142,-104 225,-104 225,-123"/>
<text text-anchor="middle" x="183.5" y="-111" font-family="Helvetica,sans-Serif" font-size="10.00">Ogre::Resource</text>
</a>
</g>
</g>
<!-- Node3&#45;&gt;Node2 -->
<g id="edge2" class="edge">
<title>Node3&#45;&gt;Node2</title>
<path fill="none" stroke="#63b8ff" d="M236.84,-113.5C244.76,-113.5 252.89,-113.5 260.71,-113.5"/>
<polygon fill="#63b8ff" stroke="#63b8ff" points="236.96,-110 226.96,-113.5 236.96,-117 236.96,-110"/>
</g>
<!-- Node4 -->
<g id="node4" class="node">
<title>Node4</title>
<g id="a_node4"><a xlink:href="class_ogre_1_1_string_interface.html" target="_top" xlink:title="Class defining the common interface which classes can use to present a reflection&#45;style,...">
<polygon fill="white" stroke="#666666" points="106,-142 0,-142 0,-123 106,-123 106,-142"/>
<text text-anchor="middle" x="53" y="-130" font-family="Helvetica,sans-Serif" font-size="10.00">Ogre::StringInterface</text>
</a>
</g>
</g>
<!-- Node4&#45;&gt;Node3 -->
<g id="edge3" class="edge">
<title>Node4&#45;&gt;Node3</title>
<path fill="none" stroke="#63b8ff" d="M117.45,-123.12C125.7,-121.9 133.97,-120.68 141.71,-119.53"/>
<polygon fill="#63b8ff" stroke="#63b8ff" points="117.14,-119.63 107.76,-124.55 118.17,-126.55 117.14,-119.63"/>
</g>
<!-- Node5 -->
<g id="node5" class="node">
<title>Node5</title>
<g id="a_node5"><a xlink:href="class_ogre_1_1_allocated_object.html" target="_top" xlink:title="Superclass for all objects that wish to use custom memory allocators when their new / delete operator...">
<polygon fill="white" stroke="#666666" points="93,-105 13,-105 13,-86 93,-86 93,-105"/>
<text text-anchor="middle" x="53" y="-93" font-family="Helvetica,sans-Serif" font-size="10.00">ResourceAlloc</text>
</a>
</g>
</g>
<!-- Node5&#45;&gt;Node3 -->
<g id="edge4" class="edge">
<title>Node5&#45;&gt;Node3</title>
<path fill="none" stroke="#63b8ff" d="M104.36,-102.55C116.74,-104.29 129.84,-106.12 141.71,-107.79"/>
<polygon fill="#63b8ff" stroke="#63b8ff" points="105.14,-99.13 94.75,-101.21 104.17,-106.06 105.14,-99.13"/>
</g>
</g>
</svg>
