<?xml version="1.0" encoding="UTF-8" standalone="no"?>
<!DOCTYPE svg PUBLIC "-//W3C//DTD SVG 1.1//EN"
 "http://www.w3.org/Graphics/SVG/1.1/DTD/svg11.dtd">
<!-- Generated by graphviz version 9.0.0 (20230911.1827)
 -->
<!-- Title: Ogre::SmallVectorTemplateCommon&lt; T &gt; Pages: 1 -->
<svg width="946pt" height="360pt"
 viewBox="0.00 0.00 946.25 359.50" xmlns="http://www.w3.org/2000/svg" xmlns:xlink="http://www.w3.org/1999/xlink">
<g id="graph0" class="graph" transform="scale(1 1) rotate(0) translate(4 355.5)">
<title>Ogre::SmallVectorTemplateCommon&lt; T &gt;</title>
<!-- Node1 -->
<g id="Node000001" class="node">
<title>Node1</title>
<g id="a_Node000001"><a xlink:title=" ">
<polygon fill="#999999" stroke="#666666" points="288.5,-133.5 153.25,-133.5 153.25,-103 288.5,-103 288.5,-133.5"/>
<text text-anchor="start" x="161.25" y="-120" font-family="Helvetica,sans-Serif" font-size="10.00">Ogre::SmallVectorTemplate</text>
<text text-anchor="middle" x="220.88" y="-108.75" font-family="Helvetica,sans-Serif" font-size="10.00">Common&lt; T &gt;</text>
</a>
</g>
</g>
<!-- Node3 -->
<g id="Node000003" class="node">
<title>Node3</title>
<g id="a_Node000003"><a xlink:href="class_ogre_1_1_small_vector_template_base.html" target="_top" xlink:title=" ">
<polygon fill="white" stroke="#666666" points="459.75,-259.12 324.5,-259.12 324.5,-217.38 459.75,-217.38 459.75,-259.12"/>
<text text-anchor="start" x="332.5" y="-245.62" font-family="Helvetica,sans-Serif" font-size="10.00">Ogre::SmallVectorTemplate</text>
<text text-anchor="start" x="332.5" y="-234.38" font-family="Helvetica,sans-Serif" font-size="10.00">Base&lt; T, isPodLike&lt; T &gt;</text>
<text text-anchor="middle" x="392.12" y="-223.12" font-family="Helvetica,sans-Serif" font-size="10.00">::value &gt;</text>
</a>
</g>
</g>
<!-- Node1&#45;&gt;Node3 -->
<g id="edge2_Node000001_Node000003" class="edge">
<title>Node1&#45;&gt;Node3</title>
<g id="a_edge2_Node000001_Node000003"><a xlink:title=" ">
<path fill="none" stroke="#63b8ff" d="M244.78,-141.94C264.58,-161.49 294.64,-189.04 324.5,-208.25 329.3,-211.34 334.47,-214.27 339.74,-217"/>
<polygon fill="#63b8ff" stroke="#63b8ff" points="247.31,-139.52 237.77,-134.91 242.35,-144.46 247.31,-139.52"/>
</a>
</g>
</g>
<!-- Node13 -->
<g id="Node000013" class="node">
<title>Node13</title>
<g id="a_Node000013"><a xlink:href="class_ogre_1_1_small_vector_template_base.html" target="_top" xlink:title=" ">
<polygon fill="white" stroke="#666666" points="459.75,-199.12 324.5,-199.12 324.5,-157.38 459.75,-157.38 459.75,-199.12"/>
<text text-anchor="start" x="332.5" y="-185.62" font-family="Helvetica,sans-Serif" font-size="10.00">Ogre::SmallVectorTemplate</text>
<text text-anchor="start" x="332.5" y="-174.38" font-family="Helvetica,sans-Serif" font-size="10.00">Base&lt; Edge, isPodLike&lt;</text>
<text text-anchor="middle" x="392.12" y="-163.12" font-family="Helvetica,sans-Serif" font-size="10.00"> Edge &gt;::value &gt;</text>
</a>
</g>
</g>
<!-- Node1&#45;&gt;Node13 -->
<g id="edge12_Node000001_Node000013" class="edge">
<title>Node1&#45;&gt;Node13</title>
<g id="a_edge12_Node000001_Node000013"><a xlink:title=" ">
<path fill="none" stroke="#63b8ff" d="M276.47,-137.6C293.9,-143.78 313.28,-150.65 331.07,-156.96"/>
<polygon fill="#63b8ff" stroke="#63b8ff" points="277.92,-134.41 267.33,-134.36 275.58,-141 277.92,-134.41"/>
</a>
</g>
</g>
<!-- Node14 -->
<g id="Node000014" class="node">
<title>Node14</title>
<g id="a_Node000014"><a xlink:href="class_ogre_1_1_small_vector_template_base.html" target="_top" xlink:title=" ">
<polygon fill="white" stroke="#666666" points="459.75,-139.12 324.5,-139.12 324.5,-97.38 459.75,-97.38 459.75,-139.12"/>
<text text-anchor="start" x="332.5" y="-125.62" font-family="Helvetica,sans-Serif" font-size="10.00">Ogre::SmallVectorTemplate</text>
<text text-anchor="start" x="332.5" y="-114.38" font-family="Helvetica,sans-Serif" font-size="10.00">Base&lt; TriangleI, isPodLike</text>
<text text-anchor="middle" x="392.12" y="-103.12" font-family="Helvetica,sans-Serif" font-size="10.00">&lt; TriangleI &gt;::value &gt;</text>
</a>
</g>
</g>
<!-- Node1&#45;&gt;Node14 -->
<g id="edge13_Node000001_Node000014" class="edge">
<title>Node1&#45;&gt;Node14</title>
<g id="a_edge13_Node000001_Node000014"><a xlink:title=" ">
<path fill="none" stroke="#63b8ff" d="M300.07,-118.25C308.12,-118.25 316.25,-118.25 324.16,-118.25"/>
<polygon fill="#63b8ff" stroke="#63b8ff" points="300.28,-114.75 290.28,-118.25 300.28,-121.75 300.28,-114.75"/>
</a>
</g>
</g>
<!-- Node15 -->
<g id="Node000015" class="node">
<title>Node15</title>
<g id="a_Node000015"><a xlink:href="class_ogre_1_1_small_vector_template_base.html" target="_top" xlink:title="SmallVectorTemplateBase&lt;isPodLike = false&gt; &#45; This is where we put method implementations that are des...">
<polygon fill="white" stroke="#666666" points="459.75,-79.5 324.5,-79.5 324.5,-49 459.75,-49 459.75,-79.5"/>
<text text-anchor="start" x="332.5" y="-66" font-family="Helvetica,sans-Serif" font-size="10.00">Ogre::SmallVectorTemplate</text>
<text text-anchor="middle" x="392.12" y="-54.75" font-family="Helvetica,sans-Serif" font-size="10.00">Base&lt; T, isPodLike &gt;</text>
</a>
</g>
</g>
<!-- Node1&#45;&gt;Node15 -->
<g id="edge14_Node000001_Node000015" class="edge">
<title>Node1&#45;&gt;Node15</title>
<g id="a_edge14_Node000001_Node000015"><a xlink:title=" ">
<path fill="none" stroke="#63b8ff" d="M281.58,-99.2C301.34,-92.89 323.11,-85.95 341.99,-79.93"/>
<polygon fill="#63b8ff" stroke="#63b8ff" points="280.73,-95.8 272.27,-102.17 282.86,-102.47 280.73,-95.8"/>
</a>
</g>
</g>
<!-- Node18 -->
<g id="Node000018" class="node">
<title>Node18</title>
<g id="a_Node000018"><a xlink:href="class_ogre_1_1_small_vector_template_base_3_01_t_00_01true_01_4.html" target="_top" xlink:title="SmallVectorTemplateBase&lt;isPodLike = true&gt; &#45; This is where we put method implementations that are desi...">
<polygon fill="white" stroke="#666666" points="459.75,-30.5 324.5,-30.5 324.5,0 459.75,0 459.75,-30.5"/>
<text text-anchor="start" x="332.5" y="-17" font-family="Helvetica,sans-Serif" font-size="10.00">Ogre::SmallVectorTemplate</text>
<text text-anchor="middle" x="392.12" y="-5.75" font-family="Helvetica,sans-Serif" font-size="10.00">Base&lt; T, true &gt;</text>
</a>
</g>
</g>
<!-- Node1&#45;&gt;Node18 -->
<g id="edge17_Node000001_Node000018" class="edge">
<title>Node1&#45;&gt;Node18</title>
<g id="a_edge17_Node000001_Node000018"><a xlink:title=" ">
<path fill="none" stroke="#63b8ff" d="M247.44,-95.45C267.36,-78.54 296.3,-55.82 324.5,-40.25 330.66,-36.85 337.39,-33.72 344.11,-30.91"/>
<polygon fill="#63b8ff" stroke="#63b8ff" points="245.39,-92.6 240.1,-101.78 249.96,-97.9 245.39,-92.6"/>
</a>
</g>
</g>
<!-- Node2 -->
<g id="Node000002" class="node">
<title>Node2</title>
<g id="a_Node000002"><a xlink:href="class_ogre_1_1_small_vector_base.html" target="_top" xlink:title="SmallVectorBase &#45; This is all the non&#45;templated stuff common to all SmallVectors.">
<polygon fill="white" stroke="#666666" points="117.25,-127.88 0,-127.88 0,-108.62 117.25,-108.62 117.25,-127.88"/>
<text text-anchor="middle" x="58.62" y="-114.38" font-family="Helvetica,sans-Serif" font-size="10.00">Ogre::SmallVectorBase</text>
</a>
</g>
</g>
<!-- Node2&#45;&gt;Node1 -->
<g id="edge1_Node000001_Node000002" class="edge">
<title>Node2&#45;&gt;Node1</title>
<g id="a_edge1_Node000001_Node000002"><a xlink:title=" ">
<path fill="none" stroke="#63b8ff" d="M128.95,-118.25C136.88,-118.25 144.95,-118.25 152.84,-118.25"/>
<polygon fill="#63b8ff" stroke="#63b8ff" points="128.99,-114.75 118.99,-118.25 128.99,-121.75 128.99,-114.75"/>
</a>
</g>
</g>
<!-- Node4 -->
<g id="Node000004" class="node">
<title>Node4</title>
<g id="a_Node000004"><a xlink:href="class_ogre_1_1_small_vector_impl.html" target="_top" xlink:title="SmallVectorImpl &#45; This class consists of common code factored out of the SmallVector class to reduce ...">
<polygon fill="white" stroke="#666666" points="631.75,-247.88 495.75,-247.88 495.75,-228.62 631.75,-228.62 631.75,-247.88"/>
<text text-anchor="middle" x="563.75" y="-234.38" font-family="Helvetica,sans-Serif" font-size="10.00">Ogre::SmallVectorImpl&lt; T &gt;</text>
</a>
</g>
</g>
<!-- Node3&#45;&gt;Node4 -->
<g id="edge3_Node000003_Node000004" class="edge">
<title>Node3&#45;&gt;Node4</title>
<g id="a_edge3_Node000003_Node000004"><a xlink:title=" ">
<path fill="none" stroke="#63b8ff" d="M471.68,-238.25C479.59,-238.25 487.58,-238.25 495.36,-238.25"/>
<polygon fill="#63b8ff" stroke="#63b8ff" points="471.68,-234.75 461.68,-238.25 471.68,-241.75 471.68,-234.75"/>
</a>
</g>
</g>
<!-- Node5 -->
<g id="Node000005" class="node">
<title>Node5</title>
<g id="a_Node000005"><a xlink:href="class_ogre_1_1_small_vector.html" target="_top" xlink:title=" ">
<polygon fill="white" stroke="#666666" points="768.5,-351.5 667.75,-351.5 667.75,-321 768.5,-321 768.5,-351.5"/>
<text text-anchor="start" x="675.75" y="-338" font-family="Helvetica,sans-Serif" font-size="10.00">Ogre::SmallVector&lt;</text>
<text text-anchor="middle" x="718.12" y="-326.75" font-family="Helvetica,sans-Serif" font-size="10.00"> T, S &gt;</text>
</a>
</g>
</g>
<!-- Node4&#45;&gt;Node5 -->
<g id="edge4_Node000004_Node000005" class="edge">
<title>Node4&#45;&gt;Node5</title>
<g id="a_edge4_Node000004_Node000005"><a xlink:title=" ">
<path fill="none" stroke="#63b8ff" d="M586.74,-255.27C607.16,-270.74 638.72,-293.74 667.75,-311.25 673.02,-314.43 678.73,-317.58 684.35,-320.51"/>
<polygon fill="#63b8ff" stroke="#63b8ff" points="588.94,-252.55 578.86,-249.26 584.69,-258.11 588.94,-252.55"/>
</a>
</g>
</g>
<!-- Node7 -->
<g id="Node000007" class="node">
<title>Node7</title>
<g id="a_Node000007"><a xlink:href="class_ogre_1_1_small_vector.html" target="_top" xlink:title=" ">
<polygon fill="white" stroke="#666666" points="768.5,-302.5 667.75,-302.5 667.75,-272 768.5,-272 768.5,-302.5"/>
<text text-anchor="start" x="675.75" y="-289" font-family="Helvetica,sans-Serif" font-size="10.00">Ogre::SmallVector&lt;</text>
<text text-anchor="middle" x="718.12" y="-277.75" font-family="Helvetica,sans-Serif" font-size="10.00"> Edge, S &gt;</text>
</a>
</g>
</g>
<!-- Node4&#45;&gt;Node7 -->
<g id="edge6_Node000004_Node000007" class="edge">
<title>Node4&#45;&gt;Node7</title>
<g id="a_edge6_Node000004_Node000007"><a xlink:title=" ">
<path fill="none" stroke="#63b8ff" d="M606.71,-251.74C625.77,-257.87 648.44,-265.16 668.26,-271.54"/>
<polygon fill="#63b8ff" stroke="#63b8ff" points="607.99,-248.48 597.39,-248.75 605.84,-255.14 607.99,-248.48"/>
</a>
</g>
</g>
<!-- Node8 -->
<g id="Node000008" class="node">
<title>Node8</title>
<g id="a_Node000008"><a xlink:href="class_ogre_1_1_small_vector.html" target="_top" xlink:title=" ">
<polygon fill="white" stroke="#666666" points="768.5,-253.5 667.75,-253.5 667.75,-223 768.5,-223 768.5,-253.5"/>
<text text-anchor="start" x="675.75" y="-240" font-family="Helvetica,sans-Serif" font-size="10.00">Ogre::SmallVector&lt;</text>
<text text-anchor="middle" x="718.12" y="-228.75" font-family="Helvetica,sans-Serif" font-size="10.00"> TriangleI, S &gt;</text>
</a>
</g>
</g>
<!-- Node4&#45;&gt;Node8 -->
<g id="edge7_Node000004_Node000008" class="edge">
<title>Node4&#45;&gt;Node8</title>
<g id="a_edge7_Node000004_Node000008"><a xlink:title=" ">
<path fill="none" stroke="#63b8ff" d="M643.29,-238.25C651.56,-238.25 659.79,-238.25 667.59,-238.25"/>
<polygon fill="#63b8ff" stroke="#63b8ff" points="643.54,-234.75 633.54,-238.25 643.54,-241.75 643.54,-234.75"/>
</a>
</g>
</g>
<!-- Node9 -->
<g id="Node000009" class="node">
<title>Node9</title>
<g id="a_Node000009"><a xlink:href="class_ogre_1_1_small_vector.html" target="_top" xlink:title="SmallVector &#45; This is a &#39;vector&#39; (really, a variable&#45;sized array), optimized for the case when the ar...">
<polygon fill="white" stroke="#666666" points="768.5,-204.5 667.75,-204.5 667.75,-174 768.5,-174 768.5,-204.5"/>
<text text-anchor="start" x="675.75" y="-191" font-family="Helvetica,sans-Serif" font-size="10.00">Ogre::SmallVector&lt;</text>
<text text-anchor="middle" x="718.12" y="-179.75" font-family="Helvetica,sans-Serif" font-size="10.00"> T, N &gt;</text>
</a>
</g>
</g>
<!-- Node4&#45;&gt;Node9 -->
<g id="edge8_Node000004_Node000009" class="edge">
<title>Node4&#45;&gt;Node9</title>
<g id="a_edge8_Node000004_Node000009"><a xlink:title=" ">
<path fill="none" stroke="#63b8ff" d="M606.71,-224.76C625.77,-218.63 648.44,-211.34 668.26,-204.96"/>
<polygon fill="#63b8ff" stroke="#63b8ff" points="605.84,-221.36 597.39,-227.75 607.99,-228.02 605.84,-221.36"/>
</a>
</g>
</g>
<!-- Node12 -->
<g id="Node000012" class="node">
<title>Node12</title>
<g id="a_Node000012"><a xlink:href="class_ogre_1_1_small_vector_3_01_t_00_010_01_4.html" target="_top" xlink:title="Specialize SmallVector at N=0.">
<polygon fill="white" stroke="#666666" points="768.5,-155.5 667.75,-155.5 667.75,-125 768.5,-125 768.5,-155.5"/>
<text text-anchor="start" x="675.75" y="-142" font-family="Helvetica,sans-Serif" font-size="10.00">Ogre::SmallVector&lt;</text>
<text text-anchor="middle" x="718.12" y="-130.75" font-family="Helvetica,sans-Serif" font-size="10.00"> T, 0 &gt;</text>
</a>
</g>
</g>
<!-- Node4&#45;&gt;Node12 -->
<g id="edge11_Node000004_Node000012" class="edge">
<title>Node4&#45;&gt;Node12</title>
<g id="a_edge11_Node000004_Node000012"><a xlink:title=" ">
<path fill="none" stroke="#63b8ff" d="M586.74,-221.23C607.16,-205.76 638.72,-182.76 667.75,-165.25 673.02,-162.07 678.73,-158.92 684.35,-155.99"/>
<polygon fill="#63b8ff" stroke="#63b8ff" points="584.69,-218.39 578.86,-227.24 588.94,-223.95 584.69,-218.39"/>
</a>
</g>
</g>
<!-- Node6 -->
<g id="Node000006" class="node">
<title>Node6</title>
<g id="a_Node000006"><a xlink:href="struct_ogre_1_1_vector_set.html" target="_top" xlink:title="VectorSet is basically a helper to use a vector as a small set container.">
<polygon fill="white" stroke="#666666" points="931.12,-345.88 811.62,-345.88 811.62,-326.62 931.12,-326.62 931.12,-345.88"/>
<text text-anchor="middle" x="871.38" y="-332.38" font-family="Helvetica,sans-Serif" font-size="10.00">Ogre::VectorSet&lt; T, S &gt;</text>
</a>
</g>
</g>
<!-- Node5&#45;&gt;Node6 -->
<g id="edge5_Node000005_Node000006" class="edge">
<title>Node5&#45;&gt;Node6</title>
<g id="a_edge5_Node000005_Node000006"><a xlink:title=" ">
<path fill="none" stroke="#63b8ff" d="M780.06,-336.25C790.35,-336.25 801.01,-336.25 811.25,-336.25"/>
<polygon fill="#63b8ff" stroke="#63b8ff" points="780.16,-332.75 770.16,-336.25 780.16,-339.75 780.16,-332.75"/>
</a>
</g>
</g>
<!-- Node10 -->
<g id="Node000010" class="node">
<title>Node10</title>
<g id="a_Node000010"><a xlink:href="struct_ogre_1_1_vector_set.html" target="_top" xlink:title=" ">
<polygon fill="white" stroke="#666666" points="938.25,-220.88 804.5,-220.88 804.5,-201.62 938.25,-201.62 938.25,-220.88"/>
<text text-anchor="middle" x="871.38" y="-207.38" font-family="Helvetica,sans-Serif" font-size="10.00">Ogre::VectorSet&lt; Edge, 8 &gt;</text>
</a>
</g>
</g>
<!-- Node9&#45;&gt;Node10 -->
<g id="edge9_Node000009_Node000010" class="edge">
<title>Node9&#45;&gt;Node10</title>
<g id="a_edge9_Node000009_Node000010"><a xlink:title=" ">
<path fill="none" stroke="#63b8ff" d="M779.81,-198.08C787.85,-199.25 796.12,-200.45 804.24,-201.63"/>
<polygon fill="#63b8ff" stroke="#63b8ff" points="780.55,-194.65 770.15,-196.67 779.54,-201.57 780.55,-194.65"/>
</a>
</g>
</g>
<!-- Node11 -->
<g id="Node000011" class="node">
<title>Node11</title>
<g id="a_Node000011"><a xlink:href="struct_ogre_1_1_vector_set.html" target="_top" xlink:title=" ">
<polygon fill="white" stroke="#666666" points="935.25,-183.5 807.5,-183.5 807.5,-153 935.25,-153 935.25,-183.5"/>
<text text-anchor="start" x="815.5" y="-170" font-family="Helvetica,sans-Serif" font-size="10.00">Ogre::VectorSet&lt; Triangle</text>
<text text-anchor="middle" x="871.38" y="-158.75" font-family="Helvetica,sans-Serif" font-size="10.00">I, 7 &gt;</text>
</a>
</g>
</g>
<!-- Node9&#45;&gt;Node11 -->
<g id="edge10_Node000009_Node000011" class="edge">
<title>Node9&#45;&gt;Node11</title>
<g id="a_edge10_Node000009_Node000011"><a xlink:title=" ">
<path fill="none" stroke="#63b8ff" d="M779.86,-180.82C788.87,-179.57 798.17,-178.28 807.22,-177.02"/>
<polygon fill="#63b8ff" stroke="#63b8ff" points="779.57,-177.32 770.15,-182.17 780.54,-184.26 779.57,-177.32"/>
</a>
</g>
</g>
<!-- Node16 -->
<g id="Node000016" class="node">
<title>Node16</title>
<g id="a_Node000016"><a xlink:href="class_ogre_1_1_small_vector_impl.html" target="_top" xlink:title=" ">
<polygon fill="white" stroke="#666666" points="620.5,-104.5 507,-104.5 507,-74 620.5,-74 620.5,-104.5"/>
<text text-anchor="start" x="515" y="-91" font-family="Helvetica,sans-Serif" font-size="10.00">Ogre::SmallVectorImpl</text>
<text text-anchor="middle" x="563.75" y="-79.75" font-family="Helvetica,sans-Serif" font-size="10.00">&lt; Edge &gt;</text>
</a>
</g>
</g>
<!-- Node15&#45;&gt;Node16 -->
<g id="edge15_Node000015_Node000016" class="edge">
<title>Node15&#45;&gt;Node16</title>
<g id="a_edge15_Node000015_Node000016"><a xlink:title=" ">
<path fill="none" stroke="#63b8ff" d="M471.45,-75.79C483.3,-77.54 495.32,-79.31 506.58,-80.97"/>
<polygon fill="#63b8ff" stroke="#63b8ff" points="472.07,-72.35 461.66,-74.35 471.05,-79.27 472.07,-72.35"/>
</a>
</g>
</g>
<!-- Node17 -->
<g id="Node000017" class="node">
<title>Node17</title>
<g id="a_Node000017"><a xlink:href="class_ogre_1_1_small_vector_impl.html" target="_top" xlink:title=" ">
<polygon fill="white" stroke="#666666" points="620.5,-55.5 507,-55.5 507,-25 620.5,-25 620.5,-55.5"/>
<text text-anchor="start" x="515" y="-42" font-family="Helvetica,sans-Serif" font-size="10.00">Ogre::SmallVectorImpl</text>
<text text-anchor="middle" x="563.75" y="-30.75" font-family="Helvetica,sans-Serif" font-size="10.00">&lt; TriangleI &gt;</text>
</a>
</g>
</g>
<!-- Node15&#45;&gt;Node17 -->
<g id="edge16_Node000015_Node000017" class="edge">
<title>Node15&#45;&gt;Node17</title>
<g id="a_edge16_Node000015_Node000017"><a xlink:title=" ">
<path fill="none" stroke="#63b8ff" d="M471.45,-53.17C483.3,-51.49 495.32,-49.79 506.58,-48.2"/>
<polygon fill="#63b8ff" stroke="#63b8ff" points="471.07,-49.69 461.66,-54.55 472.06,-56.62 471.07,-49.69"/>
</a>
</g>
</g>
</g>
</svg>
