<?xml version="1.0" encoding="UTF-8" standalone="no"?>
<!DOCTYPE svg PUBLIC "-//W3C//DTD SVG 1.1//EN"
 "http://www.w3.org/Graphics/SVG/1.1/DTD/svg11.dtd">
<!-- Generated by graphviz version 9.0.0 (20230911.1827)
 -->
<!-- Title: Ogre::GpuProgram Pages: 1 -->
<svg width="738pt" height="298pt"
 viewBox="0.00 0.00 738.25 298.25" xmlns="http://www.w3.org/2000/svg" xmlns:xlink="http://www.w3.org/1999/xlink">
<g id="graph0" class="graph" transform="scale(1 1) rotate(0) translate(4 294.25)">
<title>Ogre::GpuProgram</title>
<!-- Node1 -->
<g id="Node000001" class="node">
<title>Node1</title>
<g id="a_Node000001"><a xlink:title="Defines a program which runs on the GPU such as a vertex or fragment program.">
<polygon fill="#999999" stroke="#666666" points="356.25,-197.25 260,-197.25 260,-178 356.25,-178 356.25,-197.25"/>
<text text-anchor="middle" x="308.12" y="-183.75" font-family="Helvetica,sans-Serif" font-size="10.00">Ogre::GpuProgram</text>
</a>
</g>
</g>
<!-- Node5 -->
<g id="Node000005" class="node">
<title>Node5</title>
<g id="a_Node000005"><a xlink:href="class_ogre_1_1_d3_d9_gpu_program.html" target="_top" xlink:title="Direct3D implementation of a few things common to low&#45;level vertex &amp; fragment programs.">
<polygon fill="white" stroke="#666666" points="522.62,-253.25 402.38,-253.25 402.38,-234 522.62,-234 522.62,-253.25"/>
<text text-anchor="middle" x="462.5" y="-239.75" font-family="Helvetica,sans-Serif" font-size="10.00">Ogre::D3D9GpuProgram</text>
</a>
</g>
</g>
<!-- Node1&#45;&gt;Node5 -->
<g id="edge4_Node000001_Node000005" class="edge">
<title>Node1&#45;&gt;Node5</title>
<g id="a_edge4_Node000001_Node000005"><a xlink:title=" ">
<path fill="none" stroke="#63b8ff" d="M346.98,-201.54C373.98,-211.46 409.67,-224.58 433.98,-233.51"/>
<polygon fill="#63b8ff" stroke="#63b8ff" points="348.38,-198.32 337.79,-198.16 345.97,-204.89 348.38,-198.32"/>
</a>
</g>
</g>
<!-- Node8 -->
<g id="Node000008" class="node">
<title>Node8</title>
<g id="a_Node000008"><a xlink:href="class_ogre_1_1_high_level_gpu_program.html" target="_top" xlink:title="Abstract base class representing a high&#45;level program (a vertex or fragment program).">
<polygon fill="white" stroke="#666666" points="532.75,-142.25 392.25,-142.25 392.25,-123 532.75,-123 532.75,-142.25"/>
<text text-anchor="middle" x="462.5" y="-128.75" font-family="Helvetica,sans-Serif" font-size="10.00">Ogre::HighLevelGpuProgram</text>
</a>
</g>
</g>
<!-- Node1&#45;&gt;Node8 -->
<g id="edge7_Node000001_Node000008" class="edge">
<title>Node1&#45;&gt;Node8</title>
<g id="a_edge7_Node000001_Node000008"><a xlink:title=" ">
<path fill="none" stroke="#63b8ff" d="M347.6,-173.74C374.34,-164.09 409.36,-151.45 433.47,-142.74"/>
<polygon fill="#63b8ff" stroke="#63b8ff" points="346.71,-170.34 338.5,-177.02 349.09,-176.92 346.71,-170.34"/>
</a>
</g>
</g>
<!-- Node2 -->
<g id="Node000002" class="node">
<title>Node2</title>
<g id="a_Node000002"><a xlink:href="class_ogre_1_1_resource.html" target="_top" xlink:title="Abstract class representing a loadable resource (e.g.">
<polygon fill="white" stroke="#666666" points="224,-197.25 141.25,-197.25 141.25,-178 224,-178 224,-197.25"/>
<text text-anchor="middle" x="182.62" y="-183.75" font-family="Helvetica,sans-Serif" font-size="10.00">Ogre::Resource</text>
</a>
</g>
</g>
<!-- Node2&#45;&gt;Node1 -->
<g id="edge1_Node000001_Node000002" class="edge">
<title>Node2&#45;&gt;Node1</title>
<g id="a_edge1_Node000001_Node000002"><a xlink:title=" ">
<path fill="none" stroke="#63b8ff" d="M235.75,-187.62C243.64,-187.62 251.74,-187.62 259.53,-187.62"/>
<polygon fill="#63b8ff" stroke="#63b8ff" points="235.92,-184.13 225.92,-187.63 235.92,-191.13 235.92,-184.13"/>
</a>
</g>
</g>
<!-- Node3 -->
<g id="Node000003" class="node">
<title>Node3</title>
<g id="a_Node000003"><a xlink:href="class_ogre_1_1_string_interface.html" target="_top" xlink:title="Class defining the common interface which classes can use to present a reflection&#45;style,...">
<polygon fill="white" stroke="#666666" points="105.25,-216.25 0,-216.25 0,-197 105.25,-197 105.25,-216.25"/>
<text text-anchor="middle" x="52.62" y="-202.75" font-family="Helvetica,sans-Serif" font-size="10.00">Ogre::StringInterface</text>
</a>
</g>
</g>
<!-- Node3&#45;&gt;Node2 -->
<g id="edge2_Node000002_Node000003" class="edge">
<title>Node3&#45;&gt;Node2</title>
<g id="a_edge2_Node000002_Node000003"><a xlink:title=" ">
<path fill="none" stroke="#63b8ff" d="M116.83,-197.24C125.05,-196.02 133.28,-194.8 140.99,-193.66"/>
<polygon fill="#63b8ff" stroke="#63b8ff" points="116.56,-193.74 107.18,-198.67 117.59,-200.67 116.56,-193.74"/>
</a>
</g>
</g>
<!-- Node4 -->
<g id="Node000004" class="node">
<title>Node4</title>
<g id="a_Node000004"><a xlink:href="class_ogre_1_1_allocated_object.html" target="_top" xlink:title="Superclass for all objects that wish to use custom memory allocators when their new / delete operator...">
<polygon fill="white" stroke="#666666" points="92.12,-179.25 13.12,-179.25 13.12,-160 92.12,-160 92.12,-179.25"/>
<text text-anchor="middle" x="52.62" y="-165.75" font-family="Helvetica,sans-Serif" font-size="10.00">ResourceAlloc</text>
</a>
</g>
</g>
<!-- Node4&#45;&gt;Node2 -->
<g id="edge3_Node000002_Node000004" class="edge">
<title>Node4&#45;&gt;Node2</title>
<g id="a_edge3_Node000002_Node000004"><a xlink:title=" ">
<path fill="none" stroke="#63b8ff" d="M103.46,-176.63C115.82,-178.37 128.91,-180.21 140.78,-181.88"/>
<polygon fill="#63b8ff" stroke="#63b8ff" points="104.27,-173.21 93.88,-175.29 103.29,-180.14 104.27,-173.21"/>
</a>
</g>
</g>
<!-- Node6 -->
<g id="Node000006" class="node">
<title>Node6</title>
<g id="a_Node000006"><a xlink:href="class_ogre_1_1_d3_d9_gpu_fragment_program.html" target="_top" xlink:title="Direct3D implementation of low&#45;level fragment programs.">
<polygon fill="white" stroke="#666666" points="730.25,-290.25 568.75,-290.25 568.75,-271 730.25,-271 730.25,-290.25"/>
<text text-anchor="middle" x="649.5" y="-276.75" font-family="Helvetica,sans-Serif" font-size="10.00">Ogre::D3D9GpuFragmentProgram</text>
</a>
</g>
</g>
<!-- Node5&#45;&gt;Node6 -->
<g id="edge5_Node000005_Node000006" class="edge">
<title>Node5&#45;&gt;Node6</title>
<g id="a_edge5_Node000005_Node000006"><a xlink:title=" ">
<path fill="none" stroke="#63b8ff" d="M525.05,-255.93C548.73,-260.67 575.48,-266.02 598.01,-270.53"/>
<polygon fill="#63b8ff" stroke="#63b8ff" points="526.03,-252.56 515.54,-254.03 524.66,-259.43 526.03,-252.56"/>
</a>
</g>
</g>
<!-- Node7 -->
<g id="Node000007" class="node">
<title>Node7</title>
<g id="a_Node000007"><a xlink:href="class_ogre_1_1_d3_d9_gpu_vertex_program.html" target="_top" xlink:title="Direct3D implementation of low&#45;level vertex programs.">
<polygon fill="white" stroke="#666666" points="723.5,-253.25 575.5,-253.25 575.5,-234 723.5,-234 723.5,-253.25"/>
<text text-anchor="middle" x="649.5" y="-239.75" font-family="Helvetica,sans-Serif" font-size="10.00">Ogre::D3D9GpuVertexProgram</text>
</a>
</g>
</g>
<!-- Node5&#45;&gt;Node7 -->
<g id="edge6_Node000005_Node000007" class="edge">
<title>Node5&#45;&gt;Node7</title>
<g id="a_edge6_Node000005_Node000007"><a xlink:title=" ">
<path fill="none" stroke="#63b8ff" d="M534.55,-243.62C547.84,-243.62 561.76,-243.62 575.12,-243.62"/>
<polygon fill="#63b8ff" stroke="#63b8ff" points="534.57,-240.13 524.57,-243.63 534.57,-247.13 534.57,-240.13"/>
</a>
</g>
</g>
<!-- Node9 -->
<g id="Node000009" class="node">
<title>Node9</title>
<g id="a_Node000009"><a xlink:href="class_ogre_1_1_d3_d11_h_l_s_l_program.html" target="_top" xlink:title="Specialization of HighLevelGpuProgram to provide support for D3D11 High&#45;Level Shader Language (HLSL).">
<polygon fill="white" stroke="#666666" points="716.38,-216.25 582.62,-216.25 582.62,-197 716.38,-197 716.38,-216.25"/>
<text text-anchor="middle" x="649.5" y="-202.75" font-family="Helvetica,sans-Serif" font-size="10.00">Ogre::D3D11HLSLProgram</text>
</a>
</g>
</g>
<!-- Node8&#45;&gt;Node9 -->
<g id="edge8_Node000008_Node000009" class="edge">
<title>Node8&#45;&gt;Node9</title>
<g id="a_edge8_Node000008_Node000009"><a xlink:title=" ">
<path fill="none" stroke="#63b8ff" d="M488.56,-148.42C509.34,-160.91 540.03,-177.96 568.75,-188.62 577,-191.69 585.93,-194.32 594.73,-196.56"/>
<polygon fill="#63b8ff" stroke="#63b8ff" points="490.58,-145.56 480.22,-143.33 486.93,-151.53 490.58,-145.56"/>
</a>
</g>
</g>
<!-- Node10 -->
<g id="Node000010" class="node">
<title>Node10</title>
<g id="a_Node000010"><a xlink:href="class_ogre_1_1_d3_d9_h_l_s_l_program.html" target="_top" xlink:title="Specialisation of HighLevelGpuProgram to provide support for D3D9 High&#45;Level Shader Language (HLSL).">
<polygon fill="white" stroke="#666666" points="713.75,-179.25 585.25,-179.25 585.25,-160 713.75,-160 713.75,-179.25"/>
<text text-anchor="middle" x="649.5" y="-165.75" font-family="Helvetica,sans-Serif" font-size="10.00">Ogre::D3D9HLSLProgram</text>
</a>
</g>
</g>
<!-- Node8&#45;&gt;Node10 -->
<g id="edge9_Node000008_Node000010" class="edge">
<title>Node8&#45;&gt;Node10</title>
<g id="a_edge9_Node000008_Node000010"><a xlink:title=" ">
<path fill="none" stroke="#63b8ff" d="M525.05,-144.93C548.73,-149.67 575.48,-155.02 598.01,-159.53"/>
<polygon fill="#63b8ff" stroke="#63b8ff" points="526.03,-141.56 515.54,-143.03 524.66,-148.43 526.03,-141.56"/>
</a>
</g>
</g>
<!-- Node11 -->
<g id="Node000011" class="node">
<title>Node11</title>
<g id="a_Node000011"><a xlink:href="class_ogre_1_1_g_l_s_l_shader.html" target="_top" xlink:title="Specialisation of HighLevelGpuProgram to encapsulate shader objects obtained from compiled shaders wr...">
<polygon fill="white" stroke="#666666" points="698.75,-142.25 600.25,-142.25 600.25,-123 698.75,-123 698.75,-142.25"/>
<text text-anchor="middle" x="649.5" y="-128.75" font-family="Helvetica,sans-Serif" font-size="10.00">Ogre::GLSLShader</text>
</a>
</g>
</g>
<!-- Node8&#45;&gt;Node11 -->
<g id="edge10_Node000008_Node000011" class="edge">
<title>Node8&#45;&gt;Node11</title>
<g id="a_edge10_Node000008_Node000011"><a xlink:title=" ">
<path fill="none" stroke="#63b8ff" d="M544.51,-132.62C563.4,-132.62 582.93,-132.62 599.9,-132.62"/>
<polygon fill="#63b8ff" stroke="#63b8ff" points="544.69,-129.13 534.69,-132.63 544.69,-136.13 544.69,-129.13"/>
</a>
</g>
</g>
<!-- Node12 -->
<g id="Node000012" class="node">
<title>Node12</title>
<g id="a_Node000012"><a xlink:href="class_ogre_1_1_metal_program.html" target="_top" xlink:title="Specialisation of HighLevelGpuProgram to provide support for Metal Shader Language.">
<polygon fill="white" stroke="#666666" points="700.62,-105.25 598.38,-105.25 598.38,-86 700.62,-86 700.62,-105.25"/>
<text text-anchor="middle" x="649.5" y="-91.75" font-family="Helvetica,sans-Serif" font-size="10.00">Ogre::MetalProgram</text>
</a>
</g>
</g>
<!-- Node8&#45;&gt;Node12 -->
<g id="edge11_Node000008_Node000012" class="edge">
<title>Node8&#45;&gt;Node12</title>
<g id="a_edge11_Node000008_Node000012"><a xlink:title=" ">
<path fill="none" stroke="#63b8ff" d="M525.05,-120.32C548.73,-115.58 575.48,-110.23 598.01,-105.72"/>
<polygon fill="#63b8ff" stroke="#63b8ff" points="524.66,-116.82 515.54,-122.22 526.03,-123.69 524.66,-116.82"/>
</a>
</g>
</g>
<!-- Node13 -->
<g id="Node000013" class="node">
<title>Node13</title>
<g id="a_Node000013"><a xlink:href="class_ogre_1_1_unified_high_level_gpu_program.html" target="_top" xlink:title="Specialisation of HighLevelGpuProgram which just delegates its implementation to one other high level...">
<polygon fill="white" stroke="#666666" points="716.38,-67.88 582.62,-67.88 582.62,-37.38 716.38,-37.38 716.38,-67.88"/>
<text text-anchor="start" x="590.62" y="-54.38" font-family="Helvetica,sans-Serif" font-size="10.00">Ogre::UnifiedHighLevelGpu</text>
<text text-anchor="middle" x="649.5" y="-43.12" font-family="Helvetica,sans-Serif" font-size="10.00">Program</text>
</a>
</g>
</g>
<!-- Node8&#45;&gt;Node13 -->
<g id="edge12_Node000008_Node000013" class="edge">
<title>Node8&#45;&gt;Node13</title>
<g id="a_edge12_Node000008_Node000013"><a xlink:title=" ">
<path fill="none" stroke="#63b8ff" d="M489.5,-116.94C510.39,-104.79 540.75,-88.15 568.75,-76.62 575.97,-73.65 583.69,-70.87 591.38,-68.32"/>
<polygon fill="#63b8ff" stroke="#63b8ff" points="487.92,-113.8 481.08,-121.89 491.48,-119.83 487.92,-113.8"/>
</a>
</g>
</g>
<!-- Node14 -->
<g id="Node000014" class="node">
<title>Node14</title>
<g id="a_Node000014"><a xlink:href="class_ogre_1_1_vulkan_program.html" target="_top" xlink:title="Specialisation of HighLevelGpuProgram to provide support for Vulkan Shader Language.">
<polygon fill="white" stroke="#666666" points="703.62,-19.25 595.38,-19.25 595.38,0 703.62,0 703.62,-19.25"/>
<text text-anchor="middle" x="649.5" y="-5.75" font-family="Helvetica,sans-Serif" font-size="10.00">Ogre::VulkanProgram</text>
</a>
</g>
</g>
<!-- Node8&#45;&gt;Node14 -->
<g id="edge13_Node000008_Node000014" class="edge">
<title>Node8&#45;&gt;Node14</title>
<g id="a_edge13_Node000008_Node000014"><a xlink:title=" ">
<path fill="none" stroke="#63b8ff" d="M477.46,-113.46C495.74,-89.82 530.03,-50.11 568.75,-28.62 576.84,-24.14 585.96,-20.7 595.07,-18.08"/>
<polygon fill="#63b8ff" stroke="#63b8ff" points="474.78,-111.21 471.55,-121.3 480.37,-115.42 474.78,-111.21"/>
</a>
</g>
</g>
</g>
</svg>
