<?xml version="1.0" encoding="UTF-8" standalone="no"?>
<!DOCTYPE svg PUBLIC "-//W3C//DTD SVG 1.1//EN"
 "http://www.w3.org/Graphics/SVG/1.1/DTD/svg11.dtd">
<!-- Generated by graphviz version 9.0.0 (20230911.1827)
 -->
<!-- Title: Ogre::StagingTextureBufferImpl Pages: 1 -->
<svg width="604pt" height="138pt"
 viewBox="0.00 0.00 603.75 138.25" xmlns="http://www.w3.org/2000/svg" xmlns:xlink="http://www.w3.org/1999/xlink">
<g id="graph0" class="graph" transform="scale(1 1) rotate(0) translate(4 134.25)">
<title>Ogre::StagingTextureBufferImpl</title>
<!-- Node1 -->
<g id="Node000001" class="node">
<title>Node1</title>
<g id="a_Node000001"><a xlink:title="This implementation can be used by all RenderSystem APIs except D3D11, which is why this implementati...">
<polygon fill="#999999" stroke="#666666" points="414.75,-74.25 263.75,-74.25 263.75,-55 414.75,-55 414.75,-74.25"/>
<text text-anchor="middle" x="339.25" y="-60.75" font-family="Helvetica,sans-Serif" font-size="10.00">Ogre::StagingTextureBufferImpl</text>
</a>
</g>
</g>
<!-- Node4 -->
<g id="Node000004" class="node">
<title>Node4</title>
<g id="a_Node000004"><a xlink:href="class_ogre_1_1_g_l3_plus_staging_texture.html" target="_top" xlink:title=" ">
<polygon fill="white" stroke="#666666" points="595.75,-130.25 450.75,-130.25 450.75,-111 595.75,-111 595.75,-130.25"/>
<text text-anchor="middle" x="523.25" y="-116.75" font-family="Helvetica,sans-Serif" font-size="10.00">Ogre::GL3PlusStagingTexture</text>
</a>
</g>
</g>
<!-- Node1&#45;&gt;Node4 -->
<g id="edge3_Node000001_Node000004" class="edge">
<title>Node1&#45;&gt;Node4</title>
<g id="a_edge3_Node000001_Node000004"><a xlink:title=" ">
<path fill="none" stroke="#63b8ff" d="M378.12,-78.53C399.33,-86.1 426.35,-95.37 450.75,-102.62 460.08,-105.4 470.17,-108.11 479.74,-110.55"/>
<polygon fill="#63b8ff" stroke="#63b8ff" points="379.31,-75.24 368.71,-75.15 376.94,-81.83 379.31,-75.24"/>
</a>
</g>
</g>
<!-- Node5 -->
<g id="Node000005" class="node">
<title>Node5</title>
<g id="a_Node000005"><a xlink:href="class_ogre_1_1_metal_staging_texture.html" target="_top" xlink:title=" ">
<polygon fill="white" stroke="#666666" points="588.62,-93.25 457.88,-93.25 457.88,-74 588.62,-74 588.62,-93.25"/>
<text text-anchor="middle" x="523.25" y="-79.75" font-family="Helvetica,sans-Serif" font-size="10.00">Ogre::MetalStagingTexture</text>
</a>
</g>
</g>
<!-- Node1&#45;&gt;Node5 -->
<g id="edge4_Node000001_Node000005" class="edge">
<title>Node1&#45;&gt;Node5</title>
<g id="a_edge4_Node000001_Node000005"><a xlink:title=" ">
<path fill="none" stroke="#63b8ff" d="M426.4,-73.62C436.91,-74.72 447.5,-75.82 457.61,-76.88"/>
<polygon fill="#63b8ff" stroke="#63b8ff" points="426.88,-70.15 416.57,-72.59 426.15,-77.11 426.88,-70.15"/>
</a>
</g>
</g>
<!-- Node6 -->
<g id="Node000006" class="node">
<title>Node6</title>
<g id="a_Node000006"><a xlink:href="class_ogre_1_1_n_u_l_l_staging_texture.html" target="_top" xlink:title=" ">
<polygon fill="white" stroke="#666666" points="590.12,-56.25 456.38,-56.25 456.38,-37 590.12,-37 590.12,-56.25"/>
<text text-anchor="middle" x="523.25" y="-42.75" font-family="Helvetica,sans-Serif" font-size="10.00">Ogre::NULLStagingTexture</text>
</a>
</g>
</g>
<!-- Node1&#45;&gt;Node6 -->
<g id="edge5_Node000001_Node000006" class="edge">
<title>Node1&#45;&gt;Node6</title>
<g id="a_edge5_Node000001_Node000006"><a xlink:title=" ">
<path fill="none" stroke="#63b8ff" d="M426.25,-56.12C436.21,-55.13 446.25,-54.14 455.89,-53.19"/>
<polygon fill="#63b8ff" stroke="#63b8ff" points="426.18,-52.61 416.57,-57.08 426.87,-59.58 426.18,-52.61"/>
</a>
</g>
</g>
<!-- Node7 -->
<g id="Node000007" class="node">
<title>Node7</title>
<g id="a_Node000007"><a xlink:href="class_ogre_1_1_vulkan_staging_texture.html" target="_top" xlink:title=" ">
<polygon fill="white" stroke="#666666" points="591.62,-19.25 454.88,-19.25 454.88,0 591.62,0 591.62,-19.25"/>
<text text-anchor="middle" x="523.25" y="-5.75" font-family="Helvetica,sans-Serif" font-size="10.00">Ogre::VulkanStagingTexture</text>
</a>
</g>
</g>
<!-- Node1&#45;&gt;Node7 -->
<g id="edge6_Node000001_Node000007" class="edge">
<title>Node1&#45;&gt;Node7</title>
<g id="a_edge6_Node000001_Node000007"><a xlink:title=" ">
<path fill="none" stroke="#63b8ff" d="M379.01,-50.84C400.1,-43.54 426.72,-34.66 450.75,-27.62 460.21,-24.86 470.45,-22.12 480.14,-19.66"/>
<polygon fill="#63b8ff" stroke="#63b8ff" points="377.94,-47.5 369.65,-54.1 380.25,-54.11 377.94,-47.5"/>
</a>
</g>
</g>
<!-- Node2 -->
<g id="Node000002" class="node">
<title>Node2</title>
<g id="a_Node000002"><a xlink:href="class_ogre_1_1_staging_texture.html" target="_top" xlink:title="A StagingTexture is an intermediate texture that can be read and be written from both CPU &amp; GPU.">
<polygon fill="white" stroke="#666666" points="227.75,-74.25 121,-74.25 121,-55 227.75,-55 227.75,-74.25"/>
<text text-anchor="middle" x="174.38" y="-60.75" font-family="Helvetica,sans-Serif" font-size="10.00">Ogre::StagingTexture</text>
</a>
</g>
</g>
<!-- Node2&#45;&gt;Node1 -->
<g id="edge1_Node000001_Node000002" class="edge">
<title>Node2&#45;&gt;Node1</title>
<g id="a_edge1_Node000001_Node000002"><a xlink:title=" ">
<path fill="none" stroke="#63b8ff" d="M239.22,-64.62C247.14,-64.62 255.3,-64.62 263.38,-64.62"/>
<polygon fill="#63b8ff" stroke="#63b8ff" points="239.32,-61.13 229.32,-64.63 239.32,-68.13 239.32,-61.13"/>
</a>
</g>
</g>
<!-- Node3 -->
<g id="Node000003" class="node">
<title>Node3</title>
<g id="a_Node000003"><a xlink:href="class_ogre_1_1_allocated_object.html" target="_top" xlink:title="Superclass for all objects that wish to use custom memory allocators when their new / delete operator...">
<polygon fill="white" stroke="#666666" points="85,-74.25 0,-74.25 0,-55 85,-55 85,-74.25"/>
<text text-anchor="middle" x="42.5" y="-60.75" font-family="Helvetica,sans-Serif" font-size="10.00">RenderSysAlloc</text>
</a>
</g>
</g>
<!-- Node3&#45;&gt;Node2 -->
<g id="edge2_Node000002_Node000003" class="edge">
<title>Node3&#45;&gt;Node2</title>
<g id="a_edge2_Node000002_Node000003"><a xlink:title=" ">
<path fill="none" stroke="#63b8ff" d="M96.69,-64.62C104.62,-64.62 112.79,-64.62 120.7,-64.62"/>
<polygon fill="#63b8ff" stroke="#63b8ff" points="96.82,-61.13 86.82,-64.63 96.82,-68.13 96.82,-61.13"/>
</a>
</g>
</g>
</g>
</svg>
