<?xml version="1.0" encoding="UTF-8" standalone="no"?>
<!DOCTYPE svg PUBLIC "-//W3C//DTD SVG 1.1//EN"
 "http://www.w3.org/Graphics/SVG/1.1/DTD/svg11.dtd">
<!-- Generated by graphviz version 7.0.5 (20221223.1930)
 -->
<!-- Title: Ogre::CompositorPassDef Pages: 1 -->
<svg width="491pt" height="421pt"
 viewBox="0.00 0.00 491.00 421.00" xmlns="http://www.w3.org/2000/svg" xmlns:xlink="http://www.w3.org/1999/xlink">
<g id="graph0" class="graph" transform="scale(1 1) rotate(0) translate(4 417)">
<title>Ogre::CompositorPassDef</title>
<!-- Node1 -->
<g id="node1" class="node">
<title>Node1</title>
<g id="a_node1"><a xlink:title="Interface to abstract all types of pass definitions (.">
<polygon fill="#999999" stroke="#666666" points="269,-216 140,-216 140,-197 269,-197 269,-216"/>
<text text-anchor="middle" x="204.5" y="-204" font-family="Helvetica,sans-Serif" font-size="10.00">Ogre::CompositorPassDef</text>
</a>
</g>
</g>
<!-- Node3 -->
<g id="node3" class="node">
<title>Node3</title>
<g id="a_node3"><a xlink:href="class_ogre_1_1_compositor_pass_clear_def.html" target="_top" xlink:title=" ">
<polygon fill="white" stroke="#666666" points="470,-413 318,-413 318,-394 470,-394 470,-413"/>
<text text-anchor="middle" x="394" y="-401" font-family="Helvetica,sans-Serif" font-size="10.00">Ogre::CompositorPassClearDef</text>
</a>
</g>
</g>
<!-- Node1&#45;&gt;Node3 -->
<g id="edge2" class="edge">
<title>Node1&#45;&gt;Node3</title>
<path fill="none" stroke="#63b8ff" d="M210.69,-226.78C221.44,-264.46 249.89,-345.1 305,-385.5 309.4,-388.73 314.24,-391.41 319.33,-393.63"/>
<polygon fill="#63b8ff" stroke="#63b8ff" points="214.2,-226.36 208.21,-217.62 207.45,-228.19 214.2,-226.36"/>
</g>
<!-- Node4 -->
<g id="node4" class="node">
<title>Node4</title>
<g id="a_node4"><a xlink:href="class_ogre_1_1_compositor_pass_compute_def.html" target="_top" xlink:title=" ">
<polygon fill="white" stroke="#666666" points="478,-376 310,-376 310,-357 478,-357 478,-376"/>
<text text-anchor="middle" x="394" y="-364" font-family="Helvetica,sans-Serif" font-size="10.00">Ogre::CompositorPassComputeDef</text>
</a>
</g>
</g>
<!-- Node1&#45;&gt;Node4 -->
<g id="edge3" class="edge">
<title>Node1&#45;&gt;Node4</title>
<path fill="none" stroke="#63b8ff" d="M213.88,-226.7C227.89,-257.84 259.14,-317.16 305,-347.5 310.61,-351.21 316.81,-354.21 323.26,-356.63"/>
<polygon fill="#63b8ff" stroke="#63b8ff" points="217.14,-225.43 209.96,-217.65 210.72,-228.21 217.14,-225.43"/>
</g>
<!-- Node5 -->
<g id="node5" class="node">
<title>Node5</title>
<g id="a_node5"><a xlink:href="class_ogre_1_1_compositor_pass_depth_copy_def.html" target="_top" xlink:title=" ">
<polygon fill="white" stroke="#666666" points="464,-338.5 324,-338.5 324,-308.5 464,-308.5 464,-338.5"/>
<text text-anchor="start" x="332" y="-326.5" font-family="Helvetica,sans-Serif" font-size="10.00">Ogre::CompositorPassDepth</text>
<text text-anchor="middle" x="394" y="-315.5" font-family="Helvetica,sans-Serif" font-size="10.00">CopyDef</text>
</a>
</g>
</g>
<!-- Node1&#45;&gt;Node5 -->
<g id="edge4" class="edge">
<title>Node1&#45;&gt;Node5</title>
<path fill="none" stroke="#63b8ff" d="M220.32,-224.96C238.21,-246.05 270.26,-280.12 305,-299.5 310.81,-302.74 317.08,-305.56 323.5,-308.02"/>
<polygon fill="#63b8ff" stroke="#63b8ff" points="223.17,-222.92 214.1,-217.46 217.78,-227.39 223.17,-222.92"/>
</g>
<!-- Node6 -->
<g id="node6" class="node">
<title>Node6</title>
<g id="a_node6"><a xlink:href="class_ogre_1_1_compositor_pass_ibl_specular_def.html" target="_top" xlink:title=" ">
<polygon fill="white" stroke="#666666" points="483,-290 305,-290 305,-271 483,-271 483,-290"/>
<text text-anchor="middle" x="394" y="-278" font-family="Helvetica,sans-Serif" font-size="10.00">Ogre::CompositorPassIblSpecularDef</text>
</a>
</g>
</g>
<!-- Node1&#45;&gt;Node6 -->
<g id="edge5" class="edge">
<title>Node1&#45;&gt;Node6</title>
<path fill="none" stroke="#63b8ff" d="M229.21,-222.64C248.75,-235.25 277.61,-252.28 305,-262.5 313.47,-265.66 322.62,-268.32 331.71,-270.53"/>
<polygon fill="#63b8ff" stroke="#63b8ff" points="231.18,-219.75 220.9,-217.18 227.33,-225.6 231.18,-219.75"/>
</g>
<!-- Node7 -->
<g id="node7" class="node">
<title>Node7</title>
<g id="a_node7"><a xlink:href="class_ogre_1_1_compositor_pass_mipmap_def.html" target="_top" xlink:title=" ">
<polygon fill="white" stroke="#666666" points="476,-253 312,-253 312,-234 476,-234 476,-253"/>
<text text-anchor="middle" x="394" y="-241" font-family="Helvetica,sans-Serif" font-size="10.00">Ogre::CompositorPassMipmapDef</text>
</a>
</g>
</g>
<!-- Node1&#45;&gt;Node7 -->
<g id="edge6" class="edge">
<title>Node1&#45;&gt;Node7</title>
<path fill="none" stroke="#63b8ff" d="M266.76,-218.59C291.32,-223.43 319.27,-228.95 342.61,-233.56"/>
<polygon fill="#63b8ff" stroke="#63b8ff" points="267.72,-215.21 257.23,-216.71 266.36,-222.08 267.72,-215.21"/>
</g>
<!-- Node8 -->
<g id="node8" class="node">
<title>Node8</title>
<g id="a_node8"><a xlink:href="class_ogre_1_1_compositor_pass_quad_def.html" target="_top" xlink:title=" ">
<polygon fill="white" stroke="#666666" points="470,-216 318,-216 318,-197 470,-197 470,-216"/>
<text text-anchor="middle" x="394" y="-204" font-family="Helvetica,sans-Serif" font-size="10.00">Ogre::CompositorPassQuadDef</text>
</a>
</g>
</g>
<!-- Node1&#45;&gt;Node8 -->
<g id="edge7" class="edge">
<title>Node1&#45;&gt;Node8</title>
<path fill="none" stroke="#63b8ff" d="M280.39,-206.5C292.7,-206.5 305.46,-206.5 317.78,-206.5"/>
<polygon fill="#63b8ff" stroke="#63b8ff" points="280.75,-203 270.75,-206.5 280.75,-210 280.75,-203"/>
</g>
<!-- Node9 -->
<g id="node9" class="node">
<title>Node9</title>
<g id="a_node9"><a xlink:href="class_ogre_1_1_compositor_pass_scene_def.html" target="_top" xlink:title=" ">
<polygon fill="white" stroke="#666666" points="472.5,-179 315.5,-179 315.5,-160 472.5,-160 472.5,-179"/>
<text text-anchor="middle" x="394" y="-167" font-family="Helvetica,sans-Serif" font-size="10.00">Ogre::CompositorPassSceneDef</text>
</a>
</g>
</g>
<!-- Node1&#45;&gt;Node9 -->
<g id="edge8" class="edge">
<title>Node1&#45;&gt;Node9</title>
<path fill="none" stroke="#63b8ff" d="M266.76,-194.41C291.32,-189.57 319.27,-184.05 342.61,-179.44"/>
<polygon fill="#63b8ff" stroke="#63b8ff" points="266.36,-190.92 257.23,-196.29 267.72,-197.79 266.36,-190.92"/>
</g>
<!-- Node10 -->
<g id="node10" class="node">
<title>Node10</title>
<g id="a_node10"><a xlink:href="class_ogre_1_1_compositor_pass_shadows_def.html" target="_top" xlink:title=" ">
<polygon fill="white" stroke="#666666" points="479,-142 309,-142 309,-123 479,-123 479,-142"/>
<text text-anchor="middle" x="394" y="-130" font-family="Helvetica,sans-Serif" font-size="10.00">Ogre::CompositorPassShadowsDef</text>
</a>
</g>
</g>
<!-- Node1&#45;&gt;Node10 -->
<g id="edge9" class="edge">
<title>Node1&#45;&gt;Node10</title>
<path fill="none" stroke="#63b8ff" d="M229.21,-190.36C248.75,-177.75 277.61,-160.72 305,-150.5 313.47,-147.34 322.62,-144.68 331.71,-142.47"/>
<polygon fill="#63b8ff" stroke="#63b8ff" points="227.33,-187.4 220.9,-195.82 231.18,-193.25 227.33,-187.4"/>
</g>
<!-- Node11 -->
<g id="node11" class="node">
<title>Node11</title>
<g id="a_node11"><a xlink:href="class_ogre_1_1_compositor_pass_stencil_def.html" target="_top" xlink:title=" ">
<polygon fill="white" stroke="#666666" points="473.5,-105 314.5,-105 314.5,-86 473.5,-86 473.5,-105"/>
<text text-anchor="middle" x="394" y="-93" font-family="Helvetica,sans-Serif" font-size="10.00">Ogre::CompositorPassStencilDef</text>
</a>
</g>
</g>
<!-- Node1&#45;&gt;Node11 -->
<g id="edge10" class="edge">
<title>Node1&#45;&gt;Node11</title>
<path fill="none" stroke="#63b8ff" d="M219.83,-187.97C237.47,-166.53 269.47,-131.85 305,-113.5 311.23,-110.28 318,-107.64 324.91,-105.46"/>
<polygon fill="#63b8ff" stroke="#63b8ff" points="217.24,-185.6 213.72,-195.6 222.71,-189.98 217.24,-185.6"/>
</g>
<!-- Node12 -->
<g id="node12" class="node">
<title>Node12</title>
<g id="a_node12"><a xlink:href="class_ogre_1_1_compositor_pass_target_barrier_def.html" target="_top" xlink:title=" ">
<polygon fill="white" stroke="#666666" points="465,-67.5 323,-67.5 323,-37.5 465,-37.5 465,-67.5"/>
<text text-anchor="start" x="331" y="-55.5" font-family="Helvetica,sans-Serif" font-size="10.00">Ogre::CompositorPassTarget</text>
<text text-anchor="middle" x="394" y="-44.5" font-family="Helvetica,sans-Serif" font-size="10.00">BarrierDef</text>
</a>
</g>
</g>
<!-- Node1&#45;&gt;Node12 -->
<g id="edge11" class="edge">
<title>Node1&#45;&gt;Node12</title>
<path fill="none" stroke="#63b8ff" d="M215.35,-186.52C230.57,-157.77 262.52,-105.06 305,-76.5 310.52,-72.79 316.6,-69.65 322.9,-66.99"/>
<polygon fill="#63b8ff" stroke="#63b8ff" points="212.33,-184.75 210.88,-195.24 218.56,-187.94 212.33,-184.75"/>
</g>
<!-- Node13 -->
<g id="node13" class="node">
<title>Node13</title>
<g id="a_node13"><a xlink:href="class_ogre_1_1_compositor_pass_uav_def.html" target="_top" xlink:title=" ">
<polygon fill="white" stroke="#666666" points="467.5,-19 320.5,-19 320.5,0 467.5,0 467.5,-19"/>
<text text-anchor="middle" x="394" y="-7" font-family="Helvetica,sans-Serif" font-size="10.00">Ogre::CompositorPassUavDef</text>
</a>
</g>
</g>
<!-- Node1&#45;&gt;Node13 -->
<g id="edge12" class="edge">
<title>Node1&#45;&gt;Node13</title>
<path fill="none" stroke="#63b8ff" d="M210.91,-185.9C221.9,-148.31 250.53,-68.79 305,-28.5 309.9,-24.88 315.35,-21.91 321.07,-19.5"/>
<polygon fill="#63b8ff" stroke="#63b8ff" points="207.56,-184.89 208.25,-195.46 214.3,-186.76 207.56,-184.89"/>
</g>
<!-- Node2 -->
<g id="node2" class="node">
<title>Node2</title>
<g id="a_node2"><a xlink:href="class_ogre_1_1_allocated_object.html" target="_top" xlink:title="Superclass for all objects that wish to use custom memory allocators when their new / delete operator...">
<polygon fill="white" stroke="#666666" points="104,-216 0,-216 0,-197 104,-197 104,-216"/>
<text text-anchor="middle" x="52" y="-204" font-family="Helvetica,sans-Serif" font-size="10.00">CompositorInstAlloc</text>
</a>
</g>
</g>
<!-- Node2&#45;&gt;Node1 -->
<g id="edge1" class="edge">
<title>Node2&#45;&gt;Node1</title>
<path fill="none" stroke="#63b8ff" d="M115.74,-206.5C123.62,-206.5 131.68,-206.5 139.58,-206.5"/>
<polygon fill="#63b8ff" stroke="#63b8ff" points="115.89,-203 105.89,-206.5 115.89,-210 115.89,-203"/>
</g>
</g>
</svg>
