<?xml version="1.0" encoding="UTF-8" standalone="no"?>
<!DOCTYPE svg PUBLIC "-//W3C//DTD SVG 1.1//EN"
 "http://www.w3.org/Graphics/SVG/1.1/DTD/svg11.dtd">
<!-- Generated by graphviz version 7.0.5 (20221223.1930)
 -->
<!-- Title: Ogre::ScriptLoader Pages: 1 -->
<svg width="674pt" height="434pt"
 viewBox="0.00 0.00 674.00 434.00" xmlns="http://www.w3.org/2000/svg" xmlns:xlink="http://www.w3.org/1999/xlink">
<g id="graph0" class="graph" transform="scale(1 1) rotate(0) translate(4 430)">
<title>Ogre::ScriptLoader</title>
<!-- Node1 -->
<g id="node1" class="node">
<title>Node1</title>
<g id="a_node1"><a xlink:title="Abstract class defining the interface used by classes which wish to perform script loading to define ...">
<polygon fill="#999999" stroke="#666666" points="98,-234 0,-234 0,-215 98,-215 98,-234"/>
<text text-anchor="middle" x="49" y="-222" font-family="Helvetica,sans-Serif" font-size="10.00">Ogre::ScriptLoader</text>
</a>
</g>
</g>
<!-- Node2 -->
<g id="node2" class="node">
<title>Node2</title>
<g id="a_node2"><a xlink:href="class_ogre_1_1_hlms_manager.html" target="_top" xlink:title="HLMS stands for &quot;High Level Material System&quot;.">
<polygon fill="white" stroke="#666666" points="258.5,-327 155.5,-327 155.5,-308 258.5,-308 258.5,-327"/>
<text text-anchor="middle" x="207" y="-315" font-family="Helvetica,sans-Serif" font-size="10.00">Ogre::HlmsManager</text>
</a>
</g>
</g>
<!-- Node1&#45;&gt;Node2 -->
<g id="edge1" class="edge">
<title>Node1&#45;&gt;Node2</title>
<path fill="none" stroke="#63b8ff" d="M65.82,-243.05C81.45,-260.2 106.88,-285.14 134,-299.5 140.6,-303 147.91,-305.83 155.27,-308.13"/>
<polygon fill="#63b8ff" stroke="#63b8ff" points="68.45,-240.74 59.2,-235.57 63.21,-245.38 68.45,-240.74"/>
</g>
<!-- Node3 -->
<g id="node3" class="node">
<title>Node3</title>
<g id="a_node3"><a xlink:href="class_ogre_1_1_particle_system_manager.html" target="_top" xlink:title="Manages particle systems, particle system scripts (templates) and the available emitter &amp; affector fa...">
<polygon fill="white" stroke="#666666" points="280,-290 134,-290 134,-271 280,-271 280,-290"/>
<text text-anchor="middle" x="207" y="-278" font-family="Helvetica,sans-Serif" font-size="10.00">Ogre::ParticleSystemManager</text>
</a>
</g>
</g>
<!-- Node1&#45;&gt;Node3 -->
<g id="edge2" class="edge">
<title>Node1&#45;&gt;Node3</title>
<path fill="none" stroke="#63b8ff" d="M79.52,-239.43C95.39,-247.05 115.45,-256.05 134,-262.5 142.64,-265.51 152.03,-268.23 161.08,-270.6"/>
<polygon fill="#63b8ff" stroke="#63b8ff" points="81.16,-236.34 70.64,-235.09 78.09,-242.63 81.16,-236.34"/>
</g>
<!-- Node4 -->
<g id="node4" class="node">
<title>Node4</title>
<g id="a_node4"><a xlink:href="class_ogre_1_1_quake3_shader_manager.html" target="_top" xlink:title="Class for managing Quake3 custom shaders.">
<polygon fill="white" stroke="#666666" points="279,-253 135,-253 135,-234 279,-234 279,-253"/>
<text text-anchor="middle" x="207" y="-241" font-family="Helvetica,sans-Serif" font-size="10.00">Ogre::Quake3ShaderManager</text>
</a>
</g>
</g>
<!-- Node1&#45;&gt;Node4 -->
<g id="edge3" class="edge">
<title>Node1&#45;&gt;Node4</title>
<path fill="none" stroke="#63b8ff" d="M109.45,-231.74C117.66,-232.74 126.17,-233.78 134.57,-234.8"/>
<polygon fill="#63b8ff" stroke="#63b8ff" points="109.93,-228.27 99.58,-230.54 109.08,-235.22 109.93,-228.27"/>
</g>
<!-- Node5 -->
<g id="node5" class="node">
<title>Node5</title>
<g id="a_node5"><a xlink:href="class_ogre_1_1_resource_manager.html" target="_top" xlink:title="Defines a generic resource handler.">
<polygon fill="white" stroke="#666666" points="267.5,-216 146.5,-216 146.5,-197 267.5,-197 267.5,-216"/>
<text text-anchor="middle" x="207" y="-204" font-family="Helvetica,sans-Serif" font-size="10.00">Ogre::ResourceManager</text>
</a>
</g>
</g>
<!-- Node1&#45;&gt;Node5 -->
<g id="edge4" class="edge">
<title>Node1&#45;&gt;Node5</title>
<path fill="none" stroke="#63b8ff" d="M109.41,-217.64C121.47,-216.25 134.17,-214.79 146.24,-213.4"/>
<polygon fill="#63b8ff" stroke="#63b8ff" points="109.11,-214.16 99.58,-218.78 109.92,-221.11 109.11,-214.16"/>
</g>
<!-- Node27 -->
<g id="node27" class="node">
<title>Node27</title>
<g id="a_node27"><a xlink:href="class_ogre_1_1_script_compiler_manager.html" target="_top" xlink:title="Manages threaded compilation of scripts.">
<polygon fill="white" stroke="#666666" points="278.5,-179 135.5,-179 135.5,-160 278.5,-160 278.5,-179"/>
<text text-anchor="middle" x="207" y="-167" font-family="Helvetica,sans-Serif" font-size="10.00">Ogre::ScriptCompilerManager</text>
</a>
</g>
</g>
<!-- Node1&#45;&gt;Node27 -->
<g id="edge26" class="edge">
<title>Node1&#45;&gt;Node27</title>
<path fill="none" stroke="#63b8ff" d="M80.91,-209.96C96.6,-202.92 116.08,-194.67 134,-188.5 143.66,-185.18 154.21,-182.09 164.19,-179.42"/>
<polygon fill="#63b8ff" stroke="#63b8ff" points="79.75,-206.65 72.1,-213.98 82.65,-213.01 79.75,-206.65"/>
</g>
<!-- Node28 -->
<g id="node28" class="node">
<title>Node28</title>
<g id="a_node28"><a xlink:href="class_ogre_1_1v1_1_1_overlay_manager.html" target="_top" xlink:title="Manages Overlay objects, parsing them from .overlay files and storing a lookup library of them.">
<polygon fill="white" stroke="#666666" points="271,-142 143,-142 143,-123 271,-123 271,-142"/>
<text text-anchor="middle" x="207" y="-130" font-family="Helvetica,sans-Serif" font-size="10.00">Ogre::v1::OverlayManager</text>
</a>
</g>
</g>
<!-- Node1&#45;&gt;Node28 -->
<g id="edge27" class="edge">
<title>Node1&#45;&gt;Node28</title>
<path fill="none" stroke="#63b8ff" d="M65.96,-206.54C81.69,-189.91 107.2,-165.68 134,-151.5 140.86,-147.87 148.45,-144.9 156.07,-142.48"/>
<polygon fill="#63b8ff" stroke="#63b8ff" points="63.5,-204.04 59.31,-213.77 68.65,-208.78 63.5,-204.04"/>
</g>
<!-- Node6 -->
<g id="node6" class="node">
<title>Node6</title>
<g id="a_node6"><a xlink:href="class_ogre_1_1_bsp_resource_manager.html" target="_top" xlink:title="Manages the locating and loading of BSP&#45;based indoor levels.">
<polygon fill="white" stroke="#666666" points="459,-376 321,-376 321,-357 459,-357 459,-376"/>
<text text-anchor="middle" x="390" y="-364" font-family="Helvetica,sans-Serif" font-size="10.00">Ogre::BspResourceManager</text>
</a>
</g>
</g>
<!-- Node5&#45;&gt;Node6 -->
<g id="edge5" class="edge">
<title>Node5&#45;&gt;Node6</title>
<path fill="none" stroke="#63b8ff" d="M276.65,-222.54C277.81,-223.48 278.93,-224.46 280,-225.5 320.81,-265.24 274.87,-309.1 316,-348.5 319.39,-351.75 323.28,-354.44 327.44,-356.67"/>
<polygon fill="#63b8ff" stroke="#63b8ff" points="278.6,-219.63 268.29,-217.19 274.82,-225.53 278.6,-219.63"/>
</g>
<!-- Node7 -->
<g id="node7" class="node">
<title>Node7</title>
<g id="a_node7"><a xlink:href="class_ogre_1_1_font_manager.html" target="_top" xlink:title="Manages Font resources, parsing .fontdef files and generally organising them.">
<polygon fill="white" stroke="#666666" points="439.5,-339 340.5,-339 340.5,-320 439.5,-320 439.5,-339"/>
<text text-anchor="middle" x="390" y="-327" font-family="Helvetica,sans-Serif" font-size="10.00">Ogre::FontManager</text>
</a>
</g>
</g>
<!-- Node5&#45;&gt;Node7 -->
<g id="edge6" class="edge">
<title>Node5&#45;&gt;Node7</title>
<path fill="none" stroke="#63b8ff" d="M275.47,-221.98C277.04,-223.07 278.56,-224.25 280,-225.5 311.26,-252.7 284.52,-284.55 316,-311.5 322.84,-317.36 331.3,-321.37 340,-324.09"/>
<polygon fill="#63b8ff" stroke="#63b8ff" points="277.61,-219.17 267.19,-217.24 274.14,-225.25 277.61,-219.17"/>
</g>
<!-- Node8 -->
<g id="node8" class="node">
<title>Node8</title>
<g id="a_node8"><a xlink:href="class_ogre_1_1_gpu_program_manager.html" target="_top" xlink:title=" ">
<polygon fill="white" stroke="#666666" points="457,-302 323,-302 323,-283 457,-283 457,-302"/>
<text text-anchor="middle" x="390" y="-290" font-family="Helvetica,sans-Serif" font-size="10.00">Ogre::GpuProgramManager</text>
</a>
</g>
</g>
<!-- Node5&#45;&gt;Node8 -->
<g id="edge7" class="edge">
<title>Node5&#45;&gt;Node8</title>
<path fill="none" stroke="#63b8ff" d="M272.47,-221.06C275.08,-222.41 277.61,-223.89 280,-225.5 302.12,-240.39 293.86,-258.64 316,-273.5 321.55,-277.22 327.78,-280.21 334.21,-282.62"/>
<polygon fill="#63b8ff" stroke="#63b8ff" points="273.99,-217.91 263.43,-217.07 271.16,-224.31 273.99,-217.91"/>
</g>
<!-- Node15 -->
<g id="node15" class="node">
<title>Node15</title>
<g id="a_node15"><a xlink:href="class_ogre_1_1_high_level_gpu_program_manager.html" target="_top" xlink:title="This ResourceManager manages high&#45;level vertex and fragment programs.">
<polygon fill="white" stroke="#666666" points="460.5,-264.5 319.5,-264.5 319.5,-234.5 460.5,-234.5 460.5,-264.5"/>
<text text-anchor="start" x="327.5" y="-252.5" font-family="Helvetica,sans-Serif" font-size="10.00">Ogre::HighLevelGpuProgram</text>
<text text-anchor="middle" x="390" y="-241.5" font-family="Helvetica,sans-Serif" font-size="10.00">Manager</text>
</a>
</g>
</g>
<!-- Node5&#45;&gt;Node15 -->
<g id="edge14" class="edge">
<title>Node5&#45;&gt;Node15</title>
<path fill="none" stroke="#63b8ff" d="M261.17,-219.13C280.8,-223.8 303.28,-229.13 323.85,-234.02"/>
<polygon fill="#63b8ff" stroke="#63b8ff" points="261.99,-215.73 251.45,-216.82 260.37,-222.54 261.99,-215.73"/>
</g>
<!-- Node16 -->
<g id="node16" class="node">
<title>Node16</title>
<g id="a_node16"><a xlink:href="class_ogre_1_1_material_manager.html" target="_top" xlink:title="Class for managing Material settings for Ogre.">
<polygon fill="white" stroke="#666666" points="447,-216 333,-216 333,-197 447,-197 447,-216"/>
<text text-anchor="middle" x="390" y="-204" font-family="Helvetica,sans-Serif" font-size="10.00">Ogre::MaterialManager</text>
</a>
</g>
</g>
<!-- Node5&#45;&gt;Node16 -->
<g id="edge15" class="edge">
<title>Node5&#45;&gt;Node16</title>
<path fill="none" stroke="#63b8ff" d="M279.25,-206.5C296.99,-206.5 315.76,-206.5 332.67,-206.5"/>
<polygon fill="#63b8ff" stroke="#63b8ff" points="279.28,-203 269.28,-206.5 279.28,-210 279.28,-203"/>
</g>
<!-- Node17 -->
<g id="node17" class="node">
<title>Node17</title>
<g id="a_node17"><a xlink:href="class_ogre_1_1_mesh_manager.html" target="_top" xlink:title="Handles the management of mesh resources.">
<polygon fill="white" stroke="#666666" points="442,-179 338,-179 338,-160 442,-160 442,-179"/>
<text text-anchor="middle" x="390" y="-167" font-family="Helvetica,sans-Serif" font-size="10.00">Ogre::MeshManager</text>
</a>
</g>
</g>
<!-- Node5&#45;&gt;Node17 -->
<g id="edge16" class="edge">
<title>Node5&#45;&gt;Node17</title>
<path fill="none" stroke="#63b8ff" d="M267.78,-194.28C291.33,-189.47 318.03,-184.01 340.36,-179.44"/>
<polygon fill="#63b8ff" stroke="#63b8ff" points="267.08,-190.85 257.99,-196.28 268.49,-197.71 267.08,-190.85"/>
</g>
<!-- Node18 -->
<g id="node18" class="node">
<title>Node18</title>
<g id="a_node18"><a xlink:href="class_ogre_1_1_texture_manager.html" target="_top" xlink:title="Class for loading &amp; managing textures.">
<polygon fill="white" stroke="#666666" points="446,-142 334,-142 334,-123 446,-123 446,-142"/>
<text text-anchor="middle" x="390" y="-130" font-family="Helvetica,sans-Serif" font-size="10.00">Ogre::TextureManager</text>
</a>
</g>
</g>
<!-- Node5&#45;&gt;Node18 -->
<g id="edge17" class="edge">
<title>Node5&#45;&gt;Node18</title>
<path fill="none" stroke="#63b8ff" d="M272.66,-192.27C275.19,-191.11 277.64,-189.86 280,-188.5 299.89,-177.06 296.17,-163.04 316,-151.5 322.34,-147.81 329.4,-144.83 336.56,-142.42"/>
<polygon fill="#63b8ff" stroke="#63b8ff" points="271.38,-189.01 263.39,-195.97 273.98,-195.51 271.38,-189.01"/>
</g>
<!-- Node25 -->
<g id="node25" class="node">
<title>Node25</title>
<g id="a_node25"><a xlink:href="class_ogre_1_1v1_1_1_mesh_manager.html" target="_top" xlink:title="Handles the management of mesh resources.">
<polygon fill="white" stroke="#666666" points="449.5,-105 330.5,-105 330.5,-86 449.5,-86 449.5,-105"/>
<text text-anchor="middle" x="390" y="-93" font-family="Helvetica,sans-Serif" font-size="10.00">Ogre::v1::MeshManager</text>
</a>
</g>
</g>
<!-- Node5&#45;&gt;Node25 -->
<g id="edge24" class="edge">
<title>Node5&#45;&gt;Node25</title>
<path fill="none" stroke="#63b8ff" d="M276.51,-191.11C277.71,-190.28 278.87,-189.41 280,-188.5 308.4,-165.46 287.71,-137.68 316,-114.5 320.46,-110.85 325.54,-107.89 330.9,-105.5"/>
<polygon fill="#63b8ff" stroke="#63b8ff" points="275.04,-187.91 268.05,-195.87 278.48,-194.01 275.04,-187.91"/>
</g>
<!-- Node26 -->
<g id="node26" class="node">
<title>Node26</title>
<g id="a_node26"><a xlink:href="class_ogre_1_1v1_1_1_old_skeleton_manager.html" target="_top" xlink:title="Handles the management of skeleton resources.">
<polygon fill="white" stroke="#666666" points="464,-68 316,-68 316,-49 464,-49 464,-68"/>
<text text-anchor="middle" x="390" y="-56" font-family="Helvetica,sans-Serif" font-size="10.00">Ogre::v1::OldSkeletonManager</text>
</a>
</g>
</g>
<!-- Node5&#45;&gt;Node26 -->
<g id="edge25" class="edge">
<title>Node5&#45;&gt;Node26</title>
<path fill="none" stroke="#63b8ff" d="M277.58,-190.61C278.41,-189.93 279.22,-189.23 280,-188.5 317.91,-153.11 278.26,-113.08 316,-77.5 319.91,-73.82 324.43,-70.83 329.28,-68.4"/>
<polygon fill="#63b8ff" stroke="#63b8ff" points="275.7,-187.66 269.2,-196.02 279.5,-193.54 275.7,-187.66"/>
</g>
<!-- Node9 -->
<g id="node9" class="node">
<title>Node9</title>
<g id="a_node9"><a xlink:href="class_ogre_1_1_d3_d11_gpu_program_manager.html" target="_top" xlink:title=" ">
<polygon fill="white" stroke="#666666" points="665,-426 501,-426 501,-407 665,-407 665,-426"/>
<text text-anchor="middle" x="583" y="-414" font-family="Helvetica,sans-Serif" font-size="10.00">Ogre::D3D11GpuProgramManager</text>
</a>
</g>
</g>
<!-- Node8&#45;&gt;Node9 -->
<g id="edge8" class="edge">
<title>Node8&#45;&gt;Node9</title>
<path fill="none" stroke="#63b8ff" d="M459.41,-307.93C461.01,-309.04 462.54,-310.23 464,-311.5 495.56,-338.98 467.92,-371.63 500,-398.5 503.8,-401.68 508.04,-404.34 512.53,-406.55"/>
<polygon fill="#63b8ff" stroke="#63b8ff" points="461.43,-305.05 451.01,-303.14 457.96,-311.13 461.43,-305.05"/>
</g>
<!-- Node10 -->
<g id="node10" class="node">
<title>Node10</title>
<g id="a_node10"><a xlink:href="class_ogre_1_1_d3_d9_gpu_program_manager.html" target="_top" xlink:title=" ">
<polygon fill="white" stroke="#666666" points="662,-389 504,-389 504,-370 662,-370 662,-389"/>
<text text-anchor="middle" x="583" y="-377" font-family="Helvetica,sans-Serif" font-size="10.00">Ogre::D3D9GpuProgramManager</text>
</a>
</g>
</g>
<!-- Node8&#45;&gt;Node10 -->
<g id="edge9" class="edge">
<title>Node8&#45;&gt;Node10</title>
<path fill="none" stroke="#63b8ff" d="M456.56,-307.04C459.14,-308.4 461.64,-309.88 464,-311.5 486.59,-326.98 477.12,-346.46 500,-361.5 504.87,-364.7 510.22,-367.34 515.79,-369.52"/>
<polygon fill="#63b8ff" stroke="#63b8ff" points="458.18,-303.93 447.62,-303.04 455.32,-310.32 458.18,-303.93"/>
</g>
<!-- Node11 -->
<g id="node11" class="node">
<title>Node11</title>
<g id="a_node11"><a xlink:href="class_ogre_1_1_g_l_e_s2_gpu_program_manager.html" target="_top" xlink:title=" ">
<polygon fill="white" stroke="#666666" points="666,-352 500,-352 500,-333 666,-333 666,-352"/>
<text text-anchor="middle" x="583" y="-340" font-family="Helvetica,sans-Serif" font-size="10.00">Ogre::GLES2GpuProgramManager</text>
</a>
</g>
</g>
<!-- Node8&#45;&gt;Node11 -->
<g id="edge10" class="edge">
<title>Node8&#45;&gt;Node11</title>
<path fill="none" stroke="#63b8ff" d="M443.08,-305.43C450.14,-307.36 457.27,-309.41 464,-311.5 480.25,-316.54 483.66,-319.78 500,-324.5 510.22,-327.45 521.28,-330.19 531.87,-332.58"/>
<polygon fill="#63b8ff" stroke="#63b8ff" points="444.14,-302.09 433.58,-302.89 442.33,-308.85 444.14,-302.09"/>
</g>
<!-- Node12 -->
<g id="node12" class="node">
<title>Node12</title>
<g id="a_node12"><a xlink:href="class_ogre_1_1_g_l_s_l_shader_manager.html" target="_top" xlink:title=" ">
<polygon fill="white" stroke="#666666" points="651.5,-315 514.5,-315 514.5,-296 651.5,-296 651.5,-315"/>
<text text-anchor="middle" x="583" y="-303" font-family="Helvetica,sans-Serif" font-size="10.00">Ogre::GLSLShaderManager</text>
</a>
</g>
</g>
<!-- Node8&#45;&gt;Node12 -->
<g id="edge11" class="edge">
<title>Node8&#45;&gt;Node12</title>
<path fill="none" stroke="#63b8ff" d="M468.67,-297.79C483.77,-298.81 499.48,-299.88 514.23,-300.89"/>
<polygon fill="#63b8ff" stroke="#63b8ff" points="468.99,-294.3 458.78,-297.11 468.52,-301.28 468.99,-294.3"/>
</g>
<!-- Node13 -->
<g id="node13" class="node">
<title>Node13</title>
<g id="a_node13"><a xlink:href="class_ogre_1_1_metal_gpu_program_manager.html" target="_top" xlink:title=" ">
<polygon fill="white" stroke="#666666" points="662,-278 504,-278 504,-259 662,-259 662,-278"/>
<text text-anchor="middle" x="583" y="-266" font-family="Helvetica,sans-Serif" font-size="10.00">Ogre::MetalGpuProgramManager</text>
</a>
</g>
</g>
<!-- Node8&#45;&gt;Node13 -->
<g id="edge12" class="edge">
<title>Node8&#45;&gt;Node13</title>
<path fill="none" stroke="#63b8ff" d="M468.67,-282.74C480.22,-281.29 492.14,-279.79 503.7,-278.34"/>
<polygon fill="#63b8ff" stroke="#63b8ff" points="468.25,-279.27 458.77,-283.98 469.13,-286.21 468.25,-279.27"/>
</g>
<!-- Node14 -->
<g id="node14" class="node">
<title>Node14</title>
<g id="a_node14"><a xlink:href="class_ogre_1_1_vulkan_gpu_program_manager.html" target="_top" xlink:title=" ">
<polygon fill="white" stroke="#666666" points="665,-241 501,-241 501,-222 665,-222 665,-241"/>
<text text-anchor="middle" x="583" y="-229" font-family="Helvetica,sans-Serif" font-size="10.00">Ogre::VulkanGpuProgramManager</text>
</a>
</g>
</g>
<!-- Node8&#45;&gt;Node14 -->
<g id="edge13" class="edge">
<title>Node8&#45;&gt;Node14</title>
<path fill="none" stroke="#63b8ff" d="M448.81,-279.27C454.02,-277.54 459.15,-275.62 464,-273.5 481.4,-265.9 482.5,-257.86 500,-250.5 508.62,-246.87 518.06,-243.87 527.36,-241.41"/>
<polygon fill="#63b8ff" stroke="#63b8ff" points="448.05,-275.84 439.53,-282.13 450.11,-282.53 448.05,-275.84"/>
</g>
<!-- Node19 -->
<g id="node19" class="node">
<title>Node19</title>
<g id="a_node19"><a xlink:href="class_ogre_1_1_d3_d11_texture_manager.html" target="_top" xlink:title=" ">
<polygon fill="white" stroke="#666666" points="653.5,-204 512.5,-204 512.5,-185 653.5,-185 653.5,-204"/>
<text text-anchor="middle" x="583" y="-192" font-family="Helvetica,sans-Serif" font-size="10.00">Ogre::D3D11TextureManager</text>
</a>
</g>
</g>
<!-- Node18&#45;&gt;Node19 -->
<g id="edge18" class="edge">
<title>Node18&#45;&gt;Node19</title>
<path fill="none" stroke="#63b8ff" d="M449.76,-145.83C454.65,-147.53 459.46,-149.41 464,-151.5 481.7,-159.63 482.15,-168.71 500,-176.5 507.35,-179.71 515.32,-182.37 523.32,-184.57"/>
<polygon fill="#63b8ff" stroke="#63b8ff" points="451,-142.55 440.41,-142.86 448.88,-149.22 451,-142.55"/>
</g>
<!-- Node20 -->
<g id="node20" class="node">
<title>Node20</title>
<g id="a_node20"><a xlink:href="class_ogre_1_1_d3_d9_texture_manager.html" target="_top" xlink:title=" ">
<polygon fill="white" stroke="#666666" points="651,-167 515,-167 515,-148 651,-148 651,-167"/>
<text text-anchor="middle" x="583" y="-155" font-family="Helvetica,sans-Serif" font-size="10.00">Ogre::D3D9TextureManager</text>
</a>
</g>
</g>
<!-- Node18&#45;&gt;Node20 -->
<g id="edge19" class="edge">
<title>Node18&#45;&gt;Node20</title>
<path fill="none" stroke="#63b8ff" d="M457.53,-141.21C476.03,-143.63 496.14,-146.26 514.68,-148.69"/>
<polygon fill="#63b8ff" stroke="#63b8ff" points="458.12,-137.75 447.75,-139.93 457.21,-144.7 458.12,-137.75"/>
</g>
<!-- Node21 -->
<g id="node21" class="node">
<title>Node21</title>
<g id="a_node21"><a xlink:href="class_ogre_1_1_g_l3_plus_texture_manager.html" target="_top" xlink:title="GL3Plus&#45;specific implementation of a TextureManager.">
<polygon fill="white" stroke="#666666" points="658,-130 508,-130 508,-111 658,-111 658,-130"/>
<text text-anchor="middle" x="583" y="-118" font-family="Helvetica,sans-Serif" font-size="10.00">Ogre::GL3PlusTextureManager</text>
</a>
</g>
</g>
<!-- Node18&#45;&gt;Node21 -->
<g id="edge20" class="edge">
<title>Node18&#45;&gt;Node21</title>
<path fill="none" stroke="#63b8ff" d="M457.28,-128.34C473.55,-127.31 491.07,-126.21 507.69,-125.17"/>
<polygon fill="#63b8ff" stroke="#63b8ff" points="457.52,-124.81 447.76,-128.93 457.96,-131.8 457.52,-124.81"/>
</g>
<!-- Node22 -->
<g id="node22" class="node">
<title>Node22</title>
<g id="a_node22"><a xlink:href="class_ogre_1_1_g_l_e_s2_texture_manager.html" target="_top" xlink:title="GL ES&#45;specific implementation of a TextureManager.">
<polygon fill="white" stroke="#666666" points="654.5,-93 511.5,-93 511.5,-74 654.5,-74 654.5,-93"/>
<text text-anchor="middle" x="583" y="-81" font-family="Helvetica,sans-Serif" font-size="10.00">Ogre::GLES2TextureManager</text>
</a>
</g>
</g>
<!-- Node18&#45;&gt;Node22 -->
<g id="edge21" class="edge">
<title>Node18&#45;&gt;Node22</title>
<path fill="none" stroke="#63b8ff" d="M444.82,-119.75C451.3,-118.06 457.81,-116.29 464,-114.5 480.2,-109.81 483.77,-107.08 500,-102.5 511.39,-99.29 523.79,-96.21 535.4,-93.5"/>
<polygon fill="#63b8ff" stroke="#63b8ff" points="444.29,-116.27 435.47,-122.13 446.02,-123.05 444.29,-116.27"/>
</g>
<!-- Node23 -->
<g id="node23" class="node">
<title>Node23</title>
<g id="a_node23"><a xlink:href="class_ogre_1_1_metal_texture_manager.html" target="_top" xlink:title=" ">
<polygon fill="white" stroke="#666666" points="651,-56 515,-56 515,-37 651,-37 651,-56"/>
<text text-anchor="middle" x="583" y="-44" font-family="Helvetica,sans-Serif" font-size="10.00">Ogre::MetalTextureManager</text>
</a>
</g>
</g>
<!-- Node18&#45;&gt;Node23 -->
<g id="edge22" class="edge">
<title>Node18&#45;&gt;Node23</title>
<path fill="none" stroke="#63b8ff" d="M456.54,-118.85C459.13,-117.53 461.63,-116.09 464,-114.5 486.46,-99.48 477.43,-80.36 500,-65.5 505.61,-61.8 511.86,-58.82 518.32,-56.42"/>
<polygon fill="#63b8ff" stroke="#63b8ff" points="455.37,-115.55 447.58,-122.74 458.15,-121.97 455.37,-115.55"/>
</g>
<!-- Node24 -->
<g id="node24" class="node">
<title>Node24</title>
<g id="a_node24"><a xlink:href="class_ogre_1_1_n_u_l_l_texture_manager.html" target="_top" xlink:title=" ">
<polygon fill="white" stroke="#666666" points="652.5,-19 513.5,-19 513.5,0 652.5,0 652.5,-19"/>
<text text-anchor="middle" x="583" y="-7" font-family="Helvetica,sans-Serif" font-size="10.00">Ogre::NULLTextureManager</text>
</a>
</g>
</g>
<!-- Node18&#45;&gt;Node24 -->
<g id="edge23" class="edge">
<title>Node18&#45;&gt;Node24</title>
<path fill="none" stroke="#63b8ff" d="M456.49,-119.89C459.15,-118.29 461.67,-116.51 464,-114.5 495.73,-87.22 467.92,-54.37 500,-27.5 504.02,-24.13 508.54,-21.35 513.32,-19.07"/>
<polygon fill="#63b8ff" stroke="#63b8ff" points="455.17,-116.64 447.74,-124.19 458.26,-122.92 455.17,-116.64"/>
</g>
</g>
</svg>
