<?xml version="1.0" encoding="UTF-8" standalone="no"?>
<!DOCTYPE svg PUBLIC "-//W3C//DTD SVG 1.1//EN"
 "http://www.w3.org/Graphics/SVG/1.1/DTD/svg11.dtd">
<!-- Generated by graphviz version 7.0.5 (20221223.1930)
 -->
<!-- Title: Ogre::TextureGpuListener Pages: 1 -->
<svg width="541pt" height="507pt"
 viewBox="0.00 0.00 541.00 506.50" xmlns="http://www.w3.org/2000/svg" xmlns:xlink="http://www.w3.org/1999/xlink">
<g id="graph0" class="graph" transform="scale(1 1) rotate(0) translate(4 502.5)">
<title>Ogre::TextureGpuListener</title>
<!-- Node1 -->
<g id="node1" class="node">
<title>Node1</title>
<g id="a_node1"><a xlink:title=" ">
<polygon fill="#999999" stroke="#666666" points="128,-227.5 0,-227.5 0,-208.5 128,-208.5 128,-227.5"/>
<text text-anchor="middle" x="64" y="-215.5" font-family="Helvetica,sans-Serif" font-size="10.00">Ogre::TextureGpuListener</text>
</a>
</g>
</g>
<!-- Node2 -->
<g id="node2" class="node">
<title>Node2</title>
<g id="a_node2"><a xlink:href="class_ogre_1_1_async_texture_ticket.html" target="_top" xlink:title="In Ogre 2.2 reading data from GPU back to CPU is asynchronous.">
<polygon fill="white" stroke="#666666" points="310.5,-412.5 182.5,-412.5 182.5,-393.5 310.5,-393.5 310.5,-412.5"/>
<text text-anchor="middle" x="246.5" y="-400.5" font-family="Helvetica,sans-Serif" font-size="10.00">Ogre::AsyncTextureTicket</text>
</a>
</g>
</g>
<!-- Node1&#45;&gt;Node2 -->
<g id="edge1" class="edge">
<title>Node1&#45;&gt;Node2</title>
<path fill="none" stroke="#63b8ff" d="M71.08,-238.33C82.85,-273.98 112.24,-347.54 164,-385 169.52,-388.99 175.76,-392.13 182.26,-394.58"/>
<polygon fill="#63b8ff" stroke="#63b8ff" points="74.56,-237.73 68.22,-229.24 67.89,-239.83 74.56,-237.73"/>
</g>
<!-- Node8 -->
<g id="node8" class="node">
<title>Node8</title>
<g id="a_node8"><a xlink:href="class_ogre_1_1_compositor_pass_uav.html" target="_top" xlink:title="Implementation of CompositorPass This implementation will set UAVs.">
<polygon fill="white" stroke="#666666" points="312.5,-375.5 180.5,-375.5 180.5,-356.5 312.5,-356.5 312.5,-375.5"/>
<text text-anchor="middle" x="246.5" y="-363.5" font-family="Helvetica,sans-Serif" font-size="10.00">Ogre::CompositorPassUav</text>
</a>
</g>
</g>
<!-- Node1&#45;&gt;Node8 -->
<g id="edge7" class="edge">
<title>Node1&#45;&gt;Node8</title>
<path fill="none" stroke="#63b8ff" d="M74.38,-237.83C89.17,-266.83 120.74,-320.35 164,-348 169.01,-351.2 174.5,-353.84 180.19,-356.01"/>
<polygon fill="#63b8ff" stroke="#63b8ff" points="77.61,-236.48 70.06,-229.05 71.33,-239.57 77.61,-236.48"/>
</g>
<!-- Node9 -->
<g id="node9" class="node">
<title>Node9</title>
<g id="a_node9"><a xlink:href="class_ogre_1_1_decal.html" target="_top" xlink:title="Decals can have diffuse, normal map, and emissive on top of regular objects.">
<polygon fill="white" stroke="#666666" points="280,-338.5 213,-338.5 213,-319.5 280,-319.5 280,-338.5"/>
<text text-anchor="middle" x="246.5" y="-326.5" font-family="Helvetica,sans-Serif" font-size="10.00">Ogre::Decal</text>
</a>
</g>
</g>
<!-- Node1&#45;&gt;Node9 -->
<g id="edge8" class="edge">
<title>Node1&#45;&gt;Node9</title>
<path fill="none" stroke="#63b8ff" d="M79.56,-236.77C97.19,-258.14 128.92,-292.48 164,-311 178.99,-318.92 197.3,-323.36 212.77,-325.84"/>
<polygon fill="#63b8ff" stroke="#63b8ff" points="82.43,-234.75 73.44,-229.14 76.97,-239.13 82.43,-234.75"/>
</g>
<!-- Node10 -->
<g id="node10" class="node">
<title>Node10</title>
<g id="a_node10"><a xlink:href="class_ogre_1_1_font.html" target="_top" xlink:title="Class representing a font in the system.">
<polygon fill="white" stroke="#666666" points="277.5,-301.5 215.5,-301.5 215.5,-282.5 277.5,-282.5 277.5,-301.5"/>
<text text-anchor="middle" x="246.5" y="-289.5" font-family="Helvetica,sans-Serif" font-size="10.00">Ogre::Font</text>
</a>
</g>
</g>
<!-- Node1&#45;&gt;Node10 -->
<g id="edge9" class="edge">
<title>Node1&#45;&gt;Node10</title>
<path fill="none" stroke="#63b8ff" d="M88.96,-234.25C108.41,-246.77 136.96,-263.63 164,-274 180.37,-280.28 199.47,-284.64 215.07,-287.5"/>
<polygon fill="#63b8ff" stroke="#63b8ff" points="90.96,-231.38 80.68,-228.82 87.12,-237.23 90.96,-231.38"/>
</g>
<!-- Node11 -->
<g id="node11" class="node">
<title>Node11</title>
<g id="a_node11"><a xlink:href="class_ogre_1_1_hlms_compute_job.html" target="_top" xlink:title=" ">
<polygon fill="white" stroke="#666666" points="306.5,-264.5 186.5,-264.5 186.5,-245.5 306.5,-245.5 306.5,-264.5"/>
<text text-anchor="middle" x="246.5" y="-252.5" font-family="Helvetica,sans-Serif" font-size="10.00">Ogre::HlmsComputeJob</text>
</a>
</g>
</g>
<!-- Node1&#45;&gt;Node11 -->
<g id="edge10" class="edge">
<title>Node1&#45;&gt;Node11</title>
<path fill="none" stroke="#63b8ff" d="M124.61,-230.22C148.1,-235.03 174.72,-240.49 197,-245.06"/>
<polygon fill="#63b8ff" stroke="#63b8ff" points="125.35,-226.8 114.85,-228.22 123.95,-233.66 125.35,-226.8"/>
</g>
<!-- Node12 -->
<g id="node12" class="node">
<title>Node12</title>
<g id="a_node12"><a xlink:href="class_ogre_1_1_light.html" target="_top" xlink:title="Representation of a dynamic light source in the scene.">
<polygon fill="white" stroke="#666666" points="278.5,-227.5 214.5,-227.5 214.5,-208.5 278.5,-208.5 278.5,-227.5"/>
<text text-anchor="middle" x="246.5" y="-215.5" font-family="Helvetica,sans-Serif" font-size="10.00">Ogre::Light</text>
</a>
</g>
</g>
<!-- Node1&#45;&gt;Node12 -->
<g id="edge11" class="edge">
<title>Node1&#45;&gt;Node12</title>
<path fill="none" stroke="#63b8ff" d="M139.79,-218C165.82,-218 193.62,-218 214.17,-218"/>
<polygon fill="#63b8ff" stroke="#63b8ff" points="139.9,-214.5 129.9,-218 139.9,-221.5 139.9,-214.5"/>
</g>
<!-- Node14 -->
<g id="node14" class="node">
<title>Node14</title>
<g id="a_node14"><a xlink:href="class_ogre_1_1_o_g_r_e___h_l_m_s___t_e_x_t_u_r_e___b_a_s_e___c_l_a_s_s.html" target="_top" xlink:title="This is not a regular header, therefore it has no include guards.">
<polygon fill="white" stroke="#666666" points="323.5,-190 169.5,-190 169.5,-160 323.5,-160 323.5,-190"/>
<text text-anchor="start" x="177.5" y="-178" font-family="Helvetica,sans-Serif" font-size="10.00">Ogre::OGRE_HLMS_TEXTURE</text>
<text text-anchor="middle" x="246.5" y="-167" font-family="Helvetica,sans-Serif" font-size="10.00">_BASE_CLASS</text>
</a>
</g>
</g>
<!-- Node1&#45;&gt;Node14 -->
<g id="edge13" class="edge">
<title>Node1&#45;&gt;Node14</title>
<path fill="none" stroke="#63b8ff" d="M118.03,-205.37C137.6,-200.7 160.01,-195.37 180.53,-190.48"/>
<polygon fill="#63b8ff" stroke="#63b8ff" points="117.25,-201.95 108.34,-207.68 118.88,-208.76 117.25,-201.95"/>
</g>
<!-- Node15 -->
<g id="node15" class="node">
<title>Node15</title>
<g id="a_node15"><a xlink:href="class_ogre_1_1_texture_gpu_manager.html" target="_top" xlink:title="This class manages all textures (i.e.">
<polygon fill="white" stroke="#666666" points="311.5,-141.5 181.5,-141.5 181.5,-122.5 311.5,-122.5 311.5,-141.5"/>
<text text-anchor="middle" x="246.5" y="-129.5" font-family="Helvetica,sans-Serif" font-size="10.00">Ogre::TextureGpuManager</text>
</a>
</g>
</g>
<!-- Node1&#45;&gt;Node15 -->
<g id="edge14" class="edge">
<title>Node1&#45;&gt;Node15</title>
<path fill="none" stroke="#63b8ff" d="M85.05,-201.16C104.18,-185.92 134.39,-163.94 164,-151 172.25,-147.39 181.29,-144.42 190.25,-141.98"/>
<polygon fill="#63b8ff" stroke="#63b8ff" points="83.08,-198.25 77.53,-207.28 87.5,-203.68 83.08,-198.25"/>
</g>
<!-- Node21 -->
<g id="node21" class="node">
<title>Node21</title>
<g id="a_node21"><a xlink:href="class_ogre_1_1_texture_gpu_manager_listener.html" target="_top" xlink:title=" ">
<polygon fill="white" stroke="#666666" points="329,-104.5 164,-104.5 164,-85.5 329,-85.5 329,-104.5"/>
<text text-anchor="middle" x="246.5" y="-92.5" font-family="Helvetica,sans-Serif" font-size="10.00">Ogre::TextureGpuManagerListener</text>
</a>
</g>
</g>
<!-- Node1&#45;&gt;Node21 -->
<g id="edge20" class="edge">
<title>Node1&#45;&gt;Node21</title>
<path fill="none" stroke="#63b8ff" d="M77.82,-198.83C94.71,-175.14 126.68,-135.35 164,-114 170.43,-110.32 177.54,-107.35 184.79,-104.96"/>
<polygon fill="#63b8ff" stroke="#63b8ff" points="75.02,-196.72 72.21,-206.93 80.78,-200.71 75.02,-196.72"/>
</g>
<!-- Node23 -->
<g id="node23" class="node">
<title>Node23</title>
<g id="a_node23"><a xlink:href="class_ogre_1_1_texture_unit_state.html" target="_top" xlink:title="Class representing the state of a single texture unit during a Pass of a Technique,...">
<polygon fill="white" stroke="#666666" points="304.5,-67.5 188.5,-67.5 188.5,-48.5 304.5,-48.5 304.5,-67.5"/>
<text text-anchor="middle" x="246.5" y="-55.5" font-family="Helvetica,sans-Serif" font-size="10.00">Ogre::TextureUnitState</text>
</a>
</g>
</g>
<!-- Node1&#45;&gt;Node23 -->
<g id="edge22" class="edge">
<title>Node1&#45;&gt;Node23</title>
<path fill="none" stroke="#63b8ff" d="M73.37,-197.89C87.35,-166.87 118.5,-107.72 164,-77 171.22,-72.12 179.54,-68.49 188.04,-65.78"/>
<polygon fill="#63b8ff" stroke="#63b8ff" points="70.23,-196.33 69.46,-206.9 76.65,-199.12 70.23,-196.33"/>
</g>
<!-- Node24 -->
<g id="node24" class="node">
<title>Node24</title>
<g id="a_node24"><a xlink:href="class_ogre_1_1_vct_lighting.html" target="_top" xlink:title=" ">
<polygon fill="white" stroke="#666666" points="292.5,-30.5 200.5,-30.5 200.5,-11.5 292.5,-11.5 292.5,-30.5"/>
<text text-anchor="middle" x="246.5" y="-18.5" font-family="Helvetica,sans-Serif" font-size="10.00">Ogre::VctLighting</text>
</a>
</g>
</g>
<!-- Node1&#45;&gt;Node24 -->
<g id="edge23" class="edge">
<title>Node1&#45;&gt;Node24</title>
<path fill="none" stroke="#63b8ff" d="M70.33,-197.31C81.18,-159.56 109.55,-79.67 164,-39 174.45,-31.2 187.62,-26.65 200.32,-24.05"/>
<polygon fill="#63b8ff" stroke="#63b8ff" points="66.97,-196.35 67.71,-206.92 73.72,-198.19 66.97,-196.35"/>
</g>
<!-- Node3 -->
<g id="node3" class="node">
<title>Node3</title>
<g id="a_node3"><a xlink:href="class_ogre_1_1_d3_d11_async_texture_ticket.html" target="_top" xlink:title="See AsyncTextureTicket.">
<polygon fill="white" stroke="#666666" points="528,-498.5 370,-498.5 370,-479.5 528,-479.5 528,-498.5"/>
<text text-anchor="middle" x="449" y="-486.5" font-family="Helvetica,sans-Serif" font-size="10.00">Ogre::D3D11AsyncTextureTicket</text>
</a>
</g>
</g>
<!-- Node2&#45;&gt;Node3 -->
<g id="edge2" class="edge">
<title>Node2&#45;&gt;Node3</title>
<path fill="none" stroke="#63b8ff" d="M270.92,-419.11C293.93,-434.26 330.5,-456.55 365,-470 374.23,-473.6 384.31,-476.61 394.17,-479.1"/>
<polygon fill="#63b8ff" stroke="#63b8ff" points="273.16,-416.4 262.91,-413.75 269.27,-422.22 273.16,-416.4"/>
</g>
<!-- Node4 -->
<g id="node4" class="node">
<title>Node4</title>
<g id="a_node4"><a xlink:href="class_ogre_1_1_g_l3_plus_async_texture_ticket.html" target="_top" xlink:title="See AsyncTextureTicket.">
<polygon fill="white" stroke="#666666" points="519,-461 379,-461 379,-431 519,-431 519,-461"/>
<text text-anchor="start" x="387" y="-449" font-family="Helvetica,sans-Serif" font-size="10.00">Ogre::GL3PlusAsyncTexture</text>
<text text-anchor="middle" x="449" y="-438" font-family="Helvetica,sans-Serif" font-size="10.00">Ticket</text>
</a>
</g>
</g>
<!-- Node2&#45;&gt;Node4 -->
<g id="edge3" class="edge">
<title>Node2&#45;&gt;Node4</title>
<path fill="none" stroke="#63b8ff" d="M305.26,-415.39C328.13,-420.29 354.63,-425.98 378.54,-431.1"/>
<polygon fill="#63b8ff" stroke="#63b8ff" points="305.99,-411.97 295.48,-413.29 304.53,-418.81 305.99,-411.97"/>
</g>
<!-- Node5 -->
<g id="node5" class="node">
<title>Node5</title>
<g id="a_node5"><a xlink:href="class_ogre_1_1_metal_async_texture_ticket.html" target="_top" xlink:title="See AsyncTextureTicket.">
<polygon fill="white" stroke="#666666" points="525,-412.5 373,-412.5 373,-393.5 525,-393.5 525,-412.5"/>
<text text-anchor="middle" x="449" y="-400.5" font-family="Helvetica,sans-Serif" font-size="10.00">Ogre::MetalAsyncTextureTicket</text>
</a>
</g>
</g>
<!-- Node2&#45;&gt;Node5 -->
<g id="edge4" class="edge">
<title>Node2&#45;&gt;Node5</title>
<path fill="none" stroke="#63b8ff" d="M322.18,-403C338.68,-403 356.17,-403 372.7,-403"/>
<polygon fill="#63b8ff" stroke="#63b8ff" points="322.45,-399.5 312.45,-403 322.45,-406.5 322.45,-399.5"/>
</g>
<!-- Node6 -->
<g id="node6" class="node">
<title>Node6</title>
<g id="a_node6"><a xlink:href="class_ogre_1_1_n_u_l_l_async_texture_ticket.html" target="_top" xlink:title="See AsyncTextureTicket.">
<polygon fill="white" stroke="#666666" points="526.5,-375.5 371.5,-375.5 371.5,-356.5 526.5,-356.5 526.5,-375.5"/>
<text text-anchor="middle" x="449" y="-363.5" font-family="Helvetica,sans-Serif" font-size="10.00">Ogre::NULLAsyncTextureTicket</text>
</a>
</g>
</g>
<!-- Node2&#45;&gt;Node6 -->
<g id="edge5" class="edge">
<title>Node2&#45;&gt;Node6</title>
<path fill="none" stroke="#63b8ff" d="M312.51,-391C338.82,-386.15 368.83,-380.61 393.91,-375.98"/>
<polygon fill="#63b8ff" stroke="#63b8ff" points="312.18,-387.5 302.98,-392.76 313.45,-394.39 312.18,-387.5"/>
</g>
<!-- Node7 -->
<g id="node7" class="node">
<title>Node7</title>
<g id="a_node7"><a xlink:href="class_ogre_1_1_vulkan_async_texture_ticket.html" target="_top" xlink:title="See AsyncTextureTicket.">
<polygon fill="white" stroke="#666666" points="514.5,-338 383.5,-338 383.5,-308 514.5,-308 514.5,-338"/>
<text text-anchor="start" x="391.5" y="-326" font-family="Helvetica,sans-Serif" font-size="10.00">Ogre::VulkanAsyncTexture</text>
<text text-anchor="middle" x="449" y="-315" font-family="Helvetica,sans-Serif" font-size="10.00">Ticket</text>
</a>
</g>
</g>
<!-- Node2&#45;&gt;Node7 -->
<g id="edge6" class="edge">
<title>Node2&#45;&gt;Node7</title>
<path fill="none" stroke="#63b8ff" d="M320.79,-389.06C323.61,-387.82 326.36,-386.47 329,-385 349.04,-373.83 345.39,-359.91 365,-348 371.05,-344.33 377.67,-341.16 384.45,-338.44"/>
<polygon fill="#63b8ff" stroke="#63b8ff" points="319.79,-385.69 311.71,-392.54 322.3,-392.23 319.79,-385.69"/>
</g>
<!-- Node13 -->
<g id="node13" class="node">
<title>Node13</title>
<g id="a_node13"><a xlink:href="class_ogre_1_1_p_c_z_light.html" target="_top" xlink:title="Specialized version of Ogre::Light which caches which zones the light affects.">
<polygon fill="white" stroke="#666666" points="490.5,-252.5 407.5,-252.5 407.5,-233.5 490.5,-233.5 490.5,-252.5"/>
<text text-anchor="middle" x="449" y="-240.5" font-family="Helvetica,sans-Serif" font-size="10.00">Ogre::PCZLight</text>
</a>
</g>
</g>
<!-- Node12&#45;&gt;Node13 -->
<g id="edge12" class="edge">
<title>Node12&#45;&gt;Node13</title>
<path fill="none" stroke="#63b8ff" d="M289.98,-223.3C324.56,-227.61 373.06,-233.66 407.18,-237.91"/>
<polygon fill="#63b8ff" stroke="#63b8ff" points="290.69,-219.86 280.33,-222.09 289.82,-226.8 290.69,-219.86"/>
</g>
<!-- Node16 -->
<g id="node16" class="node">
<title>Node16</title>
<g id="a_node16"><a xlink:href="class_ogre_1_1_d3_d11_texture_gpu_manager.html" target="_top" xlink:title=" ">
<polygon fill="white" stroke="#666666" points="528.5,-215.5 369.5,-215.5 369.5,-196.5 528.5,-196.5 528.5,-215.5"/>
<text text-anchor="middle" x="449" y="-203.5" font-family="Helvetica,sans-Serif" font-size="10.00">Ogre::D3D11TextureGpuManager</text>
</a>
</g>
</g>
<!-- Node15&#45;&gt;Node16 -->
<g id="edge15" class="edge">
<title>Node15&#45;&gt;Node16</title>
<path fill="none" stroke="#63b8ff" d="M318.35,-145.81C322.03,-147.36 325.61,-149.08 329,-151 348.98,-162.28 344.93,-176.87 365,-188 370.8,-191.22 377.13,-193.86 383.62,-196.03"/>
<polygon fill="#63b8ff" stroke="#63b8ff" points="319.76,-142.6 309.17,-142.41 317.33,-149.17 319.76,-142.6"/>
</g>
<!-- Node17 -->
<g id="node17" class="node">
<title>Node17</title>
<g id="a_node17"><a xlink:href="class_ogre_1_1_g_l3_plus_texture_gpu_manager.html" target="_top" xlink:title=" ">
<polygon fill="white" stroke="#666666" points="533,-178.5 365,-178.5 365,-159.5 533,-159.5 533,-178.5"/>
<text text-anchor="middle" x="449" y="-166.5" font-family="Helvetica,sans-Serif" font-size="10.00">Ogre::GL3PlusTextureGpuManager</text>
</a>
</g>
</g>
<!-- Node15&#45;&gt;Node17 -->
<g id="edge16" class="edge">
<title>Node15&#45;&gt;Node17</title>
<path fill="none" stroke="#63b8ff" d="M312.51,-144C338.82,-148.85 368.83,-154.39 393.91,-159.02"/>
<polygon fill="#63b8ff" stroke="#63b8ff" points="313.45,-140.61 302.98,-142.24 312.18,-147.5 313.45,-140.61"/>
</g>
<!-- Node18 -->
<g id="node18" class="node">
<title>Node18</title>
<g id="a_node18"><a xlink:href="class_ogre_1_1_metal_texture_gpu_manager.html" target="_top" xlink:title=" ">
<polygon fill="white" stroke="#666666" points="526,-141.5 372,-141.5 372,-122.5 526,-122.5 526,-141.5"/>
<text text-anchor="middle" x="449" y="-129.5" font-family="Helvetica,sans-Serif" font-size="10.00">Ogre::MetalTextureGpuManager</text>
</a>
</g>
</g>
<!-- Node15&#45;&gt;Node18 -->
<g id="edge17" class="edge">
<title>Node15&#45;&gt;Node18</title>
<path fill="none" stroke="#63b8ff" d="M323.18,-132C339.1,-132 355.91,-132 371.85,-132"/>
<polygon fill="#63b8ff" stroke="#63b8ff" points="323.28,-128.5 313.28,-132 323.28,-135.5 323.28,-128.5"/>
</g>
<!-- Node19 -->
<g id="node19" class="node">
<title>Node19</title>
<g id="a_node19"><a xlink:href="class_ogre_1_1_n_u_l_l_texture_gpu_manager.html" target="_top" xlink:title=" ">
<polygon fill="white" stroke="#666666" points="527.5,-104.5 370.5,-104.5 370.5,-85.5 527.5,-85.5 527.5,-104.5"/>
<text text-anchor="middle" x="449" y="-92.5" font-family="Helvetica,sans-Serif" font-size="10.00">Ogre::NULLTextureGpuManager</text>
</a>
</g>
</g>
<!-- Node15&#45;&gt;Node19 -->
<g id="edge18" class="edge">
<title>Node15&#45;&gt;Node19</title>
<path fill="none" stroke="#63b8ff" d="M312.51,-120C338.82,-115.15 368.83,-109.61 393.91,-104.98"/>
<polygon fill="#63b8ff" stroke="#63b8ff" points="312.18,-116.5 302.98,-121.76 313.45,-123.39 312.18,-116.5"/>
</g>
<!-- Node20 -->
<g id="node20" class="node">
<title>Node20</title>
<g id="a_node20"><a xlink:href="class_ogre_1_1_vulkan_texture_gpu_manager.html" target="_top" xlink:title=" ">
<polygon fill="white" stroke="#666666" points="529,-67.5 369,-67.5 369,-48.5 529,-48.5 529,-67.5"/>
<text text-anchor="middle" x="449" y="-55.5" font-family="Helvetica,sans-Serif" font-size="10.00">Ogre::VulkanTextureGpuManager</text>
</a>
</g>
</g>
<!-- Node15&#45;&gt;Node20 -->
<g id="edge19" class="edge">
<title>Node15&#45;&gt;Node20</title>
<path fill="none" stroke="#63b8ff" d="M320.79,-118.06C323.61,-116.82 326.36,-115.47 329,-114 349.04,-102.83 345,-88.24 365,-77 371.57,-73.31 378.82,-70.33 386.21,-67.93"/>
<polygon fill="#63b8ff" stroke="#63b8ff" points="319.79,-114.69 311.71,-121.54 322.3,-121.23 319.79,-114.69"/>
</g>
<!-- Node22 -->
<g id="node22" class="node">
<title>Node22</title>
<g id="a_node22"><a xlink:href="class_ogre_1_1_default_texture_gpu_manager_listener.html" target="_top" xlink:title="This is a Default implementation of TextureGpuManagerListener based on heuristics.">
<polygon fill="white" stroke="#666666" points="529.5,-30 368.5,-30 368.5,0 529.5,0 529.5,-30"/>
<text text-anchor="start" x="376.5" y="-18" font-family="Helvetica,sans-Serif" font-size="10.00">Ogre::DefaultTextureGpuManager</text>
<text text-anchor="middle" x="449" y="-7" font-family="Helvetica,sans-Serif" font-size="10.00">Listener</text>
</a>
</g>
</g>
<!-- Node21&#45;&gt;Node22 -->
<g id="edge21" class="edge">
<title>Node21&#45;&gt;Node22</title>
<path fill="none" stroke="#63b8ff" d="M321.28,-80.89C323.93,-79.7 326.52,-78.4 329,-77 349.25,-65.54 345.13,-51.1 365,-39 370.38,-35.72 376.23,-32.88 382.25,-30.41"/>
<polygon fill="#63b8ff" stroke="#63b8ff" points="320.21,-77.56 312.17,-84.46 322.76,-84.07 320.21,-77.56"/>
</g>
</g>
</svg>
