<?xml version="1.0" encoding="UTF-8" standalone="no"?>
<!DOCTYPE svg PUBLIC "-//W3C//DTD SVG 1.1//EN"
 "http://www.w3.org/Graphics/SVG/1.1/DTD/svg11.dtd">
<!-- Generated by graphviz version 9.0.0 (20230911.1827)
 -->
<!-- Title: Ogre::GpuProgramManager Pages: 1 -->
<svg width="657pt" height="212pt"
 viewBox="0.00 0.00 657.00 212.25" xmlns="http://www.w3.org/2000/svg" xmlns:xlink="http://www.w3.org/1999/xlink">
<g id="graph0" class="graph" transform="scale(1 1) rotate(0) translate(4 208.25)">
<title>Ogre::GpuProgramManager</title>
<!-- Node1 -->
<g id="Node000001" class="node">
<title>Node1</title>
<g id="a_Node000001"><a xlink:title=" ">
<polygon fill="#999999" stroke="#666666" points="447.75,-111.25 314,-111.25 314,-92 447.75,-92 447.75,-111.25"/>
<text text-anchor="middle" x="380.88" y="-97.75" font-family="Helvetica,sans-Serif" font-size="10.00">Ogre::GpuProgramManager</text>
</a>
</g>
</g>
<!-- Node6 -->
<g id="Node000006" class="node">
<title>Node6</title>
<g id="a_Node000006"><a xlink:href="class_ogre_1_1_d3_d11_gpu_program_manager.html" target="_top" xlink:title=" ">
<polygon fill="white" stroke="#666666" points="647.88,-204.25 484.88,-204.25 484.88,-185 647.88,-185 647.88,-204.25"/>
<text text-anchor="middle" x="566.38" y="-190.75" font-family="Helvetica,sans-Serif" font-size="10.00">Ogre::D3D11GpuProgramManager</text>
</a>
</g>
</g>
<!-- Node1&#45;&gt;Node6 -->
<g id="edge5_Node000001_Node000006" class="edge">
<title>Node1&#45;&gt;Node6</title>
<g id="a_edge5_Node000001_Node000006"><a xlink:title=" ">
<path fill="none" stroke="#63b8ff" d="M400.66,-119.28C420.02,-136.49 451.78,-162.12 483.75,-176.62 490.75,-179.8 498.36,-182.44 506.01,-184.61"/>
<polygon fill="#63b8ff" stroke="#63b8ff" points="403.09,-116.75 393.34,-112.61 398.38,-121.93 403.09,-116.75"/>
</a>
</g>
</g>
<!-- Node7 -->
<g id="Node000007" class="node">
<title>Node7</title>
<g id="a_Node000007"><a xlink:href="class_ogre_1_1_d3_d9_gpu_program_manager.html" target="_top" xlink:title=" ">
<polygon fill="white" stroke="#666666" points="645.25,-167.25 487.5,-167.25 487.5,-148 645.25,-148 645.25,-167.25"/>
<text text-anchor="middle" x="566.38" y="-153.75" font-family="Helvetica,sans-Serif" font-size="10.00">Ogre::D3D9GpuProgramManager</text>
</a>
</g>
</g>
<!-- Node1&#45;&gt;Node7 -->
<g id="edge6_Node000001_Node000007" class="edge">
<title>Node1&#45;&gt;Node7</title>
<g id="a_edge6_Node000001_Node000007"><a xlink:title=" ">
<path fill="none" stroke="#63b8ff" d="M416.37,-115.87C435.91,-123.58 460.94,-132.89 483.75,-139.62 493.63,-142.54 504.31,-145.23 514.58,-147.58"/>
<polygon fill="#63b8ff" stroke="#63b8ff" points="417.83,-112.68 407.25,-112.21 415.23,-119.18 417.83,-112.68"/>
</a>
</g>
</g>
<!-- Node8 -->
<g id="Node000008" class="node">
<title>Node8</title>
<g id="a_Node000008"><a xlink:href="class_ogre_1_1_g_l_e_s2_gpu_program_manager.html" target="_top" xlink:title=" ">
<polygon fill="white" stroke="#666666" points="649,-130.25 483.75,-130.25 483.75,-111 649,-111 649,-130.25"/>
<text text-anchor="middle" x="566.38" y="-116.75" font-family="Helvetica,sans-Serif" font-size="10.00">Ogre::GLES2GpuProgramManager</text>
</a>
</g>
</g>
<!-- Node1&#45;&gt;Node8 -->
<g id="edge7_Node000001_Node000008" class="edge">
<title>Node1&#45;&gt;Node8</title>
<g id="a_edge7_Node000001_Node000008"><a xlink:title=" ">
<path fill="none" stroke="#63b8ff" d="M459.32,-109.64C467.34,-110.47 475.5,-111.32 483.55,-112.15"/>
<polygon fill="#63b8ff" stroke="#63b8ff" points="459.94,-106.19 449.63,-108.64 459.21,-113.15 459.94,-106.19"/>
</a>
</g>
</g>
<!-- Node9 -->
<g id="Node000009" class="node">
<title>Node9</title>
<g id="a_Node000009"><a xlink:href="class_ogre_1_1_g_l_s_l_shader_manager.html" target="_top" xlink:title=" ">
<polygon fill="white" stroke="#666666" points="634.38,-93.25 498.38,-93.25 498.38,-74 634.38,-74 634.38,-93.25"/>
<text text-anchor="middle" x="566.38" y="-79.75" font-family="Helvetica,sans-Serif" font-size="10.00">Ogre::GLSLShaderManager</text>
</a>
</g>
</g>
<!-- Node1&#45;&gt;Node9 -->
<g id="edge8_Node000001_Node000009" class="edge">
<title>Node1&#45;&gt;Node9</title>
<g id="a_edge8_Node000001_Node000009"><a xlink:title=" ">
<path fill="none" stroke="#63b8ff" d="M459.3,-94.03C472.16,-92.77 485.4,-91.47 497.99,-90.23"/>
<polygon fill="#63b8ff" stroke="#63b8ff" points="459.24,-90.52 449.63,-94.98 459.92,-97.49 459.24,-90.52"/>
</a>
</g>
</g>
<!-- Node10 -->
<g id="Node000010" class="node">
<title>Node10</title>
<g id="a_Node000010"><a xlink:href="class_ogre_1_1_metal_gpu_program_manager.html" target="_top" xlink:title=" ">
<polygon fill="white" stroke="#666666" points="645.25,-56.25 487.5,-56.25 487.5,-37 645.25,-37 645.25,-56.25"/>
<text text-anchor="middle" x="566.38" y="-42.75" font-family="Helvetica,sans-Serif" font-size="10.00">Ogre::MetalGpuProgramManager</text>
</a>
</g>
</g>
<!-- Node1&#45;&gt;Node10 -->
<g id="edge9_Node000001_Node000010" class="edge">
<title>Node1&#45;&gt;Node10</title>
<g id="a_edge9_Node000001_Node000010"><a xlink:title=" ">
<path fill="none" stroke="#63b8ff" d="M417.19,-87.5C436.62,-80.06 461.29,-71.15 483.75,-64.62 493.64,-61.75 504.33,-59.09 514.6,-56.74"/>
<polygon fill="#63b8ff" stroke="#63b8ff" points="416.16,-84.15 408.1,-91.03 418.69,-90.67 416.16,-84.15"/>
</a>
</g>
</g>
<!-- Node11 -->
<g id="Node000011" class="node">
<title>Node11</title>
<g id="a_Node000011"><a xlink:href="class_ogre_1_1_vulkan_gpu_program_manager.html" target="_top" xlink:title=" ">
<polygon fill="white" stroke="#666666" points="648.25,-19.25 484.5,-19.25 484.5,0 648.25,0 648.25,-19.25"/>
<text text-anchor="middle" x="566.38" y="-5.75" font-family="Helvetica,sans-Serif" font-size="10.00">Ogre::VulkanGpuProgramManager</text>
</a>
</g>
</g>
<!-- Node1&#45;&gt;Node11 -->
<g id="edge10_Node000001_Node000011" class="edge">
<title>Node1&#45;&gt;Node11</title>
<g id="a_edge10_Node000001_Node000011"><a xlink:title=" ">
<path fill="none" stroke="#63b8ff" d="M401.02,-83.94C420.43,-66.97 452.05,-41.88 483.75,-27.62 490.76,-24.47 498.37,-21.85 506.03,-19.68"/>
<polygon fill="#63b8ff" stroke="#63b8ff" points="398.78,-81.25 393.65,-90.53 403.44,-86.47 398.78,-81.25"/>
</a>
</g>
</g>
<!-- Node2 -->
<g id="Node000002" class="node">
<title>Node2</title>
<g id="a_Node000002"><a xlink:href="class_ogre_1_1_resource_manager.html" target="_top" xlink:title="Defines a generic resource handler.">
<polygon fill="white" stroke="#666666" points="265.62,-133.25 145.38,-133.25 145.38,-114 265.62,-114 265.62,-133.25"/>
<text text-anchor="middle" x="205.5" y="-119.75" font-family="Helvetica,sans-Serif" font-size="10.00">Ogre::ResourceManager</text>
</a>
</g>
</g>
<!-- Node2&#45;&gt;Node1 -->
<g id="edge1_Node000001_Node000002" class="edge">
<title>Node2&#45;&gt;Node1</title>
<g id="a_edge1_Node000001_Node000002"><a xlink:title=" ">
<path fill="none" stroke="#63b8ff" d="M277.07,-114.67C289.11,-113.14 301.59,-111.56 313.52,-110.04"/>
<polygon fill="#63b8ff" stroke="#63b8ff" points="276.66,-111.19 267.18,-115.92 277.54,-118.14 276.66,-111.19"/>
</a>
</g>
</g>
<!-- Node3 -->
<g id="Node000003" class="node">
<title>Node3</title>
<g id="a_Node000003"><a xlink:href="class_ogre_1_1_script_loader.html" target="_top" xlink:title="Abstract class defining the interface used by classes which wish to perform script loading to define ...">
<polygon fill="white" stroke="#666666" points="97,-151.25 0,-151.25 0,-132 97,-132 97,-151.25"/>
<text text-anchor="middle" x="48.5" y="-137.75" font-family="Helvetica,sans-Serif" font-size="10.00">Ogre::ScriptLoader</text>
</a>
</g>
</g>
<!-- Node3&#45;&gt;Node2 -->
<g id="edge2_Node000002_Node000003" class="edge">
<title>Node3&#45;&gt;Node2</title>
<g id="a_edge2_Node000002_Node000003"><a xlink:title=" ">
<path fill="none" stroke="#63b8ff" d="M108.53,-134.77C120.52,-133.38 133.13,-131.91 145.13,-130.52"/>
<polygon fill="#63b8ff" stroke="#63b8ff" points="108.3,-131.27 98.77,-135.9 109.11,-138.23 108.3,-131.27"/>
</a>
</g>
</g>
<!-- Node4 -->
<g id="Node000004" class="node">
<title>Node4</title>
<g id="a_Node000004"><a xlink:href="class_ogre_1_1_allocated_object.html" target="_top" xlink:title="Superclass for all objects that wish to use custom memory allocators when their new / delete operator...">
<polygon fill="white" stroke="#666666" points="88,-114.25 9,-114.25 9,-95 88,-95 88,-114.25"/>
<text text-anchor="middle" x="48.5" y="-100.75" font-family="Helvetica,sans-Serif" font-size="10.00">ResourceAlloc</text>
</a>
</g>
</g>
<!-- Node4&#45;&gt;Node2 -->
<g id="edge3_Node000002_Node000004" class="edge">
<title>Node4&#45;&gt;Node2</title>
<g id="a_edge3_Node000002_Node000004"><a xlink:title=" ">
<path fill="none" stroke="#63b8ff" d="M99.46,-110.75C113.93,-112.52 129.88,-114.48 144.88,-116.32"/>
<polygon fill="#63b8ff" stroke="#63b8ff" points="100.07,-107.3 89.72,-109.55 99.22,-114.25 100.07,-107.3"/>
</a>
</g>
</g>
<!-- Node5 -->
<g id="Node000005" class="node">
<title>Node5</title>
<g id="a_Node000005"><a xlink:href="class_ogre_1_1_singleton.html" target="_top" xlink:title=" ">
<polygon fill="white" stroke="#666666" points="278,-95.88 133,-95.88 133,-65.38 278,-65.38 278,-95.88"/>
<text text-anchor="start" x="141" y="-82.38" font-family="Helvetica,sans-Serif" font-size="10.00">Ogre::Singleton&lt; GpuProgram</text>
<text text-anchor="middle" x="205.5" y="-71.12" font-family="Helvetica,sans-Serif" font-size="10.00">Manager &gt;</text>
</a>
</g>
</g>
<!-- Node5&#45;&gt;Node1 -->
<g id="edge4_Node000001_Node000005" class="edge">
<title>Node5&#45;&gt;Node1</title>
<g id="a_edge4_Node000001_Node000005"><a xlink:title=" ">
<path fill="none" stroke="#63b8ff" d="M289.64,-90.69C297.71,-91.67 305.84,-92.66 313.72,-93.61"/>
<polygon fill="#63b8ff" stroke="#63b8ff" points="290.12,-87.23 279.77,-89.5 289.28,-94.18 290.12,-87.23"/>
</a>
</g>
</g>
</g>
</svg>
