<?xml version="1.0" encoding="UTF-8" standalone="no"?>
<!DOCTYPE svg PUBLIC "-//W3C//DTD SVG 1.1//EN"
 "http://www.w3.org/Graphics/SVG/1.1/DTD/svg11.dtd">
<!-- Generated by graphviz version 9.0.0 (20230911.1827)
 -->
<!-- Title: Ogre::ParallaxCorrectedCubemapAuto Pages: 1 -->
<svg width="370pt" height="149pt"
 viewBox="0.00 0.00 370.38 149.00" xmlns="http://www.w3.org/2000/svg" xmlns:xlink="http://www.w3.org/1999/xlink">
<g id="graph0" class="graph" transform="scale(1 1) rotate(0) translate(4 145)">
<title>Ogre::ParallaxCorrectedCubemapAuto</title>
<!-- Node1 -->
<g id="Node000001" class="node">
<title>Node1</title>
<g id="a_Node000001"><a xlink:title="Per&#45;Pixel reflection probes.">
<polygon fill="#999999" stroke="#666666" points="318.88,-19.25 139.38,-19.25 139.38,0 318.88,0 318.88,-19.25"/>
<text text-anchor="middle" x="229.12" y="-5.75" font-family="Helvetica,sans-Serif" font-size="10.00">Ogre::ParallaxCorrectedCubemapAuto</text>
</a>
</g>
</g>
<!-- Node2 -->
<g id="Node000002" class="node">
<title>Node2</title>
<g id="a_Node000002"><a xlink:href="class_ogre_1_1_parallax_corrected_cubemap_base.html" target="_top" xlink:title=" ">
<polygon fill="white" stroke="#666666" points="240,-74.5 58.25,-74.5 58.25,-55.25 240,-55.25 240,-74.5"/>
<text text-anchor="middle" x="149.12" y="-61" font-family="Helvetica,sans-Serif" font-size="10.00">Ogre::ParallaxCorrectedCubemapBase</text>
</a>
</g>
</g>
<!-- Node2&#45;&gt;Node1 -->
<g id="edge1_Node000001_Node000002" class="edge">
<title>Node2&#45;&gt;Node1</title>
<g id="a_edge1_Node000001_Node000002"><a xlink:title=" ">
<path fill="none" stroke="#63b8ff" d="M172.18,-48.53C186.2,-39.2 203.63,-27.6 215.49,-19.7"/>
<polygon fill="#63b8ff" stroke="#63b8ff" points="170.34,-45.55 163.96,-54 174.22,-51.38 170.34,-45.55"/>
</a>
</g>
</g>
<!-- Node3 -->
<g id="Node000003" class="node">
<title>Node3</title>
<g id="a_Node000003"><a xlink:href="class_ogre_1_1_id_object.html" target="_top" xlink:title=" ">
<polygon fill="white" stroke="#666666" points="78.25,-135.38 0,-135.38 0,-116.12 78.25,-116.12 78.25,-135.38"/>
<text text-anchor="middle" x="39.12" y="-121.88" font-family="Helvetica,sans-Serif" font-size="10.00">Ogre::IdObject</text>
</a>
</g>
</g>
<!-- Node3&#45;&gt;Node2 -->
<g id="edge2_Node000002_Node000003" class="edge">
<title>Node3&#45;&gt;Node2</title>
<g id="a_edge2_Node000002_Node000003"><a xlink:title=" ">
<path fill="none" stroke="#63b8ff" d="M65.89,-110.42C86.59,-99.35 114.59,-84.36 132.26,-74.9"/>
<polygon fill="#63b8ff" stroke="#63b8ff" points="64.33,-107.29 57.17,-115.09 67.63,-113.46 64.33,-107.29"/>
</a>
</g>
</g>
<!-- Node4 -->
<g id="Node000004" class="node">
<title>Node4</title>
<g id="a_Node000004"><a xlink:href="class_ogre_1_1_render_system_1_1_listener.html" target="_top" xlink:title="Defines a listener on the custom events that this render system can raise.">
<polygon fill="white" stroke="#666666" points="201.75,-141 96.5,-141 96.5,-110.5 201.75,-110.5 201.75,-141"/>
<text text-anchor="start" x="104.5" y="-127.5" font-family="Helvetica,sans-Serif" font-size="10.00">Ogre::RenderSystem</text>
<text text-anchor="middle" x="149.12" y="-116.25" font-family="Helvetica,sans-Serif" font-size="10.00">::Listener</text>
</a>
</g>
</g>
<!-- Node4&#45;&gt;Node2 -->
<g id="edge3_Node000002_Node000004" class="edge">
<title>Node4&#45;&gt;Node2</title>
<g id="a_edge3_Node000002_Node000004"><a xlink:title=" ">
<path fill="none" stroke="#63b8ff" d="M149.12,-98.73C149.12,-90.23 149.12,-81.34 149.12,-74.95"/>
<polygon fill="#63b8ff" stroke="#63b8ff" points="145.63,-98.68 149.13,-108.68 152.63,-98.68 145.63,-98.68"/>
</a>
</g>
</g>
<!-- Node5 -->
<g id="Node000005" class="node">
<title>Node5</title>
<g id="a_Node000005"><a xlink:href="class_ogre_1_1_compositor_workspace_listener.html" target="_top" xlink:title=" ">
<polygon fill="white" stroke="#666666" points="360,-141 220.25,-141 220.25,-110.5 360,-110.5 360,-141"/>
<text text-anchor="start" x="228.25" y="-127.5" font-family="Helvetica,sans-Serif" font-size="10.00">Ogre::CompositorWorkspace</text>
<text text-anchor="middle" x="290.12" y="-116.25" font-family="Helvetica,sans-Serif" font-size="10.00">Listener</text>
</a>
</g>
</g>
<!-- Node5&#45;&gt;Node2 -->
<g id="edge4_Node000002_Node000005" class="edge">
<title>Node5&#45;&gt;Node2</title>
<g id="a_edge4_Node000002_Node000005"><a xlink:title=" ">
<path fill="none" stroke="#63b8ff" d="M244.29,-105.61C219.58,-95.3 190.25,-83.05 170.75,-74.9"/>
<polygon fill="#63b8ff" stroke="#63b8ff" points="242.94,-108.84 253.51,-109.46 245.63,-102.38 242.94,-108.84"/>
</a>
</g>
</g>
<!-- Node6 -->
<g id="Node000006" class="node">
<title>Node6</title>
<g id="a_Node000006"><a xlink:href="class_ogre_1_1_frame_listener.html" target="_top" xlink:title="A interface class defining a listener which can be used to receive notifications of frame events.">
<polygon fill="white" stroke="#666666" points="362.38,-74.5 257.88,-74.5 257.88,-55.25 362.38,-55.25 362.38,-74.5"/>
<text text-anchor="middle" x="310.12" y="-61" font-family="Helvetica,sans-Serif" font-size="10.00">Ogre::FrameListener</text>
</a>
</g>
</g>
<!-- Node6&#45;&gt;Node1 -->
<g id="edge5_Node000001_Node000006" class="edge">
<title>Node6&#45;&gt;Node1</title>
<g id="a_edge5_Node000001_Node000006"><a xlink:title=" ">
<path fill="none" stroke="#63b8ff" d="M286.79,-48.53C272.59,-39.2 254.94,-27.6 242.93,-19.7"/>
<polygon fill="#63b8ff" stroke="#63b8ff" points="284.84,-51.44 295.12,-54.01 288.69,-45.59 284.84,-51.44"/>
</a>
</g>
</g>
</g>
</svg>
