<?xml version="1.0" encoding="UTF-8" standalone="no"?>
<!DOCTYPE svg PUBLIC "-//W3C//DTD SVG 1.1//EN"
 "http://www.w3.org/Graphics/SVG/1.1/DTD/svg11.dtd">
<!-- Generated by graphviz version 9.0.0 (20230911.1827)
 -->
<!-- Title: Ogre::HighLevelGpuProgram Pages: 1 -->
<svg width="711pt" height="224pt"
 viewBox="0.00 0.00 710.50 224.25" xmlns="http://www.w3.org/2000/svg" xmlns:xlink="http://www.w3.org/1999/xlink">
<g id="graph0" class="graph" transform="scale(1 1) rotate(0) translate(4 220.25)">
<title>Ogre::HighLevelGpuProgram</title>
<!-- Node1 -->
<g id="Node000001" class="node">
<title>Node1</title>
<g id="a_Node000001"><a xlink:title="Abstract base class representing a high&#45;level program (a vertex or fragment program).">
<polygon fill="#999999" stroke="#666666" points="532.75,-123.25 392.25,-123.25 392.25,-104 532.75,-104 532.75,-123.25"/>
<text text-anchor="middle" x="462.5" y="-109.75" font-family="Helvetica,sans-Serif" font-size="10.00">Ogre::HighLevelGpuProgram</text>
</a>
</g>
</g>
<!-- Node6 -->
<g id="Node000006" class="node">
<title>Node6</title>
<g id="a_Node000006"><a xlink:href="class_ogre_1_1_d3_d11_h_l_s_l_program.html" target="_top" xlink:title="Specialization of HighLevelGpuProgram to provide support for D3D11 High&#45;Level Shader Language (HLSL).">
<polygon fill="white" stroke="#666666" points="702.5,-216.25 568.75,-216.25 568.75,-197 702.5,-197 702.5,-216.25"/>
<text text-anchor="middle" x="635.62" y="-202.75" font-family="Helvetica,sans-Serif" font-size="10.00">Ogre::D3D11HLSLProgram</text>
</a>
</g>
</g>
<!-- Node1&#45;&gt;Node6 -->
<g id="edge5_Node000001_Node000006" class="edge">
<title>Node1&#45;&gt;Node6</title>
<g id="a_edge5_Node000001_Node000006"><a xlink:title=" ">
<path fill="none" stroke="#63b8ff" d="M483.23,-130.96C503.43,-147.88 536.37,-173.27 568.75,-188.62 575.28,-191.72 582.44,-194.37 589.56,-196.6"/>
<polygon fill="#63b8ff" stroke="#63b8ff" points="485.67,-128.44 475.79,-124.61 481.13,-133.76 485.67,-128.44"/>
</a>
</g>
</g>
<!-- Node7 -->
<g id="Node000007" class="node">
<title>Node7</title>
<g id="a_Node000007"><a xlink:href="class_ogre_1_1_d3_d9_h_l_s_l_program.html" target="_top" xlink:title="Specialisation of HighLevelGpuProgram to provide support for D3D9 High&#45;Level Shader Language (HLSL).">
<polygon fill="white" stroke="#666666" points="699.88,-179.25 571.38,-179.25 571.38,-160 699.88,-160 699.88,-179.25"/>
<text text-anchor="middle" x="635.62" y="-165.75" font-family="Helvetica,sans-Serif" font-size="10.00">Ogre::D3D9HLSLProgram</text>
</a>
</g>
</g>
<!-- Node1&#45;&gt;Node7 -->
<g id="edge6_Node000001_Node000007" class="edge">
<title>Node1&#45;&gt;Node7</title>
<g id="a_edge6_Node000001_Node000007"><a xlink:title=" ">
<path fill="none" stroke="#63b8ff" d="M500.26,-127.71C520.36,-135.21 545.78,-144.35 568.75,-151.62 577.45,-154.38 586.88,-157.11 595.81,-159.57"/>
<polygon fill="#63b8ff" stroke="#63b8ff" points="501.7,-124.51 491.1,-124.27 499.23,-131.06 501.7,-124.51"/>
</a>
</g>
</g>
<!-- Node8 -->
<g id="Node000008" class="node">
<title>Node8</title>
<g id="a_Node000008"><a xlink:href="class_ogre_1_1_g_l_s_l_shader.html" target="_top" xlink:title="Specialisation of HighLevelGpuProgram to encapsulate shader objects obtained from compiled shaders wr...">
<polygon fill="white" stroke="#666666" points="684.88,-142.25 586.38,-142.25 586.38,-123 684.88,-123 684.88,-142.25"/>
<text text-anchor="middle" x="635.62" y="-128.75" font-family="Helvetica,sans-Serif" font-size="10.00">Ogre::GLSLShader</text>
</a>
</g>
</g>
<!-- Node1&#45;&gt;Node8 -->
<g id="edge7_Node000001_Node000008" class="edge">
<title>Node1&#45;&gt;Node8</title>
<g id="a_edge7_Node000001_Node000008"><a xlink:title=" ">
<path fill="none" stroke="#63b8ff" d="M544.44,-122.61C558.67,-124.19 573.06,-125.79 586.05,-127.23"/>
<polygon fill="#63b8ff" stroke="#63b8ff" points="544.93,-119.15 534.61,-121.52 544.16,-126.1 544.93,-119.15"/>
</a>
</g>
</g>
<!-- Node9 -->
<g id="Node000009" class="node">
<title>Node9</title>
<g id="a_Node000009"><a xlink:href="class_ogre_1_1_metal_program.html" target="_top" xlink:title="Specialisation of HighLevelGpuProgram to provide support for Metal Shader Language.">
<polygon fill="white" stroke="#666666" points="686.75,-105.25 584.5,-105.25 584.5,-86 686.75,-86 686.75,-105.25"/>
<text text-anchor="middle" x="635.62" y="-91.75" font-family="Helvetica,sans-Serif" font-size="10.00">Ogre::MetalProgram</text>
</a>
</g>
</g>
<!-- Node1&#45;&gt;Node9 -->
<g id="edge8_Node000001_Node000009" class="edge">
<title>Node1&#45;&gt;Node9</title>
<g id="a_edge8_Node000001_Node000009"><a xlink:title=" ">
<path fill="none" stroke="#63b8ff" d="M544.43,-105.11C558,-103.68 571.73,-102.24 584.24,-100.93"/>
<polygon fill="#63b8ff" stroke="#63b8ff" points="544.19,-101.62 534.61,-106.15 544.92,-108.58 544.19,-101.62"/>
</a>
</g>
</g>
<!-- Node10 -->
<g id="Node000010" class="node">
<title>Node10</title>
<g id="a_Node000010"><a xlink:href="class_ogre_1_1_unified_high_level_gpu_program.html" target="_top" xlink:title="Specialisation of HighLevelGpuProgram which just delegates its implementation to one other high level...">
<polygon fill="white" stroke="#666666" points="702.5,-67.88 568.75,-67.88 568.75,-37.38 702.5,-37.38 702.5,-67.88"/>
<text text-anchor="start" x="576.75" y="-54.38" font-family="Helvetica,sans-Serif" font-size="10.00">Ogre::UnifiedHighLevelGpu</text>
<text text-anchor="middle" x="635.62" y="-43.12" font-family="Helvetica,sans-Serif" font-size="10.00">Program</text>
</a>
</g>
</g>
<!-- Node1&#45;&gt;Node10 -->
<g id="edge9_Node000001_Node000010" class="edge">
<title>Node1&#45;&gt;Node10</title>
<g id="a_edge9_Node000001_Node000010"><a xlink:title=" ">
<path fill="none" stroke="#63b8ff" d="M502.44,-99.74C528.68,-90.39 563.33,-78.04 590.57,-68.33"/>
<polygon fill="#63b8ff" stroke="#63b8ff" points="501.43,-96.39 493.18,-103.04 503.78,-102.98 501.43,-96.39"/>
</a>
</g>
</g>
<!-- Node11 -->
<g id="Node000011" class="node">
<title>Node11</title>
<g id="a_Node000011"><a xlink:href="class_ogre_1_1_vulkan_program.html" target="_top" xlink:title="Specialisation of HighLevelGpuProgram to provide support for Vulkan Shader Language.">
<polygon fill="white" stroke="#666666" points="689.75,-19.25 581.5,-19.25 581.5,0 689.75,0 689.75,-19.25"/>
<text text-anchor="middle" x="635.62" y="-5.75" font-family="Helvetica,sans-Serif" font-size="10.00">Ogre::VulkanProgram</text>
</a>
</g>
</g>
<!-- Node1&#45;&gt;Node11 -->
<g id="edge10_Node000001_Node000011" class="edge">
<title>Node1&#45;&gt;Node11</title>
<g id="a_edge10_Node000001_Node000011"><a xlink:title=" ">
<path fill="none" stroke="#63b8ff" d="M481,-95.74C500.69,-76.57 534.43,-46.5 568.75,-28.62 575.51,-25.11 583,-22.16 590.44,-19.72"/>
<polygon fill="#63b8ff" stroke="#63b8ff" points="478.69,-93.1 474.06,-102.63 483.62,-98.07 478.69,-93.1"/>
</a>
</g>
</g>
<!-- Node2 -->
<g id="Node000002" class="node">
<title>Node2</title>
<g id="a_Node000002"><a xlink:href="class_ogre_1_1_gpu_program.html" target="_top" xlink:title="Defines a program which runs on the GPU such as a vertex or fragment program.">
<polygon fill="white" stroke="#666666" points="356.25,-123.25 260,-123.25 260,-104 356.25,-104 356.25,-123.25"/>
<text text-anchor="middle" x="308.12" y="-109.75" font-family="Helvetica,sans-Serif" font-size="10.00">Ogre::GpuProgram</text>
</a>
</g>
</g>
<!-- Node2&#45;&gt;Node1 -->
<g id="edge1_Node000001_Node000002" class="edge">
<title>Node2&#45;&gt;Node1</title>
<g id="a_edge1_Node000001_Node000002"><a xlink:title=" ">
<path fill="none" stroke="#63b8ff" d="M367.78,-113.62C375.64,-113.62 383.76,-113.62 391.78,-113.62"/>
<polygon fill="#63b8ff" stroke="#63b8ff" points="368.02,-110.13 358.02,-113.63 368.02,-117.13 368.02,-110.13"/>
</a>
</g>
</g>
<!-- Node3 -->
<g id="Node000003" class="node">
<title>Node3</title>
<g id="a_Node000003"><a xlink:href="class_ogre_1_1_resource.html" target="_top" xlink:title="Abstract class representing a loadable resource (e.g.">
<polygon fill="white" stroke="#666666" points="224,-123.25 141.25,-123.25 141.25,-104 224,-104 224,-123.25"/>
<text text-anchor="middle" x="182.62" y="-109.75" font-family="Helvetica,sans-Serif" font-size="10.00">Ogre::Resource</text>
</a>
</g>
</g>
<!-- Node3&#45;&gt;Node2 -->
<g id="edge2_Node000002_Node000003" class="edge">
<title>Node3&#45;&gt;Node2</title>
<g id="a_edge2_Node000002_Node000003"><a xlink:title=" ">
<path fill="none" stroke="#63b8ff" d="M235.75,-113.62C243.64,-113.62 251.74,-113.62 259.53,-113.62"/>
<polygon fill="#63b8ff" stroke="#63b8ff" points="235.92,-110.13 225.92,-113.63 235.92,-117.13 235.92,-110.13"/>
</a>
</g>
</g>
<!-- Node4 -->
<g id="Node000004" class="node">
<title>Node4</title>
<g id="a_Node000004"><a xlink:href="class_ogre_1_1_string_interface.html" target="_top" xlink:title="Class defining the common interface which classes can use to present a reflection&#45;style,...">
<polygon fill="white" stroke="#666666" points="105.25,-142.25 0,-142.25 0,-123 105.25,-123 105.25,-142.25"/>
<text text-anchor="middle" x="52.62" y="-128.75" font-family="Helvetica,sans-Serif" font-size="10.00">Ogre::StringInterface</text>
</a>
</g>
</g>
<!-- Node4&#45;&gt;Node3 -->
<g id="edge3_Node000003_Node000004" class="edge">
<title>Node4&#45;&gt;Node3</title>
<g id="a_edge3_Node000003_Node000004"><a xlink:title=" ">
<path fill="none" stroke="#63b8ff" d="M116.83,-123.24C125.05,-122.02 133.28,-120.8 140.99,-119.66"/>
<polygon fill="#63b8ff" stroke="#63b8ff" points="116.56,-119.74 107.18,-124.67 117.59,-126.67 116.56,-119.74"/>
</a>
</g>
</g>
<!-- Node5 -->
<g id="Node000005" class="node">
<title>Node5</title>
<g id="a_Node000005"><a xlink:href="class_ogre_1_1_allocated_object.html" target="_top" xlink:title="Superclass for all objects that wish to use custom memory allocators when their new / delete operator...">
<polygon fill="white" stroke="#666666" points="92.12,-105.25 13.12,-105.25 13.12,-86 92.12,-86 92.12,-105.25"/>
<text text-anchor="middle" x="52.62" y="-91.75" font-family="Helvetica,sans-Serif" font-size="10.00">ResourceAlloc</text>
</a>
</g>
</g>
<!-- Node5&#45;&gt;Node3 -->
<g id="edge4_Node000003_Node000005" class="edge">
<title>Node5&#45;&gt;Node3</title>
<g id="a_edge4_Node000003_Node000005"><a xlink:title=" ">
<path fill="none" stroke="#63b8ff" d="M103.46,-102.63C115.82,-104.37 128.91,-106.21 140.78,-107.88"/>
<polygon fill="#63b8ff" stroke="#63b8ff" points="104.27,-99.21 93.88,-101.29 103.29,-106.14 104.27,-99.21"/>
</a>
</g>
</g>
</g>
</svg>
