<?xml version="1.0" encoding="UTF-8" standalone="no"?>
<!DOCTYPE svg PUBLIC "-//W3C//DTD SVG 1.1//EN"
 "http://www.w3.org/Graphics/SVG/1.1/DTD/svg11.dtd">
<!-- Generated by graphviz version 7.0.5 (20221223.1930)
 -->
<!-- Title: Ogre::GpuProgramManager Pages: 1 -->
<svg width="660pt" height="212pt"
 viewBox="0.00 0.00 660.00 212.00" xmlns="http://www.w3.org/2000/svg" xmlns:xlink="http://www.w3.org/1999/xlink">
<g id="graph0" class="graph" transform="scale(1 1) rotate(0) translate(4 208)">
<title>Ogre::GpuProgramManager</title>
<!-- Node1 -->
<g id="node1" class="node">
<title>Node1</title>
<g id="a_node1"><a xlink:title=" ">
<polygon fill="#999999" stroke="#666666" points="450,-111 316,-111 316,-92 450,-92 450,-111"/>
<text text-anchor="middle" x="383" y="-99" font-family="Helvetica,sans-Serif" font-size="10.00">Ogre::GpuProgramManager</text>
</a>
</g>
</g>
<!-- Node6 -->
<g id="node6" class="node">
<title>Node6</title>
<g id="a_node6"><a xlink:href="class_ogre_1_1_d3_d11_gpu_program_manager.html" target="_top" xlink:title=" ">
<polygon fill="white" stroke="#666666" points="651,-204 487,-204 487,-185 651,-185 651,-204"/>
<text text-anchor="middle" x="569" y="-192" font-family="Helvetica,sans-Serif" font-size="10.00">Ogre::D3D11GpuProgramManager</text>
</a>
</g>
</g>
<!-- Node1&#45;&gt;Node6 -->
<g id="edge5" class="edge">
<title>Node1&#45;&gt;Node6</title>
<path fill="none" stroke="#63b8ff" d="M402.81,-119.16C422.19,-136.38 453.99,-162.01 486,-176.5 493.04,-179.69 500.68,-182.32 508.36,-184.5"/>
<polygon fill="#63b8ff" stroke="#63b8ff" points="405.23,-116.63 395.47,-112.49 400.52,-121.81 405.23,-116.63"/>
</g>
<!-- Node7 -->
<g id="node7" class="node">
<title>Node7</title>
<g id="a_node7"><a xlink:href="class_ogre_1_1_d3_d9_gpu_program_manager.html" target="_top" xlink:title=" ">
<polygon fill="white" stroke="#666666" points="648,-167 490,-167 490,-148 648,-148 648,-167"/>
<text text-anchor="middle" x="569" y="-155" font-family="Helvetica,sans-Serif" font-size="10.00">Ogre::D3D9GpuProgramManager</text>
</a>
</g>
</g>
<!-- Node1&#45;&gt;Node7 -->
<g id="edge6" class="edge">
<title>Node1&#45;&gt;Node7</title>
<path fill="none" stroke="#63b8ff" d="M418.15,-115.59C437.77,-123.34 463.01,-132.73 486,-139.5 496.07,-142.46 506.96,-145.18 517.41,-147.56"/>
<polygon fill="#63b8ff" stroke="#63b8ff" points="419.58,-112.4 408.99,-111.93 416.98,-118.89 419.58,-112.4"/>
</g>
<!-- Node8 -->
<g id="node8" class="node">
<title>Node8</title>
<g id="a_node8"><a xlink:href="class_ogre_1_1_g_l_e_s2_gpu_program_manager.html" target="_top" xlink:title=" ">
<polygon fill="white" stroke="#666666" points="652,-130 486,-130 486,-111 652,-111 652,-130"/>
<text text-anchor="middle" x="569" y="-118" font-family="Helvetica,sans-Serif" font-size="10.00">Ogre::GLES2GpuProgramManager</text>
</a>
</g>
</g>
<!-- Node1&#45;&gt;Node8 -->
<g id="edge7" class="edge">
<title>Node1&#45;&gt;Node8</title>
<path fill="none" stroke="#63b8ff" d="M461.83,-109.54C469.71,-110.35 477.72,-111.18 485.64,-112"/>
<polygon fill="#63b8ff" stroke="#63b8ff" points="462.24,-106.06 451.93,-108.51 461.52,-113.02 462.24,-106.06"/>
</g>
<!-- Node9 -->
<g id="node9" class="node">
<title>Node9</title>
<g id="a_node9"><a xlink:href="class_ogre_1_1_g_l_s_l_shader_manager.html" target="_top" xlink:title=" ">
<polygon fill="white" stroke="#666666" points="637.5,-93 500.5,-93 500.5,-74 637.5,-74 637.5,-93"/>
<text text-anchor="middle" x="569" y="-81" font-family="Helvetica,sans-Serif" font-size="10.00">Ogre::GLSLShaderManager</text>
</a>
</g>
</g>
<!-- Node1&#45;&gt;Node9 -->
<g id="edge8" class="edge">
<title>Node1&#45;&gt;Node9</title>
<path fill="none" stroke="#63b8ff" d="M461.56,-93.91C474.38,-92.66 487.57,-91.37 500.12,-90.14"/>
<polygon fill="#63b8ff" stroke="#63b8ff" points="461.55,-90.4 451.93,-94.85 462.23,-97.36 461.55,-90.4"/>
</g>
<!-- Node10 -->
<g id="node10" class="node">
<title>Node10</title>
<g id="a_node10"><a xlink:href="class_ogre_1_1_metal_gpu_program_manager.html" target="_top" xlink:title=" ">
<polygon fill="white" stroke="#666666" points="648,-56 490,-56 490,-37 648,-37 648,-56"/>
<text text-anchor="middle" x="569" y="-44" font-family="Helvetica,sans-Serif" font-size="10.00">Ogre::MetalGpuProgramManager</text>
</a>
</g>
</g>
<!-- Node1&#45;&gt;Node10 -->
<g id="edge9" class="edge">
<title>Node1&#45;&gt;Node10</title>
<path fill="none" stroke="#63b8ff" d="M418.96,-87.52C438.48,-80.05 463.36,-71.06 486,-64.5 496.22,-61.54 507.28,-58.8 517.87,-56.4"/>
<polygon fill="#63b8ff" stroke="#63b8ff" points="417.9,-84.18 409.84,-91.06 420.43,-90.71 417.9,-84.18"/>
</g>
<!-- Node11 -->
<g id="node11" class="node">
<title>Node11</title>
<g id="a_node11"><a xlink:href="class_ogre_1_1_vulkan_gpu_program_manager.html" target="_top" xlink:title=" ">
<polygon fill="white" stroke="#666666" points="651,-19 487,-19 487,0 651,0 651,-19"/>
<text text-anchor="middle" x="569" y="-7" font-family="Helvetica,sans-Serif" font-size="10.00">Ogre::VulkanGpuProgramManager</text>
</a>
</g>
</g>
<!-- Node1&#45;&gt;Node11 -->
<g id="edge10" class="edge">
<title>Node1&#45;&gt;Node11</title>
<path fill="none" stroke="#63b8ff" d="M402.86,-84.08C422.27,-67.11 454.1,-41.82 486,-27.5 493.18,-24.28 500.98,-21.61 508.82,-19.42"/>
<polygon fill="#63b8ff" stroke="#63b8ff" points="400.63,-81.38 395.51,-90.66 405.3,-86.6 400.63,-81.38"/>
</g>
<!-- Node2 -->
<g id="node2" class="node">
<title>Node2</title>
<g id="a_node2"><a xlink:href="class_ogre_1_1_resource_manager.html" target="_top" xlink:title="Defines a generic resource handler.">
<polygon fill="white" stroke="#666666" points="267.5,-133 146.5,-133 146.5,-114 267.5,-114 267.5,-133"/>
<text text-anchor="middle" x="207" y="-121" font-family="Helvetica,sans-Serif" font-size="10.00">Ogre::ResourceManager</text>
</a>
</g>
</g>
<!-- Node2&#45;&gt;Node1 -->
<g id="edge1" class="edge">
<title>Node2&#45;&gt;Node1</title>
<path fill="none" stroke="#63b8ff" d="M279.29,-114.49C291.35,-112.96 303.83,-111.38 315.75,-109.88"/>
<polygon fill="#63b8ff" stroke="#63b8ff" points="278.86,-111.01 269.38,-115.74 279.74,-117.96 278.86,-111.01"/>
</g>
<!-- Node3 -->
<g id="node3" class="node">
<title>Node3</title>
<g id="a_node3"><a xlink:href="class_ogre_1_1_script_loader.html" target="_top" xlink:title="Abstract class defining the interface used by classes which wish to perform script loading to define ...">
<polygon fill="white" stroke="#666666" points="98,-151 0,-151 0,-132 98,-132 98,-151"/>
<text text-anchor="middle" x="49" y="-139" font-family="Helvetica,sans-Serif" font-size="10.00">Ogre::ScriptLoader</text>
</a>
</g>
</g>
<!-- Node3&#45;&gt;Node2 -->
<g id="edge2" class="edge">
<title>Node3&#45;&gt;Node2</title>
<path fill="none" stroke="#63b8ff" d="M109.41,-134.64C121.47,-133.25 134.17,-131.79 146.24,-130.4"/>
<polygon fill="#63b8ff" stroke="#63b8ff" points="109.11,-131.16 99.58,-135.78 109.92,-138.11 109.11,-131.16"/>
</g>
<!-- Node4 -->
<g id="node4" class="node">
<title>Node4</title>
<g id="a_node4"><a xlink:href="class_ogre_1_1_allocated_object.html" target="_top" xlink:title="Superclass for all objects that wish to use custom memory allocators when their new / delete operator...">
<polygon fill="white" stroke="#666666" points="89,-114 9,-114 9,-95 89,-95 89,-114"/>
<text text-anchor="middle" x="49" y="-102" font-family="Helvetica,sans-Serif" font-size="10.00">ResourceAlloc</text>
</a>
</g>
</g>
<!-- Node4&#45;&gt;Node2 -->
<g id="edge3" class="edge">
<title>Node4&#45;&gt;Node2</title>
<path fill="none" stroke="#63b8ff" d="M100.68,-110.67C115.23,-112.44 131.24,-114.39 146.28,-116.23"/>
<polygon fill="#63b8ff" stroke="#63b8ff" points="101.22,-107.21 90.87,-109.48 100.37,-114.16 101.22,-107.21"/>
</g>
<!-- Node5 -->
<g id="node5" class="node">
<title>Node5</title>
<g id="a_node5"><a xlink:href="class_ogre_1_1_singleton.html" target="_top" xlink:title=" ">
<polygon fill="white" stroke="#666666" points="280,-95.5 134,-95.5 134,-65.5 280,-65.5 280,-95.5"/>
<text text-anchor="start" x="142" y="-83.5" font-family="Helvetica,sans-Serif" font-size="10.00">Ogre::Singleton&lt; GpuProgram</text>
<text text-anchor="middle" x="207" y="-72.5" font-family="Helvetica,sans-Serif" font-size="10.00">Manager &gt;</text>
</a>
</g>
</g>
<!-- Node5&#45;&gt;Node1 -->
<g id="edge4" class="edge">
<title>Node5&#45;&gt;Node1</title>
<path fill="none" stroke="#63b8ff" d="M291.58,-90.59C299.61,-91.56 307.68,-92.53 315.51,-93.48"/>
<polygon fill="#63b8ff" stroke="#63b8ff" points="292.13,-87.13 281.78,-89.4 291.29,-94.08 292.13,-87.13"/>
</g>
</g>
</svg>
