<?xml version="1.0" encoding="UTF-8" standalone="no"?>
<!DOCTYPE svg PUBLIC "-//W3C//DTD SVG 1.1//EN"
 "http://www.w3.org/Graphics/SVG/1.1/DTD/svg11.dtd">
<!-- Generated by graphviz version 7.0.5 (20221223.1930)
 -->
<!-- Title: Ogre::RenderPassDescriptor Pages: 1 -->
<svg width="484pt" height="138pt"
 viewBox="0.00 0.00 484.00 138.00" xmlns="http://www.w3.org/2000/svg" xmlns:xlink="http://www.w3.org/1999/xlink">
<g id="graph0" class="graph" transform="scale(1 1) rotate(0) translate(4 134)">
<title>Ogre::RenderPassDescriptor</title>
<!-- Node1 -->
<g id="node1" class="node">
<title>Node1</title>
<g id="a_node1"><a xlink:title=" ">
<polygon fill="#999999" stroke="#666666" points="262,-74 122,-74 122,-55 262,-55 262,-74"/>
<text text-anchor="middle" x="192" y="-62" font-family="Helvetica,sans-Serif" font-size="10.00">Ogre::RenderPassDescriptor</text>
</a>
</g>
</g>
<!-- Node3 -->
<g id="node3" class="node">
<title>Node3</title>
<g id="a_node3"><a xlink:href="class_ogre_1_1_d3_d11_render_pass_descriptor.html" target="_top" xlink:title="D3D11 will share groups of ID3D11RenderTargetView all D3D11RenderPassDescriptor that share the same R...">
<polygon fill="white" stroke="#666666" points="471.5,-130 302.5,-130 302.5,-111 471.5,-111 471.5,-130"/>
<text text-anchor="middle" x="387" y="-118" font-family="Helvetica,sans-Serif" font-size="10.00">Ogre::D3D11RenderPassDescriptor</text>
</a>
</g>
</g>
<!-- Node1&#45;&gt;Node3 -->
<g id="edge2" class="edge">
<title>Node1&#45;&gt;Node3</title>
<path fill="none" stroke="#63b8ff" d="M227.87,-78.56C248.11,-86.36 274.23,-95.8 298,-102.5 308.66,-105.5 320.17,-108.22 331.25,-110.59"/>
<polygon fill="#63b8ff" stroke="#63b8ff" points="229.28,-75.36 218.69,-74.98 226.73,-81.88 229.28,-75.36"/>
</g>
<!-- Node4 -->
<g id="node4" class="node">
<title>Node4</title>
<g id="a_node4"><a xlink:href="class_ogre_1_1_g_l3_plus_render_pass_descriptor.html" target="_top" xlink:title="GL3+ will share FBO handles between all GL3PlusRenderPassDescriptor that share the same FBO setup.">
<polygon fill="white" stroke="#666666" points="476,-93 298,-93 298,-74 476,-74 476,-93"/>
<text text-anchor="middle" x="387" y="-81" font-family="Helvetica,sans-Serif" font-size="10.00">Ogre::GL3PlusRenderPassDescriptor</text>
</a>
</g>
</g>
<!-- Node1&#45;&gt;Node4 -->
<g id="edge3" class="edge">
<title>Node1&#45;&gt;Node4</title>
<path fill="none" stroke="#63b8ff" d="M273.83,-72.46C281.72,-73.23 289.76,-74.03 297.71,-74.81"/>
<polygon fill="#63b8ff" stroke="#63b8ff" points="274.21,-68.98 263.91,-71.48 273.52,-75.94 274.21,-68.98"/>
</g>
<!-- Node5 -->
<g id="node5" class="node">
<title>Node5</title>
<g id="a_node5"><a xlink:href="class_ogre_1_1_metal_render_pass_descriptor.html" target="_top" xlink:title=" ">
<polygon fill="white" stroke="#666666" points="469,-56 305,-56 305,-37 469,-37 469,-56"/>
<text text-anchor="middle" x="387" y="-44" font-family="Helvetica,sans-Serif" font-size="10.00">Ogre::MetalRenderPassDescriptor</text>
</a>
</g>
</g>
<!-- Node1&#45;&gt;Node5 -->
<g id="edge4" class="edge">
<title>Node1&#45;&gt;Node5</title>
<path fill="none" stroke="#63b8ff" d="M273.82,-56.96C284.04,-56.01 294.5,-55.03 304.73,-54.08"/>
<polygon fill="#63b8ff" stroke="#63b8ff" points="273.54,-53.47 263.91,-57.89 274.19,-60.44 273.54,-53.47"/>
</g>
<!-- Node6 -->
<g id="node6" class="node">
<title>Node6</title>
<g id="a_node6"><a xlink:href="class_ogre_1_1_vulkan_render_pass_descriptor.html" target="_top" xlink:title=" ">
<polygon fill="white" stroke="#666666" points="472,-19 302,-19 302,0 472,0 472,-19"/>
<text text-anchor="middle" x="387" y="-7" font-family="Helvetica,sans-Serif" font-size="10.00">Ogre::VulkanRenderPassDescriptor</text>
</a>
</g>
</g>
<!-- Node1&#45;&gt;Node6 -->
<g id="edge5" class="edge">
<title>Node1&#45;&gt;Node6</title>
<path fill="none" stroke="#63b8ff" d="M228.71,-50.55C248.84,-43.03 274.58,-33.99 298,-27.5 308.67,-24.54 320.19,-21.84 331.27,-19.48"/>
<polygon fill="#63b8ff" stroke="#63b8ff" points="227.68,-47.19 219.57,-54.01 230.16,-53.74 227.68,-47.19"/>
</g>
<!-- Node2 -->
<g id="node2" class="node">
<title>Node2</title>
<g id="a_node2"><a xlink:href="class_ogre_1_1_allocated_object.html" target="_top" xlink:title="Superclass for all objects that wish to use custom memory allocators when their new / delete operator...">
<polygon fill="white" stroke="#666666" points="86,-74 0,-74 0,-55 86,-55 86,-74"/>
<text text-anchor="middle" x="43" y="-62" font-family="Helvetica,sans-Serif" font-size="10.00">RenderSysAlloc</text>
</a>
</g>
</g>
<!-- Node2&#45;&gt;Node1 -->
<g id="edge1" class="edge">
<title>Node2&#45;&gt;Node1</title>
<path fill="none" stroke="#63b8ff" d="M97.4,-64.5C105.29,-64.5 113.51,-64.5 121.67,-64.5"/>
<polygon fill="#63b8ff" stroke="#63b8ff" points="97.64,-61 87.64,-64.5 97.64,-68 97.64,-61"/>
</g>
</g>
</svg>
