<?xml version="1.0" encoding="UTF-8" standalone="no"?>
<!DOCTYPE svg PUBLIC "-//W3C//DTD SVG 1.1//EN"
 "http://www.w3.org/Graphics/SVG/1.1/DTD/svg11.dtd">
<!-- Generated by graphviz version 9.0.0 (20230911.1827)
 -->
<!-- Title: Ogre::D3D11TextureGpu Pages: 1 -->
<svg width="350pt" height="315pt"
 viewBox="0.00 0.00 350.00 314.75" xmlns="http://www.w3.org/2000/svg" xmlns:xlink="http://www.w3.org/1999/xlink">
<g id="graph0" class="graph" transform="scale(1 1) rotate(0) translate(4 310.75)">
<title>Ogre::D3D11TextureGpu</title>
<!-- Node1 -->
<g id="Node000001" class="node">
<title>Node1</title>
<g id="a_Node000001"><a xlink:title=" ">
<polygon fill="#999999" stroke="#666666" points="263.5,-141 142.5,-141 142.5,-121.75 263.5,-121.75 263.5,-141"/>
<text text-anchor="middle" x="203" y="-127.5" font-family="Helvetica,sans-Serif" font-size="10.00">Ogre::D3D11TextureGpu</text>
</a>
</g>
</g>
<!-- Node7 -->
<g id="Node000007" class="node">
<title>Node7</title>
<g id="a_Node000007"><a xlink:href="class_ogre_1_1_d3_d11_texture_gpu_render_target.html" target="_top" xlink:title=" ">
<polygon fill="white" stroke="#666666" points="278.88,-85.75 127.12,-85.75 127.12,-55.25 278.88,-55.25 278.88,-85.75"/>
<text text-anchor="start" x="135.12" y="-72.25" font-family="Helvetica,sans-Serif" font-size="10.00">Ogre::D3D11TextureGpuRender</text>
<text text-anchor="middle" x="203" y="-61" font-family="Helvetica,sans-Serif" font-size="10.00">Target</text>
</a>
</g>
</g>
<!-- Node1&#45;&gt;Node7 -->
<g id="edge6_Node000001_Node000007" class="edge">
<title>Node1&#45;&gt;Node7</title>
<g id="a_edge6_Node000001_Node000007"><a xlink:title=" ">
<path fill="none" stroke="#63b8ff" d="M203,-110.17C203,-102.24 203,-93.31 203,-86.03"/>
<polygon fill="#63b8ff" stroke="#63b8ff" points="199.5,-109.92 203,-119.92 206.5,-109.92 199.5,-109.92"/>
</a>
</g>
</g>
<!-- Node2 -->
<g id="Node000002" class="node">
<title>Node2</title>
<g id="a_Node000002"><a xlink:href="class_ogre_1_1_texture_gpu.html" target="_top" xlink:title=" ">
<polygon fill="white" stroke="#666666" points="181.88,-196.25 90.12,-196.25 90.12,-177 181.88,-177 181.88,-196.25"/>
<text text-anchor="middle" x="136" y="-182.75" font-family="Helvetica,sans-Serif" font-size="10.00">Ogre::TextureGpu</text>
</a>
</g>
</g>
<!-- Node2&#45;&gt;Node1 -->
<g id="edge1_Node000001_Node000002" class="edge">
<title>Node2&#45;&gt;Node1</title>
<g id="a_edge1_Node000001_Node000002"><a xlink:title=" ">
<path fill="none" stroke="#63b8ff" d="M156.05,-169.69C167.75,-160.39 182.07,-149.01 191.8,-141.27"/>
<polygon fill="#63b8ff" stroke="#63b8ff" points="154.2,-166.69 148.55,-175.65 158.56,-172.17 154.2,-166.69"/>
</a>
</g>
</g>
<!-- Node3 -->
<g id="Node000003" class="node">
<title>Node3</title>
<g id="a_Node000003"><a xlink:href="struct_ogre_1_1_gpu_tracked_resource.html" target="_top" xlink:title=" ">
<polygon fill="white" stroke="#666666" points="136,-251.5 0,-251.5 0,-232.25 136,-232.25 136,-251.5"/>
<text text-anchor="middle" x="68" y="-238" font-family="Helvetica,sans-Serif" font-size="10.00">Ogre::GpuTrackedResource</text>
</a>
</g>
</g>
<!-- Node3&#45;&gt;Node2 -->
<g id="edge2_Node000002_Node000003" class="edge">
<title>Node3&#45;&gt;Node2</title>
<g id="a_edge2_Node000002_Node000003"><a xlink:title=" ">
<path fill="none" stroke="#63b8ff" d="M88.35,-224.94C100.22,-215.64 114.76,-204.26 124.64,-196.52"/>
<polygon fill="#63b8ff" stroke="#63b8ff" points="86.44,-221.99 80.73,-230.91 90.76,-227.5 86.44,-221.99"/>
</a>
</g>
</g>
<!-- Node4 -->
<g id="Node000004" class="node">
<title>Node4</title>
<g id="a_Node000004"><a xlink:href="class_ogre_1_1_gpu_resource.html" target="_top" xlink:title=" ">
<polygon fill="white" stroke="#666666" points="254.38,-251.5 153.62,-251.5 153.62,-232.25 254.38,-232.25 254.38,-251.5"/>
<text text-anchor="middle" x="204" y="-238" font-family="Helvetica,sans-Serif" font-size="10.00">Ogre::GpuResource</text>
</a>
</g>
</g>
<!-- Node4&#45;&gt;Node2 -->
<g id="edge3_Node000002_Node000004" class="edge">
<title>Node4&#45;&gt;Node2</title>
<g id="a_edge3_Node000002_Node000004"><a xlink:title=" ">
<path fill="none" stroke="#63b8ff" d="M183.65,-224.94C171.78,-215.64 157.24,-204.26 147.36,-196.52"/>
<polygon fill="#63b8ff" stroke="#63b8ff" points="181.24,-227.5 191.27,-230.91 185.56,-221.99 181.24,-227.5"/>
</a>
</g>
</g>
<!-- Node5 -->
<g id="Node000005" class="node">
<title>Node5</title>
<g id="a_Node000005"><a xlink:href="class_ogre_1_1_allocated_object.html" target="_top" xlink:title="Superclass for all objects that wish to use custom memory allocators when their new / delete operator...">
<polygon fill="white" stroke="#666666" points="243.5,-306.75 164.5,-306.75 164.5,-287.5 243.5,-287.5 243.5,-306.75"/>
<text text-anchor="middle" x="204" y="-293.25" font-family="Helvetica,sans-Serif" font-size="10.00">ResourceAlloc</text>
</a>
</g>
</g>
<!-- Node5&#45;&gt;Node4 -->
<g id="edge4_Node000004_Node000005" class="edge">
<title>Node5&#45;&gt;Node4</title>
<g id="a_edge4_Node000004_Node000005"><a xlink:title=" ">
<path fill="none" stroke="#63b8ff" d="M204,-275.88C204,-267.59 204,-258.42 204,-251.86"/>
<polygon fill="#63b8ff" stroke="#63b8ff" points="200.5,-275.82 204,-285.82 207.5,-275.82 200.5,-275.82"/>
</a>
</g>
</g>
<!-- Node6 -->
<g id="Node000006" class="node">
<title>Node6</title>
<g id="a_Node000006"><a xlink:href="class_ogre_1_1_d3_d11_device_resource.html" target="_top" xlink:title="Represents a Direct3D rendering resource.">
<polygon fill="white" stroke="#666666" points="342,-196.25 200,-196.25 200,-177 342,-177 342,-196.25"/>
<text text-anchor="middle" x="271" y="-182.75" font-family="Helvetica,sans-Serif" font-size="10.00">Ogre::D3D11DeviceResource</text>
</a>
</g>
</g>
<!-- Node6&#45;&gt;Node1 -->
<g id="edge5_Node000001_Node000006" class="edge">
<title>Node6&#45;&gt;Node1</title>
<g id="a_edge5_Node000001_Node000006"><a xlink:title=" ">
<path fill="none" stroke="#8b1a1a" d="M250.65,-169.69C238.78,-160.39 224.24,-149.01 214.36,-141.27"/>
<polygon fill="#8b1a1a" stroke="#8b1a1a" points="248.24,-172.25 258.27,-175.66 252.56,-166.74 248.24,-172.25"/>
</a>
</g>
</g>
<!-- Node8 -->
<g id="Node000008" class="node">
<title>Node8</title>
<g id="a_Node000008"><a xlink:href="class_ogre_1_1_d3_d11_texture_gpu_window.html" target="_top" xlink:title=" ">
<polygon fill="white" stroke="#666666" points="280.75,-19.25 125.25,-19.25 125.25,0 280.75,0 280.75,-19.25"/>
<text text-anchor="middle" x="203" y="-5.75" font-family="Helvetica,sans-Serif" font-size="10.00">Ogre::D3D11TextureGpuWindow</text>
</a>
</g>
</g>
<!-- Node7&#45;&gt;Node8 -->
<g id="edge7_Node000007_Node000008" class="edge">
<title>Node7&#45;&gt;Node8</title>
<g id="a_edge7_Node000007_Node000008"><a xlink:title=" ">
<path fill="none" stroke="#63b8ff" d="M203,-43.48C203,-34.98 203,-26.09 203,-19.7"/>
<polygon fill="#63b8ff" stroke="#63b8ff" points="199.5,-43.43 203,-53.43 206.5,-43.43 199.5,-43.43"/>
</a>
</g>
</g>
</g>
</svg>
