<?xml version="1.0" encoding="UTF-8" standalone="no"?>
<!DOCTYPE svg PUBLIC "-//W3C//DTD SVG 1.1//EN"
 "http://www.w3.org/Graphics/SVG/1.1/DTD/svg11.dtd">
<!-- Generated by graphviz version 7.0.5 (20221223.1930)
 -->
<!-- Title: Ogre::v1::HardwareIndexBuffer Pages: 1 -->
<svg width="614pt" height="326pt"
 viewBox="0.00 0.00 614.00 326.00" xmlns="http://www.w3.org/2000/svg" xmlns:xlink="http://www.w3.org/1999/xlink">
<g id="graph0" class="graph" transform="scale(1 1) rotate(0) translate(4 322)">
<title>Ogre::v1::HardwareIndexBuffer</title>
<!-- Node1 -->
<g id="node1" class="node">
<title>Node1</title>
<g id="a_node1"><a xlink:title="Specialisation of HardwareBuffer for vertex index buffers, still abstract.">
<polygon fill="#999999" stroke="#666666" points="409,-168.5 261,-168.5 261,-149.5 409,-149.5 409,-168.5"/>
<text text-anchor="middle" x="335" y="-156.5" font-family="Helvetica,sans-Serif" font-size="10.00">Ogre::v1::HardwareIndexBuffer</text>
</a>
</g>
</g>
<!-- Node4 -->
<g id="node4" class="node">
<title>Node4</title>
<g id="a_node4"><a xlink:href="class_ogre_1_1v1_1_1_d3_d11_hardware_index_buffer.html" target="_top" xlink:title=" ">
<polygon fill="white" stroke="#666666" points="601.5,-318 449.5,-318 449.5,-288 601.5,-288 601.5,-318"/>
<text text-anchor="start" x="457.5" y="-306" font-family="Helvetica,sans-Serif" font-size="10.00">Ogre::v1::D3D11HardwareIndex</text>
<text text-anchor="middle" x="525.5" y="-295" font-family="Helvetica,sans-Serif" font-size="10.00">Buffer</text>
</a>
</g>
</g>
<!-- Node1&#45;&gt;Node4 -->
<g id="edge3" class="edge">
<title>Node1&#45;&gt;Node4</title>
<path fill="none" stroke="#63b8ff" d="M348.29,-178.04C366.36,-204.51 402.56,-252.2 445,-279 450.12,-282.23 455.7,-285.05 461.45,-287.5"/>
<polygon fill="#63b8ff" stroke="#63b8ff" points="351.38,-176.36 342.93,-169.97 345.55,-180.24 351.38,-176.36"/>
</g>
<!-- Node5 -->
<g id="node5" class="node">
<title>Node5</title>
<g id="a_node5"><a xlink:href="class_ogre_1_1v1_1_1_default_hardware_index_buffer.html" target="_top" xlink:title="Specialisation of HardwareIndexBuffer for emulation.">
<polygon fill="white" stroke="#666666" points="590.5,-270 460.5,-270 460.5,-240 590.5,-240 590.5,-270"/>
<text text-anchor="start" x="468.5" y="-258" font-family="Helvetica,sans-Serif" font-size="10.00">Ogre::v1::DefaultHardware</text>
<text text-anchor="middle" x="525.5" y="-247" font-family="Helvetica,sans-Serif" font-size="10.00">IndexBuffer</text>
</a>
</g>
</g>
<!-- Node1&#45;&gt;Node5 -->
<g id="edge4" class="edge">
<title>Node1&#45;&gt;Node5</title>
<path fill="none" stroke="#63b8ff" d="M357.44,-175.89C378.65,-191.93 412.56,-215.79 445,-231 451.79,-234.18 459.1,-237.06 466.44,-239.63"/>
<polygon fill="#63b8ff" stroke="#63b8ff" points="359.63,-173.17 349.57,-169.85 355.37,-178.72 359.63,-173.17"/>
</g>
<!-- Node6 -->
<g id="node6" class="node">
<title>Node6</title>
<g id="a_node6"><a xlink:href="class_ogre_1_1v1_1_1_g_l3_plus_default_hardware_index_buffer.html" target="_top" xlink:title="Specialisation of HardwareIndexBuffer for emulation.">
<polygon fill="white" stroke="#666666" points="588.5,-222 462.5,-222 462.5,-192 588.5,-192 588.5,-222"/>
<text text-anchor="start" x="470.5" y="-210" font-family="Helvetica,sans-Serif" font-size="10.00">Ogre::v1::GL3PlusDefault</text>
<text text-anchor="middle" x="525.5" y="-199" font-family="Helvetica,sans-Serif" font-size="10.00">HardwareIndexBuffer</text>
</a>
</g>
</g>
<!-- Node1&#45;&gt;Node6 -->
<g id="edge5" class="edge">
<title>Node1&#45;&gt;Node6</title>
<path fill="none" stroke="#63b8ff" d="M386.02,-171.74C409.95,-177.83 438.8,-185.18 463.96,-191.58"/>
<polygon fill="#63b8ff" stroke="#63b8ff" points="387.08,-168.4 376.52,-169.32 385.35,-175.18 387.08,-168.4"/>
</g>
<!-- Node7 -->
<g id="node7" class="node">
<title>Node7</title>
<g id="a_node7"><a xlink:href="class_ogre_1_1v1_1_1_g_l3_plus_hardware_index_buffer.html" target="_top" xlink:title=" ">
<polygon fill="white" stroke="#666666" points="594,-174 457,-174 457,-144 594,-144 594,-174"/>
<text text-anchor="start" x="465" y="-162" font-family="Helvetica,sans-Serif" font-size="10.00">Ogre::v1::GL3PlusHardware</text>
<text text-anchor="middle" x="525.5" y="-151" font-family="Helvetica,sans-Serif" font-size="10.00">IndexBuffer</text>
</a>
</g>
</g>
<!-- Node1&#45;&gt;Node7 -->
<g id="edge6" class="edge">
<title>Node1&#45;&gt;Node7</title>
<path fill="none" stroke="#63b8ff" d="M420.8,-159C432.76,-159 444.93,-159 456.52,-159"/>
<polygon fill="#63b8ff" stroke="#63b8ff" points="420.93,-155.5 410.93,-159 420.93,-162.5 420.93,-155.5"/>
</g>
<!-- Node8 -->
<g id="node8" class="node">
<title>Node8</title>
<g id="a_node8"><a xlink:href="class_ogre_1_1v1_1_1_g_l_e_s2_default_hardware_index_buffer.html" target="_top" xlink:title="Specialisation of HardwareIndexBuffer for emulation.">
<polygon fill="white" stroke="#666666" points="606,-126 445,-126 445,-96 606,-96 606,-126"/>
<text text-anchor="start" x="453" y="-114" font-family="Helvetica,sans-Serif" font-size="10.00">Ogre::v1::GLES2DefaultHardware</text>
<text text-anchor="middle" x="525.5" y="-103" font-family="Helvetica,sans-Serif" font-size="10.00">IndexBuffer</text>
</a>
</g>
</g>
<!-- Node1&#45;&gt;Node8 -->
<g id="edge7" class="edge">
<title>Node1&#45;&gt;Node8</title>
<path fill="none" stroke="#63b8ff" d="M386.02,-146.26C409.95,-140.17 438.8,-132.82 463.96,-126.42"/>
<polygon fill="#63b8ff" stroke="#63b8ff" points="385.35,-142.82 376.52,-148.68 387.08,-149.6 385.35,-142.82"/>
</g>
<!-- Node9 -->
<g id="node9" class="node">
<title>Node9</title>
<g id="a_node9"><a xlink:href="class_ogre_1_1v1_1_1_metal_hardware_index_buffer.html" target="_top" xlink:title="Specialisation of HardwareIndexBuffer for Metal.">
<polygon fill="white" stroke="#666666" points="598.5,-78 452.5,-78 452.5,-48 598.5,-48 598.5,-78"/>
<text text-anchor="start" x="460.5" y="-66" font-family="Helvetica,sans-Serif" font-size="10.00">Ogre::v1::MetalHardwareIndex</text>
<text text-anchor="middle" x="525.5" y="-55" font-family="Helvetica,sans-Serif" font-size="10.00">Buffer</text>
</a>
</g>
</g>
<!-- Node1&#45;&gt;Node9 -->
<g id="edge8" class="edge">
<title>Node1&#45;&gt;Node9</title>
<path fill="none" stroke="#63b8ff" d="M357.44,-142.11C378.65,-126.07 412.56,-102.21 445,-87 451.79,-83.82 459.1,-80.94 466.44,-78.37"/>
<polygon fill="#63b8ff" stroke="#63b8ff" points="355.37,-139.28 349.57,-148.15 359.63,-144.83 355.37,-139.28"/>
</g>
<!-- Node10 -->
<g id="node10" class="node">
<title>Node10</title>
<g id="a_node10"><a xlink:href="class_ogre_1_1v1_1_1_vulkan_hardware_index_buffer.html" target="_top" xlink:title=" ">
<polygon fill="white" stroke="#666666" points="590,-30 461,-30 461,0 590,0 590,-30"/>
<text text-anchor="start" x="469" y="-18" font-family="Helvetica,sans-Serif" font-size="10.00">Ogre::v1::VulkanHardware</text>
<text text-anchor="middle" x="525.5" y="-7" font-family="Helvetica,sans-Serif" font-size="10.00">IndexBuffer</text>
</a>
</g>
</g>
<!-- Node1&#45;&gt;Node10 -->
<g id="edge9" class="edge">
<title>Node1&#45;&gt;Node10</title>
<path fill="none" stroke="#63b8ff" d="M348.29,-139.96C366.36,-113.49 402.56,-65.8 445,-39 450.12,-35.77 455.7,-32.95 461.45,-30.5"/>
<polygon fill="#63b8ff" stroke="#63b8ff" points="345.55,-137.76 342.93,-148.03 351.38,-141.64 345.55,-137.76"/>
</g>
<!-- Node2 -->
<g id="node2" class="node">
<title>Node2</title>
<g id="a_node2"><a xlink:href="class_ogre_1_1v1_1_1_hardware_buffer.html" target="_top" xlink:title="Abstract class defining common features of hardware buffers.">
<polygon fill="white" stroke="#666666" points="225,-168.5 100,-168.5 100,-149.5 225,-149.5 225,-168.5"/>
<text text-anchor="middle" x="162.5" y="-156.5" font-family="Helvetica,sans-Serif" font-size="10.00">Ogre::v1::HardwareBuffer</text>
</a>
</g>
</g>
<!-- Node2&#45;&gt;Node1 -->
<g id="edge1" class="edge">
<title>Node2&#45;&gt;Node1</title>
<path fill="none" stroke="#63b8ff" d="M236.31,-159C244.36,-159 252.57,-159 260.63,-159"/>
<polygon fill="#63b8ff" stroke="#63b8ff" points="236.57,-155.5 226.57,-159 236.57,-162.5 236.57,-155.5"/>
</g>
<!-- Node3 -->
<g id="node3" class="node">
<title>Node3</title>
<g id="a_node3"><a xlink:href="class_ogre_1_1_allocated_object.html" target="_top" xlink:title="Superclass for all objects that wish to use custom memory allocators when their new / delete operator...">
<polygon fill="white" stroke="#666666" points="64,-168.5 0,-168.5 0,-149.5 64,-149.5 64,-168.5"/>
<text text-anchor="middle" x="32" y="-156.5" font-family="Helvetica,sans-Serif" font-size="10.00">BufferAlloc</text>
</a>
</g>
</g>
<!-- Node3&#45;&gt;Node2 -->
<g id="edge2" class="edge">
<title>Node3&#45;&gt;Node2</title>
<path fill="none" stroke="#63b8ff" d="M75.71,-159C83.42,-159 91.6,-159 99.73,-159"/>
<polygon fill="#63b8ff" stroke="#63b8ff" points="75.95,-155.5 65.95,-159 75.95,-162.5 75.95,-155.5"/>
</g>
</g>
</svg>
