<?xml version="1.0" encoding="UTF-8" standalone="no"?>
<!DOCTYPE svg PUBLIC "-//W3C//DTD SVG 1.1//EN"
 "http://www.w3.org/Graphics/SVG/1.1/DTD/svg11.dtd">
<!-- Generated by graphviz version 9.0.0 (20230911.1827)
 -->
<!-- Title: Ogre::CompositorPassDef Pages: 1 -->
<svg width="490pt" height="421pt"
 viewBox="0.00 0.00 489.50 421.25" xmlns="http://www.w3.org/2000/svg" xmlns:xlink="http://www.w3.org/1999/xlink">
<g id="graph0" class="graph" transform="scale(1 1) rotate(0) translate(4 417.25)">
<title>Ogre::CompositorPassDef</title>
<!-- Node1 -->
<g id="Node000001" class="node">
<title>Node1</title>
<g id="a_Node000001"><a xlink:title="Interface to abstract all types of pass definitions (.">
<polygon fill="#999999" stroke="#666666" points="268.25,-216.25 139.75,-216.25 139.75,-197 268.25,-197 268.25,-216.25"/>
<text text-anchor="middle" x="204" y="-202.75" font-family="Helvetica,sans-Serif" font-size="10.00">Ogre::CompositorPassDef</text>
</a>
</g>
</g>
<!-- Node3 -->
<g id="Node000003" class="node">
<title>Node3</title>
<g id="a_Node000003"><a xlink:href="class_ogre_1_1_compositor_pass_clear_def.html" target="_top" xlink:title=" ">
<polygon fill="white" stroke="#666666" points="468.38,-413.25 317.38,-413.25 317.38,-394 468.38,-394 468.38,-413.25"/>
<text text-anchor="middle" x="392.88" y="-399.75" font-family="Helvetica,sans-Serif" font-size="10.00">Ogre::CompositorPassClearDef</text>
</a>
</g>
</g>
<!-- Node1&#45;&gt;Node3 -->
<g id="edge2_Node000001_Node000003" class="edge">
<title>Node1&#45;&gt;Node3</title>
<g id="a_edge2_Node000001_Node000003"><a xlink:title=" ">
<path fill="none" stroke="#63b8ff" d="M210.32,-227.44C221.14,-265.33 249.47,-345.38 304.25,-385.62 308.51,-388.75 313.18,-391.36 318.08,-393.55"/>
<polygon fill="#63b8ff" stroke="#63b8ff" points="213.8,-226.91 207.8,-218.18 207.05,-228.75 213.8,-226.91"/>
</a>
</g>
</g>
<!-- Node4 -->
<g id="Node000004" class="node">
<title>Node4</title>
<g id="a_Node000004"><a xlink:href="class_ogre_1_1_compositor_pass_compute_def.html" target="_top" xlink:title=" ">
<polygon fill="white" stroke="#666666" points="476.62,-376.25 309.12,-376.25 309.12,-357 476.62,-357 476.62,-376.25"/>
<text text-anchor="middle" x="392.88" y="-362.75" font-family="Helvetica,sans-Serif" font-size="10.00">Ogre::CompositorPassComputeDef</text>
</a>
</g>
</g>
<!-- Node1&#45;&gt;Node4 -->
<g id="edge3_Node000001_Node000004" class="edge">
<title>Node1&#45;&gt;Node4</title>
<g id="a_edge3_Node000001_Node000004"><a xlink:title=" ">
<path fill="none" stroke="#63b8ff" d="M213.34,-226.82C227.31,-257.95 258.46,-317.26 304.25,-347.62 309.7,-351.24 315.72,-354.18 321.97,-356.57"/>
<polygon fill="#63b8ff" stroke="#63b8ff" points="216.62,-225.56 209.44,-217.77 210.19,-228.34 216.62,-225.56"/>
</a>
</g>
</g>
<!-- Node5 -->
<g id="Node000005" class="node">
<title>Node5</title>
<g id="a_Node000005"><a xlink:href="class_ogre_1_1_compositor_pass_depth_copy_def.html" target="_top" xlink:title=" ">
<polygon fill="white" stroke="#666666" points="462.38,-338.88 323.38,-338.88 323.38,-308.38 462.38,-308.38 462.38,-338.88"/>
<text text-anchor="start" x="331.38" y="-325.38" font-family="Helvetica,sans-Serif" font-size="10.00">Ogre::CompositorPassDepth</text>
<text text-anchor="middle" x="392.88" y="-314.12" font-family="Helvetica,sans-Serif" font-size="10.00">CopyDef</text>
</a>
</g>
</g>
<!-- Node1&#45;&gt;Node5 -->
<g id="edge4_Node000001_Node000005" class="edge">
<title>Node1&#45;&gt;Node5</title>
<g id="a_edge4_Node000001_Node000005"><a xlink:title=" ">
<path fill="none" stroke="#63b8ff" d="M220.05,-225.41C237.95,-246.51 269.76,-280.33 304.25,-299.62 310.17,-302.94 316.57,-305.81 323.13,-308.31"/>
<polygon fill="#63b8ff" stroke="#63b8ff" points="222.88,-223.35 213.81,-217.87 217.49,-227.81 222.88,-223.35"/>
</a>
</g>
</g>
<!-- Node6 -->
<g id="Node000006" class="node">
<title>Node6</title>
<g id="a_Node000006"><a xlink:href="class_ogre_1_1_compositor_pass_ibl_specular_def.html" target="_top" xlink:title=" ">
<polygon fill="white" stroke="#666666" points="481.5,-290.25 304.25,-290.25 304.25,-271 481.5,-271 481.5,-290.25"/>
<text text-anchor="middle" x="392.88" y="-276.75" font-family="Helvetica,sans-Serif" font-size="10.00">Ogre::CompositorPassIblSpecularDef</text>
</a>
</g>
</g>
<!-- Node1&#45;&gt;Node6 -->
<g id="edge5_Node000001_Node000006" class="edge">
<title>Node1&#45;&gt;Node6</title>
<g id="a_edge5_Node000001_Node000006"><a xlink:title=" ">
<path fill="none" stroke="#63b8ff" d="M228.98,-222.98C248.47,-235.56 277.08,-252.45 304.25,-262.62 312.54,-265.73 321.48,-268.34 330.38,-270.53"/>
<polygon fill="#63b8ff" stroke="#63b8ff" points="230.96,-220.1 220.69,-217.52 227.11,-225.94 230.96,-220.1"/>
</a>
</g>
</g>
<!-- Node7 -->
<g id="Node000007" class="node">
<title>Node7</title>
<g id="a_Node000007"><a xlink:href="class_ogre_1_1_compositor_pass_mipmap_def.html" target="_top" xlink:title=" ">
<polygon fill="white" stroke="#666666" points="474.38,-253.25 311.38,-253.25 311.38,-234 474.38,-234 474.38,-253.25"/>
<text text-anchor="middle" x="392.88" y="-239.75" font-family="Helvetica,sans-Serif" font-size="10.00">Ogre::CompositorPassMipmapDef</text>
</a>
</g>
</g>
<!-- Node1&#45;&gt;Node7 -->
<g id="edge6_Node000001_Node000007" class="edge">
<title>Node1&#45;&gt;Node7</title>
<g id="a_edge6_Node000001_Node000007"><a xlink:title=" ">
<path fill="none" stroke="#63b8ff" d="M267.17,-218.93C291.1,-223.67 318.12,-229.02 340.87,-233.53"/>
<polygon fill="#63b8ff" stroke="#63b8ff" points="268.04,-215.54 257.55,-217.03 266.68,-222.41 268.04,-215.54"/>
</a>
</g>
</g>
<!-- Node8 -->
<g id="Node000008" class="node">
<title>Node8</title>
<g id="a_Node000008"><a xlink:href="class_ogre_1_1_compositor_pass_quad_def.html" target="_top" xlink:title=" ">
<polygon fill="white" stroke="#666666" points="468.75,-216.25 317,-216.25 317,-197 468.75,-197 468.75,-216.25"/>
<text text-anchor="middle" x="392.88" y="-202.75" font-family="Helvetica,sans-Serif" font-size="10.00">Ogre::CompositorPassQuadDef</text>
</a>
</g>
</g>
<!-- Node1&#45;&gt;Node8 -->
<g id="edge7_Node000001_Node000008" class="edge">
<title>Node1&#45;&gt;Node8</title>
<g id="a_edge7_Node000001_Node000008"><a xlink:title=" ">
<path fill="none" stroke="#63b8ff" d="M279.94,-206.62C292.01,-206.62 304.5,-206.62 316.58,-206.62"/>
<polygon fill="#63b8ff" stroke="#63b8ff" points="280.04,-203.13 270.04,-206.63 280.04,-210.13 280.04,-203.13"/>
</a>
</g>
</g>
<!-- Node9 -->
<g id="Node000009" class="node">
<title>Node9</title>
<g id="a_Node000009"><a xlink:href="class_ogre_1_1_compositor_pass_scene_def.html" target="_top" xlink:title=" ">
<polygon fill="white" stroke="#666666" points="471,-179.25 314.75,-179.25 314.75,-160 471,-160 471,-179.25"/>
<text text-anchor="middle" x="392.88" y="-165.75" font-family="Helvetica,sans-Serif" font-size="10.00">Ogre::CompositorPassSceneDef</text>
</a>
</g>
</g>
<!-- Node1&#45;&gt;Node9 -->
<g id="edge8_Node000001_Node000009" class="edge">
<title>Node1&#45;&gt;Node9</title>
<g id="a_edge8_Node000001_Node000009"><a xlink:title=" ">
<path fill="none" stroke="#63b8ff" d="M267.17,-194.32C291.1,-189.58 318.12,-184.23 340.87,-179.72"/>
<polygon fill="#63b8ff" stroke="#63b8ff" points="266.68,-190.84 257.55,-196.22 268.04,-197.71 266.68,-190.84"/>
</a>
</g>
</g>
<!-- Node10 -->
<g id="Node000010" class="node">
<title>Node10</title>
<g id="a_Node000010"><a xlink:href="class_ogre_1_1_compositor_pass_shadows_def.html" target="_top" xlink:title=" ">
<polygon fill="white" stroke="#666666" points="477.38,-142.25 308.38,-142.25 308.38,-123 477.38,-123 477.38,-142.25"/>
<text text-anchor="middle" x="392.88" y="-128.75" font-family="Helvetica,sans-Serif" font-size="10.00">Ogre::CompositorPassShadowsDef</text>
</a>
</g>
</g>
<!-- Node1&#45;&gt;Node10 -->
<g id="edge9_Node000001_Node000010" class="edge">
<title>Node1&#45;&gt;Node10</title>
<g id="a_edge9_Node000001_Node000010"><a xlink:title=" ">
<path fill="none" stroke="#63b8ff" d="M228.98,-190.27C248.47,-177.69 277.08,-160.8 304.25,-150.62 312.54,-147.52 321.48,-144.91 330.38,-142.72"/>
<polygon fill="#63b8ff" stroke="#63b8ff" points="227.11,-187.31 220.69,-195.73 230.96,-193.15 227.11,-187.31"/>
</a>
</g>
</g>
<!-- Node11 -->
<g id="Node000011" class="node">
<title>Node11</title>
<g id="a_Node000011"><a xlink:href="class_ogre_1_1_compositor_pass_stencil_def.html" target="_top" xlink:title=" ">
<polygon fill="white" stroke="#666666" points="472.12,-105.25 313.62,-105.25 313.62,-86 472.12,-86 472.12,-105.25"/>
<text text-anchor="middle" x="392.88" y="-91.75" font-family="Helvetica,sans-Serif" font-size="10.00">Ogre::CompositorPassStencilDef</text>
</a>
</g>
</g>
<!-- Node1&#45;&gt;Node11 -->
<g id="edge10_Node000001_Node000011" class="edge">
<title>Node1&#45;&gt;Node11</title>
<g id="a_edge10_Node000001_Node000011"><a xlink:title=" ">
<path fill="none" stroke="#63b8ff" d="M219.56,-187.77C237.2,-166.31 268.97,-131.89 304.25,-113.62 310.32,-110.48 316.89,-107.89 323.61,-105.75"/>
<polygon fill="#63b8ff" stroke="#63b8ff" points="216.95,-185.43 213.43,-195.43 222.41,-189.8 216.95,-185.43"/>
</a>
</g>
</g>
<!-- Node12 -->
<g id="Node000012" class="node">
<title>Node12</title>
<g id="a_Node000012"><a xlink:href="class_ogre_1_1_compositor_pass_target_barrier_def.html" target="_top" xlink:title=" ">
<polygon fill="white" stroke="#666666" points="463.5,-67.88 322.25,-67.88 322.25,-37.38 463.5,-37.38 463.5,-67.88"/>
<text text-anchor="start" x="330.25" y="-54.38" font-family="Helvetica,sans-Serif" font-size="10.00">Ogre::CompositorPassTarget</text>
<text text-anchor="middle" x="392.88" y="-43.12" font-family="Helvetica,sans-Serif" font-size="10.00">BarrierDef</text>
</a>
</g>
</g>
<!-- Node1&#45;&gt;Node12 -->
<g id="edge11_Node000001_Node000012" class="edge">
<title>Node1&#45;&gt;Node12</title>
<g id="a_edge11_Node000001_Node000012"><a xlink:title=" ">
<path fill="none" stroke="#63b8ff" d="M214.82,-186.65C229.98,-157.91 261.84,-105.21 304.25,-76.62 309.74,-72.92 315.79,-69.79 322.07,-67.14"/>
<polygon fill="#63b8ff" stroke="#63b8ff" points="211.8,-184.87 210.36,-195.37 218.03,-188.06 211.8,-184.87"/>
</a>
</g>
</g>
<!-- Node13 -->
<g id="Node000013" class="node">
<title>Node13</title>
<g id="a_Node000013"><a xlink:href="class_ogre_1_1_compositor_pass_uav_def.html" target="_top" xlink:title=" ">
<polygon fill="white" stroke="#666666" points="466.12,-19.25 319.62,-19.25 319.62,0 466.12,0 466.12,-19.25"/>
<text text-anchor="middle" x="392.88" y="-5.75" font-family="Helvetica,sans-Serif" font-size="10.00">Ogre::CompositorPassUavDef</text>
</a>
</g>
</g>
<!-- Node1&#45;&gt;Node13 -->
<g id="edge12_Node000001_Node000013" class="edge">
<title>Node1&#45;&gt;Node13</title>
<g id="a_edge12_Node000001_Node000013"><a xlink:title=" ">
<path fill="none" stroke="#63b8ff" d="M210.39,-185.98C221.34,-148.39 249.87,-68.93 304.25,-28.62 309.13,-25.01 314.55,-22.06 320.24,-19.64"/>
<polygon fill="#63b8ff" stroke="#63b8ff" points="207.15,-184.59 207.85,-195.16 213.9,-186.46 207.15,-184.59"/>
</a>
</g>
</g>
<!-- Node2 -->
<g id="Node000002" class="node">
<title>Node2</title>
<g id="a_Node000002"><a xlink:href="class_ogre_1_1_allocated_object.html" target="_top" xlink:title="Superclass for all objects that wish to use custom memory allocators when their new / delete operator...">
<polygon fill="white" stroke="#666666" points="103.75,-216.25 0,-216.25 0,-197 103.75,-197 103.75,-216.25"/>
<text text-anchor="middle" x="51.88" y="-202.75" font-family="Helvetica,sans-Serif" font-size="10.00">CompositorInstAlloc</text>
</a>
</g>
</g>
<!-- Node2&#45;&gt;Node1 -->
<g id="edge1_Node000001_Node000002" class="edge">
<title>Node2&#45;&gt;Node1</title>
<g id="a_edge1_Node000001_Node000002"><a xlink:title=" ">
<path fill="none" stroke="#63b8ff" d="M115.54,-206.62C123.46,-206.62 131.57,-206.62 139.51,-206.62"/>
<polygon fill="#63b8ff" stroke="#63b8ff" points="115.63,-203.13 105.63,-206.63 115.63,-210.13 115.63,-203.13"/>
</a>
</g>
</g>
</g>
</svg>
