<?xml version="1.0" encoding="UTF-8" standalone="no"?>
<!DOCTYPE svg PUBLIC "-//W3C//DTD SVG 1.1//EN"
 "http://www.w3.org/Graphics/SVG/1.1/DTD/svg11.dtd">
<!-- Generated by graphviz version 9.0.0 (20230911.1827)
 -->
<!-- Title: Ogre::StagingBuffer Pages: 1 -->
<svg width="415pt" height="212pt"
 viewBox="0.00 0.00 414.50 212.25" xmlns="http://www.w3.org/2000/svg" xmlns:xlink="http://www.w3.org/1999/xlink">
<g id="graph0" class="graph" transform="scale(1 1) rotate(0) translate(4 208.25)">
<title>Ogre::StagingBuffer</title>
<!-- Node1 -->
<g id="Node000001" class="node">
<title>Node1</title>
<g id="a_Node000001"><a xlink:title="A staging buffer is a buffer that resides on the GPU and be written to/from both CPU &amp; GPU However th...">
<polygon fill="#999999" stroke="#666666" points="232.25,-111.25 132.25,-111.25 132.25,-92 232.25,-92 232.25,-111.25"/>
<text text-anchor="middle" x="182.25" y="-97.75" font-family="Helvetica,sans-Serif" font-size="10.00">Ogre::StagingBuffer</text>
</a>
</g>
</g>
<!-- Node3 -->
<g id="Node000003" class="node">
<title>Node3</title>
<g id="a_Node000003"><a xlink:href="class_ogre_1_1_d3_d11_staging_buffer.html" target="_top" xlink:title="NOTE FOR D3D12 PORTING: The GL3Plus implementation should be used as reference, since it is much lowe...">
<polygon fill="white" stroke="#666666" points="402,-204.25 272.75,-204.25 272.75,-185 402,-185 402,-204.25"/>
<text text-anchor="middle" x="337.38" y="-190.75" font-family="Helvetica,sans-Serif" font-size="10.00">Ogre::D3D11StagingBuffer</text>
</a>
</g>
</g>
<!-- Node1&#45;&gt;Node3 -->
<g id="edge2_Node000001_Node000003" class="edge">
<title>Node1&#45;&gt;Node3</title>
<g id="a_edge2_Node000001_Node000003"><a xlink:title=" ">
<path fill="none" stroke="#63b8ff" d="M198.91,-119.61C214.75,-136.71 240.76,-161.94 268.25,-176.62 274.08,-179.74 280.48,-182.34 286.95,-184.5"/>
<polygon fill="#63b8ff" stroke="#63b8ff" points="201.91,-117.72 192.61,-112.64 196.71,-122.41 201.91,-117.72"/>
</a>
</g>
</g>
<!-- Node4 -->
<g id="Node000004" class="node">
<title>Node4</title>
<g id="a_Node000004"><a xlink:href="class_ogre_1_1_g_l3_plus_staging_buffer.html" target="_top" xlink:title="A staging buffer is a buffer that resides on the GPU and be written to/from both CPU &amp; GPU However th...">
<polygon fill="white" stroke="#666666" points="406.5,-167.25 268.25,-167.25 268.25,-148 406.5,-148 406.5,-167.25"/>
<text text-anchor="middle" x="337.38" y="-153.75" font-family="Helvetica,sans-Serif" font-size="10.00">Ogre::GL3PlusStagingBuffer</text>
</a>
</g>
</g>
<!-- Node1&#45;&gt;Node4 -->
<g id="edge3_Node000001_Node000004" class="edge">
<title>Node1&#45;&gt;Node4</title>
<g id="a_edge3_Node000001_Node000004"><a xlink:title=" ">
<path fill="none" stroke="#63b8ff" d="M213.5,-116.59C229.52,-124.14 249.67,-133.07 268.25,-139.62 276.44,-142.52 285.33,-145.19 293.9,-147.54"/>
<polygon fill="#63b8ff" stroke="#63b8ff" points="215.04,-113.44 204.51,-112.28 212.01,-119.76 215.04,-113.44"/>
</a>
</g>
</g>
<!-- Node5 -->
<g id="Node000005" class="node">
<title>Node5</title>
<g id="a_Node000005"><a xlink:href="class_ogre_1_1_g_l_e_s2_staging_buffer.html" target="_top" xlink:title="A staging buffer is a buffer that resides on the GPU and be written to/from both CPU &amp; GPU However th...">
<polygon fill="white" stroke="#666666" points="403.12,-130.25 271.62,-130.25 271.62,-111 403.12,-111 403.12,-130.25"/>
<text text-anchor="middle" x="337.38" y="-116.75" font-family="Helvetica,sans-Serif" font-size="10.00">Ogre::GLES2StagingBuffer</text>
</a>
</g>
</g>
<!-- Node1&#45;&gt;Node5 -->
<g id="edge4_Node000001_Node000005" class="edge">
<title>Node1&#45;&gt;Node5</title>
<g id="a_edge4_Node000001_Node000005"><a xlink:title=" ">
<path fill="none" stroke="#63b8ff" d="M243.77,-109.13C252.79,-110.25 262.13,-111.41 271.25,-112.54"/>
<polygon fill="#63b8ff" stroke="#63b8ff" points="244.4,-105.69 234.04,-107.93 243.54,-112.63 244.4,-105.69"/>
</a>
</g>
</g>
<!-- Node6 -->
<g id="Node000006" class="node">
<title>Node6</title>
<g id="a_Node000006"><a xlink:href="class_ogre_1_1_metal_staging_buffer.html" target="_top" xlink:title="A staging buffer is a buffer that resides on the GPU and be written to/from both CPU &amp; GPU However th...">
<polygon fill="white" stroke="#666666" points="399.38,-93.25 275.38,-93.25 275.38,-74 399.38,-74 399.38,-93.25"/>
<text text-anchor="middle" x="337.38" y="-79.75" font-family="Helvetica,sans-Serif" font-size="10.00">Ogre::MetalStagingBuffer</text>
</a>
</g>
</g>
<!-- Node1&#45;&gt;Node6 -->
<g id="edge5_Node000001_Node000006" class="edge">
<title>Node1&#45;&gt;Node6</title>
<g id="a_edge5_Node000001_Node000006"><a xlink:title=" ">
<path fill="none" stroke="#63b8ff" d="M243.91,-94.49C254.17,-93.29 264.82,-92.04 275.09,-90.83"/>
<polygon fill="#63b8ff" stroke="#63b8ff" points="243.57,-91.01 234.05,-95.65 244.39,-97.96 243.57,-91.01"/>
</a>
</g>
</g>
<!-- Node7 -->
<g id="Node000007" class="node">
<title>Node7</title>
<g id="a_Node000007"><a xlink:href="class_ogre_1_1_n_u_l_l_staging_buffer.html" target="_top" xlink:title="A staging buffer is a buffer that resides on the GPU and be written to/from both CPU &amp; GPU However th...">
<polygon fill="white" stroke="#666666" points="400.88,-56.25 273.88,-56.25 273.88,-37 400.88,-37 400.88,-56.25"/>
<text text-anchor="middle" x="337.38" y="-42.75" font-family="Helvetica,sans-Serif" font-size="10.00">Ogre::NULLStagingBuffer</text>
</a>
</g>
</g>
<!-- Node1&#45;&gt;Node7 -->
<g id="edge6_Node000001_Node000007" class="edge">
<title>Node1&#45;&gt;Node7</title>
<g id="a_edge6_Node000001_Node000007"><a xlink:title=" ">
<path fill="none" stroke="#63b8ff" d="M214.18,-86.81C230.11,-79.53 249.97,-70.98 268.25,-64.62 276.57,-61.73 285.6,-59.05 294.28,-56.67"/>
<polygon fill="#63b8ff" stroke="#63b8ff" points="212.83,-83.58 205.23,-90.96 215.77,-89.93 212.83,-83.58"/>
</a>
</g>
</g>
<!-- Node8 -->
<g id="Node000008" class="node">
<title>Node8</title>
<g id="a_Node000008"><a xlink:href="class_ogre_1_1_vulkan_staging_buffer.html" target="_top" xlink:title="A staging buffer is a buffer that resides on the GPU and be written to/from both CPU &amp; GPU However th...">
<polygon fill="white" stroke="#666666" points="402.38,-19.25 272.38,-19.25 272.38,0 402.38,0 402.38,-19.25"/>
<text text-anchor="middle" x="337.38" y="-5.75" font-family="Helvetica,sans-Serif" font-size="10.00">Ogre::VulkanStagingBuffer</text>
</a>
</g>
</g>
<!-- Node1&#45;&gt;Node8 -->
<g id="edge7_Node000001_Node000008" class="edge">
<title>Node1&#45;&gt;Node8</title>
<g id="a_edge7_Node000001_Node000008"><a xlink:title=" ">
<path fill="none" stroke="#63b8ff" d="M199.65,-83.14C215.59,-66.3 241.26,-41.93 268.25,-27.62 274.19,-24.47 280.73,-21.85 287.33,-19.66"/>
<polygon fill="#63b8ff" stroke="#63b8ff" points="197.08,-80.77 192.88,-90.5 202.23,-85.51 197.08,-80.77"/>
</a>
</g>
</g>
<!-- Node2 -->
<g id="Node000002" class="node">
<title>Node2</title>
<g id="a_Node000002"><a xlink:href="class_ogre_1_1_allocated_object.html" target="_top" xlink:title="Superclass for all objects that wish to use custom memory allocators when their new / delete operator...">
<polygon fill="white" stroke="#666666" points="96.25,-111.25 0,-111.25 0,-92 96.25,-92 96.25,-111.25"/>
<text text-anchor="middle" x="48.12" y="-97.75" font-family="Helvetica,sans-Serif" font-size="10.00">StagingBufferAlloc</text>
</a>
</g>
</g>
<!-- Node2&#45;&gt;Node1 -->
<g id="edge1_Node000001_Node000002" class="edge">
<title>Node2&#45;&gt;Node1</title>
<g id="a_edge1_Node000001_Node000002"><a xlink:title=" ">
<path fill="none" stroke="#63b8ff" d="M107.76,-101.62C115.86,-101.62 124.12,-101.62 132.03,-101.62"/>
<polygon fill="#63b8ff" stroke="#63b8ff" points="107.97,-98.13 97.97,-101.63 107.97,-105.13 107.97,-98.13"/>
</a>
</g>
</g>
</g>
</svg>
