<?xml version="1.0" encoding="UTF-8" standalone="no"?>
<!DOCTYPE svg PUBLIC "-//W3C//DTD SVG 1.1//EN"
 "http://www.w3.org/Graphics/SVG/1.1/DTD/svg11.dtd">
<!-- Generated by graphviz version 7.0.5 (20221223.1930)
 -->
<!-- Title: Ogre::StagingTextureBufferImpl Pages: 1 -->
<svg width="607pt" height="138pt"
 viewBox="0.00 0.00 607.00 138.00" xmlns="http://www.w3.org/2000/svg" xmlns:xlink="http://www.w3.org/1999/xlink">
<g id="graph0" class="graph" transform="scale(1 1) rotate(0) translate(4 134)">
<title>Ogre::StagingTextureBufferImpl</title>
<!-- Node1 -->
<g id="node1" class="node">
<title>Node1</title>
<g id="a_node1"><a xlink:title="This implementation can be used by all RenderSystem APIs except D3D11, which is why this implementati...">
<polygon fill="#999999" stroke="#666666" points="417,-74 265,-74 265,-55 417,-55 417,-74"/>
<text text-anchor="middle" x="341" y="-62" font-family="Helvetica,sans-Serif" font-size="10.00">Ogre::StagingTextureBufferImpl</text>
</a>
</g>
</g>
<!-- Node4 -->
<g id="node4" class="node">
<title>Node4</title>
<g id="a_node4"><a xlink:href="class_ogre_1_1_g_l3_plus_staging_texture.html" target="_top" xlink:title=" ">
<polygon fill="white" stroke="#666666" points="599,-130 453,-130 453,-111 599,-111 599,-130"/>
<text text-anchor="middle" x="526" y="-118" font-family="Helvetica,sans-Serif" font-size="10.00">Ogre::GL3PlusStagingTexture</text>
</a>
</g>
</g>
<!-- Node1&#45;&gt;Node4 -->
<g id="edge3" class="edge">
<title>Node1&#45;&gt;Node4</title>
<path fill="none" stroke="#63b8ff" d="M379.31,-78.16C400.73,-85.78 428.22,-95.17 453,-102.5 462.51,-105.31 472.82,-108.06 482.58,-110.53"/>
<polygon fill="#63b8ff" stroke="#63b8ff" points="380.73,-74.95 370.14,-74.87 378.37,-81.54 380.73,-74.95"/>
</g>
<!-- Node5 -->
<g id="node5" class="node">
<title>Node5</title>
<g id="a_node5"><a xlink:href="class_ogre_1_1_metal_staging_texture.html" target="_top" xlink:title=" ">
<polygon fill="white" stroke="#666666" points="591.5,-93 460.5,-93 460.5,-74 591.5,-74 591.5,-93"/>
<text text-anchor="middle" x="526" y="-81" font-family="Helvetica,sans-Serif" font-size="10.00">Ogre::MetalStagingTexture</text>
</a>
</g>
</g>
<!-- Node1&#45;&gt;Node5 -->
<g id="edge4" class="edge">
<title>Node1&#45;&gt;Node5</title>
<path fill="none" stroke="#63b8ff" d="M428.87,-73.52C439.42,-74.61 450.04,-75.72 460.19,-76.77"/>
<polygon fill="#63b8ff" stroke="#63b8ff" points="429.3,-70.05 419,-72.49 428.58,-77.01 429.3,-70.05"/>
</g>
<!-- Node6 -->
<g id="node6" class="node">
<title>Node6</title>
<g id="a_node6"><a xlink:href="class_ogre_1_1_n_u_l_l_staging_texture.html" target="_top" xlink:title=" ">
<polygon fill="white" stroke="#666666" points="593,-56 459,-56 459,-37 593,-37 593,-56"/>
<text text-anchor="middle" x="526" y="-44" font-family="Helvetica,sans-Serif" font-size="10.00">Ogre::NULLStagingTexture</text>
</a>
</g>
</g>
<!-- Node1&#45;&gt;Node6 -->
<g id="edge5" class="edge">
<title>Node1&#45;&gt;Node6</title>
<path fill="none" stroke="#63b8ff" d="M428.8,-55.96C438.87,-54.97 449.02,-53.97 458.75,-53.02"/>
<polygon fill="#63b8ff" stroke="#63b8ff" points="428.61,-52.46 419,-56.93 429.29,-59.43 428.61,-52.46"/>
</g>
<!-- Node7 -->
<g id="node7" class="node">
<title>Node7</title>
<g id="a_node7"><a xlink:href="class_ogre_1_1_vulkan_staging_texture.html" target="_top" xlink:title=" ">
<polygon fill="white" stroke="#666666" points="594.5,-19 457.5,-19 457.5,0 594.5,0 594.5,-19"/>
<text text-anchor="middle" x="526" y="-7" font-family="Helvetica,sans-Serif" font-size="10.00">Ogre::VulkanStagingTexture</text>
</a>
</g>
</g>
<!-- Node1&#45;&gt;Node7 -->
<g id="edge6" class="edge">
<title>Node1&#45;&gt;Node7</title>
<path fill="none" stroke="#63b8ff" d="M380.5,-50.86C401.76,-43.53 428.7,-34.58 453,-27.5 462.65,-24.69 473.1,-21.92 482.97,-19.43"/>
<polygon fill="#63b8ff" stroke="#63b8ff" points="379.37,-47.55 371.07,-54.13 381.67,-54.16 379.37,-47.55"/>
</g>
<!-- Node2 -->
<g id="node2" class="node">
<title>Node2</title>
<g id="a_node2"><a xlink:href="class_ogre_1_1_staging_texture.html" target="_top" xlink:title="A StagingTexture is an intermediate texture that can be read and be written from both CPU &amp; GPU.">
<polygon fill="white" stroke="#666666" points="229,-74 122,-74 122,-55 229,-55 229,-74"/>
<text text-anchor="middle" x="175.5" y="-62" font-family="Helvetica,sans-Serif" font-size="10.00">Ogre::StagingTexture</text>
</a>
</g>
</g>
<!-- Node2&#45;&gt;Node1 -->
<g id="edge1" class="edge">
<title>Node2&#45;&gt;Node1</title>
<path fill="none" stroke="#63b8ff" d="M240.49,-64.5C248.38,-64.5 256.5,-64.5 264.54,-64.5"/>
<polygon fill="#63b8ff" stroke="#63b8ff" points="240.65,-61 230.65,-64.5 240.65,-68 240.65,-61"/>
</g>
<!-- Node3 -->
<g id="node3" class="node">
<title>Node3</title>
<g id="a_node3"><a xlink:href="class_ogre_1_1_allocated_object.html" target="_top" xlink:title="Superclass for all objects that wish to use custom memory allocators when their new / delete operator...">
<polygon fill="white" stroke="#666666" points="86,-74 0,-74 0,-55 86,-55 86,-74"/>
<text text-anchor="middle" x="43" y="-62" font-family="Helvetica,sans-Serif" font-size="10.00">RenderSysAlloc</text>
</a>
</g>
</g>
<!-- Node3&#45;&gt;Node2 -->
<g id="edge2" class="edge">
<title>Node3&#45;&gt;Node2</title>
<path fill="none" stroke="#63b8ff" d="M97.79,-64.5C105.73,-64.5 113.91,-64.5 121.84,-64.5"/>
<polygon fill="#63b8ff" stroke="#63b8ff" points="97.88,-61 87.88,-64.5 97.88,-68 97.88,-61"/>
</g>
</g>
</svg>
