<?xml version="1.0" encoding="UTF-8" standalone="no"?>
<!DOCTYPE svg PUBLIC "-//W3C//DTD SVG 1.1//EN"
 "http://www.w3.org/Graphics/SVG/1.1/DTD/svg11.dtd">
<!-- Generated by graphviz version 9.0.0 (20230911.1827)
 -->
<!-- Title: Ogre::SmallVectorImpl&lt; T &gt; Pages: 1 -->
<svg width="946pt" height="235pt"
 viewBox="0.00 0.00 946.25 234.50" xmlns="http://www.w3.org/2000/svg" xmlns:xlink="http://www.w3.org/1999/xlink">
<g id="graph0" class="graph" transform="scale(1 1) rotate(0) translate(4 230.5)">
<title>Ogre::SmallVectorImpl&lt; T &gt;</title>
<!-- Node1 -->
<g id="Node000001" class="node">
<title>Node1</title>
<g id="a_Node000001"><a xlink:title="SmallVectorImpl &#45; This class consists of common code factored out of the SmallVector class to reduce ...">
<polygon fill="#999999" stroke="#666666" points="631.75,-122.88 495.75,-122.88 495.75,-103.62 631.75,-103.62 631.75,-122.88"/>
<text text-anchor="middle" x="563.75" y="-109.38" font-family="Helvetica,sans-Serif" font-size="10.00">Ogre::SmallVectorImpl&lt; T &gt;</text>
</a>
</g>
</g>
<!-- Node5 -->
<g id="Node000005" class="node">
<title>Node5</title>
<g id="a_Node000005"><a xlink:href="class_ogre_1_1_small_vector.html" target="_top" xlink:title=" ">
<polygon fill="white" stroke="#666666" points="768.5,-226.5 667.75,-226.5 667.75,-196 768.5,-196 768.5,-226.5"/>
<text text-anchor="start" x="675.75" y="-213" font-family="Helvetica,sans-Serif" font-size="10.00">Ogre::SmallVector&lt;</text>
<text text-anchor="middle" x="718.12" y="-201.75" font-family="Helvetica,sans-Serif" font-size="10.00"> T, S &gt;</text>
</a>
</g>
</g>
<!-- Node1&#45;&gt;Node5 -->
<g id="edge4_Node000001_Node000005" class="edge">
<title>Node1&#45;&gt;Node5</title>
<g id="a_edge4_Node000001_Node000005"><a xlink:title=" ">
<path fill="none" stroke="#63b8ff" d="M586.74,-130.27C607.16,-145.74 638.72,-168.74 667.75,-186.25 673.02,-189.43 678.73,-192.58 684.35,-195.51"/>
<polygon fill="#63b8ff" stroke="#63b8ff" points="588.94,-127.55 578.86,-124.26 584.69,-133.11 588.94,-127.55"/>
</a>
</g>
</g>
<!-- Node7 -->
<g id="Node000007" class="node">
<title>Node7</title>
<g id="a_Node000007"><a xlink:href="class_ogre_1_1_small_vector.html" target="_top" xlink:title=" ">
<polygon fill="white" stroke="#666666" points="768.5,-177.5 667.75,-177.5 667.75,-147 768.5,-147 768.5,-177.5"/>
<text text-anchor="start" x="675.75" y="-164" font-family="Helvetica,sans-Serif" font-size="10.00">Ogre::SmallVector&lt;</text>
<text text-anchor="middle" x="718.12" y="-152.75" font-family="Helvetica,sans-Serif" font-size="10.00"> Edge, S &gt;</text>
</a>
</g>
</g>
<!-- Node1&#45;&gt;Node7 -->
<g id="edge6_Node000001_Node000007" class="edge">
<title>Node1&#45;&gt;Node7</title>
<g id="a_edge6_Node000001_Node000007"><a xlink:title=" ">
<path fill="none" stroke="#63b8ff" d="M606.71,-126.74C625.77,-132.87 648.44,-140.16 668.26,-146.54"/>
<polygon fill="#63b8ff" stroke="#63b8ff" points="607.99,-123.48 597.39,-123.75 605.84,-130.14 607.99,-123.48"/>
</a>
</g>
</g>
<!-- Node8 -->
<g id="Node000008" class="node">
<title>Node8</title>
<g id="a_Node000008"><a xlink:href="class_ogre_1_1_small_vector.html" target="_top" xlink:title=" ">
<polygon fill="white" stroke="#666666" points="768.5,-128.5 667.75,-128.5 667.75,-98 768.5,-98 768.5,-128.5"/>
<text text-anchor="start" x="675.75" y="-115" font-family="Helvetica,sans-Serif" font-size="10.00">Ogre::SmallVector&lt;</text>
<text text-anchor="middle" x="718.12" y="-103.75" font-family="Helvetica,sans-Serif" font-size="10.00"> TriangleI, S &gt;</text>
</a>
</g>
</g>
<!-- Node1&#45;&gt;Node8 -->
<g id="edge7_Node000001_Node000008" class="edge">
<title>Node1&#45;&gt;Node8</title>
<g id="a_edge7_Node000001_Node000008"><a xlink:title=" ">
<path fill="none" stroke="#63b8ff" d="M643.29,-113.25C651.56,-113.25 659.79,-113.25 667.59,-113.25"/>
<polygon fill="#63b8ff" stroke="#63b8ff" points="643.54,-109.75 633.54,-113.25 643.54,-116.75 643.54,-109.75"/>
</a>
</g>
</g>
<!-- Node9 -->
<g id="Node000009" class="node">
<title>Node9</title>
<g id="a_Node000009"><a xlink:href="class_ogre_1_1_small_vector.html" target="_top" xlink:title="SmallVector &#45; This is a &#39;vector&#39; (really, a variable&#45;sized array), optimized for the case when the ar...">
<polygon fill="white" stroke="#666666" points="768.5,-79.5 667.75,-79.5 667.75,-49 768.5,-49 768.5,-79.5"/>
<text text-anchor="start" x="675.75" y="-66" font-family="Helvetica,sans-Serif" font-size="10.00">Ogre::SmallVector&lt;</text>
<text text-anchor="middle" x="718.12" y="-54.75" font-family="Helvetica,sans-Serif" font-size="10.00"> T, N &gt;</text>
</a>
</g>
</g>
<!-- Node1&#45;&gt;Node9 -->
<g id="edge8_Node000001_Node000009" class="edge">
<title>Node1&#45;&gt;Node9</title>
<g id="a_edge8_Node000001_Node000009"><a xlink:title=" ">
<path fill="none" stroke="#63b8ff" d="M606.71,-99.76C625.77,-93.63 648.44,-86.34 668.26,-79.96"/>
<polygon fill="#63b8ff" stroke="#63b8ff" points="605.84,-96.36 597.39,-102.75 607.99,-103.02 605.84,-96.36"/>
</a>
</g>
</g>
<!-- Node12 -->
<g id="Node000012" class="node">
<title>Node12</title>
<g id="a_Node000012"><a xlink:href="class_ogre_1_1_small_vector_3_01_t_00_010_01_4.html" target="_top" xlink:title="Specialize SmallVector at N=0.">
<polygon fill="white" stroke="#666666" points="768.5,-30.5 667.75,-30.5 667.75,0 768.5,0 768.5,-30.5"/>
<text text-anchor="start" x="675.75" y="-17" font-family="Helvetica,sans-Serif" font-size="10.00">Ogre::SmallVector&lt;</text>
<text text-anchor="middle" x="718.12" y="-5.75" font-family="Helvetica,sans-Serif" font-size="10.00"> T, 0 &gt;</text>
</a>
</g>
</g>
<!-- Node1&#45;&gt;Node12 -->
<g id="edge11_Node000001_Node000012" class="edge">
<title>Node1&#45;&gt;Node12</title>
<g id="a_edge11_Node000001_Node000012"><a xlink:title=" ">
<path fill="none" stroke="#63b8ff" d="M586.74,-96.23C607.16,-80.76 638.72,-57.76 667.75,-40.25 673.02,-37.07 678.73,-33.92 684.35,-30.99"/>
<polygon fill="#63b8ff" stroke="#63b8ff" points="584.69,-93.39 578.86,-102.24 588.94,-98.95 584.69,-93.39"/>
</a>
</g>
</g>
<!-- Node2 -->
<g id="Node000002" class="node">
<title>Node2</title>
<g id="a_Node000002"><a xlink:href="class_ogre_1_1_small_vector_template_base.html" target="_top" xlink:title=" ">
<polygon fill="white" stroke="#666666" points="459.75,-134.12 324.5,-134.12 324.5,-92.38 459.75,-92.38 459.75,-134.12"/>
<text text-anchor="start" x="332.5" y="-120.62" font-family="Helvetica,sans-Serif" font-size="10.00">Ogre::SmallVectorTemplate</text>
<text text-anchor="start" x="332.5" y="-109.38" font-family="Helvetica,sans-Serif" font-size="10.00">Base&lt; T, isPodLike&lt; T &gt;</text>
<text text-anchor="middle" x="392.12" y="-98.12" font-family="Helvetica,sans-Serif" font-size="10.00">::value &gt;</text>
</a>
</g>
</g>
<!-- Node2&#45;&gt;Node1 -->
<g id="edge1_Node000001_Node000002" class="edge">
<title>Node2&#45;&gt;Node1</title>
<g id="a_edge1_Node000001_Node000002"><a xlink:title=" ">
<path fill="none" stroke="#63b8ff" d="M471.68,-113.25C479.59,-113.25 487.58,-113.25 495.36,-113.25"/>
<polygon fill="#63b8ff" stroke="#63b8ff" points="471.68,-109.75 461.68,-113.25 471.68,-116.75 471.68,-109.75"/>
</a>
</g>
</g>
<!-- Node3 -->
<g id="Node000003" class="node">
<title>Node3</title>
<g id="a_Node000003"><a xlink:href="class_ogre_1_1_small_vector_template_common.html" target="_top" xlink:title=" ">
<polygon fill="white" stroke="#666666" points="288.5,-128.5 153.25,-128.5 153.25,-98 288.5,-98 288.5,-128.5"/>
<text text-anchor="start" x="161.25" y="-115" font-family="Helvetica,sans-Serif" font-size="10.00">Ogre::SmallVectorTemplate</text>
<text text-anchor="middle" x="220.88" y="-103.75" font-family="Helvetica,sans-Serif" font-size="10.00">Common&lt; T &gt;</text>
</a>
</g>
</g>
<!-- Node3&#45;&gt;Node2 -->
<g id="edge2_Node000002_Node000003" class="edge">
<title>Node3&#45;&gt;Node2</title>
<g id="a_edge2_Node000002_Node000003"><a xlink:title=" ">
<path fill="none" stroke="#63b8ff" d="M300.07,-113.25C308.12,-113.25 316.25,-113.25 324.16,-113.25"/>
<polygon fill="#63b8ff" stroke="#63b8ff" points="300.28,-109.75 290.28,-113.25 300.28,-116.75 300.28,-109.75"/>
</a>
</g>
</g>
<!-- Node4 -->
<g id="Node000004" class="node">
<title>Node4</title>
<g id="a_Node000004"><a xlink:href="class_ogre_1_1_small_vector_base.html" target="_top" xlink:title="SmallVectorBase &#45; This is all the non&#45;templated stuff common to all SmallVectors.">
<polygon fill="white" stroke="#666666" points="117.25,-122.88 0,-122.88 0,-103.62 117.25,-103.62 117.25,-122.88"/>
<text text-anchor="middle" x="58.62" y="-109.38" font-family="Helvetica,sans-Serif" font-size="10.00">Ogre::SmallVectorBase</text>
</a>
</g>
</g>
<!-- Node4&#45;&gt;Node3 -->
<g id="edge3_Node000003_Node000004" class="edge">
<title>Node4&#45;&gt;Node3</title>
<g id="a_edge3_Node000003_Node000004"><a xlink:title=" ">
<path fill="none" stroke="#63b8ff" d="M128.95,-113.25C136.88,-113.25 144.95,-113.25 152.84,-113.25"/>
<polygon fill="#63b8ff" stroke="#63b8ff" points="128.99,-109.75 118.99,-113.25 128.99,-116.75 128.99,-109.75"/>
</a>
</g>
</g>
<!-- Node6 -->
<g id="Node000006" class="node">
<title>Node6</title>
<g id="a_Node000006"><a xlink:href="struct_ogre_1_1_vector_set.html" target="_top" xlink:title="VectorSet is basically a helper to use a vector as a small set container.">
<polygon fill="white" stroke="#666666" points="931.12,-220.88 811.62,-220.88 811.62,-201.62 931.12,-201.62 931.12,-220.88"/>
<text text-anchor="middle" x="871.38" y="-207.38" font-family="Helvetica,sans-Serif" font-size="10.00">Ogre::VectorSet&lt; T, S &gt;</text>
</a>
</g>
</g>
<!-- Node5&#45;&gt;Node6 -->
<g id="edge5_Node000005_Node000006" class="edge">
<title>Node5&#45;&gt;Node6</title>
<g id="a_edge5_Node000005_Node000006"><a xlink:title=" ">
<path fill="none" stroke="#63b8ff" d="M780.06,-211.25C790.35,-211.25 801.01,-211.25 811.25,-211.25"/>
<polygon fill="#63b8ff" stroke="#63b8ff" points="780.16,-207.75 770.16,-211.25 780.16,-214.75 780.16,-207.75"/>
</a>
</g>
</g>
<!-- Node10 -->
<g id="Node000010" class="node">
<title>Node10</title>
<g id="a_Node000010"><a xlink:href="struct_ogre_1_1_vector_set.html" target="_top" xlink:title=" ">
<polygon fill="white" stroke="#666666" points="938.25,-94.88 804.5,-94.88 804.5,-75.62 938.25,-75.62 938.25,-94.88"/>
<text text-anchor="middle" x="871.38" y="-81.38" font-family="Helvetica,sans-Serif" font-size="10.00">Ogre::VectorSet&lt; Edge, 8 &gt;</text>
</a>
</g>
</g>
<!-- Node9&#45;&gt;Node10 -->
<g id="edge9_Node000009_Node000010" class="edge">
<title>Node9&#45;&gt;Node10</title>
<g id="a_edge9_Node000009_Node000010"><a xlink:title=" ">
<path fill="none" stroke="#63b8ff" d="M779.81,-72.68C787.85,-73.79 796.12,-74.94 804.24,-76.07"/>
<polygon fill="#63b8ff" stroke="#63b8ff" points="780.54,-69.24 770.15,-71.33 779.57,-76.18 780.54,-69.24"/>
</a>
</g>
</g>
<!-- Node11 -->
<g id="Node000011" class="node">
<title>Node11</title>
<g id="a_Node000011"><a xlink:href="struct_ogre_1_1_vector_set.html" target="_top" xlink:title=" ">
<polygon fill="white" stroke="#666666" points="935.25,-57.5 807.5,-57.5 807.5,-27 935.25,-27 935.25,-57.5"/>
<text text-anchor="start" x="815.5" y="-44" font-family="Helvetica,sans-Serif" font-size="10.00">Ogre::VectorSet&lt; Triangle</text>
<text text-anchor="middle" x="871.38" y="-32.75" font-family="Helvetica,sans-Serif" font-size="10.00">I, 7 &gt;</text>
</a>
</g>
</g>
<!-- Node9&#45;&gt;Node11 -->
<g id="edge10_Node000009_Node000011" class="edge">
<title>Node9&#45;&gt;Node11</title>
<g id="a_edge10_Node000009_Node000011"><a xlink:title=" ">
<path fill="none" stroke="#63b8ff" d="M779.86,-55.42C788.87,-54.11 798.17,-52.75 807.22,-51.44"/>
<polygon fill="#63b8ff" stroke="#63b8ff" points="779.54,-51.93 770.15,-56.83 780.55,-58.85 779.54,-51.93"/>
</a>
</g>
</g>
</g>
</svg>
