<?xml version="1.0" encoding="UTF-8" standalone="no"?>
<!DOCTYPE svg PUBLIC "-//W3C//DTD SVG 1.1//EN"
 "http://www.w3.org/Graphics/SVG/1.1/DTD/svg11.dtd">
<!-- Generated by graphviz version 9.0.0 (20230911.1827)
 -->
<!-- Title: Ogre::VaoManager Pages: 1 -->
<svg width="396pt" height="212pt"
 viewBox="0.00 0.00 395.75 212.25" xmlns="http://www.w3.org/2000/svg" xmlns:xlink="http://www.w3.org/1999/xlink">
<g id="graph0" class="graph" transform="scale(1 1) rotate(0) translate(4 208.25)">
<title>Ogre::VaoManager</title>
<!-- Node1 -->
<g id="Node000001" class="node">
<title>Node1</title>
<g id="a_Node000001"><a xlink:title=" ">
<polygon fill="#999999" stroke="#666666" points="217.25,-111.25 121,-111.25 121,-92 217.25,-92 217.25,-111.25"/>
<text text-anchor="middle" x="169.12" y="-97.75" font-family="Helvetica,sans-Serif" font-size="10.00">Ogre::VaoManager</text>
</a>
</g>
</g>
<!-- Node3 -->
<g id="Node000003" class="node">
<title>Node3</title>
<g id="a_Node000003"><a xlink:href="class_ogre_1_1_d3_d11_vao_manager.html" target="_top" xlink:title=" ">
<polygon fill="white" stroke="#666666" points="383.25,-204.25 257.75,-204.25 257.75,-185 383.25,-185 383.25,-204.25"/>
<text text-anchor="middle" x="320.5" y="-190.75" font-family="Helvetica,sans-Serif" font-size="10.00">Ogre::D3D11VaoManager</text>
</a>
</g>
</g>
<!-- Node1&#45;&gt;Node3 -->
<g id="edge2_Node000001_Node000003" class="edge">
<title>Node1&#45;&gt;Node3</title>
<g id="a_edge2_Node000001_Node000003"><a xlink:title=" ">
<path fill="none" stroke="#63b8ff" d="M185.81,-120.06C201.29,-137.13 226.48,-162.01 253.25,-176.62 259,-179.77 265.34,-182.39 271.75,-184.57"/>
<polygon fill="#63b8ff" stroke="#63b8ff" points="188.49,-117.82 179.25,-112.63 183.24,-122.45 188.49,-117.82"/>
</a>
</g>
</g>
<!-- Node4 -->
<g id="Node000004" class="node">
<title>Node4</title>
<g id="a_Node000004"><a xlink:href="class_ogre_1_1_g_l3_plus_vao_manager.html" target="_top" xlink:title=" ">
<polygon fill="white" stroke="#666666" points="387.75,-167.25 253.25,-167.25 253.25,-148 387.75,-148 387.75,-167.25"/>
<text text-anchor="middle" x="320.5" y="-153.75" font-family="Helvetica,sans-Serif" font-size="10.00">Ogre::GL3PlusVaoManager</text>
</a>
</g>
</g>
<!-- Node1&#45;&gt;Node4 -->
<g id="edge3_Node000001_Node000004" class="edge">
<title>Node1&#45;&gt;Node4</title>
<g id="a_edge3_Node000001_Node000004"><a xlink:title=" ">
<path fill="none" stroke="#63b8ff" d="M199.69,-116.57C215.35,-124.12 235.06,-133.05 253.25,-139.62 261.21,-142.5 269.85,-145.17 278.18,-147.52"/>
<polygon fill="#63b8ff" stroke="#63b8ff" points="201.44,-113.53 190.92,-112.28 198.37,-119.82 201.44,-113.53"/>
</a>
</g>
</g>
<!-- Node5 -->
<g id="Node000005" class="node">
<title>Node5</title>
<g id="a_Node000005"><a xlink:href="class_ogre_1_1_g_l_e_s2_vao_manager.html" target="_top" xlink:title=" ">
<polygon fill="white" stroke="#666666" points="384.38,-130.25 256.62,-130.25 256.62,-111 384.38,-111 384.38,-130.25"/>
<text text-anchor="middle" x="320.5" y="-116.75" font-family="Helvetica,sans-Serif" font-size="10.00">Ogre::GLES2VaoManager</text>
</a>
</g>
</g>
<!-- Node1&#45;&gt;Node5 -->
<g id="edge4_Node000001_Node000005" class="edge">
<title>Node1&#45;&gt;Node5</title>
<g id="a_edge4_Node000001_Node000005"><a xlink:title=" ">
<path fill="none" stroke="#63b8ff" d="M228.61,-109.06C237.65,-110.21 247.02,-111.41 256.15,-112.57"/>
<polygon fill="#63b8ff" stroke="#63b8ff" points="229.25,-105.62 218.89,-107.83 228.37,-112.56 229.25,-105.62"/>
</a>
</g>
</g>
<!-- Node6 -->
<g id="Node000006" class="node">
<title>Node6</title>
<g id="a_Node000006"><a xlink:href="class_ogre_1_1_metal_vao_manager.html" target="_top" xlink:title=" ">
<polygon fill="white" stroke="#666666" points="380.62,-93.25 260.38,-93.25 260.38,-74 380.62,-74 380.62,-93.25"/>
<text text-anchor="middle" x="320.5" y="-79.75" font-family="Helvetica,sans-Serif" font-size="10.00">Ogre::MetalVaoManager</text>
</a>
</g>
</g>
<!-- Node1&#45;&gt;Node6 -->
<g id="edge5_Node000001_Node000006" class="edge">
<title>Node1&#45;&gt;Node6</title>
<g id="a_edge5_Node000001_Node000006"><a xlink:title=" ">
<path fill="none" stroke="#63b8ff" d="M228.73,-94.56C238.98,-93.33 249.65,-92.04 259.93,-90.8"/>
<polygon fill="#63b8ff" stroke="#63b8ff" points="228.4,-91.08 218.89,-95.75 229.24,-98.03 228.4,-91.08"/>
</a>
</g>
</g>
<!-- Node7 -->
<g id="Node000007" class="node">
<title>Node7</title>
<g id="a_Node000007"><a xlink:href="class_ogre_1_1_n_u_l_l_vao_manager.html" target="_top" xlink:title=" ">
<polygon fill="white" stroke="#666666" points="382.12,-56.25 258.88,-56.25 258.88,-37 382.12,-37 382.12,-56.25"/>
<text text-anchor="middle" x="320.5" y="-42.75" font-family="Helvetica,sans-Serif" font-size="10.00">Ogre::NULLVaoManager</text>
</a>
</g>
</g>
<!-- Node1&#45;&gt;Node7 -->
<g id="edge6_Node000001_Node000007" class="edge">
<title>Node1&#45;&gt;Node7</title>
<g id="a_edge6_Node000001_Node000007"><a xlink:title=" ">
<path fill="none" stroke="#63b8ff" d="M200.36,-86.82C215.93,-79.55 235.36,-71 253.25,-64.62 261.33,-61.75 270.11,-59.06 278.55,-56.69"/>
<polygon fill="#63b8ff" stroke="#63b8ff" points="199.17,-83.51 191.63,-90.96 202.17,-89.84 199.17,-83.51"/>
</a>
</g>
</g>
<!-- Node8 -->
<g id="Node000008" class="node">
<title>Node8</title>
<g id="a_Node000008"><a xlink:href="class_ogre_1_1_vulkan_vao_manager.html" target="_top" xlink:title=" ">
<polygon fill="white" stroke="#666666" points="383.62,-19.25 257.38,-19.25 257.38,0 383.62,0 383.62,-19.25"/>
<text text-anchor="middle" x="320.5" y="-5.75" font-family="Helvetica,sans-Serif" font-size="10.00">Ogre::VulkanVaoManager</text>
</a>
</g>
</g>
<!-- Node1&#45;&gt;Node8 -->
<g id="edge7_Node000001_Node000008" class="edge">
<title>Node1&#45;&gt;Node8</title>
<g id="a_edge7_Node000001_Node000008"><a xlink:title=" ">
<path fill="none" stroke="#63b8ff" d="M186.11,-83.17C201.65,-66.35 226.73,-41.99 253.25,-27.62 259.01,-24.5 265.36,-21.89 271.77,-19.72"/>
<polygon fill="#63b8ff" stroke="#63b8ff" points="183.6,-80.73 179.52,-90.51 188.8,-85.41 183.6,-80.73"/>
</a>
</g>
</g>
<!-- Node2 -->
<g id="Node000002" class="node">
<title>Node2</title>
<g id="a_Node000002"><a xlink:href="class_ogre_1_1_allocated_object.html" target="_top" xlink:title="Superclass for all objects that wish to use custom memory allocators when their new / delete operator...">
<polygon fill="white" stroke="#666666" points="85,-111.25 0,-111.25 0,-92 85,-92 85,-111.25"/>
<text text-anchor="middle" x="42.5" y="-97.75" font-family="Helvetica,sans-Serif" font-size="10.00">RenderSysAlloc</text>
</a>
</g>
</g>
<!-- Node2&#45;&gt;Node1 -->
<g id="edge1_Node000001_Node000002" class="edge">
<title>Node2&#45;&gt;Node1</title>
<g id="a_edge1_Node000001_Node000002"><a xlink:title=" ">
<path fill="none" stroke="#63b8ff" d="M96.75,-101.62C104.67,-101.62 112.79,-101.62 120.59,-101.62"/>
<polygon fill="#63b8ff" stroke="#63b8ff" points="96.86,-98.13 86.86,-101.63 96.86,-105.13 96.86,-98.13"/>
</a>
</g>
</g>
</g>
</svg>
