<?xml version="1.0" encoding="UTF-8" standalone="no"?>
<!DOCTYPE svg PUBLIC "-//W3C//DTD SVG 1.1//EN"
 "http://www.w3.org/Graphics/SVG/1.1/DTD/svg11.dtd">
<!-- Generated by graphviz version 9.0.0 (20230911.1827)
 -->
<!-- Title: Ogre::D3D11DeviceResource Pages: 1 -->
<svg width="750pt" height="538pt"
 viewBox="0.00 0.00 750.00 538.25" xmlns="http://www.w3.org/2000/svg" xmlns:xlink="http://www.w3.org/1999/xlink">
<g id="graph0" class="graph" transform="scale(1 1) rotate(0) translate(4 534.25)">
<title>Ogre::D3D11DeviceResource</title>
<!-- Node1 -->
<g id="Node000001" class="node">
<title>Node1</title>
<g id="a_Node000001"><a xlink:title="Represents a Direct3D rendering resource.">
<polygon fill="#999999" stroke="#666666" points="142,-259.25 0,-259.25 0,-240 142,-240 142,-259.25"/>
<text text-anchor="middle" x="71" y="-245.75" font-family="Helvetica,sans-Serif" font-size="10.00">Ogre::D3D11DeviceResource</text>
</a>
</g>
</g>
<!-- Node2 -->
<g id="Node000002" class="node">
<title>Node2</title>
<g id="a_Node000002"><a xlink:href="class_ogre_1_1_d3_d11_buffer_interface_base.html" target="_top" xlink:title="For D3D11, most (if not all) buffers, can be treated with the same code.">
<polygon fill="white" stroke="#666666" points="340.62,-512.25 183.62,-512.25 183.62,-493 340.62,-493 340.62,-512.25"/>
<text text-anchor="middle" x="262.12" y="-498.75" font-family="Helvetica,sans-Serif" font-size="10.00">Ogre::D3D11BufferInterfaceBase</text>
</a>
</g>
</g>
<!-- Node1&#45;&gt;Node2 -->
<g id="edge1_Node000001_Node000002" class="edge">
<title>Node1&#45;&gt;Node2</title>
<g id="a_edge1_Node000001_Node000002"><a xlink:title=" ">
<path fill="none" stroke="#8b1a1a" d="M75.09,-270.87C83.04,-317.38 108.66,-428.54 178,-484.62 181.9,-487.78 186.24,-490.42 190.82,-492.62"/>
<polygon fill="#8b1a1a" stroke="#8b1a1a" points="78.56,-270.39 73.54,-261.06 71.65,-271.49 78.56,-270.39"/>
</a>
</g>
</g>
<!-- Node5 -->
<g id="Node000005" class="node">
<title>Node5</title>
<g id="a_Node000005"><a xlink:href="class_ogre_1_1_d3_d11_dynamic_buffer.html" target="_top" xlink:title="D3D11 doesn&#39;t support mapping the same buffer twice even if the regions don&#39;t overlap.">
<polygon fill="white" stroke="#666666" points="329,-475.25 195.25,-475.25 195.25,-456 329,-456 329,-475.25"/>
<text text-anchor="middle" x="262.12" y="-461.75" font-family="Helvetica,sans-Serif" font-size="10.00">Ogre::D3D11DynamicBuffer</text>
</a>
</g>
</g>
<!-- Node1&#45;&gt;Node5 -->
<g id="edge4_Node000001_Node000005" class="edge">
<title>Node1&#45;&gt;Node5</title>
<g id="a_edge4_Node000001_Node000005"><a xlink:title=" ">
<path fill="none" stroke="#8b1a1a" d="M76.87,-270.29C87.62,-311.07 117.35,-401.87 178,-447.62 183.07,-451.45 188.78,-454.5 194.78,-456.92"/>
<polygon fill="#8b1a1a" stroke="#8b1a1a" points="80.33,-269.67 74.5,-260.82 73.54,-271.37 80.33,-269.67"/>
</a>
</g>
</g>
<!-- Node6 -->
<g id="Node000006" class="node">
<title>Node6</title>
<g id="a_Node000006"><a xlink:href="class_ogre_1_1_d3_d11_h_l_s_l_program.html" target="_top" xlink:title="Specialization of HighLevelGpuProgram to provide support for D3D11 High&#45;Level Shader Language (HLSL).">
<polygon fill="white" stroke="#666666" points="329,-438.25 195.25,-438.25 195.25,-419 329,-419 329,-438.25"/>
<text text-anchor="middle" x="262.12" y="-424.75" font-family="Helvetica,sans-Serif" font-size="10.00">Ogre::D3D11HLSLProgram</text>
</a>
</g>
</g>
<!-- Node1&#45;&gt;Node6 -->
<g id="edge5_Node000001_Node000006" class="edge">
<title>Node1&#45;&gt;Node6</title>
<g id="a_edge5_Node000001_Node000006"><a xlink:title=" ">
<path fill="none" stroke="#8b1a1a" d="M79.59,-270.03C93.52,-304.51 126.52,-374.01 178,-409.62 183.23,-413.25 189.06,-416.19 195.12,-418.57"/>
<polygon fill="#8b1a1a" stroke="#8b1a1a" points="82.9,-268.87 76.01,-260.82 76.37,-271.41 82.9,-268.87"/>
</a>
</g>
</g>
<!-- Node7 -->
<g id="Node000007" class="node">
<title>Node7</title>
<g id="a_Node000007"><a xlink:href="class_ogre_1_1_d3_d11_read_only_buffer_packed.html" target="_top" xlink:title=" ">
<polygon fill="white" stroke="#666666" points="331.25,-400.88 193,-400.88 193,-370.38 331.25,-370.38 331.25,-400.88"/>
<text text-anchor="start" x="201" y="-387.38" font-family="Helvetica,sans-Serif" font-size="10.00">Ogre::D3D11ReadOnlyBuffer</text>
<text text-anchor="middle" x="262.12" y="-376.12" font-family="Helvetica,sans-Serif" font-size="10.00">Packed</text>
</a>
</g>
</g>
<!-- Node1&#45;&gt;Node7 -->
<g id="edge6_Node000001_Node000007" class="edge">
<title>Node1&#45;&gt;Node7</title>
<g id="a_edge6_Node000001_Node000007"><a xlink:title=" ">
<path fill="none" stroke="#8b1a1a" d="M85.13,-268.89C103.18,-293.92 138.01,-337.27 178,-361.62 183.26,-364.83 188.97,-367.62 194.84,-370.05"/>
<polygon fill="#8b1a1a" stroke="#8b1a1a" points="88.15,-267.09 79.53,-260.93 82.42,-271.12 88.15,-267.09"/>
</a>
</g>
</g>
<!-- Node8 -->
<g id="Node000008" class="node">
<title>Node8</title>
<g id="a_Node000008"><a xlink:href="class_ogre_1_1_d3_d11_render_pass_descriptor.html" target="_top" xlink:title="D3D11 will share groups of ID3D11RenderTargetView all D3D11RenderPassDescriptor that share the same R...">
<polygon fill="white" stroke="#666666" points="346.25,-352.25 178,-352.25 178,-333 346.25,-333 346.25,-352.25"/>
<text text-anchor="middle" x="262.12" y="-338.75" font-family="Helvetica,sans-Serif" font-size="10.00">Ogre::D3D11RenderPassDescriptor</text>
</a>
</g>
</g>
<!-- Node1&#45;&gt;Node8 -->
<g id="edge7_Node000001_Node000008" class="edge">
<title>Node1&#45;&gt;Node8</title>
<g id="a_edge7_Node000001_Node000008"><a xlink:title=" ">
<path fill="none" stroke="#8b1a1a" d="M91.4,-267.04C111.6,-284.25 144.87,-310.05 178,-324.62 185.16,-327.78 192.92,-330.4 200.73,-332.57"/>
<polygon fill="#8b1a1a" stroke="#8b1a1a" points="93.82,-264.51 83.98,-260.59 89.22,-269.79 93.82,-264.51"/>
</a>
</g>
</g>
<!-- Node9 -->
<g id="Node000009" class="node">
<title>Node9</title>
<g id="a_Node000009"><a xlink:href="class_ogre_1_1_d3_d11_render_texture.html" target="_top" xlink:title="RenderTexture implementation for D3D11.">
<polygon fill="white" stroke="#666666" points="329,-315.25 195.25,-315.25 195.25,-296 329,-296 329,-315.25"/>
<text text-anchor="middle" x="262.12" y="-301.75" font-family="Helvetica,sans-Serif" font-size="10.00">Ogre::D3D11RenderTexture</text>
</a>
</g>
</g>
<!-- Node1&#45;&gt;Node9 -->
<g id="edge8_Node000001_Node000009" class="edge">
<title>Node1&#45;&gt;Node9</title>
<g id="a_edge8_Node000001_Node000009"><a xlink:title=" ">
<path fill="none" stroke="#8b1a1a" d="M107.65,-263.72C128.04,-271.45 154.21,-280.82 178,-287.62 188.08,-290.51 198.96,-293.18 209.43,-295.53"/>
<polygon fill="#8b1a1a" stroke="#8b1a1a" points="108.97,-260.48 98.38,-260.17 106.46,-267.02 108.97,-260.48"/>
</a>
</g>
</g>
<!-- Node10 -->
<g id="Node000010" class="node">
<title>Node10</title>
<g id="a_Node000010"><a xlink:href="class_ogre_1_1_d3_d11_render_window_base.html" target="_top" xlink:title=" ">
<polygon fill="white" stroke="#666666" points="341.38,-278.25 182.88,-278.25 182.88,-259 341.38,-259 341.38,-278.25"/>
<text text-anchor="middle" x="262.12" y="-264.75" font-family="Helvetica,sans-Serif" font-size="10.00">Ogre::D3D11RenderWindowBase</text>
</a>
</g>
</g>
<!-- Node1&#45;&gt;Node10 -->
<g id="edge9_Node000001_Node000010" class="edge">
<title>Node1&#45;&gt;Node10</title>
<g id="a_edge9_Node000001_Node000010"><a xlink:title=" ">
<path fill="none" stroke="#8b1a1a" d="M153.63,-257.83C163.27,-258.79 173.1,-259.78 182.69,-260.75"/>
<polygon fill="#8b1a1a" stroke="#8b1a1a" points="154.23,-254.37 143.93,-256.85 153.53,-261.33 154.23,-254.37"/>
</a>
</g>
</g>
<!-- Node12 -->
<g id="Node000012" class="node">
<title>Node12</title>
<g id="a_Node000012"><a xlink:href="class_ogre_1_1_d3_d11_staging_buffer.html" target="_top" xlink:title="NOTE FOR D3D12 PORTING: The GL3Plus implementation should be used as reference, since it is much lowe...">
<polygon fill="white" stroke="#666666" points="326.75,-241.25 197.5,-241.25 197.5,-222 326.75,-222 326.75,-241.25"/>
<text text-anchor="middle" x="262.12" y="-227.75" font-family="Helvetica,sans-Serif" font-size="10.00">Ogre::D3D11StagingBuffer</text>
</a>
</g>
</g>
<!-- Node1&#45;&gt;Node12 -->
<g id="edge11_Node000001_Node000012" class="edge">
<title>Node1&#45;&gt;Node12</title>
<g id="a_edge11_Node000001_Node000012"><a xlink:title=" ">
<path fill="none" stroke="#8b1a1a" d="M153.5,-241.87C168.12,-240.48 183.16,-239.05 197.2,-237.71"/>
<polygon fill="#8b1a1a" stroke="#8b1a1a" points="153.55,-238.35 143.93,-242.78 154.22,-245.32 153.55,-238.35"/>
</a>
</g>
</g>
<!-- Node13 -->
<g id="Node000013" class="node">
<title>Node13</title>
<g id="a_Node000013"><a xlink:href="class_ogre_1_1_d3_d11_tex_buffer_packed.html" target="_top" xlink:title=" ">
<polygon fill="white" stroke="#666666" points="334.62,-204.25 189.62,-204.25 189.62,-185 334.62,-185 334.62,-204.25"/>
<text text-anchor="middle" x="262.12" y="-190.75" font-family="Helvetica,sans-Serif" font-size="10.00">Ogre::D3D11TexBufferPacked</text>
</a>
</g>
</g>
<!-- Node1&#45;&gt;Node13 -->
<g id="edge12_Node000001_Node000013" class="edge">
<title>Node1&#45;&gt;Node13</title>
<g id="a_edge12_Node000001_Node000013"><a xlink:title=" ">
<path fill="none" stroke="#8b1a1a" d="M108.5,-235.64C128.78,-228.19 154.57,-219.22 178,-212.62 188.23,-209.74 199.29,-207.06 209.89,-204.69"/>
<polygon fill="#8b1a1a" stroke="#8b1a1a" points="107.42,-232.31 99.27,-239.07 109.86,-238.87 107.42,-232.31"/>
</a>
</g>
</g>
<!-- Node14 -->
<g id="Node000014" class="node">
<title>Node14</title>
<g id="a_Node000014"><a xlink:href="class_ogre_1_1_d3_d11_texture.html" target="_top" xlink:title=" ">
<polygon fill="white" stroke="#666666" points="313.62,-167.25 210.62,-167.25 210.62,-148 313.62,-148 313.62,-167.25"/>
<text text-anchor="middle" x="262.12" y="-153.75" font-family="Helvetica,sans-Serif" font-size="10.00">Ogre::D3D11Texture</text>
</a>
</g>
</g>
<!-- Node1&#45;&gt;Node14 -->
<g id="edge13_Node000001_Node000014" class="edge">
<title>Node1&#45;&gt;Node14</title>
<g id="a_edge13_Node000001_Node000014"><a xlink:title=" ">
<path fill="none" stroke="#8b1a1a" d="M91.76,-232.18C112.03,-215.21 145.15,-189.96 178,-175.62 188.15,-171.2 199.49,-167.82 210.45,-165.25"/>
<polygon fill="#8b1a1a" stroke="#8b1a1a" points="89.63,-229.39 84.31,-238.55 94.18,-234.71 89.63,-229.39"/>
</a>
</g>
</g>
<!-- Node17 -->
<g id="Node000017" class="node">
<title>Node17</title>
<g id="a_Node000017"><a xlink:href="class_ogre_1_1_d3_d11_texture_gpu.html" target="_top" xlink:title=" ">
<polygon fill="white" stroke="#666666" points="322.62,-130.25 201.62,-130.25 201.62,-111 322.62,-111 322.62,-130.25"/>
<text text-anchor="middle" x="262.12" y="-116.75" font-family="Helvetica,sans-Serif" font-size="10.00">Ogre::D3D11TextureGpu</text>
</a>
</g>
</g>
<!-- Node1&#45;&gt;Node17 -->
<g id="edge16_Node000001_Node000017" class="edge">
<title>Node1&#45;&gt;Node17</title>
<g id="a_edge16_Node000001_Node000017"><a xlink:title=" ">
<path fill="none" stroke="#8b1a1a" d="M84.67,-230.5C102.42,-205.31 137.14,-161.53 178,-138.62 185.21,-134.58 193.25,-131.45 201.4,-129.02"/>
<polygon fill="#8b1a1a" stroke="#8b1a1a" points="81.95,-228.28 79.18,-238.51 87.72,-232.24 81.95,-228.28"/>
</a>
</g>
</g>
<!-- Node20 -->
<g id="Node000020" class="node">
<title>Node20</title>
<g id="a_Node000020"><a xlink:href="class_ogre_1_1_d3_d11_uav_buffer_packed.html" target="_top" xlink:title=" ">
<polygon fill="white" stroke="#666666" points="335.75,-93.25 188.5,-93.25 188.5,-74 335.75,-74 335.75,-93.25"/>
<text text-anchor="middle" x="262.12" y="-79.75" font-family="Helvetica,sans-Serif" font-size="10.00">Ogre::D3D11UavBufferPacked</text>
</a>
</g>
</g>
<!-- Node1&#45;&gt;Node20 -->
<g id="edge19_Node000001_Node000020" class="edge">
<title>Node1&#45;&gt;Node20</title>
<g id="a_edge19_Node000001_Node000020"><a xlink:title=" ">
<path fill="none" stroke="#8b1a1a" d="M80.6,-229.33C95.45,-196.89 129.07,-133.77 178,-101.62 182.81,-98.46 188.09,-95.85 193.57,-93.68"/>
<polygon fill="#8b1a1a" stroke="#8b1a1a" points="77.44,-227.83 76.6,-238.39 83.84,-230.66 77.44,-227.83"/>
</a>
</g>
</g>
<!-- Node21 -->
<g id="Node000021" class="node">
<title>Node21</title>
<g id="a_Node000021"><a xlink:href="class_ogre_1_1_d3_d11_window.html" target="_top" xlink:title=" ">
<polygon fill="white" stroke="#666666" points="314.75,-56.25 209.5,-56.25 209.5,-37 314.75,-37 314.75,-56.25"/>
<text text-anchor="middle" x="262.12" y="-42.75" font-family="Helvetica,sans-Serif" font-size="10.00">Ogre::D3D11Window</text>
</a>
</g>
</g>
<!-- Node1&#45;&gt;Node21 -->
<g id="edge20_Node000001_Node000021" class="edge">
<title>Node1&#45;&gt;Node21</title>
<g id="a_edge20_Node000001_Node000021"><a xlink:title=" ">
<path fill="none" stroke="#8b1a1a" d="M77.77,-228.71C89.64,-189.85 120.59,-106.65 178,-64.62 187.06,-58 198.06,-53.72 209.06,-50.98"/>
<polygon fill="#8b1a1a" stroke="#8b1a1a" points="74.44,-227.63 75.01,-238.21 81.16,-229.59 74.44,-227.63"/>
</a>
</g>
</g>
<!-- Node23 -->
<g id="Node000023" class="node">
<title>Node23</title>
<g id="a_Node000023"><a xlink:href="class_ogre_1_1v1_1_1_d3_d11_hardware_buffer.html" target="_top" xlink:title="Base implementation of a D3D11 buffer, dealing with all the common aspects.">
<polygon fill="white" stroke="#666666" points="338.75,-19.25 185.5,-19.25 185.5,0 338.75,0 338.75,-19.25"/>
<text text-anchor="middle" x="262.12" y="-5.75" font-family="Helvetica,sans-Serif" font-size="10.00">Ogre::v1::D3D11HardwareBuffer</text>
</a>
</g>
</g>
<!-- Node1&#45;&gt;Node23 -->
<g id="edge22_Node000001_Node000023" class="edge">
<title>Node1&#45;&gt;Node23</title>
<g id="a_edge22_Node000001_Node000023"><a xlink:title=" ">
<path fill="none" stroke="#8b1a1a" d="M75.65,-228.63C84.56,-184.12 111.7,-80.07 178,-27.62 181.94,-24.51 186.3,-21.91 190.89,-19.73"/>
<polygon fill="#8b1a1a" stroke="#8b1a1a" points="72.25,-227.78 73.85,-238.25 79.13,-229.07 72.25,-227.78"/>
</a>
</g>
</g>
<!-- Node3 -->
<g id="Node000003" class="node">
<title>Node3</title>
<g id="a_Node000003"><a xlink:href="class_ogre_1_1_d3_d11_buffer_interface.html" target="_top" xlink:title="For D3D11, most (if not all) buffers, can be treated with the same code.">
<polygon fill="white" stroke="#666666" points="533.62,-530.25 399.12,-530.25 399.12,-511 533.62,-511 533.62,-530.25"/>
<text text-anchor="middle" x="466.38" y="-516.75" font-family="Helvetica,sans-Serif" font-size="10.00">Ogre::D3D11BufferInterface</text>
</a>
</g>
</g>
<!-- Node2&#45;&gt;Node3 -->
<g id="edge2_Node000002_Node000003" class="edge">
<title>Node2&#45;&gt;Node3</title>
<g id="a_edge2_Node000002_Node000003"><a xlink:title=" ">
<path fill="none" stroke="#63b8ff" d="M352.29,-510.56C367.88,-511.95 383.85,-513.37 398.7,-514.69"/>
<polygon fill="#63b8ff" stroke="#63b8ff" points="352.81,-507.09 342.54,-509.69 352.19,-514.07 352.81,-507.09"/>
</a>
</g>
</g>
<!-- Node4 -->
<g id="Node000004" class="node">
<title>Node4</title>
<g id="a_Node000004"><a xlink:href="class_ogre_1_1_d3_d11_compat_buffer_interface.html" target="_top" xlink:title="In D3D11, const buffers can&#39;t be bound by offset.">
<polygon fill="white" stroke="#666666" points="550.5,-493.25 382.25,-493.25 382.25,-474 550.5,-474 550.5,-493.25"/>
<text text-anchor="middle" x="466.38" y="-479.75" font-family="Helvetica,sans-Serif" font-size="10.00">Ogre::D3D11CompatBufferInterface</text>
</a>
</g>
</g>
<!-- Node2&#45;&gt;Node4 -->
<g id="edge3_Node000002_Node000004" class="edge">
<title>Node2&#45;&gt;Node4</title>
<g id="a_edge3_Node000002_Node000004"><a xlink:title=" ">
<path fill="none" stroke="#63b8ff" d="M352.41,-494.24C362.18,-493.32 372.1,-492.39 381.8,-491.48"/>
<polygon fill="#63b8ff" stroke="#63b8ff" points="352.17,-490.74 342.54,-495.16 352.82,-497.71 352.17,-490.74"/>
</a>
</g>
</g>
<!-- Node11 -->
<g id="Node000011" class="node">
<title>Node11</title>
<g id="a_Node000011"><a xlink:href="class_ogre_1_1_d3_d11_render_window_swap_chain_based.html" target="_top" xlink:title=" ">
<polygon fill="white" stroke="#666666" points="546.75,-283.88 386,-283.88 386,-253.38 546.75,-253.38 546.75,-283.88"/>
<text text-anchor="start" x="394" y="-270.38" font-family="Helvetica,sans-Serif" font-size="10.00">Ogre::D3D11RenderWindowSwap</text>
<text text-anchor="middle" x="466.38" y="-259.12" font-family="Helvetica,sans-Serif" font-size="10.00">ChainBased</text>
</a>
</g>
</g>
<!-- Node10&#45;&gt;Node11 -->
<g id="edge10_Node000010_Node000011" class="edge">
<title>Node10&#45;&gt;Node11</title>
<g id="a_edge10_Node000010_Node000011"><a xlink:title=" ">
<path fill="none" stroke="#63b8ff" d="M352.88,-268.62C363.78,-268.62 374.86,-268.62 385.6,-268.62"/>
<polygon fill="#63b8ff" stroke="#63b8ff" points="353.12,-265.13 343.12,-268.63 353.12,-272.13 353.12,-265.13"/>
</a>
</g>
</g>
<!-- Node15 -->
<g id="Node000015" class="node">
<title>Node15</title>
<g id="a_Node000015"><a xlink:href="class_ogre_1_1_d3_d11_depth_texture.html" target="_top" xlink:title=" ">
<polygon fill="white" stroke="#666666" points="530.62,-204.25 402.12,-204.25 402.12,-185 530.62,-185 530.62,-204.25"/>
<text text-anchor="middle" x="466.38" y="-190.75" font-family="Helvetica,sans-Serif" font-size="10.00">Ogre::D3D11DepthTexture</text>
</a>
</g>
</g>
<!-- Node14&#45;&gt;Node15 -->
<g id="edge14_Node000014_Node000015" class="edge">
<title>Node14&#45;&gt;Node15</title>
<g id="a_edge14_Node000014_Node000015"><a xlink:title=" ">
<path fill="none" stroke="#63b8ff" d="M324.88,-168.92C352.12,-173.91 383.89,-179.72 410.32,-184.55"/>
<polygon fill="#63b8ff" stroke="#63b8ff" points="325.86,-165.54 315.39,-167.19 324.6,-172.43 325.86,-165.54"/>
</a>
</g>
</g>
<!-- Node16 -->
<g id="Node000016" class="node">
<title>Node16</title>
<g id="a_Node000016"><a xlink:href="class_ogre_1_1_d3_d11_null_texture.html" target="_top" xlink:title=" ">
<polygon fill="white" stroke="#666666" points="526.5,-167.25 406.25,-167.25 406.25,-148 526.5,-148 526.5,-167.25"/>
<text text-anchor="middle" x="466.38" y="-153.75" font-family="Helvetica,sans-Serif" font-size="10.00">Ogre::D3D11NullTexture</text>
</a>
</g>
</g>
<!-- Node14&#45;&gt;Node16 -->
<g id="edge15_Node000014_Node000016" class="edge">
<title>Node14&#45;&gt;Node16</title>
<g id="a_edge15_Node000014_Node000016"><a xlink:title=" ">
<path fill="none" stroke="#63b8ff" d="M325.38,-157.62C351.03,-157.62 380.61,-157.62 405.96,-157.62"/>
<polygon fill="#63b8ff" stroke="#63b8ff" points="325.41,-154.13 315.41,-157.63 325.41,-161.13 325.41,-154.13"/>
</a>
</g>
</g>
<!-- Node18 -->
<g id="Node000018" class="node">
<title>Node18</title>
<g id="a_Node000018"><a xlink:href="class_ogre_1_1_d3_d11_texture_gpu_render_target.html" target="_top" xlink:title=" ">
<polygon fill="white" stroke="#666666" points="542.25,-129.88 390.5,-129.88 390.5,-99.38 542.25,-99.38 542.25,-129.88"/>
<text text-anchor="start" x="398.5" y="-116.38" font-family="Helvetica,sans-Serif" font-size="10.00">Ogre::D3D11TextureGpuRender</text>
<text text-anchor="middle" x="466.38" y="-105.12" font-family="Helvetica,sans-Serif" font-size="10.00">Target</text>
</a>
</g>
</g>
<!-- Node17&#45;&gt;Node18 -->
<g id="edge17_Node000017_Node000018" class="edge">
<title>Node17&#45;&gt;Node18</title>
<g id="a_edge17_Node000017_Node000018"><a xlink:title=" ">
<path fill="none" stroke="#63b8ff" d="M334.35,-118.51C352.44,-117.98 371.94,-117.4 390.22,-116.85"/>
<polygon fill="#63b8ff" stroke="#63b8ff" points="334.39,-115.01 324.5,-118.8 334.6,-122.01 334.39,-115.01"/>
</a>
</g>
</g>
<!-- Node19 -->
<g id="Node000019" class="node">
<title>Node19</title>
<g id="a_Node000019"><a xlink:href="class_ogre_1_1_d3_d11_texture_gpu_window.html" target="_top" xlink:title=" ">
<polygon fill="white" stroke="#666666" points="742,-124.25 586.5,-124.25 586.5,-105 742,-105 742,-124.25"/>
<text text-anchor="middle" x="664.25" y="-110.75" font-family="Helvetica,sans-Serif" font-size="10.00">Ogre::D3D11TextureGpuWindow</text>
</a>
</g>
</g>
<!-- Node18&#45;&gt;Node19 -->
<g id="edge18_Node000018_Node000019" class="edge">
<title>Node18&#45;&gt;Node19</title>
<g id="a_edge18_Node000018_Node000019"><a xlink:title=" ">
<path fill="none" stroke="#63b8ff" d="M554.01,-114.62C564.67,-114.62 575.51,-114.62 586.01,-114.62"/>
<polygon fill="#63b8ff" stroke="#63b8ff" points="554.06,-111.13 544.06,-114.63 554.06,-118.13 554.06,-111.13"/>
</a>
</g>
</g>
<!-- Node22 -->
<g id="Node000022" class="node">
<title>Node22</title>
<g id="a_Node000022"><a xlink:href="class_ogre_1_1_d3_d11_window_swap_chain_based.html" target="_top" xlink:title=" ">
<polygon fill="white" stroke="#666666" points="543.75,-61.88 389,-61.88 389,-31.38 543.75,-31.38 543.75,-61.88"/>
<text text-anchor="start" x="397" y="-48.38" font-family="Helvetica,sans-Serif" font-size="10.00">Ogre::D3D11WindowSwapChain</text>
<text text-anchor="middle" x="466.38" y="-37.12" font-family="Helvetica,sans-Serif" font-size="10.00">Based</text>
</a>
</g>
</g>
<!-- Node21&#45;&gt;Node22 -->
<g id="edge21_Node000021_Node000022" class="edge">
<title>Node21&#45;&gt;Node22</title>
<g id="a_edge21_Node000021_Node000022"><a xlink:title=" ">
<path fill="none" stroke="#63b8ff" d="M326.53,-46.62C346.23,-46.62 368.16,-46.62 388.67,-46.62"/>
<polygon fill="#63b8ff" stroke="#63b8ff" points="326.72,-43.13 316.72,-46.63 326.72,-50.13 326.72,-43.13"/>
</a>
</g>
</g>
</g>
</svg>
