<?xml version="1.0" encoding="UTF-8" standalone="no"?>
<!DOCTYPE svg PUBLIC "-//W3C//DTD SVG 1.1//EN"
 "http://www.w3.org/Graphics/SVG/1.1/DTD/svg11.dtd">
<!-- Generated by graphviz version 7.0.5 (20221223.1930)
 -->
<!-- Title: Ogre::Resource Pages: 1 -->
<svg width="748pt" height="575pt"
 viewBox="0.00 0.00 748.00 575.00" xmlns="http://www.w3.org/2000/svg" xmlns:xlink="http://www.w3.org/1999/xlink">
<g id="graph0" class="graph" transform="scale(1 1) rotate(0) translate(4 571)">
<title>Ogre::Resource</title>
<!-- Node1 -->
<g id="node1" class="node">
<title>Node1</title>
<g id="a_node1"><a xlink:title="Abstract class representing a loadable resource (e.g.">
<polygon fill="#999999" stroke="#666666" points="225,-222 142,-222 142,-203 225,-203 225,-222"/>
<text text-anchor="middle" x="183.5" y="-210" font-family="Helvetica,sans-Serif" font-size="10.00">Ogre::Resource</text>
</a>
</g>
</g>
<!-- Node4 -->
<g id="node4" class="node">
<title>Node4</title>
<g id="a_node4"><a xlink:href="class_ogre_1_1_bsp_level.html" target="_top" xlink:title="Holds all the data associated with a Binary Space Parition (BSP) based indoor level.">
<polygon fill="white" stroke="#666666" points="351,-352 268,-352 268,-333 351,-333 351,-352"/>
<text text-anchor="middle" x="309.5" y="-340" font-family="Helvetica,sans-Serif" font-size="10.00">Ogre::BspLevel</text>
</a>
</g>
</g>
<!-- Node1&#45;&gt;Node4 -->
<g id="edge3" class="edge">
<title>Node1&#45;&gt;Node4</title>
<path fill="none" stroke="#63b8ff" d="M193.57,-232.76C205.64,-257.6 229.21,-299.48 261,-324.5 265.02,-327.66 269.66,-330.32 274.42,-332.53"/>
<polygon fill="#63b8ff" stroke="#63b8ff" points="196.76,-231.32 189.35,-223.75 190.42,-234.29 196.76,-231.32"/>
</g>
<!-- Node5 -->
<g id="node5" class="node">
<title>Node5</title>
<g id="a_node5"><a xlink:href="class_ogre_1_1_font.html" target="_top" xlink:title="Class representing a font in the system.">
<polygon fill="white" stroke="#666666" points="340.5,-315 278.5,-315 278.5,-296 340.5,-296 340.5,-315"/>
<text text-anchor="middle" x="309.5" y="-303" font-family="Helvetica,sans-Serif" font-size="10.00">Ogre::Font</text>
</a>
</g>
</g>
<!-- Node1&#45;&gt;Node5 -->
<g id="edge4" class="edge">
<title>Node1&#45;&gt;Node5</title>
<path fill="none" stroke="#63b8ff" d="M199.35,-230.9C213.65,-247.6 236.64,-271.92 261,-287.5 266.28,-290.87 272.28,-293.76 278.2,-296.17"/>
<polygon fill="#63b8ff" stroke="#63b8ff" points="202.05,-228.68 192.96,-223.24 196.68,-233.16 202.05,-228.68"/>
</g>
<!-- Node6 -->
<g id="node6" class="node">
<title>Node6</title>
<g id="a_node6"><a xlink:href="class_ogre_1_1_gpu_program.html" target="_top" xlink:title="Defines a program which runs on the GPU such as a vertex or fragment program.">
<polygon fill="white" stroke="#666666" points="358,-278 261,-278 261,-259 358,-259 358,-278"/>
<text text-anchor="middle" x="309.5" y="-266" font-family="Helvetica,sans-Serif" font-size="10.00">Ogre::GpuProgram</text>
</a>
</g>
</g>
<!-- Node1&#45;&gt;Node6 -->
<g id="edge5" class="edge">
<title>Node1&#45;&gt;Node6</title>
<path fill="none" stroke="#63b8ff" d="M213.27,-227.63C227.48,-234.89 244.97,-243.5 261,-250.5 267.38,-253.29 274.35,-256.07 280.94,-258.58"/>
<polygon fill="#63b8ff" stroke="#63b8ff" points="214.96,-224.56 204.46,-223.09 211.75,-230.78 214.96,-224.56"/>
</g>
<!-- Node17 -->
<g id="node17" class="node">
<title>Node17</title>
<g id="a_node17"><a xlink:href="class_ogre_1_1_material.html" target="_top" xlink:title="Class encapsulates rendering properties of an object.">
<polygon fill="white" stroke="#666666" points="348,-241 271,-241 271,-222 348,-222 348,-241"/>
<text text-anchor="middle" x="309.5" y="-229" font-family="Helvetica,sans-Serif" font-size="10.00">Ogre::Material</text>
</a>
</g>
</g>
<!-- Node1&#45;&gt;Node17 -->
<g id="edge16" class="edge">
<title>Node1&#45;&gt;Node17</title>
<path fill="none" stroke="#63b8ff" d="M236.61,-220.49C247.99,-222.23 259.83,-224.04 270.53,-225.68"/>
<polygon fill="#63b8ff" stroke="#63b8ff" points="237.36,-217.06 226.94,-219 236.3,-223.98 237.36,-217.06"/>
</g>
<!-- Node18 -->
<g id="node18" class="node">
<title>Node18</title>
<g id="a_node18"><a xlink:href="class_ogre_1_1_mesh.html" target="_top" xlink:title="Resource holding data about 3D mesh.">
<polygon fill="white" stroke="#666666" points="342.5,-204 276.5,-204 276.5,-185 342.5,-185 342.5,-204"/>
<text text-anchor="middle" x="309.5" y="-192" font-family="Helvetica,sans-Serif" font-size="10.00">Ogre::Mesh</text>
</a>
</g>
</g>
<!-- Node1&#45;&gt;Node18 -->
<g id="edge17" class="edge">
<title>Node1&#45;&gt;Node18</title>
<path fill="none" stroke="#63b8ff" d="M236.55,-204.95C250.01,-202.99 264.11,-200.94 276.23,-199.18"/>
<polygon fill="#63b8ff" stroke="#63b8ff" points="236.34,-201.44 226.94,-206.34 237.34,-208.37 236.34,-201.44"/>
</g>
<!-- Node19 -->
<g id="node19" class="node">
<title>Node19</title>
<g id="a_node19"><a xlink:href="class_ogre_1_1_texture.html" target="_top" xlink:title="Abstract class representing a Texture resource.">
<polygon fill="white" stroke="#666666" points="346.5,-167 272.5,-167 272.5,-148 346.5,-148 346.5,-167"/>
<text text-anchor="middle" x="309.5" y="-155" font-family="Helvetica,sans-Serif" font-size="10.00">Ogre::Texture</text>
</a>
</g>
</g>
<!-- Node1&#45;&gt;Node19 -->
<g id="edge18" class="edge">
<title>Node1&#45;&gt;Node19</title>
<path fill="none" stroke="#63b8ff" d="M213.88,-197.54C228,-190.54 245.23,-182.28 261,-175.5 267.4,-172.75 274.37,-169.98 280.96,-167.47"/>
<polygon fill="#63b8ff" stroke="#63b8ff" points="212.51,-194.31 205.13,-201.92 215.64,-200.57 212.51,-194.31"/>
</g>
<!-- Node31 -->
<g id="node31" class="node">
<title>Node31</title>
<g id="a_node31"><a xlink:href="class_ogre_1_1v1_1_1_mesh.html" target="_top" xlink:title="Resource holding data about 3D mesh.">
<polygon fill="white" stroke="#666666" points="350,-112 269,-112 269,-93 350,-93 350,-112"/>
<text text-anchor="middle" x="309.5" y="-100" font-family="Helvetica,sans-Serif" font-size="10.00">Ogre::v1::Mesh</text>
</a>
</g>
</g>
<!-- Node1&#45;&gt;Node31 -->
<g id="edge30" class="edge">
<title>Node1&#45;&gt;Node31</title>
<path fill="none" stroke="#63b8ff" d="M202.02,-194.37C217.17,-178.98 239.89,-156.6 261,-138.5 271.84,-129.21 284.8,-119.47 294.44,-112.47"/>
<polygon fill="#63b8ff" stroke="#63b8ff" points="199.59,-191.85 195.1,-201.45 204.6,-196.74 199.59,-191.85"/>
</g>
<!-- Node33 -->
<g id="node33" class="node">
<title>Node33</title>
<g id="a_node33"><a xlink:href="class_ogre_1_1v1_1_1_skeleton.html" target="_top" xlink:title="A collection of OldBone objects used to animate a skinned mesh.">
<polygon fill="white" stroke="#666666" points="357,-38 262,-38 262,-19 357,-19 357,-38"/>
<text text-anchor="middle" x="309.5" y="-26" font-family="Helvetica,sans-Serif" font-size="10.00">Ogre::v1::Skeleton</text>
</a>
</g>
</g>
<!-- Node1&#45;&gt;Node33 -->
<g id="edge32" class="edge">
<title>Node1&#45;&gt;Node33</title>
<path fill="none" stroke="#63b8ff" d="M194.82,-192.69C208.64,-166.77 234.5,-120.32 261,-83.5 273.09,-66.71 289.18,-48.86 299.19,-38.2"/>
<polygon fill="#63b8ff" stroke="#63b8ff" points="191.79,-190.93 190.22,-201.41 197.98,-194.2 191.79,-190.93"/>
</g>
<!-- Node2 -->
<g id="node2" class="node">
<title>Node2</title>
<g id="a_node2"><a xlink:href="class_ogre_1_1_string_interface.html" target="_top" xlink:title="Class defining the common interface which classes can use to present a reflection&#45;style,...">
<polygon fill="white" stroke="#666666" points="106,-241 0,-241 0,-222 106,-222 106,-241"/>
<text text-anchor="middle" x="53" y="-229" font-family="Helvetica,sans-Serif" font-size="10.00">Ogre::StringInterface</text>
</a>
</g>
</g>
<!-- Node2&#45;&gt;Node1 -->
<g id="edge1" class="edge">
<title>Node2&#45;&gt;Node1</title>
<path fill="none" stroke="#63b8ff" d="M117.45,-222.12C125.7,-220.9 133.97,-219.68 141.71,-218.53"/>
<polygon fill="#63b8ff" stroke="#63b8ff" points="117.14,-218.63 107.76,-223.55 118.17,-225.55 117.14,-218.63"/>
</g>
<!-- Node3 -->
<g id="node3" class="node">
<title>Node3</title>
<g id="a_node3"><a xlink:href="class_ogre_1_1_allocated_object.html" target="_top" xlink:title="Superclass for all objects that wish to use custom memory allocators when their new / delete operator...">
<polygon fill="white" stroke="#666666" points="93,-204 13,-204 13,-185 93,-185 93,-204"/>
<text text-anchor="middle" x="53" y="-192" font-family="Helvetica,sans-Serif" font-size="10.00">ResourceAlloc</text>
</a>
</g>
</g>
<!-- Node3&#45;&gt;Node1 -->
<g id="edge2" class="edge">
<title>Node3&#45;&gt;Node1</title>
<path fill="none" stroke="#63b8ff" d="M104.36,-201.55C116.74,-203.29 129.84,-205.12 141.71,-206.79"/>
<polygon fill="#63b8ff" stroke="#63b8ff" points="105.14,-198.13 94.75,-200.21 104.17,-205.06 105.14,-198.13"/>
</g>
<!-- Node7 -->
<g id="node7" class="node">
<title>Node7</title>
<g id="a_node7"><a xlink:href="class_ogre_1_1_d3_d9_gpu_program.html" target="_top" xlink:title="Direct3D implementation of a few things common to low&#45;level vertex &amp; fragment programs.">
<polygon fill="white" stroke="#666666" points="528.5,-530 407.5,-530 407.5,-511 528.5,-511 528.5,-530"/>
<text text-anchor="middle" x="468" y="-518" font-family="Helvetica,sans-Serif" font-size="10.00">Ogre::D3D9GpuProgram</text>
</a>
</g>
</g>
<!-- Node6&#45;&gt;Node7 -->
<g id="edge6" class="edge">
<title>Node6&#45;&gt;Node7</title>
<path fill="none" stroke="#63b8ff" d="M354.82,-284.52C355.93,-285.46 357,-286.45 358,-287.5 391.76,-322.89 373.87,-346.92 394,-391.5 414.97,-437.94 447.17,-489.71 460.69,-510.79"/>
<polygon fill="#63b8ff" stroke="#63b8ff" points="356.95,-281.74 346.67,-279.16 353.1,-287.58 356.95,-281.74"/>
</g>
<!-- Node10 -->
<g id="node10" class="node">
<title>Node10</title>
<g id="a_node10"><a xlink:href="class_ogre_1_1_high_level_gpu_program.html" target="_top" xlink:title="Abstract base class representing a high&#45;level program (a vertex or fragment program).">
<polygon fill="white" stroke="#666666" points="538.5,-382 397.5,-382 397.5,-363 538.5,-363 538.5,-382"/>
<text text-anchor="middle" x="468" y="-370" font-family="Helvetica,sans-Serif" font-size="10.00">Ogre::HighLevelGpuProgram</text>
</a>
</g>
</g>
<!-- Node6&#45;&gt;Node10 -->
<g id="edge9" class="edge">
<title>Node6&#45;&gt;Node10</title>
<path fill="none" stroke="#63b8ff" d="M349.69,-283.14C352.55,-284.52 355.35,-285.98 358,-287.5 397.33,-310.09 438,-345.66 456.59,-362.72"/>
<polygon fill="#63b8ff" stroke="#63b8ff" points="351.19,-279.97 340.63,-279.1 348.34,-286.37 351.19,-279.97"/>
</g>
<!-- Node8 -->
<g id="node8" class="node">
<title>Node8</title>
<g id="a_node8"><a xlink:href="class_ogre_1_1_d3_d9_gpu_fragment_program.html" target="_top" xlink:title="Direct3D implementation of low&#45;level fragment programs.">
<polygon fill="white" stroke="#666666" points="740,-567 578,-567 578,-548 740,-548 740,-567"/>
<text text-anchor="middle" x="659" y="-555" font-family="Helvetica,sans-Serif" font-size="10.00">Ogre::D3D9GpuFragmentProgram</text>
</a>
</g>
</g>
<!-- Node7&#45;&gt;Node8 -->
<g id="edge7" class="edge">
<title>Node7&#45;&gt;Node8</title>
<path fill="none" stroke="#63b8ff" d="M530.75,-532.59C555.5,-537.43 583.68,-542.95 607.21,-547.56"/>
<polygon fill="#63b8ff" stroke="#63b8ff" points="531.62,-529.19 521.13,-530.71 530.28,-536.06 531.62,-529.19"/>
</g>
<!-- Node9 -->
<g id="node9" class="node">
<title>Node9</title>
<g id="a_node9"><a xlink:href="class_ogre_1_1_d3_d9_gpu_vertex_program.html" target="_top" xlink:title="Direct3D implementation of low&#45;level vertex programs.">
<polygon fill="white" stroke="#666666" points="733.5,-530 584.5,-530 584.5,-511 733.5,-511 733.5,-530"/>
<text text-anchor="middle" x="659" y="-518" font-family="Helvetica,sans-Serif" font-size="10.00">Ogre::D3D9GpuVertexProgram</text>
</a>
</g>
</g>
<!-- Node7&#45;&gt;Node9 -->
<g id="edge8" class="edge">
<title>Node7&#45;&gt;Node9</title>
<path fill="none" stroke="#63b8ff" d="M540.18,-520.5C554.61,-520.5 569.81,-520.5 584.32,-520.5"/>
<polygon fill="#63b8ff" stroke="#63b8ff" points="540.31,-517 530.31,-520.5 540.31,-524 540.31,-517"/>
</g>
<!-- Node11 -->
<g id="node11" class="node">
<title>Node11</title>
<g id="a_node11"><a xlink:href="class_ogre_1_1_d3_d11_h_l_s_l_program.html" target="_top" xlink:title="Specialization of HighLevelGpuProgram to provide support for D3D11 High&#45;Level Shader Language (HLSL).">
<polygon fill="white" stroke="#666666" points="726,-493 592,-493 592,-474 726,-474 726,-493"/>
<text text-anchor="middle" x="659" y="-481" font-family="Helvetica,sans-Serif" font-size="10.00">Ogre::D3D11HLSLProgram</text>
</a>
</g>
</g>
<!-- Node10&#45;&gt;Node11 -->
<g id="edge10" class="edge">
<title>Node10&#45;&gt;Node11</title>
<path fill="none" stroke="#63b8ff" d="M485.19,-390.91C504.95,-412.19 540.4,-446.69 578,-465.5 584.49,-468.75 591.57,-471.42 598.75,-473.61"/>
<polygon fill="#63b8ff" stroke="#63b8ff" points="487.82,-388.6 478.51,-383.54 482.63,-393.3 487.82,-388.6"/>
</g>
<!-- Node12 -->
<g id="node12" class="node">
<title>Node12</title>
<g id="a_node12"><a xlink:href="class_ogre_1_1_d3_d9_h_l_s_l_program.html" target="_top" xlink:title="Specialisation of HighLevelGpuProgram to provide support for D3D9 High&#45;Level Shader Language (HLSL).">
<polygon fill="white" stroke="#666666" points="723.5,-456 594.5,-456 594.5,-437 723.5,-437 723.5,-456"/>
<text text-anchor="middle" x="659" y="-444" font-family="Helvetica,sans-Serif" font-size="10.00">Ogre::D3D9HLSLProgram</text>
</a>
</g>
</g>
<!-- Node10&#45;&gt;Node12 -->
<g id="edge11" class="edge">
<title>Node10&#45;&gt;Node12</title>
<path fill="none" stroke="#63b8ff" d="M494.73,-388.09C516.31,-400.57 548.27,-417.71 578,-428.5 586.57,-431.61 595.85,-434.29 604.95,-436.56"/>
<polygon fill="#63b8ff" stroke="#63b8ff" points="496.73,-385.2 486.34,-383.15 493.18,-391.24 496.73,-385.2"/>
</g>
<!-- Node13 -->
<g id="node13" class="node">
<title>Node13</title>
<g id="a_node13"><a xlink:href="class_ogre_1_1_g_l_s_l_shader.html" target="_top" xlink:title="Specialisation of HighLevelGpuProgram to encapsulate shader objects obtained from compiled shaders wr...">
<polygon fill="white" stroke="#666666" points="708.5,-419 609.5,-419 609.5,-400 708.5,-400 708.5,-419"/>
<text text-anchor="middle" x="659" y="-407" font-family="Helvetica,sans-Serif" font-size="10.00">Ogre::GLSLShader</text>
</a>
</g>
</g>
<!-- Node10&#45;&gt;Node13 -->
<g id="edge12" class="edge">
<title>Node10&#45;&gt;Node13</title>
<path fill="none" stroke="#63b8ff" d="M530.68,-384.58C556.14,-389.56 585.23,-395.25 609.17,-399.94"/>
<polygon fill="#63b8ff" stroke="#63b8ff" points="531.62,-381.19 521.13,-382.71 530.28,-388.06 531.62,-381.19"/>
</g>
<!-- Node14 -->
<g id="node14" class="node">
<title>Node14</title>
<g id="a_node14"><a xlink:href="class_ogre_1_1_metal_program.html" target="_top" xlink:title="Specialisation of HighLevelGpuProgram to provide support for Metal Shader Language.">
<polygon fill="white" stroke="#666666" points="710.5,-382 607.5,-382 607.5,-363 710.5,-363 710.5,-382"/>
<text text-anchor="middle" x="659" y="-370" font-family="Helvetica,sans-Serif" font-size="10.00">Ogre::MetalProgram</text>
</a>
</g>
</g>
<!-- Node10&#45;&gt;Node14 -->
<g id="edge13" class="edge">
<title>Node10&#45;&gt;Node14</title>
<path fill="none" stroke="#63b8ff" d="M550.11,-372.5C569.43,-372.5 589.52,-372.5 607.05,-372.5"/>
<polygon fill="#63b8ff" stroke="#63b8ff" points="550.35,-369 540.35,-372.5 550.35,-376 550.35,-369"/>
</g>
<!-- Node15 -->
<g id="node15" class="node">
<title>Node15</title>
<g id="a_node15"><a xlink:href="class_ogre_1_1_unified_high_level_gpu_program.html" target="_top" xlink:title="Specialisation of HighLevelGpuProgram which just delegates its implementation to one other high level...">
<polygon fill="white" stroke="#666666" points="726,-344.5 592,-344.5 592,-314.5 726,-314.5 726,-344.5"/>
<text text-anchor="start" x="600" y="-332.5" font-family="Helvetica,sans-Serif" font-size="10.00">Ogre::UnifiedHighLevelGpu</text>
<text text-anchor="middle" x="659" y="-321.5" font-family="Helvetica,sans-Serif" font-size="10.00">Program</text>
</a>
</g>
</g>
<!-- Node10&#45;&gt;Node15 -->
<g id="edge14" class="edge">
<title>Node10&#45;&gt;Node15</title>
<path fill="none" stroke="#63b8ff" d="M523.93,-360C545.15,-355.17 569.62,-349.61 591.8,-344.56"/>
<polygon fill="#63b8ff" stroke="#63b8ff" points="523.29,-356.56 514.31,-362.19 524.84,-363.39 523.29,-356.56"/>
</g>
<!-- Node16 -->
<g id="node16" class="node">
<title>Node16</title>
<g id="a_node16"><a xlink:href="class_ogre_1_1_vulkan_program.html" target="_top" xlink:title="Specialisation of HighLevelGpuProgram to provide support for Vulkan Shader Language.">
<polygon fill="white" stroke="#666666" points="713.5,-296 604.5,-296 604.5,-277 713.5,-277 713.5,-296"/>
<text text-anchor="middle" x="659" y="-284" font-family="Helvetica,sans-Serif" font-size="10.00">Ogre::VulkanProgram</text>
</a>
</g>
</g>
<!-- Node10&#45;&gt;Node16 -->
<g id="edge15" class="edge">
<title>Node10&#45;&gt;Node16</title>
<path fill="none" stroke="#63b8ff" d="M491.14,-355.95C512.4,-340.8 545.93,-318.77 578,-305.5 586.71,-301.9 596.24,-298.89 605.6,-296.41"/>
<polygon fill="#63b8ff" stroke="#63b8ff" points="489.28,-352.98 483.24,-361.69 493.39,-358.64 489.28,-352.98"/>
</g>
<!-- Node20 -->
<g id="node20" class="node">
<title>Node20</title>
<g id="a_node20"><a xlink:href="class_ogre_1_1_d3_d11_texture.html" target="_top" xlink:title=" ">
<polygon fill="white" stroke="#666666" points="520,-241 416,-241 416,-222 520,-222 520,-241"/>
<text text-anchor="middle" x="468" y="-229" font-family="Helvetica,sans-Serif" font-size="10.00">Ogre::D3D11Texture</text>
</a>
</g>
</g>
<!-- Node19&#45;&gt;Node20 -->
<g id="edge19" class="edge">
<title>Node19&#45;&gt;Node20</title>
<path fill="none" stroke="#63b8ff" d="M352.94,-172.46C354.68,-173.42 356.38,-174.44 358,-175.5 377.18,-188.09 374.17,-200.96 394,-212.5 400.68,-216.39 408.16,-219.49 415.71,-221.96"/>
<polygon fill="#63b8ff" stroke="#63b8ff" points="354.5,-169.32 343.98,-168.12 351.46,-175.63 354.5,-169.32"/>
</g>
<!-- Node23 -->
<g id="node23" class="node">
<title>Node23</title>
<g id="a_node23"><a xlink:href="class_ogre_1_1_d3_d9_texture.html" target="_top" xlink:title=" ">
<polygon fill="white" stroke="#666666" points="517,-204 419,-204 419,-185 517,-185 517,-204"/>
<text text-anchor="middle" x="468" y="-192" font-family="Helvetica,sans-Serif" font-size="10.00">Ogre::D3D9Texture</text>
</a>
</g>
</g>
<!-- Node19&#45;&gt;Node23 -->
<g id="edge22" class="edge">
<title>Node19&#45;&gt;Node23</title>
<path fill="none" stroke="#63b8ff" d="M357.89,-168.7C379.2,-173.74 404.15,-179.64 424.8,-184.52"/>
<polygon fill="#63b8ff" stroke="#63b8ff" points="358.81,-165.32 348.27,-166.43 357.2,-172.14 358.81,-165.32"/>
</g>
<!-- Node24 -->
<g id="node24" class="node">
<title>Node24</title>
<g id="a_node24"><a xlink:href="class_ogre_1_1_g_l3_plus_texture.html" target="_top" xlink:title=" ">
<polygon fill="white" stroke="#666666" points="524.5,-167 411.5,-167 411.5,-148 524.5,-148 524.5,-167"/>
<text text-anchor="middle" x="468" y="-155" font-family="Helvetica,sans-Serif" font-size="10.00">Ogre::GL3PlusTexture</text>
</a>
</g>
</g>
<!-- Node19&#45;&gt;Node24 -->
<g id="edge23" class="edge">
<title>Node19&#45;&gt;Node24</title>
<path fill="none" stroke="#63b8ff" d="M358.02,-157.5C374.82,-157.5 393.86,-157.5 411.27,-157.5"/>
<polygon fill="#63b8ff" stroke="#63b8ff" points="358.31,-154 348.31,-157.5 358.31,-161 358.31,-154"/>
</g>
<!-- Node27 -->
<g id="node27" class="node">
<title>Node27</title>
<g id="a_node27"><a xlink:href="class_ogre_1_1_metal_texture.html" target="_top" xlink:title=" ">
<polygon fill="white" stroke="#666666" points="517,-130 419,-130 419,-111 517,-111 517,-130"/>
<text text-anchor="middle" x="468" y="-118" font-family="Helvetica,sans-Serif" font-size="10.00">Ogre::MetalTexture</text>
</a>
</g>
</g>
<!-- Node19&#45;&gt;Node27 -->
<g id="edge26" class="edge">
<title>Node19&#45;&gt;Node27</title>
<path fill="none" stroke="#63b8ff" d="M357.89,-146.3C379.2,-141.26 404.15,-135.36 424.8,-130.48"/>
<polygon fill="#63b8ff" stroke="#63b8ff" points="357.2,-142.86 348.27,-148.57 358.81,-149.68 357.2,-142.86"/>
</g>
<!-- Node30 -->
<g id="node30" class="node">
<title>Node30</title>
<g id="a_node30"><a xlink:href="class_ogre_1_1_n_u_l_l_texture.html" target="_top" xlink:title=" ">
<polygon fill="white" stroke="#666666" points="518.5,-93 417.5,-93 417.5,-74 518.5,-74 518.5,-93"/>
<text text-anchor="middle" x="468" y="-81" font-family="Helvetica,sans-Serif" font-size="10.00">Ogre::NULLTexture</text>
</a>
</g>
</g>
<!-- Node19&#45;&gt;Node30 -->
<g id="edge29" class="edge">
<title>Node19&#45;&gt;Node30</title>
<path fill="none" stroke="#63b8ff" d="M331.05,-140.72C347.26,-128.25 370.91,-111.71 394,-101.5 401.28,-98.28 409.24,-95.57 417.14,-93.32"/>
<polygon fill="#63b8ff" stroke="#63b8ff" points="329.31,-137.64 323.62,-146.57 333.64,-143.14 329.31,-137.64"/>
</g>
<!-- Node21 -->
<g id="node21" class="node">
<title>Node21</title>
<g id="a_node21"><a xlink:href="class_ogre_1_1_d3_d11_depth_texture.html" target="_top" xlink:title=" ">
<polygon fill="white" stroke="#666666" points="723.5,-259 594.5,-259 594.5,-240 723.5,-240 723.5,-259"/>
<text text-anchor="middle" x="659" y="-247" font-family="Helvetica,sans-Serif" font-size="10.00">Ogre::D3D11DepthTexture</text>
</a>
</g>
</g>
<!-- Node20&#45;&gt;Node21 -->
<g id="edge20" class="edge">
<title>Node20&#45;&gt;Node21</title>
<path fill="none" stroke="#63b8ff" d="M531.43,-237.45C551.62,-239.37 574.03,-241.5 594.31,-243.43"/>
<polygon fill="#63b8ff" stroke="#63b8ff" points="531.94,-233.98 521.65,-236.51 531.28,-240.95 531.94,-233.98"/>
</g>
<!-- Node22 -->
<g id="node22" class="node">
<title>Node22</title>
<g id="a_node22"><a xlink:href="class_ogre_1_1_d3_d11_null_texture.html" target="_top" xlink:title=" ">
<polygon fill="white" stroke="#666666" points="719.5,-222 598.5,-222 598.5,-203 719.5,-203 719.5,-222"/>
<text text-anchor="middle" x="659" y="-210" font-family="Helvetica,sans-Serif" font-size="10.00">Ogre::D3D11NullTexture</text>
</a>
</g>
</g>
<!-- Node20&#45;&gt;Node22 -->
<g id="edge21" class="edge">
<title>Node20&#45;&gt;Node22</title>
<path fill="none" stroke="#63b8ff" d="M531.44,-225.22C552.9,-223.07 576.85,-220.66 598.1,-218.52"/>
<polygon fill="#63b8ff" stroke="#63b8ff" points="531.25,-221.72 521.65,-226.21 531.95,-228.69 531.25,-221.72"/>
</g>
<!-- Node25 -->
<g id="node25" class="node">
<title>Node25</title>
<g id="a_node25"><a xlink:href="class_ogre_1_1_g_l3_plus_depth_texture.html" target="_top" xlink:title=" ">
<polygon fill="white" stroke="#666666" points="728,-185 590,-185 590,-166 728,-166 728,-185"/>
<text text-anchor="middle" x="659" y="-173" font-family="Helvetica,sans-Serif" font-size="10.00">Ogre::GL3PlusDepthTexture</text>
</a>
</g>
</g>
<!-- Node24&#45;&gt;Node25 -->
<g id="edge24" class="edge">
<title>Node24&#45;&gt;Node25</title>
<path fill="none" stroke="#63b8ff" d="M536.16,-163.9C553.58,-165.56 572.36,-167.34 589.83,-169.01"/>
<polygon fill="#63b8ff" stroke="#63b8ff" points="536.73,-160.43 526.45,-162.97 536.07,-167.4 536.73,-160.43"/>
</g>
<!-- Node26 -->
<g id="node26" class="node">
<title>Node26</title>
<g id="a_node26"><a xlink:href="class_ogre_1_1_g_l3_plus_null_texture.html" target="_top" xlink:title=" ">
<polygon fill="white" stroke="#666666" points="724,-148 594,-148 594,-129 724,-129 724,-148"/>
<text text-anchor="middle" x="659" y="-136" font-family="Helvetica,sans-Serif" font-size="10.00">Ogre::GL3PlusNullTexture</text>
</a>
</g>
</g>
<!-- Node24&#45;&gt;Node26 -->
<g id="edge25" class="edge">
<title>Node24&#45;&gt;Node26</title>
<path fill="none" stroke="#63b8ff" d="M536.31,-150.73C554.94,-148.86 575.11,-146.83 593.56,-144.98"/>
<polygon fill="#63b8ff" stroke="#63b8ff" points="536.04,-147.24 526.45,-151.73 536.75,-154.21 536.04,-147.24"/>
</g>
<!-- Node28 -->
<g id="node28" class="node">
<title>Node28</title>
<g id="a_node28"><a xlink:href="class_ogre_1_1_metal_depth_texture.html" target="_top" xlink:title=" ">
<polygon fill="white" stroke="#666666" points="721,-111 597,-111 597,-92 721,-92 721,-111"/>
<text text-anchor="middle" x="659" y="-99" font-family="Helvetica,sans-Serif" font-size="10.00">Ogre::MetalDepthTexture</text>
</a>
</g>
</g>
<!-- Node27&#45;&gt;Node28 -->
<g id="edge27" class="edge">
<title>Node27&#45;&gt;Node28</title>
<path fill="none" stroke="#63b8ff" d="M528.57,-114.51C550.27,-112.33 574.82,-109.86 596.66,-107.67"/>
<polygon fill="#63b8ff" stroke="#63b8ff" points="528.29,-111.02 518.69,-115.5 528.99,-117.99 528.29,-111.02"/>
</g>
<!-- Node29 -->
<g id="node29" class="node">
<title>Node29</title>
<g id="a_node29"><a xlink:href="class_ogre_1_1_metal_null_texture.html" target="_top" xlink:title=" ">
<polygon fill="white" stroke="#666666" points="717,-74 601,-74 601,-55 717,-55 717,-74"/>
<text text-anchor="middle" x="659" y="-62" font-family="Helvetica,sans-Serif" font-size="10.00">Ogre::MetalNullTexture</text>
</a>
</g>
</g>
<!-- Node27&#45;&gt;Node29 -->
<g id="edge28" class="edge">
<title>Node27&#45;&gt;Node29</title>
<path fill="none" stroke="#63b8ff" d="M524.59,-107.47C530.53,-105.66 536.43,-103.66 542,-101.5 558.87,-94.96 561.03,-88.76 578,-82.5 586.41,-79.4 595.53,-76.73 604.5,-74.47"/>
<polygon fill="#63b8ff" stroke="#63b8ff" points="524.01,-104 515.37,-110.14 525.95,-110.72 524.01,-104"/>
</g>
<!-- Node32 -->
<g id="node32" class="node">
<title>Node32</title>
<g id="a_node32"><a xlink:href="class_ogre_1_1v1_1_1_patch_mesh.html" target="_top" xlink:title="Patch specialisation of Mesh.">
<polygon fill="white" stroke="#666666" points="521.5,-56 414.5,-56 414.5,-37 521.5,-37 521.5,-56"/>
<text text-anchor="middle" x="468" y="-44" font-family="Helvetica,sans-Serif" font-size="10.00">Ogre::v1::PatchMesh</text>
</a>
</g>
</g>
<!-- Node31&#45;&gt;Node32 -->
<g id="edge31" class="edge">
<title>Node31&#45;&gt;Node32</title>
<path fill="none" stroke="#63b8ff" d="M339.83,-87.54C355.6,-79.91 375.54,-70.91 394,-64.5 402.63,-61.5 412,-58.8 421.06,-56.45"/>
<polygon fill="#63b8ff" stroke="#63b8ff" points="338.43,-84.32 331.01,-91.88 341.53,-90.6 338.43,-84.32"/>
</g>
<!-- Node34 -->
<g id="node34" class="node">
<title>Node34</title>
<g id="a_node34"><a xlink:href="class_ogre_1_1v1_1_1_old_skeleton_instance.html" target="_top" xlink:title="A OldSkeletonInstance is a single instance of a Skeleton used by a world object.">
<polygon fill="white" stroke="#666666" points="542,-19 394,-19 394,0 542,0 542,-19"/>
<text text-anchor="middle" x="468" y="-7" font-family="Helvetica,sans-Serif" font-size="10.00">Ogre::v1::OldSkeletonInstance</text>
</a>
</g>
</g>
<!-- Node33&#45;&gt;Node34 -->
<g id="edge33" class="edge">
<title>Node33&#45;&gt;Node34</title>
<path fill="none" stroke="#63b8ff" d="M368.73,-21.43C376.88,-20.44 385.34,-19.41 393.73,-18.4"/>
<polygon fill="#63b8ff" stroke="#63b8ff" points="368.46,-17.94 358.96,-22.62 369.31,-24.89 368.46,-17.94"/>
</g>
</g>
</svg>
