<?xml version="1.0" encoding="UTF-8" standalone="no"?>
<!DOCTYPE svg PUBLIC "-//W3C//DTD SVG 1.1//EN"
 "http://www.w3.org/Graphics/SVG/1.1/DTD/svg11.dtd">
<!-- Generated by graphviz version 9.0.0 (20230911.1827)
 -->
<!-- Title: Ogre::VulkanWin32Window Pages: 1 -->
<svg width="164pt" height="260pt"
 viewBox="0.00 0.00 163.50 259.50" xmlns="http://www.w3.org/2000/svg" xmlns:xlink="http://www.w3.org/1999/xlink">
<g id="graph0" class="graph" transform="scale(1 1) rotate(0) translate(4 255.5)">
<title>Ogre::VulkanWin32Window</title>
<!-- Node1 -->
<g id="Node000001" class="node">
<title>Node1</title>
<g id="a_Node000001"><a xlink:title=" ">
<polygon fill="#999999" stroke="#666666" points="144.25,-19.25 11.25,-19.25 11.25,0 144.25,0 144.25,-19.25"/>
<text text-anchor="middle" x="77.75" y="-5.75" font-family="Helvetica,sans-Serif" font-size="10.00">Ogre::VulkanWin32Window</text>
</a>
</g>
</g>
<!-- Node2 -->
<g id="Node000002" class="node">
<title>Node2</title>
<g id="a_Node000002"><a xlink:href="class_ogre_1_1_vulkan_window_swap_chain_based.html" target="_top" xlink:title=" ">
<polygon fill="white" stroke="#666666" points="155.5,-85.75 0,-85.75 0,-55.25 155.5,-55.25 155.5,-85.75"/>
<text text-anchor="start" x="8" y="-72.25" font-family="Helvetica,sans-Serif" font-size="10.00">Ogre::VulkanWindowSwapChain</text>
<text text-anchor="middle" x="77.75" y="-61" font-family="Helvetica,sans-Serif" font-size="10.00">Based</text>
</a>
</g>
</g>
<!-- Node2&#45;&gt;Node1 -->
<g id="edge1_Node000001_Node000002" class="edge">
<title>Node2&#45;&gt;Node1</title>
<g id="a_edge1_Node000001_Node000002"><a xlink:title=" ">
<path fill="none" stroke="#63b8ff" d="M77.75,-43.48C77.75,-34.98 77.75,-26.09 77.75,-19.7"/>
<polygon fill="#63b8ff" stroke="#63b8ff" points="74.25,-43.43 77.75,-53.43 81.25,-43.43 74.25,-43.43"/>
</a>
</g>
</g>
<!-- Node3 -->
<g id="Node000003" class="node">
<title>Node3</title>
<g id="a_Node000003"><a xlink:href="class_ogre_1_1_vulkan_window.html" target="_top" xlink:title=" ">
<polygon fill="white" stroke="#666666" points="130.75,-141 24.75,-141 24.75,-121.75 130.75,-121.75 130.75,-141"/>
<text text-anchor="middle" x="77.75" y="-127.5" font-family="Helvetica,sans-Serif" font-size="10.00">Ogre::VulkanWindow</text>
</a>
</g>
</g>
<!-- Node3&#45;&gt;Node2 -->
<g id="edge2_Node000002_Node000003" class="edge">
<title>Node3&#45;&gt;Node2</title>
<g id="a_edge2_Node000002_Node000003"><a xlink:title=" ">
<path fill="none" stroke="#63b8ff" d="M77.75,-110.17C77.75,-102.24 77.75,-93.31 77.75,-86.03"/>
<polygon fill="#63b8ff" stroke="#63b8ff" points="74.25,-109.92 77.75,-119.92 81.25,-109.92 74.25,-109.92"/>
</a>
</g>
</g>
<!-- Node4 -->
<g id="Node000004" class="node">
<title>Node4</title>
<g id="a_Node000004"><a xlink:href="class_ogre_1_1_window.html" target="_top" xlink:title=" ">
<polygon fill="white" stroke="#666666" points="115.75,-196.25 39.75,-196.25 39.75,-177 115.75,-177 115.75,-196.25"/>
<text text-anchor="middle" x="77.75" y="-182.75" font-family="Helvetica,sans-Serif" font-size="10.00">Ogre::Window</text>
</a>
</g>
</g>
<!-- Node4&#45;&gt;Node3 -->
<g id="edge3_Node000003_Node000004" class="edge">
<title>Node4&#45;&gt;Node3</title>
<g id="a_edge3_Node000003_Node000004"><a xlink:title=" ">
<path fill="none" stroke="#63b8ff" d="M77.75,-165.38C77.75,-157.09 77.75,-147.92 77.75,-141.36"/>
<polygon fill="#63b8ff" stroke="#63b8ff" points="74.25,-165.32 77.75,-175.32 81.25,-165.32 74.25,-165.32"/>
</a>
</g>
</g>
<!-- Node5 -->
<g id="Node000005" class="node">
<title>Node5</title>
<g id="a_Node000005"><a xlink:href="class_ogre_1_1_allocated_object.html" target="_top" xlink:title="Superclass for all objects that wish to use custom memory allocators when their new / delete operator...">
<polygon fill="white" stroke="#666666" points="120.25,-251.5 35.25,-251.5 35.25,-232.25 120.25,-232.25 120.25,-251.5"/>
<text text-anchor="middle" x="77.75" y="-238" font-family="Helvetica,sans-Serif" font-size="10.00">RenderSysAlloc</text>
</a>
</g>
</g>
<!-- Node5&#45;&gt;Node4 -->
<g id="edge4_Node000004_Node000005" class="edge">
<title>Node5&#45;&gt;Node4</title>
<g id="a_edge4_Node000004_Node000005"><a xlink:title=" ">
<path fill="none" stroke="#63b8ff" d="M77.75,-220.63C77.75,-212.34 77.75,-203.17 77.75,-196.61"/>
<polygon fill="#63b8ff" stroke="#63b8ff" points="74.25,-220.57 77.75,-230.57 81.25,-220.57 74.25,-220.57"/>
</a>
</g>
</g>
</g>
</svg>
