<?xml version="1.0" encoding="UTF-8" standalone="no"?>
<!DOCTYPE svg PUBLIC "-//W3C//DTD SVG 1.1//EN"
 "http://www.w3.org/Graphics/SVG/1.1/DTD/svg11.dtd">
<!-- Generated by graphviz version 9.0.0 (20230911.1827)
 -->
<!-- Title: Ogre::ConstBufferPacked Pages: 1 -->
<svg width="635pt" height="224pt"
 viewBox="0.00 0.00 634.50 224.25" xmlns="http://www.w3.org/2000/svg" xmlns:xlink="http://www.w3.org/1999/xlink">
<g id="graph0" class="graph" transform="scale(1 1) rotate(0) translate(4 220.25)">
<title>Ogre::ConstBufferPacked</title>
<!-- Node1 -->
<g id="Node000001" class="node">
<title>Node1</title>
<g id="a_Node000001"><a xlink:title="Represents constant buffers (also known as Uniform Buffers in GL)">
<polygon fill="#999999" stroke="#666666" points="433.5,-111.25 308,-111.25 308,-92 433.5,-92 433.5,-111.25"/>
<text text-anchor="middle" x="370.75" y="-97.75" font-family="Helvetica,sans-Serif" font-size="10.00">Ogre::ConstBufferPacked</text>
</a>
</g>
</g>
<!-- Node5 -->
<g id="Node000005" class="node">
<title>Node5</title>
<g id="a_Node000005"><a xlink:href="class_ogre_1_1_d3_d11_const_buffer_packed.html" target="_top" xlink:title=" ">
<polygon fill="white" stroke="#666666" points="625.38,-216.25 470.62,-216.25 470.62,-197 625.38,-197 625.38,-216.25"/>
<text text-anchor="middle" x="548" y="-202.75" font-family="Helvetica,sans-Serif" font-size="10.00">Ogre::D3D11ConstBufferPacked</text>
</a>
</g>
</g>
<!-- Node1&#45;&gt;Node5 -->
<g id="edge4_Node000001_Node000005" class="edge">
<title>Node1&#45;&gt;Node5</title>
<g id="a_edge4_Node000001_Node000005"><a xlink:title=" ">
<path fill="none" stroke="#63b8ff" d="M387.53,-120C405.43,-139.67 436.46,-170.38 469.5,-187.62 476.38,-191.21 483.95,-194.14 491.6,-196.53"/>
<polygon fill="#63b8ff" stroke="#63b8ff" points="390.31,-117.87 381.06,-112.71 385.08,-122.51 390.31,-117.87"/>
</a>
</g>
</g>
<!-- Node6 -->
<g id="Node000006" class="node">
<title>Node6</title>
<g id="a_Node000006"><a xlink:href="class_ogre_1_1_g_l3_plus_const_buffer_packed.html" target="_top" xlink:title=" ">
<polygon fill="white" stroke="#666666" points="613.38,-178.88 482.62,-178.88 482.62,-148.38 613.38,-148.38 613.38,-178.88"/>
<text text-anchor="start" x="490.62" y="-165.38" font-family="Helvetica,sans-Serif" font-size="10.00">Ogre::GL3PlusConstBuffer</text>
<text text-anchor="middle" x="548" y="-154.12" font-family="Helvetica,sans-Serif" font-size="10.00">Packed</text>
</a>
</g>
</g>
<!-- Node1&#45;&gt;Node6 -->
<g id="edge5_Node000001_Node000006" class="edge">
<title>Node1&#45;&gt;Node6</title>
<g id="a_edge5_Node000001_Node000006"><a xlink:title=" ">
<path fill="none" stroke="#63b8ff" d="M406.68,-115.89C425.22,-123.29 448.47,-132.29 469.5,-139.62 477.61,-142.45 486.26,-145.3 494.73,-147.99"/>
<polygon fill="#63b8ff" stroke="#63b8ff" points="408.07,-112.68 397.48,-112.2 405.46,-119.17 408.07,-112.68"/>
</a>
</g>
</g>
<!-- Node7 -->
<g id="Node000007" class="node">
<title>Node7</title>
<g id="a_Node000007"><a xlink:href="class_ogre_1_1_g_l_e_s2_const_buffer_packed.html" target="_top" xlink:title=" ">
<polygon fill="white" stroke="#666666" points="626.5,-130.25 469.5,-130.25 469.5,-111 626.5,-111 626.5,-130.25"/>
<text text-anchor="middle" x="548" y="-116.75" font-family="Helvetica,sans-Serif" font-size="10.00">Ogre::GLES2ConstBufferPacked</text>
</a>
</g>
</g>
<!-- Node1&#45;&gt;Node7 -->
<g id="edge6_Node000001_Node000007" class="edge">
<title>Node1&#45;&gt;Node7</title>
<g id="a_edge6_Node000001_Node000007"><a xlink:title=" ">
<path fill="none" stroke="#63b8ff" d="M444.79,-109.54C452.85,-110.42 461.08,-111.31 469.19,-112.19"/>
<polygon fill="#63b8ff" stroke="#63b8ff" points="445.36,-106.09 435.04,-108.49 444.61,-113.04 445.36,-106.09"/>
</a>
</g>
</g>
<!-- Node8 -->
<g id="Node000008" class="node">
<title>Node8</title>
<g id="a_Node000008"><a xlink:href="class_ogre_1_1_metal_const_buffer_packed.html" target="_top" xlink:title=" ">
<polygon fill="white" stroke="#666666" points="622.75,-93.25 473.25,-93.25 473.25,-74 622.75,-74 622.75,-93.25"/>
<text text-anchor="middle" x="548" y="-79.75" font-family="Helvetica,sans-Serif" font-size="10.00">Ogre::MetalConstBufferPacked</text>
</a>
</g>
</g>
<!-- Node1&#45;&gt;Node8 -->
<g id="edge7_Node000001_Node000008" class="edge">
<title>Node1&#45;&gt;Node8</title>
<g id="a_edge7_Node000001_Node000008"><a xlink:title=" ">
<path fill="none" stroke="#63b8ff" d="M444.73,-94.13C454.02,-93.17 463.54,-92.2 472.86,-91.24"/>
<polygon fill="#63b8ff" stroke="#63b8ff" points="444.63,-90.62 435.04,-95.12 445.35,-97.58 444.63,-90.62"/>
</a>
</g>
</g>
<!-- Node9 -->
<g id="Node000009" class="node">
<title>Node9</title>
<g id="a_Node000009"><a xlink:href="class_ogre_1_1_n_u_l_l_const_buffer_packed.html" target="_top" xlink:title=" ">
<polygon fill="white" stroke="#666666" points="624.25,-56.25 471.75,-56.25 471.75,-37 624.25,-37 624.25,-56.25"/>
<text text-anchor="middle" x="548" y="-42.75" font-family="Helvetica,sans-Serif" font-size="10.00">Ogre::NULLConstBufferPacked</text>
</a>
</g>
</g>
<!-- Node1&#45;&gt;Node9 -->
<g id="edge8_Node000001_Node000009" class="edge">
<title>Node1&#45;&gt;Node9</title>
<g id="a_edge8_Node000001_Node000009"><a xlink:title=" ">
<path fill="none" stroke="#63b8ff" d="M406.13,-87.32C424.69,-79.93 448.12,-71.12 469.5,-64.62 479.02,-61.73 489.31,-59.04 499.19,-56.67"/>
<polygon fill="#63b8ff" stroke="#63b8ff" points="404.91,-84.04 396.95,-91.03 407.53,-90.53 404.91,-84.04"/>
</a>
</g>
</g>
<!-- Node10 -->
<g id="Node000010" class="node">
<title>Node10</title>
<g id="a_Node000010"><a xlink:href="class_ogre_1_1_vulkan_const_buffer_packed.html" target="_top" xlink:title=" ">
<polygon fill="white" stroke="#666666" points="625.75,-19.25 470.25,-19.25 470.25,0 625.75,0 625.75,-19.25"/>
<text text-anchor="middle" x="548" y="-5.75" font-family="Helvetica,sans-Serif" font-size="10.00">Ogre::VulkanConstBufferPacked</text>
</a>
</g>
</g>
<!-- Node1&#45;&gt;Node10 -->
<g id="edge9_Node000001_Node000010" class="edge">
<title>Node1&#45;&gt;Node10</title>
<g id="a_edge9_Node000001_Node000010"><a xlink:title=" ">
<path fill="none" stroke="#63b8ff" d="M390.28,-83.75C408.85,-66.82 439,-41.92 469.5,-27.62 476.25,-24.46 483.61,-21.83 491.01,-19.65"/>
<polygon fill="#63b8ff" stroke="#63b8ff" points="387.94,-81.15 383.01,-90.53 392.71,-86.26 387.94,-81.15"/>
</a>
</g>
</g>
<!-- Node2 -->
<g id="Node000002" class="node">
<title>Node2</title>
<g id="a_Node000002"><a xlink:href="class_ogre_1_1_buffer_packed.html" target="_top" xlink:title=" ">
<polygon fill="white" stroke="#666666" points="272,-111.25 172,-111.25 172,-92 272,-92 272,-111.25"/>
<text text-anchor="middle" x="222" y="-97.75" font-family="Helvetica,sans-Serif" font-size="10.00">Ogre::BufferPacked</text>
</a>
</g>
</g>
<!-- Node2&#45;&gt;Node1 -->
<g id="edge1_Node000001_Node000002" class="edge">
<title>Node2&#45;&gt;Node1</title>
<g id="a_edge1_Node000001_Node000002"><a xlink:title=" ">
<path fill="none" stroke="#63b8ff" d="M283.66,-101.62C291.55,-101.62 299.65,-101.62 307.57,-101.62"/>
<polygon fill="#63b8ff" stroke="#63b8ff" points="283.79,-98.13 273.79,-101.63 283.79,-105.13 283.79,-98.13"/>
</a>
</g>
</g>
<!-- Node3 -->
<g id="Node000003" class="node">
<title>Node3</title>
<g id="a_Node000003"><a xlink:href="struct_ogre_1_1_gpu_tracked_resource.html" target="_top" xlink:title=" ">
<polygon fill="white" stroke="#666666" points="136,-130.25 0,-130.25 0,-111 136,-111 136,-130.25"/>
<text text-anchor="middle" x="68" y="-116.75" font-family="Helvetica,sans-Serif" font-size="10.00">Ogre::GpuTrackedResource</text>
</a>
</g>
</g>
<!-- Node3&#45;&gt;Node2 -->
<g id="edge2_Node000002_Node000003" class="edge">
<title>Node3&#45;&gt;Node2</title>
<g id="a_edge2_Node000002_Node000003"><a xlink:title=" ">
<path fill="none" stroke="#63b8ff" d="M147.35,-110.83C155.59,-109.8 163.81,-108.77 171.59,-107.8"/>
<polygon fill="#63b8ff" stroke="#63b8ff" points="147.1,-107.33 137.61,-112.05 147.97,-114.28 147.1,-107.33"/>
</a>
</g>
</g>
<!-- Node4 -->
<g id="Node000004" class="node">
<title>Node4</title>
<g id="a_Node000004"><a xlink:href="class_ogre_1_1_allocated_object.html" target="_top" xlink:title="Superclass for all objects that wish to use custom memory allocators when their new / delete operator...">
<polygon fill="white" stroke="#666666" points="116.12,-93.25 19.88,-93.25 19.88,-74 116.12,-74 116.12,-93.25"/>
<text text-anchor="middle" x="68" y="-79.75" font-family="Helvetica,sans-Serif" font-size="10.00">BufferPackedAlloc</text>
</a>
</g>
</g>
<!-- Node4&#45;&gt;Node2 -->
<g id="edge3_Node000002_Node000004" class="edge">
<title>Node4&#45;&gt;Node2</title>
<g id="a_edge3_Node000002_Node000004"><a xlink:title=" ">
<path fill="none" stroke="#63b8ff" d="M127.68,-90.57C142.21,-92.29 157.63,-94.12 171.67,-95.78"/>
<polygon fill="#63b8ff" stroke="#63b8ff" points="128.11,-87.1 117.76,-89.4 127.28,-94.05 128.11,-87.1"/>
</a>
</g>
</g>
</g>
</svg>
