<?xml version="1.0" encoding="UTF-8" standalone="no"?>
<!DOCTYPE svg PUBLIC "-//W3C//DTD SVG 1.1//EN"
 "http://www.w3.org/Graphics/SVG/1.1/DTD/svg11.dtd">
<!-- Generated by graphviz version 9.0.0 (20230911.1827)
 -->
<!-- Title: Ogre::D3D11BufferInterfaceBase Pages: 1 -->
<svg width="328pt" height="138pt"
 viewBox="0.00 0.00 328.38 137.75" xmlns="http://www.w3.org/2000/svg" xmlns:xlink="http://www.w3.org/1999/xlink">
<g id="graph0" class="graph" transform="scale(1 1) rotate(0) translate(4 133.75)">
<title>Ogre::D3D11BufferInterfaceBase</title>
<!-- Node1 -->
<g id="Node000001" class="node">
<title>Node1</title>
<g id="a_Node000001"><a xlink:title="For D3D11, most (if not all) buffers, can be treated with the same code.">
<polygon fill="#999999" stroke="#666666" points="229.75,-74.5 72.75,-74.5 72.75,-55.25 229.75,-55.25 229.75,-74.5"/>
<text text-anchor="middle" x="151.25" y="-61" font-family="Helvetica,sans-Serif" font-size="10.00">Ogre::D3D11BufferInterfaceBase</text>
</a>
</g>
</g>
<!-- Node4 -->
<g id="Node000004" class="node">
<title>Node4</title>
<g id="a_Node000004"><a xlink:href="class_ogre_1_1_d3_d11_buffer_interface.html" target="_top" xlink:title="For D3D11, most (if not all) buffers, can be treated with the same code.">
<polygon fill="white" stroke="#666666" points="134.5,-19.25 0,-19.25 0,0 134.5,0 134.5,-19.25"/>
<text text-anchor="middle" x="67.25" y="-5.75" font-family="Helvetica,sans-Serif" font-size="10.00">Ogre::D3D11BufferInterface</text>
</a>
</g>
</g>
<!-- Node1&#45;&gt;Node4 -->
<g id="edge3_Node000001_Node000004" class="edge">
<title>Node1&#45;&gt;Node4</title>
<g id="a_edge3_Node000001_Node000004"><a xlink:title=" ">
<path fill="none" stroke="#63b8ff" d="M127.48,-48.8C112.68,-39.42 94.14,-27.67 81.57,-19.7"/>
<polygon fill="#63b8ff" stroke="#63b8ff" points="125.4,-51.63 135.72,-54.03 129.15,-45.72 125.4,-51.63"/>
</a>
</g>
</g>
<!-- Node5 -->
<g id="Node000005" class="node">
<title>Node5</title>
<g id="a_Node000005"><a xlink:href="class_ogre_1_1_d3_d11_compat_buffer_interface.html" target="_top" xlink:title="In D3D11, const buffers can&#39;t be bound by offset.">
<polygon fill="white" stroke="#666666" points="320.38,-19.25 152.12,-19.25 152.12,0 320.38,0 320.38,-19.25"/>
<text text-anchor="middle" x="236.25" y="-5.75" font-family="Helvetica,sans-Serif" font-size="10.00">Ogre::D3D11CompatBufferInterface</text>
</a>
</g>
</g>
<!-- Node1&#45;&gt;Node5 -->
<g id="edge4_Node000001_Node000005" class="edge">
<title>Node1&#45;&gt;Node5</title>
<g id="a_edge4_Node000001_Node000005"><a xlink:title=" ">
<path fill="none" stroke="#63b8ff" d="M175.31,-48.8C190.28,-39.42 209.04,-27.67 221.76,-19.7"/>
<polygon fill="#63b8ff" stroke="#63b8ff" points="173.57,-45.76 166.95,-54.04 177.28,-51.7 173.57,-45.76"/>
</a>
</g>
</g>
<!-- Node2 -->
<g id="Node000002" class="node">
<title>Node2</title>
<g id="a_Node000002"><a xlink:href="class_ogre_1_1_buffer_interface.html" target="_top" xlink:title="Most (if not all) buffers, can be treated with the same code.">
<polygon fill="white" stroke="#666666" points="132.88,-129.75 27.62,-129.75 27.62,-110.5 132.88,-110.5 132.88,-129.75"/>
<text text-anchor="middle" x="80.25" y="-116.25" font-family="Helvetica,sans-Serif" font-size="10.00">Ogre::BufferInterface</text>
</a>
</g>
</g>
<!-- Node2&#45;&gt;Node1 -->
<g id="edge1_Node000001_Node000002" class="edge">
<title>Node2&#45;&gt;Node1</title>
<g id="a_edge1_Node000001_Node000002"><a xlink:title=" ">
<path fill="none" stroke="#63b8ff" d="M101.5,-103.19C113.89,-93.89 129.07,-82.51 139.38,-74.77"/>
<polygon fill="#63b8ff" stroke="#63b8ff" points="99.41,-100.38 93.51,-109.18 103.61,-105.98 99.41,-100.38"/>
</a>
</g>
</g>
<!-- Node3 -->
<g id="Node000003" class="node">
<title>Node3</title>
<g id="a_Node000003"><a xlink:href="class_ogre_1_1_d3_d11_device_resource.html" target="_top" xlink:title="Represents a Direct3D rendering resource.">
<polygon fill="white" stroke="#666666" points="293.25,-129.75 151.25,-129.75 151.25,-110.5 293.25,-110.5 293.25,-129.75"/>
<text text-anchor="middle" x="222.25" y="-116.25" font-family="Helvetica,sans-Serif" font-size="10.00">Ogre::D3D11DeviceResource</text>
</a>
</g>
</g>
<!-- Node3&#45;&gt;Node1 -->
<g id="edge2_Node000001_Node000003" class="edge">
<title>Node3&#45;&gt;Node1</title>
<g id="a_edge2_Node000001_Node000003"><a xlink:title=" ">
<path fill="none" stroke="#8b1a1a" d="M201,-103.19C188.61,-93.89 173.43,-82.51 163.12,-74.77"/>
<polygon fill="#8b1a1a" stroke="#8b1a1a" points="198.89,-105.98 208.99,-109.18 203.09,-100.38 198.89,-105.98"/>
</a>
</g>
</g>
</g>
</svg>
