<?xml version="1.0" encoding="UTF-8" standalone="no"?>
<!DOCTYPE svg PUBLIC "-//W3C//DTD SVG 1.1//EN"
 "http://www.w3.org/Graphics/SVG/1.1/DTD/svg11.dtd">
<!-- Generated by graphviz version 7.0.5 (20221223.1930)
 -->
<!-- Title: Ogre::MetalTexBufferPacked Pages: 1 -->
<svg width="260pt" height="313pt"
 viewBox="0.00 0.00 260.00 313.00" xmlns="http://www.w3.org/2000/svg" xmlns:xlink="http://www.w3.org/1999/xlink">
<g id="graph0" class="graph" transform="scale(1 1) rotate(0) translate(4 309)">
<title>Ogre::MetalTexBufferPacked</title>
<!-- Node1 -->
<g id="node1" class="node">
<title>Node1</title>
<g id="a_node1"><a xlink:title="In Metal, Tex and ReadOnly buffers are exactly the same, thus we derive from ReadOnlyBufferPacked to ...">
<polygon fill="#999999" stroke="#666666" points="205.5,-85 65.5,-85 65.5,-66 205.5,-66 205.5,-85"/>
<text text-anchor="middle" x="135.5" y="-73" font-family="Helvetica,sans-Serif" font-size="10.00">Ogre::MetalTexBufferPacked</text>
</a>
</g>
</g>
<!-- Node7 -->
<g id="node7" class="node">
<title>Node7</title>
<g id="a_node7"><a xlink:href="class_ogre_1_1_metal_read_only_buffer_packed.html" target="_top" xlink:title=" ">
<polygon fill="white" stroke="#666666" points="202.5,-30 68.5,-30 68.5,0 202.5,0 202.5,-30"/>
<text text-anchor="start" x="76.5" y="-18" font-family="Helvetica,sans-Serif" font-size="10.00">Ogre::MetalReadOnlyBuffer</text>
<text text-anchor="middle" x="135.5" y="-7" font-family="Helvetica,sans-Serif" font-size="10.00">Packed</text>
</a>
</g>
</g>
<!-- Node1&#45;&gt;Node7 -->
<g id="edge6" class="edge">
<title>Node1&#45;&gt;Node7</title>
<path fill="none" stroke="#63b8ff" d="M135.5,-54.51C135.5,-46.49 135.5,-37.43 135.5,-30.11"/>
<polygon fill="#63b8ff" stroke="#63b8ff" points="132,-54.35 135.5,-64.35 139,-54.35 132,-54.35"/>
</g>
<!-- Node2 -->
<g id="node2" class="node">
<title>Node2</title>
<g id="a_node2"><a xlink:href="class_ogre_1_1_read_only_buffer_packed.html" target="_top" xlink:title="Represents the best way to access read&#45;only data.">
<polygon fill="white" stroke="#666666" points="207,-140 64,-140 64,-121 207,-121 207,-140"/>
<text text-anchor="middle" x="135.5" y="-128" font-family="Helvetica,sans-Serif" font-size="10.00">Ogre::ReadOnlyBufferPacked</text>
</a>
</g>
</g>
<!-- Node2&#45;&gt;Node1 -->
<g id="edge1" class="edge">
<title>Node2&#45;&gt;Node1</title>
<path fill="none" stroke="#63b8ff" d="M135.5,-109.35C135.5,-101.1 135.5,-91.97 135.5,-85.44"/>
<polygon fill="#63b8ff" stroke="#63b8ff" points="132,-109.23 135.5,-119.23 139,-109.23 132,-109.23"/>
</g>
<!-- Node3 -->
<g id="node3" class="node">
<title>Node3</title>
<g id="a_node3"><a xlink:href="class_ogre_1_1_tex_buffer_packed.html" target="_top" xlink:title="Represents Texture buffers (also known as tbuffers in D3D11)">
<polygon fill="white" stroke="#666666" points="193.5,-195 77.5,-195 77.5,-176 193.5,-176 193.5,-195"/>
<text text-anchor="middle" x="135.5" y="-183" font-family="Helvetica,sans-Serif" font-size="10.00">Ogre::TexBufferPacked</text>
</a>
</g>
</g>
<!-- Node3&#45;&gt;Node2 -->
<g id="edge2" class="edge">
<title>Node3&#45;&gt;Node2</title>
<path fill="none" stroke="#63b8ff" d="M135.5,-164.35C135.5,-156.1 135.5,-146.97 135.5,-140.44"/>
<polygon fill="#63b8ff" stroke="#63b8ff" points="132,-164.23 135.5,-174.23 139,-164.23 132,-164.23"/>
</g>
<!-- Node4 -->
<g id="node4" class="node">
<title>Node4</title>
<g id="a_node4"><a xlink:href="class_ogre_1_1_buffer_packed.html" target="_top" xlink:title=" ">
<polygon fill="white" stroke="#666666" points="186,-250 85,-250 85,-231 186,-231 186,-250"/>
<text text-anchor="middle" x="135.5" y="-238" font-family="Helvetica,sans-Serif" font-size="10.00">Ogre::BufferPacked</text>
</a>
</g>
</g>
<!-- Node4&#45;&gt;Node3 -->
<g id="edge3" class="edge">
<title>Node4&#45;&gt;Node3</title>
<path fill="none" stroke="#63b8ff" d="M135.5,-219.35C135.5,-211.1 135.5,-201.97 135.5,-195.44"/>
<polygon fill="#63b8ff" stroke="#63b8ff" points="132,-219.23 135.5,-229.23 139,-219.23 132,-219.23"/>
</g>
<!-- Node5 -->
<g id="node5" class="node">
<title>Node5</title>
<g id="a_node5"><a xlink:href="struct_ogre_1_1_gpu_tracked_resource.html" target="_top" xlink:title=" ">
<polygon fill="white" stroke="#666666" points="137,-305 0,-305 0,-286 137,-286 137,-305"/>
<text text-anchor="middle" x="68.5" y="-293" font-family="Helvetica,sans-Serif" font-size="10.00">Ogre::GpuTrackedResource</text>
</a>
</g>
</g>
<!-- Node5&#45;&gt;Node4 -->
<g id="edge4" class="edge">
<title>Node5&#45;&gt;Node4</title>
<path fill="none" stroke="#63b8ff" d="M88.55,-278.64C100.25,-269.39 114.57,-258.05 124.3,-250.36"/>
<polygon fill="#63b8ff" stroke="#63b8ff" points="86.72,-275.62 81.05,-284.57 91.07,-281.11 86.72,-275.62"/>
</g>
<!-- Node6 -->
<g id="node6" class="node">
<title>Node6</title>
<g id="a_node6"><a xlink:href="class_ogre_1_1_allocated_object.html" target="_top" xlink:title="Superclass for all objects that wish to use custom memory allocators when their new / delete operator...">
<polygon fill="white" stroke="#666666" points="252,-305 155,-305 155,-286 252,-286 252,-305"/>
<text text-anchor="middle" x="203.5" y="-293" font-family="Helvetica,sans-Serif" font-size="10.00">BufferPackedAlloc</text>
</a>
</g>
</g>
<!-- Node6&#45;&gt;Node4 -->
<g id="edge5" class="edge">
<title>Node6&#45;&gt;Node4</title>
<path fill="none" stroke="#63b8ff" d="M183.15,-278.64C171.28,-269.39 156.74,-258.05 146.86,-250.36"/>
<polygon fill="#63b8ff" stroke="#63b8ff" points="180.73,-281.19 190.77,-284.58 185.04,-275.67 180.73,-281.19"/>
</g>
</g>
</svg>
