<?xml version="1.0" encoding="UTF-8" standalone="no"?>
<!DOCTYPE svg PUBLIC "-//W3C//DTD SVG 1.1//EN"
 "http://www.w3.org/Graphics/SVG/1.1/DTD/svg11.dtd">
<!-- Generated by graphviz version 9.0.0 (20230911.1827)
 -->
<!-- Title: Ogre::ScriptLoader Pages: 1 -->
<svg width="671pt" height="434pt"
 viewBox="0.00 0.00 670.50 434.25" xmlns="http://www.w3.org/2000/svg" xmlns:xlink="http://www.w3.org/1999/xlink">
<g id="graph0" class="graph" transform="scale(1 1) rotate(0) translate(4 430.25)">
<title>Ogre::ScriptLoader</title>
<!-- Node1 -->
<g id="Node000001" class="node">
<title>Node1</title>
<g id="a_Node000001"><a xlink:title="Abstract class defining the interface used by classes which wish to perform script loading to define ...">
<polygon fill="#999999" stroke="#666666" points="97,-234.25 0,-234.25 0,-215 97,-215 97,-234.25"/>
<text text-anchor="middle" x="48.5" y="-220.75" font-family="Helvetica,sans-Serif" font-size="10.00">Ogre::ScriptLoader</text>
</a>
</g>
</g>
<!-- Node2 -->
<g id="Node000002" class="node">
<title>Node2</title>
<g id="a_Node000002"><a xlink:href="class_ogre_1_1_hlms_manager.html" target="_top" xlink:title="HLMS stands for &quot;High Level Material System&quot;.">
<polygon fill="white" stroke="#666666" points="256.62,-327.25 154.38,-327.25 154.38,-308 256.62,-308 256.62,-327.25"/>
<text text-anchor="middle" x="205.5" y="-313.75" font-family="Helvetica,sans-Serif" font-size="10.00">Ogre::HlmsManager</text>
</a>
</g>
</g>
<!-- Node1&#45;&gt;Node2 -->
<g id="edge1_Node000001_Node000002" class="edge">
<title>Node1&#45;&gt;Node2</title>
<g id="a_edge1_Node000001_Node000002"><a xlink:title=" ">
<path fill="none" stroke="#63b8ff" d="M65.21,-243.17C80.73,-260.32 106.01,-285.25 133,-299.62 139.55,-303.11 146.81,-305.95 154.11,-308.24"/>
<polygon fill="#63b8ff" stroke="#63b8ff" points="67.87,-240.9 58.64,-235.7 62.61,-245.52 67.87,-240.9"/>
</a>
</g>
</g>
<!-- Node3 -->
<g id="Node000003" class="node">
<title>Node3</title>
<g id="a_Node000003"><a xlink:href="class_ogre_1_1_particle_system_manager.html" target="_top" xlink:title="Manages particle systems, particle system scripts (templates) and the available emitter &amp; affector fa...">
<polygon fill="white" stroke="#666666" points="278,-290.25 133,-290.25 133,-271 278,-271 278,-290.25"/>
<text text-anchor="middle" x="205.5" y="-276.75" font-family="Helvetica,sans-Serif" font-size="10.00">Ogre::ParticleSystemManager</text>
</a>
</g>
</g>
<!-- Node1&#45;&gt;Node3 -->
<g id="edge2_Node000001_Node000003" class="edge">
<title>Node1&#45;&gt;Node3</title>
<g id="a_edge2_Node000001_Node000003"><a xlink:title=" ">
<path fill="none" stroke="#63b8ff" d="M79.16,-239.7C94.88,-247.29 114.68,-256.21 133,-262.62 141.34,-265.54 150.37,-268.2 159.13,-270.52"/>
<polygon fill="#63b8ff" stroke="#63b8ff" points="80.87,-236.65 70.35,-235.38 77.79,-242.93 80.87,-236.65"/>
</a>
</g>
</g>
<!-- Node4 -->
<g id="Node000004" class="node">
<title>Node4</title>
<g id="a_Node000004"><a xlink:href="class_ogre_1_1_quake3_shader_manager.html" target="_top" xlink:title="Class for managing Quake3 custom shaders.">
<polygon fill="white" stroke="#666666" points="277.25,-253.25 133.75,-253.25 133.75,-234 277.25,-234 277.25,-253.25"/>
<text text-anchor="middle" x="205.5" y="-239.75" font-family="Helvetica,sans-Serif" font-size="10.00">Ogre::Quake3ShaderManager</text>
</a>
</g>
</g>
<!-- Node1&#45;&gt;Node4 -->
<g id="edge3_Node000001_Node000004" class="edge">
<title>Node1&#45;&gt;Node4</title>
<g id="a_edge3_Node000001_Node000004"><a xlink:title=" ">
<path fill="none" stroke="#63b8ff" d="M108.57,-231.87C116.73,-232.87 125.18,-233.9 133.52,-234.92"/>
<polygon fill="#63b8ff" stroke="#63b8ff" points="109.12,-228.41 98.77,-230.66 108.27,-235.36 109.12,-228.41"/>
</a>
</g>
</g>
<!-- Node5 -->
<g id="Node000005" class="node">
<title>Node5</title>
<g id="a_Node000005"><a xlink:href="class_ogre_1_1_resource_manager.html" target="_top" xlink:title="Defines a generic resource handler.">
<polygon fill="white" stroke="#666666" points="265.62,-216.25 145.38,-216.25 145.38,-197 265.62,-197 265.62,-216.25"/>
<text text-anchor="middle" x="205.5" y="-202.75" font-family="Helvetica,sans-Serif" font-size="10.00">Ogre::ResourceManager</text>
</a>
</g>
</g>
<!-- Node1&#45;&gt;Node5 -->
<g id="edge4_Node000001_Node000005" class="edge">
<title>Node1&#45;&gt;Node5</title>
<g id="a_edge4_Node000001_Node000005"><a xlink:title=" ">
<path fill="none" stroke="#63b8ff" d="M108.53,-217.77C120.52,-216.38 133.13,-214.91 145.13,-213.52"/>
<polygon fill="#63b8ff" stroke="#63b8ff" points="108.3,-214.27 98.77,-218.9 109.11,-221.23 108.3,-214.27"/>
</a>
</g>
</g>
<!-- Node27 -->
<g id="Node000027" class="node">
<title>Node27</title>
<g id="a_Node000027"><a xlink:href="class_ogre_1_1_script_compiler_manager.html" target="_top" xlink:title="Manages threaded compilation of scripts.">
<polygon fill="white" stroke="#666666" points="276.88,-179.25 134.12,-179.25 134.12,-160 276.88,-160 276.88,-179.25"/>
<text text-anchor="middle" x="205.5" y="-165.75" font-family="Helvetica,sans-Serif" font-size="10.00">Ogre::ScriptCompilerManager</text>
</a>
</g>
</g>
<!-- Node1&#45;&gt;Node27 -->
<g id="edge26_Node000001_Node000027" class="edge">
<title>Node1&#45;&gt;Node27</title>
<g id="a_edge26_Node000001_Node000027"><a xlink:title=" ">
<path fill="none" stroke="#63b8ff" d="M79.83,-209.69C95.46,-202.38 114.97,-193.84 133,-187.62 141.47,-184.71 150.66,-182.04 159.53,-179.7"/>
<polygon fill="#63b8ff" stroke="#63b8ff" points="78.59,-206.4 71.07,-213.86 81.6,-212.72 78.59,-206.4"/>
</a>
</g>
</g>
<!-- Node28 -->
<g id="Node000028" class="node">
<title>Node28</title>
<g id="a_Node000028"><a xlink:href="class_ogre_1_1v1_1_1_overlay_manager.html" target="_top" xlink:title="Manages Overlay objects, parsing them from .overlay files and storing a lookup library of them.">
<polygon fill="white" stroke="#666666" points="269,-142.25 142,-142.25 142,-123 269,-123 269,-142.25"/>
<text text-anchor="middle" x="205.5" y="-128.75" font-family="Helvetica,sans-Serif" font-size="10.00">Ogre::v1::OverlayManager</text>
</a>
</g>
</g>
<!-- Node1&#45;&gt;Node28 -->
<g id="edge27_Node000001_Node000028" class="edge">
<title>Node1&#45;&gt;Node28</title>
<g id="a_edge27_Node000001_Node000028"><a xlink:title=" ">
<path fill="none" stroke="#63b8ff" d="M65.51,-206.06C81.09,-189.16 106.26,-164.74 133,-150.62 139,-147.46 145.58,-144.83 152.24,-142.65"/>
<polygon fill="#63b8ff" stroke="#63b8ff" points="62.97,-203.66 58.9,-213.44 68.18,-208.33 62.97,-203.66"/>
</a>
</g>
</g>
<!-- Node6 -->
<g id="Node000006" class="node">
<title>Node6</title>
<g id="a_Node000006"><a xlink:href="class_ogre_1_1_bsp_resource_manager.html" target="_top" xlink:title="Manages the locating and loading of BSP&#45;based indoor levels.">
<polygon fill="white" stroke="#666666" points="456.38,-376.25 318.88,-376.25 318.88,-357 456.38,-357 456.38,-376.25"/>
<text text-anchor="middle" x="387.62" y="-362.75" font-family="Helvetica,sans-Serif" font-size="10.00">Ogre::BspResourceManager</text>
</a>
</g>
</g>
<!-- Node5&#45;&gt;Node6 -->
<g id="edge5_Node000005_Node000006" class="edge">
<title>Node5&#45;&gt;Node6</title>
<g id="a_edge5_Node000005_Node000006"><a xlink:title=" ">
<path fill="none" stroke="#63b8ff" d="M275.2,-222.14C276.17,-222.93 277.1,-223.76 278,-224.62 319.3,-264.47 272.63,-308.86 314,-348.62 317.28,-351.78 321.02,-354.4 325.03,-356.59"/>
<polygon fill="#63b8ff" stroke="#63b8ff" points="277.35,-219.36 267.05,-216.85 273.53,-225.23 277.35,-219.36"/>
</a>
</g>
</g>
<!-- Node7 -->
<g id="Node000007" class="node">
<title>Node7</title>
<g id="a_Node000007"><a xlink:href="class_ogre_1_1_font_manager.html" target="_top" xlink:title="Manages Font resources, parsing .fontdef files and generally organising them.">
<polygon fill="white" stroke="#666666" points="436.88,-339.25 338.38,-339.25 338.38,-320 436.88,-320 436.88,-339.25"/>
<text text-anchor="middle" x="387.62" y="-325.75" font-family="Helvetica,sans-Serif" font-size="10.00">Ogre::FontManager</text>
</a>
</g>
</g>
<!-- Node5&#45;&gt;Node7 -->
<g id="edge6_Node000005_Node000007" class="edge">
<title>Node5&#45;&gt;Node7</title>
<g id="a_edge6_Node000005_Node000007"><a xlink:title=" ">
<path fill="none" stroke="#63b8ff" d="M275.52,-222.62C276.37,-223.26 277.19,-223.93 278,-224.62 309.67,-251.98 282.28,-284.33 314,-311.62 320.89,-317.56 329.44,-321.59 338.23,-324.32"/>
<polygon fill="#63b8ff" stroke="#63b8ff" points="277.38,-219.65 267.03,-217.42 273.73,-225.63 277.38,-219.65"/>
</a>
</g>
</g>
<!-- Node8 -->
<g id="Node000008" class="node">
<title>Node8</title>
<g id="a_Node000008"><a xlink:href="class_ogre_1_1_gpu_program_manager.html" target="_top" xlink:title=" ">
<polygon fill="white" stroke="#666666" points="454.5,-302.25 320.75,-302.25 320.75,-283 454.5,-283 454.5,-302.25"/>
<text text-anchor="middle" x="387.62" y="-288.75" font-family="Helvetica,sans-Serif" font-size="10.00">Ogre::GpuProgramManager</text>
</a>
</g>
</g>
<!-- Node5&#45;&gt;Node8 -->
<g id="edge7_Node000005_Node000008" class="edge">
<title>Node5&#45;&gt;Node8</title>
<g id="a_edge7_Node000005_Node000008"><a xlink:title=" ">
<path fill="none" stroke="#63b8ff" d="M273.01,-221.57C274.73,-222.53 276.39,-223.54 278,-224.62 300.43,-239.7 291.64,-258.44 314,-273.62 319.39,-277.29 325.45,-280.24 331.7,-282.63"/>
<polygon fill="#63b8ff" stroke="#63b8ff" points="274.68,-218.49 264.14,-217.39 271.69,-224.82 274.68,-218.49"/>
</a>
</g>
</g>
<!-- Node15 -->
<g id="Node000015" class="node">
<title>Node15</title>
<g id="a_Node000015"><a xlink:href="class_ogre_1_1_high_level_gpu_program_manager.html" target="_top" xlink:title="This ResourceManager manages high&#45;level vertex and fragment programs.">
<polygon fill="white" stroke="#666666" points="457.88,-264.88 317.38,-264.88 317.38,-234.38 457.88,-234.38 457.88,-264.88"/>
<text text-anchor="start" x="325.38" y="-251.38" font-family="Helvetica,sans-Serif" font-size="10.00">Ogre::HighLevelGpuProgram</text>
<text text-anchor="middle" x="387.62" y="-240.12" font-family="Helvetica,sans-Serif" font-size="10.00">Manager</text>
</a>
</g>
</g>
<!-- Node5&#45;&gt;Node15 -->
<g id="edge14_Node000005_Node000015" class="edge">
<title>Node5&#45;&gt;Node15</title>
<g id="a_edge14_Node000005_Node000015"><a xlink:title=" ">
<path fill="none" stroke="#63b8ff" d="M259.92,-219.38C278.99,-223.93 300.69,-229.11 320.69,-233.88"/>
<polygon fill="#63b8ff" stroke="#63b8ff" points="260.74,-215.98 250.2,-217.06 259.12,-222.78 260.74,-215.98"/>
</a>
</g>
</g>
<!-- Node16 -->
<g id="Node000016" class="node">
<title>Node16</title>
<g id="a_Node000016"><a xlink:href="class_ogre_1_1_material_manager.html" target="_top" xlink:title="Class for managing Material settings for Ogre.">
<polygon fill="white" stroke="#666666" points="444.38,-216.25 330.88,-216.25 330.88,-197 444.38,-197 444.38,-216.25"/>
<text text-anchor="middle" x="387.62" y="-202.75" font-family="Helvetica,sans-Serif" font-size="10.00">Ogre::MaterialManager</text>
</a>
</g>
</g>
<!-- Node5&#45;&gt;Node16 -->
<g id="edge15_Node000005_Node000016" class="edge">
<title>Node5&#45;&gt;Node16</title>
<g id="a_edge15_Node000005_Node000016"><a xlink:title=" ">
<path fill="none" stroke="#63b8ff" d="M277.4,-206.62C295.06,-206.62 313.74,-206.62 330.57,-206.62"/>
<polygon fill="#63b8ff" stroke="#63b8ff" points="277.49,-203.13 267.49,-206.63 277.49,-210.13 277.49,-203.13"/>
</a>
</g>
</g>
<!-- Node17 -->
<g id="Node000017" class="node">
<title>Node17</title>
<g id="a_Node000017"><a xlink:href="class_ogre_1_1_mesh_manager.html" target="_top" xlink:title="Handles the management of mesh resources.">
<polygon fill="white" stroke="#666666" points="439.12,-179.25 336.12,-179.25 336.12,-160 439.12,-160 439.12,-179.25"/>
<text text-anchor="middle" x="387.62" y="-165.75" font-family="Helvetica,sans-Serif" font-size="10.00">Ogre::MeshManager</text>
</a>
</g>
</g>
<!-- Node5&#45;&gt;Node17 -->
<g id="edge16_Node000005_Node000017" class="edge">
<title>Node5&#45;&gt;Node17</title>
<g id="a_edge16_Node000005_Node000017"><a xlink:title=" ">
<path fill="none" stroke="#63b8ff" d="M266.74,-194.25C289.72,-189.53 315.63,-184.21 337.46,-179.72"/>
<polygon fill="#63b8ff" stroke="#63b8ff" points="266.29,-190.77 257.2,-196.21 267.7,-197.63 266.29,-190.77"/>
</a>
</g>
</g>
<!-- Node18 -->
<g id="Node000018" class="node">
<title>Node18</title>
<g id="a_Node000018"><a xlink:href="class_ogre_1_1_texture_manager.html" target="_top" xlink:title="Class for loading &amp; managing textures.">
<polygon fill="white" stroke="#666666" points="443.25,-142.25 332,-142.25 332,-123 443.25,-123 443.25,-142.25"/>
<text text-anchor="middle" x="387.62" y="-128.75" font-family="Helvetica,sans-Serif" font-size="10.00">Ogre::TextureManager</text>
</a>
</g>
</g>
<!-- Node5&#45;&gt;Node18 -->
<g id="edge17_Node000005_Node000018" class="edge">
<title>Node5&#45;&gt;Node18</title>
<g id="a_edge17_Node000005_Node000018"><a xlink:title=" ">
<path fill="none" stroke="#63b8ff" d="M271.16,-192.22C273.51,-191.11 275.8,-189.91 278,-188.62 298.08,-176.87 293.9,-162.34 314,-150.62 319.5,-147.42 325.55,-144.78 331.75,-142.61"/>
<polygon fill="#63b8ff" stroke="#63b8ff" points="269.86,-188.97 261.93,-195.99 272.51,-195.45 269.86,-188.97"/>
</a>
</g>
</g>
<!-- Node25 -->
<g id="Node000025" class="node">
<title>Node25</title>
<g id="a_Node000025"><a xlink:href="class_ogre_1_1v1_1_1_mesh_manager.html" target="_top" xlink:title="Handles the management of mesh resources.">
<polygon fill="white" stroke="#666666" points="446.62,-105.25 328.62,-105.25 328.62,-86 446.62,-86 446.62,-105.25"/>
<text text-anchor="middle" x="387.62" y="-91.75" font-family="Helvetica,sans-Serif" font-size="10.00">Ogre::v1::MeshManager</text>
</a>
</g>
</g>
<!-- Node5&#45;&gt;Node25 -->
<g id="edge24_Node000005_Node000025" class="edge">
<title>Node5&#45;&gt;Node25</title>
<g id="a_edge24_Node000005_Node000025"><a xlink:title=" ">
<path fill="none" stroke="#63b8ff" d="M275.01,-190.89C276.04,-190.17 277.03,-189.41 278,-188.62 306.63,-165.23 285.32,-136.96 314,-113.62 318.33,-110.1 323.26,-107.25 328.46,-104.95"/>
<polygon fill="#63b8ff" stroke="#63b8ff" points="273.42,-187.77 266.5,-195.8 276.92,-193.84 273.42,-187.77"/>
</a>
</g>
</g>
<!-- Node26 -->
<g id="Node000026" class="node">
<title>Node26</title>
<g id="a_Node000026"><a xlink:href="class_ogre_1_1v1_1_1_old_skeleton_manager.html" target="_top" xlink:title="Handles the management of skeleton resources.">
<polygon fill="white" stroke="#666666" points="461.25,-68.25 314,-68.25 314,-49 461.25,-49 461.25,-68.25"/>
<text text-anchor="middle" x="387.62" y="-54.75" font-family="Helvetica,sans-Serif" font-size="10.00">Ogre::v1::OldSkeletonManager</text>
</a>
</g>
</g>
<!-- Node5&#45;&gt;Node26 -->
<g id="edge25_Node000005_Node000026" class="edge">
<title>Node5&#45;&gt;Node26</title>
<g id="a_edge25_Node000005_Node000026"><a xlink:title=" ">
<path fill="none" stroke="#63b8ff" d="M275.6,-190.72C276.42,-190.05 277.22,-189.35 278,-188.62 316.14,-152.86 275.79,-112.32 314,-76.62 317.42,-73.43 321.31,-70.78 325.48,-68.58"/>
<polygon fill="#63b8ff" stroke="#63b8ff" points="273.78,-187.73 267.29,-196.11 277.59,-193.61 273.78,-187.73"/>
</a>
</g>
</g>
<!-- Node9 -->
<g id="Node000009" class="node">
<title>Node9</title>
<g id="a_Node000009"><a xlink:href="class_ogre_1_1_d3_d11_gpu_program_manager.html" target="_top" xlink:title=" ">
<polygon fill="white" stroke="#666666" points="661.38,-426.25 498.38,-426.25 498.38,-407 661.38,-407 661.38,-426.25"/>
<text text-anchor="middle" x="579.88" y="-412.75" font-family="Helvetica,sans-Serif" font-size="10.00">Ogre::D3D11GpuProgramManager</text>
</a>
</g>
</g>
<!-- Node8&#45;&gt;Node9 -->
<g id="edge8_Node000008_Node000009" class="edge">
<title>Node8&#45;&gt;Node9</title>
<g id="a_edge8_Node000008_Node000009"><a xlink:title=" ">
<path fill="none" stroke="#63b8ff" d="M458.8,-308.64C459.64,-309.28 460.45,-309.94 461.25,-310.62 493.22,-338.26 464.92,-371.41 497.25,-398.62 501.02,-401.8 505.24,-404.45 509.7,-406.66"/>
<polygon fill="#63b8ff" stroke="#63b8ff" points="460.79,-305.76 450.44,-303.5 457.13,-311.72 460.79,-305.76"/>
</a>
</g>
</g>
<!-- Node10 -->
<g id="Node000010" class="node">
<title>Node10</title>
<g id="a_Node000010"><a xlink:href="class_ogre_1_1_d3_d9_gpu_program_manager.html" target="_top" xlink:title=" ">
<polygon fill="white" stroke="#666666" points="658.75,-389.25 501,-389.25 501,-370 658.75,-370 658.75,-389.25"/>
<text text-anchor="middle" x="579.88" y="-375.75" font-family="Helvetica,sans-Serif" font-size="10.00">Ogre::D3D9GpuProgramManager</text>
</a>
</g>
</g>
<!-- Node8&#45;&gt;Node10 -->
<g id="edge9_Node000008_Node000010" class="edge">
<title>Node8&#45;&gt;Node10</title>
<g id="a_edge9_Node000008_Node000010"><a xlink:title=" ">
<path fill="none" stroke="#63b8ff" d="M456.33,-307.57C458.02,-308.52 459.66,-309.54 461.25,-310.62 484.16,-326.28 474.14,-346.27 497.25,-361.62 501.96,-364.76 507.14,-367.35 512.52,-369.5"/>
<polygon fill="#63b8ff" stroke="#63b8ff" points="458.11,-304.54 447.58,-303.38 455.09,-310.85 458.11,-304.54"/>
</a>
</g>
</g>
<!-- Node11 -->
<g id="Node000011" class="node">
<title>Node11</title>
<g id="a_Node000011"><a xlink:href="class_ogre_1_1_g_l_e_s2_gpu_program_manager.html" target="_top" xlink:title=" ">
<polygon fill="white" stroke="#666666" points="662.5,-352.25 497.25,-352.25 497.25,-333 662.5,-333 662.5,-352.25"/>
<text text-anchor="middle" x="579.88" y="-338.75" font-family="Helvetica,sans-Serif" font-size="10.00">Ogre::GLES2GpuProgramManager</text>
</a>
</g>
</g>
<!-- Node8&#45;&gt;Node11 -->
<g id="edge10_Node000008_Node000011" class="edge">
<title>Node8&#45;&gt;Node11</title>
<g id="a_edge10_Node000008_Node000011"><a xlink:title=" ">
<path fill="none" stroke="#63b8ff" d="M444.15,-305.61C449.95,-307.2 455.74,-308.88 461.25,-310.62 477.62,-315.81 480.82,-319.65 497.25,-324.62 506.97,-327.57 517.48,-330.25 527.62,-332.59"/>
<polygon fill="#63b8ff" stroke="#63b8ff" points="445.07,-302.23 434.51,-303.06 443.28,-309 445.07,-302.23"/>
</a>
</g>
</g>
<!-- Node12 -->
<g id="Node000012" class="node">
<title>Node12</title>
<g id="a_Node000012"><a xlink:href="class_ogre_1_1_g_l_s_l_shader_manager.html" target="_top" xlink:title=" ">
<polygon fill="white" stroke="#666666" points="647.88,-315.25 511.88,-315.25 511.88,-296 647.88,-296 647.88,-315.25"/>
<text text-anchor="middle" x="579.88" y="-301.75" font-family="Helvetica,sans-Serif" font-size="10.00">Ogre::GLSLShaderManager</text>
</a>
</g>
</g>
<!-- Node8&#45;&gt;Node12 -->
<g id="edge11_Node000008_Node000012" class="edge">
<title>Node8&#45;&gt;Node12</title>
<g id="a_edge11_Node000008_Node000012"><a xlink:title=" ">
<path fill="none" stroke="#63b8ff" d="M466.24,-297.93C481.26,-298.96 496.89,-300.02 511.55,-301.02"/>
<polygon fill="#63b8ff" stroke="#63b8ff" points="466.62,-294.45 456.41,-297.26 466.15,-301.43 466.62,-294.45"/>
</a>
</g>
</g>
<!-- Node13 -->
<g id="Node000013" class="node">
<title>Node13</title>
<g id="a_Node000013"><a xlink:href="class_ogre_1_1_metal_gpu_program_manager.html" target="_top" xlink:title=" ">
<polygon fill="white" stroke="#666666" points="658.75,-278.25 501,-278.25 501,-259 658.75,-259 658.75,-278.25"/>
<text text-anchor="middle" x="579.88" y="-264.75" font-family="Helvetica,sans-Serif" font-size="10.00">Ogre::MetalGpuProgramManager</text>
</a>
</g>
</g>
<!-- Node8&#45;&gt;Node13 -->
<g id="edge12_Node000008_Node000013" class="edge">
<title>Node8&#45;&gt;Node13</title>
<g id="a_edge12_Node000008_Node000013"><a xlink:title=" ">
<path fill="none" stroke="#63b8ff" d="M466.16,-282.84C477.57,-281.4 489.33,-279.92 500.75,-278.48"/>
<polygon fill="#63b8ff" stroke="#63b8ff" points="465.88,-279.35 456.4,-284.08 466.76,-286.3 465.88,-279.35"/>
</a>
</g>
</g>
<!-- Node14 -->
<g id="Node000014" class="node">
<title>Node14</title>
<g id="a_Node000014"><a xlink:href="class_ogre_1_1_vulkan_gpu_program_manager.html" target="_top" xlink:title=" ">
<polygon fill="white" stroke="#666666" points="661.75,-241.25 498,-241.25 498,-222 661.75,-222 661.75,-241.25"/>
<text text-anchor="middle" x="579.88" y="-227.75" font-family="Helvetica,sans-Serif" font-size="10.00">Ogre::VulkanGpuProgramManager</text>
</a>
</g>
</g>
<!-- Node8&#45;&gt;Node14 -->
<g id="edge13_Node000008_Node000014" class="edge">
<title>Node8&#45;&gt;Node14</title>
<g id="a_edge13_Node000008_Node000014"><a xlink:title=" ">
<path fill="none" stroke="#63b8ff" d="M447.04,-279.19C451.92,-277.51 456.71,-275.66 461.25,-273.62 478.79,-265.75 479.56,-257.16 497.25,-249.62 504.59,-246.5 512.55,-243.88 520.51,-241.71"/>
<polygon fill="#63b8ff" stroke="#63b8ff" points="446.21,-275.78 437.73,-282.13 448.32,-282.45 446.21,-275.78"/>
</a>
</g>
</g>
<!-- Node19 -->
<g id="Node000019" class="node">
<title>Node19</title>
<g id="a_Node000019"><a xlink:href="class_ogre_1_1_d3_d11_texture_manager.html" target="_top" xlink:title=" ">
<polygon fill="white" stroke="#666666" points="650.12,-204.25 509.62,-204.25 509.62,-185 650.12,-185 650.12,-204.25"/>
<text text-anchor="middle" x="579.88" y="-190.75" font-family="Helvetica,sans-Serif" font-size="10.00">Ogre::D3D11TextureManager</text>
</a>
</g>
</g>
<!-- Node18&#45;&gt;Node19 -->
<g id="edge18_Node000018_Node000019" class="edge">
<title>Node18&#45;&gt;Node19</title>
<g id="a_edge18_Node000018_Node000019"><a xlink:title=" ">
<path fill="none" stroke="#63b8ff" d="M450.79,-146.32C454.38,-147.63 457.89,-149.07 461.25,-150.62 479.15,-158.93 479.24,-168.55 497.25,-176.62 504.27,-179.77 511.88,-182.38 519.54,-184.55"/>
<polygon fill="#63b8ff" stroke="#63b8ff" points="451.91,-143 441.31,-143.17 449.7,-149.64 451.91,-143"/>
</a>
</g>
</g>
<!-- Node20 -->
<g id="Node000020" class="node">
<title>Node20</title>
<g id="a_Node000020"><a xlink:href="class_ogre_1_1_d3_d9_texture_manager.html" target="_top" xlink:title=" ">
<polygon fill="white" stroke="#666666" points="647.5,-167.25 512.25,-167.25 512.25,-148 647.5,-148 647.5,-167.25"/>
<text text-anchor="middle" x="579.88" y="-153.75" font-family="Helvetica,sans-Serif" font-size="10.00">Ogre::D3D9TextureManager</text>
</a>
</g>
</g>
<!-- Node18&#45;&gt;Node20 -->
<g id="edge19_Node000018_Node000020" class="edge">
<title>Node18&#45;&gt;Node20</title>
<g id="a_edge19_Node000018_Node000020"><a xlink:title=" ">
<path fill="none" stroke="#63b8ff" d="M454.89,-141.33C473.32,-143.75 493.35,-146.39 511.82,-148.81"/>
<polygon fill="#63b8ff" stroke="#63b8ff" points="455.52,-137.89 445.15,-140.05 454.61,-144.83 455.52,-137.89"/>
</a>
</g>
</g>
<!-- Node21 -->
<g id="Node000021" class="node">
<title>Node21</title>
<g id="a_Node000021"><a xlink:href="class_ogre_1_1_g_l3_plus_texture_manager.html" target="_top" xlink:title="GL3Plus&#45;specific implementation of a TextureManager.">
<polygon fill="white" stroke="#666666" points="654.62,-130.25 505.12,-130.25 505.12,-111 654.62,-111 654.62,-130.25"/>
<text text-anchor="middle" x="579.88" y="-116.75" font-family="Helvetica,sans-Serif" font-size="10.00">Ogre::GL3PlusTextureManager</text>
</a>
</g>
</g>
<!-- Node18&#45;&gt;Node21 -->
<g id="edge20_Node000018_Node000021" class="edge">
<title>Node18&#45;&gt;Node21</title>
<g id="a_edge20_Node000018_Node000021"><a xlink:title=" ">
<path fill="none" stroke="#63b8ff" d="M455.11,-128.43C471.19,-127.42 488.46,-126.33 504.86,-125.29"/>
<polygon fill="#63b8ff" stroke="#63b8ff" points="454.92,-124.94 445.16,-129.06 455.36,-131.92 454.92,-124.94"/>
</a>
</g>
</g>
<!-- Node22 -->
<g id="Node000022" class="node">
<title>Node22</title>
<g id="a_Node000022"><a xlink:href="class_ogre_1_1_g_l_e_s2_texture_manager.html" target="_top" xlink:title="GL ES&#45;specific implementation of a TextureManager.">
<polygon fill="white" stroke="#666666" points="651.25,-93.25 508.5,-93.25 508.5,-74 651.25,-74 651.25,-93.25"/>
<text text-anchor="middle" x="579.88" y="-79.75" font-family="Helvetica,sans-Serif" font-size="10.00">Ogre::GLES2TextureManager</text>
</a>
</g>
</g>
<!-- Node18&#45;&gt;Node22 -->
<g id="edge21_Node000018_Node000022" class="edge">
<title>Node18&#45;&gt;Node22</title>
<g id="a_edge21_Node000018_Node000022"><a xlink:title=" ">
<path fill="none" stroke="#63b8ff" d="M443.42,-119.69C449.46,-118.07 455.5,-116.37 461.25,-114.62 477.53,-109.68 480.91,-106.36 497.25,-101.62 507.29,-98.72 518.13,-96.02 528.54,-93.65"/>
<polygon fill="#63b8ff" stroke="#63b8ff" points="442.87,-116.22 434.07,-122.12 444.63,-122.99 442.87,-116.22"/>
</a>
</g>
</g>
<!-- Node23 -->
<g id="Node000023" class="node">
<title>Node23</title>
<g id="a_Node000023"><a xlink:href="class_ogre_1_1_metal_texture_manager.html" target="_top" xlink:title=" ">
<polygon fill="white" stroke="#666666" points="647.5,-56.25 512.25,-56.25 512.25,-37 647.5,-37 647.5,-56.25"/>
<text text-anchor="middle" x="579.88" y="-42.75" font-family="Helvetica,sans-Serif" font-size="10.00">Ogre::MetalTextureManager</text>
</a>
</g>
</g>
<!-- Node18&#45;&gt;Node23 -->
<g id="edge22_Node000018_Node000023" class="edge">
<title>Node18&#45;&gt;Node23</title>
<g id="a_edge22_Node000018_Node000023"><a xlink:title=" ">
<path fill="none" stroke="#63b8ff" d="M453.84,-118.99C456.42,-117.67 458.9,-116.22 461.25,-114.62 483.93,-99.28 474.37,-79.68 497.25,-64.62 502.1,-61.43 507.43,-58.8 512.96,-56.63"/>
<polygon fill="#63b8ff" stroke="#63b8ff" points="452.72,-115.67 444.96,-122.88 455.52,-122.08 452.72,-115.67"/>
</a>
</g>
</g>
<!-- Node24 -->
<g id="Node000024" class="node">
<title>Node24</title>
<g id="a_Node000024"><a xlink:href="class_ogre_1_1_n_u_l_l_texture_manager.html" target="_top" xlink:title=" ">
<polygon fill="white" stroke="#666666" points="649,-19.25 510.75,-19.25 510.75,0 649,0 649,-19.25"/>
<text text-anchor="middle" x="579.88" y="-5.75" font-family="Helvetica,sans-Serif" font-size="10.00">Ogre::NULLTextureManager</text>
</a>
</g>
</g>
<!-- Node18&#45;&gt;Node24 -->
<g id="edge23_Node000018_Node000024" class="edge">
<title>Node18&#45;&gt;Node24</title>
<g id="a_edge23_Node000018_Node000024"><a xlink:title=" ">
<path fill="none" stroke="#63b8ff" d="M453.78,-119.99C456.42,-118.4 458.93,-116.62 461.25,-114.62 492.97,-87.33 465.18,-54.51 497.25,-27.62 501.25,-24.27 505.74,-21.5 510.51,-19.22"/>
<polygon fill="#63b8ff" stroke="#63b8ff" points="452.51,-116.72 445.08,-124.28 455.6,-123 452.51,-116.72"/>
</a>
</g>
</g>
</g>
</svg>
