<?xml version="1.0" encoding="UTF-8" standalone="no"?>
<!DOCTYPE svg PUBLIC "-//W3C//DTD SVG 1.1//EN"
 "http://www.w3.org/Graphics/SVG/1.1/DTD/svg11.dtd">
<!-- Generated by graphviz version 7.0.5 (20221223.1930)
 -->
<!-- Title: Ogre::RenderSystem::Listener Pages: 1 -->
<svg width="548pt" height="138pt"
 viewBox="0.00 0.00 548.00 138.00" xmlns="http://www.w3.org/2000/svg" xmlns:xlink="http://www.w3.org/1999/xlink">
<g id="graph0" class="graph" transform="scale(1 1) rotate(0) translate(4 134)">
<title>Ogre::RenderSystem::Listener</title>
<!-- Node1 -->
<g id="node1" class="node">
<title>Node1</title>
<g id="a_node1"><a xlink:title="Defines a listener on the custom events that this render system can raise.">
<polygon fill="#999999" stroke="#666666" points="106,-79.5 0,-79.5 0,-49.5 106,-49.5 106,-79.5"/>
<text text-anchor="start" x="8" y="-67.5" font-family="Helvetica,sans-Serif" font-size="10.00">Ogre::RenderSystem</text>
<text text-anchor="middle" x="53" y="-56.5" font-family="Helvetica,sans-Serif" font-size="10.00">::Listener</text>
</a>
</g>
</g>
<!-- Node2 -->
<g id="node2" class="node">
<title>Node2</title>
<g id="a_node2"><a xlink:href="class_ogre_1_1_d3_d11_render_pass_descriptor.html" target="_top" xlink:title="D3D11 will share groups of ID3D11RenderTargetView all D3D11RenderPassDescriptor that share the same R...">
<polygon fill="white" stroke="#666666" points="317.5,-130 148.5,-130 148.5,-111 317.5,-111 317.5,-130"/>
<text text-anchor="middle" x="233" y="-118" font-family="Helvetica,sans-Serif" font-size="10.00">Ogre::D3D11RenderPassDescriptor</text>
</a>
</g>
</g>
<!-- Node1&#45;&gt;Node2 -->
<g id="edge1" class="edge">
<title>Node1&#45;&gt;Node2</title>
<path fill="none" stroke="#63b8ff" d="M95.32,-84.47C109.83,-90.91 126.4,-97.63 142,-102.5 151.89,-105.59 162.56,-108.26 172.97,-110.54"/>
<polygon fill="#63b8ff" stroke="#63b8ff" points="97.09,-81.43 86.54,-80.49 94.2,-87.81 97.09,-81.43"/>
</g>
<!-- Node3 -->
<g id="node3" class="node">
<title>Node3</title>
<g id="a_node3"><a xlink:href="class_ogre_1_1_d3_d9_stereo_driver_a_m_d.html" target="_top" xlink:title="Virtual interface of the stereo driver.">
<polygon fill="white" stroke="#666666" points="304,-93 162,-93 162,-74 304,-74 304,-93"/>
<text text-anchor="middle" x="233" y="-81" font-family="Helvetica,sans-Serif" font-size="10.00">Ogre::D3D9StereoDriverAMD</text>
</a>
</g>
</g>
<!-- Node1&#45;&gt;Node3 -->
<g id="edge2" class="edge">
<title>Node1&#45;&gt;Node3</title>
<path fill="none" stroke="#63b8ff" d="M117.68,-71.3C131.98,-72.82 147.23,-74.45 161.79,-76.01"/>
<polygon fill="#63b8ff" stroke="#63b8ff" points="118.26,-67.84 107.95,-70.26 117.52,-74.8 118.26,-67.84"/>
</g>
<!-- Node4 -->
<g id="node4" class="node">
<title>Node4</title>
<g id="a_node4"><a xlink:href="class_ogre_1_1_parallax_corrected_cubemap_base.html" target="_top" xlink:title=" ">
<polygon fill="white" stroke="#666666" points="324,-56 142,-56 142,-37 324,-37 324,-56"/>
<text text-anchor="middle" x="233" y="-44" font-family="Helvetica,sans-Serif" font-size="10.00">Ogre::ParallaxCorrectedCubemapBase</text>
</a>
</g>
</g>
<!-- Node1&#45;&gt;Node4 -->
<g id="edge3" class="edge">
<title>Node1&#45;&gt;Node4</title>
<path fill="none" stroke="#63b8ff" d="M117.88,-58.04C125.58,-57.26 133.55,-56.46 141.53,-55.65"/>
<polygon fill="#63b8ff" stroke="#63b8ff" points="117.55,-54.56 107.95,-59.04 118.25,-61.52 117.55,-54.56"/>
</g>
<!-- Node7 -->
<g id="node7" class="node">
<title>Node7</title>
<g id="a_node7"><a xlink:href="class_ogre_1_1v1_1_1_overlay_system.html" target="_top" xlink:title="This class simplify initialization / finalization of the overlay system.">
<polygon fill="white" stroke="#666666" points="294.5,-19 171.5,-19 171.5,0 294.5,0 294.5,-19"/>
<text text-anchor="middle" x="233" y="-7" font-family="Helvetica,sans-Serif" font-size="10.00">Ogre::v1::OverlaySystem</text>
</a>
</g>
</g>
<!-- Node1&#45;&gt;Node7 -->
<g id="edge6" class="edge">
<title>Node1&#45;&gt;Node7</title>
<path fill="none" stroke="#63b8ff" d="M98,-44.68C111.89,-38.92 127.41,-32.98 142,-28.5 153.14,-25.08 165.25,-22.06 176.86,-19.5"/>
<polygon fill="#63b8ff" stroke="#63b8ff" points="96.99,-41.31 89.14,-48.43 99.71,-47.76 96.99,-41.31"/>
</g>
<!-- Node5 -->
<g id="node5" class="node">
<title>Node5</title>
<g id="a_node5"><a xlink:href="class_ogre_1_1_parallax_corrected_cubemap.html" target="_top" xlink:title=" ">
<polygon fill="white" stroke="#666666" points="530,-74 370,-74 370,-55 530,-55 530,-74"/>
<text text-anchor="middle" x="450" y="-62" font-family="Helvetica,sans-Serif" font-size="10.00">Ogre::ParallaxCorrectedCubemap</text>
</a>
</g>
</g>
<!-- Node4&#45;&gt;Node5 -->
<g id="edge4" class="edge">
<title>Node4&#45;&gt;Node5</title>
<path fill="none" stroke="#63b8ff" d="M335.6,-55.01C347.01,-55.96 358.51,-56.92 369.57,-57.85"/>
<polygon fill="#63b8ff" stroke="#63b8ff" points="336.01,-51.53 325.75,-54.18 335.43,-58.5 336.01,-51.53"/>
</g>
<!-- Node6 -->
<g id="node6" class="node">
<title>Node6</title>
<g id="a_node6"><a xlink:href="class_ogre_1_1_parallax_corrected_cubemap_auto.html" target="_top" xlink:title="Per&#45;Pixel reflection probes.">
<polygon fill="white" stroke="#666666" points="540,-37 360,-37 360,-18 540,-18 540,-37"/>
<text text-anchor="middle" x="450" y="-25" font-family="Helvetica,sans-Serif" font-size="10.00">Ogre::ParallaxCorrectedCubemapAuto</text>
</a>
</g>
</g>
<!-- Node4&#45;&gt;Node6 -->
<g id="edge5" class="edge">
<title>Node4&#45;&gt;Node6</title>
<path fill="none" stroke="#63b8ff" d="M335.58,-37.52C343.62,-36.81 351.72,-36.1 359.68,-35.39"/>
<polygon fill="#63b8ff" stroke="#63b8ff" points="335.41,-34.02 325.75,-38.39 336.02,-41 335.41,-34.02"/>
</g>
</g>
</svg>
