<?xml version="1.0" encoding="UTF-8" standalone="no"?>
<!DOCTYPE svg PUBLIC "-//W3C//DTD SVG 1.1//EN"
 "http://www.w3.org/Graphics/SVG/1.1/DTD/svg11.dtd">
<!-- Generated by graphviz version 7.0.5 (20221223.1930)
 -->
<!-- Title: Ogre::GpuProgram Pages: 1 -->
<svg width="741pt" height="298pt"
 viewBox="0.00 0.00 741.00 298.00" xmlns="http://www.w3.org/2000/svg" xmlns:xlink="http://www.w3.org/1999/xlink">
<g id="graph0" class="graph" transform="scale(1 1) rotate(0) translate(4 294)">
<title>Ogre::GpuProgram</title>
<!-- Node1 -->
<g id="node1" class="node">
<title>Node1</title>
<g id="a_node1"><a xlink:title="Defines a program which runs on the GPU such as a vertex or fragment program.">
<polygon fill="#999999" stroke="#666666" points="358,-197 261,-197 261,-178 358,-178 358,-197"/>
<text text-anchor="middle" x="309.5" y="-185" font-family="Helvetica,sans-Serif" font-size="10.00">Ogre::GpuProgram</text>
</a>
</g>
</g>
<!-- Node5 -->
<g id="node5" class="node">
<title>Node5</title>
<g id="a_node5"><a xlink:href="class_ogre_1_1_d3_d9_gpu_program.html" target="_top" xlink:title="Direct3D implementation of a few things common to low&#45;level vertex &amp; fragment programs.">
<polygon fill="white" stroke="#666666" points="525,-253 404,-253 404,-234 525,-234 525,-253"/>
<text text-anchor="middle" x="464.5" y="-241" font-family="Helvetica,sans-Serif" font-size="10.00">Ogre::D3D9GpuProgram</text>
</a>
</g>
</g>
<!-- Node1&#45;&gt;Node5 -->
<g id="edge4" class="edge">
<title>Node1&#45;&gt;Node5</title>
<path fill="none" stroke="#63b8ff" d="M348.22,-201.3C375.51,-211.29 411.75,-224.56 436.25,-233.53"/>
<polygon fill="#63b8ff" stroke="#63b8ff" points="349.52,-198.05 338.92,-197.9 347.11,-204.63 349.52,-198.05"/>
</g>
<!-- Node8 -->
<g id="node8" class="node">
<title>Node8</title>
<g id="a_node8"><a xlink:href="class_ogre_1_1_high_level_gpu_program.html" target="_top" xlink:title="Abstract base class representing a high&#45;level program (a vertex or fragment program).">
<polygon fill="white" stroke="#666666" points="535,-142 394,-142 394,-123 535,-123 535,-142"/>
<text text-anchor="middle" x="464.5" y="-130" font-family="Helvetica,sans-Serif" font-size="10.00">Ogre::HighLevelGpuProgram</text>
</a>
</g>
</g>
<!-- Node1&#45;&gt;Node8 -->
<g id="edge7" class="edge">
<title>Node1&#45;&gt;Node8</title>
<path fill="none" stroke="#63b8ff" d="M348.84,-173.72C375.86,-164 411.43,-151.22 435.74,-142.48"/>
<polygon fill="#63b8ff" stroke="#63b8ff" points="347.86,-170.35 339.63,-177.03 350.23,-176.94 347.86,-170.35"/>
</g>
<!-- Node2 -->
<g id="node2" class="node">
<title>Node2</title>
<g id="a_node2"><a xlink:href="class_ogre_1_1_resource.html" target="_top" xlink:title="Abstract class representing a loadable resource (e.g.">
<polygon fill="white" stroke="#666666" points="225,-197 142,-197 142,-178 225,-178 225,-197"/>
<text text-anchor="middle" x="183.5" y="-185" font-family="Helvetica,sans-Serif" font-size="10.00">Ogre::Resource</text>
</a>
</g>
</g>
<!-- Node2&#45;&gt;Node1 -->
<g id="edge1" class="edge">
<title>Node2&#45;&gt;Node1</title>
<path fill="none" stroke="#63b8ff" d="M236.84,-187.5C244.76,-187.5 252.89,-187.5 260.71,-187.5"/>
<polygon fill="#63b8ff" stroke="#63b8ff" points="236.96,-184 226.96,-187.5 236.96,-191 236.96,-184"/>
</g>
<!-- Node3 -->
<g id="node3" class="node">
<title>Node3</title>
<g id="a_node3"><a xlink:href="class_ogre_1_1_string_interface.html" target="_top" xlink:title="Class defining the common interface which classes can use to present a reflection&#45;style,...">
<polygon fill="white" stroke="#666666" points="106,-216 0,-216 0,-197 106,-197 106,-216"/>
<text text-anchor="middle" x="53" y="-204" font-family="Helvetica,sans-Serif" font-size="10.00">Ogre::StringInterface</text>
</a>
</g>
</g>
<!-- Node3&#45;&gt;Node2 -->
<g id="edge2" class="edge">
<title>Node3&#45;&gt;Node2</title>
<path fill="none" stroke="#63b8ff" d="M117.45,-197.12C125.7,-195.9 133.97,-194.68 141.71,-193.53"/>
<polygon fill="#63b8ff" stroke="#63b8ff" points="117.14,-193.63 107.76,-198.55 118.17,-200.55 117.14,-193.63"/>
</g>
<!-- Node4 -->
<g id="node4" class="node">
<title>Node4</title>
<g id="a_node4"><a xlink:href="class_ogre_1_1_allocated_object.html" target="_top" xlink:title="Superclass for all objects that wish to use custom memory allocators when their new / delete operator...">
<polygon fill="white" stroke="#666666" points="93,-179 13,-179 13,-160 93,-160 93,-179"/>
<text text-anchor="middle" x="53" y="-167" font-family="Helvetica,sans-Serif" font-size="10.00">ResourceAlloc</text>
</a>
</g>
</g>
<!-- Node4&#45;&gt;Node2 -->
<g id="edge3" class="edge">
<title>Node4&#45;&gt;Node2</title>
<path fill="none" stroke="#63b8ff" d="M104.36,-176.55C116.74,-178.29 129.84,-180.12 141.71,-181.79"/>
<polygon fill="#63b8ff" stroke="#63b8ff" points="105.14,-173.13 94.75,-175.21 104.17,-180.06 105.14,-173.13"/>
</g>
<!-- Node6 -->
<g id="node6" class="node">
<title>Node6</title>
<g id="a_node6"><a xlink:href="class_ogre_1_1_d3_d9_gpu_fragment_program.html" target="_top" xlink:title="Direct3D implementation of low&#45;level fragment programs.">
<polygon fill="white" stroke="#666666" points="733,-290 571,-290 571,-271 733,-271 733,-290"/>
<text text-anchor="middle" x="652" y="-278" font-family="Helvetica,sans-Serif" font-size="10.00">Ogre::D3D9GpuFragmentProgram</text>
</a>
</g>
</g>
<!-- Node5&#45;&gt;Node6 -->
<g id="edge5" class="edge">
<title>Node5&#45;&gt;Node6</title>
<path fill="none" stroke="#63b8ff" d="M526.44,-255.65C550.65,-260.48 578.16,-265.97 601.15,-270.56"/>
<polygon fill="#63b8ff" stroke="#63b8ff" points="527.19,-252.24 516.69,-253.71 525.82,-259.1 527.19,-252.24"/>
</g>
<!-- Node7 -->
<g id="node7" class="node">
<title>Node7</title>
<g id="a_node7"><a xlink:href="class_ogre_1_1_d3_d9_gpu_vertex_program.html" target="_top" xlink:title="Direct3D implementation of low&#45;level vertex programs.">
<polygon fill="white" stroke="#666666" points="726.5,-253 577.5,-253 577.5,-234 726.5,-234 726.5,-253"/>
<text text-anchor="middle" x="652" y="-241" font-family="Helvetica,sans-Serif" font-size="10.00">Ogre::D3D9GpuVertexProgram</text>
</a>
</g>
</g>
<!-- Node5&#45;&gt;Node7 -->
<g id="edge6" class="edge">
<title>Node5&#45;&gt;Node7</title>
<path fill="none" stroke="#63b8ff" d="M536.91,-243.5C550.14,-243.5 563.98,-243.5 577.28,-243.5"/>
<polygon fill="#63b8ff" stroke="#63b8ff" points="536.98,-240 526.98,-243.5 536.98,-247 536.98,-240"/>
</g>
<!-- Node9 -->
<g id="node9" class="node">
<title>Node9</title>
<g id="a_node9"><a xlink:href="class_ogre_1_1_d3_d11_h_l_s_l_program.html" target="_top" xlink:title="Specialization of HighLevelGpuProgram to provide support for D3D11 High&#45;Level Shader Language (HLSL).">
<polygon fill="white" stroke="#666666" points="719,-216 585,-216 585,-197 719,-197 719,-216"/>
<text text-anchor="middle" x="652" y="-204" font-family="Helvetica,sans-Serif" font-size="10.00">Ogre::D3D11HLSLProgram</text>
</a>
</g>
</g>
<!-- Node8&#45;&gt;Node9 -->
<g id="edge8" class="edge">
<title>Node8&#45;&gt;Node9</title>
<path fill="none" stroke="#63b8ff" d="M491.06,-148.12C511.93,-160.3 542.52,-176.88 571,-187.5 580.36,-190.99 590.59,-193.99 600.5,-196.51"/>
<polygon fill="#63b8ff" stroke="#63b8ff" points="493.06,-145.23 482.67,-143.14 489.49,-151.25 493.06,-145.23"/>
</g>
<!-- Node10 -->
<g id="node10" class="node">
<title>Node10</title>
<g id="a_node10"><a xlink:href="class_ogre_1_1_d3_d9_h_l_s_l_program.html" target="_top" xlink:title="Specialisation of HighLevelGpuProgram to provide support for D3D9 High&#45;Level Shader Language (HLSL).">
<polygon fill="white" stroke="#666666" points="716.5,-179 587.5,-179 587.5,-160 716.5,-160 716.5,-179"/>
<text text-anchor="middle" x="652" y="-167" font-family="Helvetica,sans-Serif" font-size="10.00">Ogre::D3D9HLSLProgram</text>
</a>
</g>
</g>
<!-- Node8&#45;&gt;Node10 -->
<g id="edge9" class="edge">
<title>Node8&#45;&gt;Node10</title>
<path fill="none" stroke="#63b8ff" d="M526.44,-144.65C550.65,-149.48 578.16,-154.97 601.15,-159.56"/>
<polygon fill="#63b8ff" stroke="#63b8ff" points="527.19,-141.24 516.69,-142.71 525.82,-148.1 527.19,-141.24"/>
</g>
<!-- Node11 -->
<g id="node11" class="node">
<title>Node11</title>
<g id="a_node11"><a xlink:href="class_ogre_1_1_g_l_s_l_shader.html" target="_top" xlink:title="Specialisation of HighLevelGpuProgram to encapsulate shader objects obtained from compiled shaders wr...">
<polygon fill="white" stroke="#666666" points="701.5,-142 602.5,-142 602.5,-123 701.5,-123 701.5,-142"/>
<text text-anchor="middle" x="652" y="-130" font-family="Helvetica,sans-Serif" font-size="10.00">Ogre::GLSLShader</text>
</a>
</g>
</g>
<!-- Node8&#45;&gt;Node11 -->
<g id="edge10" class="edge">
<title>Node8&#45;&gt;Node11</title>
<path fill="none" stroke="#63b8ff" d="M546.73,-132.5C565.67,-132.5 585.25,-132.5 602.27,-132.5"/>
<polygon fill="#63b8ff" stroke="#63b8ff" points="546.88,-129 536.88,-132.5 546.88,-136 546.88,-129"/>
</g>
<!-- Node12 -->
<g id="node12" class="node">
<title>Node12</title>
<g id="a_node12"><a xlink:href="class_ogre_1_1_metal_program.html" target="_top" xlink:title="Specialisation of HighLevelGpuProgram to provide support for Metal Shader Language.">
<polygon fill="white" stroke="#666666" points="703.5,-105 600.5,-105 600.5,-86 703.5,-86 703.5,-105"/>
<text text-anchor="middle" x="652" y="-93" font-family="Helvetica,sans-Serif" font-size="10.00">Ogre::MetalProgram</text>
</a>
</g>
</g>
<!-- Node8&#45;&gt;Node12 -->
<g id="edge11" class="edge">
<title>Node8&#45;&gt;Node12</title>
<path fill="none" stroke="#63b8ff" d="M526.44,-120.35C550.65,-115.52 578.16,-110.03 601.15,-105.44"/>
<polygon fill="#63b8ff" stroke="#63b8ff" points="525.82,-116.9 516.69,-122.29 527.19,-123.76 525.82,-116.9"/>
</g>
<!-- Node13 -->
<g id="node13" class="node">
<title>Node13</title>
<g id="a_node13"><a xlink:href="class_ogre_1_1_unified_high_level_gpu_program.html" target="_top" xlink:title="Specialisation of HighLevelGpuProgram which just delegates its implementation to one other high level...">
<polygon fill="white" stroke="#666666" points="719,-67.5 585,-67.5 585,-37.5 719,-37.5 719,-67.5"/>
<text text-anchor="start" x="593" y="-55.5" font-family="Helvetica,sans-Serif" font-size="10.00">Ogre::UnifiedHighLevelGpu</text>
<text text-anchor="middle" x="652" y="-44.5" font-family="Helvetica,sans-Serif" font-size="10.00">Program</text>
</a>
</g>
</g>
<!-- Node8&#45;&gt;Node13 -->
<g id="edge12" class="edge">
<title>Node8&#45;&gt;Node13</title>
<path fill="none" stroke="#63b8ff" d="M491.56,-116.81C512.5,-104.66 542.94,-88.02 571,-76.5 578.51,-73.41 586.56,-70.53 594.56,-67.91"/>
<polygon fill="#63b8ff" stroke="#63b8ff" points="489.97,-113.68 483.13,-121.77 493.52,-119.72 489.97,-113.68"/>
</g>
<!-- Node14 -->
<g id="node14" class="node">
<title>Node14</title>
<g id="a_node14"><a xlink:href="class_ogre_1_1_vulkan_program.html" target="_top" xlink:title="Specialisation of HighLevelGpuProgram to provide support for Vulkan Shader Language.">
<polygon fill="white" stroke="#666666" points="706.5,-19 597.5,-19 597.5,0 706.5,0 706.5,-19"/>
<text text-anchor="middle" x="652" y="-7" font-family="Helvetica,sans-Serif" font-size="10.00">Ogre::VulkanProgram</text>
</a>
</g>
</g>
<!-- Node8&#45;&gt;Node14 -->
<g id="edge13" class="edge">
<title>Node8&#45;&gt;Node14</title>
<path fill="none" stroke="#63b8ff" d="M479.22,-113.69C497.48,-90.09 532.02,-50.09 571,-28.5 579.12,-24.01 588.27,-20.57 597.41,-17.94"/>
<polygon fill="#63b8ff" stroke="#63b8ff" points="476.57,-111.4 473.34,-121.49 482.16,-115.62 476.57,-111.4"/>
</g>
</g>
</svg>
