<?xml version="1.0" encoding="UTF-8" standalone="no"?>
<!DOCTYPE svg PUBLIC "-//W3C//DTD SVG 1.1//EN"
 "http://www.w3.org/Graphics/SVG/1.1/DTD/svg11.dtd">
<!-- Generated by graphviz version 9.0.0 (20230911.1827)
 -->
<!-- Title: Ogre::TextureGpu Pages: 1 -->
<svg width="957pt" height="247pt"
 viewBox="0.00 0.00 956.75 246.88" xmlns="http://www.w3.org/2000/svg" xmlns:xlink="http://www.w3.org/1999/xlink">
<g id="graph0" class="graph" transform="scale(1 1) rotate(0) translate(4 242.88)">
<title>Ogre::TextureGpu</title>
<!-- Node1 -->
<g id="Node000001" class="node">
<title>Node1</title>
<g id="a_Node000001"><a xlink:title=" ">
<polygon fill="#999999" stroke="#666666" points="378.75,-122.88 287,-122.88 287,-103.62 378.75,-103.62 378.75,-122.88"/>
<text text-anchor="middle" x="332.88" y="-109.38" font-family="Helvetica,sans-Serif" font-size="10.00">Ogre::TextureGpu</text>
</a>
</g>
</g>
<!-- Node5 -->
<g id="Node000005" class="node">
<title>Node5</title>
<g id="a_Node000005"><a xlink:href="class_ogre_1_1_d3_d11_texture_gpu.html" target="_top" xlink:title=" ">
<polygon fill="white" stroke="#666666" points="540.25,-217.88 419.25,-217.88 419.25,-198.62 540.25,-198.62 540.25,-217.88"/>
<text text-anchor="middle" x="479.75" y="-204.38" font-family="Helvetica,sans-Serif" font-size="10.00">Ogre::D3D11TextureGpu</text>
</a>
</g>
</g>
<!-- Node1&#45;&gt;Node5 -->
<g id="edge4_Node000001_Node000005" class="edge">
<title>Node1&#45;&gt;Node5</title>
<g id="a_edge4_Node000001_Node000005"><a xlink:title=" ">
<path fill="none" stroke="#63b8ff" d="M353.94,-130.24C369.87,-143.33 393.02,-161.47 414.75,-175.25 428.26,-183.82 444.26,-192.07 456.89,-198.18"/>
<polygon fill="#63b8ff" stroke="#63b8ff" points="356.54,-127.86 346.61,-124.15 352.07,-133.24 356.54,-127.86"/>
</a>
</g>
</g>
<!-- Node8 -->
<g id="Node000008" class="node">
<title>Node8</title>
<g id="a_Node000008"><a xlink:href="class_ogre_1_1_g_l3_plus_texture_gpu.html" target="_top" xlink:title=" ">
<polygon fill="white" stroke="#666666" points="544.75,-165.88 414.75,-165.88 414.75,-146.62 544.75,-146.62 544.75,-165.88"/>
<text text-anchor="middle" x="479.75" y="-152.38" font-family="Helvetica,sans-Serif" font-size="10.00">Ogre::GL3PlusTextureGpu</text>
</a>
</g>
</g>
<!-- Node1&#45;&gt;Node8 -->
<g id="edge7_Node000001_Node000008" class="edge">
<title>Node1&#45;&gt;Node8</title>
<g id="a_edge7_Node000001_Node000008"><a xlink:title=" ">
<path fill="none" stroke="#63b8ff" d="M378.6,-126.52C399.92,-132.85 425.01,-140.3 444.75,-146.16"/>
<polygon fill="#63b8ff" stroke="#63b8ff" points="379.88,-123.25 369.29,-123.76 377.88,-129.96 379.88,-123.25"/>
</a>
</g>
</g>
<!-- Node12 -->
<g id="Node000012" class="node">
<title>Node12</title>
<g id="a_Node000012"><a xlink:href="class_ogre_1_1_metal_texture_gpu.html" target="_top" xlink:title=" ">
<polygon fill="white" stroke="#666666" points="537.62,-122.88 421.88,-122.88 421.88,-103.62 537.62,-103.62 537.62,-122.88"/>
<text text-anchor="middle" x="479.75" y="-109.38" font-family="Helvetica,sans-Serif" font-size="10.00">Ogre::MetalTextureGpu</text>
</a>
</g>
</g>
<!-- Node1&#45;&gt;Node12 -->
<g id="edge11_Node000001_Node000012" class="edge">
<title>Node1&#45;&gt;Node12</title>
<g id="a_edge11_Node000001_Node000012"><a xlink:title=" ">
<path fill="none" stroke="#63b8ff" d="M390.24,-113.25C400.48,-113.25 411.18,-113.25 421.44,-113.25"/>
<polygon fill="#63b8ff" stroke="#63b8ff" points="390.43,-109.75 380.43,-113.25 390.43,-116.75 390.43,-109.75"/>
</a>
</g>
</g>
<!-- Node15 -->
<g id="Node000015" class="node">
<title>Node15</title>
<g id="a_Node000015"><a xlink:href="class_ogre_1_1_n_u_l_l_texture_gpu.html" target="_top" xlink:title=" ">
<polygon fill="white" stroke="#666666" points="539.12,-79.88 420.38,-79.88 420.38,-60.62 539.12,-60.62 539.12,-79.88"/>
<text text-anchor="middle" x="479.75" y="-66.38" font-family="Helvetica,sans-Serif" font-size="10.00">Ogre::NULLTextureGpu</text>
</a>
</g>
</g>
<!-- Node1&#45;&gt;Node15 -->
<g id="edge14_Node000001_Node000015" class="edge">
<title>Node1&#45;&gt;Node15</title>
<g id="a_edge14_Node000001_Node000015"><a xlink:title=" ">
<path fill="none" stroke="#63b8ff" d="M378.6,-99.98C399.92,-93.65 425.01,-86.2 444.75,-80.34"/>
<polygon fill="#63b8ff" stroke="#63b8ff" points="377.88,-96.54 369.29,-102.74 379.88,-103.25 377.88,-96.54"/>
</a>
</g>
</g>
<!-- Node17 -->
<g id="Node000017" class="node">
<title>Node17</title>
<g id="a_Node000017"><a xlink:href="class_ogre_1_1_vulkan_texture_gpu.html" target="_top" xlink:title=" ">
<polygon fill="white" stroke="#666666" points="540.62,-36.88 418.88,-36.88 418.88,-17.62 540.62,-17.62 540.62,-36.88"/>
<text text-anchor="middle" x="479.75" y="-23.38" font-family="Helvetica,sans-Serif" font-size="10.00">Ogre::VulkanTextureGpu</text>
</a>
</g>
</g>
<!-- Node1&#45;&gt;Node17 -->
<g id="edge16_Node000001_Node000017" class="edge">
<title>Node1&#45;&gt;Node17</title>
<g id="a_edge16_Node000001_Node000017"><a xlink:title=" ">
<path fill="none" stroke="#63b8ff" d="M352.97,-96C368.68,-82.47 391.99,-63.88 414.75,-51.25 424.61,-45.78 435.96,-41.07 446.35,-37.3"/>
<polygon fill="#63b8ff" stroke="#63b8ff" points="351,-93.07 345.79,-102.3 355.62,-98.33 351,-93.07"/>
</a>
</g>
</g>
<!-- Node2 -->
<g id="Node000002" class="node">
<title>Node2</title>
<g id="a_Node000002"><a xlink:href="struct_ogre_1_1_gpu_tracked_resource.html" target="_top" xlink:title=" ">
<polygon fill="white" stroke="#666666" points="251,-141.88 115,-141.88 115,-122.62 251,-122.62 251,-141.88"/>
<text text-anchor="middle" x="183" y="-128.38" font-family="Helvetica,sans-Serif" font-size="10.00">Ogre::GpuTrackedResource</text>
</a>
</g>
</g>
<!-- Node2&#45;&gt;Node1 -->
<g id="edge1_Node000001_Node000002" class="edge">
<title>Node2&#45;&gt;Node1</title>
<g id="a_edge1_Node000001_Node000002"><a xlink:title=" ">
<path fill="none" stroke="#63b8ff" d="M262.61,-122.15C270.8,-121.1 278.9,-120.06 286.53,-119.08"/>
<polygon fill="#63b8ff" stroke="#63b8ff" points="262.42,-118.65 252.95,-123.39 263.31,-125.59 262.42,-118.65"/>
</a>
</g>
</g>
<!-- Node3 -->
<g id="Node000003" class="node">
<title>Node3</title>
<g id="a_Node000003"><a xlink:href="class_ogre_1_1_gpu_resource.html" target="_top" xlink:title=" ">
<polygon fill="white" stroke="#666666" points="233.38,-104.88 132.62,-104.88 132.62,-85.62 233.38,-85.62 233.38,-104.88"/>
<text text-anchor="middle" x="183" y="-91.38" font-family="Helvetica,sans-Serif" font-size="10.00">Ogre::GpuResource</text>
</a>
</g>
</g>
<!-- Node3&#45;&gt;Node1 -->
<g id="edge2_Node000001_Node000003" class="edge">
<title>Node3&#45;&gt;Node1</title>
<g id="a_edge2_Node000001_Node000003"><a xlink:title=" ">
<path fill="none" stroke="#63b8ff" d="M244.7,-102.64C258.71,-104.34 273.37,-106.13 286.59,-107.74"/>
<polygon fill="#63b8ff" stroke="#63b8ff" points="245.5,-99.21 235.15,-101.48 244.66,-106.16 245.5,-99.21"/>
</a>
</g>
</g>
<!-- Node4 -->
<g id="Node000004" class="node">
<title>Node4</title>
<g id="a_Node000004"><a xlink:href="class_ogre_1_1_allocated_object.html" target="_top" xlink:title="Superclass for all objects that wish to use custom memory allocators when their new / delete operator...">
<polygon fill="white" stroke="#666666" points="79,-104.88 0,-104.88 0,-85.62 79,-85.62 79,-104.88"/>
<text text-anchor="middle" x="39.5" y="-91.38" font-family="Helvetica,sans-Serif" font-size="10.00">ResourceAlloc</text>
</a>
</g>
</g>
<!-- Node4&#45;&gt;Node3 -->
<g id="edge3_Node000003_Node000004" class="edge">
<title>Node4&#45;&gt;Node3</title>
<g id="a_edge3_Node000003_Node000004"><a xlink:title=" ">
<path fill="none" stroke="#63b8ff" d="M90.27,-95.25C103.87,-95.25 118.61,-95.25 132.21,-95.25"/>
<polygon fill="#63b8ff" stroke="#63b8ff" points="90.68,-91.75 80.68,-95.25 90.68,-98.75 90.68,-91.75"/>
</a>
</g>
</g>
<!-- Node6 -->
<g id="Node000006" class="node">
<title>Node6</title>
<g id="a_Node000006"><a xlink:href="class_ogre_1_1_d3_d11_texture_gpu_render_target.html" target="_top" xlink:title=" ">
<polygon fill="white" stroke="#666666" points="737,-238.5 585.25,-238.5 585.25,-208 737,-208 737,-238.5"/>
<text text-anchor="start" x="593.25" y="-225" font-family="Helvetica,sans-Serif" font-size="10.00">Ogre::D3D11TextureGpuRender</text>
<text text-anchor="middle" x="661.12" y="-213.75" font-family="Helvetica,sans-Serif" font-size="10.00">Target</text>
</a>
</g>
</g>
<!-- Node5&#45;&gt;Node6 -->
<g id="edge5_Node000005_Node000006" class="edge">
<title>Node5&#45;&gt;Node6</title>
<g id="a_edge5_Node000005_Node000006"><a xlink:title=" ">
<path fill="none" stroke="#63b8ff" d="M551.71,-214.18C562.66,-215.1 573.99,-216.05 585.02,-216.97"/>
<polygon fill="#63b8ff" stroke="#63b8ff" points="552.24,-210.72 541.99,-213.37 551.66,-217.69 552.24,-210.72"/>
</a>
</g>
</g>
<!-- Node7 -->
<g id="Node000007" class="node">
<title>Node7</title>
<g id="a_Node000007"><a xlink:href="class_ogre_1_1_d3_d11_texture_gpu_window.html" target="_top" xlink:title=" ">
<polygon fill="white" stroke="#666666" points="940.88,-238.88 785.38,-238.88 785.38,-219.62 940.88,-219.62 940.88,-238.88"/>
<text text-anchor="middle" x="863.12" y="-225.38" font-family="Helvetica,sans-Serif" font-size="10.00">Ogre::D3D11TextureGpuWindow</text>
</a>
</g>
</g>
<!-- Node6&#45;&gt;Node7 -->
<g id="edge6_Node000006_Node000007" class="edge">
<title>Node6&#45;&gt;Node7</title>
<g id="a_edge6_Node000006_Node000007"><a xlink:title=" ">
<path fill="none" stroke="#63b8ff" d="M748.92,-225.85C760.99,-226.22 773.33,-226.59 785.2,-226.94"/>
<polygon fill="#63b8ff" stroke="#63b8ff" points="749.06,-222.36 738.96,-225.56 748.85,-229.35 749.06,-222.36"/>
</a>
</g>
</g>
<!-- Node9 -->
<g id="Node000009" class="node">
<title>Node9</title>
<g id="a_Node000009"><a xlink:href="class_ogre_1_1_g_l3_plus_texture_gpu_render_target.html" target="_top" xlink:title=" ">
<polygon fill="white" stroke="#666666" points="741.5,-177.5 580.75,-177.5 580.75,-147 741.5,-147 741.5,-177.5"/>
<text text-anchor="start" x="588.75" y="-164" font-family="Helvetica,sans-Serif" font-size="10.00">Ogre::GL3PlusTextureGpuRender</text>
<text text-anchor="middle" x="661.12" y="-152.75" font-family="Helvetica,sans-Serif" font-size="10.00">Target</text>
</a>
</g>
</g>
<!-- Node8&#45;&gt;Node9 -->
<g id="edge8_Node000008_Node000009" class="edge">
<title>Node8&#45;&gt;Node9</title>
<g id="a_edge8_Node000008_Node000009"><a xlink:title=" ">
<path fill="none" stroke="#63b8ff" d="M556.45,-158.78C564.35,-159.05 572.41,-159.32 580.36,-159.58"/>
<polygon fill="#63b8ff" stroke="#63b8ff" points="556.63,-155.29 546.51,-158.45 556.39,-162.28 556.63,-155.29"/>
</a>
</g>
</g>
<!-- Node10 -->
<g id="Node000010" class="node">
<title>Node10</title>
<g id="a_Node000010"><a xlink:href="class_ogre_1_1_g_l3_plus_texture_gpu_headless_window.html" target="_top" xlink:title=" ">
<polygon fill="white" stroke="#666666" points="948.75,-201.5 777.5,-201.5 777.5,-171 948.75,-171 948.75,-201.5"/>
<text text-anchor="start" x="785.5" y="-188" font-family="Helvetica,sans-Serif" font-size="10.00">Ogre::GL3PlusTextureGpuHeadless</text>
<text text-anchor="middle" x="863.12" y="-176.75" font-family="Helvetica,sans-Serif" font-size="10.00">Window</text>
</a>
</g>
</g>
<!-- Node9&#45;&gt;Node10 -->
<g id="edge9_Node000009_Node000010" class="edge">
<title>Node9&#45;&gt;Node10</title>
<g id="a_edge9_Node000009_Node000010"><a xlink:title=" ">
<path fill="none" stroke="#63b8ff" d="M753.04,-173.16C761.09,-174.13 769.21,-175.1 777.2,-176.06"/>
<polygon fill="#63b8ff" stroke="#63b8ff" points="753.59,-169.7 743.25,-171.98 752.76,-176.65 753.59,-169.7"/>
</a>
</g>
</g>
<!-- Node11 -->
<g id="Node000011" class="node">
<title>Node11</title>
<g id="a_Node000011"><a xlink:href="class_ogre_1_1_g_l3_plus_texture_gpu_window.html" target="_top" xlink:title=" ">
<polygon fill="white" stroke="#666666" points="945.38,-152.88 780.88,-152.88 780.88,-133.62 945.38,-133.62 945.38,-152.88"/>
<text text-anchor="middle" x="863.12" y="-139.38" font-family="Helvetica,sans-Serif" font-size="10.00">Ogre::GL3PlusTextureGpuWindow</text>
</a>
</g>
</g>
<!-- Node9&#45;&gt;Node11 -->
<g id="edge10_Node000009_Node000011" class="edge">
<title>Node9&#45;&gt;Node11</title>
<g id="a_edge10_Node000009_Node000011"><a xlink:title=" ">
<path fill="none" stroke="#63b8ff" d="M753.2,-153.6C762.29,-152.73 771.49,-151.86 780.49,-151.01"/>
<polygon fill="#63b8ff" stroke="#63b8ff" points="752.88,-150.11 743.25,-154.54 753.54,-157.08 752.88,-150.11"/>
</a>
</g>
</g>
<!-- Node13 -->
<g id="Node000013" class="node">
<title>Node13</title>
<g id="a_Node000013"><a xlink:href="class_ogre_1_1_metal_texture_gpu_render_target.html" target="_top" xlink:title=" ">
<polygon fill="white" stroke="#666666" points="734.38,-128.5 587.88,-128.5 587.88,-98 734.38,-98 734.38,-128.5"/>
<text text-anchor="start" x="595.88" y="-115" font-family="Helvetica,sans-Serif" font-size="10.00">Ogre::MetalTextureGpuRender</text>
<text text-anchor="middle" x="661.12" y="-103.75" font-family="Helvetica,sans-Serif" font-size="10.00">Target</text>
</a>
</g>
</g>
<!-- Node12&#45;&gt;Node13 -->
<g id="edge12_Node000012_Node000013" class="edge">
<title>Node12&#45;&gt;Node13</title>
<g id="a_edge12_Node000012_Node000013"><a xlink:title=" ">
<path fill="none" stroke="#63b8ff" d="M549.33,-113.25C561.87,-113.25 575,-113.25 587.66,-113.25"/>
<polygon fill="#63b8ff" stroke="#63b8ff" points="549.51,-109.75 539.51,-113.25 549.51,-116.75 549.51,-109.75"/>
</a>
</g>
</g>
<!-- Node14 -->
<g id="Node000014" class="node">
<title>Node14</title>
<g id="a_Node000014"><a xlink:href="class_ogre_1_1_metal_texture_gpu_window.html" target="_top" xlink:title=" ">
<polygon fill="white" stroke="#666666" points="938.25,-115.88 788,-115.88 788,-96.62 938.25,-96.62 938.25,-115.88"/>
<text text-anchor="middle" x="863.12" y="-102.38" font-family="Helvetica,sans-Serif" font-size="10.00">Ogre::MetalTextureGpuWindow</text>
</a>
</g>
</g>
<!-- Node13&#45;&gt;Node14 -->
<g id="edge13_Node000013_Node000014" class="edge">
<title>Node13&#45;&gt;Node14</title>
<g id="a_edge13_Node000013_Node000014"><a xlink:title=" ">
<path fill="none" stroke="#63b8ff" d="M746.06,-110.31C759.82,-109.83 774.01,-109.33 787.53,-108.86"/>
<polygon fill="#63b8ff" stroke="#63b8ff" points="746,-106.81 736.12,-110.66 746.24,-113.81 746,-106.81"/>
</a>
</g>
</g>
<!-- Node16 -->
<g id="Node000016" class="node">
<title>Node16</title>
<g id="a_Node000016"><a xlink:href="class_ogre_1_1_n_u_l_l_texture_gpu_render_target.html" target="_top" xlink:title=" ">
<polygon fill="white" stroke="#666666" points="735.88,-79.5 586.38,-79.5 586.38,-49 735.88,-49 735.88,-79.5"/>
<text text-anchor="start" x="594.38" y="-66" font-family="Helvetica,sans-Serif" font-size="10.00">Ogre::NULLTextureGpuRender</text>
<text text-anchor="middle" x="661.12" y="-54.75" font-family="Helvetica,sans-Serif" font-size="10.00">Target</text>
</a>
</g>
</g>
<!-- Node15&#45;&gt;Node16 -->
<g id="edge15_Node000015_Node000016" class="edge">
<title>Node15&#45;&gt;Node16</title>
<g id="a_edge15_Node000015_Node000016"><a xlink:title=" ">
<path fill="none" stroke="#63b8ff" d="M550.89,-67.9C562.47,-67.52 574.51,-67.11 586.19,-66.72"/>
<polygon fill="#63b8ff" stroke="#63b8ff" points="550.87,-64.4 541,-68.23 551.11,-71.4 550.87,-64.4"/>
</a>
</g>
</g>
<!-- Node18 -->
<g id="Node000018" class="node">
<title>Node18</title>
<g id="a_Node000018"><a xlink:href="class_ogre_1_1_vulkan_texture_gpu_render_target.html" target="_top" xlink:title=" ">
<polygon fill="white" stroke="#666666" points="737.38,-30.5 584.88,-30.5 584.88,0 737.38,0 737.38,-30.5"/>
<text text-anchor="start" x="592.88" y="-17" font-family="Helvetica,sans-Serif" font-size="10.00">Ogre::VulkanTextureGpuRender</text>
<text text-anchor="middle" x="661.12" y="-5.75" font-family="Helvetica,sans-Serif" font-size="10.00">Target</text>
</a>
</g>
</g>
<!-- Node17&#45;&gt;Node18 -->
<g id="edge17_Node000017_Node000018" class="edge">
<title>Node17&#45;&gt;Node18</title>
<g id="a_edge17_Node000017_Node000018"><a xlink:title=" ">
<path fill="none" stroke="#63b8ff" d="M552.29,-22.46C562.86,-21.76 573.79,-21.03 584.44,-20.31"/>
<polygon fill="#63b8ff" stroke="#63b8ff" points="552.23,-18.96 542.49,-23.12 552.7,-25.94 552.23,-18.96"/>
</a>
</g>
</g>
<!-- Node19 -->
<g id="Node000019" class="node">
<title>Node19</title>
<g id="a_Node000019"><a xlink:href="class_ogre_1_1_vulkan_texture_gpu_window.html" target="_top" xlink:title=" ">
<polygon fill="white" stroke="#666666" points="941.25,-24.88 785,-24.88 785,-5.62 941.25,-5.62 941.25,-24.88"/>
<text text-anchor="middle" x="863.12" y="-11.38" font-family="Helvetica,sans-Serif" font-size="10.00">Ogre::VulkanTextureGpuWindow</text>
</a>
</g>
</g>
<!-- Node18&#45;&gt;Node19 -->
<g id="edge18_Node000018_Node000019" class="edge">
<title>Node18&#45;&gt;Node19</title>
<g id="a_edge18_Node000018_Node000019"><a xlink:title=" ">
<path fill="none" stroke="#63b8ff" d="M749.03,-15.25C760.91,-15.25 773.05,-15.25 784.74,-15.25"/>
<polygon fill="#63b8ff" stroke="#63b8ff" points="749.25,-11.75 739.25,-15.25 749.25,-18.75 749.25,-11.75"/>
</a>
</g>
</g>
</g>
</svg>
