<?xml version="1.0" encoding="UTF-8" standalone="no"?>
<!DOCTYPE svg PUBLIC "-//W3C//DTD SVG 1.1//EN"
 "http://www.w3.org/Graphics/SVG/1.1/DTD/svg11.dtd">
<!-- Generated by graphviz version 9.0.0 (20230911.1827)
 -->
<!-- Title: Ogre::RenderPassDescriptor Pages: 1 -->
<svg width="481pt" height="138pt"
 viewBox="0.00 0.00 481.25 138.25" xmlns="http://www.w3.org/2000/svg" xmlns:xlink="http://www.w3.org/1999/xlink">
<g id="graph0" class="graph" transform="scale(1 1) rotate(0) translate(4 134.25)">
<title>Ogre::RenderPassDescriptor</title>
<!-- Node1 -->
<g id="Node000001" class="node">
<title>Node1</title>
<g id="a_Node000001"><a xlink:title=" ">
<polygon fill="#999999" stroke="#666666" points="260,-74.25 121,-74.25 121,-55 260,-55 260,-74.25"/>
<text text-anchor="middle" x="190.5" y="-60.75" font-family="Helvetica,sans-Serif" font-size="10.00">Ogre::RenderPassDescriptor</text>
</a>
</g>
</g>
<!-- Node3 -->
<g id="Node000003" class="node">
<title>Node3</title>
<g id="a_Node000003"><a xlink:href="class_ogre_1_1_d3_d11_render_pass_descriptor.html" target="_top" xlink:title="D3D11 will share groups of ID3D11RenderTargetView all D3D11RenderPassDescriptor that share the same R...">
<polygon fill="white" stroke="#666666" points="468.75,-130.25 300.5,-130.25 300.5,-111 468.75,-111 468.75,-130.25"/>
<text text-anchor="middle" x="384.62" y="-116.75" font-family="Helvetica,sans-Serif" font-size="10.00">Ogre::D3D11RenderPassDescriptor</text>
</a>
</g>
</g>
<!-- Node1&#45;&gt;Node3 -->
<g id="edge2_Node000001_Node000003" class="edge">
<title>Node1&#45;&gt;Node3</title>
<g id="a_edge2_Node000001_Node000003"><a xlink:title=" ">
<path fill="none" stroke="#63b8ff" d="M226.6,-78.84C246.68,-86.61 272.49,-95.97 296,-102.62 306.31,-105.54 317.43,-108.19 328.17,-110.51"/>
<polygon fill="#63b8ff" stroke="#63b8ff" points="228.08,-75.66 217.49,-75.27 225.52,-82.18 228.08,-75.66"/>
</a>
</g>
</g>
<!-- Node4 -->
<g id="Node000004" class="node">
<title>Node4</title>
<g id="a_Node000004"><a xlink:href="class_ogre_1_1_g_l3_plus_render_pass_descriptor.html" target="_top" xlink:title="GL3+ will share FBO handles between all GL3PlusRenderPassDescriptor that share the same FBO setup.">
<polygon fill="white" stroke="#666666" points="473.25,-93.25 296,-93.25 296,-74 473.25,-74 473.25,-93.25"/>
<text text-anchor="middle" x="384.62" y="-79.75" font-family="Helvetica,sans-Serif" font-size="10.00">Ogre::GL3PlusRenderPassDescriptor</text>
</a>
</g>
</g>
<!-- Node1&#45;&gt;Node4 -->
<g id="edge3_Node000001_Node000004" class="edge">
<title>Node1&#45;&gt;Node4</title>
<g id="a_edge3_Node000001_Node000004"><a xlink:title=" ">
<path fill="none" stroke="#63b8ff" d="M271.71,-72.56C279.57,-73.33 287.58,-74.13 295.52,-74.91"/>
<polygon fill="#63b8ff" stroke="#63b8ff" points="272.12,-69.08 261.83,-71.58 271.43,-76.05 272.12,-69.08"/>
</a>
</g>
</g>
<!-- Node5 -->
<g id="Node000005" class="node">
<title>Node5</title>
<g id="a_Node000005"><a xlink:href="class_ogre_1_1_metal_render_pass_descriptor.html" target="_top" xlink:title=" ">
<polygon fill="white" stroke="#666666" points="466.12,-56.25 303.12,-56.25 303.12,-37 466.12,-37 466.12,-56.25"/>
<text text-anchor="middle" x="384.62" y="-42.75" font-family="Helvetica,sans-Serif" font-size="10.00">Ogre::MetalRenderPassDescriptor</text>
</a>
</g>
</g>
<!-- Node1&#45;&gt;Node5 -->
<g id="edge4_Node000001_Node000005" class="edge">
<title>Node1&#45;&gt;Node5</title>
<g id="a_edge4_Node000001_Node000005"><a xlink:title=" ">
<path fill="none" stroke="#63b8ff" d="M271.78,-57.1C282.05,-56.14 292.57,-55.16 302.84,-54.19"/>
<polygon fill="#63b8ff" stroke="#63b8ff" points="271.46,-53.62 261.83,-58.04 272.11,-60.59 271.46,-53.62"/>
</a>
</g>
</g>
<!-- Node6 -->
<g id="Node000006" class="node">
<title>Node6</title>
<g id="a_Node000006"><a xlink:href="class_ogre_1_1_vulkan_render_pass_descriptor.html" target="_top" xlink:title=" ">
<polygon fill="white" stroke="#666666" points="469.12,-19.25 300.12,-19.25 300.12,0 469.12,0 469.12,-19.25"/>
<text text-anchor="middle" x="384.62" y="-5.75" font-family="Helvetica,sans-Serif" font-size="10.00">Ogre::VulkanRenderPassDescriptor</text>
</a>
</g>
</g>
<!-- Node1&#45;&gt;Node6 -->
<g id="edge5_Node000001_Node000006" class="edge">
<title>Node1&#45;&gt;Node6</title>
<g id="a_edge5_Node000001_Node000006"><a xlink:title=" ">
<path fill="none" stroke="#63b8ff" d="M227.44,-50.52C247.42,-43.03 272.85,-34.07 296,-27.62 306.47,-24.71 317.77,-22.04 328.66,-19.71"/>
<polygon fill="#63b8ff" stroke="#63b8ff" points="226.47,-47.14 218.37,-53.97 228.96,-53.69 226.47,-47.14"/>
</a>
</g>
</g>
<!-- Node2 -->
<g id="Node000002" class="node">
<title>Node2</title>
<g id="a_Node000002"><a xlink:href="class_ogre_1_1_allocated_object.html" target="_top" xlink:title="Superclass for all objects that wish to use custom memory allocators when their new / delete operator...">
<polygon fill="white" stroke="#666666" points="85,-74.25 0,-74.25 0,-55 85,-55 85,-74.25"/>
<text text-anchor="middle" x="42.5" y="-60.75" font-family="Helvetica,sans-Serif" font-size="10.00">RenderSysAlloc</text>
</a>
</g>
</g>
<!-- Node2&#45;&gt;Node1 -->
<g id="edge1_Node000001_Node000002" class="edge">
<title>Node2&#45;&gt;Node1</title>
<g id="a_edge1_Node000001_Node000002"><a xlink:title=" ">
<path fill="none" stroke="#63b8ff" d="M96.81,-64.62C104.56,-64.62 112.64,-64.62 120.64,-64.62"/>
<polygon fill="#63b8ff" stroke="#63b8ff" points="96.85,-61.13 86.85,-64.63 96.85,-68.13 96.85,-61.13"/>
</a>
</g>
</g>
</g>
</svg>
