<?xml version="1.0" encoding="UTF-8" standalone="no"?>
<!DOCTYPE svg PUBLIC "-//W3C//DTD SVG 1.1//EN"
 "http://www.w3.org/Graphics/SVG/1.1/DTD/svg11.dtd">
<!-- Generated by graphviz version 9.0.0 (20230911.1827)
 -->
<!-- Title: Ogre::D3D11StagingBuffer Pages: 1 -->
<svg width="268pt" height="138pt"
 viewBox="0.00 0.00 268.00 137.75" xmlns="http://www.w3.org/2000/svg" xmlns:xlink="http://www.w3.org/1999/xlink">
<g id="graph0" class="graph" transform="scale(1 1) rotate(0) translate(4 133.75)">
<title>Ogre::D3D11StagingBuffer</title>
<!-- Node1 -->
<g id="Node000001" class="node">
<title>Node1</title>
<g id="a_Node000001"><a xlink:title="NOTE FOR D3D12 PORTING: The GL3Plus implementation should be used as reference, since it is much lowe...">
<polygon fill="#999999" stroke="#666666" points="183.62,-19.25 54.38,-19.25 54.38,0 183.62,0 183.62,-19.25"/>
<text text-anchor="middle" x="119" y="-5.75" font-family="Helvetica,sans-Serif" font-size="10.00">Ogre::D3D11StagingBuffer</text>
</a>
</g>
</g>
<!-- Node2 -->
<g id="Node000002" class="node">
<title>Node2</title>
<g id="a_Node000002"><a xlink:href="class_ogre_1_1_staging_buffer.html" target="_top" xlink:title="A staging buffer is a buffer that resides on the GPU and be written to/from both CPU &amp; GPU However th...">
<polygon fill="white" stroke="#666666" points="100,-74.5 0,-74.5 0,-55.25 100,-55.25 100,-74.5"/>
<text text-anchor="middle" x="50" y="-61" font-family="Helvetica,sans-Serif" font-size="10.00">Ogre::StagingBuffer</text>
</a>
</g>
</g>
<!-- Node2&#45;&gt;Node1 -->
<g id="edge1_Node000001_Node000002" class="edge">
<title>Node2&#45;&gt;Node1</title>
<g id="a_edge1_Node000001_Node000002"><a xlink:title=" ">
<path fill="none" stroke="#63b8ff" d="M70.65,-47.94C82.7,-38.64 97.45,-27.26 107.47,-19.52"/>
<polygon fill="#63b8ff" stroke="#63b8ff" points="68.68,-45.04 62.9,-53.92 72.96,-50.58 68.68,-45.04"/>
</a>
</g>
</g>
<!-- Node3 -->
<g id="Node000003" class="node">
<title>Node3</title>
<g id="a_Node000003"><a xlink:href="class_ogre_1_1_allocated_object.html" target="_top" xlink:title="Superclass for all objects that wish to use custom memory allocators when their new / delete operator...">
<polygon fill="white" stroke="#666666" points="98.12,-129.75 1.88,-129.75 1.88,-110.5 98.12,-110.5 98.12,-129.75"/>
<text text-anchor="middle" x="50" y="-116.25" font-family="Helvetica,sans-Serif" font-size="10.00">StagingBufferAlloc</text>
</a>
</g>
</g>
<!-- Node3&#45;&gt;Node2 -->
<g id="edge2_Node000002_Node000003" class="edge">
<title>Node3&#45;&gt;Node2</title>
<g id="a_edge2_Node000002_Node000003"><a xlink:title=" ">
<path fill="none" stroke="#63b8ff" d="M50,-98.88C50,-90.59 50,-81.42 50,-74.86"/>
<polygon fill="#63b8ff" stroke="#63b8ff" points="46.5,-98.82 50,-108.82 53.5,-98.82 46.5,-98.82"/>
</a>
</g>
</g>
<!-- Node4 -->
<g id="Node000004" class="node">
<title>Node4</title>
<g id="a_Node000004"><a xlink:href="class_ogre_1_1_d3_d11_device_resource.html" target="_top" xlink:title="Represents a Direct3D rendering resource.">
<polygon fill="white" stroke="#666666" points="260,-74.5 118,-74.5 118,-55.25 260,-55.25 260,-74.5"/>
<text text-anchor="middle" x="189" y="-61" font-family="Helvetica,sans-Serif" font-size="10.00">Ogre::D3D11DeviceResource</text>
</a>
</g>
</g>
<!-- Node4&#45;&gt;Node1 -->
<g id="edge3_Node000001_Node000004" class="edge">
<title>Node4&#45;&gt;Node1</title>
<g id="a_edge3_Node000001_Node000004"><a xlink:title=" ">
<path fill="none" stroke="#8b1a1a" d="M168.05,-47.94C155.83,-38.64 140.86,-27.26 130.7,-19.52"/>
<polygon fill="#8b1a1a" stroke="#8b1a1a" points="165.84,-50.66 175.92,-53.93 170.08,-45.09 165.84,-50.66"/>
</a>
</g>
</g>
</g>
</svg>
