<?xml version="1.0" encoding="UTF-8" standalone="no"?>
<!DOCTYPE svg PUBLIC "-//W3C//DTD SVG 1.1//EN"
 "http://www.w3.org/Graphics/SVG/1.1/DTD/svg11.dtd">
<!-- Generated by graphviz version 7.0.5 (20221223.1930)
 -->
<!-- Title: Ogre::D3D11WindowSwapChainBased Pages: 1 -->
<svg width="251pt" height="203pt"
 viewBox="0.00 0.00 250.50 203.00" xmlns="http://www.w3.org/2000/svg" xmlns:xlink="http://www.w3.org/1999/xlink">
<g id="graph0" class="graph" transform="scale(1 1) rotate(0) translate(4 199)">
<title>Ogre::D3D11WindowSwapChainBased</title>
<!-- Node1 -->
<g id="node1" class="node">
<title>Node1</title>
<g id="a_node1"><a xlink:title=" ">
<polygon fill="#999999" stroke="#666666" points="184.5,-30 29.5,-30 29.5,0 184.5,0 184.5,-30"/>
<text text-anchor="start" x="37.5" y="-18" font-family="Helvetica,sans-Serif" font-size="10.00">Ogre::D3D11WindowSwapChain</text>
<text text-anchor="middle" x="107" y="-7" font-family="Helvetica,sans-Serif" font-size="10.00">Based</text>
</a>
</g>
</g>
<!-- Node2 -->
<g id="node2" class="node">
<title>Node2</title>
<g id="a_node2"><a xlink:href="class_ogre_1_1_d3_d11_window.html" target="_top" xlink:title=" ">
<polygon fill="white" stroke="#666666" points="160,-85 54,-85 54,-66 160,-66 160,-85"/>
<text text-anchor="middle" x="107" y="-73" font-family="Helvetica,sans-Serif" font-size="10.00">Ogre::D3D11Window</text>
</a>
</g>
</g>
<!-- Node2&#45;&gt;Node1 -->
<g id="edge1" class="edge">
<title>Node2&#45;&gt;Node1</title>
<path fill="none" stroke="#63b8ff" d="M107,-54.51C107,-46.49 107,-37.43 107,-30.11"/>
<polygon fill="#63b8ff" stroke="#63b8ff" points="103.5,-54.35 107,-64.35 110.5,-54.35 103.5,-54.35"/>
</g>
<!-- Node3 -->
<g id="node3" class="node">
<title>Node3</title>
<g id="a_node3"><a xlink:href="class_ogre_1_1_window.html" target="_top" xlink:title=" ">
<polygon fill="white" stroke="#666666" points="81.5,-140 4.5,-140 4.5,-121 81.5,-121 81.5,-140"/>
<text text-anchor="middle" x="43" y="-128" font-family="Helvetica,sans-Serif" font-size="10.00">Ogre::Window</text>
</a>
</g>
</g>
<!-- Node3&#45;&gt;Node2 -->
<g id="edge2" class="edge">
<title>Node3&#45;&gt;Node2</title>
<path fill="none" stroke="#63b8ff" d="M62.48,-113.37C73.6,-104.16 87.1,-92.98 96.3,-85.36"/>
<polygon fill="#63b8ff" stroke="#63b8ff" points="60.49,-110.47 55.02,-119.54 64.96,-115.86 60.49,-110.47"/>
</g>
<!-- Node4 -->
<g id="node4" class="node">
<title>Node4</title>
<g id="a_node4"><a xlink:href="class_ogre_1_1_allocated_object.html" target="_top" xlink:title="Superclass for all objects that wish to use custom memory allocators when their new / delete operator...">
<polygon fill="white" stroke="#666666" points="86,-195 0,-195 0,-176 86,-176 86,-195"/>
<text text-anchor="middle" x="43" y="-183" font-family="Helvetica,sans-Serif" font-size="10.00">RenderSysAlloc</text>
</a>
</g>
</g>
<!-- Node4&#45;&gt;Node3 -->
<g id="edge3" class="edge">
<title>Node4&#45;&gt;Node3</title>
<path fill="none" stroke="#63b8ff" d="M43,-164.35C43,-156.1 43,-146.97 43,-140.44"/>
<polygon fill="#63b8ff" stroke="#63b8ff" points="39.5,-164.23 43,-174.23 46.5,-164.23 39.5,-164.23"/>
</g>
<!-- Node5 -->
<g id="node5" class="node">
<title>Node5</title>
<g id="a_node5"><a xlink:href="class_ogre_1_1_d3_d11_device_resource.html" target="_top" xlink:title="Represents a Direct3D rendering resource.">
<polygon fill="white" stroke="#666666" points="242.5,-140 99.5,-140 99.5,-121 242.5,-121 242.5,-140"/>
<text text-anchor="middle" x="171" y="-128" font-family="Helvetica,sans-Serif" font-size="10.00">Ogre::D3D11DeviceResource</text>
</a>
</g>
</g>
<!-- Node5&#45;&gt;Node2 -->
<g id="edge4" class="edge">
<title>Node5&#45;&gt;Node2</title>
<path fill="none" stroke="#8b1a1a" d="M151.52,-113.37C140.4,-104.16 126.9,-92.98 117.7,-85.36"/>
<polygon fill="#8b1a1a" stroke="#8b1a1a" points="149.04,-115.86 158.98,-119.54 153.51,-110.47 149.04,-115.86"/>
</g>
</g>
</svg>
