<?xml version="1.0" encoding="UTF-8" standalone="no"?>
<!DOCTYPE svg PUBLIC "-//W3C//DTD SVG 1.1//EN"
 "http://www.w3.org/Graphics/SVG/1.1/DTD/svg11.dtd">
<!-- Generated by graphviz version 9.0.0 (20230911.1827)
 -->
<!-- Title: Ogre::SmallVector&lt; T, N &gt; Pages: 1 -->
<svg width="288pt" height="360pt"
 viewBox="0.00 0.00 287.75 359.75" xmlns="http://www.w3.org/2000/svg" xmlns:xlink="http://www.w3.org/1999/xlink">
<g id="graph0" class="graph" transform="scale(1 1) rotate(0) translate(4 355.75)">
<title>Ogre::SmallVector&lt; T, N &gt;</title>
<!-- Node1 -->
<g id="Node000001" class="node">
<title>Node1</title>
<g id="a_Node000001"><a xlink:title="SmallVector &#45; This is a &#39;vector&#39; (really, a variable&#45;sized array), optimized for the case when the ar...">
<polygon fill="#999999" stroke="#666666" points="191.25,-97 90.5,-97 90.5,-66.5 191.25,-66.5 191.25,-97"/>
<text text-anchor="start" x="98.5" y="-83.5" font-family="Helvetica,sans-Serif" font-size="10.00">Ogre::SmallVector&lt;</text>
<text text-anchor="middle" x="140.88" y="-72.25" font-family="Helvetica,sans-Serif" font-size="10.00"> T, N &gt;</text>
</a>
</g>
</g>
<!-- Node6 -->
<g id="Node000006" class="node">
<title>Node6</title>
<g id="a_Node000006"><a xlink:href="struct_ogre_1_1_vector_set.html" target="_top" xlink:title=" ">
<polygon fill="white" stroke="#666666" points="133.75,-24.88 0,-24.88 0,-5.63 133.75,-5.63 133.75,-24.88"/>
<text text-anchor="middle" x="66.88" y="-11.38" font-family="Helvetica,sans-Serif" font-size="10.00">Ogre::VectorSet&lt; Edge, 8 &gt;</text>
</a>
</g>
</g>
<!-- Node1&#45;&gt;Node6 -->
<g id="edge5_Node000001_Node000006" class="edge">
<title>Node1&#45;&gt;Node6</title>
<g id="a_edge5_Node000001_Node000006"><a xlink:title=" ">
<path fill="none" stroke="#63b8ff" d="M115.77,-58.87C102.5,-47.3 86.94,-33.74 77,-25.07"/>
<polygon fill="#63b8ff" stroke="#63b8ff" points="113.1,-61.19 122.94,-65.12 117.7,-55.91 113.1,-61.19"/>
</a>
</g>
</g>
<!-- Node7 -->
<g id="Node000007" class="node">
<title>Node7</title>
<g id="a_Node000007"><a xlink:href="struct_ogre_1_1_vector_set.html" target="_top" xlink:title=" ">
<polygon fill="white" stroke="#666666" points="279.75,-30.5 152,-30.5 152,0 279.75,0 279.75,-30.5"/>
<text text-anchor="start" x="160" y="-17" font-family="Helvetica,sans-Serif" font-size="10.00">Ogre::VectorSet&lt; Triangle</text>
<text text-anchor="middle" x="215.88" y="-5.75" font-family="Helvetica,sans-Serif" font-size="10.00">I, 7 &gt;</text>
</a>
</g>
</g>
<!-- Node1&#45;&gt;Node7 -->
<g id="edge6_Node000001_Node000007" class="edge">
<title>Node1&#45;&gt;Node7</title>
<g id="a_edge6_Node000001_Node000007"><a xlink:title=" ">
<path fill="none" stroke="#63b8ff" d="M166.47,-58.74C177.18,-49.53 189.35,-39.06 198.92,-30.83"/>
<polygon fill="#63b8ff" stroke="#63b8ff" points="164.34,-55.95 159.04,-65.13 168.91,-61.26 164.34,-55.95"/>
</a>
</g>
</g>
<!-- Node2 -->
<g id="Node000002" class="node">
<title>Node2</title>
<g id="a_Node000002"><a xlink:href="class_ogre_1_1_small_vector_impl.html" target="_top" xlink:title="SmallVectorImpl &#45; This class consists of common code factored out of the SmallVector class to reduce ...">
<polygon fill="white" stroke="#666666" points="208.88,-152.25 72.88,-152.25 72.88,-133 208.88,-133 208.88,-152.25"/>
<text text-anchor="middle" x="140.88" y="-138.75" font-family="Helvetica,sans-Serif" font-size="10.00">Ogre::SmallVectorImpl&lt; T &gt;</text>
</a>
</g>
</g>
<!-- Node2&#45;&gt;Node1 -->
<g id="edge1_Node000001_Node000002" class="edge">
<title>Node2&#45;&gt;Node1</title>
<g id="a_edge1_Node000001_Node000002"><a xlink:title=" ">
<path fill="none" stroke="#63b8ff" d="M140.88,-121.42C140.88,-113.49 140.88,-104.56 140.88,-97.28"/>
<polygon fill="#63b8ff" stroke="#63b8ff" points="137.38,-121.17 140.88,-131.17 144.38,-121.17 137.38,-121.17"/>
</a>
</g>
</g>
<!-- Node3 -->
<g id="Node000003" class="node">
<title>Node3</title>
<g id="a_Node000003"><a xlink:href="class_ogre_1_1_small_vector_template_base.html" target="_top" xlink:title=" ">
<polygon fill="white" stroke="#666666" points="208.5,-230 73.25,-230 73.25,-188.25 208.5,-188.25 208.5,-230"/>
<text text-anchor="start" x="81.25" y="-216.5" font-family="Helvetica,sans-Serif" font-size="10.00">Ogre::SmallVectorTemplate</text>
<text text-anchor="start" x="81.25" y="-205.25" font-family="Helvetica,sans-Serif" font-size="10.00">Base&lt; T, isPodLike&lt; T &gt;</text>
<text text-anchor="middle" x="140.88" y="-194" font-family="Helvetica,sans-Serif" font-size="10.00">::value &gt;</text>
</a>
</g>
</g>
<!-- Node3&#45;&gt;Node2 -->
<g id="edge2_Node000002_Node000003" class="edge">
<title>Node3&#45;&gt;Node2</title>
<g id="a_edge2_Node000002_Node000003"><a xlink:title=" ">
<path fill="none" stroke="#63b8ff" d="M140.88,-176.76C140.88,-167.95 140.88,-159.05 140.88,-152.7"/>
<polygon fill="#63b8ff" stroke="#63b8ff" points="137.38,-176.56 140.88,-186.56 144.38,-176.56 137.38,-176.56"/>
</a>
</g>
</g>
<!-- Node4 -->
<g id="Node000004" class="node">
<title>Node4</title>
<g id="a_Node000004"><a xlink:href="class_ogre_1_1_small_vector_template_common.html" target="_top" xlink:title=" ">
<polygon fill="white" stroke="#666666" points="208.5,-296.5 73.25,-296.5 73.25,-266 208.5,-266 208.5,-296.5"/>
<text text-anchor="start" x="81.25" y="-283" font-family="Helvetica,sans-Serif" font-size="10.00">Ogre::SmallVectorTemplate</text>
<text text-anchor="middle" x="140.88" y="-271.75" font-family="Helvetica,sans-Serif" font-size="10.00">Common&lt; T &gt;</text>
</a>
</g>
</g>
<!-- Node4&#45;&gt;Node3 -->
<g id="edge3_Node000003_Node000004" class="edge">
<title>Node4&#45;&gt;Node3</title>
<g id="a_edge3_Node000003_Node000004"><a xlink:title=" ">
<path fill="none" stroke="#63b8ff" d="M140.88,-254.47C140.88,-246.56 140.88,-237.98 140.88,-230.49"/>
<polygon fill="#63b8ff" stroke="#63b8ff" points="137.38,-254.21 140.88,-264.21 144.38,-254.21 137.38,-254.21"/>
</a>
</g>
</g>
<!-- Node5 -->
<g id="Node000005" class="node">
<title>Node5</title>
<g id="a_Node000005"><a xlink:href="class_ogre_1_1_small_vector_base.html" target="_top" xlink:title="SmallVectorBase &#45; This is all the non&#45;templated stuff common to all SmallVectors.">
<polygon fill="white" stroke="#666666" points="199.5,-351.75 82.25,-351.75 82.25,-332.5 199.5,-332.5 199.5,-351.75"/>
<text text-anchor="middle" x="140.88" y="-338.25" font-family="Helvetica,sans-Serif" font-size="10.00">Ogre::SmallVectorBase</text>
</a>
</g>
</g>
<!-- Node5&#45;&gt;Node4 -->
<g id="edge4_Node000004_Node000005" class="edge">
<title>Node5&#45;&gt;Node4</title>
<g id="a_edge4_Node000004_Node000005"><a xlink:title=" ">
<path fill="none" stroke="#63b8ff" d="M140.88,-320.92C140.88,-312.99 140.88,-304.06 140.88,-296.78"/>
<polygon fill="#63b8ff" stroke="#63b8ff" points="137.38,-320.67 140.88,-330.67 144.38,-320.67 137.38,-320.67"/>
</a>
</g>
</g>
</g>
</svg>
