<?xml version="1.0" encoding="UTF-8" standalone="no"?>
<!DOCTYPE svg PUBLIC "-//W3C//DTD SVG 1.1//EN"
 "http://www.w3.org/Graphics/SVG/1.1/DTD/svg11.dtd">
<!-- Generated by graphviz version 9.0.0 (20230911.1827)
 -->
<!-- Title: Ogre::TexBufferPacked Pages: 1 -->
<svg width="982pt" height="377pt"
 viewBox="0.00 0.00 981.50 376.88" xmlns="http://www.w3.org/2000/svg" xmlns:xlink="http://www.w3.org/1999/xlink">
<g id="graph0" class="graph" transform="scale(1 1) rotate(0) translate(4 372.88)">
<title>Ogre::TexBufferPacked</title>
<!-- Node1 -->
<g id="Node000001" class="node">
<title>Node1</title>
<g id="a_Node000001"><a xlink:title="Represents Texture buffers (also known as tbuffers in D3D11)">
<polygon fill="#999999" stroke="#666666" points="423.75,-239.88 308,-239.88 308,-220.62 423.75,-220.62 423.75,-239.88"/>
<text text-anchor="middle" x="365.88" y="-226.38" font-family="Helvetica,sans-Serif" font-size="10.00">Ogre::TexBufferPacked</text>
</a>
</g>
</g>
<!-- Node5 -->
<g id="Node000005" class="node">
<title>Node5</title>
<g id="a_Node000005"><a xlink:href="class_ogre_1_1_d3_d11_tex_buffer_packed.html" target="_top" xlink:title=" ">
<polygon fill="white" stroke="#666666" points="613,-368.88 468,-368.88 468,-349.62 613,-349.62 613,-368.88"/>
<text text-anchor="middle" x="540.5" y="-355.38" font-family="Helvetica,sans-Serif" font-size="10.00">Ogre::D3D11TexBufferPacked</text>
</a>
</g>
</g>
<!-- Node1&#45;&gt;Node5 -->
<g id="edge4_Node000001_Node000005" class="edge">
<title>Node1&#45;&gt;Node5</title>
<g id="a_edge4_Node000001_Node000005"><a xlink:title=" ">
<path fill="none" stroke="#63b8ff" d="M378.13,-250.14C393.34,-275.15 422.85,-317.54 459.75,-340.25 465.69,-343.91 472.28,-346.86 479.05,-349.24"/>
<polygon fill="#63b8ff" stroke="#63b8ff" points="381.19,-248.45 373.11,-241.61 375.16,-252 381.19,-248.45"/>
</a>
</g>
</g>
<!-- Node6 -->
<g id="Node000006" class="node">
<title>Node6</title>
<g id="a_Node000006"><a xlink:href="class_ogre_1_1_g_l3_plus_tex_buffer_emulated_packed.html" target="_top" xlink:title=" ">
<polygon fill="white" stroke="#666666" points="621.25,-331.5 459.75,-331.5 459.75,-301 621.25,-301 621.25,-331.5"/>
<text text-anchor="start" x="467.75" y="-318" font-family="Helvetica,sans-Serif" font-size="10.00">Ogre::GL3PlusTexBufferEmulated</text>
<text text-anchor="middle" x="540.5" y="-306.75" font-family="Helvetica,sans-Serif" font-size="10.00">Packed</text>
</a>
</g>
</g>
<!-- Node1&#45;&gt;Node6 -->
<g id="edge5_Node000001_Node000006" class="edge">
<title>Node1&#45;&gt;Node6</title>
<g id="a_edge5_Node000001_Node000006"><a xlink:title=" ">
<path fill="none" stroke="#63b8ff" d="M388.48,-247.37C406.63,-261.08 433.71,-279.98 459.75,-292.25 466.29,-295.33 473.32,-298.13 480.39,-300.63"/>
<polygon fill="#63b8ff" stroke="#63b8ff" points="390.63,-244.62 380.57,-241.29 386.36,-250.16 390.63,-244.62"/>
</a>
</g>
</g>
<!-- Node7 -->
<g id="Node000007" class="node">
<title>Node7</title>
<g id="a_Node000007"><a xlink:href="class_ogre_1_1_g_l3_plus_tex_buffer_packed.html" target="_top" xlink:title=" ">
<polygon fill="white" stroke="#666666" points="617.5,-282.88 463.5,-282.88 463.5,-263.62 617.5,-263.62 617.5,-282.88"/>
<text text-anchor="middle" x="540.5" y="-269.38" font-family="Helvetica,sans-Serif" font-size="10.00">Ogre::GL3PlusTexBufferPacked</text>
</a>
</g>
</g>
<!-- Node1&#45;&gt;Node7 -->
<g id="edge6_Node000001_Node000007" class="edge">
<title>Node1&#45;&gt;Node7</title>
<g id="a_edge6_Node000001_Node000007"><a xlink:title=" ">
<path fill="none" stroke="#63b8ff" d="M416.19,-243.18C430.25,-246.82 445.59,-250.73 459.75,-254.25 471.63,-257.2 484.53,-260.31 496.42,-263.14"/>
<polygon fill="#63b8ff" stroke="#63b8ff" points="417.27,-239.84 406.71,-240.72 415.51,-246.62 417.27,-239.84"/>
</a>
</g>
</g>
<!-- Node8 -->
<g id="Node000008" class="node">
<title>Node8</title>
<g id="a_Node000008"><a xlink:href="class_ogre_1_1_g_l_e_s2_tex_buffer_emulated_packed.html" target="_top" xlink:title=" ">
<polygon fill="white" stroke="#666666" points="617.88,-245.5 463.12,-245.5 463.12,-215 617.88,-215 617.88,-245.5"/>
<text text-anchor="start" x="471.12" y="-232" font-family="Helvetica,sans-Serif" font-size="10.00">Ogre::GLES2TexBufferEmulated</text>
<text text-anchor="middle" x="540.5" y="-220.75" font-family="Helvetica,sans-Serif" font-size="10.00">Packed</text>
</a>
</g>
</g>
<!-- Node1&#45;&gt;Node8 -->
<g id="edge7_Node000001_Node000008" class="edge">
<title>Node1&#45;&gt;Node8</title>
<g id="a_edge7_Node000001_Node000008"><a xlink:title=" ">
<path fill="none" stroke="#63b8ff" d="M435.2,-230.25C444.28,-230.25 453.64,-230.25 462.85,-230.25"/>
<polygon fill="#63b8ff" stroke="#63b8ff" points="435.39,-226.75 425.39,-230.25 435.39,-233.75 435.39,-226.75"/>
</a>
</g>
</g>
<!-- Node9 -->
<g id="Node000009" class="node">
<title>Node9</title>
<g id="a_Node000009"><a xlink:href="class_ogre_1_1_n_u_l_l_tex_buffer_packed.html" target="_top" xlink:title=" ">
<polygon fill="white" stroke="#666666" points="611.88,-196.88 469.12,-196.88 469.12,-177.62 611.88,-177.62 611.88,-196.88"/>
<text text-anchor="middle" x="540.5" y="-183.38" font-family="Helvetica,sans-Serif" font-size="10.00">Ogre::NULLTexBufferPacked</text>
</a>
</g>
</g>
<!-- Node1&#45;&gt;Node9 -->
<g id="edge8_Node000001_Node000009" class="edge">
<title>Node1&#45;&gt;Node9</title>
<g id="a_edge8_Node000001_Node000009"><a xlink:title=" ">
<path fill="none" stroke="#63b8ff" d="M416.19,-217.32C430.25,-213.68 445.59,-209.77 459.75,-206.25 471.63,-203.3 484.53,-200.19 496.42,-197.36"/>
<polygon fill="#63b8ff" stroke="#63b8ff" points="415.51,-213.88 406.71,-219.78 417.27,-220.66 415.51,-213.88"/>
</a>
</g>
</g>
<!-- Node10 -->
<g id="Node000010" class="node">
<title>Node10</title>
<g id="a_Node000010"><a xlink:href="class_ogre_1_1_read_only_buffer_packed.html" target="_top" xlink:title="Represents the best way to access read&#45;only data.">
<polygon fill="white" stroke="#666666" points="611.5,-159.88 469.5,-159.88 469.5,-140.62 611.5,-140.62 611.5,-159.88"/>
<text text-anchor="middle" x="540.5" y="-146.38" font-family="Helvetica,sans-Serif" font-size="10.00">Ogre::ReadOnlyBufferPacked</text>
</a>
</g>
</g>
<!-- Node1&#45;&gt;Node10 -->
<g id="edge9_Node000001_Node000010" class="edge">
<title>Node1&#45;&gt;Node10</title>
<g id="a_edge9_Node000001_Node000010"><a xlink:title=" ">
<path fill="none" stroke="#63b8ff" d="M387.65,-213.11C405.66,-199.08 432.99,-179.73 459.75,-168.25 467.05,-165.12 474.98,-162.49 482.9,-160.3"/>
<polygon fill="#63b8ff" stroke="#63b8ff" points="385.48,-210.37 379.84,-219.34 389.84,-215.84 385.48,-210.37"/>
</a>
</g>
</g>
<!-- Node19 -->
<g id="Node000019" class="node">
<title>Node19</title>
<g id="a_Node000019"><a xlink:href="class_ogre_1_1_vulkan_tex_buffer_packed.html" target="_top" xlink:title=" ">
<polygon fill="white" stroke="#666666" points="613.38,-122.88 467.62,-122.88 467.62,-103.62 613.38,-103.62 613.38,-122.88"/>
<text text-anchor="middle" x="540.5" y="-109.38" font-family="Helvetica,sans-Serif" font-size="10.00">Ogre::VulkanTexBufferPacked</text>
</a>
</g>
</g>
<!-- Node1&#45;&gt;Node19 -->
<g id="edge18_Node000001_Node000019" class="edge">
<title>Node1&#45;&gt;Node19</title>
<g id="a_edge18_Node000001_Node000019"><a xlink:title=" ">
<path fill="none" stroke="#63b8ff" d="M379.51,-210.96C395.44,-188.26 424.98,-151.14 459.75,-131.25 465.29,-128.08 471.35,-125.47 477.58,-123.31"/>
<polygon fill="#63b8ff" stroke="#63b8ff" points="376.77,-208.78 374.03,-219.01 382.55,-212.71 376.77,-208.78"/>
</a>
</g>
</g>
<!-- Node2 -->
<g id="Node000002" class="node">
<title>Node2</title>
<g id="a_Node000002"><a xlink:href="class_ogre_1_1_buffer_packed.html" target="_top" xlink:title=" ">
<polygon fill="white" stroke="#666666" points="272,-239.88 172,-239.88 172,-220.62 272,-220.62 272,-239.88"/>
<text text-anchor="middle" x="222" y="-226.38" font-family="Helvetica,sans-Serif" font-size="10.00">Ogre::BufferPacked</text>
</a>
</g>
</g>
<!-- Node2&#45;&gt;Node1 -->
<g id="edge1_Node000001_Node000002" class="edge">
<title>Node2&#45;&gt;Node1</title>
<g id="a_edge1_Node000001_Node000002"><a xlink:title=" ">
<path fill="none" stroke="#63b8ff" d="M283.51,-230.25C291.62,-230.25 299.91,-230.25 307.95,-230.25"/>
<polygon fill="#63b8ff" stroke="#63b8ff" points="283.74,-226.75 273.74,-230.25 283.74,-233.75 283.74,-226.75"/>
</a>
</g>
</g>
<!-- Node3 -->
<g id="Node000003" class="node">
<title>Node3</title>
<g id="a_Node000003"><a xlink:href="struct_ogre_1_1_gpu_tracked_resource.html" target="_top" xlink:title=" ">
<polygon fill="white" stroke="#666666" points="136,-258.88 0,-258.88 0,-239.62 136,-239.62 136,-258.88"/>
<text text-anchor="middle" x="68" y="-245.38" font-family="Helvetica,sans-Serif" font-size="10.00">Ogre::GpuTrackedResource</text>
</a>
</g>
</g>
<!-- Node3&#45;&gt;Node2 -->
<g id="edge2_Node000002_Node000003" class="edge">
<title>Node3&#45;&gt;Node2</title>
<g id="a_edge2_Node000002_Node000003"><a xlink:title=" ">
<path fill="none" stroke="#63b8ff" d="M147.35,-239.46C155.59,-238.43 163.81,-237.4 171.59,-236.43"/>
<polygon fill="#63b8ff" stroke="#63b8ff" points="147.1,-235.96 137.61,-240.67 147.97,-242.91 147.1,-235.96"/>
</a>
</g>
</g>
<!-- Node4 -->
<g id="Node000004" class="node">
<title>Node4</title>
<g id="a_Node000004"><a xlink:href="class_ogre_1_1_allocated_object.html" target="_top" xlink:title="Superclass for all objects that wish to use custom memory allocators when their new / delete operator...">
<polygon fill="white" stroke="#666666" points="116.12,-221.88 19.88,-221.88 19.88,-202.62 116.12,-202.62 116.12,-221.88"/>
<text text-anchor="middle" x="68" y="-208.38" font-family="Helvetica,sans-Serif" font-size="10.00">BufferPackedAlloc</text>
</a>
</g>
</g>
<!-- Node4&#45;&gt;Node2 -->
<g id="edge3_Node000002_Node000004" class="edge">
<title>Node4&#45;&gt;Node2</title>
<g id="a_edge3_Node000002_Node000004"><a xlink:title=" ">
<path fill="none" stroke="#63b8ff" d="M127.68,-219.2C142.21,-220.92 157.63,-222.75 171.67,-224.41"/>
<polygon fill="#63b8ff" stroke="#63b8ff" points="128.11,-215.73 117.76,-218.02 127.28,-222.68 128.11,-215.73"/>
</a>
</g>
</g>
<!-- Node11 -->
<g id="Node000011" class="node">
<title>Node11</title>
<g id="a_Node000011"><a xlink:href="class_ogre_1_1_d3_d11_read_only_buffer_packed.html" target="_top" xlink:title=" ">
<polygon fill="white" stroke="#666666" points="800,-312.5 661.75,-312.5 661.75,-282 800,-282 800,-312.5"/>
<text text-anchor="start" x="669.75" y="-299" font-family="Helvetica,sans-Serif" font-size="10.00">Ogre::D3D11ReadOnlyBuffer</text>
<text text-anchor="middle" x="730.88" y="-287.75" font-family="Helvetica,sans-Serif" font-size="10.00">Packed</text>
</a>
</g>
</g>
<!-- Node10&#45;&gt;Node11 -->
<g id="edge10_Node000010_Node000011" class="edge">
<title>Node10&#45;&gt;Node11</title>
<g id="a_edge10_Node000010_Node000011"><a xlink:title=" ">
<path fill="none" stroke="#63b8ff" d="M619.24,-166.55C619.93,-167.1 620.6,-167.66 621.25,-168.25 657.71,-200.86 622.63,-237.69 657.25,-272.25 660.84,-275.83 664.96,-278.9 669.38,-281.53"/>
<polygon fill="#63b8ff" stroke="#63b8ff" points="621.23,-163.66 610.94,-161.15 617.41,-169.53 621.23,-163.66"/>
</a>
</g>
</g>
<!-- Node12 -->
<g id="Node000012" class="node">
<title>Node12</title>
<g id="a_Node000012"><a xlink:href="class_ogre_1_1_g_l3_plus_read_only_buffer_emulated_packed.html" target="_top" xlink:title=" ">
<polygon fill="white" stroke="#666666" points="804.5,-263.5 657.25,-263.5 657.25,-233 804.5,-233 804.5,-263.5"/>
<text text-anchor="start" x="665.25" y="-250" font-family="Helvetica,sans-Serif" font-size="10.00">Ogre::GL3PlusReadOnlyBuffer</text>
<text text-anchor="middle" x="730.88" y="-238.75" font-family="Helvetica,sans-Serif" font-size="10.00">EmulatedPacked</text>
</a>
</g>
</g>
<!-- Node10&#45;&gt;Node12 -->
<g id="edge11_Node000010_Node000012" class="edge">
<title>Node10&#45;&gt;Node12</title>
<g id="a_edge11_Node000010_Node000012"><a xlink:title=" ">
<path fill="none" stroke="#63b8ff" d="M616.41,-165.18C618.07,-166.14 619.69,-167.17 621.25,-168.25 645.25,-184.91 634.19,-205.31 657.25,-223.25 661.88,-226.85 667.06,-229.96 672.47,-232.63"/>
<polygon fill="#63b8ff" stroke="#63b8ff" points="618.34,-162.23 607.82,-160.99 615.26,-168.52 618.34,-162.23"/>
</a>
</g>
</g>
<!-- Node13 -->
<g id="Node000013" class="node">
<title>Node13</title>
<g id="a_Node000013"><a xlink:href="class_ogre_1_1_g_l3_plus_read_only_tex_buffer_packed.html" target="_top" xlink:title=" ">
<polygon fill="white" stroke="#666666" points="799.62,-214.5 662.12,-214.5 662.12,-184 799.62,-184 799.62,-214.5"/>
<text text-anchor="start" x="670.12" y="-201" font-family="Helvetica,sans-Serif" font-size="10.00">Ogre::GL3PlusReadOnlyTex</text>
<text text-anchor="middle" x="730.88" y="-189.75" font-family="Helvetica,sans-Serif" font-size="10.00">BufferPacked</text>
</a>
</g>
</g>
<!-- Node10&#45;&gt;Node13 -->
<g id="edge12_Node000010_Node000013" class="edge">
<title>Node10&#45;&gt;Node13</title>
<g id="a_edge12_Node000010_Node000013"><a xlink:title=" ">
<path fill="none" stroke="#63b8ff" d="M599.18,-162.87C606.62,-164.61 614.13,-166.43 621.25,-168.25 639.49,-172.91 659.33,-178.43 677,-183.52"/>
<polygon fill="#63b8ff" stroke="#63b8ff" points="600,-159.46 589.47,-160.62 598.42,-166.28 600,-159.46"/>
</a>
</g>
</g>
<!-- Node14 -->
<g id="Node000014" class="node">
<title>Node14</title>
<g id="a_Node000014"><a xlink:href="class_ogre_1_1_g_l3_plus_read_only_uav_buffer_packed.html" target="_top" xlink:title=" ">
<polygon fill="white" stroke="#666666" points="800.75,-165.5 661,-165.5 661,-135 800.75,-135 800.75,-165.5"/>
<text text-anchor="start" x="669" y="-152" font-family="Helvetica,sans-Serif" font-size="10.00">Ogre::GL3PlusReadOnlyUav</text>
<text text-anchor="middle" x="730.88" y="-140.75" font-family="Helvetica,sans-Serif" font-size="10.00">BufferPacked</text>
</a>
</g>
</g>
<!-- Node10&#45;&gt;Node14 -->
<g id="edge13_Node000010_Node000014" class="edge">
<title>Node10&#45;&gt;Node14</title>
<g id="a_edge13_Node000010_Node000014"><a xlink:title=" ">
<path fill="none" stroke="#63b8ff" d="M623.29,-150.25C635.8,-150.25 648.6,-150.25 660.8,-150.25"/>
<polygon fill="#63b8ff" stroke="#63b8ff" points="623.43,-146.75 613.43,-150.25 623.43,-153.75 623.43,-146.75"/>
</a>
</g>
</g>
<!-- Node15 -->
<g id="Node000015" class="node">
<title>Node15</title>
<g id="a_Node000015"><a xlink:href="class_ogre_1_1_metal_tex_buffer_packed.html" target="_top" xlink:title="In Metal, Tex and ReadOnly buffers are exactly the same, thus we derive from ReadOnlyBufferPacked to ...">
<polygon fill="white" stroke="#666666" points="800.75,-116.88 661,-116.88 661,-97.62 800.75,-97.62 800.75,-116.88"/>
<text text-anchor="middle" x="730.88" y="-103.38" font-family="Helvetica,sans-Serif" font-size="10.00">Ogre::MetalTexBufferPacked</text>
</a>
</g>
</g>
<!-- Node10&#45;&gt;Node15 -->
<g id="edge14_Node000010_Node000015" class="edge">
<title>Node10&#45;&gt;Node15</title>
<g id="a_edge14_Node000010_Node000015"><a xlink:title=" ">
<path fill="none" stroke="#63b8ff" d="M597.4,-137.67C605.4,-135.85 613.54,-134.01 621.25,-132.25 642.66,-127.37 666.44,-121.9 686.28,-117.33"/>
<polygon fill="#63b8ff" stroke="#63b8ff" points="596.68,-134.24 587.69,-139.86 598.22,-141.07 596.68,-134.24"/>
</a>
</g>
</g>
<!-- Node17 -->
<g id="Node000017" class="node">
<title>Node17</title>
<g id="a_Node000017"><a xlink:href="class_ogre_1_1_n_u_l_l_read_only_buffer_packed.html" target="_top" xlink:title=" ">
<polygon fill="white" stroke="#666666" points="798.88,-79.5 662.88,-79.5 662.88,-49 798.88,-49 798.88,-79.5"/>
<text text-anchor="start" x="670.88" y="-66" font-family="Helvetica,sans-Serif" font-size="10.00">Ogre::NULLReadOnlyBuffer</text>
<text text-anchor="middle" x="730.88" y="-54.75" font-family="Helvetica,sans-Serif" font-size="10.00">Packed</text>
</a>
</g>
</g>
<!-- Node10&#45;&gt;Node17 -->
<g id="edge16_Node000010_Node000017" class="edge">
<title>Node10&#45;&gt;Node17</title>
<g id="a_edge16_Node000010_Node000017"><a xlink:title=" ">
<path fill="none" stroke="#63b8ff" d="M614.95,-135.76C617.12,-134.67 619.22,-133.5 621.25,-132.25 642.74,-118.97 636.43,-102.56 657.25,-88.25 661.85,-85.09 666.89,-82.32 672.11,-79.9"/>
<polygon fill="#63b8ff" stroke="#63b8ff" points="613.66,-132.5 605.86,-139.67 616.43,-138.93 613.66,-132.5"/>
</a>
</g>
</g>
<!-- Node18 -->
<g id="Node000018" class="node">
<title>Node18</title>
<g id="a_Node000018"><a xlink:href="class_ogre_1_1_vulkan_read_only_buffer_packed.html" target="_top" xlink:title=" ">
<polygon fill="white" stroke="#666666" points="800.38,-30.5 661.38,-30.5 661.38,0 800.38,0 800.38,-30.5"/>
<text text-anchor="start" x="669.38" y="-17" font-family="Helvetica,sans-Serif" font-size="10.00">Ogre::VulkanReadOnlyBuffer</text>
<text text-anchor="middle" x="730.88" y="-5.75" font-family="Helvetica,sans-Serif" font-size="10.00">Packed</text>
</a>
</g>
</g>
<!-- Node10&#45;&gt;Node18 -->
<g id="edge17_Node000010_Node000018" class="edge">
<title>Node10&#45;&gt;Node18</title>
<g id="a_edge17_Node000010_Node000018"><a xlink:title=" ">
<path fill="none" stroke="#63b8ff" d="M618.79,-134.24C619.63,-133.6 620.45,-132.94 621.25,-132.25 654.55,-103.63 625.57,-70.65 657.25,-40.25 661,-36.65 665.3,-33.57 669.88,-30.93"/>
<polygon fill="#63b8ff" stroke="#63b8ff" points="617.09,-131.17 610.43,-139.42 620.78,-137.13 617.09,-131.17"/>
</a>
</g>
</g>
<!-- Node16 -->
<g id="Node000016" class="node">
<title>Node16</title>
<g id="a_Node000016"><a xlink:href="class_ogre_1_1_metal_read_only_buffer_packed.html" target="_top" xlink:title=" ">
<polygon fill="white" stroke="#666666" points="973.5,-122.5 840.5,-122.5 840.5,-92 973.5,-92 973.5,-122.5"/>
<text text-anchor="start" x="848.5" y="-109" font-family="Helvetica,sans-Serif" font-size="10.00">Ogre::MetalReadOnlyBuffer</text>
<text text-anchor="middle" x="907" y="-97.75" font-family="Helvetica,sans-Serif" font-size="10.00">Packed</text>
</a>
</g>
</g>
<!-- Node15&#45;&gt;Node16 -->
<g id="edge15_Node000015_Node000016" class="edge">
<title>Node15&#45;&gt;Node16</title>
<g id="a_edge15_Node000015_Node000016"><a xlink:title=" ">
<path fill="none" stroke="#63b8ff" d="M812.4,-107.25C821.66,-107.25 831.01,-107.25 840.04,-107.25"/>
<polygon fill="#63b8ff" stroke="#63b8ff" points="812.71,-103.75 802.71,-107.25 812.71,-110.75 812.71,-103.75"/>
</a>
</g>
</g>
</g>
</svg>
