<?xml version="1.0" encoding="UTF-8" standalone="no"?>
<!DOCTYPE svg PUBLIC "-//W3C//DTD SVG 1.1//EN"
 "http://www.w3.org/Graphics/SVG/1.1/DTD/svg11.dtd">
<!-- Generated by graphviz version 9.0.0 (20230911.1827)
 -->
<!-- Title: Ogre::Font Pages: 1 -->
<svg width="302pt" height="138pt"
 viewBox="0.00 0.00 302.12 137.75" xmlns="http://www.w3.org/2000/svg" xmlns:xlink="http://www.w3.org/1999/xlink">
<g id="graph0" class="graph" transform="scale(1 1) rotate(0) translate(4 133.75)">
<title>Ogre::Font</title>
<!-- Node1 -->
<g id="Node000001" class="node">
<title>Node1</title>
<g id="a_Node000001"><a xlink:title="Class representing a font in the system.">
<polygon fill="#999999" stroke="#666666" points="199.12,-19.25 138.12,-19.25 138.12,0 199.12,0 199.12,-19.25"/>
<text text-anchor="middle" x="168.62" y="-5.75" font-family="Helvetica,sans-Serif" font-size="10.00">Ogre::Font</text>
</a>
</g>
</g>
<!-- Node2 -->
<g id="Node000002" class="node">
<title>Node2</title>
<g id="a_Node000002"><a xlink:href="class_ogre_1_1_resource.html" target="_top" xlink:title="Abstract class representing a loadable resource (e.g.">
<polygon fill="white" stroke="#666666" points="149,-74.5 66.25,-74.5 66.25,-55.25 149,-55.25 149,-74.5"/>
<text text-anchor="middle" x="107.62" y="-61" font-family="Helvetica,sans-Serif" font-size="10.00">Ogre::Resource</text>
</a>
</g>
</g>
<!-- Node2&#45;&gt;Node1 -->
<g id="edge1_Node000001_Node000002" class="edge">
<title>Node2&#45;&gt;Node1</title>
<g id="a_edge1_Node000001_Node000002"><a xlink:title=" ">
<path fill="none" stroke="#63b8ff" d="M126.51,-47.39C137.05,-38.19 149.75,-27.1 158.43,-19.52"/>
<polygon fill="#63b8ff" stroke="#63b8ff" points="124.34,-44.63 119.11,-53.85 128.95,-49.91 124.34,-44.63"/>
</a>
</g>
</g>
<!-- Node3 -->
<g id="Node000003" class="node">
<title>Node3</title>
<g id="a_Node000003"><a xlink:href="class_ogre_1_1_string_interface.html" target="_top" xlink:title="Class defining the common interface which classes can use to present a reflection&#45;style,...">
<polygon fill="white" stroke="#666666" points="105.25,-129.75 0,-129.75 0,-110.5 105.25,-110.5 105.25,-129.75"/>
<text text-anchor="middle" x="52.62" y="-116.25" font-family="Helvetica,sans-Serif" font-size="10.00">Ogre::StringInterface</text>
</a>
</g>
</g>
<!-- Node3&#45;&gt;Node2 -->
<g id="edge2_Node000002_Node000003" class="edge">
<title>Node3&#45;&gt;Node2</title>
<g id="a_edge2_Node000002_Node000003"><a xlink:title=" ">
<path fill="none" stroke="#63b8ff" d="M69.98,-102.32C79.37,-93.23 90.61,-82.35 98.35,-74.86"/>
<polygon fill="#63b8ff" stroke="#63b8ff" points="67.54,-99.81 62.79,-109.28 72.41,-104.84 67.54,-99.81"/>
</a>
</g>
</g>
<!-- Node4 -->
<g id="Node000004" class="node">
<title>Node4</title>
<g id="a_Node000004"><a xlink:href="class_ogre_1_1_allocated_object.html" target="_top" xlink:title="Superclass for all objects that wish to use custom memory allocators when their new / delete operator...">
<polygon fill="white" stroke="#666666" points="202.12,-129.75 123.12,-129.75 123.12,-110.5 202.12,-110.5 202.12,-129.75"/>
<text text-anchor="middle" x="162.62" y="-116.25" font-family="Helvetica,sans-Serif" font-size="10.00">ResourceAlloc</text>
</a>
</g>
</g>
<!-- Node4&#45;&gt;Node2 -->
<g id="edge3_Node000002_Node000004" class="edge">
<title>Node4&#45;&gt;Node2</title>
<g id="a_edge3_Node000002_Node000004"><a xlink:title=" ">
<path fill="none" stroke="#63b8ff" d="M145.27,-102.32C135.88,-93.23 124.64,-82.35 116.9,-74.86"/>
<polygon fill="#63b8ff" stroke="#63b8ff" points="142.84,-104.84 152.46,-109.28 147.71,-99.81 142.84,-104.84"/>
</a>
</g>
</g>
<!-- Node5 -->
<g id="Node000005" class="node">
<title>Node5</title>
<g id="a_Node000005"><a xlink:href="class_ogre_1_1_texture_gpu_listener.html" target="_top" xlink:title=" ">
<polygon fill="white" stroke="#666666" points="294.12,-74.5 167.12,-74.5 167.12,-55.25 294.12,-55.25 294.12,-74.5"/>
<text text-anchor="middle" x="230.62" y="-61" font-family="Helvetica,sans-Serif" font-size="10.00">Ogre::TextureGpuListener</text>
</a>
</g>
</g>
<!-- Node5&#45;&gt;Node1 -->
<g id="edge4_Node000001_Node000005" class="edge">
<title>Node5&#45;&gt;Node1</title>
<g id="a_edge4_Node000001_Node000005"><a xlink:title=" ">
<path fill="none" stroke="#63b8ff" d="M211.43,-47.39C200.72,-38.19 187.81,-27.1 178.99,-19.52"/>
<polygon fill="#63b8ff" stroke="#63b8ff" points="209.09,-50 218.96,-53.86 213.65,-44.69 209.09,-50"/>
</a>
</g>
</g>
</g>
</svg>
