<?xml version="1.0" encoding="UTF-8" standalone="no"?>
<!DOCTYPE svg PUBLIC "-//W3C//DTD SVG 1.1//EN"
 "http://www.w3.org/Graphics/SVG/1.1/DTD/svg11.dtd">
<!-- Generated by graphviz version 9.0.0 (20230911.1827)
 -->
<!-- Title: Ogre::CompositorPass Pages: 1 -->
<svg width="460pt" height="409pt"
 viewBox="0.00 0.00 459.50 409.25" xmlns="http://www.w3.org/2000/svg" xmlns:xlink="http://www.w3.org/1999/xlink">
<g id="graph0" class="graph" transform="scale(1 1) rotate(0) translate(4 405.25)">
<title>Ogre::CompositorPass</title>
<!-- Node1 -->
<g id="Node000001" class="node">
<title>Node1</title>
<g id="a_Node000001"><a xlink:title="Abstract class for compositor passes.">
<polygon fill="#999999" stroke="#666666" points="253.25,-216.25 139.75,-216.25 139.75,-197 253.25,-197 253.25,-216.25"/>
<text text-anchor="middle" x="196.5" y="-202.75" font-family="Helvetica,sans-Serif" font-size="10.00">Ogre::CompositorPass</text>
</a>
</g>
</g>
<!-- Node3 -->
<g id="Node000003" class="node">
<title>Node3</title>
<g id="a_Node000003"><a xlink:href="class_ogre_1_1_compositor_pass_clear.html" target="_top" xlink:title="Implementation of CompositorPass This implementation will clear the RenderTarget using the parameters...">
<polygon fill="white" stroke="#666666" points="438.38,-401.25 302.38,-401.25 302.38,-382 438.38,-382 438.38,-401.25"/>
<text text-anchor="middle" x="370.38" y="-387.75" font-family="Helvetica,sans-Serif" font-size="10.00">Ogre::CompositorPassClear</text>
</a>
</g>
</g>
<!-- Node1&#45;&gt;Node3 -->
<g id="edge2_Node000001_Node000003" class="edge">
<title>Node1&#45;&gt;Node3</title>
<g id="a_edge2_Node000001_Node000003"><a xlink:title=" ">
<path fill="none" stroke="#63b8ff" d="M202.84,-227.38C213.15,-263.13 239.34,-336.1 289.25,-373.62 293.47,-376.8 298.14,-379.42 303.04,-381.6"/>
<polygon fill="#63b8ff" stroke="#63b8ff" points="206.25,-226.59 200.24,-217.86 199.5,-228.43 206.25,-226.59"/>
</a>
</g>
</g>
<!-- Node4 -->
<g id="Node000004" class="node">
<title>Node4</title>
<g id="a_Node000004"><a xlink:href="class_ogre_1_1_compositor_pass_compute.html" target="_top" xlink:title="Implementation of CompositorPass This implementation will render a fullscreen triangle/quad to the Re...">
<polygon fill="white" stroke="#666666" points="446.62,-364.25 294.12,-364.25 294.12,-345 446.62,-345 446.62,-364.25"/>
<text text-anchor="middle" x="370.38" y="-350.75" font-family="Helvetica,sans-Serif" font-size="10.00">Ogre::CompositorPassCompute</text>
</a>
</g>
</g>
<!-- Node1&#45;&gt;Node4 -->
<g id="edge3_Node000001_Node000004" class="edge">
<title>Node1&#45;&gt;Node4</title>
<g id="a_edge3_Node000001_Node000004"><a xlink:title=" ">
<path fill="none" stroke="#63b8ff" d="M206,-226.85C219.31,-255.91 247.87,-309 289.25,-336.62 293.99,-339.79 299.21,-342.41 304.64,-344.57"/>
<polygon fill="#63b8ff" stroke="#63b8ff" points="209.36,-225.79 202.13,-218.05 202.95,-228.61 209.36,-225.79"/>
</a>
</g>
</g>
<!-- Node5 -->
<g id="Node000005" class="node">
<title>Node5</title>
<g id="a_Node000005"><a xlink:href="class_ogre_1_1_compositor_pass_depth_copy.html" target="_top" xlink:title="Implementation of CompositorPass This implementation will copy one DepthBuffer to another DepthBuffer...">
<polygon fill="white" stroke="#666666" points="450.75,-327.25 290,-327.25 290,-308 450.75,-308 450.75,-327.25"/>
<text text-anchor="middle" x="370.38" y="-313.75" font-family="Helvetica,sans-Serif" font-size="10.00">Ogre::CompositorPassDepthCopy</text>
</a>
</g>
</g>
<!-- Node1&#45;&gt;Node5 -->
<g id="edge4_Node000001_Node000005" class="edge">
<title>Node1&#45;&gt;Node5</title>
<g id="a_edge4_Node000001_Node000005"><a xlink:title=" ">
<path fill="none" stroke="#63b8ff" d="M210.91,-225.68C227.01,-247.08 256.04,-281.2 289.25,-299.62 294.98,-302.81 301.25,-305.43 307.66,-307.58"/>
<polygon fill="#63b8ff" stroke="#63b8ff" points="213.89,-223.82 205.16,-217.81 208.23,-227.95 213.89,-223.82"/>
</a>
</g>
</g>
<!-- Node6 -->
<g id="Node000006" class="node">
<title>Node6</title>
<g id="a_Node000006"><a xlink:href="class_ogre_1_1_compositor_pass_ibl_specular.html" target="_top" xlink:title="Implementation of CompositorPass This implementation will generate IblSpeculars for the specified tex...">
<polygon fill="white" stroke="#666666" points="451.5,-290.25 289.25,-290.25 289.25,-271 451.5,-271 451.5,-290.25"/>
<text text-anchor="middle" x="370.38" y="-276.75" font-family="Helvetica,sans-Serif" font-size="10.00">Ogre::CompositorPassIblSpecular</text>
</a>
</g>
</g>
<!-- Node1&#45;&gt;Node6 -->
<g id="edge5_Node000001_Node000006" class="edge">
<title>Node1&#45;&gt;Node6</title>
<g id="a_edge5_Node000001_Node000006"><a xlink:title=" ">
<path fill="none" stroke="#63b8ff" d="M220.03,-223.28C237.96,-235.79 264.12,-252.46 289.25,-262.62 296.92,-265.73 305.22,-268.35 313.48,-270.54"/>
<polygon fill="#63b8ff" stroke="#63b8ff" points="222.15,-220.49 211.97,-217.53 218.08,-226.19 222.15,-220.49"/>
</a>
</g>
</g>
<!-- Node7 -->
<g id="Node000007" class="node">
<title>Node7</title>
<g id="a_Node000007"><a xlink:href="class_ogre_1_1_compositor_pass_mipmap.html" target="_top" xlink:title="Implementation of CompositorPass This implementation will generate mipmaps for the specified texture.">
<polygon fill="white" stroke="#666666" points="444.38,-253.25 296.38,-253.25 296.38,-234 444.38,-234 444.38,-253.25"/>
<text text-anchor="middle" x="370.38" y="-239.75" font-family="Helvetica,sans-Serif" font-size="10.00">Ogre::CompositorPassMipmap</text>
</a>
</g>
</g>
<!-- Node1&#45;&gt;Node7 -->
<g id="edge6_Node000001_Node000007" class="edge">
<title>Node1&#45;&gt;Node7</title>
<g id="a_edge6_Node000001_Node000007"><a xlink:title=" ">
<path fill="none" stroke="#63b8ff" d="M255.58,-219.13C277.36,-223.82 301.82,-229.08 322.47,-233.53"/>
<polygon fill="#63b8ff" stroke="#63b8ff" points="256.46,-215.74 245.95,-217.05 254.98,-222.58 256.46,-215.74"/>
</a>
</g>
</g>
<!-- Node8 -->
<g id="Node000008" class="node">
<title>Node8</title>
<g id="a_Node000008"><a xlink:href="class_ogre_1_1_compositor_pass_quad.html" target="_top" xlink:title="Implementation of CompositorPass This implementation will render a fullscreen triangle/quad to the Re...">
<polygon fill="white" stroke="#666666" points="438.75,-216.25 302,-216.25 302,-197 438.75,-197 438.75,-216.25"/>
<text text-anchor="middle" x="370.38" y="-202.75" font-family="Helvetica,sans-Serif" font-size="10.00">Ogre::CompositorPassQuad</text>
</a>
</g>
</g>
<!-- Node1&#45;&gt;Node8 -->
<g id="edge7_Node000001_Node000008" class="edge">
<title>Node1&#45;&gt;Node8</title>
<g id="a_edge7_Node000001_Node000008"><a xlink:title=" ">
<path fill="none" stroke="#63b8ff" d="M264.71,-206.62C276.81,-206.62 289.43,-206.62 301.55,-206.62"/>
<polygon fill="#63b8ff" stroke="#63b8ff" points="264.82,-203.13 254.82,-206.63 264.82,-210.13 264.82,-203.13"/>
</a>
</g>
</g>
<!-- Node9 -->
<g id="Node000009" class="node">
<title>Node9</title>
<g id="a_Node000009"><a xlink:href="class_ogre_1_1_compositor_pass_scene.html" target="_top" xlink:title="Implementation of CompositorPass This implementation will perform main rendering, selecting several p...">
<polygon fill="white" stroke="#666666" points="441,-179.25 299.75,-179.25 299.75,-160 441,-160 441,-179.25"/>
<text text-anchor="middle" x="370.38" y="-165.75" font-family="Helvetica,sans-Serif" font-size="10.00">Ogre::CompositorPassScene</text>
</a>
</g>
</g>
<!-- Node1&#45;&gt;Node9 -->
<g id="edge8_Node000001_Node000009" class="edge">
<title>Node1&#45;&gt;Node9</title>
<g id="a_edge8_Node000001_Node000009"><a xlink:title=" ">
<path fill="none" stroke="#63b8ff" d="M255.58,-194.12C277.36,-189.43 301.82,-184.17 322.47,-179.72"/>
<polygon fill="#63b8ff" stroke="#63b8ff" points="254.98,-190.67 245.95,-196.2 256.46,-197.51 254.98,-190.67"/>
</a>
</g>
</g>
<!-- Node10 -->
<g id="Node000010" class="node">
<title>Node10</title>
<g id="a_Node000010"><a xlink:href="class_ogre_1_1_compositor_pass_shadows.html" target="_top" xlink:title="CompositorPassShadows This class enables force&#45;updating multiple shadow nodes in batch in its own pas...">
<polygon fill="white" stroke="#666666" points="447.38,-142.25 293.38,-142.25 293.38,-123 447.38,-123 447.38,-142.25"/>
<text text-anchor="middle" x="370.38" y="-128.75" font-family="Helvetica,sans-Serif" font-size="10.00">Ogre::CompositorPassShadows</text>
</a>
</g>
</g>
<!-- Node1&#45;&gt;Node10 -->
<g id="edge9_Node000001_Node000010" class="edge">
<title>Node1&#45;&gt;Node10</title>
<g id="a_edge9_Node000001_Node000010"><a xlink:title=" ">
<path fill="none" stroke="#63b8ff" d="M220.03,-189.97C237.96,-177.46 264.12,-160.79 289.25,-150.62 296.92,-147.52 305.22,-144.9 313.48,-142.71"/>
<polygon fill="#63b8ff" stroke="#63b8ff" points="218.08,-187.06 211.97,-195.72 222.15,-192.76 218.08,-187.06"/>
</a>
</g>
</g>
<!-- Node11 -->
<g id="Node000011" class="node">
<title>Node11</title>
<g id="a_Node000011"><a xlink:href="class_ogre_1_1_compositor_pass_stencil.html" target="_top" xlink:title="Implementation of CompositorPass This implementation will clear the RenderTarget using the parameters...">
<polygon fill="white" stroke="#666666" points="442.12,-105.25 298.62,-105.25 298.62,-86 442.12,-86 442.12,-105.25"/>
<text text-anchor="middle" x="370.38" y="-91.75" font-family="Helvetica,sans-Serif" font-size="10.00">Ogre::CompositorPassStencil</text>
</a>
</g>
</g>
<!-- Node1&#45;&gt;Node11 -->
<g id="edge10_Node000001_Node000011" class="edge">
<title>Node1&#45;&gt;Node11</title>
<g id="a_edge10_Node000001_Node000011"><a xlink:title=" ">
<path fill="none" stroke="#63b8ff" d="M210.91,-187.57C227.01,-166.17 256.04,-132.05 289.25,-113.62 294.98,-110.44 301.25,-107.82 307.66,-105.67"/>
<polygon fill="#63b8ff" stroke="#63b8ff" points="208.23,-185.3 205.16,-195.44 213.89,-189.43 208.23,-185.3"/>
</a>
</g>
</g>
<!-- Node12 -->
<g id="Node000012" class="node">
<title>Node12</title>
<g id="a_Node000012"><a xlink:href="class_ogre_1_1_compositor_pass_target_barrier.html" target="_top" xlink:title=" ">
<polygon fill="white" stroke="#666666" points="441,-67.88 299.75,-67.88 299.75,-37.38 441,-37.38 441,-67.88"/>
<text text-anchor="start" x="307.75" y="-54.38" font-family="Helvetica,sans-Serif" font-size="10.00">Ogre::CompositorPassTarget</text>
<text text-anchor="middle" x="370.38" y="-43.12" font-family="Helvetica,sans-Serif" font-size="10.00">Barrier</text>
</a>
</g>
</g>
<!-- Node1&#45;&gt;Node12 -->
<g id="edge11_Node000001_Node000012" class="edge">
<title>Node1&#45;&gt;Node12</title>
<g id="a_edge11_Node000001_Node000012"><a xlink:title=" ">
<path fill="none" stroke="#63b8ff" d="M206.45,-186.4C220.15,-157.73 249.04,-105.55 289.25,-76.62 293.73,-73.4 298.64,-70.61 303.77,-68.19"/>
<polygon fill="#63b8ff" stroke="#63b8ff" points="203.3,-184.86 202.29,-195.41 209.66,-187.8 203.3,-184.86"/>
</a>
</g>
</g>
<!-- Node13 -->
<g id="Node000013" class="node">
<title>Node13</title>
<g id="a_Node000013"><a xlink:href="class_ogre_1_1_compositor_pass_uav.html" target="_top" xlink:title="Implementation of CompositorPass This implementation will set UAVs.">
<polygon fill="white" stroke="#666666" points="436.12,-19.25 304.62,-19.25 304.62,0 436.12,0 436.12,-19.25"/>
<text text-anchor="middle" x="370.38" y="-5.75" font-family="Helvetica,sans-Serif" font-size="10.00">Ogre::CompositorPassUav</text>
</a>
</g>
</g>
<!-- Node1&#45;&gt;Node13 -->
<g id="edge12_Node000001_Node000013" class="edge">
<title>Node1&#45;&gt;Node13</title>
<g id="a_edge12_Node000001_Node000013"><a xlink:title=" ">
<path fill="none" stroke="#63b8ff" d="M202.21,-185.63C211.76,-148.05 237.09,-69.43 289.25,-28.62 293.87,-25.01 299.06,-22.07 304.53,-19.68"/>
<polygon fill="#63b8ff" stroke="#63b8ff" points="198.84,-184.67 199.91,-195.21 205.64,-186.3 198.84,-184.67"/>
</a>
</g>
</g>
<!-- Node2 -->
<g id="Node000002" class="node">
<title>Node2</title>
<g id="a_Node000002"><a xlink:href="class_ogre_1_1_allocated_object.html" target="_top" xlink:title="Superclass for all objects that wish to use custom memory allocators when their new / delete operator...">
<polygon fill="white" stroke="#666666" points="103.75,-216.25 0,-216.25 0,-197 103.75,-197 103.75,-216.25"/>
<text text-anchor="middle" x="51.88" y="-202.75" font-family="Helvetica,sans-Serif" font-size="10.00">CompositorInstAlloc</text>
</a>
</g>
</g>
<!-- Node2&#45;&gt;Node1 -->
<g id="edge1_Node000001_Node000002" class="edge">
<title>Node2&#45;&gt;Node1</title>
<g id="a_edge1_Node000001_Node000002"><a xlink:title=" ">
<path fill="none" stroke="#63b8ff" d="M115.22,-206.62C123.28,-206.62 131.5,-206.62 139.45,-206.62"/>
<polygon fill="#63b8ff" stroke="#63b8ff" points="115.48,-203.13 105.48,-206.63 115.48,-210.13 115.48,-203.13"/>
</a>
</g>
</g>
</g>
</svg>
