<?xml version="1.0" encoding="UTF-8" standalone="no"?>
<!DOCTYPE svg PUBLIC "-//W3C//DTD SVG 1.1//EN"
 "http://www.w3.org/Graphics/SVG/1.1/DTD/svg11.dtd">
<!-- Generated by graphviz version 9.0.0 (20230911.1827)
 -->
<!-- Title: Ogre::MetalTexBufferPacked Pages: 1 -->
<svg width="258pt" height="315pt"
 viewBox="0.00 0.00 258.12 314.75" xmlns="http://www.w3.org/2000/svg" xmlns:xlink="http://www.w3.org/1999/xlink">
<g id="graph0" class="graph" transform="scale(1 1) rotate(0) translate(4 310.75)">
<title>Ogre::MetalTexBufferPacked</title>
<!-- Node1 -->
<g id="Node000001" class="node">
<title>Node1</title>
<g id="a_Node000001"><a xlink:title="In Metal, Tex and ReadOnly buffers are exactly the same, thus we derive from ReadOnlyBufferPacked to ...">
<polygon fill="#999999" stroke="#666666" points="204.88,-85.75 65.12,-85.75 65.12,-66.5 204.88,-66.5 204.88,-85.75"/>
<text text-anchor="middle" x="135" y="-72.25" font-family="Helvetica,sans-Serif" font-size="10.00">Ogre::MetalTexBufferPacked</text>
</a>
</g>
</g>
<!-- Node7 -->
<g id="Node000007" class="node">
<title>Node7</title>
<g id="a_Node000007"><a xlink:href="class_ogre_1_1_metal_read_only_buffer_packed.html" target="_top" xlink:title=" ">
<polygon fill="white" stroke="#666666" points="201.5,-30.5 68.5,-30.5 68.5,0 201.5,0 201.5,-30.5"/>
<text text-anchor="start" x="76.5" y="-17" font-family="Helvetica,sans-Serif" font-size="10.00">Ogre::MetalReadOnlyBuffer</text>
<text text-anchor="middle" x="135" y="-5.75" font-family="Helvetica,sans-Serif" font-size="10.00">Packed</text>
</a>
</g>
</g>
<!-- Node1&#45;&gt;Node7 -->
<g id="edge6_Node000001_Node000007" class="edge">
<title>Node1&#45;&gt;Node7</title>
<g id="a_edge6_Node000001_Node000007"><a xlink:title=" ">
<path fill="none" stroke="#63b8ff" d="M135,-54.92C135,-46.99 135,-38.06 135,-30.78"/>
<polygon fill="#63b8ff" stroke="#63b8ff" points="131.5,-54.67 135,-64.67 138.5,-54.67 131.5,-54.67"/>
</a>
</g>
</g>
<!-- Node2 -->
<g id="Node000002" class="node">
<title>Node2</title>
<g id="a_Node000002"><a xlink:href="class_ogre_1_1_read_only_buffer_packed.html" target="_top" xlink:title="Represents the best way to access read&#45;only data.">
<polygon fill="white" stroke="#666666" points="206,-141 64,-141 64,-121.75 206,-121.75 206,-141"/>
<text text-anchor="middle" x="135" y="-127.5" font-family="Helvetica,sans-Serif" font-size="10.00">Ogre::ReadOnlyBufferPacked</text>
</a>
</g>
</g>
<!-- Node2&#45;&gt;Node1 -->
<g id="edge1_Node000001_Node000002" class="edge">
<title>Node2&#45;&gt;Node1</title>
<g id="a_edge1_Node000001_Node000002"><a xlink:title=" ">
<path fill="none" stroke="#63b8ff" d="M135,-110.13C135,-101.84 135,-92.67 135,-86.11"/>
<polygon fill="#63b8ff" stroke="#63b8ff" points="131.5,-110.07 135,-120.07 138.5,-110.07 131.5,-110.07"/>
</a>
</g>
</g>
<!-- Node3 -->
<g id="Node000003" class="node">
<title>Node3</title>
<g id="a_Node000003"><a xlink:href="class_ogre_1_1_tex_buffer_packed.html" target="_top" xlink:title="Represents Texture buffers (also known as tbuffers in D3D11)">
<polygon fill="white" stroke="#666666" points="192.88,-196.25 77.12,-196.25 77.12,-177 192.88,-177 192.88,-196.25"/>
<text text-anchor="middle" x="135" y="-182.75" font-family="Helvetica,sans-Serif" font-size="10.00">Ogre::TexBufferPacked</text>
</a>
</g>
</g>
<!-- Node3&#45;&gt;Node2 -->
<g id="edge2_Node000002_Node000003" class="edge">
<title>Node3&#45;&gt;Node2</title>
<g id="a_edge2_Node000002_Node000003"><a xlink:title=" ">
<path fill="none" stroke="#63b8ff" d="M135,-165.38C135,-157.09 135,-147.92 135,-141.36"/>
<polygon fill="#63b8ff" stroke="#63b8ff" points="131.5,-165.32 135,-175.32 138.5,-165.32 131.5,-165.32"/>
</a>
</g>
</g>
<!-- Node4 -->
<g id="Node000004" class="node">
<title>Node4</title>
<g id="a_Node000004"><a xlink:href="class_ogre_1_1_buffer_packed.html" target="_top" xlink:title=" ">
<polygon fill="white" stroke="#666666" points="185,-251.5 85,-251.5 85,-232.25 185,-232.25 185,-251.5"/>
<text text-anchor="middle" x="135" y="-238" font-family="Helvetica,sans-Serif" font-size="10.00">Ogre::BufferPacked</text>
</a>
</g>
</g>
<!-- Node4&#45;&gt;Node3 -->
<g id="edge3_Node000003_Node000004" class="edge">
<title>Node4&#45;&gt;Node3</title>
<g id="a_edge3_Node000003_Node000004"><a xlink:title=" ">
<path fill="none" stroke="#63b8ff" d="M135,-220.63C135,-212.34 135,-203.17 135,-196.61"/>
<polygon fill="#63b8ff" stroke="#63b8ff" points="131.5,-220.57 135,-230.57 138.5,-220.57 131.5,-220.57"/>
</a>
</g>
</g>
<!-- Node5 -->
<g id="Node000005" class="node">
<title>Node5</title>
<g id="a_Node000005"><a xlink:href="struct_ogre_1_1_gpu_tracked_resource.html" target="_top" xlink:title=" ">
<polygon fill="white" stroke="#666666" points="136,-306.75 0,-306.75 0,-287.5 136,-287.5 136,-306.75"/>
<text text-anchor="middle" x="68" y="-293.25" font-family="Helvetica,sans-Serif" font-size="10.00">Ogre::GpuTrackedResource</text>
</a>
</g>
</g>
<!-- Node5&#45;&gt;Node4 -->
<g id="edge4_Node000004_Node000005" class="edge">
<title>Node5&#45;&gt;Node4</title>
<g id="a_edge4_Node000004_Node000005"><a xlink:title=" ">
<path fill="none" stroke="#63b8ff" d="M88.05,-280.19C99.75,-270.89 114.07,-259.51 123.8,-251.77"/>
<polygon fill="#63b8ff" stroke="#63b8ff" points="86.2,-277.19 80.55,-286.15 90.56,-282.67 86.2,-277.19"/>
</a>
</g>
</g>
<!-- Node6 -->
<g id="Node000006" class="node">
<title>Node6</title>
<g id="a_Node000006"><a xlink:href="class_ogre_1_1_allocated_object.html" target="_top" xlink:title="Superclass for all objects that wish to use custom memory allocators when their new / delete operator...">
<polygon fill="white" stroke="#666666" points="250.12,-306.75 153.88,-306.75 153.88,-287.5 250.12,-287.5 250.12,-306.75"/>
<text text-anchor="middle" x="202" y="-293.25" font-family="Helvetica,sans-Serif" font-size="10.00">BufferPackedAlloc</text>
</a>
</g>
</g>
<!-- Node6&#45;&gt;Node4 -->
<g id="edge5_Node000004_Node000006" class="edge">
<title>Node6&#45;&gt;Node4</title>
<g id="a_edge5_Node000004_Node000006"><a xlink:title=" ">
<path fill="none" stroke="#63b8ff" d="M181.95,-280.19C170.25,-270.89 155.93,-259.51 146.2,-251.77"/>
<polygon fill="#63b8ff" stroke="#63b8ff" points="179.44,-282.67 189.45,-286.15 183.8,-277.19 179.44,-282.67"/>
</a>
</g>
</g>
</g>
</svg>
