<?xml version="1.0" encoding="UTF-8" standalone="no"?>
<!DOCTYPE svg PUBLIC "-//W3C//DTD SVG 1.1//EN"
 "http://www.w3.org/Graphics/SVG/1.1/DTD/svg11.dtd">
<!-- Generated by graphviz version 9.0.0 (20230911.1827)
 -->
<!-- Title: Ogre::v1::HardwareBufferManager Pages: 1 -->
<svg width="596pt" height="382pt"
 viewBox="0.00 0.00 596.25 381.50" xmlns="http://www.w3.org/2000/svg" xmlns:xlink="http://www.w3.org/1999/xlink">
<g id="graph0" class="graph" transform="scale(1 1) rotate(0) translate(4 377.5)">
<title>Ogre::v1::HardwareBufferManager</title>
<!-- Node1 -->
<g id="Node000001" class="node">
<title>Node1</title>
<g id="a_Node000001"><a xlink:title="Singleton wrapper for hardware buffer manager.">
<polygon fill="#999999" stroke="#666666" points="391.5,-201.5 267.5,-201.5 267.5,-171 391.5,-171 391.5,-201.5"/>
<text text-anchor="start" x="275.5" y="-188" font-family="Helvetica,sans-Serif" font-size="10.00">Ogre::v1::HardwareBuffer</text>
<text text-anchor="middle" x="329.5" y="-176.75" font-family="Helvetica,sans-Serif" font-size="10.00">Manager</text>
</a>
</g>
</g>
<!-- Node5 -->
<g id="Node000005" class="node">
<title>Node5</title>
<g id="a_Node000005"><a xlink:href="class_ogre_1_1v1_1_1_d3_d11_hardware_buffer_manager.html" target="_top" xlink:title="D3D11HardwareBufferManagerBase as a Singleton.">
<polygon fill="white" stroke="#666666" points="584.5,-373.5 431.25,-373.5 431.25,-343 584.5,-343 584.5,-373.5"/>
<text text-anchor="start" x="439.25" y="-360" font-family="Helvetica,sans-Serif" font-size="10.00">Ogre::v1::D3D11HardwareBuffer</text>
<text text-anchor="middle" x="507.88" y="-348.75" font-family="Helvetica,sans-Serif" font-size="10.00">Manager</text>
</a>
</g>
</g>
<!-- Node1&#45;&gt;Node5 -->
<g id="edge4_Node000001_Node000005" class="edge">
<title>Node1&#45;&gt;Node5</title>
<g id="a_edge4_Node000001_Node000005"><a xlink:title=" ">
<path fill="none" stroke="#63b8ff" d="M340.83,-211.8C355.38,-244.62 384.96,-301.15 427.5,-333.25 432.23,-336.82 437.48,-339.88 442.96,-342.52"/>
<polygon fill="#63b8ff" stroke="#63b8ff" points="344.24,-210.86 337.08,-203.05 337.8,-213.62 344.24,-210.86"/>
</a>
</g>
</g>
<!-- Node6 -->
<g id="Node000006" class="node">
<title>Node6</title>
<g id="a_Node000006"><a xlink:href="class_ogre_1_1v1_1_1_default_hardware_buffer_manager.html" target="_top" xlink:title="DefaultHardwareBufferManager as a Singleton.">
<polygon fill="white" stroke="#666666" points="572.5,-324.5 443.25,-324.5 443.25,-294 572.5,-294 572.5,-324.5"/>
<text text-anchor="start" x="451.25" y="-311" font-family="Helvetica,sans-Serif" font-size="10.00">Ogre::v1::DefaultHardware</text>
<text text-anchor="middle" x="507.88" y="-299.75" font-family="Helvetica,sans-Serif" font-size="10.00">BufferManager</text>
</a>
</g>
</g>
<!-- Node1&#45;&gt;Node6 -->
<g id="edge5_Node000001_Node000006" class="edge">
<title>Node1&#45;&gt;Node6</title>
<g id="a_edge5_Node000001_Node000006"><a xlink:title=" ">
<path fill="none" stroke="#63b8ff" d="M348.83,-210.63C366.67,-232.77 395.67,-264.83 427.5,-284.25 433.3,-287.79 439.64,-290.87 446.13,-293.54"/>
<polygon fill="#63b8ff" stroke="#63b8ff" points="351.77,-208.7 342.83,-203.01 346.27,-213.03 351.77,-208.7"/>
</a>
</g>
</g>
<!-- Node7 -->
<g id="Node000007" class="node">
<title>Node7</title>
<g id="a_Node000007"><a xlink:href="class_ogre_1_1v1_1_1_g_l3_plus_default_hardware_buffer_manager.html" target="_top" xlink:title="GL3PlusDefaultHardwareBufferManagerBase as a Singleton.">
<polygon fill="white" stroke="#666666" points="570.62,-275.5 445.12,-275.5 445.12,-245 570.62,-245 570.62,-275.5"/>
<text text-anchor="start" x="453.12" y="-262" font-family="Helvetica,sans-Serif" font-size="10.00">Ogre::v1::GL3PlusDefault</text>
<text text-anchor="middle" x="507.88" y="-250.75" font-family="Helvetica,sans-Serif" font-size="10.00">HardwareBufferManager</text>
</a>
</g>
</g>
<!-- Node1&#45;&gt;Node7 -->
<g id="edge6_Node000001_Node000007" class="edge">
<title>Node1&#45;&gt;Node7</title>
<g id="a_edge6_Node000001_Node000007"><a xlink:title=" ">
<path fill="none" stroke="#63b8ff" d="M368.29,-207.14C385.97,-216.44 407.49,-227.11 427.5,-235.25 435.66,-238.57 444.44,-241.73 453.08,-244.61"/>
<polygon fill="#63b8ff" stroke="#63b8ff" points="370.18,-204.18 359.71,-202.57 366.89,-210.36 370.18,-204.18"/>
</a>
</g>
</g>
<!-- Node8 -->
<g id="Node000008" class="node">
<title>Node8</title>
<g id="a_Node000008"><a xlink:href="class_ogre_1_1v1_1_1_g_l3_plus_hardware_buffer_manager.html" target="_top" xlink:title="GL3PlusHardwareBufferManagerBase as a Singleton.">
<polygon fill="white" stroke="#666666" points="576.25,-226.5 439.5,-226.5 439.5,-196 576.25,-196 576.25,-226.5"/>
<text text-anchor="start" x="447.5" y="-213" font-family="Helvetica,sans-Serif" font-size="10.00">Ogre::v1::GL3PlusHardware</text>
<text text-anchor="middle" x="507.88" y="-201.75" font-family="Helvetica,sans-Serif" font-size="10.00">BufferManager</text>
</a>
</g>
</g>
<!-- Node1&#45;&gt;Node8 -->
<g id="edge7_Node000001_Node000008" class="edge">
<title>Node1&#45;&gt;Node8</title>
<g id="a_edge7_Node000001_Node000008"><a xlink:title=" ">
<path fill="none" stroke="#63b8ff" d="M403.01,-196.53C414.97,-198.22 427.32,-199.97 439.16,-201.65"/>
<polygon fill="#63b8ff" stroke="#63b8ff" points="403.58,-193.07 393.19,-195.14 402.6,-200 403.58,-193.07"/>
</a>
</g>
</g>
<!-- Node9 -->
<g id="Node000009" class="node">
<title>Node9</title>
<g id="a_Node000009"><a xlink:href="class_ogre_1_1v1_1_1_g_l_e_s2_default_hardware_buffer_manager.html" target="_top" xlink:title="GLES2DefaultHardwareBufferManagerBase as a Singleton.">
<polygon fill="white" stroke="#666666" points="588.25,-177.5 427.5,-177.5 427.5,-147 588.25,-147 588.25,-177.5"/>
<text text-anchor="start" x="435.5" y="-164" font-family="Helvetica,sans-Serif" font-size="10.00">Ogre::v1::GLES2DefaultHardware</text>
<text text-anchor="middle" x="507.88" y="-152.75" font-family="Helvetica,sans-Serif" font-size="10.00">BufferManager</text>
</a>
</g>
</g>
<!-- Node1&#45;&gt;Node9 -->
<g id="edge8_Node000001_Node000009" class="edge">
<title>Node1&#45;&gt;Node9</title>
<g id="a_edge8_Node000001_Node000009"><a xlink:title=" ">
<path fill="none" stroke="#63b8ff" d="M402.87,-176.4C410.87,-175.31 419.06,-174.2 427.15,-173.1"/>
<polygon fill="#63b8ff" stroke="#63b8ff" points="402.63,-172.9 393.19,-177.72 403.57,-179.84 402.63,-172.9"/>
</a>
</g>
</g>
<!-- Node10 -->
<g id="Node000010" class="node">
<title>Node10</title>
<g id="a_Node000010"><a xlink:href="class_ogre_1_1v1_1_1_g_l_e_s2_hardware_buffer_manager.html" target="_top" xlink:title="GLES2HardwareBufferManagerBase as a Singleton.">
<polygon fill="white" stroke="#666666" points="585.62,-128.5 430.12,-128.5 430.12,-98 585.62,-98 585.62,-128.5"/>
<text text-anchor="start" x="438.12" y="-115" font-family="Helvetica,sans-Serif" font-size="10.00">Ogre::v1::GLES2HardwareBuffer</text>
<text text-anchor="middle" x="507.88" y="-103.75" font-family="Helvetica,sans-Serif" font-size="10.00">Manager</text>
</a>
</g>
</g>
<!-- Node1&#45;&gt;Node10 -->
<g id="edge9_Node000001_Node000010" class="edge">
<title>Node1&#45;&gt;Node10</title>
<g id="a_edge9_Node000001_Node000010"><a xlink:title=" ">
<path fill="none" stroke="#63b8ff" d="M369.12,-165.43C386.65,-156.42 407.83,-146.16 427.5,-138.25 435.68,-134.96 444.46,-131.82 453.11,-128.94"/>
<polygon fill="#63b8ff" stroke="#63b8ff" points="367.85,-162.14 360.6,-169.86 371.08,-168.35 367.85,-162.14"/>
</a>
</g>
</g>
<!-- Node11 -->
<g id="Node000011" class="node">
<title>Node11</title>
<g id="a_Node000011"><a xlink:href="class_ogre_1_1v1_1_1_metal_hardware_buffer_manager.html" target="_top" xlink:title="MetalHardwareBufferManagerBase as a Singleton.">
<polygon fill="white" stroke="#666666" points="581.88,-79.5 433.88,-79.5 433.88,-49 581.88,-49 581.88,-79.5"/>
<text text-anchor="start" x="441.88" y="-66" font-family="Helvetica,sans-Serif" font-size="10.00">Ogre::v1::MetalHardwareBuffer</text>
<text text-anchor="middle" x="507.88" y="-54.75" font-family="Helvetica,sans-Serif" font-size="10.00">Manager</text>
</a>
</g>
</g>
<!-- Node1&#45;&gt;Node11 -->
<g id="edge10_Node000001_Node000011" class="edge">
<title>Node1&#45;&gt;Node11</title>
<g id="a_edge10_Node000001_Node000011"><a xlink:title=" ">
<path fill="none" stroke="#63b8ff" d="M348.88,-162.13C366.76,-140.22 395.79,-108.49 427.5,-89.25 433.31,-85.73 439.66,-82.66 446.15,-79.99"/>
<polygon fill="#63b8ff" stroke="#63b8ff" points="346.37,-159.66 342.88,-169.66 351.85,-164.02 346.37,-159.66"/>
</a>
</g>
</g>
<!-- Node12 -->
<g id="Node000012" class="node">
<title>Node12</title>
<g id="a_Node000012"><a xlink:href="class_ogre_1_1v1_1_1_vulkan_hardware_buffer_manager.html" target="_top" xlink:title=" ">
<polygon fill="white" stroke="#666666" points="572.12,-30.5 443.62,-30.5 443.62,0 572.12,0 572.12,-30.5"/>
<text text-anchor="start" x="451.62" y="-17" font-family="Helvetica,sans-Serif" font-size="10.00">Ogre::v1::VulkanHardware</text>
<text text-anchor="middle" x="507.88" y="-5.75" font-family="Helvetica,sans-Serif" font-size="10.00">BufferManager</text>
</a>
</g>
</g>
<!-- Node1&#45;&gt;Node12 -->
<g id="edge11_Node000001_Node000012" class="edge">
<title>Node1&#45;&gt;Node12</title>
<g id="a_edge11_Node000001_Node000012"><a xlink:title=" ">
<path fill="none" stroke="#63b8ff" d="M341.07,-160.44C355.73,-127.79 385.29,-71.99 427.5,-40.25 432.35,-36.6 437.74,-33.48 443.38,-30.81"/>
<polygon fill="#63b8ff" stroke="#63b8ff" points="337.88,-159 337.11,-169.56 344.31,-161.78 337.88,-159"/>
</a>
</g>
</g>
<!-- Node2 -->
<g id="Node000002" class="node">
<title>Node2</title>
<g id="a_Node000002"><a xlink:href="class_ogre_1_1v1_1_1_hardware_buffer_manager_base.html" target="_top" xlink:title="Base definition of a hardware buffer manager.">
<polygon fill="white" stroke="#666666" points="227.38,-226.5 103.38,-226.5 103.38,-196 227.38,-196 227.38,-226.5"/>
<text text-anchor="start" x="111.38" y="-213" font-family="Helvetica,sans-Serif" font-size="10.00">Ogre::v1::HardwareBuffer</text>
<text text-anchor="middle" x="165.38" y="-201.75" font-family="Helvetica,sans-Serif" font-size="10.00">ManagerBase</text>
</a>
</g>
</g>
<!-- Node2&#45;&gt;Node1 -->
<g id="edge1_Node000001_Node000002" class="edge">
<title>Node2&#45;&gt;Node1</title>
<g id="a_edge1_Node000001_Node000002"><a xlink:title=" ">
<path fill="none" stroke="#63b8ff" d="M239.01,-200.05C248.4,-198.6 257.94,-197.13 267.12,-195.71"/>
<polygon fill="#63b8ff" stroke="#63b8ff" points="238.51,-196.58 229.16,-201.57 239.58,-203.5 238.51,-196.58"/>
</a>
</g>
</g>
<!-- Node3 -->
<g id="Node000003" class="node">
<title>Node3</title>
<g id="a_Node000003"><a xlink:href="class_ogre_1_1_allocated_object.html" target="_top" xlink:title="Superclass for all objects that wish to use custom memory allocators when their new / delete operator...">
<polygon fill="white" stroke="#666666" points="63.25,-220.88 0,-220.88 0,-201.62 63.25,-201.62 63.25,-220.88"/>
<text text-anchor="middle" x="31.62" y="-207.38" font-family="Helvetica,sans-Serif" font-size="10.00">BufferAlloc</text>
</a>
</g>
</g>
<!-- Node3&#45;&gt;Node2 -->
<g id="edge2_Node000002_Node000003" class="edge">
<title>Node3&#45;&gt;Node2</title>
<g id="a_edge2_Node000002_Node000003"><a xlink:title=" ">
<path fill="none" stroke="#63b8ff" d="M74.89,-211.25C83.88,-211.25 93.56,-211.25 103.11,-211.25"/>
<polygon fill="#63b8ff" stroke="#63b8ff" points="75.03,-207.75 65.03,-211.25 75.03,-214.75 75.03,-207.75"/>
</a>
</g>
</g>
<!-- Node4 -->
<g id="Node000004" class="node">
<title>Node4</title>
<g id="a_Node000004"><a xlink:href="class_ogre_1_1_singleton.html" target="_top" xlink:title=" ">
<polygon fill="white" stroke="#666666" points="231.5,-177.5 99.25,-177.5 99.25,-147 231.5,-147 231.5,-177.5"/>
<text text-anchor="start" x="107.25" y="-164" font-family="Helvetica,sans-Serif" font-size="10.00">Ogre::Singleton&lt; Hardware</text>
<text text-anchor="middle" x="165.38" y="-152.75" font-family="Helvetica,sans-Serif" font-size="10.00">BufferManager &gt;</text>
</a>
</g>
</g>
<!-- Node4&#45;&gt;Node1 -->
<g id="edge3_Node000001_Node000004" class="edge">
<title>Node4&#45;&gt;Node1</title>
<g id="a_edge3_Node000001_Node000004"><a xlink:title=" ">
<path fill="none" stroke="#63b8ff" d="M243.19,-173.62C251.26,-174.82 259.38,-176.02 267.24,-177.18"/>
<polygon fill="#63b8ff" stroke="#63b8ff" points="243.75,-170.17 233.35,-172.16 242.73,-177.09 243.75,-170.17"/>
</a>
</g>
</g>
</g>
</svg>
