<?xml version="1.0" encoding="UTF-8" standalone="no"?>
<!DOCTYPE svg PUBLIC "-//W3C//DTD SVG 1.1//EN"
 "http://www.w3.org/Graphics/SVG/1.1/DTD/svg11.dtd">
<!-- Generated by graphviz version 7.0.5 (20221223.1930)
 -->
<!-- Title: Ogre::StagingBuffer Pages: 1 -->
<svg width="417pt" height="212pt"
 viewBox="0.00 0.00 417.00 212.00" xmlns="http://www.w3.org/2000/svg" xmlns:xlink="http://www.w3.org/1999/xlink">
<g id="graph0" class="graph" transform="scale(1 1) rotate(0) translate(4 208)">
<title>Ogre::StagingBuffer</title>
<!-- Node1 -->
<g id="node1" class="node">
<title>Node1</title>
<g id="a_node1"><a xlink:title="A staging buffer is a buffer that resides on the GPU and be written to/from both CPU &amp; GPU However th...">
<polygon fill="#999999" stroke="#666666" points="234,-111 133,-111 133,-92 234,-92 234,-111"/>
<text text-anchor="middle" x="183.5" y="-99" font-family="Helvetica,sans-Serif" font-size="10.00">Ogre::StagingBuffer</text>
</a>
</g>
</g>
<!-- Node3 -->
<g id="node3" class="node">
<title>Node3</title>
<g id="a_node3"><a xlink:href="class_ogre_1_1_d3_d11_staging_buffer.html" target="_top" xlink:title="NOTE FOR D3D12 PORTING: The GL3Plus implementation should be used as reference, since it is much lowe...">
<polygon fill="white" stroke="#666666" points="404.5,-204 274.5,-204 274.5,-185 404.5,-185 404.5,-204"/>
<text text-anchor="middle" x="339.5" y="-192" font-family="Helvetica,sans-Serif" font-size="10.00">Ogre::D3D11StagingBuffer</text>
</a>
</g>
</g>
<!-- Node1&#45;&gt;Node3 -->
<g id="edge2" class="edge">
<title>Node1&#45;&gt;Node3</title>
<path fill="none" stroke="#63b8ff" d="M200.27,-119.49C216.21,-136.6 242.38,-161.82 270,-176.5 275.97,-179.67 282.54,-182.31 289.17,-184.51"/>
<polygon fill="#63b8ff" stroke="#63b8ff" points="203.24,-117.56 193.93,-112.51 198.06,-122.27 203.24,-117.56"/>
</g>
<!-- Node4 -->
<g id="node4" class="node">
<title>Node4</title>
<g id="a_node4"><a xlink:href="class_ogre_1_1_g_l3_plus_staging_buffer.html" target="_top" xlink:title="A staging buffer is a buffer that resides on the GPU and be written to/from both CPU &amp; GPU However th...">
<polygon fill="white" stroke="#666666" points="409,-167 270,-167 270,-148 409,-148 409,-167"/>
<text text-anchor="middle" x="339.5" y="-155" font-family="Helvetica,sans-Serif" font-size="10.00">Ogre::GL3PlusStagingBuffer</text>
</a>
</g>
</g>
<!-- Node1&#45;&gt;Node4 -->
<g id="edge3" class="edge">
<title>Node1&#45;&gt;Node4</title>
<path fill="none" stroke="#63b8ff" d="M214.47,-116.25C230.66,-123.84 251.14,-132.88 270,-139.5 278.35,-142.43 287.43,-145.14 296.15,-147.52"/>
<polygon fill="#63b8ff" stroke="#63b8ff" points="216.41,-113.29 205.88,-112.15 213.4,-119.61 216.41,-113.29"/>
</g>
<!-- Node5 -->
<g id="node5" class="node">
<title>Node5</title>
<g id="a_node5"><a xlink:href="class_ogre_1_1_g_l_e_s2_staging_buffer.html" target="_top" xlink:title="A staging buffer is a buffer that resides on the GPU and be written to/from both CPU &amp; GPU However th...">
<polygon fill="white" stroke="#666666" points="405.5,-130 273.5,-130 273.5,-111 405.5,-111 405.5,-130"/>
<text text-anchor="middle" x="339.5" y="-118" font-family="Helvetica,sans-Serif" font-size="10.00">Ogre::GLES2StagingBuffer</text>
</a>
</g>
</g>
<!-- Node1&#45;&gt;Node5 -->
<g id="edge4" class="edge">
<title>Node1&#45;&gt;Node5</title>
<path fill="none" stroke="#63b8ff" d="M245.69,-109.05C254.68,-110.16 263.97,-111.31 273.05,-112.42"/>
<polygon fill="#63b8ff" stroke="#63b8ff" points="246.35,-105.6 236,-107.85 245.5,-112.55 246.35,-105.6"/>
</g>
<!-- Node6 -->
<g id="node6" class="node">
<title>Node6</title>
<g id="a_node6"><a xlink:href="class_ogre_1_1_metal_staging_buffer.html" target="_top" xlink:title="A staging buffer is a buffer that resides on the GPU and be written to/from both CPU &amp; GPU However th...">
<polygon fill="white" stroke="#666666" points="402,-93 277,-93 277,-74 402,-74 402,-93"/>
<text text-anchor="middle" x="339.5" y="-81" font-family="Helvetica,sans-Serif" font-size="10.00">Ogre::MetalStagingBuffer</text>
</a>
</g>
</g>
<!-- Node1&#45;&gt;Node6 -->
<g id="edge5" class="edge">
<title>Node1&#45;&gt;Node6</title>
<path fill="none" stroke="#63b8ff" d="M245.76,-94.34C255.92,-93.15 266.46,-91.92 276.63,-90.73"/>
<polygon fill="#63b8ff" stroke="#63b8ff" points="245.53,-90.84 236,-95.48 246.34,-97.8 245.53,-90.84"/>
</g>
<!-- Node7 -->
<g id="node7" class="node">
<title>Node7</title>
<g id="a_node7"><a xlink:href="class_ogre_1_1_n_u_l_l_staging_buffer.html" target="_top" xlink:title="A staging buffer is a buffer that resides on the GPU and be written to/from both CPU &amp; GPU However th...">
<polygon fill="white" stroke="#666666" points="403.5,-56 275.5,-56 275.5,-37 403.5,-37 403.5,-56"/>
<text text-anchor="middle" x="339.5" y="-44" font-family="Helvetica,sans-Serif" font-size="10.00">Ogre::NULLStagingBuffer</text>
</a>
</g>
</g>
<!-- Node1&#45;&gt;Node7 -->
<g id="edge6" class="edge">
<title>Node1&#45;&gt;Node7</title>
<path fill="none" stroke="#63b8ff" d="M215.3,-86.83C231.37,-79.52 251.49,-70.89 270,-64.5 278.48,-61.57 287.7,-58.85 296.54,-56.45"/>
<polygon fill="#63b8ff" stroke="#63b8ff" points="213.87,-83.63 206.26,-91 216.81,-89.99 213.87,-83.63"/>
</g>
<!-- Node8 -->
<g id="node8" class="node">
<title>Node8</title>
<g id="a_node8"><a xlink:href="class_ogre_1_1_vulkan_staging_buffer.html" target="_top" xlink:title="A staging buffer is a buffer that resides on the GPU and be written to/from both CPU &amp; GPU However th...">
<polygon fill="white" stroke="#666666" points="405,-19 274,-19 274,0 405,0 405,-19"/>
<text text-anchor="middle" x="339.5" y="-7" font-family="Helvetica,sans-Serif" font-size="10.00">Ogre::VulkanStagingBuffer</text>
</a>
</g>
</g>
<!-- Node1&#45;&gt;Node8 -->
<g id="edge7" class="edge">
<title>Node1&#45;&gt;Node8</title>
<path fill="none" stroke="#63b8ff" d="M200.31,-83.75C216.3,-66.89 242.49,-42 270,-27.5 276.09,-24.29 282.8,-21.62 289.55,-19.41"/>
<polygon fill="#63b8ff" stroke="#63b8ff" points="198.17,-80.91 193.96,-90.63 203.32,-85.66 198.17,-80.91"/>
</g>
<!-- Node2 -->
<g id="node2" class="node">
<title>Node2</title>
<g id="a_node2"><a xlink:href="class_ogre_1_1_allocated_object.html" target="_top" xlink:title="Superclass for all objects that wish to use custom memory allocators when their new / delete operator...">
<polygon fill="white" stroke="#666666" points="97,-111 0,-111 0,-92 97,-92 97,-111"/>
<text text-anchor="middle" x="48.5" y="-99" font-family="Helvetica,sans-Serif" font-size="10.00">StagingBufferAlloc</text>
</a>
</g>
</g>
<!-- Node2&#45;&gt;Node1 -->
<g id="edge1" class="edge">
<title>Node2&#45;&gt;Node1</title>
<path fill="none" stroke="#63b8ff" d="M108.52,-101.5C116.68,-101.5 124.99,-101.5 132.95,-101.5"/>
<polygon fill="#63b8ff" stroke="#63b8ff" points="108.65,-98 98.65,-101.5 108.65,-105 108.65,-98"/>
</g>
</g>
</svg>
