<?xml version="1.0" encoding="UTF-8" standalone="no"?>
<!DOCTYPE svg PUBLIC "-//W3C//DTD SVG 1.1//EN"
 "http://www.w3.org/Graphics/SVG/1.1/DTD/svg11.dtd">
<!-- Generated by graphviz version 7.0.5 (20221223.1930)
 -->
<!-- Title: Ogre::VaoManager Pages: 1 -->
<svg width="398pt" height="212pt"
 viewBox="0.00 0.00 398.00 212.00" xmlns="http://www.w3.org/2000/svg" xmlns:xlink="http://www.w3.org/1999/xlink">
<g id="graph0" class="graph" transform="scale(1 1) rotate(0) translate(4 208)">
<title>Ogre::VaoManager</title>
<!-- Node1 -->
<g id="node1" class="node">
<title>Node1</title>
<g id="a_node1"><a xlink:title=" ">
<polygon fill="#999999" stroke="#666666" points="219,-111 122,-111 122,-92 219,-92 219,-111"/>
<text text-anchor="middle" x="170.5" y="-99" font-family="Helvetica,sans-Serif" font-size="10.00">Ogre::VaoManager</text>
</a>
</g>
</g>
<!-- Node3 -->
<g id="node3" class="node">
<title>Node3</title>
<g id="a_node3"><a xlink:href="class_ogre_1_1_d3_d11_vao_manager.html" target="_top" xlink:title=" ">
<polygon fill="white" stroke="#666666" points="385.5,-204 259.5,-204 259.5,-185 385.5,-185 385.5,-204"/>
<text text-anchor="middle" x="322.5" y="-192" font-family="Helvetica,sans-Serif" font-size="10.00">Ogre::D3D11VaoManager</text>
</a>
</g>
</g>
<!-- Node1&#45;&gt;Node3 -->
<g id="edge2" class="edge">
<title>Node1&#45;&gt;Node3</title>
<path fill="none" stroke="#63b8ff" d="M187.27,-119.94C202.83,-137.01 228.14,-161.89 255,-176.5 260.88,-179.7 267.38,-182.36 273.93,-184.57"/>
<polygon fill="#63b8ff" stroke="#63b8ff" points="189.93,-117.67 180.68,-112.5 184.69,-122.31 189.93,-117.67"/>
</g>
<!-- Node4 -->
<g id="node4" class="node">
<title>Node4</title>
<g id="a_node4"><a xlink:href="class_ogre_1_1_g_l3_plus_vao_manager.html" target="_top" xlink:title=" ">
<polygon fill="white" stroke="#666666" points="390,-167 255,-167 255,-148 390,-148 390,-167"/>
<text text-anchor="middle" x="322.5" y="-155" font-family="Helvetica,sans-Serif" font-size="10.00">Ogre::GL3PlusVaoManager</text>
</a>
</g>
</g>
<!-- Node1&#45;&gt;Node4 -->
<g id="edge3" class="edge">
<title>Node1&#45;&gt;Node4</title>
<path fill="none" stroke="#63b8ff" d="M201.21,-116.45C216.94,-123.99 236.74,-132.92 255,-139.5 263.21,-142.46 272.15,-145.19 280.73,-147.59"/>
<polygon fill="#63b8ff" stroke="#63b8ff" points="202.91,-113.39 192.39,-112.15 199.85,-119.68 202.91,-113.39"/>
</g>
<!-- Node5 -->
<g id="node5" class="node">
<title>Node5</title>
<g id="a_node5"><a xlink:href="class_ogre_1_1_g_l_e_s2_vao_manager.html" target="_top" xlink:title=" ">
<polygon fill="white" stroke="#666666" points="386.5,-130 258.5,-130 258.5,-111 386.5,-111 386.5,-130"/>
<text text-anchor="middle" x="322.5" y="-118" font-family="Helvetica,sans-Serif" font-size="10.00">Ogre::GLES2VaoManager</text>
</a>
</g>
</g>
<!-- Node1&#45;&gt;Node5 -->
<g id="edge4" class="edge">
<title>Node1&#45;&gt;Node5</title>
<path fill="none" stroke="#63b8ff" d="M230.63,-108.99C239.68,-110.14 249.06,-111.32 258.2,-112.48"/>
<polygon fill="#63b8ff" stroke="#63b8ff" points="231.24,-105.54 220.87,-107.75 230.36,-112.48 231.24,-105.54"/>
</g>
<!-- Node6 -->
<g id="node6" class="node">
<title>Node6</title>
<g id="a_node6"><a xlink:href="class_ogre_1_1_metal_vao_manager.html" target="_top" xlink:title=" ">
<polygon fill="white" stroke="#666666" points="383,-93 262,-93 262,-74 383,-74 383,-93"/>
<text text-anchor="middle" x="322.5" y="-81" font-family="Helvetica,sans-Serif" font-size="10.00">Ogre::MetalVaoManager</text>
</a>
</g>
</g>
<!-- Node1&#45;&gt;Node6 -->
<g id="edge5" class="edge">
<title>Node1&#45;&gt;Node6</title>
<path fill="none" stroke="#63b8ff" d="M230.68,-94.4C240.88,-93.17 251.49,-91.9 261.71,-90.68"/>
<polygon fill="#63b8ff" stroke="#63b8ff" points="230.39,-90.91 220.88,-95.57 231.22,-97.86 230.39,-90.91"/>
</g>
<!-- Node7 -->
<g id="node7" class="node">
<title>Node7</title>
<g id="a_node7"><a xlink:href="class_ogre_1_1_n_u_l_l_vao_manager.html" target="_top" xlink:title=" ">
<polygon fill="white" stroke="#666666" points="384.5,-56 260.5,-56 260.5,-37 384.5,-37 384.5,-56"/>
<text text-anchor="middle" x="322.5" y="-44" font-family="Helvetica,sans-Serif" font-size="10.00">Ogre::NULLVaoManager</text>
</a>
</g>
</g>
<!-- Node1&#45;&gt;Node7 -->
<g id="edge6" class="edge">
<title>Node1&#45;&gt;Node7</title>
<path fill="none" stroke="#63b8ff" d="M201.56,-86.84C217.25,-79.54 236.91,-70.91 255,-64.5 263.23,-61.58 272.17,-58.86 280.75,-56.47"/>
<polygon fill="#63b8ff" stroke="#63b8ff" points="200.31,-83.56 192.77,-91 203.3,-89.89 200.31,-83.56"/>
</g>
<!-- Node8 -->
<g id="node8" class="node">
<title>Node8</title>
<g id="a_node8"><a xlink:href="class_ogre_1_1_vulkan_vao_manager.html" target="_top" xlink:title=" ">
<polygon fill="white" stroke="#666666" points="386,-19 259,-19 259,0 386,0 386,-19"/>
<text text-anchor="middle" x="322.5" y="-7" font-family="Helvetica,sans-Serif" font-size="10.00">Ogre::VulkanVaoManager</text>
</a>
</g>
</g>
<!-- Node1&#45;&gt;Node8 -->
<g id="edge7" class="edge">
<title>Node1&#45;&gt;Node8</title>
<path fill="none" stroke="#63b8ff" d="M187.57,-83.05C203.19,-66.22 228.39,-41.86 255,-27.5 260.89,-24.32 267.39,-21.67 273.95,-19.47"/>
<polygon fill="#63b8ff" stroke="#63b8ff" points="185.05,-80.62 180.94,-90.38 190.24,-85.31 185.05,-80.62"/>
</g>
<!-- Node2 -->
<g id="node2" class="node">
<title>Node2</title>
<g id="a_node2"><a xlink:href="class_ogre_1_1_allocated_object.html" target="_top" xlink:title="Superclass for all objects that wish to use custom memory allocators when their new / delete operator...">
<polygon fill="white" stroke="#666666" points="86,-111 0,-111 0,-92 86,-92 86,-111"/>
<text text-anchor="middle" x="43" y="-99" font-family="Helvetica,sans-Serif" font-size="10.00">RenderSysAlloc</text>
</a>
</g>
</g>
<!-- Node2&#45;&gt;Node1 -->
<g id="edge1" class="edge">
<title>Node2&#45;&gt;Node1</title>
<path fill="none" stroke="#63b8ff" d="M97.95,-101.5C105.91,-101.5 114.06,-101.5 121.87,-101.5"/>
<polygon fill="#63b8ff" stroke="#63b8ff" points="98,-98 88,-101.5 98,-105 98,-98"/>
</g>
</g>
</svg>
