<?xml version="1.0" encoding="UTF-8" standalone="no"?>
<!DOCTYPE svg PUBLIC "-//W3C//DTD SVG 1.1//EN"
 "http://www.w3.org/Graphics/SVG/1.1/DTD/svg11.dtd">
<!-- Generated by graphviz version 9.0.0 (20230911.1827)
 -->
<!-- Title: Ogre::VctVoxelizerSourceBase Pages: 1 -->
<svg width="244pt" height="138pt"
 viewBox="0.00 0.00 244.00 137.75" xmlns="http://www.w3.org/2000/svg" xmlns:xlink="http://www.w3.org/1999/xlink">
<g id="graph0" class="graph" transform="scale(1 1) rotate(0) translate(4 133.75)">
<title>Ogre::VctVoxelizerSourceBase</title>
<!-- Node1 -->
<g id="Node000001" class="node">
<title>Node1</title>
<g id="a_Node000001"><a xlink:title="This class contains shared functionality between voxelizer; and is used by VctLighting to source its ...">
<polygon fill="#999999" stroke="#666666" points="198.62,-74.5 49.88,-74.5 49.88,-55.25 198.62,-55.25 198.62,-74.5"/>
<text text-anchor="middle" x="124.25" y="-61" font-family="Helvetica,sans-Serif" font-size="10.00">Ogre::VctVoxelizerSourceBase</text>
</a>
</g>
</g>
<!-- Node3 -->
<g id="Node000003" class="node">
<title>Node3</title>
<g id="a_Node000003"><a xlink:href="class_ogre_1_1_vct_image_voxelizer.html" target="_top" xlink:title="The image voxelizer aims to be faster than VctImageVoxelizer for the whole scene by following a diffe...">
<polygon fill="white" stroke="#666666" points="122.5,-19.25 0,-19.25 0,0 122.5,0 122.5,-19.25"/>
<text text-anchor="middle" x="61.25" y="-5.75" font-family="Helvetica,sans-Serif" font-size="10.00">Ogre::VctImageVoxelizer</text>
</a>
</g>
</g>
<!-- Node1&#45;&gt;Node3 -->
<g id="edge2_Node000001_Node000003" class="edge">
<title>Node1&#45;&gt;Node3</title>
<g id="a_edge2_Node000001_Node000003"><a xlink:title=" ">
<path fill="none" stroke="#63b8ff" d="M105.07,-47.66C94.13,-38.42 80.84,-27.18 71.78,-19.52"/>
<polygon fill="#63b8ff" stroke="#63b8ff" points="102.51,-50.08 112.41,-53.86 107.03,-44.74 102.51,-50.08"/>
</a>
</g>
</g>
<!-- Node4 -->
<g id="Node000004" class="node">
<title>Node4</title>
<g id="a_Node000004"><a xlink:href="class_ogre_1_1_vct_voxelizer.html" target="_top" xlink:title="The voxelizer consists in several stages.">
<polygon fill="white" stroke="#666666" points="236,-19.25 140.5,-19.25 140.5,0 236,0 236,-19.25"/>
<text text-anchor="middle" x="188.25" y="-5.75" font-family="Helvetica,sans-Serif" font-size="10.00">Ogre::VctVoxelizer</text>
</a>
</g>
</g>
<!-- Node1&#45;&gt;Node4 -->
<g id="edge3_Node000001_Node000004" class="edge">
<title>Node1&#45;&gt;Node4</title>
<g id="a_edge3_Node000001_Node000004"><a xlink:title=" ">
<path fill="none" stroke="#63b8ff" d="M143.73,-47.66C154.85,-38.42 168.35,-27.18 177.55,-19.52"/>
<polygon fill="#63b8ff" stroke="#63b8ff" points="141.72,-44.79 136.27,-53.87 146.2,-50.17 141.72,-44.79"/>
</a>
</g>
</g>
<!-- Node2 -->
<g id="Node000002" class="node">
<title>Node2</title>
<g id="a_Node000002"><a xlink:href="class_ogre_1_1_id_object.html" target="_top" xlink:title=" ">
<polygon fill="white" stroke="#666666" points="163.38,-129.75 85.12,-129.75 85.12,-110.5 163.38,-110.5 163.38,-129.75"/>
<text text-anchor="middle" x="124.25" y="-116.25" font-family="Helvetica,sans-Serif" font-size="10.00">Ogre::IdObject</text>
</a>
</g>
</g>
<!-- Node2&#45;&gt;Node1 -->
<g id="edge1_Node000001_Node000002" class="edge">
<title>Node2&#45;&gt;Node1</title>
<g id="a_edge1_Node000001_Node000002"><a xlink:title=" ">
<path fill="none" stroke="#63b8ff" d="M124.25,-98.88C124.25,-90.59 124.25,-81.42 124.25,-74.86"/>
<polygon fill="#63b8ff" stroke="#63b8ff" points="120.75,-98.82 124.25,-108.82 127.75,-98.82 120.75,-98.82"/>
</a>
</g>
</g>
</g>
</svg>
