<?xml version="1.0" encoding="UTF-8" standalone="no"?>
<!DOCTYPE svg PUBLIC "-//W3C//DTD SVG 1.1//EN"
 "http://www.w3.org/Graphics/SVG/1.1/DTD/svg11.dtd">
<!-- Generated by graphviz version 9.0.0 (20230911.1827)
 -->
<!-- Title: Ogre::VulkanWindow Pages: 1 -->
<svg width="439pt" height="260pt"
 viewBox="0.00 0.00 439.12 259.50" xmlns="http://www.w3.org/2000/svg" xmlns:xlink="http://www.w3.org/1999/xlink">
<g id="graph0" class="graph" transform="scale(1 1) rotate(0) translate(4 255.5)">
<title>Ogre::VulkanWindow</title>
<!-- Node1 -->
<g id="Node000001" class="node">
<title>Node1</title>
<g id="a_Node000001"><a xlink:title=" ">
<polygon fill="#999999" stroke="#666666" points="197.5,-141 91.5,-141 91.5,-121.75 197.5,-121.75 197.5,-141"/>
<text text-anchor="middle" x="144.5" y="-127.5" font-family="Helvetica,sans-Serif" font-size="10.00">Ogre::VulkanWindow</text>
</a>
</g>
</g>
<!-- Node4 -->
<g id="Node000004" class="node">
<title>Node4</title>
<g id="a_Node000004"><a xlink:href="class_ogre_1_1_vulkan_window_null.html" target="_top" xlink:title=" ">
<polygon fill="white" stroke="#666666" points="128.12,-80.12 4.88,-80.12 4.88,-60.88 128.12,-60.88 128.12,-80.12"/>
<text text-anchor="middle" x="66.5" y="-66.62" font-family="Helvetica,sans-Serif" font-size="10.00">Ogre::VulkanWindowNull</text>
</a>
</g>
</g>
<!-- Node1&#45;&gt;Node4 -->
<g id="edge3_Node000001_Node000004" class="edge">
<title>Node1&#45;&gt;Node4</title>
<g id="a_edge3_Node000001_Node000004"><a xlink:title=" ">
<path fill="none" stroke="#63b8ff" d="M123.47,-114.5C109.04,-103.61 90.41,-89.55 78.46,-80.53"/>
<polygon fill="#63b8ff" stroke="#63b8ff" points="121.36,-117.29 131.45,-120.52 125.57,-111.7 121.36,-117.29"/>
</a>
</g>
</g>
<!-- Node5 -->
<g id="Node000005" class="node">
<title>Node5</title>
<g id="a_Node000005"><a xlink:href="class_ogre_1_1_vulkan_window_swap_chain_based.html" target="_top" xlink:title=" ">
<polygon fill="white" stroke="#666666" points="301.25,-85.75 145.75,-85.75 145.75,-55.25 301.25,-55.25 301.25,-85.75"/>
<text text-anchor="start" x="153.75" y="-72.25" font-family="Helvetica,sans-Serif" font-size="10.00">Ogre::VulkanWindowSwapChain</text>
<text text-anchor="middle" x="223.5" y="-61" font-family="Helvetica,sans-Serif" font-size="10.00">Based</text>
</a>
</g>
</g>
<!-- Node1&#45;&gt;Node5 -->
<g id="edge4_Node000001_Node000005" class="edge">
<title>Node1&#45;&gt;Node5</title>
<g id="a_edge4_Node000001_Node000005"><a xlink:title=" ">
<path fill="none" stroke="#63b8ff" d="M165.7,-114.57C177.62,-105.7 192.38,-94.69 204,-86.03"/>
<polygon fill="#63b8ff" stroke="#63b8ff" points="163.64,-111.75 157.71,-120.53 167.82,-117.36 163.64,-111.75"/>
</a>
</g>
</g>
<!-- Node2 -->
<g id="Node000002" class="node">
<title>Node2</title>
<g id="a_Node000002"><a xlink:href="class_ogre_1_1_window.html" target="_top" xlink:title=" ">
<polygon fill="white" stroke="#666666" points="182.5,-196.25 106.5,-196.25 106.5,-177 182.5,-177 182.5,-196.25"/>
<text text-anchor="middle" x="144.5" y="-182.75" font-family="Helvetica,sans-Serif" font-size="10.00">Ogre::Window</text>
</a>
</g>
</g>
<!-- Node2&#45;&gt;Node1 -->
<g id="edge1_Node000001_Node000002" class="edge">
<title>Node2&#45;&gt;Node1</title>
<g id="a_edge1_Node000001_Node000002"><a xlink:title=" ">
<path fill="none" stroke="#63b8ff" d="M144.5,-165.38C144.5,-157.09 144.5,-147.92 144.5,-141.36"/>
<polygon fill="#63b8ff" stroke="#63b8ff" points="141,-165.32 144.5,-175.32 148,-165.32 141,-165.32"/>
</a>
</g>
</g>
<!-- Node3 -->
<g id="Node000003" class="node">
<title>Node3</title>
<g id="a_Node000003"><a xlink:href="class_ogre_1_1_allocated_object.html" target="_top" xlink:title="Superclass for all objects that wish to use custom memory allocators when their new / delete operator...">
<polygon fill="white" stroke="#666666" points="187,-251.5 102,-251.5 102,-232.25 187,-232.25 187,-251.5"/>
<text text-anchor="middle" x="144.5" y="-238" font-family="Helvetica,sans-Serif" font-size="10.00">RenderSysAlloc</text>
</a>
</g>
</g>
<!-- Node3&#45;&gt;Node2 -->
<g id="edge2_Node000002_Node000003" class="edge">
<title>Node3&#45;&gt;Node2</title>
<g id="a_edge2_Node000002_Node000003"><a xlink:title=" ">
<path fill="none" stroke="#63b8ff" d="M144.5,-220.63C144.5,-212.34 144.5,-203.17 144.5,-196.61"/>
<polygon fill="#63b8ff" stroke="#63b8ff" points="141,-220.57 144.5,-230.57 148,-220.57 141,-220.57"/>
</a>
</g>
</g>
<!-- Node6 -->
<g id="Node000006" class="node">
<title>Node6</title>
<g id="a_Node000006"><a xlink:href="class_ogre_1_1_vulkan_android_window.html" target="_top" xlink:title=" ">
<polygon fill="white" stroke="#666666" points="139,-19.25 0,-19.25 0,0 139,0 139,-19.25"/>
<text text-anchor="middle" x="69.5" y="-5.75" font-family="Helvetica,sans-Serif" font-size="10.00">Ogre::VulkanAndroidWindow</text>
</a>
</g>
</g>
<!-- Node5&#45;&gt;Node6 -->
<g id="edge5_Node000005_Node000006" class="edge">
<title>Node5&#45;&gt;Node6</title>
<g id="a_edge5_Node000005_Node000006"><a xlink:title=" ">
<path fill="none" stroke="#63b8ff" d="M174.53,-50.78C147.32,-40.38 114.71,-27.91 93.12,-19.65"/>
<polygon fill="#63b8ff" stroke="#63b8ff" points="173.03,-53.95 183.62,-54.25 175.53,-47.41 173.03,-53.95"/>
</a>
</g>
</g>
<!-- Node7 -->
<g id="Node000007" class="node">
<title>Node7</title>
<g id="a_Node000007"><a xlink:href="class_ogre_1_1_vulkan_win32_window.html" target="_top" xlink:title=" ">
<polygon fill="white" stroke="#666666" points="290,-19.25 157,-19.25 157,0 290,0 290,-19.25"/>
<text text-anchor="middle" x="223.5" y="-5.75" font-family="Helvetica,sans-Serif" font-size="10.00">Ogre::VulkanWin32Window</text>
</a>
</g>
</g>
<!-- Node5&#45;&gt;Node7 -->
<g id="edge6_Node000005_Node000007" class="edge">
<title>Node5&#45;&gt;Node7</title>
<g id="a_edge6_Node000005_Node000007"><a xlink:title=" ">
<path fill="none" stroke="#63b8ff" d="M223.5,-43.48C223.5,-34.98 223.5,-26.09 223.5,-19.7"/>
<polygon fill="#63b8ff" stroke="#63b8ff" points="220,-43.43 223.5,-53.43 227,-43.43 220,-43.43"/>
</a>
</g>
</g>
<!-- Node8 -->
<g id="Node000008" class="node">
<title>Node8</title>
<g id="a_Node000008"><a xlink:href="class_ogre_1_1_vulkan_xcb_window.html" target="_top" xlink:title=" ">
<polygon fill="white" stroke="#666666" points="431.12,-19.25 307.88,-19.25 307.88,0 431.12,0 431.12,-19.25"/>
<text text-anchor="middle" x="369.5" y="-5.75" font-family="Helvetica,sans-Serif" font-size="10.00">Ogre::VulkanXcbWindow</text>
</a>
</g>
</g>
<!-- Node5&#45;&gt;Node8 -->
<g id="edge7_Node000005_Node000008" class="edge">
<title>Node5&#45;&gt;Node8</title>
<g id="a_edge7_Node000005_Node000008"><a xlink:title=" ">
<path fill="none" stroke="#63b8ff" d="M270.62,-50.5C296.27,-40.16 326.82,-27.83 347.11,-19.65"/>
<polygon fill="#63b8ff" stroke="#63b8ff" points="269.33,-47.24 261.37,-54.23 271.95,-53.74 269.33,-47.24"/>
</a>
</g>
</g>
</g>
</svg>
