<?xml version="1.0" encoding="UTF-8" standalone="no"?>
<!DOCTYPE svg PUBLIC "-//W3C//DTD SVG 1.1//EN"
 "http://www.w3.org/Graphics/SVG/1.1/DTD/svg11.dtd">
<!-- Generated by graphviz version 9.0.0 (20230911.1827)
 -->
<!-- Title: Ogre::SmallVector&lt; T, 0 &gt; Pages: 1 -->
<svg width="144pt" height="293pt"
 viewBox="0.00 0.00 144.00 293.25" xmlns="http://www.w3.org/2000/svg" xmlns:xlink="http://www.w3.org/1999/xlink">
<g id="graph0" class="graph" transform="scale(1 1) rotate(0) translate(4 289.25)">
<title>Ogre::SmallVector&lt; T, 0 &gt;</title>
<!-- Node1 -->
<g id="Node000001" class="node">
<title>Node1</title>
<g id="a_Node000001"><a xlink:title="Specialize SmallVector at N=0.">
<polygon fill="#999999" stroke="#666666" points="118.38,-30.5 17.62,-30.5 17.62,0 118.38,0 118.38,-30.5"/>
<text text-anchor="start" x="25.62" y="-17" font-family="Helvetica,sans-Serif" font-size="10.00">Ogre::SmallVector&lt;</text>
<text text-anchor="middle" x="68" y="-5.75" font-family="Helvetica,sans-Serif" font-size="10.00"> T, 0 &gt;</text>
</a>
</g>
</g>
<!-- Node2 -->
<g id="Node000002" class="node">
<title>Node2</title>
<g id="a_Node000002"><a xlink:href="class_ogre_1_1_small_vector_impl.html" target="_top" xlink:title="SmallVectorImpl &#45; This class consists of common code factored out of the SmallVector class to reduce ...">
<polygon fill="white" stroke="#666666" points="136,-85.75 0,-85.75 0,-66.5 136,-66.5 136,-85.75"/>
<text text-anchor="middle" x="68" y="-72.25" font-family="Helvetica,sans-Serif" font-size="10.00">Ogre::SmallVectorImpl&lt; T &gt;</text>
</a>
</g>
</g>
<!-- Node2&#45;&gt;Node1 -->
<g id="edge1_Node000001_Node000002" class="edge">
<title>Node2&#45;&gt;Node1</title>
<g id="a_edge1_Node000001_Node000002"><a xlink:title=" ">
<path fill="none" stroke="#63b8ff" d="M68,-54.92C68,-46.99 68,-38.06 68,-30.78"/>
<polygon fill="#63b8ff" stroke="#63b8ff" points="64.5,-54.67 68,-64.67 71.5,-54.67 64.5,-54.67"/>
</a>
</g>
</g>
<!-- Node3 -->
<g id="Node000003" class="node">
<title>Node3</title>
<g id="a_Node000003"><a xlink:href="class_ogre_1_1_small_vector_template_base.html" target="_top" xlink:title=" ">
<polygon fill="white" stroke="#666666" points="135.62,-163.5 0.38,-163.5 0.38,-121.75 135.62,-121.75 135.62,-163.5"/>
<text text-anchor="start" x="8.38" y="-150" font-family="Helvetica,sans-Serif" font-size="10.00">Ogre::SmallVectorTemplate</text>
<text text-anchor="start" x="8.38" y="-138.75" font-family="Helvetica,sans-Serif" font-size="10.00">Base&lt; T, isPodLike&lt; T &gt;</text>
<text text-anchor="middle" x="68" y="-127.5" font-family="Helvetica,sans-Serif" font-size="10.00">::value &gt;</text>
</a>
</g>
</g>
<!-- Node3&#45;&gt;Node2 -->
<g id="edge2_Node000002_Node000003" class="edge">
<title>Node3&#45;&gt;Node2</title>
<g id="a_edge2_Node000002_Node000003"><a xlink:title=" ">
<path fill="none" stroke="#63b8ff" d="M68,-110.26C68,-101.45 68,-92.55 68,-86.2"/>
<polygon fill="#63b8ff" stroke="#63b8ff" points="64.5,-110.06 68,-120.06 71.5,-110.06 64.5,-110.06"/>
</a>
</g>
</g>
<!-- Node4 -->
<g id="Node000004" class="node">
<title>Node4</title>
<g id="a_Node000004"><a xlink:href="class_ogre_1_1_small_vector_template_common.html" target="_top" xlink:title=" ">
<polygon fill="white" stroke="#666666" points="135.62,-230 0.38,-230 0.38,-199.5 135.62,-199.5 135.62,-230"/>
<text text-anchor="start" x="8.38" y="-216.5" font-family="Helvetica,sans-Serif" font-size="10.00">Ogre::SmallVectorTemplate</text>
<text text-anchor="middle" x="68" y="-205.25" font-family="Helvetica,sans-Serif" font-size="10.00">Common&lt; T &gt;</text>
</a>
</g>
</g>
<!-- Node4&#45;&gt;Node3 -->
<g id="edge3_Node000003_Node000004" class="edge">
<title>Node4&#45;&gt;Node3</title>
<g id="a_edge3_Node000003_Node000004"><a xlink:title=" ">
<path fill="none" stroke="#63b8ff" d="M68,-187.97C68,-180.06 68,-171.48 68,-163.99"/>
<polygon fill="#63b8ff" stroke="#63b8ff" points="64.5,-187.71 68,-197.71 71.5,-187.71 64.5,-187.71"/>
</a>
</g>
</g>
<!-- Node5 -->
<g id="Node000005" class="node">
<title>Node5</title>
<g id="a_Node000005"><a xlink:href="class_ogre_1_1_small_vector_base.html" target="_top" xlink:title="SmallVectorBase &#45; This is all the non&#45;templated stuff common to all SmallVectors.">
<polygon fill="white" stroke="#666666" points="126.62,-285.25 9.38,-285.25 9.38,-266 126.62,-266 126.62,-285.25"/>
<text text-anchor="middle" x="68" y="-271.75" font-family="Helvetica,sans-Serif" font-size="10.00">Ogre::SmallVectorBase</text>
</a>
</g>
</g>
<!-- Node5&#45;&gt;Node4 -->
<g id="edge4_Node000004_Node000005" class="edge">
<title>Node5&#45;&gt;Node4</title>
<g id="a_edge4_Node000004_Node000005"><a xlink:title=" ">
<path fill="none" stroke="#63b8ff" d="M68,-254.42C68,-246.49 68,-237.56 68,-230.28"/>
<polygon fill="#63b8ff" stroke="#63b8ff" points="64.5,-254.17 68,-264.17 71.5,-254.17 64.5,-254.17"/>
</a>
</g>
</g>
</g>
</svg>
