<?xml version="1.0" encoding="UTF-8" standalone="no"?>
<!DOCTYPE svg PUBLIC "-//W3C//DTD SVG 1.1//EN"
 "http://www.w3.org/Graphics/SVG/1.1/DTD/svg11.dtd">
<!-- Generated by graphviz version 7.0.5 (20221223.1930)
 -->
<!-- Title: Ogre::HighLevelGpuProgramFactory Pages: 1 -->
<svg width="459pt" height="261pt"
 viewBox="0.00 0.00 459.00 261.00" xmlns="http://www.w3.org/2000/svg" xmlns:xlink="http://www.w3.org/1999/xlink">
<g id="graph0" class="graph" transform="scale(1 1) rotate(0) translate(4 257)">
<title>Ogre::HighLevelGpuProgramFactory</title>
<!-- Node1 -->
<g id="node1" class="node">
<title>Node1</title>
<g id="a_node1"><a xlink:title="Interface definition for factories of HighLevelGpuProgram.">
<polygon fill="#999999" stroke="#666666" points="248,-147.5 107,-147.5 107,-117.5 248,-117.5 248,-147.5"/>
<text text-anchor="start" x="115" y="-135.5" font-family="Helvetica,sans-Serif" font-size="10.00">Ogre::HighLevelGpuProgram</text>
<text text-anchor="middle" x="177.5" y="-124.5" font-family="Helvetica,sans-Serif" font-size="10.00">Factory</text>
</a>
</g>
</g>
<!-- Node3 -->
<g id="node3" class="node">
<title>Node3</title>
<g id="a_node3"><a xlink:href="class_ogre_1_1_d3_d11_h_l_s_l_program_factory.html" target="_top" xlink:title="Factory class for D3D11 HLSL programs.">
<polygon fill="white" stroke="#666666" points="451,-253 284,-253 284,-234 451,-234 451,-253"/>
<text text-anchor="middle" x="367.5" y="-241" font-family="Helvetica,sans-Serif" font-size="10.00">Ogre::D3D11HLSLProgramFactory</text>
</a>
</g>
</g>
<!-- Node1&#45;&gt;Node3 -->
<g id="edge2" class="edge">
<title>Node1&#45;&gt;Node3</title>
<path fill="none" stroke="#63b8ff" d="M198.76,-156.21C218.38,-177.62 250.07,-208.32 284,-225.5 290.41,-228.74 297.39,-231.41 304.48,-233.59"/>
<polygon fill="#63b8ff" stroke="#63b8ff" points="201.4,-153.92 192.12,-148.8 196.18,-158.59 201.4,-153.92"/>
</g>
<!-- Node4 -->
<g id="node4" class="node">
<title>Node4</title>
<g id="a_node4"><a xlink:href="class_ogre_1_1_d3_d9_h_l_s_l_program_factory.html" target="_top" xlink:title="Factory class for D3D9 HLSL programs.">
<polygon fill="white" stroke="#666666" points="448,-216 287,-216 287,-197 448,-197 448,-216"/>
<text text-anchor="middle" x="367.5" y="-204" font-family="Helvetica,sans-Serif" font-size="10.00">Ogre::D3D9HLSLProgramFactory</text>
</a>
</g>
</g>
<!-- Node1&#45;&gt;Node4 -->
<g id="edge3" class="edge">
<title>Node1&#45;&gt;Node4</title>
<path fill="none" stroke="#63b8ff" d="M212.41,-153.56C232.57,-165.29 259.02,-179.34 284,-188.5 292.53,-191.63 301.77,-194.3 310.88,-196.55"/>
<polygon fill="#63b8ff" stroke="#63b8ff" points="214.45,-150.7 204.07,-148.62 210.88,-156.73 214.45,-150.7"/>
</g>
<!-- Node5 -->
<g id="node5" class="node">
<title>Node5</title>
<g id="a_node5"><a xlink:href="class_ogre_1_1_g_l_s_l_e_s_shader_factory.html" target="_top" xlink:title="Factory class for GLSL ES programs.">
<polygon fill="white" stroke="#666666" points="439.5,-179 295.5,-179 295.5,-160 439.5,-160 439.5,-179"/>
<text text-anchor="middle" x="367.5" y="-167" font-family="Helvetica,sans-Serif" font-size="10.00">Ogre::GLSLESShaderFactory</text>
</a>
</g>
</g>
<!-- Node1&#45;&gt;Node5 -->
<g id="edge4" class="edge">
<title>Node1&#45;&gt;Node5</title>
<path fill="none" stroke="#63b8ff" d="M259.43,-148.43C278.63,-152.21 298.57,-156.13 315.96,-159.55"/>
<polygon fill="#63b8ff" stroke="#63b8ff" points="260.21,-145.01 249.72,-146.52 258.86,-151.88 260.21,-145.01"/>
</g>
<!-- Node6 -->
<g id="node6" class="node">
<title>Node6</title>
<g id="a_node6"><a xlink:href="class_ogre_1_1_g_l_s_l_shader_factory.html" target="_top" xlink:title="Factory class for GLSL shaders.">
<polygon fill="white" stroke="#666666" points="433,-142 302,-142 302,-123 433,-123 433,-142"/>
<text text-anchor="middle" x="367.5" y="-130" font-family="Helvetica,sans-Serif" font-size="10.00">Ogre::GLSLShaderFactory</text>
</a>
</g>
</g>
<!-- Node1&#45;&gt;Node6 -->
<g id="edge5" class="edge">
<title>Node1&#45;&gt;Node6</title>
<path fill="none" stroke="#63b8ff" d="M259.42,-132.5C273.49,-132.5 287.97,-132.5 301.55,-132.5"/>
<polygon fill="#63b8ff" stroke="#63b8ff" points="259.75,-129 249.75,-132.5 259.75,-136 259.75,-129"/>
</g>
<!-- Node7 -->
<g id="node7" class="node">
<title>Node7</title>
<g id="a_node7"><a xlink:href="class_ogre_1_1_metal_program_factory.html" target="_top" xlink:title="Factory class for Metal programs.">
<polygon fill="white" stroke="#666666" points="435,-105 300,-105 300,-86 435,-86 435,-105"/>
<text text-anchor="middle" x="367.5" y="-93" font-family="Helvetica,sans-Serif" font-size="10.00">Ogre::MetalProgramFactory</text>
</a>
</g>
</g>
<!-- Node1&#45;&gt;Node7 -->
<g id="edge6" class="edge">
<title>Node1&#45;&gt;Node7</title>
<path fill="none" stroke="#63b8ff" d="M259.43,-116.57C278.63,-112.79 298.57,-108.87 315.96,-105.45"/>
<polygon fill="#63b8ff" stroke="#63b8ff" points="258.86,-113.12 249.72,-118.48 260.21,-119.99 258.86,-113.12"/>
</g>
<!-- Node8 -->
<g id="node8" class="node">
<title>Node8</title>
<g id="a_node8"><a xlink:href="class_ogre_1_1_unified_high_level_gpu_program_factory.html" target="_top" xlink:title="Factory class for Unified programs.">
<polygon fill="white" stroke="#666666" points="434.5,-67.5 300.5,-67.5 300.5,-37.5 434.5,-37.5 434.5,-67.5"/>
<text text-anchor="start" x="308.5" y="-55.5" font-family="Helvetica,sans-Serif" font-size="10.00">Ogre::UnifiedHighLevelGpu</text>
<text text-anchor="middle" x="367.5" y="-44.5" font-family="Helvetica,sans-Serif" font-size="10.00">ProgramFactory</text>
</a>
</g>
</g>
<!-- Node1&#45;&gt;Node8 -->
<g id="edge7" class="edge">
<title>Node1&#45;&gt;Node8</title>
<path fill="none" stroke="#63b8ff" d="M213.74,-111.45C233.84,-100.05 259.78,-86.33 284,-76.5 291.6,-73.41 299.75,-70.55 307.85,-67.95"/>
<polygon fill="#63b8ff" stroke="#63b8ff" points="212.04,-108.4 205.12,-116.42 215.53,-114.46 212.04,-108.4"/>
</g>
<!-- Node9 -->
<g id="node9" class="node">
<title>Node9</title>
<g id="a_node9"><a xlink:href="class_ogre_1_1_vulkan_program_factory.html" target="_top" xlink:title="Factory class for Vulkan programs.">
<polygon fill="white" stroke="#666666" points="438,-19 297,-19 297,0 438,0 438,-19"/>
<text text-anchor="middle" x="367.5" y="-7" font-family="Helvetica,sans-Serif" font-size="10.00">Ogre::VulkanProgramFactory</text>
</a>
</g>
</g>
<!-- Node1&#45;&gt;Node9 -->
<g id="edge8" class="edge">
<title>Node1&#45;&gt;Node9</title>
<path fill="none" stroke="#63b8ff" d="M196.43,-108.25C215.47,-84.28 247.78,-48.39 284,-28.5 290.7,-24.82 298.08,-21.85 305.59,-19.46"/>
<polygon fill="#63b8ff" stroke="#63b8ff" points="193.85,-105.86 190.49,-115.91 199.39,-110.15 193.85,-105.86"/>
</g>
<!-- Node2 -->
<g id="node2" class="node">
<title>Node2</title>
<g id="a_node2"><a xlink:href="class_ogre_1_1_allocated_object.html" target="_top" xlink:title="Superclass for all objects that wish to use custom memory allocators when their new / delete operator...">
<polygon fill="white" stroke="#666666" points="71,-142 0,-142 0,-123 71,-123 71,-142"/>
<text text-anchor="middle" x="35.5" y="-130" font-family="Helvetica,sans-Serif" font-size="10.00">FactoryAlloc</text>
</a>
</g>
</g>
<!-- Node2&#45;&gt;Node1 -->
<g id="edge1" class="edge">
<title>Node2&#45;&gt;Node1</title>
<path fill="none" stroke="#63b8ff" d="M82.77,-132.5C90.48,-132.5 98.62,-132.5 106.75,-132.5"/>
<polygon fill="#63b8ff" stroke="#63b8ff" points="82.98,-129 72.98,-132.5 82.98,-136 82.98,-129"/>
</g>
</g>
</svg>
