<?xml version="1.0" encoding="UTF-8" standalone="no"?>
<!DOCTYPE svg PUBLIC "-//W3C//DTD SVG 1.1//EN"
 "http://www.w3.org/Graphics/SVG/1.1/DTD/svg11.dtd">
<!-- Generated by graphviz version 7.0.5 (20221223.1930)
 -->
<!-- Title: Ogre::v1::HardwareBufferManagerBase Pages: 1 -->
<svg width="627pt" height="494pt"
 viewBox="0.00 0.00 627.00 494.00" xmlns="http://www.w3.org/2000/svg" xmlns:xlink="http://www.w3.org/1999/xlink">
<g id="graph0" class="graph" transform="scale(1 1) rotate(0) translate(4 490)">
<title>Ogre::v1::HardwareBufferManagerBase</title>
<!-- Node1 -->
<g id="node1" class="node">
<title>Node1</title>
<g id="a_node1"><a xlink:title="Base definition of a hardware buffer manager.">
<polygon fill="#999999" stroke="#666666" points="225,-294 100,-294 100,-264 225,-264 225,-294"/>
<text text-anchor="start" x="108" y="-282" font-family="Helvetica,sans-Serif" font-size="10.00">Ogre::v1::HardwareBuffer</text>
<text text-anchor="middle" x="162.5" y="-271" font-family="Helvetica,sans-Serif" font-size="10.00">ManagerBase</text>
</a>
</g>
</g>
<!-- Node3 -->
<g id="node3" class="node">
<title>Node3</title>
<g id="a_node3"><a xlink:href="class_ogre_1_1v1_1_1_d3_d11_hardware_buffer_manager_base.html" target="_top" xlink:title="Implementation of HardwareBufferManager for D3D11.">
<polygon fill="white" stroke="#666666" points="418.5,-486 264.5,-486 264.5,-456 418.5,-456 418.5,-486"/>
<text text-anchor="start" x="272.5" y="-474" font-family="Helvetica,sans-Serif" font-size="10.00">Ogre::v1::D3D11HardwareBuffer</text>
<text text-anchor="middle" x="341.5" y="-463" font-family="Helvetica,sans-Serif" font-size="10.00">ManagerBase</text>
</a>
</g>
</g>
<!-- Node1&#45;&gt;Node3 -->
<g id="edge2" class="edge">
<title>Node1&#45;&gt;Node3</title>
<path fill="none" stroke="#63b8ff" d="M171.68,-304.94C184.67,-341.91 213.5,-409.44 261,-447 265.18,-450.31 269.82,-453.16 274.69,-455.62"/>
<polygon fill="#63b8ff" stroke="#63b8ff" points="175.02,-303.88 168.5,-295.52 168.38,-306.11 175.02,-303.88"/>
</g>
<!-- Node4 -->
<g id="node4" class="node">
<title>Node4</title>
<g id="a_node4"><a xlink:href="class_ogre_1_1v1_1_1_default_hardware_buffer_manager_base.html" target="_top" xlink:title="Specialisation of HardwareBufferManagerBase to emulate hardware buffers.">
<polygon fill="white" stroke="#666666" points="406.5,-438 276.5,-438 276.5,-408 406.5,-408 406.5,-438"/>
<text text-anchor="start" x="284.5" y="-426" font-family="Helvetica,sans-Serif" font-size="10.00">Ogre::v1::DefaultHardware</text>
<text text-anchor="middle" x="341.5" y="-415" font-family="Helvetica,sans-Serif" font-size="10.00">BufferManagerBase</text>
</a>
</g>
</g>
<!-- Node1&#45;&gt;Node4 -->
<g id="edge3" class="edge">
<title>Node1&#45;&gt;Node4</title>
<path fill="none" stroke="#63b8ff" d="M177.51,-303.95C194.05,-331.19 224.04,-374.21 261,-399 265.91,-402.29 271.28,-405.15 276.85,-407.62"/>
<polygon fill="#63b8ff" stroke="#63b8ff" points="180.71,-302.49 172.62,-295.66 174.69,-306.05 180.71,-302.49"/>
</g>
<!-- Node5 -->
<g id="node5" class="node">
<title>Node5</title>
<g id="a_node5"><a xlink:href="class_ogre_1_1v1_1_1_g_l3_plus_default_hardware_buffer_manager_base.html" target="_top" xlink:title="Specialisation of HardwareBufferManager to emulate hardware buffers.">
<polygon fill="white" stroke="#666666" points="413.5,-390 269.5,-390 269.5,-360 413.5,-360 413.5,-390"/>
<text text-anchor="start" x="277.5" y="-378" font-family="Helvetica,sans-Serif" font-size="10.00">Ogre::v1::GL3PlusDefault</text>
<text text-anchor="middle" x="341.5" y="-367" font-family="Helvetica,sans-Serif" font-size="10.00">HardwareBufferManagerBase</text>
</a>
</g>
</g>
<!-- Node1&#45;&gt;Node5 -->
<g id="edge4" class="edge">
<title>Node1&#45;&gt;Node5</title>
<path fill="none" stroke="#63b8ff" d="M188.82,-301.51C207.62,-317.23 234.49,-337.71 261,-351 267.32,-354.17 274.13,-357 281.01,-359.51"/>
<polygon fill="#63b8ff" stroke="#63b8ff" points="191.3,-299.03 181.42,-295.2 186.76,-304.36 191.3,-299.03"/>
</g>
<!-- Node6 -->
<g id="node6" class="node">
<title>Node6</title>
<g id="a_node6"><a xlink:href="class_ogre_1_1v1_1_1_g_l3_plus_hardware_buffer_manager_base.html" target="_top" xlink:title="Implementation of HardwareBufferManager for OpenGL.">
<polygon fill="white" stroke="#666666" points="410,-342 273,-342 273,-312 410,-312 410,-342"/>
<text text-anchor="start" x="281" y="-330" font-family="Helvetica,sans-Serif" font-size="10.00">Ogre::v1::GL3PlusHardware</text>
<text text-anchor="middle" x="341.5" y="-319" font-family="Helvetica,sans-Serif" font-size="10.00">BufferManagerBase</text>
</a>
</g>
</g>
<!-- Node1&#45;&gt;Node6 -->
<g id="edge5" class="edge">
<title>Node1&#45;&gt;Node6</title>
<path fill="none" stroke="#63b8ff" d="M231.59,-297.46C248.78,-302.13 267.06,-307.08 283.63,-311.58"/>
<polygon fill="#63b8ff" stroke="#63b8ff" points="232.51,-294.09 221.94,-294.85 230.67,-300.84 232.51,-294.09"/>
</g>
<!-- Node7 -->
<g id="node7" class="node">
<title>Node7</title>
<g id="a_node7"><a xlink:href="class_ogre_1_1v1_1_1_g_l_e_s2_default_hardware_buffer_manager_base.html" target="_top" xlink:title="Specialisation of HardwareBufferManager to emulate hardware buffers.">
<polygon fill="white" stroke="#666666" points="422,-294 261,-294 261,-264 422,-264 422,-294"/>
<text text-anchor="start" x="269" y="-282" font-family="Helvetica,sans-Serif" font-size="10.00">Ogre::v1::GLES2DefaultHardware</text>
<text text-anchor="middle" x="341.5" y="-271" font-family="Helvetica,sans-Serif" font-size="10.00">BufferManagerBase</text>
</a>
</g>
</g>
<!-- Node1&#45;&gt;Node7 -->
<g id="edge6" class="edge">
<title>Node1&#45;&gt;Node7</title>
<path fill="none" stroke="#63b8ff" d="M236.77,-279C244.63,-279 252.65,-279 260.58,-279"/>
<polygon fill="#63b8ff" stroke="#63b8ff" points="236.92,-275.5 226.92,-279 236.92,-282.5 236.92,-275.5"/>
</g>
<!-- Node8 -->
<g id="node8" class="node">
<title>Node8</title>
<g id="a_node8"><a xlink:href="class_ogre_1_1v1_1_1_g_l_e_s2_hardware_buffer_manager_base.html" target="_top" xlink:title="Implementation of HardwareBufferManager for OpenGL ES.">
<polygon fill="white" stroke="#666666" points="419.5,-246 263.5,-246 263.5,-216 419.5,-216 419.5,-246"/>
<text text-anchor="start" x="271.5" y="-234" font-family="Helvetica,sans-Serif" font-size="10.00">Ogre::v1::GLES2HardwareBuffer</text>
<text text-anchor="middle" x="341.5" y="-223" font-family="Helvetica,sans-Serif" font-size="10.00">ManagerBase</text>
</a>
</g>
</g>
<!-- Node1&#45;&gt;Node8 -->
<g id="edge7" class="edge">
<title>Node1&#45;&gt;Node8</title>
<path fill="none" stroke="#63b8ff" d="M231.59,-260.54C248.78,-255.87 267.06,-250.92 283.63,-246.42"/>
<polygon fill="#63b8ff" stroke="#63b8ff" points="230.67,-257.16 221.94,-263.15 232.51,-263.91 230.67,-257.16"/>
</g>
<!-- Node9 -->
<g id="node9" class="node">
<title>Node9</title>
<g id="a_node9"><a xlink:href="class_ogre_1_1v1_1_1_hardware_buffer_manager.html" target="_top" xlink:title="Singleton wrapper for hardware buffer manager.">
<polygon fill="white" stroke="#666666" points="404,-198 279,-198 279,-168 404,-168 404,-198"/>
<text text-anchor="start" x="287" y="-186" font-family="Helvetica,sans-Serif" font-size="10.00">Ogre::v1::HardwareBuffer</text>
<text text-anchor="middle" x="341.5" y="-175" font-family="Helvetica,sans-Serif" font-size="10.00">Manager</text>
</a>
</g>
</g>
<!-- Node1&#45;&gt;Node9 -->
<g id="edge8" class="edge">
<title>Node1&#45;&gt;Node9</title>
<path fill="none" stroke="#63b8ff" d="M188.82,-256.49C207.62,-240.77 234.49,-220.29 261,-207 267.32,-203.83 274.13,-201 281.01,-198.49"/>
<polygon fill="#63b8ff" stroke="#63b8ff" points="186.76,-253.64 181.42,-262.8 191.3,-258.97 186.76,-253.64"/>
</g>
<!-- Node18 -->
<g id="node18" class="node">
<title>Node18</title>
<g id="a_node18"><a xlink:href="class_ogre_1_1v1_1_1_metal_hardware_buffer_manager_base.html" target="_top" xlink:title="Implementation of HardwareBufferManager for Metal.">
<polygon fill="white" stroke="#666666" points="416,-150 267,-150 267,-120 416,-120 416,-150"/>
<text text-anchor="start" x="275" y="-138" font-family="Helvetica,sans-Serif" font-size="10.00">Ogre::v1::MetalHardwareBuffer</text>
<text text-anchor="middle" x="341.5" y="-127" font-family="Helvetica,sans-Serif" font-size="10.00">ManagerBase</text>
</a>
</g>
</g>
<!-- Node1&#45;&gt;Node18 -->
<g id="edge17" class="edge">
<title>Node1&#45;&gt;Node18</title>
<path fill="none" stroke="#63b8ff" d="M177.51,-254.05C194.05,-226.81 224.04,-183.79 261,-159 265.91,-155.71 271.28,-152.85 276.85,-150.38"/>
<polygon fill="#63b8ff" stroke="#63b8ff" points="174.69,-251.95 172.62,-262.34 180.71,-255.51 174.69,-251.95"/>
</g>
<!-- Node19 -->
<g id="node19" class="node">
<title>Node19</title>
<g id="a_node19"><a xlink:href="class_ogre_1_1v1_1_1_vulkan_hardware_buffer_manager_base.html" target="_top" xlink:title=" ">
<polygon fill="white" stroke="#666666" points="406,-102 277,-102 277,-72 406,-72 406,-102"/>
<text text-anchor="start" x="285" y="-90" font-family="Helvetica,sans-Serif" font-size="10.00">Ogre::v1::VulkanHardware</text>
<text text-anchor="middle" x="341.5" y="-79" font-family="Helvetica,sans-Serif" font-size="10.00">BufferManagerBase</text>
</a>
</g>
</g>
<!-- Node1&#45;&gt;Node19 -->
<g id="edge18" class="edge">
<title>Node1&#45;&gt;Node19</title>
<path fill="none" stroke="#63b8ff" d="M171.68,-253.06C184.67,-216.09 213.5,-148.56 261,-111 265.75,-107.24 271.08,-104.07 276.67,-101.4"/>
<polygon fill="#63b8ff" stroke="#63b8ff" points="168.38,-251.89 168.5,-262.48 175.02,-254.12 168.38,-251.89"/>
</g>
<!-- Node2 -->
<g id="node2" class="node">
<title>Node2</title>
<g id="a_node2"><a xlink:href="class_ogre_1_1_allocated_object.html" target="_top" xlink:title="Superclass for all objects that wish to use custom memory allocators when their new / delete operator...">
<polygon fill="white" stroke="#666666" points="64,-288.5 0,-288.5 0,-269.5 64,-269.5 64,-288.5"/>
<text text-anchor="middle" x="32" y="-276.5" font-family="Helvetica,sans-Serif" font-size="10.00">BufferAlloc</text>
</a>
</g>
</g>
<!-- Node2&#45;&gt;Node1 -->
<g id="edge1" class="edge">
<title>Node2&#45;&gt;Node1</title>
<path fill="none" stroke="#63b8ff" d="M75.71,-279C83.42,-279 91.6,-279 99.73,-279"/>
<polygon fill="#63b8ff" stroke="#63b8ff" points="75.95,-275.5 65.95,-279 75.95,-282.5 75.95,-275.5"/>
</g>
<!-- Node10 -->
<g id="node10" class="node">
<title>Node10</title>
<g id="a_node10"><a xlink:href="class_ogre_1_1v1_1_1_d3_d11_hardware_buffer_manager.html" target="_top" xlink:title="D3D11HardwareBufferManagerBase as a Singleton.">
<polygon fill="white" stroke="#666666" points="615.5,-366 461.5,-366 461.5,-336 615.5,-336 615.5,-366"/>
<text text-anchor="start" x="469.5" y="-354" font-family="Helvetica,sans-Serif" font-size="10.00">Ogre::v1::D3D11HardwareBuffer</text>
<text text-anchor="middle" x="538.5" y="-343" font-family="Helvetica,sans-Serif" font-size="10.00">Manager</text>
</a>
</g>
</g>
<!-- Node9&#45;&gt;Node10 -->
<g id="edge9" class="edge">
<title>Node9&#45;&gt;Node10</title>
<path fill="none" stroke="#63b8ff" d="M413.93,-200.32C416.82,-202.31 419.53,-204.53 422,-207 461.34,-246.41 418.66,-287.59 458,-327 461.26,-330.27 464.95,-333.09 468.9,-335.53"/>
<polygon fill="#63b8ff" stroke="#63b8ff" points="415.92,-197.42 405.5,-195.46 412.42,-203.49 415.92,-197.42"/>
</g>
<!-- Node11 -->
<g id="node11" class="node">
<title>Node11</title>
<g id="a_node11"><a xlink:href="class_ogre_1_1v1_1_1_default_hardware_buffer_manager.html" target="_top" xlink:title="DefaultHardwareBufferManager as a Singleton.">
<polygon fill="white" stroke="#666666" points="603.5,-318 473.5,-318 473.5,-288 603.5,-288 603.5,-318"/>
<text text-anchor="start" x="481.5" y="-306" font-family="Helvetica,sans-Serif" font-size="10.00">Ogre::v1::DefaultHardware</text>
<text text-anchor="middle" x="538.5" y="-295" font-family="Helvetica,sans-Serif" font-size="10.00">BufferManager</text>
</a>
</g>
</g>
<!-- Node9&#45;&gt;Node11 -->
<g id="edge10" class="edge">
<title>Node9&#45;&gt;Node11</title>
<path fill="none" stroke="#63b8ff" d="M414.07,-201.26C416.86,-203 419.52,-204.91 422,-207 449.36,-230.05 430.64,-255.95 458,-279 462.52,-282.81 467.63,-286.01 473.03,-288.71"/>
<polygon fill="#63b8ff" stroke="#63b8ff" points="415.98,-198.31 405.52,-196.67 412.67,-204.48 415.98,-198.31"/>
</g>
<!-- Node12 -->
<g id="node12" class="node">
<title>Node12</title>
<g id="a_node12"><a xlink:href="class_ogre_1_1v1_1_1_g_l3_plus_default_hardware_buffer_manager.html" target="_top" xlink:title="GL3PlusDefaultHardwareBufferManagerBase as a Singleton.">
<polygon fill="white" stroke="#666666" points="601.5,-270 475.5,-270 475.5,-240 601.5,-240 601.5,-270"/>
<text text-anchor="start" x="483.5" y="-258" font-family="Helvetica,sans-Serif" font-size="10.00">Ogre::v1::GL3PlusDefault</text>
<text text-anchor="middle" x="538.5" y="-247" font-family="Helvetica,sans-Serif" font-size="10.00">HardwareBufferManager</text>
</a>
</g>
</g>
<!-- Node9&#45;&gt;Node12 -->
<g id="edge11" class="edge">
<title>Node9&#45;&gt;Node12</title>
<path fill="none" stroke="#63b8ff" d="M411.7,-202.52C415.22,-203.94 418.67,-205.43 422,-207 439.39,-215.2 440.61,-222.8 458,-231 464.65,-234.14 471.81,-236.97 479,-239.51"/>
<polygon fill="#63b8ff" stroke="#63b8ff" points="413.01,-199.27 402.41,-199.02 410.54,-205.82 413.01,-199.27"/>
</g>
<!-- Node13 -->
<g id="node13" class="node">
<title>Node13</title>
<g id="a_node13"><a xlink:href="class_ogre_1_1v1_1_1_g_l3_plus_hardware_buffer_manager.html" target="_top" xlink:title="GL3PlusHardwareBufferManagerBase as a Singleton.">
<polygon fill="white" stroke="#666666" points="607,-222 470,-222 470,-192 607,-192 607,-222"/>
<text text-anchor="start" x="478" y="-210" font-family="Helvetica,sans-Serif" font-size="10.00">Ogre::v1::GL3PlusHardware</text>
<text text-anchor="middle" x="538.5" y="-199" font-family="Helvetica,sans-Serif" font-size="10.00">BufferManager</text>
</a>
</g>
</g>
<!-- Node9&#45;&gt;Node13 -->
<g id="edge12" class="edge">
<title>Node9&#45;&gt;Node13</title>
<path fill="none" stroke="#63b8ff" d="M415.86,-192.03C433.49,-194.2 452.24,-196.51 469.61,-198.64"/>
<polygon fill="#63b8ff" stroke="#63b8ff" points="416.32,-188.56 405.97,-190.81 415.47,-195.51 416.32,-188.56"/>
</g>
<!-- Node14 -->
<g id="node14" class="node">
<title>Node14</title>
<g id="a_node14"><a xlink:href="class_ogre_1_1v1_1_1_g_l_e_s2_default_hardware_buffer_manager.html" target="_top" xlink:title="GLES2DefaultHardwareBufferManagerBase as a Singleton.">
<polygon fill="white" stroke="#666666" points="619,-174 458,-174 458,-144 619,-144 619,-174"/>
<text text-anchor="start" x="466" y="-162" font-family="Helvetica,sans-Serif" font-size="10.00">Ogre::v1::GLES2DefaultHardware</text>
<text text-anchor="middle" x="538.5" y="-151" font-family="Helvetica,sans-Serif" font-size="10.00">BufferManager</text>
</a>
</g>
</g>
<!-- Node9&#45;&gt;Node14 -->
<g id="edge13" class="edge">
<title>Node9&#45;&gt;Node14</title>
<path fill="none" stroke="#63b8ff" d="M415.8,-173.98C429.52,-172.29 443.92,-170.52 457.82,-168.81"/>
<polygon fill="#63b8ff" stroke="#63b8ff" points="415.47,-170.49 405.97,-175.19 416.32,-177.44 415.47,-170.49"/>
</g>
<!-- Node15 -->
<g id="node15" class="node">
<title>Node15</title>
<g id="a_node15"><a xlink:href="class_ogre_1_1v1_1_1_g_l_e_s2_hardware_buffer_manager.html" target="_top" xlink:title="GLES2HardwareBufferManagerBase as a Singleton.">
<polygon fill="white" stroke="#666666" points="616.5,-126 460.5,-126 460.5,-96 616.5,-96 616.5,-126"/>
<text text-anchor="start" x="468.5" y="-114" font-family="Helvetica,sans-Serif" font-size="10.00">Ogre::v1::GLES2HardwareBuffer</text>
<text text-anchor="middle" x="538.5" y="-103" font-family="Helvetica,sans-Serif" font-size="10.00">Manager</text>
</a>
</g>
</g>
<!-- Node9&#45;&gt;Node15 -->
<g id="edge14" class="edge">
<title>Node9&#45;&gt;Node15</title>
<path fill="none" stroke="#63b8ff" d="M411.7,-163.48C415.22,-162.06 418.67,-160.57 422,-159 439.39,-150.8 440.61,-143.2 458,-135 464.65,-131.86 471.81,-129.03 479,-126.49"/>
<polygon fill="#63b8ff" stroke="#63b8ff" points="410.54,-160.18 402.41,-166.98 413.01,-166.73 410.54,-160.18"/>
</g>
<!-- Node16 -->
<g id="node16" class="node">
<title>Node16</title>
<g id="a_node16"><a xlink:href="class_ogre_1_1v1_1_1_metal_hardware_buffer_manager.html" target="_top" xlink:title="MetalHardwareBufferManagerBase as a Singleton.">
<polygon fill="white" stroke="#666666" points="613,-78 464,-78 464,-48 613,-48 613,-78"/>
<text text-anchor="start" x="472" y="-66" font-family="Helvetica,sans-Serif" font-size="10.00">Ogre::v1::MetalHardwareBuffer</text>
<text text-anchor="middle" x="538.5" y="-55" font-family="Helvetica,sans-Serif" font-size="10.00">Manager</text>
</a>
</g>
</g>
<!-- Node9&#45;&gt;Node16 -->
<g id="edge15" class="edge">
<title>Node9&#45;&gt;Node16</title>
<path fill="none" stroke="#63b8ff" d="M414.07,-164.74C416.86,-163 419.52,-161.09 422,-159 449.36,-135.95 430.64,-110.05 458,-87 461.97,-83.66 466.39,-80.78 471.07,-78.3"/>
<polygon fill="#63b8ff" stroke="#63b8ff" points="412.67,-161.52 405.52,-169.33 415.98,-167.69 412.67,-161.52"/>
</g>
<!-- Node17 -->
<g id="node17" class="node">
<title>Node17</title>
<g id="a_node17"><a xlink:href="class_ogre_1_1v1_1_1_vulkan_hardware_buffer_manager.html" target="_top" xlink:title=" ">
<polygon fill="white" stroke="#666666" points="603,-30 474,-30 474,0 603,0 603,-30"/>
<text text-anchor="start" x="482" y="-18" font-family="Helvetica,sans-Serif" font-size="10.00">Ogre::v1::VulkanHardware</text>
<text text-anchor="middle" x="538.5" y="-7" font-family="Helvetica,sans-Serif" font-size="10.00">BufferManager</text>
</a>
</g>
</g>
<!-- Node9&#45;&gt;Node17 -->
<g id="edge16" class="edge">
<title>Node9&#45;&gt;Node17</title>
<path fill="none" stroke="#63b8ff" d="M413.93,-165.68C416.82,-163.69 419.53,-161.47 422,-159 461.34,-119.59 418.66,-78.41 458,-39 462.58,-34.41 468.01,-30.69 473.85,-27.68"/>
<polygon fill="#63b8ff" stroke="#63b8ff" points="412.42,-162.51 405.5,-170.54 415.92,-168.58 412.42,-162.51"/>
</g>
</g>
</svg>
