<?xml version="1.0" encoding="UTF-8" standalone="no"?>
<!DOCTYPE svg PUBLIC "-//W3C//DTD SVG 1.1//EN"
 "http://www.w3.org/Graphics/SVG/1.1/DTD/svg11.dtd">
<!-- Generated by graphviz version 9.0.0 (20230911.1827)
 -->
<!-- Title: Ogre::v1::HardwareVertexBuffer Pages: 1 -->
<svg width="590pt" height="333pt"
 viewBox="0.00 0.00 590.25 332.50" xmlns="http://www.w3.org/2000/svg" xmlns:xlink="http://www.w3.org/1999/xlink">
<g id="graph0" class="graph" transform="scale(1 1) rotate(0) translate(4 328.5)">
<title>Ogre::v1::HardwareVertexBuffer</title>
<!-- Node1 -->
<g id="Node000001" class="node">
<title>Node1</title>
<g id="a_Node000001"><a xlink:title="Specialisation of HardwareBuffer for a vertex buffer.">
<polygon fill="#999999" stroke="#666666" points="385.5,-177.5 259.25,-177.5 259.25,-147 385.5,-147 385.5,-177.5"/>
<text text-anchor="start" x="267.25" y="-164" font-family="Helvetica,sans-Serif" font-size="10.00">Ogre::v1::HardwareVertex</text>
<text text-anchor="middle" x="322.38" y="-152.75" font-family="Helvetica,sans-Serif" font-size="10.00">Buffer</text>
</a>
</g>
</g>
<!-- Node4 -->
<g id="Node000004" class="node">
<title>Node4</title>
<g id="a_Node000004"><a xlink:href="class_ogre_1_1v1_1_1_d3_d11_hardware_vertex_buffer.html" target="_top" xlink:title="Specialisation of HardwareVertexBuffer for D3D11.">
<polygon fill="white" stroke="#666666" points="579.62,-324.5 424.12,-324.5 424.12,-294 579.62,-294 579.62,-324.5"/>
<text text-anchor="start" x="432.12" y="-311" font-family="Helvetica,sans-Serif" font-size="10.00">Ogre::v1::D3D11HardwareVertex</text>
<text text-anchor="middle" x="501.88" y="-299.75" font-family="Helvetica,sans-Serif" font-size="10.00">Buffer</text>
</a>
</g>
</g>
<!-- Node1&#45;&gt;Node4 -->
<g id="edge3_Node000001_Node000004" class="edge">
<title>Node1&#45;&gt;Node4</title>
<g id="a_edge3_Node000001_Node000004"><a xlink:title=" ">
<path fill="none" stroke="#63b8ff" d="M337.47,-187.54C354.11,-215.15 384.28,-258.83 421.5,-284.25 426.75,-287.84 432.54,-290.93 438.53,-293.59"/>
<polygon fill="#63b8ff" stroke="#63b8ff" points="340.61,-185.98 332.54,-179.12 334.57,-189.52 340.61,-185.98"/>
</a>
</g>
</g>
<!-- Node5 -->
<g id="Node000005" class="node">
<title>Node5</title>
<g id="a_Node000005"><a xlink:href="class_ogre_1_1v1_1_1_default_hardware_vertex_buffer.html" target="_top" xlink:title="Specialisation of HardwareVertexBuffer for emulation.">
<polygon fill="white" stroke="#666666" points="566.5,-275.5 437.25,-275.5 437.25,-245 566.5,-245 566.5,-275.5"/>
<text text-anchor="start" x="445.25" y="-262" font-family="Helvetica,sans-Serif" font-size="10.00">Ogre::v1::DefaultHardware</text>
<text text-anchor="middle" x="501.88" y="-250.75" font-family="Helvetica,sans-Serif" font-size="10.00">VertexBuffer</text>
</a>
</g>
</g>
<!-- Node1&#45;&gt;Node5 -->
<g id="edge4_Node000001_Node000005" class="edge">
<title>Node1&#45;&gt;Node5</title>
<g id="a_edge4_Node000001_Node000005"><a xlink:title=" ">
<path fill="none" stroke="#63b8ff" d="M349.22,-185.27C368.13,-201.14 395.01,-221.72 421.5,-235.25 428.32,-238.73 435.72,-241.85 443.16,-244.59"/>
<polygon fill="#63b8ff" stroke="#63b8ff" points="351.64,-182.74 341.76,-178.9 347.09,-188.06 351.64,-182.74"/>
</a>
</g>
</g>
<!-- Node6 -->
<g id="Node000006" class="node">
<title>Node6</title>
<g id="a_Node000006"><a xlink:href="class_ogre_1_1v1_1_1_g_l3_plus_default_hardware_vertex_buffer.html" target="_top" xlink:title="Specialisation of HardwareVertexBuffer for emulation.">
<polygon fill="white" stroke="#666666" points="564.62,-226.5 439.12,-226.5 439.12,-196 564.62,-196 564.62,-226.5"/>
<text text-anchor="start" x="447.12" y="-213" font-family="Helvetica,sans-Serif" font-size="10.00">Ogre::v1::GL3PlusDefault</text>
<text text-anchor="middle" x="501.88" y="-201.75" font-family="Helvetica,sans-Serif" font-size="10.00">HardwareVertexBuffer</text>
</a>
</g>
</g>
<!-- Node1&#45;&gt;Node6 -->
<g id="edge5_Node000001_Node000006" class="edge">
<title>Node1&#45;&gt;Node6</title>
<g id="a_edge5_Node000001_Node000006"><a xlink:title=" ">
<path fill="none" stroke="#63b8ff" d="M390.75,-180.85C408.25,-185.68 426.94,-190.84 443.85,-195.51"/>
<polygon fill="#63b8ff" stroke="#63b8ff" points="392.05,-177.58 381.48,-178.29 390.19,-184.33 392.05,-177.58"/>
</a>
</g>
</g>
<!-- Node7 -->
<g id="Node000007" class="node">
<title>Node7</title>
<g id="a_Node000007"><a xlink:href="class_ogre_1_1v1_1_1_g_l3_plus_hardware_vertex_buffer.html" target="_top" xlink:title="Specialisation of HardwareVertexBuffer for OpenGL.">
<polygon fill="white" stroke="#666666" points="570.25,-177.5 433.5,-177.5 433.5,-147 570.25,-147 570.25,-177.5"/>
<text text-anchor="start" x="441.5" y="-164" font-family="Helvetica,sans-Serif" font-size="10.00">Ogre::v1::GL3PlusHardware</text>
<text text-anchor="middle" x="501.88" y="-152.75" font-family="Helvetica,sans-Serif" font-size="10.00">VertexBuffer</text>
</a>
</g>
</g>
<!-- Node1&#45;&gt;Node7 -->
<g id="edge6_Node000001_Node000007" class="edge">
<title>Node1&#45;&gt;Node7</title>
<g id="a_edge6_Node000001_Node000007"><a xlink:title=" ">
<path fill="none" stroke="#63b8ff" d="M397.22,-162.25C409.12,-162.25 421.39,-162.25 433.13,-162.25"/>
<polygon fill="#63b8ff" stroke="#63b8ff" points="397.47,-158.75 387.47,-162.25 397.47,-165.75 397.47,-158.75"/>
</a>
</g>
</g>
<!-- Node8 -->
<g id="Node000008" class="node">
<title>Node8</title>
<g id="a_Node000008"><a xlink:href="class_ogre_1_1v1_1_1_g_l_e_s2_default_hardware_vertex_buffer.html" target="_top" xlink:title="Specialisation of HardwareVertexBuffer for emulation.">
<polygon fill="white" stroke="#666666" points="582.25,-128.5 421.5,-128.5 421.5,-98 582.25,-98 582.25,-128.5"/>
<text text-anchor="start" x="429.5" y="-115" font-family="Helvetica,sans-Serif" font-size="10.00">Ogre::v1::GLES2DefaultHardware</text>
<text text-anchor="middle" x="501.88" y="-103.75" font-family="Helvetica,sans-Serif" font-size="10.00">VertexBuffer</text>
</a>
</g>
</g>
<!-- Node1&#45;&gt;Node8 -->
<g id="edge7_Node000001_Node000008" class="edge">
<title>Node1&#45;&gt;Node8</title>
<g id="a_edge7_Node000001_Node000008"><a xlink:title=" ">
<path fill="none" stroke="#63b8ff" d="M390.75,-143.65C408.25,-138.82 426.94,-133.66 443.85,-128.99"/>
<polygon fill="#63b8ff" stroke="#63b8ff" points="390.19,-140.17 381.48,-146.21 392.05,-146.92 390.19,-140.17"/>
</a>
</g>
</g>
<!-- Node9 -->
<g id="Node000009" class="node">
<title>Node9</title>
<g id="a_Node000009"><a xlink:href="class_ogre_1_1v1_1_1_metal_hardware_vertex_buffer.html" target="_top" xlink:title="Specialisation of HardwareVertexBuffer for Metal.">
<polygon fill="white" stroke="#666666" points="577,-79.5 426.75,-79.5 426.75,-49 577,-49 577,-79.5"/>
<text text-anchor="start" x="434.75" y="-66" font-family="Helvetica,sans-Serif" font-size="10.00">Ogre::v1::MetalHardwareVertex</text>
<text text-anchor="middle" x="501.88" y="-54.75" font-family="Helvetica,sans-Serif" font-size="10.00">Buffer</text>
</a>
</g>
</g>
<!-- Node1&#45;&gt;Node9 -->
<g id="edge8_Node000001_Node000009" class="edge">
<title>Node1&#45;&gt;Node9</title>
<g id="a_edge8_Node000001_Node000009"><a xlink:title=" ">
<path fill="none" stroke="#63b8ff" d="M349.22,-139.23C368.13,-123.36 395.01,-102.78 421.5,-89.25 428.32,-85.77 435.72,-82.65 443.16,-79.91"/>
<polygon fill="#63b8ff" stroke="#63b8ff" points="347.09,-136.44 341.76,-145.6 351.64,-141.76 347.09,-136.44"/>
</a>
</g>
</g>
<!-- Node10 -->
<g id="Node000010" class="node">
<title>Node10</title>
<g id="a_Node000010"><a xlink:href="class_ogre_1_1v1_1_1_vulkan_hardware_vertex_buffer.html" target="_top" xlink:title=" ">
<polygon fill="white" stroke="#666666" points="566.12,-30.5 437.62,-30.5 437.62,0 566.12,0 566.12,-30.5"/>
<text text-anchor="start" x="445.62" y="-17" font-family="Helvetica,sans-Serif" font-size="10.00">Ogre::v1::VulkanHardware</text>
<text text-anchor="middle" x="501.88" y="-5.75" font-family="Helvetica,sans-Serif" font-size="10.00">VertexBuffer</text>
</a>
</g>
</g>
<!-- Node1&#45;&gt;Node10 -->
<g id="edge9_Node000001_Node000010" class="edge">
<title>Node1&#45;&gt;Node10</title>
<g id="a_edge9_Node000001_Node000010"><a xlink:title=" ">
<path fill="none" stroke="#63b8ff" d="M337.47,-136.96C354.11,-109.35 384.28,-65.67 421.5,-40.25 426.75,-36.66 432.54,-33.57 438.53,-30.91"/>
<polygon fill="#63b8ff" stroke="#63b8ff" points="334.57,-134.98 332.54,-145.38 340.61,-138.52 334.57,-134.98"/>
</a>
</g>
</g>
<!-- Node2 -->
<g id="Node000002" class="node">
<title>Node2</title>
<g id="a_Node000002"><a xlink:href="class_ogre_1_1v1_1_1_hardware_buffer.html" target="_top" xlink:title="Abstract class defining common features of hardware buffers.">
<polygon fill="white" stroke="#666666" points="223.25,-171.88 99.25,-171.88 99.25,-152.62 223.25,-152.62 223.25,-171.88"/>
<text text-anchor="middle" x="161.25" y="-158.38" font-family="Helvetica,sans-Serif" font-size="10.00">Ogre::v1::HardwareBuffer</text>
</a>
</g>
</g>
<!-- Node2&#45;&gt;Node1 -->
<g id="edge1_Node000001_Node000002" class="edge">
<title>Node2&#45;&gt;Node1</title>
<g id="a_edge1_Node000001_Node000002"><a xlink:title=" ">
<path fill="none" stroke="#63b8ff" d="M234.66,-162.25C242.75,-162.25 250.94,-162.25 258.89,-162.25"/>
<polygon fill="#63b8ff" stroke="#63b8ff" points="234.83,-158.75 224.83,-162.25 234.83,-165.75 234.83,-158.75"/>
</a>
</g>
</g>
<!-- Node3 -->
<g id="Node000003" class="node">
<title>Node3</title>
<g id="a_Node000003"><a xlink:href="class_ogre_1_1_allocated_object.html" target="_top" xlink:title="Superclass for all objects that wish to use custom memory allocators when their new / delete operator...">
<polygon fill="white" stroke="#666666" points="63.25,-171.88 0,-171.88 0,-152.62 63.25,-152.62 63.25,-171.88"/>
<text text-anchor="middle" x="31.62" y="-158.38" font-family="Helvetica,sans-Serif" font-size="10.00">BufferAlloc</text>
</a>
</g>
</g>
<!-- Node3&#45;&gt;Node2 -->
<g id="edge2_Node000002_Node000003" class="edge">
<title>Node3&#45;&gt;Node2</title>
<g id="a_edge2_Node000002_Node000003"><a xlink:title=" ">
<path fill="none" stroke="#63b8ff" d="M74.81,-162.25C82.53,-162.25 90.74,-162.25 98.89,-162.25"/>
<polygon fill="#63b8ff" stroke="#63b8ff" points="75.03,-158.75 65.03,-162.25 75.03,-165.75 75.03,-158.75"/>
</a>
</g>
</g>
</g>
</svg>
