<?xml version="1.0" encoding="UTF-8" standalone="no"?>
<!DOCTYPE svg PUBLIC "-//W3C//DTD SVG 1.1//EN"
 "http://www.w3.org/Graphics/SVG/1.1/DTD/svg11.dtd">
<!-- Generated by graphviz version 7.0.5 (20221223.1930)
 -->
<!-- Title: Ogre::Plugin Pages: 1 -->
<svg width="366pt" height="434pt"
 viewBox="0.00 0.00 366.00 434.00" xmlns="http://www.w3.org/2000/svg" xmlns:xlink="http://www.w3.org/1999/xlink">
<g id="graph0" class="graph" transform="scale(1 1) rotate(0) translate(4 430)">
<title>Ogre::Plugin</title>
<!-- Node1 -->
<g id="node1" class="node">
<title>Node1</title>
<g id="a_node1"><a xlink:title="Class defining a generic OGRE plugin.">
<polygon fill="#999999" stroke="#666666" points="170,-222 101,-222 101,-203 170,-203 170,-222"/>
<text text-anchor="middle" x="135.5" y="-210" font-family="Helvetica,sans-Serif" font-size="10.00">Ogre::Plugin</text>
</a>
</g>
</g>
<!-- Node3 -->
<g id="node3" class="node">
<title>Node3</title>
<g id="a_node3"><a xlink:href="class_ogre_1_1_bsp_scene_manager_plugin.html" target="_top" xlink:title="Plugin instance for BSPSceneManager.">
<polygon fill="white" stroke="#666666" points="358,-426 206,-426 206,-407 358,-407 358,-426"/>
<text text-anchor="middle" x="282" y="-414" font-family="Helvetica,sans-Serif" font-size="10.00">Ogre::BspSceneManagerPlugin</text>
</a>
</g>
</g>
<!-- Node1&#45;&gt;Node3 -->
<g id="edge2" class="edge">
<title>Node1&#45;&gt;Node3</title>
<path fill="none" stroke="#63b8ff" d="M138.11,-233.72C142.22,-272.49 156.6,-354.78 206,-398.5 209.61,-401.69 213.69,-404.35 218.03,-406.55"/>
<polygon fill="#63b8ff" stroke="#63b8ff" points="141.6,-233.51 137.21,-223.87 134.63,-234.15 141.6,-233.51"/>
</g>
<!-- Node4 -->
<g id="node4" class="node">
<title>Node4</title>
<g id="a_node4"><a xlink:href="class_ogre_1_1_d3_d11_plugin.html" target="_top" xlink:title="Plugin instance for D3D11 Manager.">
<polygon fill="white" stroke="#666666" points="331,-389 233,-389 233,-370 331,-370 331,-389"/>
<text text-anchor="middle" x="282" y="-377" font-family="Helvetica,sans-Serif" font-size="10.00">Ogre::D3D11Plugin</text>
</a>
</g>
</g>
<!-- Node1&#45;&gt;Node4 -->
<g id="edge3" class="edge">
<title>Node1&#45;&gt;Node4</title>
<path fill="none" stroke="#63b8ff" d="M140.29,-233.54C147.29,-266.09 165.41,-328.34 206,-361.5 213.67,-367.77 223.18,-371.92 232.81,-374.65"/>
<polygon fill="#63b8ff" stroke="#63b8ff" points="143.73,-232.9 138.36,-223.77 136.87,-234.26 143.73,-232.9"/>
</g>
<!-- Node5 -->
<g id="node5" class="node">
<title>Node5</title>
<g id="a_node5"><a xlink:href="class_ogre_1_1_d3_d9_plugin.html" target="_top" xlink:title="Plugin instance for D3D9 Manager.">
<polygon fill="white" stroke="#666666" points="328.5,-352 235.5,-352 235.5,-333 328.5,-333 328.5,-352"/>
<text text-anchor="middle" x="282" y="-340" font-family="Helvetica,sans-Serif" font-size="10.00">Ogre::D3D9Plugin</text>
</a>
</g>
</g>
<!-- Node1&#45;&gt;Node5 -->
<g id="edge4" class="edge">
<title>Node1&#45;&gt;Node5</title>
<path fill="none" stroke="#63b8ff" d="M143.62,-233.03C153.53,-258.49 173.97,-301.37 206,-324.5 214.58,-330.69 225,-334.78 235.32,-337.47"/>
<polygon fill="#63b8ff" stroke="#63b8ff" points="146.96,-231.98 140.22,-223.81 140.39,-234.4 146.96,-231.98"/>
</g>
<!-- Node6 -->
<g id="node6" class="node">
<title>Node6</title>
<g id="a_node6"><a xlink:href="class_ogre_1_1_g_l3_plus_plugin.html" target="_top" xlink:title="Plugin instance for GL3Plus Manager.">
<polygon fill="white" stroke="#666666" points="335.5,-315 228.5,-315 228.5,-296 335.5,-296 335.5,-315"/>
<text text-anchor="middle" x="282" y="-303" font-family="Helvetica,sans-Serif" font-size="10.00">Ogre::GL3PlusPlugin</text>
</a>
</g>
</g>
<!-- Node1&#45;&gt;Node6 -->
<g id="edge5" class="edge">
<title>Node1&#45;&gt;Node6</title>
<path fill="none" stroke="#63b8ff" d="M149.01,-231.38C161.44,-248.62 182.05,-273.48 206,-287.5 212.82,-291.49 220.48,-294.6 228.23,-297.02"/>
<polygon fill="#63b8ff" stroke="#63b8ff" points="152.12,-229.72 143.54,-223.5 146.37,-233.71 152.12,-229.72"/>
</g>
<!-- Node7 -->
<g id="node7" class="node">
<title>Node7</title>
<g id="a_node7"><a xlink:href="class_ogre_1_1_g_l_e_s2_plugin.html" target="_top" xlink:title="Plugin instance for GL ES 2 Manager.">
<polygon fill="white" stroke="#666666" points="332.5,-278 231.5,-278 231.5,-259 332.5,-259 332.5,-278"/>
<text text-anchor="middle" x="282" y="-266" font-family="Helvetica,sans-Serif" font-size="10.00">Ogre::GLES2Plugin</text>
</a>
</g>
</g>
<!-- Node1&#45;&gt;Node7 -->
<g id="edge6" class="edge">
<title>Node1&#45;&gt;Node7</title>
<path fill="none" stroke="#63b8ff" d="M161.49,-228.27C174.39,-235.85 190.61,-244.57 206,-250.5 214,-253.58 222.68,-256.25 231.21,-258.51"/>
<polygon fill="#63b8ff" stroke="#63b8ff" points="163.6,-225.45 153.23,-223.28 159.98,-231.44 163.6,-225.45"/>
</g>
<!-- Node8 -->
<g id="node8" class="node">
<title>Node8</title>
<g id="a_node8"><a xlink:href="class_ogre_1_1_metal_plugin.html" target="_top" xlink:title="Plugin instance for Metal Manager.">
<polygon fill="white" stroke="#666666" points="328.5,-241 235.5,-241 235.5,-222 328.5,-222 328.5,-241"/>
<text text-anchor="middle" x="282" y="-229" font-family="Helvetica,sans-Serif" font-size="10.00">Ogre::MetalPlugin</text>
</a>
</g>
</g>
<!-- Node1&#45;&gt;Node8 -->
<g id="edge7" class="edge">
<title>Node1&#45;&gt;Node8</title>
<path fill="none" stroke="#63b8ff" d="M181.7,-218.44C198.68,-220.68 217.98,-223.21 235.03,-225.45"/>
<polygon fill="#63b8ff" stroke="#63b8ff" points="182.25,-214.99 171.88,-217.15 181.34,-221.93 182.25,-214.99"/>
</g>
<!-- Node9 -->
<g id="node9" class="node">
<title>Node9</title>
<g id="a_node9"><a xlink:href="class_ogre_1_1_n_u_l_l_plugin.html" target="_top" xlink:title="Plugin instance for NULL Manager.">
<polygon fill="white" stroke="#666666" points="330,-204 234,-204 234,-185 330,-185 330,-204"/>
<text text-anchor="middle" x="282" y="-192" font-family="Helvetica,sans-Serif" font-size="10.00">Ogre::NULLPlugin</text>
</a>
</g>
</g>
<!-- Node1&#45;&gt;Node9 -->
<g id="edge8" class="edge">
<title>Node1&#45;&gt;Node9</title>
<path fill="none" stroke="#63b8ff" d="M181.45,-206.9C198.03,-204.83 216.87,-202.49 233.66,-200.4"/>
<polygon fill="#63b8ff" stroke="#63b8ff" points="181.37,-203.38 171.88,-208.09 182.24,-210.33 181.37,-203.38"/>
</g>
<!-- Node10 -->
<g id="node10" class="node">
<title>Node10</title>
<g id="a_node10"><a xlink:href="class_ogre_1_1_octree_plugin.html" target="_top" xlink:title="Plugin instance for Octree Manager.">
<polygon fill="white" stroke="#666666" points="331,-167 233,-167 233,-148 331,-148 331,-167"/>
<text text-anchor="middle" x="282" y="-155" font-family="Helvetica,sans-Serif" font-size="10.00">Ogre::OctreePlugin</text>
</a>
</g>
</g>
<!-- Node1&#45;&gt;Node10 -->
<g id="edge9" class="edge">
<title>Node1&#45;&gt;Node10</title>
<path fill="none" stroke="#63b8ff" d="M162.18,-196.82C174.98,-189.52 190.92,-181.22 206,-175.5 214.51,-172.27 223.8,-169.49 232.84,-167.14"/>
<polygon fill="#63b8ff" stroke="#63b8ff" points="160.41,-193.79 153.55,-201.86 163.95,-199.83 160.41,-193.79"/>
</g>
<!-- Node11 -->
<g id="node11" class="node">
<title>Node11</title>
<g id="a_node11"><a xlink:href="class_ogre_1_1_octree_zone_plugin.html" target="_top" xlink:title="Plugin instance for OctreeZone.">
<polygon fill="white" stroke="#666666" points="342,-130 222,-130 222,-111 342,-111 342,-130"/>
<text text-anchor="middle" x="282" y="-118" font-family="Helvetica,sans-Serif" font-size="10.00">Ogre::OctreeZonePlugin</text>
</a>
</g>
</g>
<!-- Node1&#45;&gt;Node11 -->
<g id="edge10" class="edge">
<title>Node1&#45;&gt;Node11</title>
<path fill="none" stroke="#63b8ff" d="M149.27,-193.6C161.75,-176.6 182.3,-152.26 206,-138.5 211.56,-135.27 217.67,-132.62 223.93,-130.45"/>
<polygon fill="#63b8ff" stroke="#63b8ff" points="146.68,-191.2 143.76,-201.38 152.39,-195.24 146.68,-191.2"/>
</g>
<!-- Node12 -->
<g id="node12" class="node">
<title>Node12</title>
<g id="a_node12"><a xlink:href="class_ogre_1_1_p_c_z_plugin.html" target="_top" xlink:title="Plugin instance for PCZ Manager.">
<polygon fill="white" stroke="#666666" points="326.5,-93 237.5,-93 237.5,-74 326.5,-74 326.5,-93"/>
<text text-anchor="middle" x="282" y="-81" font-family="Helvetica,sans-Serif" font-size="10.00">Ogre::PCZPlugin</text>
</a>
</g>
</g>
<!-- Node1&#45;&gt;Node12 -->
<g id="edge11" class="edge">
<title>Node1&#45;&gt;Node12</title>
<path fill="none" stroke="#63b8ff" d="M143.67,-192.15C153.64,-166.91 174.13,-124.42 206,-101.5 215.13,-94.93 226.35,-90.74 237.29,-88.06"/>
<polygon fill="#63b8ff" stroke="#63b8ff" points="140.48,-190.69 140.25,-201.28 147.04,-193.14 140.48,-190.69"/>
</g>
<!-- Node13 -->
<g id="node13" class="node">
<title>Node13</title>
<g id="a_node13"><a xlink:href="class_ogre_1_1_particle_f_x_plugin.html" target="_top" xlink:title="Plugin instance for ParticleFX Manager.">
<polygon fill="white" stroke="#666666" points="339.5,-56 224.5,-56 224.5,-37 339.5,-37 339.5,-56"/>
<text text-anchor="middle" x="282" y="-44" font-family="Helvetica,sans-Serif" font-size="10.00">Ogre::ParticleFXPlugin</text>
</a>
</g>
</g>
<!-- Node1&#45;&gt;Node13 -->
<g id="edge12" class="edge">
<title>Node1&#45;&gt;Node13</title>
<path fill="none" stroke="#63b8ff" d="M140.33,-191.6C147.39,-159.26 165.59,-97.42 206,-64.5 211.4,-60.1 217.7,-56.75 224.31,-54.2"/>
<polygon fill="#63b8ff" stroke="#63b8ff" points="136.92,-190.8 138.38,-201.29 143.79,-192.18 136.92,-190.8"/>
</g>
<!-- Node14 -->
<g id="node14" class="node">
<title>Node14</title>
<g id="a_node14"><a xlink:href="class_ogre_1_1_vulkan_plugin.html" target="_top" xlink:title="Plugin instance for Vulkan Manager.">
<polygon fill="white" stroke="#666666" points="331.5,-19 232.5,-19 232.5,0 331.5,0 331.5,-19"/>
<text text-anchor="middle" x="282" y="-7" font-family="Helvetica,sans-Serif" font-size="10.00">Ogre::VulkanPlugin</text>
</a>
</g>
</g>
<!-- Node1&#45;&gt;Node14 -->
<g id="edge13" class="edge">
<title>Node1&#45;&gt;Node14</title>
<path fill="none" stroke="#63b8ff" d="M138.14,-191.39C142.32,-152.83 156.79,-70.97 206,-27.5 213.33,-21.03 222.57,-16.78 232.05,-14.02"/>
<polygon fill="#63b8ff" stroke="#63b8ff" points="134.67,-190.9 137.23,-201.18 141.64,-191.55 134.67,-190.9"/>
</g>
<!-- Node2 -->
<g id="node2" class="node">
<title>Node2</title>
<g id="a_node2"><a xlink:href="class_ogre_1_1_allocated_object.html" target="_top" xlink:title="Superclass for all objects that wish to use custom memory allocators when their new / delete operator...">
<polygon fill="white" stroke="#666666" points="65,-222 0,-222 0,-203 65,-203 65,-222"/>
<text text-anchor="middle" x="32.5" y="-210" font-family="Helvetica,sans-Serif" font-size="10.00">PluginAlloc</text>
</a>
</g>
</g>
<!-- Node2&#45;&gt;Node1 -->
<g id="edge1" class="edge">
<title>Node2&#45;&gt;Node1</title>
<path fill="none" stroke="#63b8ff" d="M76.86,-212.5C84.82,-212.5 93.02,-212.5 100.66,-212.5"/>
<polygon fill="#63b8ff" stroke="#63b8ff" points="76.97,-209 66.97,-212.5 76.97,-216 76.97,-209"/>
</g>
</g>
</svg>
