<?xml version="1.0" encoding="UTF-8" standalone="no"?>
<!DOCTYPE svg PUBLIC "-//W3C//DTD SVG 1.1//EN"
 "http://www.w3.org/Graphics/SVG/1.1/DTD/svg11.dtd">
<!-- Generated by graphviz version 12.2.0 (20241103.1931)
 -->
<!-- Title: Ogre::ConstMapIterator&lt; T &gt; Pages: 1 -->
<svg width="147pt" height="172pt"
 viewBox="0.00 0.00 147.00 171.50" xmlns="http://www.w3.org/2000/svg" xmlns:xlink="http://www.w3.org/1999/xlink">
<g id="graph0" class="graph" transform="scale(1 1) rotate(0) translate(4 167.5)">
<title>Ogre::ConstMapIterator&lt; T &gt;</title>
<!-- Node1 -->
<g id="Node000001" class="node">
<title>Node1</title>
<g id="a_Node000001"><a xlink:title="Concrete IteratorWrapper for const access to the underlying key&#45;value container.">
<polygon fill="#999999" stroke="#666666" points="139,-19.25 0,-19.25 0,0 139,0 139,-19.25"/>
<text text-anchor="middle" x="69.5" y="-5.75" font-family="Helvetica,sans-Serif" font-size="10.00">Ogre::ConstMapIterator&lt; T &gt;</text>
</a>
</g>
</g>
<!-- Node2 -->
<g id="Node000002" class="node">
<title>Node2</title>
<g id="a_Node000002"><a xlink:href="class_ogre_1_1_map_iterator_wrapper.html" target="_top" xlink:title=" ">
<polygon fill="white" stroke="#666666" points="133,-85.75 6,-85.75 6,-55.25 133,-55.25 133,-85.75"/>
<text text-anchor="start" x="14" y="-72.25" font-family="Helvetica,sans-Serif" font-size="10.00">Ogre::MapIteratorWrapper</text>
<text text-anchor="middle" x="69.5" y="-61" font-family="Helvetica,sans-Serif" font-size="10.00">&lt; T, T::const_iterator &gt;</text>
</a>
</g>
</g>
<!-- Node2&#45;&gt;Node1 -->
<g id="edge1_Node000001_Node000002" class="edge">
<title>Node2&#45;&gt;Node1</title>
<g id="a_edge1_Node000001_Node000002"><a xlink:title=" ">
<path fill="none" stroke="#63b8ff" d="M69.5,-43.48C69.5,-34.98 69.5,-26.09 69.5,-19.7"/>
<polygon fill="#63b8ff" stroke="#63b8ff" points="66,-43.43 69.5,-53.43 73,-43.43 66,-43.43"/>
</a>
</g>
</g>
<!-- Node3 -->
<g id="Node000003" class="node">
<title>Node3</title>
<g id="a_Node000003"><a xlink:href="class_ogre_1_1_iterator_wrapper.html" target="_top" xlink:title=" ">
<polygon fill="white" stroke="#666666" points="123.62,-163.5 15.38,-163.5 15.38,-121.75 123.62,-121.75 123.62,-163.5"/>
<text text-anchor="start" x="23.38" y="-150" font-family="Helvetica,sans-Serif" font-size="10.00">Ogre::IteratorWrapper</text>
<text text-anchor="start" x="23.38" y="-138.75" font-family="Helvetica,sans-Serif" font-size="10.00">&lt; T, T::const_iterator,</text>
<text text-anchor="middle" x="69.5" y="-127.5" font-family="Helvetica,sans-Serif" font-size="10.00"> T::mapped_type &gt;</text>
</a>
</g>
</g>
<!-- Node3&#45;&gt;Node2 -->
<g id="edge2_Node000002_Node000003" class="edge">
<title>Node3&#45;&gt;Node2</title>
<g id="a_edge2_Node000002_Node000003"><a xlink:title=" ">
<path fill="none" stroke="#63b8ff" d="M69.5,-109.88C69.5,-101.52 69.5,-92.9 69.5,-85.95"/>
<polygon fill="#63b8ff" stroke="#63b8ff" points="66,-109.83 69.5,-119.83 73,-109.83 66,-109.83"/>
</a>
</g>
</g>
</g>
</svg>
