<?xml version="1.0" encoding="UTF-8" standalone="no"?>
<!DOCTYPE svg PUBLIC "-//W3C//DTD SVG 1.1//EN"
 "http://www.w3.org/Graphics/SVG/1.1/DTD/svg11.dtd">
<!-- Generated by graphviz version 7.0.5 (20221223.1930)
 -->
<!-- Title: Ogre::ResourceManager Pages: 1 -->
<svg width="649pt" height="434pt"
 viewBox="0.00 0.00 649.00 434.00" xmlns="http://www.w3.org/2000/svg" xmlns:xlink="http://www.w3.org/1999/xlink">
<g id="graph0" class="graph" transform="scale(1 1) rotate(0) translate(4 430)">
<title>Ogre::ResourceManager</title>
<!-- Node1 -->
<g id="node1" class="node">
<title>Node1</title>
<g id="a_node1"><a xlink:title="Defines a generic resource handler.">
<polygon fill="#999999" stroke="#666666" points="255,-216 134,-216 134,-197 255,-197 255,-216"/>
<text text-anchor="middle" x="194.5" y="-204" font-family="Helvetica,sans-Serif" font-size="10.00">Ogre::ResourceManager</text>
</a>
</g>
</g>
<!-- Node4 -->
<g id="node4" class="node">
<title>Node4</title>
<g id="a_node4"><a xlink:href="class_ogre_1_1_bsp_resource_manager.html" target="_top" xlink:title="Manages the locating and loading of BSP&#45;based indoor levels.">
<polygon fill="white" stroke="#666666" points="434,-376 296,-376 296,-357 434,-357 434,-376"/>
<text text-anchor="middle" x="365" y="-364" font-family="Helvetica,sans-Serif" font-size="10.00">Ogre::BspResourceManager</text>
</a>
</g>
</g>
<!-- Node1&#45;&gt;Node4 -->
<g id="edge3" class="edge">
<title>Node1&#45;&gt;Node4</title>
<path fill="none" stroke="#63b8ff" d="M203.38,-226.67C216.61,-257.81 246.31,-317.25 291,-348.5 295.6,-351.72 300.71,-354.36 306.04,-356.53"/>
<polygon fill="#63b8ff" stroke="#63b8ff" points="206.71,-225.58 199.69,-217.64 200.23,-228.22 206.71,-225.58"/>
</g>
<!-- Node5 -->
<g id="node5" class="node">
<title>Node5</title>
<g id="a_node5"><a xlink:href="class_ogre_1_1_font_manager.html" target="_top" xlink:title="Manages Font resources, parsing .fontdef files and generally organising them.">
<polygon fill="white" stroke="#666666" points="414.5,-339 315.5,-339 315.5,-320 414.5,-320 414.5,-339"/>
<text text-anchor="middle" x="365" y="-327" font-family="Helvetica,sans-Serif" font-size="10.00">Ogre::FontManager</text>
</a>
</g>
</g>
<!-- Node1&#45;&gt;Node5 -->
<g id="edge4" class="edge">
<title>Node1&#45;&gt;Node5</title>
<path fill="none" stroke="#63b8ff" d="M207.7,-225.79C223.82,-249.65 254.49,-289.75 291,-311.5 298.4,-315.91 306.84,-319.24 315.29,-321.76"/>
<polygon fill="#63b8ff" stroke="#63b8ff" points="210.77,-224.09 202.36,-217.65 204.92,-227.93 210.77,-224.09"/>
</g>
<!-- Node6 -->
<g id="node6" class="node">
<title>Node6</title>
<g id="a_node6"><a xlink:href="class_ogre_1_1_gpu_program_manager.html" target="_top" xlink:title=" ">
<polygon fill="white" stroke="#666666" points="432,-302 298,-302 298,-283 432,-283 432,-302"/>
<text text-anchor="middle" x="365" y="-290" font-family="Helvetica,sans-Serif" font-size="10.00">Ogre::GpuProgramManager</text>
</a>
</g>
</g>
<!-- Node1&#45;&gt;Node6 -->
<g id="edge5" class="edge">
<title>Node1&#45;&gt;Node6</title>
<path fill="none" stroke="#63b8ff" d="M215.37,-223.66C233.83,-238.78 262.67,-260.4 291,-273.5 298.73,-277.07 307.23,-280.06 315.63,-282.52"/>
<polygon fill="#63b8ff" stroke="#63b8ff" points="217.8,-221.12 207.88,-217.39 213.3,-226.49 217.8,-221.12"/>
</g>
<!-- Node13 -->
<g id="node13" class="node">
<title>Node13</title>
<g id="a_node13"><a xlink:href="class_ogre_1_1_high_level_gpu_program_manager.html" target="_top" xlink:title="This ResourceManager manages high&#45;level vertex and fragment programs.">
<polygon fill="white" stroke="#666666" points="435.5,-264.5 294.5,-264.5 294.5,-234.5 435.5,-234.5 435.5,-264.5"/>
<text text-anchor="start" x="302.5" y="-252.5" font-family="Helvetica,sans-Serif" font-size="10.00">Ogre::HighLevelGpuProgram</text>
<text text-anchor="middle" x="365" y="-241.5" font-family="Helvetica,sans-Serif" font-size="10.00">Manager</text>
</a>
</g>
</g>
<!-- Node1&#45;&gt;Node13 -->
<g id="edge12" class="edge">
<title>Node1&#45;&gt;Node13</title>
<path fill="none" stroke="#63b8ff" d="M245.51,-219.26C263.67,-223.9 284.37,-229.18 303.35,-234.02"/>
<polygon fill="#63b8ff" stroke="#63b8ff" points="246.6,-215.93 236.05,-216.85 244.87,-222.71 246.6,-215.93"/>
</g>
<!-- Node14 -->
<g id="node14" class="node">
<title>Node14</title>
<g id="a_node14"><a xlink:href="class_ogre_1_1_material_manager.html" target="_top" xlink:title="Class for managing Material settings for Ogre.">
<polygon fill="white" stroke="#666666" points="422,-216 308,-216 308,-197 422,-197 422,-216"/>
<text text-anchor="middle" x="365" y="-204" font-family="Helvetica,sans-Serif" font-size="10.00">Ogre::MaterialManager</text>
</a>
</g>
</g>
<!-- Node1&#45;&gt;Node14 -->
<g id="edge13" class="edge">
<title>Node1&#45;&gt;Node14</title>
<path fill="none" stroke="#63b8ff" d="M266.73,-206.5C280.41,-206.5 294.56,-206.5 307.69,-206.5"/>
<polygon fill="#63b8ff" stroke="#63b8ff" points="266.89,-203 256.89,-206.5 266.89,-210 266.89,-203"/>
</g>
<!-- Node15 -->
<g id="node15" class="node">
<title>Node15</title>
<g id="a_node15"><a xlink:href="class_ogre_1_1_mesh_manager.html" target="_top" xlink:title="Handles the management of mesh resources.">
<polygon fill="white" stroke="#666666" points="417,-179 313,-179 313,-160 417,-160 417,-179"/>
<text text-anchor="middle" x="365" y="-167" font-family="Helvetica,sans-Serif" font-size="10.00">Ogre::MeshManager</text>
</a>
</g>
</g>
<!-- Node1&#45;&gt;Node15 -->
<g id="edge14" class="edge">
<title>Node1&#45;&gt;Node15</title>
<path fill="none" stroke="#63b8ff" d="M251.75,-194.15C273.53,-189.37 298.12,-183.97 318.72,-179.44"/>
<polygon fill="#63b8ff" stroke="#63b8ff" points="251.15,-190.7 242.13,-196.26 252.65,-197.53 251.15,-190.7"/>
</g>
<!-- Node16 -->
<g id="node16" class="node">
<title>Node16</title>
<g id="a_node16"><a xlink:href="class_ogre_1_1_texture_manager.html" target="_top" xlink:title="Class for loading &amp; managing textures.">
<polygon fill="white" stroke="#666666" points="421,-142 309,-142 309,-123 421,-123 421,-142"/>
<text text-anchor="middle" x="365" y="-130" font-family="Helvetica,sans-Serif" font-size="10.00">Ogre::TextureManager</text>
</a>
</g>
</g>
<!-- Node1&#45;&gt;Node16 -->
<g id="edge15" class="edge">
<title>Node1&#45;&gt;Node16</title>
<path fill="none" stroke="#63b8ff" d="M218.86,-190.21C237.61,-177.79 265.01,-161.06 291,-150.5 298.62,-147.4 306.91,-144.74 315.08,-142.49"/>
<polygon fill="#63b8ff" stroke="#63b8ff" points="216.97,-187.26 210.65,-195.76 220.89,-193.06 216.97,-187.26"/>
</g>
<!-- Node23 -->
<g id="node23" class="node">
<title>Node23</title>
<g id="a_node23"><a xlink:href="class_ogre_1_1v1_1_1_mesh_manager.html" target="_top" xlink:title="Handles the management of mesh resources.">
<polygon fill="white" stroke="#666666" points="424.5,-105 305.5,-105 305.5,-86 424.5,-86 424.5,-105"/>
<text text-anchor="middle" x="365" y="-93" font-family="Helvetica,sans-Serif" font-size="10.00">Ogre::v1::MeshManager</text>
</a>
</g>
</g>
<!-- Node1&#45;&gt;Node23 -->
<g id="edge22" class="edge">
<title>Node1&#45;&gt;Node23</title>
<path fill="none" stroke="#63b8ff" d="M209.71,-187.58C226.69,-166.32 257.12,-132.32 291,-113.5 296.82,-110.27 303.22,-107.61 309.73,-105.42"/>
<polygon fill="#63b8ff" stroke="#63b8ff" points="206.99,-185.37 203.61,-195.42 212.51,-189.67 206.99,-185.37"/>
</g>
<!-- Node24 -->
<g id="node24" class="node">
<title>Node24</title>
<g id="a_node24"><a xlink:href="class_ogre_1_1v1_1_1_old_skeleton_manager.html" target="_top" xlink:title="Handles the management of skeleton resources.">
<polygon fill="white" stroke="#666666" points="439,-68 291,-68 291,-49 439,-49 439,-68"/>
<text text-anchor="middle" x="365" y="-56" font-family="Helvetica,sans-Serif" font-size="10.00">Ogre::v1::OldSkeletonManager</text>
</a>
</g>
</g>
<!-- Node1&#45;&gt;Node24 -->
<g id="edge23" class="edge">
<title>Node1&#45;&gt;Node24</title>
<path fill="none" stroke="#63b8ff" d="M204.65,-186.39C218.88,-157.46 249.08,-104.54 291,-76.5 295.88,-73.23 301.3,-70.56 306.92,-68.37"/>
<polygon fill="#63b8ff" stroke="#63b8ff" points="201.62,-184.62 200.49,-195.15 207.94,-187.62 201.62,-184.62"/>
</g>
<!-- Node2 -->
<g id="node2" class="node">
<title>Node2</title>
<g id="a_node2"><a xlink:href="class_ogre_1_1_script_loader.html" target="_top" xlink:title="Abstract class defining the interface used by classes which wish to perform script loading to define ...">
<polygon fill="white" stroke="#666666" points="98,-235 0,-235 0,-216 98,-216 98,-235"/>
<text text-anchor="middle" x="49" y="-223" font-family="Helvetica,sans-Serif" font-size="10.00">Ogre::ScriptLoader</text>
</a>
</g>
</g>
<!-- Node2&#45;&gt;Node1 -->
<g id="edge1" class="edge">
<title>Node2&#45;&gt;Node1</title>
<path fill="none" stroke="#63b8ff" d="M109.37,-217.64C117.41,-216.57 125.67,-215.48 133.72,-214.42"/>
<polygon fill="#63b8ff" stroke="#63b8ff" points="109.14,-214.14 99.68,-218.92 110.06,-221.08 109.14,-214.14"/>
</g>
<!-- Node3 -->
<g id="node3" class="node">
<title>Node3</title>
<g id="a_node3"><a xlink:href="class_ogre_1_1_allocated_object.html" target="_top" xlink:title="Superclass for all objects that wish to use custom memory allocators when their new / delete operator...">
<polygon fill="white" stroke="#666666" points="89,-198 9,-198 9,-179 89,-179 89,-198"/>
<text text-anchor="middle" x="49" y="-186" font-family="Helvetica,sans-Serif" font-size="10.00">ResourceAlloc</text>
</a>
</g>
</g>
<!-- Node3&#45;&gt;Node1 -->
<g id="edge2" class="edge">
<title>Node3&#45;&gt;Node1</title>
<path fill="none" stroke="#63b8ff" d="M100.5,-194.83C111.19,-196.18 122.58,-197.6 133.59,-198.99"/>
<polygon fill="#63b8ff" stroke="#63b8ff" points="101.07,-191.38 90.71,-193.61 100.2,-198.32 101.07,-191.38"/>
</g>
<!-- Node7 -->
<g id="node7" class="node">
<title>Node7</title>
<g id="a_node7"><a xlink:href="class_ogre_1_1_d3_d11_gpu_program_manager.html" target="_top" xlink:title=" ">
<polygon fill="white" stroke="#666666" points="640,-426 476,-426 476,-407 640,-407 640,-426"/>
<text text-anchor="middle" x="558" y="-414" font-family="Helvetica,sans-Serif" font-size="10.00">Ogre::D3D11GpuProgramManager</text>
</a>
</g>
</g>
<!-- Node6&#45;&gt;Node7 -->
<g id="edge6" class="edge">
<title>Node6&#45;&gt;Node7</title>
<path fill="none" stroke="#63b8ff" d="M434.41,-307.93C436.01,-309.04 437.54,-310.23 439,-311.5 470.56,-338.98 442.92,-371.63 475,-398.5 478.8,-401.68 483.04,-404.34 487.53,-406.55"/>
<polygon fill="#63b8ff" stroke="#63b8ff" points="436.43,-305.05 426.01,-303.14 432.96,-311.13 436.43,-305.05"/>
</g>
<!-- Node8 -->
<g id="node8" class="node">
<title>Node8</title>
<g id="a_node8"><a xlink:href="class_ogre_1_1_d3_d9_gpu_program_manager.html" target="_top" xlink:title=" ">
<polygon fill="white" stroke="#666666" points="637,-389 479,-389 479,-370 637,-370 637,-389"/>
<text text-anchor="middle" x="558" y="-377" font-family="Helvetica,sans-Serif" font-size="10.00">Ogre::D3D9GpuProgramManager</text>
</a>
</g>
</g>
<!-- Node6&#45;&gt;Node8 -->
<g id="edge7" class="edge">
<title>Node6&#45;&gt;Node8</title>
<path fill="none" stroke="#63b8ff" d="M431.56,-307.04C434.14,-308.4 436.64,-309.88 439,-311.5 461.59,-326.98 452.12,-346.46 475,-361.5 479.87,-364.7 485.22,-367.34 490.79,-369.52"/>
<polygon fill="#63b8ff" stroke="#63b8ff" points="433.18,-303.93 422.62,-303.04 430.32,-310.32 433.18,-303.93"/>
</g>
<!-- Node9 -->
<g id="node9" class="node">
<title>Node9</title>
<g id="a_node9"><a xlink:href="class_ogre_1_1_g_l_e_s2_gpu_program_manager.html" target="_top" xlink:title=" ">
<polygon fill="white" stroke="#666666" points="641,-352 475,-352 475,-333 641,-333 641,-352"/>
<text text-anchor="middle" x="558" y="-340" font-family="Helvetica,sans-Serif" font-size="10.00">Ogre::GLES2GpuProgramManager</text>
</a>
</g>
</g>
<!-- Node6&#45;&gt;Node9 -->
<g id="edge8" class="edge">
<title>Node6&#45;&gt;Node9</title>
<path fill="none" stroke="#63b8ff" d="M418.08,-305.43C425.14,-307.36 432.27,-309.41 439,-311.5 455.25,-316.54 458.66,-319.78 475,-324.5 485.22,-327.45 496.28,-330.19 506.87,-332.58"/>
<polygon fill="#63b8ff" stroke="#63b8ff" points="419.14,-302.09 408.58,-302.89 417.33,-308.85 419.14,-302.09"/>
</g>
<!-- Node10 -->
<g id="node10" class="node">
<title>Node10</title>
<g id="a_node10"><a xlink:href="class_ogre_1_1_g_l_s_l_shader_manager.html" target="_top" xlink:title=" ">
<polygon fill="white" stroke="#666666" points="626.5,-315 489.5,-315 489.5,-296 626.5,-296 626.5,-315"/>
<text text-anchor="middle" x="558" y="-303" font-family="Helvetica,sans-Serif" font-size="10.00">Ogre::GLSLShaderManager</text>
</a>
</g>
</g>
<!-- Node6&#45;&gt;Node10 -->
<g id="edge9" class="edge">
<title>Node6&#45;&gt;Node10</title>
<path fill="none" stroke="#63b8ff" d="M443.67,-297.79C458.77,-298.81 474.48,-299.88 489.23,-300.89"/>
<polygon fill="#63b8ff" stroke="#63b8ff" points="443.99,-294.3 433.78,-297.11 443.52,-301.28 443.99,-294.3"/>
</g>
<!-- Node11 -->
<g id="node11" class="node">
<title>Node11</title>
<g id="a_node11"><a xlink:href="class_ogre_1_1_metal_gpu_program_manager.html" target="_top" xlink:title=" ">
<polygon fill="white" stroke="#666666" points="637,-278 479,-278 479,-259 637,-259 637,-278"/>
<text text-anchor="middle" x="558" y="-266" font-family="Helvetica,sans-Serif" font-size="10.00">Ogre::MetalGpuProgramManager</text>
</a>
</g>
</g>
<!-- Node6&#45;&gt;Node11 -->
<g id="edge10" class="edge">
<title>Node6&#45;&gt;Node11</title>
<path fill="none" stroke="#63b8ff" d="M443.67,-282.74C455.22,-281.29 467.14,-279.79 478.7,-278.34"/>
<polygon fill="#63b8ff" stroke="#63b8ff" points="443.25,-279.27 433.77,-283.98 444.13,-286.21 443.25,-279.27"/>
</g>
<!-- Node12 -->
<g id="node12" class="node">
<title>Node12</title>
<g id="a_node12"><a xlink:href="class_ogre_1_1_vulkan_gpu_program_manager.html" target="_top" xlink:title=" ">
<polygon fill="white" stroke="#666666" points="640,-241 476,-241 476,-222 640,-222 640,-241"/>
<text text-anchor="middle" x="558" y="-229" font-family="Helvetica,sans-Serif" font-size="10.00">Ogre::VulkanGpuProgramManager</text>
</a>
</g>
</g>
<!-- Node6&#45;&gt;Node12 -->
<g id="edge11" class="edge">
<title>Node6&#45;&gt;Node12</title>
<path fill="none" stroke="#63b8ff" d="M423.81,-279.27C429.02,-277.54 434.15,-275.62 439,-273.5 456.4,-265.9 457.5,-257.86 475,-250.5 483.62,-246.87 493.06,-243.87 502.36,-241.41"/>
<polygon fill="#63b8ff" stroke="#63b8ff" points="423.05,-275.84 414.53,-282.13 425.11,-282.53 423.05,-275.84"/>
</g>
<!-- Node17 -->
<g id="node17" class="node">
<title>Node17</title>
<g id="a_node17"><a xlink:href="class_ogre_1_1_d3_d11_texture_manager.html" target="_top" xlink:title=" ">
<polygon fill="white" stroke="#666666" points="628.5,-204 487.5,-204 487.5,-185 628.5,-185 628.5,-204"/>
<text text-anchor="middle" x="558" y="-192" font-family="Helvetica,sans-Serif" font-size="10.00">Ogre::D3D11TextureManager</text>
</a>
</g>
</g>
<!-- Node16&#45;&gt;Node17 -->
<g id="edge16" class="edge">
<title>Node16&#45;&gt;Node17</title>
<path fill="none" stroke="#63b8ff" d="M427.37,-145.86C431.36,-147.27 435.27,-148.82 439,-150.5 456.75,-158.52 457.19,-167.6 475,-175.5 483.15,-179.11 492.07,-182.08 500.93,-184.51"/>
<polygon fill="#63b8ff" stroke="#63b8ff" points="428.72,-142.62 418.13,-142.9 426.58,-149.29 428.72,-142.62"/>
</g>
<!-- Node18 -->
<g id="node18" class="node">
<title>Node18</title>
<g id="a_node18"><a xlink:href="class_ogre_1_1_d3_d9_texture_manager.html" target="_top" xlink:title=" ">
<polygon fill="white" stroke="#666666" points="626,-167 490,-167 490,-148 626,-148 626,-167"/>
<text text-anchor="middle" x="558" y="-155" font-family="Helvetica,sans-Serif" font-size="10.00">Ogre::D3D9TextureManager</text>
</a>
</g>
</g>
<!-- Node16&#45;&gt;Node18 -->
<g id="edge17" class="edge">
<title>Node16&#45;&gt;Node18</title>
<path fill="none" stroke="#63b8ff" d="M432.53,-141.21C451.03,-143.63 471.14,-146.26 489.68,-148.69"/>
<polygon fill="#63b8ff" stroke="#63b8ff" points="433.12,-137.75 422.75,-139.93 432.21,-144.7 433.12,-137.75"/>
</g>
<!-- Node19 -->
<g id="node19" class="node">
<title>Node19</title>
<g id="a_node19"><a xlink:href="class_ogre_1_1_g_l3_plus_texture_manager.html" target="_top" xlink:title="GL3Plus&#45;specific implementation of a TextureManager.">
<polygon fill="white" stroke="#666666" points="633,-130 483,-130 483,-111 633,-111 633,-130"/>
<text text-anchor="middle" x="558" y="-118" font-family="Helvetica,sans-Serif" font-size="10.00">Ogre::GL3PlusTextureManager</text>
</a>
</g>
</g>
<!-- Node16&#45;&gt;Node19 -->
<g id="edge18" class="edge">
<title>Node16&#45;&gt;Node19</title>
<path fill="none" stroke="#63b8ff" d="M432.28,-128.34C448.55,-127.31 466.07,-126.21 482.69,-125.17"/>
<polygon fill="#63b8ff" stroke="#63b8ff" points="432.52,-124.81 422.76,-128.93 432.96,-131.8 432.52,-124.81"/>
</g>
<!-- Node20 -->
<g id="node20" class="node">
<title>Node20</title>
<g id="a_node20"><a xlink:href="class_ogre_1_1_g_l_e_s2_texture_manager.html" target="_top" xlink:title="GL ES&#45;specific implementation of a TextureManager.">
<polygon fill="white" stroke="#666666" points="629.5,-93 486.5,-93 486.5,-74 629.5,-74 629.5,-93"/>
<text text-anchor="middle" x="558" y="-81" font-family="Helvetica,sans-Serif" font-size="10.00">Ogre::GLES2TextureManager</text>
</a>
</g>
</g>
<!-- Node16&#45;&gt;Node20 -->
<g id="edge19" class="edge">
<title>Node16&#45;&gt;Node20</title>
<path fill="none" stroke="#63b8ff" d="M417.26,-119.62C424.58,-117.65 432,-115.58 439,-113.5 455.17,-108.71 458.74,-105.98 475,-101.5 485.54,-98.6 496.94,-95.85 507.79,-93.41"/>
<polygon fill="#63b8ff" stroke="#63b8ff" points="416.53,-116.2 407.76,-122.14 418.32,-122.96 416.53,-116.2"/>
</g>
<!-- Node21 -->
<g id="node21" class="node">
<title>Node21</title>
<g id="a_node21"><a xlink:href="class_ogre_1_1_metal_texture_manager.html" target="_top" xlink:title=" ">
<polygon fill="white" stroke="#666666" points="626,-56 490,-56 490,-37 626,-37 626,-56"/>
<text text-anchor="middle" x="558" y="-44" font-family="Helvetica,sans-Serif" font-size="10.00">Ogre::MetalTextureManager</text>
</a>
</g>
</g>
<!-- Node16&#45;&gt;Node21 -->
<g id="edge20" class="edge">
<title>Node16&#45;&gt;Node21</title>
<path fill="none" stroke="#63b8ff" d="M431.54,-117.93C434.13,-116.58 436.63,-115.11 439,-113.5 461.37,-98.33 452.35,-79.23 475,-64.5 480.01,-61.24 485.52,-58.57 491.24,-56.37"/>
<polygon fill="#63b8ff" stroke="#63b8ff" points="430.3,-114.65 422.59,-121.91 433.15,-121.04 430.3,-114.65"/>
</g>
<!-- Node22 -->
<g id="node22" class="node">
<title>Node22</title>
<g id="a_node22"><a xlink:href="class_ogre_1_1_n_u_l_l_texture_manager.html" target="_top" xlink:title=" ">
<polygon fill="white" stroke="#666666" points="627.5,-19 488.5,-19 488.5,0 627.5,0 627.5,-19"/>
<text text-anchor="middle" x="558" y="-7" font-family="Helvetica,sans-Serif" font-size="10.00">Ogre::NULLTextureManager</text>
</a>
</g>
</g>
<!-- Node16&#45;&gt;Node22 -->
<g id="edge21" class="edge">
<title>Node16&#45;&gt;Node22</title>
<path fill="none" stroke="#63b8ff" d="M431.49,-118.95C434.15,-117.33 436.67,-115.52 439,-113.5 470.3,-86.35 443.18,-54.04 475,-27.5 479.03,-24.14 483.55,-21.37 488.34,-19.09"/>
<polygon fill="#63b8ff" stroke="#63b8ff" points="430.1,-115.74 422.74,-123.35 433.25,-121.99 430.1,-115.74"/>
</g>
</g>
</svg>
