<?xml version="1.0" encoding="UTF-8" standalone="no"?>
<!DOCTYPE svg PUBLIC "-//W3C//DTD SVG 1.1//EN"
 "http://www.w3.org/Graphics/SVG/1.1/DTD/svg11.dtd">
<!-- Generated by graphviz version 7.0.5 (20221223.1930)
 -->
<!-- Title: Ogre::TextureGpu Pages: 1 -->
<svg width="961pt" height="245pt"
 viewBox="0.00 0.00 961.00 244.50" xmlns="http://www.w3.org/2000/svg" xmlns:xlink="http://www.w3.org/1999/xlink">
<g id="graph0" class="graph" transform="scale(1 1) rotate(0) translate(4 240.5)">
<title>Ogre::TextureGpu</title>
<!-- Node1 -->
<g id="node1" class="node">
<title>Node1</title>
<g id="a_node1"><a xlink:title=" ">
<polygon fill="#999999" stroke="#666666" points="381,-120.5 289,-120.5 289,-101.5 381,-101.5 381,-120.5"/>
<text text-anchor="middle" x="335" y="-108.5" font-family="Helvetica,sans-Serif" font-size="10.00">Ogre::TextureGpu</text>
</a>
</g>
</g>
<!-- Node5 -->
<g id="node5" class="node">
<title>Node5</title>
<g id="a_node5"><a xlink:href="class_ogre_1_1_d3_d11_texture_gpu.html" target="_top" xlink:title=" ">
<polygon fill="white" stroke="#666666" points="543.5,-214.5 421.5,-214.5 421.5,-195.5 543.5,-195.5 543.5,-214.5"/>
<text text-anchor="middle" x="482.5" y="-202.5" font-family="Helvetica,sans-Serif" font-size="10.00">Ogre::D3D11TextureGpu</text>
</a>
</g>
</g>
<!-- Node1&#45;&gt;Node5 -->
<g id="edge4" class="edge">
<title>Node1&#45;&gt;Node5</title>
<path fill="none" stroke="#63b8ff" d="M356.4,-127.92C372.37,-140.78 395.42,-158.49 417,-172 430.75,-180.61 447.03,-188.92 459.78,-195.05"/>
<polygon fill="#63b8ff" stroke="#63b8ff" points="359.02,-125.54 349.05,-121.94 354.6,-130.97 359.02,-125.54"/>
</g>
<!-- Node8 -->
<g id="node8" class="node">
<title>Node8</title>
<g id="a_node8"><a xlink:href="class_ogre_1_1_g_l3_plus_texture_gpu.html" target="_top" xlink:title=" ">
<polygon fill="white" stroke="#666666" points="548,-162.5 417,-162.5 417,-143.5 548,-143.5 548,-162.5"/>
<text text-anchor="middle" x="482.5" y="-150.5" font-family="Helvetica,sans-Serif" font-size="10.00">Ogre::GL3PlusTextureGpu</text>
</a>
</g>
</g>
<!-- Node1&#45;&gt;Node8 -->
<g id="edge7" class="edge">
<title>Node1&#45;&gt;Node8</title>
<path fill="none" stroke="#63b8ff" d="M381.49,-124.13C402.66,-130.24 427.42,-137.39 447.01,-143.05"/>
<polygon fill="#63b8ff" stroke="#63b8ff" points="382.51,-120.78 371.94,-121.37 380.57,-127.51 382.51,-120.78"/>
</g>
<!-- Node12 -->
<g id="node12" class="node">
<title>Node12</title>
<g id="a_node12"><a xlink:href="class_ogre_1_1_metal_texture_gpu.html" target="_top" xlink:title=" ">
<polygon fill="white" stroke="#666666" points="540.5,-120.5 424.5,-120.5 424.5,-101.5 540.5,-101.5 540.5,-120.5"/>
<text text-anchor="middle" x="482.5" y="-108.5" font-family="Helvetica,sans-Serif" font-size="10.00">Ogre::MetalTextureGpu</text>
</a>
</g>
</g>
<!-- Node1&#45;&gt;Node12 -->
<g id="edge11" class="edge">
<title>Node1&#45;&gt;Node12</title>
<path fill="none" stroke="#63b8ff" d="M392.68,-111C403.03,-111 413.84,-111 424.21,-111"/>
<polygon fill="#63b8ff" stroke="#63b8ff" points="392.75,-107.5 382.75,-111 392.75,-114.5 392.75,-107.5"/>
</g>
<!-- Node15 -->
<g id="node15" class="node">
<title>Node15</title>
<g id="a_node15"><a xlink:href="class_ogre_1_1_n_u_l_l_texture_gpu.html" target="_top" xlink:title=" ">
<polygon fill="white" stroke="#666666" points="542,-77.5 423,-77.5 423,-58.5 542,-58.5 542,-77.5"/>
<text text-anchor="middle" x="482.5" y="-65.5" font-family="Helvetica,sans-Serif" font-size="10.00">Ogre::NULLTextureGpu</text>
</a>
</g>
</g>
<!-- Node1&#45;&gt;Node15 -->
<g id="edge14" class="edge">
<title>Node1&#45;&gt;Node15</title>
<path fill="none" stroke="#63b8ff" d="M380.63,-97.81C402.23,-91.43 427.73,-83.89 447.68,-77.99"/>
<polygon fill="#63b8ff" stroke="#63b8ff" points="379.8,-94.41 371.2,-100.6 381.78,-101.12 379.8,-94.41"/>
</g>
<!-- Node17 -->
<g id="node17" class="node">
<title>Node17</title>
<g id="a_node17"><a xlink:href="class_ogre_1_1_vulkan_texture_gpu.html" target="_top" xlink:title=" ">
<polygon fill="white" stroke="#666666" points="543.5,-35.5 421.5,-35.5 421.5,-16.5 543.5,-16.5 543.5,-35.5"/>
<text text-anchor="middle" x="482.5" y="-23.5" font-family="Helvetica,sans-Serif" font-size="10.00">Ogre::VulkanTextureGpu</text>
</a>
</g>
</g>
<!-- Node1&#45;&gt;Node17 -->
<g id="edge16" class="edge">
<title>Node1&#45;&gt;Node17</title>
<path fill="none" stroke="#63b8ff" d="M354.54,-94.11C370.25,-80.49 393.85,-61.59 417,-49 426.5,-43.83 437.4,-39.43 447.5,-35.91"/>
<polygon fill="#63b8ff" stroke="#63b8ff" points="352.56,-91.18 347.4,-100.43 357.2,-96.42 352.56,-91.18"/>
</g>
<!-- Node2 -->
<g id="node2" class="node">
<title>Node2</title>
<g id="a_node2"><a xlink:href="struct_ogre_1_1_gpu_tracked_resource.html" target="_top" xlink:title=" ">
<polygon fill="white" stroke="#666666" points="253,-139.5 116,-139.5 116,-120.5 253,-120.5 253,-139.5"/>
<text text-anchor="middle" x="184.5" y="-127.5" font-family="Helvetica,sans-Serif" font-size="10.00">Ogre::GpuTrackedResource</text>
</a>
</g>
</g>
<!-- Node2&#45;&gt;Node1 -->
<g id="edge1" class="edge">
<title>Node2&#45;&gt;Node1</title>
<path fill="none" stroke="#63b8ff" d="M264.59,-119.88C272.91,-118.82 281.15,-117.76 288.89,-116.77"/>
<polygon fill="#63b8ff" stroke="#63b8ff" points="264.21,-116.4 254.73,-121.14 265.1,-123.34 264.21,-116.4"/>
</g>
<!-- Node3 -->
<g id="node3" class="node">
<title>Node3</title>
<g id="a_node3"><a xlink:href="class_ogre_1_1_gpu_resource.html" target="_top" xlink:title=" ">
<polygon fill="white" stroke="#666666" points="235,-102.5 134,-102.5 134,-83.5 235,-83.5 235,-102.5"/>
<text text-anchor="middle" x="184.5" y="-90.5" font-family="Helvetica,sans-Serif" font-size="10.00">Ogre::GpuResource</text>
</a>
</g>
</g>
<!-- Node3&#45;&gt;Node1 -->
<g id="edge2" class="edge">
<title>Node3&#45;&gt;Node1</title>
<path fill="none" stroke="#63b8ff" d="M246.46,-100.39C260.53,-102.09 275.25,-103.88 288.52,-105.49"/>
<polygon fill="#63b8ff" stroke="#63b8ff" points="247.21,-96.95 236.86,-99.23 246.37,-103.9 247.21,-96.95"/>
</g>
<!-- Node4 -->
<g id="node4" class="node">
<title>Node4</title>
<g id="a_node4"><a xlink:href="class_ogre_1_1_allocated_object.html" target="_top" xlink:title="Superclass for all objects that wish to use custom memory allocators when their new / delete operator...">
<polygon fill="white" stroke="#666666" points="80,-102.5 0,-102.5 0,-83.5 80,-83.5 80,-102.5"/>
<text text-anchor="middle" x="40" y="-90.5" font-family="Helvetica,sans-Serif" font-size="10.00">ResourceAlloc</text>
</a>
</g>
</g>
<!-- Node4&#45;&gt;Node3 -->
<g id="edge3" class="edge">
<title>Node4&#45;&gt;Node3</title>
<path fill="none" stroke="#63b8ff" d="M91.49,-93C105.17,-93 119.96,-93 133.6,-93"/>
<polygon fill="#63b8ff" stroke="#63b8ff" points="91.83,-89.5 81.83,-93 91.83,-96.5 91.83,-89.5"/>
</g>
<!-- Node6 -->
<g id="node6" class="node">
<title>Node6</title>
<g id="a_node6"><a xlink:href="class_ogre_1_1_d3_d11_texture_gpu_render_target.html" target="_top" xlink:title=" ">
<polygon fill="white" stroke="#666666" points="740.5,-235 588.5,-235 588.5,-205 740.5,-205 740.5,-235"/>
<text text-anchor="start" x="596.5" y="-223" font-family="Helvetica,sans-Serif" font-size="10.00">Ogre::D3D11TextureGpuRender</text>
<text text-anchor="middle" x="664.5" y="-212" font-family="Helvetica,sans-Serif" font-size="10.00">Target</text>
</a>
</g>
</g>
<!-- Node5&#45;&gt;Node6 -->
<g id="edge5" class="edge">
<title>Node5&#45;&gt;Node6</title>
<path fill="none" stroke="#63b8ff" d="M555.11,-210.97C565.99,-211.87 577.24,-212.81 588.19,-213.72"/>
<polygon fill="#63b8ff" stroke="#63b8ff" points="555.7,-207.5 545.45,-210.16 555.12,-214.48 555.7,-207.5"/>
</g>
<!-- Node7 -->
<g id="node7" class="node">
<title>Node7</title>
<g id="a_node7"><a xlink:href="class_ogre_1_1_d3_d11_texture_gpu_window.html" target="_top" xlink:title=" ">
<polygon fill="white" stroke="#666666" points="945,-236.5 789,-236.5 789,-217.5 945,-217.5 945,-236.5"/>
<text text-anchor="middle" x="867" y="-224.5" font-family="Helvetica,sans-Serif" font-size="10.00">Ogre::D3D11TextureGpuWindow</text>
</a>
</g>
</g>
<!-- Node6&#45;&gt;Node7 -->
<g id="edge6" class="edge">
<title>Node6&#45;&gt;Node7</title>
<path fill="none" stroke="#63b8ff" d="M751.87,-223.02C764.11,-223.44 776.63,-223.88 788.68,-224.3"/>
<polygon fill="#63b8ff" stroke="#63b8ff" points="752.36,-219.53 742.24,-222.68 752.11,-226.53 752.36,-219.53"/>
</g>
<!-- Node9 -->
<g id="node9" class="node">
<title>Node9</title>
<g id="a_node9"><a xlink:href="class_ogre_1_1_g_l3_plus_texture_gpu_render_target.html" target="_top" xlink:title=" ">
<polygon fill="white" stroke="#666666" points="745,-174 584,-174 584,-144 745,-144 745,-174"/>
<text text-anchor="start" x="592" y="-162" font-family="Helvetica,sans-Serif" font-size="10.00">Ogre::GL3PlusTextureGpuRender</text>
<text text-anchor="middle" x="664.5" y="-151" font-family="Helvetica,sans-Serif" font-size="10.00">Target</text>
</a>
</g>
</g>
<!-- Node8&#45;&gt;Node9 -->
<g id="edge8" class="edge">
<title>Node8&#45;&gt;Node9</title>
<path fill="none" stroke="#63b8ff" d="M559.84,-155.54C567.69,-155.81 575.67,-156.07 583.55,-156.34"/>
<polygon fill="#63b8ff" stroke="#63b8ff" points="560.11,-152.05 550,-155.22 559.87,-159.05 560.11,-152.05"/>
</g>
<!-- Node10 -->
<g id="node10" class="node">
<title>Node10</title>
<g id="a_node10"><a xlink:href="class_ogre_1_1_g_l3_plus_texture_gpu_headless_window.html" target="_top" xlink:title=" ">
<polygon fill="white" stroke="#666666" points="953,-199 781,-199 781,-169 953,-169 953,-199"/>
<text text-anchor="start" x="789" y="-187" font-family="Helvetica,sans-Serif" font-size="10.00">Ogre::GL3PlusTextureGpuHeadless</text>
<text text-anchor="middle" x="867" y="-176" font-family="Helvetica,sans-Serif" font-size="10.00">Window</text>
</a>
</g>
</g>
<!-- Node9&#45;&gt;Node10 -->
<g id="edge9" class="edge">
<title>Node9&#45;&gt;Node10</title>
<path fill="none" stroke="#63b8ff" d="M756.54,-170.35C764.53,-171.35 772.59,-172.35 780.53,-173.34"/>
<polygon fill="#63b8ff" stroke="#63b8ff" points="757.18,-166.9 746.82,-169.14 756.31,-173.85 757.18,-166.9"/>
</g>
<!-- Node11 -->
<g id="node11" class="node">
<title>Node11</title>
<g id="a_node11"><a xlink:href="class_ogre_1_1_g_l3_plus_texture_gpu_window.html" target="_top" xlink:title=" ">
<polygon fill="white" stroke="#666666" points="949.5,-150.5 784.5,-150.5 784.5,-131.5 949.5,-131.5 949.5,-150.5"/>
<text text-anchor="middle" x="867" y="-138.5" font-family="Helvetica,sans-Serif" font-size="10.00">Ogre::GL3PlusTextureGpuWindow</text>
</a>
</g>
</g>
<!-- Node9&#45;&gt;Node11 -->
<g id="edge10" class="edge">
<title>Node9&#45;&gt;Node11</title>
<path fill="none" stroke="#63b8ff" d="M756.49,-150.83C765.72,-150 775.04,-149.17 784.16,-148.35"/>
<polygon fill="#63b8ff" stroke="#63b8ff" points="756.47,-147.32 746.83,-151.7 757.1,-154.29 756.47,-147.32"/>
</g>
<!-- Node13 -->
<g id="node13" class="node">
<title>Node13</title>
<g id="a_node13"><a xlink:href="class_ogre_1_1_metal_texture_gpu_render_target.html" target="_top" xlink:title=" ">
<polygon fill="white" stroke="#666666" points="738,-126 591,-126 591,-96 738,-96 738,-126"/>
<text text-anchor="start" x="599" y="-114" font-family="Helvetica,sans-Serif" font-size="10.00">Ogre::MetalTextureGpuRender</text>
<text text-anchor="middle" x="664.5" y="-103" font-family="Helvetica,sans-Serif" font-size="10.00">Target</text>
</a>
</g>
</g>
<!-- Node12&#45;&gt;Node13 -->
<g id="edge12" class="edge">
<title>Node12&#45;&gt;Node13</title>
<path fill="none" stroke="#63b8ff" d="M552.31,-111C564.9,-111 578.08,-111 590.78,-111"/>
<polygon fill="#63b8ff" stroke="#63b8ff" points="552.46,-107.5 542.46,-111 552.46,-114.5 552.46,-107.5"/>
</g>
<!-- Node14 -->
<g id="node14" class="node">
<title>Node14</title>
<g id="a_node14"><a xlink:href="class_ogre_1_1_metal_texture_gpu_window.html" target="_top" xlink:title=" ">
<polygon fill="white" stroke="#666666" points="942.5,-113.5 791.5,-113.5 791.5,-94.5 942.5,-94.5 942.5,-113.5"/>
<text text-anchor="middle" x="867" y="-101.5" font-family="Helvetica,sans-Serif" font-size="10.00">Ogre::MetalTextureGpuWindow</text>
</a>
</g>
</g>
<!-- Node13&#45;&gt;Node14 -->
<g id="edge13" class="edge">
<title>Node13&#45;&gt;Node14</title>
<path fill="none" stroke="#63b8ff" d="M749.84,-108.06C763.53,-107.58 777.63,-107.09 791.08,-106.62"/>
<polygon fill="#63b8ff" stroke="#63b8ff" points="749.84,-104.55 739.96,-108.4 750.08,-111.55 749.84,-104.55"/>
</g>
<!-- Node16 -->
<g id="node16" class="node">
<title>Node16</title>
<g id="a_node16"><a xlink:href="class_ogre_1_1_n_u_l_l_texture_gpu_render_target.html" target="_top" xlink:title=" ">
<polygon fill="white" stroke="#666666" points="739.5,-78 589.5,-78 589.5,-48 739.5,-48 739.5,-78"/>
<text text-anchor="start" x="597.5" y="-66" font-family="Helvetica,sans-Serif" font-size="10.00">Ogre::NULLTextureGpuRender</text>
<text text-anchor="middle" x="664.5" y="-55" font-family="Helvetica,sans-Serif" font-size="10.00">Target</text>
</a>
</g>
</g>
<!-- Node15&#45;&gt;Node16 -->
<g id="edge15" class="edge">
<title>Node15&#45;&gt;Node16</title>
<path fill="none" stroke="#63b8ff" d="M553.88,-66.04C565.51,-65.72 577.59,-65.39 589.3,-65.06"/>
<polygon fill="#63b8ff" stroke="#63b8ff" points="553.85,-62.54 543.95,-66.32 554.05,-69.54 553.85,-62.54"/>
</g>
<!-- Node18 -->
<g id="node18" class="node">
<title>Node18</title>
<g id="a_node18"><a xlink:href="class_ogre_1_1_vulkan_texture_gpu_render_target.html" target="_top" xlink:title=" ">
<polygon fill="white" stroke="#666666" points="741,-30 588,-30 588,0 741,0 741,-30"/>
<text text-anchor="start" x="596" y="-18" font-family="Helvetica,sans-Serif" font-size="10.00">Ogre::VulkanTextureGpuRender</text>
<text text-anchor="middle" x="664.5" y="-7" font-family="Helvetica,sans-Serif" font-size="10.00">Target</text>
</a>
</g>
</g>
<!-- Node17&#45;&gt;Node18 -->
<g id="edge17" class="edge">
<title>Node17&#45;&gt;Node18</title>
<path fill="none" stroke="#63b8ff" d="M555.29,-21.61C565.9,-20.96 576.86,-20.29 587.56,-19.64"/>
<polygon fill="#63b8ff" stroke="#63b8ff" points="555.22,-18.11 545.45,-22.21 555.64,-25.1 555.22,-18.11"/>
</g>
<!-- Node19 -->
<g id="node19" class="node">
<title>Node19</title>
<g id="a_node19"><a xlink:href="class_ogre_1_1_vulkan_texture_gpu_window.html" target="_top" xlink:title=" ">
<polygon fill="white" stroke="#666666" points="945.5,-24.5 788.5,-24.5 788.5,-5.5 945.5,-5.5 945.5,-24.5"/>
<text text-anchor="middle" x="867" y="-12.5" font-family="Helvetica,sans-Serif" font-size="10.00">Ogre::VulkanTextureGpuWindow</text>
</a>
</g>
</g>
<!-- Node18&#45;&gt;Node19 -->
<g id="edge18" class="edge">
<title>Node18&#45;&gt;Node19</title>
<path fill="none" stroke="#63b8ff" d="M752.54,-15C764.37,-15 776.44,-15 788.09,-15"/>
<polygon fill="#63b8ff" stroke="#63b8ff" points="752.81,-11.5 742.81,-15 752.81,-18.5 752.81,-11.5"/>
</g>
</g>
</svg>
