<?xml version="1.0" encoding="UTF-8" standalone="no"?>
<!DOCTYPE svg PUBLIC "-//W3C//DTD SVG 1.1//EN"
 "http://www.w3.org/Graphics/SVG/1.1/DTD/svg11.dtd">
<!-- Generated by graphviz version 7.0.5 (20221223.1930)
 -->
<!-- Title: Ogre::AsyncTicket Pages: 1 -->
<svg width="396pt" height="212pt"
 viewBox="0.00 0.00 396.00 212.00" xmlns="http://www.w3.org/2000/svg" xmlns:xlink="http://www.w3.org/1999/xlink">
<g id="graph0" class="graph" transform="scale(1 1) rotate(0) translate(4 208)">
<title>Ogre::AsyncTicket</title>
<!-- Node1 -->
<g id="node1" class="node">
<title>Node1</title>
<g id="a_node1"><a xlink:title="In Ogre 2.0 data structures, reading data from GPU back to CPU is asynchronous.">
<polygon fill="#999999" stroke="#666666" points="218,-111 122,-111 122,-92 218,-92 218,-111"/>
<text text-anchor="middle" x="170" y="-99" font-family="Helvetica,sans-Serif" font-size="10.00">Ogre::AsyncTicket</text>
</a>
</g>
</g>
<!-- Node3 -->
<g id="node3" class="node">
<title>Node3</title>
<g id="a_node3"><a xlink:href="class_ogre_1_1_d3_d11_async_ticket.html" target="_top" xlink:title=" ">
<polygon fill="white" stroke="#666666" points="383.5,-204 258.5,-204 258.5,-185 383.5,-185 383.5,-204"/>
<text text-anchor="middle" x="321" y="-192" font-family="Helvetica,sans-Serif" font-size="10.00">Ogre::D3D11AsyncTicket</text>
</a>
</g>
</g>
<!-- Node1&#45;&gt;Node3 -->
<g id="edge2" class="edge">
<title>Node1&#45;&gt;Node3</title>
<path fill="none" stroke="#63b8ff" d="M186.65,-119.93C202.11,-136.99 227.26,-161.87 254,-176.5 259.84,-179.69 266.28,-182.35 272.78,-184.55"/>
<polygon fill="#63b8ff" stroke="#63b8ff" points="189.35,-117.7 180.12,-112.5 184.1,-122.32 189.35,-117.7"/>
</g>
<!-- Node4 -->
<g id="node4" class="node">
<title>Node4</title>
<g id="a_node4"><a xlink:href="class_ogre_1_1_g_l3_plus_async_ticket.html" target="_top" xlink:title=" ">
<polygon fill="white" stroke="#666666" points="388,-167 254,-167 254,-148 388,-148 388,-167"/>
<text text-anchor="middle" x="321" y="-155" font-family="Helvetica,sans-Serif" font-size="10.00">Ogre::GL3PlusAsyncTicket</text>
</a>
</g>
</g>
<!-- Node1&#45;&gt;Node4 -->
<g id="edge3" class="edge">
<title>Node1&#45;&gt;Node4</title>
<path fill="none" stroke="#63b8ff" d="M200.52,-116.44C216.16,-123.99 235.84,-132.92 254,-139.5 262.15,-142.46 271.02,-145.19 279.53,-147.59"/>
<polygon fill="#63b8ff" stroke="#63b8ff" points="202.29,-113.41 191.77,-112.15 199.21,-119.69 202.29,-113.41"/>
</g>
<!-- Node5 -->
<g id="node5" class="node">
<title>Node5</title>
<g id="a_node5"><a xlink:href="class_ogre_1_1_g_l_e_s2_async_ticket.html" target="_top" xlink:title=" ">
<polygon fill="white" stroke="#666666" points="385,-130 257,-130 257,-111 385,-111 385,-130"/>
<text text-anchor="middle" x="321" y="-118" font-family="Helvetica,sans-Serif" font-size="10.00">Ogre::GLES2AsyncTicket</text>
</a>
</g>
</g>
<!-- Node1&#45;&gt;Node5 -->
<g id="edge4" class="edge">
<title>Node1&#45;&gt;Node5</title>
<path fill="none" stroke="#63b8ff" d="M229.56,-108.97C238.42,-110.1 247.59,-111.27 256.54,-112.41"/>
<polygon fill="#63b8ff" stroke="#63b8ff" points="230.01,-105.5 219.65,-107.7 229.12,-112.44 230.01,-105.5"/>
</g>
<!-- Node6 -->
<g id="node6" class="node">
<title>Node6</title>
<g id="a_node6"><a xlink:href="class_ogre_1_1_metal_async_ticket.html" target="_top" xlink:title=" ">
<polygon fill="white" stroke="#666666" points="381,-93 261,-93 261,-74 381,-74 381,-93"/>
<text text-anchor="middle" x="321" y="-81" font-family="Helvetica,sans-Serif" font-size="10.00">Ogre::MetalAsyncTicket</text>
</a>
</g>
</g>
<!-- Node1&#45;&gt;Node6 -->
<g id="edge5" class="edge">
<title>Node1&#45;&gt;Node6</title>
<path fill="none" stroke="#63b8ff" d="M229.46,-94.44C239.68,-93.2 250.33,-91.92 260.58,-90.68"/>
<polygon fill="#63b8ff" stroke="#63b8ff" points="229.16,-90.95 219.65,-95.62 229.99,-97.9 229.16,-90.95"/>
</g>
<!-- Node7 -->
<g id="node7" class="node">
<title>Node7</title>
<g id="a_node7"><a xlink:href="class_ogre_1_1_n_u_l_l_async_ticket.html" target="_top" xlink:title=" ">
<polygon fill="white" stroke="#666666" points="382.5,-56 259.5,-56 259.5,-37 382.5,-37 382.5,-56"/>
<text text-anchor="middle" x="321" y="-44" font-family="Helvetica,sans-Serif" font-size="10.00">Ogre::NULLAsyncTicket</text>
</a>
</g>
</g>
<!-- Node1&#45;&gt;Node7 -->
<g id="edge6" class="edge">
<title>Node1&#45;&gt;Node7</title>
<path fill="none" stroke="#63b8ff" d="M200.88,-86.85C216.47,-79.54 236.01,-70.92 254,-64.5 262.17,-61.59 271.04,-58.87 279.56,-56.48"/>
<polygon fill="#63b8ff" stroke="#63b8ff" points="199.67,-83.55 192.14,-91 202.68,-89.87 199.67,-83.55"/>
</g>
<!-- Node8 -->
<g id="node8" class="node">
<title>Node8</title>
<g id="a_node8"><a xlink:href="class_ogre_1_1_vulkan_async_ticket.html" target="_top" xlink:title=" ">
<polygon fill="white" stroke="#666666" points="384,-19 258,-19 258,0 384,0 384,-19"/>
<text text-anchor="middle" x="321" y="-7" font-family="Helvetica,sans-Serif" font-size="10.00">Ogre::VulkanAsyncTicket</text>
</a>
</g>
</g>
<!-- Node1&#45;&gt;Node8 -->
<g id="edge7" class="edge">
<title>Node1&#45;&gt;Node8</title>
<path fill="none" stroke="#63b8ff" d="M186.96,-83.05C202.47,-66.23 227.51,-41.87 254,-27.5 259.85,-24.33 266.29,-21.68 272.8,-19.48"/>
<polygon fill="#63b8ff" stroke="#63b8ff" points="184.45,-80.6 180.38,-90.39 189.66,-85.28 184.45,-80.6"/>
</g>
<!-- Node2 -->
<g id="node2" class="node">
<title>Node2</title>
<g id="a_node2"><a xlink:href="class_ogre_1_1_allocated_object.html" target="_top" xlink:title="Superclass for all objects that wish to use custom memory allocators when their new / delete operator...">
<polygon fill="white" stroke="#666666" points="86,-111 0,-111 0,-92 86,-92 86,-111"/>
<text text-anchor="middle" x="43" y="-99" font-family="Helvetica,sans-Serif" font-size="10.00">RenderSysAlloc</text>
</a>
</g>
</g>
<!-- Node2&#45;&gt;Node1 -->
<g id="edge1" class="edge">
<title>Node2&#45;&gt;Node1</title>
<path fill="none" stroke="#63b8ff" d="M97.73,-101.5C105.66,-101.5 113.78,-101.5 121.56,-101.5"/>
<polygon fill="#63b8ff" stroke="#63b8ff" points="97.83,-98 87.83,-101.5 97.83,-105 97.83,-98"/>
</g>
</g>
</svg>
