<?xml version="1.0" encoding="UTF-8" standalone="no"?>
<!DOCTYPE svg PUBLIC "-//W3C//DTD SVG 1.1//EN"
 "http://www.w3.org/Graphics/SVG/1.1/DTD/svg11.dtd">
<!-- Generated by graphviz version 9.0.0 (20230911.1827)
 -->
<!-- Title: Graphical Class Hierarchy Pages: 1 -->
<svg width="321pt" height="382pt"
 viewBox="0.00 0.00 321.25 381.50" xmlns="http://www.w3.org/2000/svg" xmlns:xlink="http://www.w3.org/1999/xlink">
<g id="graph0" class="graph" transform="scale(1 1) rotate(0) translate(4 377.5)">
<title>Graphical Class Hierarchy</title>
<!-- Node0 -->
<g id="Node000000" class="node">
<title>Node0</title>
<g id="a_Node000000"><a xlink:href="class_ogre_1_1_vulkan_delayed_func_base.html" target="_top" xlink:title=" ">
<polygon fill="white" stroke="#666666" points="150.25,-195.88 0,-195.88 0,-176.62 150.25,-176.62 150.25,-195.88"/>
<text text-anchor="middle" x="75.12" y="-182.38" font-family="Helvetica,sans-Serif" font-size="10.00">Ogre::VulkanDelayedFuncBase</text>
</a>
</g>
</g>
<!-- Node1 -->
<g id="Node000001" class="node">
<title>Node1</title>
<g id="a_Node000001"><a xlink:href="class_ogre_1_1_vulkan_delayed__vk_destroy_buffer_view.html" target="_top" xlink:title=" ">
<polygon fill="white" stroke="#666666" points="305.75,-373.5 193.75,-373.5 193.75,-343 305.75,-343 305.75,-373.5"/>
<text text-anchor="start" x="201.75" y="-360" font-family="Helvetica,sans-Serif" font-size="10.00">Ogre::VulkanDelayed</text>
<text text-anchor="middle" x="249.75" y="-348.75" font-family="Helvetica,sans-Serif" font-size="10.00">_vkDestroyBufferView</text>
</a>
</g>
</g>
<!-- Node0&#45;&gt;Node1 -->
<g id="edge1420_Node000000_Node000001" class="edge">
<title>Node0&#45;&gt;Node1</title>
<g id="a_edge1420_Node000000_Node000001"><a xlink:title=" ">
<path fill="none" stroke="#63b8ff" d="M86.46,-206.39C103.38,-237.57 139.82,-297.65 186.25,-333.25 190.89,-336.81 196.1,-339.93 201.48,-342.65"/>
<polygon fill="#63b8ff" stroke="#63b8ff" points="89.6,-204.85 81.83,-197.65 83.41,-208.12 89.6,-204.85"/>
</a>
</g>
</g>
<!-- Node2 -->
<g id="Node000002" class="node">
<title>Node2</title>
<g id="a_Node000002"><a xlink:href="class_ogre_1_1_vulkan_delayed__vk_destroy_framebuffer.html" target="_top" xlink:title=" ">
<polygon fill="white" stroke="#666666" points="308,-324.5 191.5,-324.5 191.5,-294 308,-294 308,-324.5"/>
<text text-anchor="start" x="199.5" y="-311" font-family="Helvetica,sans-Serif" font-size="10.00">Ogre::VulkanDelayed</text>
<text text-anchor="middle" x="249.75" y="-299.75" font-family="Helvetica,sans-Serif" font-size="10.00">_vkDestroyFramebuffer</text>
</a>
</g>
</g>
<!-- Node0&#45;&gt;Node2 -->
<g id="edge1421_Node000000_Node000002" class="edge">
<title>Node0&#45;&gt;Node2</title>
<g id="a_edge1421_Node000000_Node000002"><a xlink:title=" ">
<path fill="none" stroke="#63b8ff" d="M92.62,-204.35C112.93,-225.76 149.3,-261.4 186.25,-284.25 191.82,-287.69 197.94,-290.82 204.11,-293.62"/>
<polygon fill="#63b8ff" stroke="#63b8ff" points="95.36,-202.15 85.98,-197.22 90.24,-206.92 95.36,-202.15"/>
</a>
</g>
</g>
<!-- Node3 -->
<g id="Node000003" class="node">
<title>Node3</title>
<g id="a_Node000003"><a xlink:href="class_ogre_1_1_vulkan_delayed__vk_destroy_image.html" target="_top" xlink:title=" ">
<polygon fill="white" stroke="#666666" points="302.75,-275.5 196.75,-275.5 196.75,-245 302.75,-245 302.75,-275.5"/>
<text text-anchor="start" x="204.75" y="-262" font-family="Helvetica,sans-Serif" font-size="10.00">Ogre::VulkanDelayed</text>
<text text-anchor="middle" x="249.75" y="-250.75" font-family="Helvetica,sans-Serif" font-size="10.00">_vkDestroyImage</text>
</a>
</g>
</g>
<!-- Node0&#45;&gt;Node3 -->
<g id="edge1422_Node000000_Node000003" class="edge">
<title>Node0&#45;&gt;Node3</title>
<g id="a_edge1422_Node000000_Node000003"><a xlink:title=" ">
<path fill="none" stroke="#63b8ff" d="M108.33,-200.97C130.21,-210.87 159.86,-224.11 186.25,-235.25 193.57,-238.34 201.41,-241.55 208.98,-244.61"/>
<polygon fill="#63b8ff" stroke="#63b8ff" points="109.89,-197.83 99.33,-196.88 106.99,-204.21 109.89,-197.83"/>
</a>
</g>
</g>
<!-- Node4 -->
<g id="Node000004" class="node">
<title>Node4</title>
<g id="a_Node000004"><a xlink:href="class_ogre_1_1_vulkan_delayed__vk_destroy_image_view.html" target="_top" xlink:title=" ">
<polygon fill="white" stroke="#666666" points="306.5,-226.5 193,-226.5 193,-196 306.5,-196 306.5,-226.5"/>
<text text-anchor="start" x="201" y="-213" font-family="Helvetica,sans-Serif" font-size="10.00">Ogre::VulkanDelayed</text>
<text text-anchor="middle" x="249.75" y="-201.75" font-family="Helvetica,sans-Serif" font-size="10.00">_vkDestroyImageView</text>
</a>
</g>
</g>
<!-- Node0&#45;&gt;Node4 -->
<g id="edge1423_Node000000_Node000004" class="edge">
<title>Node0&#45;&gt;Node4</title>
<g id="a_edge1423_Node000000_Node000004"><a xlink:title=" ">
<path fill="none" stroke="#63b8ff" d="M157.23,-198C169.18,-199.73 181.26,-201.48 192.56,-203.11"/>
<polygon fill="#63b8ff" stroke="#63b8ff" points="157.74,-194.53 147.34,-196.56 156.73,-201.46 157.74,-194.53"/>
</a>
</g>
</g>
<!-- Node5 -->
<g id="Node000005" class="node">
<title>Node5</title>
<g id="a_Node000005"><a xlink:href="class_ogre_1_1_vulkan_delayed__vk_destroy_pipeline.html" target="_top" xlink:title=" ">
<polygon fill="white" stroke="#666666" points="302.75,-177.5 196.75,-177.5 196.75,-147 302.75,-147 302.75,-177.5"/>
<text text-anchor="start" x="204.75" y="-164" font-family="Helvetica,sans-Serif" font-size="10.00">Ogre::VulkanDelayed</text>
<text text-anchor="middle" x="249.75" y="-152.75" font-family="Helvetica,sans-Serif" font-size="10.00">_vkDestroyPipeline</text>
</a>
</g>
</g>
<!-- Node0&#45;&gt;Node5 -->
<g id="edge1424_Node000000_Node000005" class="edge">
<title>Node0&#45;&gt;Node5</title>
<g id="a_edge1424_Node000000_Node000005"><a xlink:title=" ">
<path fill="none" stroke="#63b8ff" d="M160.12,-174.57C172.46,-172.86 184.86,-171.13 196.31,-169.54"/>
<polygon fill="#63b8ff" stroke="#63b8ff" points="159.76,-171.09 150.33,-175.93 160.72,-178.02 159.76,-171.09"/>
</a>
</g>
</g>
<!-- Node6 -->
<g id="Node000006" class="node">
<title>Node6</title>
<g id="a_Node000006"><a xlink:href="class_ogre_1_1_vulkan_delayed__vk_destroy_render_pass.html" target="_top" xlink:title=" ">
<polygon fill="white" stroke="#666666" points="308.75,-128.5 190.75,-128.5 190.75,-98 308.75,-98 308.75,-128.5"/>
<text text-anchor="start" x="198.75" y="-115" font-family="Helvetica,sans-Serif" font-size="10.00">Ogre::VulkanDelayed</text>
<text text-anchor="middle" x="249.75" y="-103.75" font-family="Helvetica,sans-Serif" font-size="10.00">_vkDestroyRenderPass</text>
</a>
</g>
</g>
<!-- Node0&#45;&gt;Node6 -->
<g id="edge1425_Node000000_Node000006" class="edge">
<title>Node0&#45;&gt;Node6</title>
<g id="a_edge1425_Node000000_Node000006"><a xlink:title=" ">
<path fill="none" stroke="#63b8ff" d="M108.77,-171.71C130.63,-162.05 160.07,-149.19 186.25,-138.25 193.58,-135.19 201.43,-131.99 209,-128.94"/>
<polygon fill="#63b8ff" stroke="#63b8ff" points="107.51,-168.44 99.78,-175.69 110.34,-174.84 107.51,-168.44"/>
</a>
</g>
</g>
<!-- Node7 -->
<g id="Node000007" class="node">
<title>Node7</title>
<g id="a_Node000007"><a xlink:href="class_ogre_1_1_vulkan_delayed__vk_destroy_sampler.html" target="_top" xlink:title=" ">
<polygon fill="white" stroke="#666666" points="302.75,-79.5 196.75,-79.5 196.75,-49 302.75,-49 302.75,-79.5"/>
<text text-anchor="start" x="204.75" y="-66" font-family="Helvetica,sans-Serif" font-size="10.00">Ogre::VulkanDelayed</text>
<text text-anchor="middle" x="249.75" y="-54.75" font-family="Helvetica,sans-Serif" font-size="10.00">_vkDestroySampler</text>
</a>
</g>
</g>
<!-- Node0&#45;&gt;Node7 -->
<g id="edge1426_Node000000_Node000007" class="edge">
<title>Node0&#45;&gt;Node7</title>
<g id="a_edge1426_Node000000_Node000007"><a xlink:title=" ">
<path fill="none" stroke="#63b8ff" d="M92.97,-168.02C113.38,-146.8 149.6,-111.79 186.25,-89.25 191.82,-85.82 197.95,-82.7 204.12,-79.91"/>
<polygon fill="#63b8ff" stroke="#63b8ff" points="90.61,-165.43 86.28,-175.1 95.7,-170.24 90.61,-165.43"/>
</a>
</g>
</g>
<!-- Node8 -->
<g id="Node000008" class="node">
<title>Node8</title>
<g id="a_Node000008"><a xlink:href="class_ogre_1_1_vulkan_delayed__vk_destroy_shader_module.html" target="_top" xlink:title=" ">
<polygon fill="white" stroke="#666666" points="313.25,-30.5 186.25,-30.5 186.25,0 313.25,0 313.25,-30.5"/>
<text text-anchor="start" x="194.25" y="-17" font-family="Helvetica,sans-Serif" font-size="10.00">Ogre::VulkanDelayed</text>
<text text-anchor="middle" x="249.75" y="-5.75" font-family="Helvetica,sans-Serif" font-size="10.00">_vkDestroyShaderModule</text>
</a>
</g>
</g>
<!-- Node0&#45;&gt;Node8 -->
<g id="edge1427_Node000000_Node000008" class="edge">
<title>Node0&#45;&gt;Node8</title>
<g id="a_edge1427_Node000000_Node000008"><a xlink:title=" ">
<path fill="none" stroke="#63b8ff" d="M86.49,-166.25C103.46,-135.28 139.97,-75.62 186.25,-40.25 190.89,-36.7 196.11,-33.59 201.49,-30.87"/>
<polygon fill="#63b8ff" stroke="#63b8ff" points="83.48,-164.46 81.85,-174.93 89.65,-167.76 83.48,-164.46"/>
</a>
</g>
</g>
</g>
</svg>
