<?xml version="1.0" encoding="UTF-8" standalone="no"?>
<!DOCTYPE svg PUBLIC "-//W3C//DTD SVG 1.1//EN"
 "http://www.w3.org/Graphics/SVG/1.1/DTD/svg11.dtd">
<!-- Generated by graphviz version 9.0.0 (20230911.1827)
 -->
<!-- Title: Graphical Class Hierarchy Pages: 1 -->
<svg width="384pt" height="272pt"
 viewBox="0.00 0.00 383.50 271.50" xmlns="http://www.w3.org/2000/svg" xmlns:xlink="http://www.w3.org/1999/xlink">
<g id="graph0" class="graph" transform="scale(1 1) rotate(0) translate(4 267.5)">
<title>Graphical Class Hierarchy</title>
<!-- Node0 -->
<g id="Node000000" class="node">
<title>Node0</title>
<g id="a_Node000000"><a xlink:href="class_ogre_1_1_pixel_format_to_shader_type.html" target="_top" xlink:title=" ">
<polygon fill="white" stroke="#666666" points="156.25,-134.88 0,-134.88 0,-115.62 156.25,-115.62 156.25,-134.88"/>
<text text-anchor="middle" x="78.12" y="-121.38" font-family="Helvetica,sans-Serif" font-size="10.00">Ogre::PixelFormatToShaderType</text>
</a>
</g>
</g>
<!-- Node1 -->
<g id="Node000001" class="node">
<title>Node1</title>
<g id="a_Node000001"><a xlink:href="class_ogre_1_1_d3_d11_pixel_format_to_shader_type.html" target="_top" xlink:title=" ">
<polygon fill="white" stroke="#666666" points="350.75,-263.5 217,-263.5 217,-233 350.75,-233 350.75,-263.5"/>
<text text-anchor="start" x="225" y="-250" font-family="Helvetica,sans-Serif" font-size="10.00">Ogre::D3D11PixelFormatTo</text>
<text text-anchor="middle" x="283.88" y="-238.75" font-family="Helvetica,sans-Serif" font-size="10.00">ShaderType</text>
</a>
</g>
</g>
<!-- Node0&#45;&gt;Node1 -->
<g id="edge1345_Node000000_Node000001" class="edge">
<title>Node0&#45;&gt;Node1</title>
<g id="a_edge1345_Node000000_Node000001"><a xlink:title=" ">
<path fill="none" stroke="#63b8ff" d="M95.44,-143.7C115.93,-165.76 153.16,-202.32 192.25,-223.25 199.88,-227.33 208.23,-230.8 216.68,-233.72"/>
<polygon fill="#63b8ff" stroke="#63b8ff" points="98.06,-141.38 88.74,-136.34 92.88,-146.09 98.06,-141.38"/>
</a>
</g>
</g>
<!-- Node2 -->
<g id="Node000002" class="node">
<title>Node2</title>
<g id="a_Node000002"><a xlink:href="class_ogre_1_1_g_l3_plus_pixel_format_to_shader_type.html" target="_top" xlink:title=" ">
<polygon fill="white" stroke="#666666" points="349.62,-214.5 218.12,-214.5 218.12,-184 349.62,-184 349.62,-214.5"/>
<text text-anchor="start" x="226.12" y="-201" font-family="Helvetica,sans-Serif" font-size="10.00">Ogre::GL3PlusPixelFormat</text>
<text text-anchor="middle" x="283.88" y="-189.75" font-family="Helvetica,sans-Serif" font-size="10.00">ToShaderType</text>
</a>
</g>
</g>
<!-- Node0&#45;&gt;Node2 -->
<g id="edge1346_Node000000_Node000002" class="edge">
<title>Node0&#45;&gt;Node2</title>
<g id="a_edge1346_Node000000_Node000002"><a xlink:title=" ">
<path fill="none" stroke="#63b8ff" d="M110.31,-140.16C132.77,-150.55 163.97,-164.28 192.25,-174.25 201.64,-177.56 211.7,-180.71 221.58,-183.59"/>
<polygon fill="#63b8ff" stroke="#63b8ff" points="111.95,-137.06 101.41,-136 108.99,-143.4 111.95,-137.06"/>
</a>
</g>
</g>
<!-- Node3 -->
<g id="Node000003" class="node">
<title>Node3</title>
<g id="a_Node000003"><a xlink:href="class_ogre_1_1_g_l_e_s2_pixel_format_to_shader_type.html" target="_top" xlink:title=" ">
<polygon fill="white" stroke="#666666" points="351.88,-165.5 215.88,-165.5 215.88,-135 351.88,-135 351.88,-165.5"/>
<text text-anchor="start" x="223.88" y="-152" font-family="Helvetica,sans-Serif" font-size="10.00">Ogre::GLES2PixelFormatTo</text>
<text text-anchor="middle" x="283.88" y="-140.75" font-family="Helvetica,sans-Serif" font-size="10.00">ShaderType</text>
</a>
</g>
</g>
<!-- Node0&#45;&gt;Node3 -->
<g id="edge1347_Node000000_Node000003" class="edge">
<title>Node0&#45;&gt;Node3</title>
<g id="a_edge1347_Node000000_Node000003"><a xlink:title=" ">
<path fill="none" stroke="#63b8ff" d="M167.73,-136.12C183.73,-138.09 200.19,-140.1 215.47,-141.98"/>
<polygon fill="#63b8ff" stroke="#63b8ff" points="168.59,-132.7 158.24,-134.96 167.74,-139.65 168.59,-132.7"/>
</a>
</g>
</g>
<!-- Node4 -->
<g id="Node000004" class="node">
<title>Node4</title>
<g id="a_Node000004"><a xlink:href="class_ogre_1_1_metal_pixel_format_to_shader_type.html" target="_top" xlink:title=" ">
<polygon fill="white" stroke="#666666" points="348.12,-116.5 219.62,-116.5 219.62,-86 348.12,-86 348.12,-116.5"/>
<text text-anchor="start" x="227.62" y="-103" font-family="Helvetica,sans-Serif" font-size="10.00">Ogre::MetalPixelFormatTo</text>
<text text-anchor="middle" x="283.88" y="-91.75" font-family="Helvetica,sans-Serif" font-size="10.00">ShaderType</text>
</a>
</g>
</g>
<!-- Node0&#45;&gt;Node4 -->
<g id="edge1348_Node000000_Node000004" class="edge">
<title>Node0&#45;&gt;Node4</title>
<g id="a_edge1348_Node000000_Node000004"><a xlink:title=" ">
<path fill="none" stroke="#63b8ff" d="M168.01,-114.78C185.3,-112.74 203.1,-110.65 219.38,-108.73"/>
<polygon fill="#63b8ff" stroke="#63b8ff" points="167.76,-111.29 158.24,-115.93 168.58,-118.24 167.76,-111.29"/>
</a>
</g>
</g>
<!-- Node5 -->
<g id="Node000005" class="node">
<title>Node5</title>
<g id="a_Node000005"><a xlink:href="class_ogre_1_1_n_u_l_l_pixel_format_to_shader_type.html" target="_top" xlink:title=" ">
<polygon fill="white" stroke="#666666" points="375.5,-67.88 192.25,-67.88 192.25,-48.62 375.5,-48.62 375.5,-67.88"/>
<text text-anchor="middle" x="283.88" y="-54.38" font-family="Helvetica,sans-Serif" font-size="10.00">Ogre::NULLPixelFormatToShaderType</text>
</a>
</g>
</g>
<!-- Node0&#45;&gt;Node5 -->
<g id="edge1349_Node000000_Node000005" class="edge">
<title>Node0&#45;&gt;Node5</title>
<g id="a_edge1349_Node000000_Node000005"><a xlink:title=" ">
<path fill="none" stroke="#63b8ff" d="M109.75,-110.33C132.17,-99.89 163.56,-86.25 192.25,-77.25 203.14,-73.83 214.96,-70.85 226.36,-68.32"/>
<polygon fill="#63b8ff" stroke="#63b8ff" points="108.43,-107.08 100.89,-114.52 111.42,-113.41 108.43,-107.08"/>
</a>
</g>
</g>
<!-- Node6 -->
<g id="Node000006" class="node">
<title>Node6</title>
<g id="a_Node000006"><a xlink:href="class_ogre_1_1_vulkan_pixel_format_to_shader_type.html" target="_top" xlink:title=" ">
<polygon fill="white" stroke="#666666" points="351.12,-30.5 216.62,-30.5 216.62,0 351.12,0 351.12,-30.5"/>
<text text-anchor="start" x="224.62" y="-17" font-family="Helvetica,sans-Serif" font-size="10.00">Ogre::VulkanPixelFormatTo</text>
<text text-anchor="middle" x="283.88" y="-5.75" font-family="Helvetica,sans-Serif" font-size="10.00">ShaderType</text>
</a>
</g>
</g>
<!-- Node0&#45;&gt;Node6 -->
<g id="edge1350_Node000000_Node000006" class="edge">
<title>Node0&#45;&gt;Node6</title>
<g id="a_edge1350_Node000000_Node000006"><a xlink:title=" ">
<path fill="none" stroke="#63b8ff" d="M97.78,-107.33C119.03,-87.87 155.56,-57.17 192.25,-39.25 199.85,-35.53 208.11,-32.34 216.44,-29.6"/>
<polygon fill="#63b8ff" stroke="#63b8ff" points="95.43,-104.74 90.51,-114.12 100.21,-109.85 95.43,-104.74"/>
</a>
</g>
</g>
</g>
</svg>
