<?xml version="1.0" encoding="UTF-8" standalone="no"?>
<!DOCTYPE svg PUBLIC "-//W3C//DTD SVG 1.1//EN"
 "http://www.w3.org/Graphics/SVG/1.1/DTD/svg11.dtd">
<!-- Generated by graphviz version 9.0.0 (20230911.1827)
 -->
<!-- Title: Graphical Class Hierarchy Pages: 1 -->
<svg width="288pt" height="101pt"
 viewBox="0.00 0.00 287.50 101.25" xmlns="http://www.w3.org/2000/svg" xmlns:xlink="http://www.w3.org/1999/xlink">
<g id="graph0" class="graph" transform="scale(1 1) rotate(0) translate(4 97.25)">
<title>Graphical Class Hierarchy</title>
<!-- Node0 -->
<g id="Node000000" class="node">
<title>Node0</title>
<g id="a_Node000000"><a xlink:href="class_ogre_1_1_vulkan_support.html" target="_top" xlink:title=" ">
<polygon fill="white" stroke="#666666" points="105.25,-56.25 0,-56.25 0,-37 105.25,-37 105.25,-56.25"/>
<text text-anchor="middle" x="52.62" y="-42.75" font-family="Helvetica,sans-Serif" font-size="10.00">Ogre::VulkanSupport</text>
</a>
</g>
</g>
<!-- Node1 -->
<g id="Node000001" class="node">
<title>Node1</title>
<g id="a_Node000001"><a xlink:href="class_ogre_1_1_vulkan_android_support.html" target="_top" xlink:title=" ">
<polygon fill="white" stroke="#666666" points="279.5,-93.25 141.25,-93.25 141.25,-74 279.5,-74 279.5,-93.25"/>
<text text-anchor="middle" x="210.38" y="-79.75" font-family="Helvetica,sans-Serif" font-size="10.00">Ogre::VulkanAndroidSupport</text>
</a>
</g>
</g>
<!-- Node0&#45;&gt;Node1 -->
<g id="edge1428_Node000000_Node000001" class="edge">
<title>Node0&#45;&gt;Node1</title>
<g id="a_edge1428_Node000000_Node000001"><a xlink:title=" ">
<path fill="none" stroke="#63b8ff" d="M107.34,-59.39C126.81,-64.01 148.5,-69.16 166.87,-73.53"/>
<polygon fill="#63b8ff" stroke="#63b8ff" points="108.2,-55.99 97.66,-57.09 106.58,-62.8 108.2,-55.99"/>
</a>
</g>
</g>
<!-- Node2 -->
<g id="Node000002" class="node">
<title>Node2</title>
<g id="a_Node000002"><a xlink:href="class_ogre_1_1_vulkan_win32_support.html" target="_top" xlink:title=" ">
<polygon fill="white" stroke="#666666" points="276.5,-56.25 144.25,-56.25 144.25,-37 276.5,-37 276.5,-56.25"/>
<text text-anchor="middle" x="210.38" y="-42.75" font-family="Helvetica,sans-Serif" font-size="10.00">Ogre::VulkanWin32Support</text>
</a>
</g>
</g>
<!-- Node0&#45;&gt;Node2 -->
<g id="edge1429_Node000000_Node000002" class="edge">
<title>Node0&#45;&gt;Node2</title>
<g id="a_edge1429_Node000000_Node000002"><a xlink:title=" ">
<path fill="none" stroke="#63b8ff" d="M116.96,-46.62C125.84,-46.62 134.97,-46.62 143.89,-46.62"/>
<polygon fill="#63b8ff" stroke="#63b8ff" points="117,-43.13 107,-46.63 117,-50.13 117,-43.13"/>
</a>
</g>
</g>
<!-- Node3 -->
<g id="Node000003" class="node">
<title>Node3</title>
<g id="a_Node000003"><a xlink:href="class_ogre_1_1_vulkan_xcb_support.html" target="_top" xlink:title=" ">
<polygon fill="white" stroke="#666666" points="271.62,-19.25 149.12,-19.25 149.12,0 271.62,0 271.62,-19.25"/>
<text text-anchor="middle" x="210.38" y="-5.75" font-family="Helvetica,sans-Serif" font-size="10.00">Ogre::VulkanXcbSupport</text>
</a>
</g>
</g>
<!-- Node0&#45;&gt;Node3 -->
<g id="edge1430_Node000000_Node000003" class="edge">
<title>Node0&#45;&gt;Node3</title>
<g id="a_edge1430_Node000000_Node000003"><a xlink:title=" ">
<path fill="none" stroke="#63b8ff" d="M107.34,-33.86C126.81,-29.24 148.5,-24.09 166.87,-19.72"/>
<polygon fill="#63b8ff" stroke="#63b8ff" points="106.58,-30.45 97.66,-36.16 108.2,-37.26 106.58,-30.45"/>
</a>
</g>
</g>
</g>
</svg>
