<?xml version="1.0" encoding="UTF-8" standalone="no"?>
<!DOCTYPE svg PUBLIC "-//W3C//DTD SVG 1.1//EN"
 "http://www.w3.org/Graphics/SVG/1.1/DTD/svg11.dtd">
<!-- Generated by graphviz version 9.0.0 (20230911.1827)
 -->
<!-- Title: Ogre::VectorSet&lt; T, S &gt; Pages: 1 -->
<svg width="144pt" height="293pt"
 viewBox="0.00 0.00 144.00 293.25" xmlns="http://www.w3.org/2000/svg" xmlns:xlink="http://www.w3.org/1999/xlink">
<g id="graph0" class="graph" transform="scale(1 1) rotate(0) translate(4 289.25)">
<title>Ogre::VectorSet&lt; T, S &gt;</title>
<!-- Node1 -->
<g id="Node000001" class="node">
<title>Node1</title>
<g id="a_Node000001"><a xlink:title="VectorSet is basically a helper to use a vector as a small set container.">
<polygon fill="#999999" stroke="#666666" points="127.75,-19.25 8.25,-19.25 8.25,0 127.75,0 127.75,-19.25"/>
<text text-anchor="middle" x="68" y="-5.75" font-family="Helvetica,sans-Serif" font-size="10.00">Ogre::VectorSet&lt; T, S &gt;</text>
</a>
</g>
</g>
<!-- Node2 -->
<g id="Node000002" class="node">
<title>Node2</title>
<g id="a_Node000002"><a xlink:href="class_ogre_1_1_small_vector.html" target="_top" xlink:title=" ">
<polygon fill="white" stroke="#666666" points="118.38,-85.75 17.62,-85.75 17.62,-55.25 118.38,-55.25 118.38,-85.75"/>
<text text-anchor="start" x="25.62" y="-72.25" font-family="Helvetica,sans-Serif" font-size="10.00">Ogre::SmallVector&lt;</text>
<text text-anchor="middle" x="68" y="-61" font-family="Helvetica,sans-Serif" font-size="10.00"> T, S &gt;</text>
</a>
</g>
</g>
<!-- Node2&#45;&gt;Node1 -->
<g id="edge1_Node000001_Node000002" class="edge">
<title>Node2&#45;&gt;Node1</title>
<g id="a_edge1_Node000001_Node000002"><a xlink:title=" ">
<path fill="none" stroke="#63b8ff" d="M68,-43.48C68,-34.98 68,-26.09 68,-19.7"/>
<polygon fill="#63b8ff" stroke="#63b8ff" points="64.5,-43.43 68,-53.43 71.5,-43.43 64.5,-43.43"/>
</a>
</g>
</g>
<!-- Node3 -->
<g id="Node000003" class="node">
<title>Node3</title>
<g id="a_Node000003"><a xlink:href="class_ogre_1_1_small_vector_impl.html" target="_top" xlink:title="SmallVectorImpl &#45; This class consists of common code factored out of the SmallVector class to reduce ...">
<polygon fill="white" stroke="#666666" points="136,-141 0,-141 0,-121.75 136,-121.75 136,-141"/>
<text text-anchor="middle" x="68" y="-127.5" font-family="Helvetica,sans-Serif" font-size="10.00">Ogre::SmallVectorImpl&lt; T &gt;</text>
</a>
</g>
</g>
<!-- Node3&#45;&gt;Node2 -->
<g id="edge2_Node000002_Node000003" class="edge">
<title>Node3&#45;&gt;Node2</title>
<g id="a_edge2_Node000002_Node000003"><a xlink:title=" ">
<path fill="none" stroke="#63b8ff" d="M68,-110.17C68,-102.24 68,-93.31 68,-86.03"/>
<polygon fill="#63b8ff" stroke="#63b8ff" points="64.5,-109.92 68,-119.92 71.5,-109.92 64.5,-109.92"/>
</a>
</g>
</g>
<!-- Node4 -->
<g id="Node000004" class="node">
<title>Node4</title>
<g id="a_Node000004"><a xlink:href="class_ogre_1_1_small_vector_template_base.html" target="_top" xlink:title=" ">
<polygon fill="white" stroke="#666666" points="135.62,-218.75 0.38,-218.75 0.38,-177 135.62,-177 135.62,-218.75"/>
<text text-anchor="start" x="8.38" y="-205.25" font-family="Helvetica,sans-Serif" font-size="10.00">Ogre::SmallVectorTemplate</text>
<text text-anchor="start" x="8.38" y="-194" font-family="Helvetica,sans-Serif" font-size="10.00">Base&lt; T, isPodLike&lt; T &gt;</text>
<text text-anchor="middle" x="68" y="-182.75" font-family="Helvetica,sans-Serif" font-size="10.00">::value &gt;</text>
</a>
</g>
</g>
<!-- Node4&#45;&gt;Node3 -->
<g id="edge3_Node000003_Node000004" class="edge">
<title>Node4&#45;&gt;Node3</title>
<g id="a_edge3_Node000003_Node000004"><a xlink:title=" ">
<path fill="none" stroke="#63b8ff" d="M68,-165.51C68,-156.7 68,-147.8 68,-141.45"/>
<polygon fill="#63b8ff" stroke="#63b8ff" points="64.5,-165.31 68,-175.31 71.5,-165.31 64.5,-165.31"/>
</a>
</g>
</g>
<!-- Node5 -->
<g id="Node000005" class="node">
<title>Node5</title>
<g id="a_Node000005"><a xlink:href="class_ogre_1_1_small_vector_template_common.html" target="_top" xlink:title=" ">
<polygon fill="#fff0f0" stroke="red" points="135.62,-285.25 0.38,-285.25 0.38,-254.75 135.62,-254.75 135.62,-285.25"/>
<text text-anchor="start" x="8.38" y="-271.75" font-family="Helvetica,sans-Serif" font-size="10.00">Ogre::SmallVectorTemplate</text>
<text text-anchor="middle" x="68" y="-260.5" font-family="Helvetica,sans-Serif" font-size="10.00">Common&lt; T &gt;</text>
</a>
</g>
</g>
<!-- Node5&#45;&gt;Node4 -->
<g id="edge4_Node000004_Node000005" class="edge">
<title>Node5&#45;&gt;Node4</title>
<g id="a_edge4_Node000004_Node000005"><a xlink:title=" ">
<path fill="none" stroke="#63b8ff" d="M68,-243.22C68,-235.31 68,-226.73 68,-219.24"/>
<polygon fill="#63b8ff" stroke="#63b8ff" points="64.5,-242.96 68,-252.96 71.5,-242.96 64.5,-242.96"/>
</a>
</g>
</g>
</g>
</svg>
