<?xml version="1.0" encoding="UTF-8" standalone="no"?>
<!DOCTYPE svg PUBLIC "-//W3C//DTD SVG 1.1//EN"
 "http://www.w3.org/Graphics/SVG/1.1/DTD/svg11.dtd">
<!-- Generated by graphviz version 9.0.0 (20230911.1827)
 -->
<!-- Title: Ogre::GpuTrackedResource Pages: 1 -->
<svg width="646pt" height="1252pt"
 viewBox="0.00 0.00 645.75 1252.25" xmlns="http://www.w3.org/2000/svg" xmlns:xlink="http://www.w3.org/1999/xlink">
<g id="graph0" class="graph" transform="scale(1 1) rotate(0) translate(4 1248.25)">
<title>Ogre::GpuTrackedResource</title>
<!-- Node1 -->
<g id="Node000001" class="node">
<title>Node1</title>
<g id="a_Node000001"><a xlink:title=" ">
<polygon fill="#999999" stroke="#666666" points="136,-241.25 0,-241.25 0,-222 136,-222 136,-241.25"/>
<text text-anchor="middle" x="68" y="-227.75" font-family="Helvetica,sans-Serif" font-size="10.00">Ogre::GpuTrackedResource</text>
</a>
</g>
</g>
<!-- Node2 -->
<g id="Node000002" class="node">
<title>Node2</title>
<g id="a_Node000002"><a xlink:href="class_ogre_1_1_buffer_packed.html" target="_top" xlink:title=" ">
<polygon fill="white" stroke="#666666" points="272,-838.25 172,-838.25 172,-819 272,-819 272,-838.25"/>
<text text-anchor="middle" x="222" y="-824.75" font-family="Helvetica,sans-Serif" font-size="10.00">Ogre::BufferPacked</text>
</a>
</g>
</g>
<!-- Node1&#45;&gt;Node2 -->
<g id="edge1_Node000001_Node000002" class="edge">
<title>Node1&#45;&gt;Node2</title>
<g id="a_edge1_Node000001_Node000002"><a xlink:title=" ">
<path fill="none" stroke="#63b8ff" d="M74.35,-252.63C99,-349.47 201.23,-750.99 218.51,-818.86"/>
<polygon fill="#63b8ff" stroke="#63b8ff" points="77.74,-251.78 71.88,-242.96 70.96,-253.51 77.74,-251.78"/>
</a>
</g>
</g>
<!-- Node35 -->
<g id="Node000035" class="node">
<title>Node35</title>
<g id="a_Node000035"><a xlink:href="class_ogre_1_1_render_target.html" target="_top" xlink:title="A &#39;canvas&#39; which can receive the results of a rendering operation.">
<polygon fill="white" stroke="#666666" points="272,-241.25 172,-241.25 172,-222 272,-222 272,-241.25"/>
<text text-anchor="middle" x="222" y="-227.75" font-family="Helvetica,sans-Serif" font-size="10.00">Ogre::RenderTarget</text>
</a>
</g>
</g>
<!-- Node1&#45;&gt;Node35 -->
<g id="edge26_Node000001_Node000035" class="edge">
<title>Node1&#45;&gt;Node35</title>
<g id="a_edge26_Node000001_Node000035"><a xlink:title=" ">
<path fill="none" stroke="#63b8ff" d="M147.35,-231.62C155.59,-231.62 163.81,-231.62 171.59,-231.62"/>
<polygon fill="#63b8ff" stroke="#63b8ff" points="147.63,-228.13 137.63,-231.63 147.63,-235.13 147.63,-228.13"/>
</a>
</g>
</g>
<!-- Node71 -->
<g id="Node000071" class="node">
<title>Node71</title>
<g id="a_Node000071"><a xlink:href="class_ogre_1_1_texture_gpu.html" target="_top" xlink:title=" ">
<polygon fill="white" stroke="#666666" points="267.88,-112.25 176.12,-112.25 176.12,-93 267.88,-93 267.88,-112.25"/>
<text text-anchor="middle" x="222" y="-98.75" font-family="Helvetica,sans-Serif" font-size="10.00">Ogre::TextureGpu</text>
</a>
</g>
</g>
<!-- Node1&#45;&gt;Node71 -->
<g id="edge43_Node000001_Node000071" class="edge">
<title>Node1&#45;&gt;Node71</title>
<g id="a_edge43_Node000001_Node000071"><a xlink:title=" ">
<path fill="none" stroke="#63b8ff" d="M89.56,-214.17C121.83,-186.79 183.32,-134.61 209.13,-112.7"/>
<polygon fill="#63b8ff" stroke="#63b8ff" points="87.44,-211.38 82.08,-220.52 91.97,-216.72 87.44,-211.38"/>
</a>
</g>
</g>
<!-- Node3 -->
<g id="Node000003" class="node">
<title>Node3</title>
<g id="a_Node000003"><a xlink:href="class_ogre_1_1_const_buffer_packed.html" target="_top" xlink:title="Represents constant buffers (also known as Uniform Buffers in GL)">
<polygon fill="white" stroke="#666666" points="436.88,-1121.25 311.38,-1121.25 311.38,-1102 436.88,-1102 436.88,-1121.25"/>
<text text-anchor="middle" x="374.12" y="-1107.75" font-family="Helvetica,sans-Serif" font-size="10.00">Ogre::ConstBufferPacked</text>
</a>
</g>
</g>
<!-- Node2&#45;&gt;Node3 -->
<g id="edge2_Node000002_Node000003" class="edge">
<title>Node2&#45;&gt;Node3</title>
<g id="a_edge2_Node000002_Node000003"><a xlink:title=" ">
<path fill="none" stroke="#63b8ff" d="M233.69,-848.77C263.38,-904.75 346.12,-1060.72 367.85,-1101.67"/>
<polygon fill="#63b8ff" stroke="#63b8ff" points="236.83,-847.23 229.05,-840.03 230.65,-850.51 236.83,-847.23"/>
</a>
</g>
</g>
<!-- Node10 -->
<g id="Node000010" class="node">
<title>Node10</title>
<g id="a_Node000010"><a xlink:href="class_ogre_1_1_index_buffer_packed.html" target="_top" xlink:title=" ">
<polygon fill="white" stroke="#666666" points="435.75,-912.25 312.5,-912.25 312.5,-893 435.75,-893 435.75,-912.25"/>
<text text-anchor="middle" x="374.12" y="-898.75" font-family="Helvetica,sans-Serif" font-size="10.00">Ogre::IndexBufferPacked</text>
</a>
</g>
</g>
<!-- Node2&#45;&gt;Node10 -->
<g id="edge9_Node000002_Node000010" class="edge">
<title>Node2&#45;&gt;Node10</title>
<g id="a_edge9_Node000002_Node000010"><a xlink:title=" ">
<path fill="none" stroke="#63b8ff" d="M244.34,-845.42C260.9,-857.75 284.86,-874.12 308,-884.62 314.73,-887.68 322.09,-890.32 329.37,-892.57"/>
<polygon fill="#63b8ff" stroke="#63b8ff" points="246.79,-842.88 236.71,-839.61 242.55,-848.46 246.79,-842.88"/>
</a>
</g>
</g>
<!-- Node11 -->
<g id="Node000011" class="node">
<title>Node11</title>
<g id="a_Node000011"><a xlink:href="class_ogre_1_1_indirect_buffer_packed.html" target="_top" xlink:title="Represents Indirect buffers for storing draw call commands.">
<polygon fill="white" stroke="#666666" points="440.25,-875.25 308,-875.25 308,-856 440.25,-856 440.25,-875.25"/>
<text text-anchor="middle" x="374.12" y="-861.75" font-family="Helvetica,sans-Serif" font-size="10.00">Ogre::IndirectBufferPacked</text>
</a>
</g>
</g>
<!-- Node2&#45;&gt;Node11 -->
<g id="edge10_Node000002_Node000011" class="edge">
<title>Node2&#45;&gt;Node11</title>
<g id="a_edge10_Node000002_Node000011"><a xlink:title=" ">
<path fill="none" stroke="#63b8ff" d="M275.04,-841.45C293.73,-846.06 314.53,-851.18 332.15,-855.53"/>
<polygon fill="#63b8ff" stroke="#63b8ff" points="276.04,-838.09 265.49,-839.1 274.36,-844.89 276.04,-838.09"/>
</a>
</g>
</g>
<!-- Node12 -->
<g id="Node000012" class="node">
<title>Node12</title>
<g id="a_Node000012"><a xlink:href="class_ogre_1_1_tex_buffer_packed.html" target="_top" xlink:title="Represents Texture buffers (also known as tbuffers in D3D11)">
<polygon fill="white" stroke="#666666" points="432,-838.25 316.25,-838.25 316.25,-819 432,-819 432,-838.25"/>
<text text-anchor="middle" x="374.12" y="-824.75" font-family="Helvetica,sans-Serif" font-size="10.00">Ogre::TexBufferPacked</text>
</a>
</g>
</g>
<!-- Node2&#45;&gt;Node12 -->
<g id="edge11_Node000002_Node000012" class="edge">
<title>Node2&#45;&gt;Node12</title>
<g id="a_edge11_Node000002_Node000012"><a xlink:title=" ">
<path fill="none" stroke="#63b8ff" d="M283.51,-828.62C294.16,-828.62 305.21,-828.62 315.77,-828.62"/>
<polygon fill="#63b8ff" stroke="#63b8ff" points="283.67,-825.13 273.67,-828.63 283.67,-832.13 283.67,-825.13"/>
</a>
</g>
</g>
<!-- Node28 -->
<g id="Node000028" class="node">
<title>Node28</title>
<g id="a_Node000028"><a xlink:href="class_ogre_1_1_uav_buffer_packed.html" target="_top" xlink:title="Represents UAV buffers (also known as SSBOs in OpenGL) Uav buffers are supported in DX10/DX10....">
<polygon fill="white" stroke="#666666" points="433.12,-690.25 315.12,-690.25 315.12,-671 433.12,-671 433.12,-690.25"/>
<text text-anchor="middle" x="374.12" y="-676.75" font-family="Helvetica,sans-Serif" font-size="10.00">Ogre::UavBufferPacked</text>
</a>
</g>
</g>
<!-- Node2&#45;&gt;Node28 -->
<g id="edge19_Node000002_Node000028" class="edge">
<title>Node2&#45;&gt;Node28</title>
<g id="a_edge19_Node000002_Node000028"><a xlink:title=" ">
<path fill="none" stroke="#63b8ff" d="M240.86,-811.02C272.63,-779.7 337.99,-715.27 363.04,-690.57"/>
<polygon fill="#63b8ff" stroke="#63b8ff" points="238.59,-808.34 233.93,-817.85 243.51,-813.32 238.59,-808.34"/>
</a>
</g>
</g>
<!-- Node34 -->
<g id="Node000034" class="node">
<title>Node34</title>
<g id="a_Node000034"><a xlink:href="class_ogre_1_1_vertex_buffer_packed.html" target="_top" xlink:title=" ">
<polygon fill="white" stroke="#666666" points="438,-653.25 310.25,-653.25 310.25,-634 438,-634 438,-653.25"/>
<text text-anchor="middle" x="374.12" y="-639.75" font-family="Helvetica,sans-Serif" font-size="10.00">Ogre::VertexBufferPacked</text>
</a>
</g>
</g>
<!-- Node2&#45;&gt;Node34 -->
<g id="edge25_Node000002_Node000034" class="edge">
<title>Node2&#45;&gt;Node34</title>
<g id="a_edge25_Node000002_Node000034"><a xlink:title=" ">
<path fill="none" stroke="#63b8ff" d="M227.8,-807.64C237.03,-772.13 260.67,-700.28 308,-661.62 311.91,-658.43 316.34,-655.81 321.01,-653.65"/>
<polygon fill="#63b8ff" stroke="#63b8ff" points="224.46,-806.56 225.48,-817.1 231.26,-808.22 224.46,-806.56"/>
</a>
</g>
</g>
<!-- Node4 -->
<g id="Node000004" class="node">
<title>Node4</title>
<g id="a_Node000004"><a xlink:href="class_ogre_1_1_d3_d11_const_buffer_packed.html" target="_top" xlink:title=" ">
<polygon fill="white" stroke="#666666" points="634.38,-1244.25 479.62,-1244.25 479.62,-1225 634.38,-1225 634.38,-1244.25"/>
<text text-anchor="middle" x="557" y="-1230.75" font-family="Helvetica,sans-Serif" font-size="10.00">Ogre::D3D11ConstBufferPacked</text>
</a>
</g>
</g>
<!-- Node3&#45;&gt;Node4 -->
<g id="edge3_Node000003_Node000004" class="edge">
<title>Node3&#45;&gt;Node4</title>
<g id="a_edge3_Node000003_Node000004"><a xlink:title=" ">
<path fill="none" stroke="#63b8ff" d="M388.36,-1130.8C405.74,-1154.46 438.51,-1194.18 476.25,-1215.62 482.69,-1219.28 489.8,-1222.24 497.04,-1224.62"/>
<polygon fill="#63b8ff" stroke="#63b8ff" points="391.43,-1129.08 382.77,-1122.98 385.74,-1133.15 391.43,-1129.08"/>
</a>
</g>
</g>
<!-- Node5 -->
<g id="Node000005" class="node">
<title>Node5</title>
<g id="a_Node000005"><a xlink:href="class_ogre_1_1_g_l3_plus_const_buffer_packed.html" target="_top" xlink:title=" ">
<polygon fill="white" stroke="#666666" points="622.38,-1206.88 491.62,-1206.88 491.62,-1176.38 622.38,-1176.38 622.38,-1206.88"/>
<text text-anchor="start" x="499.62" y="-1193.38" font-family="Helvetica,sans-Serif" font-size="10.00">Ogre::GL3PlusConstBuffer</text>
<text text-anchor="middle" x="557" y="-1182.12" font-family="Helvetica,sans-Serif" font-size="10.00">Packed</text>
</a>
</g>
</g>
<!-- Node3&#45;&gt;Node5 -->
<g id="edge4_Node000003_Node000005" class="edge">
<title>Node3&#45;&gt;Node5</title>
<g id="a_edge4_Node000003_Node000005"><a xlink:title=" ">
<path fill="none" stroke="#63b8ff" d="M400.3,-1127.55C420.31,-1139.71 449.32,-1156.27 476.25,-1167.62 483.31,-1170.6 490.87,-1173.38 498.41,-1175.9"/>
<polygon fill="#63b8ff" stroke="#63b8ff" points="402.35,-1124.7 392,-1122.43 398.67,-1130.66 402.35,-1124.7"/>
</a>
</g>
</g>
<!-- Node6 -->
<g id="Node000006" class="node">
<title>Node6</title>
<g id="a_Node000006"><a xlink:href="class_ogre_1_1_g_l_e_s2_const_buffer_packed.html" target="_top" xlink:title=" ">
<polygon fill="white" stroke="#666666" points="635.5,-1158.25 478.5,-1158.25 478.5,-1139 635.5,-1139 635.5,-1158.25"/>
<text text-anchor="middle" x="557" y="-1144.75" font-family="Helvetica,sans-Serif" font-size="10.00">Ogre::GLES2ConstBufferPacked</text>
</a>
</g>
</g>
<!-- Node3&#45;&gt;Node6 -->
<g id="edge5_Node000003_Node000006" class="edge">
<title>Node3&#45;&gt;Node6</title>
<g id="a_edge5_Node000003_Node000006"><a xlink:title=" ">
<path fill="none" stroke="#63b8ff" d="M435.61,-1124C458.69,-1128.72 484.71,-1134.04 506.63,-1138.53"/>
<polygon fill="#63b8ff" stroke="#63b8ff" points="436.53,-1120.61 426.03,-1122.04 435.13,-1127.47 436.53,-1120.61"/>
</a>
</g>
</g>
<!-- Node7 -->
<g id="Node000007" class="node">
<title>Node7</title>
<g id="a_Node000007"><a xlink:href="class_ogre_1_1_metal_const_buffer_packed.html" target="_top" xlink:title=" ">
<polygon fill="white" stroke="#666666" points="631.75,-1121.25 482.25,-1121.25 482.25,-1102 631.75,-1102 631.75,-1121.25"/>
<text text-anchor="middle" x="557" y="-1107.75" font-family="Helvetica,sans-Serif" font-size="10.00">Ogre::MetalConstBufferPacked</text>
</a>
</g>
</g>
<!-- Node3&#45;&gt;Node7 -->
<g id="edge6_Node000003_Node000007" class="edge">
<title>Node3&#45;&gt;Node7</title>
<g id="a_edge6_Node000003_Node000007"><a xlink:title=" ">
<path fill="none" stroke="#63b8ff" d="M448.62,-1111.62C459.55,-1111.62 470.83,-1111.62 481.79,-1111.62"/>
<polygon fill="#63b8ff" stroke="#63b8ff" points="448.89,-1108.13 438.89,-1111.63 448.89,-1115.13 448.89,-1108.13"/>
</a>
</g>
</g>
<!-- Node8 -->
<g id="Node000008" class="node">
<title>Node8</title>
<g id="a_Node000008"><a xlink:href="class_ogre_1_1_n_u_l_l_const_buffer_packed.html" target="_top" xlink:title=" ">
<polygon fill="white" stroke="#666666" points="633.25,-1084.25 480.75,-1084.25 480.75,-1065 633.25,-1065 633.25,-1084.25"/>
<text text-anchor="middle" x="557" y="-1070.75" font-family="Helvetica,sans-Serif" font-size="10.00">Ogre::NULLConstBufferPacked</text>
</a>
</g>
</g>
<!-- Node3&#45;&gt;Node8 -->
<g id="edge7_Node000003_Node000008" class="edge">
<title>Node3&#45;&gt;Node8</title>
<g id="a_edge7_Node000003_Node000008"><a xlink:title=" ">
<path fill="none" stroke="#63b8ff" d="M435.61,-1099.25C458.69,-1094.53 484.71,-1089.21 506.63,-1084.72"/>
<polygon fill="#63b8ff" stroke="#63b8ff" points="435.13,-1095.78 426.03,-1101.21 436.53,-1102.64 435.13,-1095.78"/>
</a>
</g>
</g>
<!-- Node9 -->
<g id="Node000009" class="node">
<title>Node9</title>
<g id="a_Node000009"><a xlink:href="class_ogre_1_1_vulkan_const_buffer_packed.html" target="_top" xlink:title=" ">
<polygon fill="white" stroke="#666666" points="634.75,-1047.25 479.25,-1047.25 479.25,-1028 634.75,-1028 634.75,-1047.25"/>
<text text-anchor="middle" x="557" y="-1033.75" font-family="Helvetica,sans-Serif" font-size="10.00">Ogre::VulkanConstBufferPacked</text>
</a>
</g>
</g>
<!-- Node3&#45;&gt;Node9 -->
<g id="edge8_Node000003_Node000009" class="edge">
<title>Node3&#45;&gt;Node9</title>
<g id="a_edge8_Node000003_Node000009"><a xlink:title=" ">
<path fill="none" stroke="#63b8ff" d="M399.39,-1095.61C419.3,-1083.1 448.62,-1066.15 476.25,-1055.62 484.34,-1052.54 493.1,-1049.91 501.76,-1047.68"/>
<polygon fill="#63b8ff" stroke="#63b8ff" points="397.7,-1092.53 391.17,-1100.86 401.48,-1098.42 397.7,-1092.53"/>
</a>
</g>
</g>
<!-- Node13 -->
<g id="Node000013" class="node">
<title>Node13</title>
<g id="a_Node000013"><a xlink:href="class_ogre_1_1_d3_d11_tex_buffer_packed.html" target="_top" xlink:title=" ">
<polygon fill="white" stroke="#666666" points="629.5,-1010.25 484.5,-1010.25 484.5,-991 629.5,-991 629.5,-1010.25"/>
<text text-anchor="middle" x="557" y="-996.75" font-family="Helvetica,sans-Serif" font-size="10.00">Ogre::D3D11TexBufferPacked</text>
</a>
</g>
</g>
<!-- Node12&#45;&gt;Node13 -->
<g id="edge12_Node000012_Node000013" class="edge">
<title>Node12&#45;&gt;Node13</title>
<g id="a_edge12_Node000012_Node000013"><a xlink:title=" ">
<path fill="none" stroke="#63b8ff" d="M438.74,-845.18C439.26,-845.65 439.76,-846.13 440.25,-846.62 483.96,-890.73 431.76,-938.31 476.25,-981.62 479.92,-985.2 484.14,-988.14 488.67,-990.57"/>
<polygon fill="#63b8ff" stroke="#63b8ff" points="440.96,-842.46 430.78,-839.54 436.92,-848.18 440.96,-842.46"/>
</a>
</g>
</g>
<!-- Node14 -->
<g id="Node000014" class="node">
<title>Node14</title>
<g id="a_Node000014"><a xlink:href="class_ogre_1_1_g_l3_plus_tex_buffer_emulated_packed.html" target="_top" xlink:title=" ">
<polygon fill="white" stroke="#666666" points="637.75,-972.88 476.25,-972.88 476.25,-942.38 637.75,-942.38 637.75,-972.88"/>
<text text-anchor="start" x="484.25" y="-959.38" font-family="Helvetica,sans-Serif" font-size="10.00">Ogre::GL3PlusTexBufferEmulated</text>
<text text-anchor="middle" x="557" y="-948.12" font-family="Helvetica,sans-Serif" font-size="10.00">Packed</text>
</a>
</g>
</g>
<!-- Node12&#45;&gt;Node14 -->
<g id="edge13_Node000012_Node000014" class="edge">
<title>Node12&#45;&gt;Node14</title>
<g id="a_edge13_Node000012_Node000014"><a xlink:title=" ">
<path fill="none" stroke="#63b8ff" d="M437.81,-844.61C438.65,-845.26 439.46,-845.93 440.25,-846.62 471.6,-874.35 445.22,-905.55 476.25,-933.62 479.79,-936.83 483.74,-939.6 487.94,-942.01"/>
<polygon fill="#63b8ff" stroke="#63b8ff" points="439.79,-841.72 429.44,-839.44 436.11,-847.67 439.79,-841.72"/>
</a>
</g>
</g>
<!-- Node15 -->
<g id="Node000015" class="node">
<title>Node15</title>
<g id="a_Node000015"><a xlink:href="class_ogre_1_1_g_l3_plus_tex_buffer_packed.html" target="_top" xlink:title=" ">
<polygon fill="white" stroke="#666666" points="634,-924.25 480,-924.25 480,-905 634,-905 634,-924.25"/>
<text text-anchor="middle" x="557" y="-910.75" font-family="Helvetica,sans-Serif" font-size="10.00">Ogre::GL3PlusTexBufferPacked</text>
</a>
</g>
</g>
<!-- Node12&#45;&gt;Node15 -->
<g id="edge14_Node000012_Node000015" class="edge">
<title>Node12&#45;&gt;Node15</title>
<g id="a_edge14_Node000012_Node000015"><a xlink:title=" ">
<path fill="none" stroke="#63b8ff" d="M435.29,-843.53C437,-844.5 438.66,-845.53 440.25,-846.62 462.5,-861.96 453.73,-880.69 476.25,-895.62 481.71,-899.24 487.78,-902.17 494.06,-904.55"/>
<polygon fill="#63b8ff" stroke="#63b8ff" points="436.96,-840.44 426.42,-839.29 433.94,-846.76 436.96,-840.44"/>
</a>
</g>
</g>
<!-- Node16 -->
<g id="Node000016" class="node">
<title>Node16</title>
<g id="a_Node000016"><a xlink:href="class_ogre_1_1_g_l_e_s2_tex_buffer_emulated_packed.html" target="_top" xlink:title=" ">
<polygon fill="white" stroke="#666666" points="634.38,-886.88 479.62,-886.88 479.62,-856.38 634.38,-856.38 634.38,-886.88"/>
<text text-anchor="start" x="487.62" y="-873.38" font-family="Helvetica,sans-Serif" font-size="10.00">Ogre::GLES2TexBufferEmulated</text>
<text text-anchor="middle" x="557" y="-862.12" font-family="Helvetica,sans-Serif" font-size="10.00">Packed</text>
</a>
</g>
</g>
<!-- Node12&#45;&gt;Node16 -->
<g id="edge15_Node000012_Node000016" class="edge">
<title>Node12&#45;&gt;Node16</title>
<g id="a_edge15_Node000012_Node000016"><a xlink:title=" ">
<path fill="none" stroke="#63b8ff" d="M428.5,-841.31C447.71,-845.88 469.62,-851.09 489.79,-855.88"/>
<polygon fill="#63b8ff" stroke="#63b8ff" points="429.54,-837.96 419,-839.06 427.92,-844.77 429.54,-837.96"/>
</a>
</g>
</g>
<!-- Node17 -->
<g id="Node000017" class="node">
<title>Node17</title>
<g id="a_Node000017"><a xlink:href="class_ogre_1_1_n_u_l_l_tex_buffer_packed.html" target="_top" xlink:title=" ">
<polygon fill="white" stroke="#666666" points="628.38,-838.25 485.62,-838.25 485.62,-819 628.38,-819 628.38,-838.25"/>
<text text-anchor="middle" x="557" y="-824.75" font-family="Helvetica,sans-Serif" font-size="10.00">Ogre::NULLTexBufferPacked</text>
</a>
</g>
</g>
<!-- Node12&#45;&gt;Node17 -->
<g id="edge16_Node000012_Node000017" class="edge">
<title>Node12&#45;&gt;Node17</title>
<g id="a_edge16_Node000012_Node000017"><a xlink:title=" ">
<path fill="none" stroke="#63b8ff" d="M443.58,-828.62C457.18,-828.62 471.49,-828.62 485.16,-828.62"/>
<polygon fill="#63b8ff" stroke="#63b8ff" points="443.87,-825.13 433.87,-828.63 443.87,-832.13 443.87,-825.13"/>
</a>
</g>
</g>
<!-- Node18 -->
<g id="Node000018" class="node">
<title>Node18</title>
<g id="a_Node000018"><a xlink:href="class_ogre_1_1_read_only_buffer_packed.html" target="_top" xlink:title="Represents the best way to access read&#45;only data.">
<polygon fill="#fff0f0" stroke="red" points="628,-801.25 486,-801.25 486,-782 628,-782 628,-801.25"/>
<text text-anchor="middle" x="557" y="-787.75" font-family="Helvetica,sans-Serif" font-size="10.00">Ogre::ReadOnlyBufferPacked</text>
</a>
</g>
</g>
<!-- Node12&#45;&gt;Node18 -->
<g id="edge17_Node000012_Node000018" class="edge">
<title>Node12&#45;&gt;Node18</title>
<g id="a_edge17_Node000012_Node000018"><a xlink:title=" ">
<path fill="none" stroke="#63b8ff" d="M435.61,-816.25C458.69,-811.53 484.71,-806.21 506.63,-801.72"/>
<polygon fill="#63b8ff" stroke="#63b8ff" points="435.13,-812.78 426.03,-818.21 436.53,-819.64 435.13,-812.78"/>
</a>
</g>
</g>
<!-- Node27 -->
<g id="Node000027" class="node">
<title>Node27</title>
<g id="a_Node000027"><a xlink:href="class_ogre_1_1_vulkan_tex_buffer_packed.html" target="_top" xlink:title=" ">
<polygon fill="white" stroke="#666666" points="629.88,-764.25 484.12,-764.25 484.12,-745 629.88,-745 629.88,-764.25"/>
<text text-anchor="middle" x="557" y="-750.75" font-family="Helvetica,sans-Serif" font-size="10.00">Ogre::VulkanTexBufferPacked</text>
</a>
</g>
</g>
<!-- Node12&#45;&gt;Node27 -->
<g id="edge18_Node000012_Node000027" class="edge">
<title>Node12&#45;&gt;Node27</title>
<g id="a_edge18_Node000012_Node000027"><a xlink:title=" ">
<path fill="none" stroke="#63b8ff" d="M399.39,-812.61C419.3,-800.1 448.62,-783.15 476.25,-772.62 484.34,-769.54 493.1,-766.91 501.76,-764.68"/>
<polygon fill="#63b8ff" stroke="#63b8ff" points="397.7,-809.53 391.17,-817.86 401.48,-815.42 397.7,-809.53"/>
</a>
</g>
</g>
<!-- Node29 -->
<g id="Node000029" class="node">
<title>Node29</title>
<g id="a_Node000029"><a xlink:href="class_ogre_1_1_d3_d11_uav_buffer_packed.html" target="_top" xlink:title=" ">
<polygon fill="white" stroke="#666666" points="630.62,-727.25 483.38,-727.25 483.38,-708 630.62,-708 630.62,-727.25"/>
<text text-anchor="middle" x="557" y="-713.75" font-family="Helvetica,sans-Serif" font-size="10.00">Ogre::D3D11UavBufferPacked</text>
</a>
</g>
</g>
<!-- Node28&#45;&gt;Node29 -->
<g id="edge20_Node000028_Node000029" class="edge">
<title>Node28&#45;&gt;Node29</title>
<g id="a_edge20_Node000028_Node000029"><a xlink:title=" ">
<path fill="none" stroke="#63b8ff" d="M435.61,-693C458.69,-697.72 484.71,-703.04 506.63,-707.53"/>
<polygon fill="#63b8ff" stroke="#63b8ff" points="436.53,-689.61 426.03,-691.04 435.13,-696.47 436.53,-689.61"/>
</a>
</g>
</g>
<!-- Node30 -->
<g id="Node000030" class="node">
<title>Node30</title>
<g id="a_Node000030"><a xlink:href="class_ogre_1_1_g_l3_plus_uav_buffer_packed.html" target="_top" xlink:title=" ">
<polygon fill="white" stroke="#666666" points="635.12,-690.25 478.88,-690.25 478.88,-671 635.12,-671 635.12,-690.25"/>
<text text-anchor="middle" x="557" y="-676.75" font-family="Helvetica,sans-Serif" font-size="10.00">Ogre::GL3PlusUavBufferPacked</text>
</a>
</g>
</g>
<!-- Node28&#45;&gt;Node30 -->
<g id="edge21_Node000028_Node000030" class="edge">
<title>Node28&#45;&gt;Node30</title>
<g id="a_edge21_Node000028_Node000030"><a xlink:title=" ">
<path fill="none" stroke="#63b8ff" d="M444.67,-680.62C455.72,-680.62 467.2,-680.62 478.42,-680.62"/>
<polygon fill="#63b8ff" stroke="#63b8ff" points="444.86,-677.13 434.86,-680.63 444.86,-684.13 444.86,-677.13"/>
</a>
</g>
</g>
<!-- Node31 -->
<g id="Node000031" class="node">
<title>Node31</title>
<g id="a_Node000031"><a xlink:href="class_ogre_1_1_metal_uav_buffer_packed.html" target="_top" xlink:title=" ">
<polygon fill="white" stroke="#666666" points="628,-653.25 486,-653.25 486,-634 628,-634 628,-653.25"/>
<text text-anchor="middle" x="557" y="-639.75" font-family="Helvetica,sans-Serif" font-size="10.00">Ogre::MetalUavBufferPacked</text>
</a>
</g>
</g>
<!-- Node28&#45;&gt;Node31 -->
<g id="edge22_Node000028_Node000031" class="edge">
<title>Node28&#45;&gt;Node31</title>
<g id="a_edge22_Node000028_Node000031"><a xlink:title=" ">
<path fill="none" stroke="#63b8ff" d="M435.61,-668.25C458.69,-663.53 484.71,-658.21 506.63,-653.72"/>
<polygon fill="#63b8ff" stroke="#63b8ff" points="435.13,-664.78 426.03,-670.21 436.53,-671.64 435.13,-664.78"/>
</a>
</g>
</g>
<!-- Node32 -->
<g id="Node000032" class="node">
<title>Node32</title>
<g id="a_Node000032"><a xlink:href="class_ogre_1_1_n_u_l_l_uav_buffer_packed.html" target="_top" xlink:title=" ">
<polygon fill="white" stroke="#666666" points="629.5,-616.25 484.5,-616.25 484.5,-597 629.5,-597 629.5,-616.25"/>
<text text-anchor="middle" x="557" y="-602.75" font-family="Helvetica,sans-Serif" font-size="10.00">Ogre::NULLUavBufferPacked</text>
</a>
</g>
</g>
<!-- Node28&#45;&gt;Node32 -->
<g id="edge23_Node000028_Node000032" class="edge">
<title>Node28&#45;&gt;Node32</title>
<g id="a_edge23_Node000028_Node000032"><a xlink:title=" ">
<path fill="none" stroke="#63b8ff" d="M433.89,-666.07C436.08,-665 438.21,-663.85 440.25,-662.62 460.19,-650.64 456.03,-636.13 476.25,-624.62 481.8,-621.47 487.87,-618.86 494.09,-616.72"/>
<polygon fill="#63b8ff" stroke="#63b8ff" points="432.56,-662.83 424.71,-669.95 435.29,-669.28 432.56,-662.83"/>
</a>
</g>
</g>
<!-- Node33 -->
<g id="Node000033" class="node">
<title>Node33</title>
<g id="a_Node000033"><a xlink:href="class_ogre_1_1_vulkan_uav_buffer_packed.html" target="_top" xlink:title=" ">
<polygon fill="white" stroke="#666666" points="631,-579.25 483,-579.25 483,-560 631,-560 631,-579.25"/>
<text text-anchor="middle" x="557" y="-565.75" font-family="Helvetica,sans-Serif" font-size="10.00">Ogre::VulkanUavBufferPacked</text>
</a>
</g>
</g>
<!-- Node28&#45;&gt;Node33 -->
<g id="edge24_Node000028_Node000033" class="edge">
<title>Node28&#45;&gt;Node33</title>
<g id="a_edge24_Node000028_Node000033"><a xlink:title=" ">
<path fill="none" stroke="#63b8ff" d="M437.32,-664.89C438.33,-664.17 439.31,-663.42 440.25,-662.62 468.61,-638.91 447.33,-610.66 476.25,-587.62 480.25,-584.44 484.7,-581.8 489.39,-579.6"/>
<polygon fill="#63b8ff" stroke="#63b8ff" points="435.82,-661.72 428.95,-669.78 439.35,-667.76 435.82,-661.72"/>
</a>
</g>
</g>
<!-- Node36 -->
<g id="Node000036" class="node">
<title>Node36</title>
<g id="a_Node000036"><a xlink:href="class_ogre_1_1_multi_render_target.html" target="_top" xlink:title="This class represents a render target that renders to multiple RenderTextures at once.">
<polygon fill="white" stroke="#666666" points="434.62,-437.25 313.62,-437.25 313.62,-418 434.62,-418 434.62,-437.25"/>
<text text-anchor="middle" x="374.12" y="-423.75" font-family="Helvetica,sans-Serif" font-size="10.00">Ogre::MultiRenderTarget</text>
</a>
</g>
</g>
<!-- Node35&#45;&gt;Node36 -->
<g id="edge27_Node000035_Node000036" class="edge">
<title>Node35&#45;&gt;Node36</title>
<g id="a_edge27_Node000035_Node000036"><a xlink:title=" ">
<path fill="none" stroke="#63b8ff" d="M237.51,-250.56C268.87,-291.52 342.09,-387.11 365.67,-417.89"/>
<polygon fill="#63b8ff" stroke="#63b8ff" points="240.43,-248.63 231.57,-242.82 234.87,-252.88 240.43,-248.63"/>
</a>
</g>
</g>
<!-- Node42 -->
<g id="Node000042" class="node">
<title>Node42</title>
<g id="a_Node000042"><a xlink:href="class_ogre_1_1_render_texture.html" target="_top" xlink:title="This class represents a RenderTarget that renders to a Texture.">
<polygon fill="#fff0f0" stroke="red" points="426.38,-241.25 321.88,-241.25 321.88,-222 426.38,-222 426.38,-241.25"/>
<text text-anchor="middle" x="374.12" y="-227.75" font-family="Helvetica,sans-Serif" font-size="10.00">Ogre::RenderTexture</text>
</a>
</g>
</g>
<!-- Node35&#45;&gt;Node42 -->
<g id="edge33_Node000035_Node000042" class="edge">
<title>Node35&#45;&gt;Node42</title>
<g id="a_edge33_Node000035_Node000042"><a xlink:title=" ">
<path fill="none" stroke="#63b8ff" d="M283.53,-231.62C296.13,-231.62 309.29,-231.62 321.54,-231.62"/>
<polygon fill="#63b8ff" stroke="#63b8ff" points="283.67,-228.13 273.67,-231.63 283.67,-235.13 283.67,-228.13"/>
</a>
</g>
</g>
<!-- Node58 -->
<g id="Node000058" class="node">
<title>Node58</title>
<g id="a_Node000058"><a xlink:href="class_ogre_1_1_render_window.html" target="_top" xlink:title="Manages the target rendering window.">
<polygon fill="#fff0f0" stroke="red" points="427.5,-204.25 320.75,-204.25 320.75,-185 427.5,-185 427.5,-204.25"/>
<text text-anchor="middle" x="374.12" y="-190.75" font-family="Helvetica,sans-Serif" font-size="10.00">Ogre::RenderWindow</text>
</a>
</g>
</g>
<!-- Node35&#45;&gt;Node58 -->
<g id="edge42_Node000035_Node000058" class="edge">
<title>Node35&#45;&gt;Node58</title>
<g id="a_edge42_Node000035_Node000058"><a xlink:title=" ">
<path fill="none" stroke="#63b8ff" d="M275.04,-218.8C293.73,-214.19 314.53,-209.07 332.15,-204.72"/>
<polygon fill="#63b8ff" stroke="#63b8ff" points="274.36,-215.36 265.49,-221.15 276.04,-222.16 274.36,-215.36"/>
</a>
</g>
</g>
<!-- Node37 -->
<g id="Node000037" class="node">
<title>Node37</title>
<g id="a_Node000037"><a xlink:href="class_ogre_1_1_d3_d11_multi_render_target.html" target="_top" xlink:title=" ">
<polygon fill="white" stroke="#666666" points="632.12,-542.25 481.88,-542.25 481.88,-523 632.12,-523 632.12,-542.25"/>
<text text-anchor="middle" x="557" y="-528.75" font-family="Helvetica,sans-Serif" font-size="10.00">Ogre::D3D11MultiRenderTarget</text>
</a>
</g>
</g>
<!-- Node36&#45;&gt;Node37 -->
<g id="edge28_Node000036_Node000037" class="edge">
<title>Node36&#45;&gt;Node37</title>
<g id="a_edge28_Node000036_Node000037"><a xlink:title=" ">
<path fill="none" stroke="#63b8ff" d="M391.18,-446.01C409.68,-465.99 441.96,-497.37 476.25,-514.62 482.59,-517.82 489.49,-520.45 496.5,-522.61"/>
<polygon fill="#63b8ff" stroke="#63b8ff" points="393.79,-443.67 384.49,-438.59 388.6,-448.36 393.79,-443.67"/>
</a>
</g>
</g>
<!-- Node38 -->
<g id="Node000038" class="node">
<title>Node38</title>
<g id="a_Node000038"><a xlink:href="class_ogre_1_1_d3_d9_multi_render_target.html" target="_top" xlink:title=" ">
<polygon fill="white" stroke="#666666" points="629.5,-505.25 484.5,-505.25 484.5,-486 629.5,-486 629.5,-505.25"/>
<text text-anchor="middle" x="557" y="-491.75" font-family="Helvetica,sans-Serif" font-size="10.00">Ogre::D3D9MultiRenderTarget</text>
</a>
</g>
</g>
<!-- Node36&#45;&gt;Node38 -->
<g id="edge29_Node000036_Node000038" class="edge">
<title>Node36&#45;&gt;Node38</title>
<g id="a_edge29_Node000036_Node000038"><a xlink:title=" ">
<path fill="none" stroke="#63b8ff" d="M402.81,-443.07C422.75,-453.68 450.55,-467.46 476.25,-476.62 485.77,-480.02 496.14,-482.99 506.16,-485.52"/>
<polygon fill="#63b8ff" stroke="#63b8ff" points="404.67,-440.1 394.21,-438.42 401.34,-446.26 404.67,-440.1"/>
</a>
</g>
</g>
<!-- Node39 -->
<g id="Node000039" class="node">
<title>Node39</title>
<g id="a_Node000039"><a xlink:href="class_ogre_1_1_g_l3_plus_f_b_o_multi_render_target.html" target="_top" xlink:title="MultiRenderTarget for OpenGL.">
<polygon fill="white" stroke="#666666" points="632.88,-467.88 481.12,-467.88 481.12,-437.38 632.88,-437.38 632.88,-467.88"/>
<text text-anchor="start" x="489.12" y="-454.38" font-family="Helvetica,sans-Serif" font-size="10.00">Ogre::GL3PlusFBOMultiRender</text>
<text text-anchor="middle" x="557" y="-443.12" font-family="Helvetica,sans-Serif" font-size="10.00">Target</text>
</a>
</g>
</g>
<!-- Node36&#45;&gt;Node39 -->
<g id="edge30_Node000036_Node000039" class="edge">
<title>Node36&#45;&gt;Node39</title>
<g id="a_edge30_Node000036_Node000039"><a xlink:title=" ">
<path fill="none" stroke="#63b8ff" d="M446.25,-437.46C457.57,-439.02 469.31,-440.64 480.72,-442.22"/>
<polygon fill="#63b8ff" stroke="#63b8ff" points="446.99,-434.02 436.6,-436.12 446.03,-440.96 446.99,-434.02"/>
</a>
</g>
</g>
<!-- Node40 -->
<g id="Node000040" class="node">
<title>Node40</title>
<g id="a_Node000040"><a xlink:href="class_ogre_1_1_g_l_e_s2_f_b_o_multi_render_target.html" target="_top" xlink:title="MultiRenderTarget for GL ES 2.x.">
<polygon fill="white" stroke="#666666" points="629.5,-418.88 484.5,-418.88 484.5,-388.38 629.5,-388.38 629.5,-418.88"/>
<text text-anchor="start" x="492.5" y="-405.38" font-family="Helvetica,sans-Serif" font-size="10.00">Ogre::GLES2FBOMultiRender</text>
<text text-anchor="middle" x="557" y="-394.12" font-family="Helvetica,sans-Serif" font-size="10.00">Target</text>
</a>
</g>
</g>
<!-- Node36&#45;&gt;Node40 -->
<g id="edge31_Node000036_Node000040" class="edge">
<title>Node36&#45;&gt;Node40</title>
<g id="a_edge31_Node000036_Node000040"><a xlink:title=" ">
<path fill="none" stroke="#63b8ff" d="M446.37,-418.17C458.82,-416.52 471.78,-414.8 484.24,-413.15"/>
<polygon fill="#63b8ff" stroke="#63b8ff" points="446.06,-414.68 436.6,-419.47 446.98,-421.62 446.06,-414.68"/>
</a>
</g>
</g>
<!-- Node41 -->
<g id="Node000041" class="node">
<title>Node41</title>
<g id="a_Node000041"><a xlink:href="class_ogre_1_1_metal_multi_render_target.html" target="_top" xlink:title=" ">
<polygon fill="white" stroke="#666666" points="629.5,-370.25 484.5,-370.25 484.5,-351 629.5,-351 629.5,-370.25"/>
<text text-anchor="middle" x="557" y="-356.75" font-family="Helvetica,sans-Serif" font-size="10.00">Ogre::MetalMultiRenderTarget</text>
</a>
</g>
</g>
<!-- Node36&#45;&gt;Node41 -->
<g id="edge32_Node000036_Node000041" class="edge">
<title>Node36&#45;&gt;Node41</title>
<g id="a_edge32_Node000036_Node000041"><a xlink:title=" ">
<path fill="none" stroke="#63b8ff" d="M403.21,-412.34C423.14,-401.98 450.77,-388.6 476.25,-379.62 485.92,-376.22 496.45,-373.23 506.61,-370.69"/>
<polygon fill="#63b8ff" stroke="#63b8ff" points="401.82,-409.11 394.61,-416.88 405.09,-415.3 401.82,-409.11"/>
</a>
</g>
</g>
<!-- Node43 -->
<g id="Node000043" class="node">
<title>Node43</title>
<g id="a_Node000043"><a xlink:href="class_ogre_1_1_d3_d11_depth_texture_target.html" target="_top" xlink:title=" ">
<polygon fill="white" stroke="#666666" points="635.12,-333.25 478.88,-333.25 478.88,-314 635.12,-314 635.12,-333.25"/>
<text text-anchor="middle" x="557" y="-319.75" font-family="Helvetica,sans-Serif" font-size="10.00">Ogre::D3D11DepthTextureTarget</text>
</a>
</g>
</g>
<!-- Node42&#45;&gt;Node43 -->
<g id="edge34_Node000042_Node000043" class="edge">
<title>Node42&#45;&gt;Node43</title>
<g id="a_edge34_Node000042_Node000043"><a xlink:title=" ">
<path fill="none" stroke="#63b8ff" d="M394.12,-249.28C413.39,-266.23 444.77,-291.31 476.25,-305.62 483.23,-308.8 490.81,-311.43 498.43,-313.62"/>
<polygon fill="#63b8ff" stroke="#63b8ff" points="396.59,-246.8 386.82,-242.71 391.91,-252 396.59,-246.8"/>
</a>
</g>
</g>
<!-- Node44 -->
<g id="Node000044" class="node">
<title>Node44</title>
<g id="a_Node000044"><a xlink:href="class_ogre_1_1_d3_d11_null_texture_target.html" target="_top" xlink:title=" ">
<polygon fill="white" stroke="#666666" points="631,-296.25 483,-296.25 483,-277 631,-277 631,-296.25"/>
<text text-anchor="middle" x="557" y="-282.75" font-family="Helvetica,sans-Serif" font-size="10.00">Ogre::D3D11NullTextureTarget</text>
</a>
</g>
</g>
<!-- Node42&#45;&gt;Node44 -->
<g id="edge35_Node000042_Node000044" class="edge">
<title>Node42&#45;&gt;Node44</title>
<g id="a_edge35_Node000042_Node000044"><a xlink:title=" ">
<path fill="none" stroke="#63b8ff" d="M410.45,-245.82C429.7,-253.23 454.06,-262.09 476.25,-268.62 486.05,-271.51 496.65,-274.2 506.82,-276.57"/>
<polygon fill="#63b8ff" stroke="#63b8ff" points="411.76,-242.57 401.17,-242.2 409.22,-249.1 411.76,-242.57"/>
</a>
</g>
</g>
<!-- Node45 -->
<g id="Node000045" class="node">
<title>Node45</title>
<g id="a_Node000045"><a xlink:href="class_ogre_1_1_d3_d11_render_texture.html" target="_top" xlink:title="RenderTexture implementation for D3D11.">
<polygon fill="white" stroke="#666666" points="623.88,-259.25 490.12,-259.25 490.12,-240 623.88,-240 623.88,-259.25"/>
<text text-anchor="middle" x="557" y="-245.75" font-family="Helvetica,sans-Serif" font-size="10.00">Ogre::D3D11RenderTexture</text>
</a>
</g>
</g>
<!-- Node42&#45;&gt;Node45 -->
<g id="edge36_Node000042_Node000045" class="edge">
<title>Node42&#45;&gt;Node45</title>
<g id="a_edge36_Node000042_Node000045"><a xlink:title=" ">
<path fill="none" stroke="#63b8ff" d="M437.81,-237.86C454.55,-239.53 472.69,-241.33 489.63,-243.02"/>
<polygon fill="#63b8ff" stroke="#63b8ff" points="438.28,-234.39 427.98,-236.88 437.58,-241.36 438.28,-234.39"/>
</a>
</g>
</g>
<!-- Node46 -->
<g id="Node000046" class="node">
<title>Node46</title>
<g id="a_Node000046"><a xlink:href="class_ogre_1_1_d3_d9_render_texture.html" target="_top" xlink:title="RenderTexture implementation for D3D9.">
<polygon fill="white" stroke="#666666" points="621.25,-222.25 492.75,-222.25 492.75,-203 621.25,-203 621.25,-222.25"/>
<text text-anchor="middle" x="557" y="-208.75" font-family="Helvetica,sans-Serif" font-size="10.00">Ogre::D3D9RenderTexture</text>
</a>
</g>
</g>
<!-- Node42&#45;&gt;Node46 -->
<g id="edge37_Node000042_Node000046" class="edge">
<title>Node42&#45;&gt;Node46</title>
<g id="a_edge37_Node000042_Node000046"><a xlink:title=" ">
<path fill="none" stroke="#63b8ff" d="M437.8,-225.04C455.42,-223.19 474.6,-221.18 492.28,-219.32"/>
<polygon fill="#63b8ff" stroke="#63b8ff" points="437.56,-221.55 427.98,-226.07 438.29,-228.51 437.56,-221.55"/>
</a>
</g>
</g>
<!-- Node47 -->
<g id="Node000047" class="node">
<title>Node47</title>
<g id="a_Node000047"><a xlink:href="class_ogre_1_1_g_l3_plus_depth_texture_target.html" target="_top" xlink:title=" ">
<polygon fill="white" stroke="#666666" points="625.75,-184.88 488.25,-184.88 488.25,-154.38 625.75,-154.38 625.75,-184.88"/>
<text text-anchor="start" x="496.25" y="-171.38" font-family="Helvetica,sans-Serif" font-size="10.00">Ogre::GL3PlusDepthTexture</text>
<text text-anchor="middle" x="557" y="-160.12" font-family="Helvetica,sans-Serif" font-size="10.00">Target</text>
</a>
</g>
</g>
<!-- Node42&#45;&gt;Node47 -->
<g id="edge38_Node000042_Node000047" class="edge">
<title>Node42&#45;&gt;Node47</title>
<g id="a_edge38_Node000042_Node000047"><a xlink:title=" ">
<path fill="none" stroke="#63b8ff" d="M428.23,-218.09C432.34,-216.7 436.39,-215.21 440.25,-213.62 457.19,-206.69 459.39,-200.75 476.25,-193.62 483.31,-190.64 490.86,-187.87 498.41,-185.34"/>
<polygon fill="#63b8ff" stroke="#63b8ff" points="427.23,-214.73 418.75,-221.09 429.34,-221.41 427.23,-214.73"/>
</a>
</g>
</g>
<!-- Node48 -->
<g id="Node000048" class="node">
<title>Node48</title>
<g id="a_Node000048"><a xlink:href="class_ogre_1_1_g_l3_plus_null_texture_target.html" target="_top" xlink:title=" ">
<polygon fill="white" stroke="#666666" points="621.62,-135.88 492.38,-135.88 492.38,-105.38 621.62,-105.38 621.62,-135.88"/>
<text text-anchor="start" x="500.38" y="-122.38" font-family="Helvetica,sans-Serif" font-size="10.00">Ogre::GL3PlusNullTexture</text>
<text text-anchor="middle" x="557" y="-111.12" font-family="Helvetica,sans-Serif" font-size="10.00">Target</text>
</a>
</g>
</g>
<!-- Node42&#45;&gt;Node48 -->
<g id="edge39_Node000042_Node000048" class="edge">
<title>Node42&#45;&gt;Node48</title>
<g id="a_edge39_Node000042_Node000048"><a xlink:title=" ">
<path fill="none" stroke="#63b8ff" d="M436.73,-216.22C437.94,-215.4 439.12,-214.53 440.25,-213.62 466.91,-192.21 449.96,-167.49 476.25,-145.62 481.05,-141.64 486.48,-138.28 492.21,-135.46"/>
<polygon fill="#63b8ff" stroke="#63b8ff" points="435.24,-213.05 428.19,-220.95 438.63,-219.17 435.24,-213.05"/>
</a>
</g>
</g>
<!-- Node49 -->
<g id="Node000049" class="node">
<title>Node49</title>
<g id="a_Node000049"><a xlink:href="class_ogre_1_1_g_l3_plus_render_texture.html" target="_top" xlink:title="Base class for GL Render Textures.">
<polygon fill="#fff0f0" stroke="red" points="628.38,-87.25 485.62,-87.25 485.62,-68 628.38,-68 628.38,-87.25"/>
<text text-anchor="middle" x="557" y="-73.75" font-family="Helvetica,sans-Serif" font-size="10.00">Ogre::GL3PlusRenderTexture</text>
</a>
</g>
</g>
<!-- Node42&#45;&gt;Node49 -->
<g id="edge40_Node000042_Node000049" class="edge">
<title>Node42&#45;&gt;Node49</title>
<g id="a_edge40_Node000042_Node000049"><a xlink:title=" ">
<path fill="none" stroke="#63b8ff" d="M436.34,-217C437.71,-215.95 439.01,-214.83 440.25,-213.62 479.27,-175.71 436.56,-133.83 476.25,-96.62 480.09,-93.02 484.49,-90.07 489.2,-87.64"/>
<polygon fill="#63b8ff" stroke="#63b8ff" points="434.61,-213.95 427.86,-222.12 438.23,-219.94 434.61,-213.95"/>
</a>
</g>
</g>
<!-- Node51 -->
<g id="Node000051" class="node">
<title>Node51</title>
<g id="a_Node000051"><a xlink:href="class_ogre_1_1_g_l_e_s2_depth_texture_target.html" target="_top" xlink:title=" ">
<polygon fill="white" stroke="#666666" points="636.25,-50.25 477.75,-50.25 477.75,-31 636.25,-31 636.25,-50.25"/>
<text text-anchor="middle" x="557" y="-36.75" font-family="Helvetica,sans-Serif" font-size="10.00">Ogre::GLES2DepthTextureTarget</text>
</a>
</g>
</g>
<!-- Node42&#45;&gt;Node51 -->
<g id="edge41_Node000042_Node000051" class="edge">
<title>Node42&#45;&gt;Node51</title>
<g id="a_edge41_Node000042_Node000051"><a xlink:title=" ">
<path fill="none" stroke="#63b8ff" d="M436.45,-217.11C437.79,-216.03 439.06,-214.87 440.25,-213.62 489.21,-162.59 426.09,-108.48 476.25,-58.62 479.37,-55.52 482.91,-52.91 486.71,-50.71"/>
<polygon fill="#63b8ff" stroke="#63b8ff" points="434.71,-214.07 428.12,-222.37 438.44,-219.99 434.71,-214.07"/>
</a>
</g>
</g>
<!-- Node72 -->
<g id="Node000072" class="node">
<title>Node72</title>
<g id="a_Node000072"><a xlink:href="class_ogre_1_1_d3_d11_texture_gpu.html" target="_top" xlink:title=" ">
<polygon fill="#fff0f0" stroke="red" points="434.62,-167.25 313.62,-167.25 313.62,-148 434.62,-148 434.62,-167.25"/>
<text text-anchor="middle" x="374.12" y="-153.75" font-family="Helvetica,sans-Serif" font-size="10.00">Ogre::D3D11TextureGpu</text>
</a>
</g>
</g>
<!-- Node71&#45;&gt;Node72 -->
<g id="edge44_Node000071_Node000072" class="edge">
<title>Node71&#45;&gt;Node72</title>
<g id="a_edge44_Node000071_Node000072"><a xlink:title=" ">
<path fill="none" stroke="#63b8ff" d="M254.29,-117.5C270.16,-124.73 289.88,-133.21 308,-139.62 316.07,-142.48 324.84,-145.17 333.24,-147.56"/>
<polygon fill="#63b8ff" stroke="#63b8ff" points="255.9,-114.39 245.35,-113.38 252.96,-120.75 255.9,-114.39"/>
</a>
</g>
</g>
<!-- Node75 -->
<g id="Node000075" class="node">
<title>Node75</title>
<g id="a_Node000075"><a xlink:href="class_ogre_1_1_g_l3_plus_texture_gpu.html" target="_top" xlink:title=" ">
<polygon fill="#fff0f0" stroke="red" points="439.12,-130.25 309.12,-130.25 309.12,-111 439.12,-111 439.12,-130.25"/>
<text text-anchor="middle" x="374.12" y="-116.75" font-family="Helvetica,sans-Serif" font-size="10.00">Ogre::GL3PlusTextureGpu</text>
</a>
</g>
</g>
<!-- Node71&#45;&gt;Node75 -->
<g id="edge45_Node000071_Node000075" class="edge">
<title>Node71&#45;&gt;Node75</title>
<g id="a_edge45_Node000071_Node000075"><a xlink:title=" ">
<path fill="none" stroke="#63b8ff" d="M279.43,-109.39C288.98,-110.54 298.96,-111.73 308.69,-112.9"/>
<polygon fill="#63b8ff" stroke="#63b8ff" points="279.89,-105.92 269.55,-108.21 279.06,-112.87 279.89,-105.92"/>
</a>
</g>
</g>
<!-- Node79 -->
<g id="Node000079" class="node">
<title>Node79</title>
<g id="a_Node000079"><a xlink:href="class_ogre_1_1_metal_texture_gpu.html" target="_top" xlink:title=" ">
<polygon fill="#fff0f0" stroke="red" points="432,-93.25 316.25,-93.25 316.25,-74 432,-74 432,-93.25"/>
<text text-anchor="middle" x="374.12" y="-79.75" font-family="Helvetica,sans-Serif" font-size="10.00">Ogre::MetalTextureGpu</text>
</a>
</g>
</g>
<!-- Node71&#45;&gt;Node79 -->
<g id="edge46_Node000071_Node000079" class="edge">
<title>Node71&#45;&gt;Node79</title>
<g id="a_edge46_Node000071_Node000079"><a xlink:title=" ">
<path fill="none" stroke="#63b8ff" d="M279.26,-95.51C291.21,-93.99 303.85,-92.39 315.85,-90.87"/>
<polygon fill="#63b8ff" stroke="#63b8ff" points="279.03,-92.01 269.54,-96.73 279.9,-98.95 279.03,-92.01"/>
</a>
</g>
</g>
<!-- Node82 -->
<g id="Node000082" class="node">
<title>Node82</title>
<g id="a_Node000082"><a xlink:href="class_ogre_1_1_n_u_l_l_texture_gpu.html" target="_top" xlink:title=" ">
<polygon fill="#fff0f0" stroke="red" points="433.5,-56.25 314.75,-56.25 314.75,-37 433.5,-37 433.5,-56.25"/>
<text text-anchor="middle" x="374.12" y="-42.75" font-family="Helvetica,sans-Serif" font-size="10.00">Ogre::NULLTextureGpu</text>
</a>
</g>
</g>
<!-- Node71&#45;&gt;Node82 -->
<g id="edge47_Node000071_Node000082" class="edge">
<title>Node71&#45;&gt;Node82</title>
<g id="a_edge47_Node000071_Node000082"><a xlink:title=" ">
<path fill="none" stroke="#63b8ff" d="M253.6,-87.6C269.58,-80.1 289.58,-71.24 308,-64.62 315.95,-61.77 324.58,-59.09 332.87,-56.73"/>
<polygon fill="#63b8ff" stroke="#63b8ff" points="252.14,-84.42 244.62,-91.88 255.16,-90.74 252.14,-84.42"/>
</a>
</g>
</g>
<!-- Node84 -->
<g id="Node000084" class="node">
<title>Node84</title>
<g id="a_Node000084"><a xlink:href="class_ogre_1_1_vulkan_texture_gpu.html" target="_top" xlink:title=" ">
<polygon fill="#fff0f0" stroke="red" points="435,-19.25 313.25,-19.25 313.25,0 435,0 435,-19.25"/>
<text text-anchor="middle" x="374.12" y="-5.75" font-family="Helvetica,sans-Serif" font-size="10.00">Ogre::VulkanTextureGpu</text>
</a>
</g>
</g>
<!-- Node71&#45;&gt;Node84 -->
<g id="edge48_Node000071_Node000084" class="edge">
<title>Node71&#45;&gt;Node84</title>
<g id="a_edge48_Node000071_Node000084"><a xlink:title=" ">
<path fill="none" stroke="#63b8ff" d="M238.95,-84.43C254.84,-67.38 280.74,-42.39 308,-27.62 313.78,-24.5 320.14,-21.88 326.56,-19.69"/>
<polygon fill="#63b8ff" stroke="#63b8ff" points="236.75,-81.64 232.62,-91.4 241.93,-86.35 236.75,-81.64"/>
</a>
</g>
</g>
</g>
</svg>
