<?xml version="1.0" encoding="UTF-8" standalone="no"?>
<!DOCTYPE svg PUBLIC "-//W3C//DTD SVG 1.1//EN"
 "http://www.w3.org/Graphics/SVG/1.1/DTD/svg11.dtd">
<!-- Generated by graphviz version 7.0.5 (20221223.1930)
 -->
<!-- Title: Ogre::GpuTrackedResource Pages: 1 -->
<svg width="649pt" height="1251pt"
 viewBox="0.00 0.00 649.00 1251.00" xmlns="http://www.w3.org/2000/svg" xmlns:xlink="http://www.w3.org/1999/xlink">
<g id="graph0" class="graph" transform="scale(1 1) rotate(0) translate(4 1247)">
<title>Ogre::GpuTrackedResource</title>
<!-- Node1 -->
<g id="node1" class="node">
<title>Node1</title>
<g id="a_node1"><a xlink:title=" ">
<polygon fill="#999999" stroke="#666666" points="137,-241 0,-241 0,-222 137,-222 137,-241"/>
<text text-anchor="middle" x="68.5" y="-229" font-family="Helvetica,sans-Serif" font-size="10.00">Ogre::GpuTrackedResource</text>
</a>
</g>
</g>
<!-- Node2 -->
<g id="node2" class="node">
<title>Node2</title>
<g id="a_node2"><a xlink:href="class_ogre_1_1_buffer_packed.html" target="_top" xlink:title=" ">
<polygon fill="white" stroke="#666666" points="274,-837 173,-837 173,-818 274,-818 274,-837"/>
<text text-anchor="middle" x="223.5" y="-825" font-family="Helvetica,sans-Serif" font-size="10.00">Ogre::BufferPacked</text>
</a>
</g>
</g>
<!-- Node1&#45;&gt;Node2 -->
<g id="edge1" class="edge">
<title>Node1&#45;&gt;Node2</title>
<path fill="none" stroke="#63b8ff" d="M74.88,-252.47C99.7,-349.15 202.6,-749.99 220,-817.75"/>
<polygon fill="#63b8ff" stroke="#63b8ff" points="78.28,-251.63 72.4,-242.81 71.5,-253.37 78.28,-251.63"/>
</g>
<!-- Node35 -->
<g id="node27" class="node">
<title>Node35</title>
<g id="a_node27"><a xlink:href="class_ogre_1_1_render_target.html" target="_top" xlink:title="A &#39;canvas&#39; which can receive the results of a rendering operation.">
<polygon fill="white" stroke="#666666" points="274,-241 173,-241 173,-222 274,-222 274,-241"/>
<text text-anchor="middle" x="223.5" y="-229" font-family="Helvetica,sans-Serif" font-size="10.00">Ogre::RenderTarget</text>
</a>
</g>
</g>
<!-- Node1&#45;&gt;Node35 -->
<g id="edge26" class="edge">
<title>Node1&#45;&gt;Node35</title>
<path fill="none" stroke="#63b8ff" d="M148.9,-231.5C156.96,-231.5 164.99,-231.5 172.61,-231.5"/>
<polygon fill="#63b8ff" stroke="#63b8ff" points="149.01,-228 139.01,-231.5 149.01,-235 149.01,-228"/>
</g>
<!-- Node71 -->
<g id="node44" class="node">
<title>Node71</title>
<g id="a_node44"><a xlink:href="class_ogre_1_1_texture_gpu.html" target="_top" xlink:title=" ">
<polygon fill="white" stroke="#666666" points="269.5,-112 177.5,-112 177.5,-93 269.5,-93 269.5,-112"/>
<text text-anchor="middle" x="223.5" y="-100" font-family="Helvetica,sans-Serif" font-size="10.00">Ogre::TextureGpu</text>
</a>
</g>
</g>
<!-- Node1&#45;&gt;Node71 -->
<g id="edge43" class="edge">
<title>Node1&#45;&gt;Node71</title>
<path fill="none" stroke="#63b8ff" d="M89.66,-214.5C122.12,-187.14 184.93,-134.17 210.87,-112.31"/>
<polygon fill="#63b8ff" stroke="#63b8ff" points="87.55,-211.71 82.16,-220.83 92.06,-217.06 87.55,-211.71"/>
</g>
<!-- Node3 -->
<g id="node3" class="node">
<title>Node3</title>
<g id="a_node3"><a xlink:href="class_ogre_1_1_const_buffer_packed.html" target="_top" xlink:title="Represents constant buffers (also known as Uniform Buffers in GL)">
<polygon fill="white" stroke="#666666" points="439.5,-1120 313.5,-1120 313.5,-1101 439.5,-1101 439.5,-1120"/>
<text text-anchor="middle" x="376.5" y="-1108" font-family="Helvetica,sans-Serif" font-size="10.00">Ogre::ConstBufferPacked</text>
</a>
</g>
</g>
<!-- Node2&#45;&gt;Node3 -->
<g id="edge2" class="edge">
<title>Node2&#45;&gt;Node3</title>
<path fill="none" stroke="#63b8ff" d="M235.02,-847.22C264.68,-902.81 348.23,-1059.39 370.17,-1100.51"/>
<polygon fill="#63b8ff" stroke="#63b8ff" points="238.21,-845.75 230.41,-838.58 232.03,-849.05 238.21,-845.75"/>
</g>
<!-- Node10 -->
<g id="node10" class="node">
<title>Node10</title>
<g id="a_node10"><a xlink:href="class_ogre_1_1_index_buffer_packed.html" target="_top" xlink:title=" ">
<polygon fill="white" stroke="#666666" points="438.5,-911 314.5,-911 314.5,-892 438.5,-892 438.5,-911"/>
<text text-anchor="middle" x="376.5" y="-899" font-family="Helvetica,sans-Serif" font-size="10.00">Ogre::IndexBufferPacked</text>
</a>
</g>
</g>
<!-- Node2&#45;&gt;Node10 -->
<g id="edge9" class="edge">
<title>Node2&#45;&gt;Node10</title>
<path fill="none" stroke="#63b8ff" d="M245.69,-844.08C262.36,-856.44 286.61,-872.94 310,-883.5 316.88,-886.61 324.41,-889.28 331.84,-891.55"/>
<polygon fill="#63b8ff" stroke="#63b8ff" points="248.1,-841.52 238.02,-838.27 243.88,-847.1 248.1,-841.52"/>
</g>
<!-- Node11 -->
<g id="node11" class="node">
<title>Node11</title>
<g id="a_node11"><a xlink:href="class_ogre_1_1_indirect_buffer_packed.html" target="_top" xlink:title="Represents Indirect buffers for storing draw call commands.">
<polygon fill="white" stroke="#666666" points="443,-874 310,-874 310,-855 443,-855 443,-874"/>
<text text-anchor="middle" x="376.5" y="-862" font-family="Helvetica,sans-Serif" font-size="10.00">Ogre::IndirectBufferPacked</text>
</a>
</g>
</g>
<!-- Node2&#45;&gt;Node11 -->
<g id="edge10" class="edge">
<title>Node2&#45;&gt;Node11</title>
<path fill="none" stroke="#63b8ff" d="M275.98,-840.12C295.23,-844.83 316.8,-850.12 334.92,-854.56"/>
<polygon fill="#63b8ff" stroke="#63b8ff" points="276.98,-836.76 266.44,-837.78 275.31,-843.55 276.98,-836.76"/>
</g>
<!-- Node12 -->
<g id="node12" class="node">
<title>Node12</title>
<g id="a_node12"><a xlink:href="class_ogre_1_1_tex_buffer_packed.html" target="_top" xlink:title="Represents Texture buffers (also known as tbuffers in D3D11)">
<polygon fill="white" stroke="#666666" points="434.5,-837 318.5,-837 318.5,-818 434.5,-818 434.5,-837"/>
<text text-anchor="middle" x="376.5" y="-825" font-family="Helvetica,sans-Serif" font-size="10.00">Ogre::TexBufferPacked</text>
</a>
</g>
</g>
<!-- Node2&#45;&gt;Node12 -->
<g id="edge11" class="edge">
<title>Node2&#45;&gt;Node12</title>
<path fill="none" stroke="#63b8ff" d="M285.76,-827.5C296.45,-827.5 307.53,-827.5 318.1,-827.5"/>
<polygon fill="#63b8ff" stroke="#63b8ff" points="285.88,-824 275.88,-827.5 285.88,-831 285.88,-824"/>
</g>
<!-- Node28 -->
<g id="node20" class="node">
<title>Node28</title>
<g id="a_node20"><a xlink:href="class_ogre_1_1_uav_buffer_packed.html" target="_top" xlink:title="Represents UAV buffers (also known as SSBOs in OpenGL) Uav buffers are supported in DX10/DX10....">
<polygon fill="white" stroke="#666666" points="436,-689 317,-689 317,-670 436,-670 436,-689"/>
<text text-anchor="middle" x="376.5" y="-677" font-family="Helvetica,sans-Serif" font-size="10.00">Ogre::UavBufferPacked</text>
</a>
</g>
</g>
<!-- Node2&#45;&gt;Node28 -->
<g id="edge19" class="edge">
<title>Node2&#45;&gt;Node28</title>
<path fill="none" stroke="#63b8ff" d="M242.46,-809.89C274.42,-778.57 340.16,-714.14 365.36,-689.44"/>
<polygon fill="#63b8ff" stroke="#63b8ff" points="240.18,-807.23 235.49,-816.73 245.08,-812.23 240.18,-807.23"/>
</g>
<!-- Node34 -->
<g id="node26" class="node">
<title>Node34</title>
<g id="a_node26"><a xlink:href="class_ogre_1_1_vertex_buffer_packed.html" target="_top" xlink:title=" ">
<polygon fill="white" stroke="#666666" points="440.5,-652 312.5,-652 312.5,-633 440.5,-633 440.5,-652"/>
<text text-anchor="middle" x="376.5" y="-640" font-family="Helvetica,sans-Serif" font-size="10.00">Ogre::VertexBufferPacked</text>
</a>
</g>
</g>
<!-- Node2&#45;&gt;Node34 -->
<g id="edge25" class="edge">
<title>Node2&#45;&gt;Node34</title>
<path fill="none" stroke="#63b8ff" d="M229.46,-806.7C238.93,-771.49 262.99,-700.2 310,-661.5 314.48,-657.81 319.64,-654.84 325.07,-652.45"/>
<polygon fill="#63b8ff" stroke="#63b8ff" points="226.15,-805.52 227.07,-816.07 232.93,-807.24 226.15,-805.52"/>
</g>
<!-- Node4 -->
<g id="node4" class="node">
<title>Node4</title>
<g id="a_node4"><a xlink:href="class_ogre_1_1_d3_d11_const_buffer_packed.html" target="_top" xlink:title=" ">
<polygon fill="white" stroke="#666666" points="637.5,-1243 482.5,-1243 482.5,-1224 637.5,-1224 637.5,-1243"/>
<text text-anchor="middle" x="560" y="-1231" font-family="Helvetica,sans-Serif" font-size="10.00">Ogre::D3D11ConstBufferPacked</text>
</a>
</g>
</g>
<!-- Node3&#45;&gt;Node4 -->
<g id="edge3" class="edge">
<title>Node3&#45;&gt;Node4</title>
<path fill="none" stroke="#63b8ff" d="M390.77,-1129.64C408.22,-1153.3 441.14,-1193.05 479,-1214.5 485.46,-1218.16 492.59,-1221.11 499.87,-1223.5"/>
<polygon fill="#63b8ff" stroke="#63b8ff" points="393.63,-1127.62 384.96,-1121.53 387.94,-1131.7 393.63,-1127.62"/>
</g>
<!-- Node5 -->
<g id="node5" class="node">
<title>Node5</title>
<g id="a_node5"><a xlink:href="class_ogre_1_1_g_l3_plus_const_buffer_packed.html" target="_top" xlink:title=" ">
<polygon fill="white" stroke="#666666" points="625.5,-1205.5 494.5,-1205.5 494.5,-1175.5 625.5,-1175.5 625.5,-1205.5"/>
<text text-anchor="start" x="502.5" y="-1193.5" font-family="Helvetica,sans-Serif" font-size="10.00">Ogre::GL3PlusConstBuffer</text>
<text text-anchor="middle" x="560" y="-1182.5" font-family="Helvetica,sans-Serif" font-size="10.00">Packed</text>
</a>
</g>
</g>
<!-- Node3&#45;&gt;Node5 -->
<g id="edge4" class="edge">
<title>Node3&#45;&gt;Node5</title>
<path fill="none" stroke="#63b8ff" d="M402.42,-1126.21C422.52,-1138.4 451.82,-1155.08 479,-1166.5 486.35,-1169.59 494.24,-1172.46 502.09,-1175.06"/>
<polygon fill="#63b8ff" stroke="#63b8ff" points="404.45,-1123.35 394.09,-1121.09 400.78,-1129.31 404.45,-1123.35"/>
</g>
<!-- Node6 -->
<g id="node6" class="node">
<title>Node6</title>
<g id="a_node6"><a xlink:href="class_ogre_1_1_g_l_e_s2_const_buffer_packed.html" target="_top" xlink:title=" ">
<polygon fill="white" stroke="#666666" points="639,-1157 481,-1157 481,-1138 639,-1138 639,-1157"/>
<text text-anchor="middle" x="560" y="-1145" font-family="Helvetica,sans-Serif" font-size="10.00">Ogre::GLES2ConstBufferPacked</text>
</a>
</g>
</g>
<!-- Node3&#45;&gt;Node6 -->
<g id="edge5" class="edge">
<title>Node3&#45;&gt;Node6</title>
<path fill="none" stroke="#63b8ff" d="M437.12,-1122.65C460.82,-1127.48 487.73,-1132.97 510.23,-1137.56"/>
<polygon fill="#63b8ff" stroke="#63b8ff" points="438.12,-1119.29 427.62,-1120.72 436.72,-1126.14 438.12,-1119.29"/>
</g>
<!-- Node7 -->
<g id="node7" class="node">
<title>Node7</title>
<g id="a_node7"><a xlink:href="class_ogre_1_1_metal_const_buffer_packed.html" target="_top" xlink:title=" ">
<polygon fill="white" stroke="#666666" points="635,-1120 485,-1120 485,-1101 635,-1101 635,-1120"/>
<text text-anchor="middle" x="560" y="-1108" font-family="Helvetica,sans-Serif" font-size="10.00">Ogre::MetalConstBufferPacked</text>
</a>
</g>
</g>
<!-- Node3&#45;&gt;Node7 -->
<g id="edge6" class="edge">
<title>Node3&#45;&gt;Node7</title>
<path fill="none" stroke="#63b8ff" d="M451.25,-1110.5C462.22,-1110.5 473.54,-1110.5 484.53,-1110.5"/>
<polygon fill="#63b8ff" stroke="#63b8ff" points="451.48,-1107 441.48,-1110.5 451.48,-1114 451.48,-1107"/>
</g>
<!-- Node8 -->
<g id="node8" class="node">
<title>Node8</title>
<g id="a_node8"><a xlink:href="class_ogre_1_1_n_u_l_l_const_buffer_packed.html" target="_top" xlink:title=" ">
<polygon fill="white" stroke="#666666" points="636.5,-1083 483.5,-1083 483.5,-1064 636.5,-1064 636.5,-1083"/>
<text text-anchor="middle" x="560" y="-1071" font-family="Helvetica,sans-Serif" font-size="10.00">Ogre::NULLConstBufferPacked</text>
</a>
</g>
</g>
<!-- Node3&#45;&gt;Node8 -->
<g id="edge7" class="edge">
<title>Node3&#45;&gt;Node8</title>
<path fill="none" stroke="#63b8ff" d="M437.12,-1098.35C460.82,-1093.52 487.73,-1088.03 510.23,-1083.44"/>
<polygon fill="#63b8ff" stroke="#63b8ff" points="436.72,-1094.86 427.62,-1100.28 438.12,-1101.71 436.72,-1094.86"/>
</g>
<!-- Node9 -->
<g id="node9" class="node">
<title>Node9</title>
<g id="a_node9"><a xlink:href="class_ogre_1_1_vulkan_const_buffer_packed.html" target="_top" xlink:title=" ">
<polygon fill="white" stroke="#666666" points="638,-1046 482,-1046 482,-1027 638,-1027 638,-1046"/>
<text text-anchor="middle" x="560" y="-1034" font-family="Helvetica,sans-Serif" font-size="10.00">Ogre::VulkanConstBufferPacked</text>
</a>
</g>
</g>
<!-- Node3&#45;&gt;Node9 -->
<g id="edge8" class="edge">
<title>Node3&#45;&gt;Node9</title>
<path fill="none" stroke="#63b8ff" d="M402.28,-1094.66C422.31,-1082.47 451.58,-1065.98 479,-1055.5 488.2,-1051.99 498.25,-1048.98 508.03,-1046.48"/>
<polygon fill="#63b8ff" stroke="#63b8ff" points="400.65,-1091.55 394,-1099.8 404.34,-1097.5 400.65,-1091.55"/>
</g>
<!-- Node13 -->
<g id="node13" class="node">
<title>Node13</title>
<g id="a_node13"><a xlink:href="class_ogre_1_1_d3_d11_tex_buffer_packed.html" target="_top" xlink:title=" ">
<polygon fill="white" stroke="#666666" points="633,-1009 487,-1009 487,-990 633,-990 633,-1009"/>
<text text-anchor="middle" x="560" y="-997" font-family="Helvetica,sans-Serif" font-size="10.00">Ogre::D3D11TexBufferPacked</text>
</a>
</g>
</g>
<!-- Node12&#45;&gt;Node13 -->
<g id="edge12" class="edge">
<title>Node12&#45;&gt;Node13</title>
<path fill="none" stroke="#63b8ff" d="M439.77,-843.53C440.89,-844.46 441.97,-845.45 443,-846.5 486.17,-890.54 434.76,-937.54 479,-980.5 482.79,-984.18 487.15,-987.19 491.85,-989.65"/>
<polygon fill="#63b8ff" stroke="#63b8ff" points="441.9,-840.74 431.62,-838.19 438.06,-846.6 441.9,-840.74"/>
</g>
<!-- Node14 -->
<g id="node14" class="node">
<title>Node14</title>
<g id="a_node14"><a xlink:href="class_ogre_1_1_g_l3_plus_tex_buffer_emulated_packed.html" target="_top" xlink:title=" ">
<polygon fill="white" stroke="#666666" points="641,-971.5 479,-971.5 479,-941.5 641,-941.5 641,-971.5"/>
<text text-anchor="start" x="487" y="-959.5" font-family="Helvetica,sans-Serif" font-size="10.00">Ogre::GL3PlusTexBufferEmulated</text>
<text text-anchor="middle" x="560" y="-948.5" font-family="Helvetica,sans-Serif" font-size="10.00">Packed</text>
</a>
</g>
</g>
<!-- Node12&#45;&gt;Node14 -->
<g id="edge13" class="edge">
<title>Node12&#45;&gt;Node14</title>
<path fill="none" stroke="#63b8ff" d="M438.49,-842.93C440.06,-844.04 441.57,-845.23 443,-846.5 473.92,-874.08 448.2,-904.78 479,-932.5 482.66,-935.8 486.77,-938.64 491.13,-941.1"/>
<polygon fill="#63b8ff" stroke="#63b8ff" points="440.61,-840.11 430.2,-838.16 437.12,-846.18 440.61,-840.11"/>
</g>
<!-- Node15 -->
<g id="node15" class="node">
<title>Node15</title>
<g id="a_node15"><a xlink:href="class_ogre_1_1_g_l3_plus_tex_buffer_packed.html" target="_top" xlink:title=" ">
<polygon fill="white" stroke="#666666" points="637.5,-923 482.5,-923 482.5,-904 637.5,-904 637.5,-923"/>
<text text-anchor="middle" x="560" y="-911" font-family="Helvetica,sans-Serif" font-size="10.00">Ogre::GL3PlusTexBufferPacked</text>
</a>
</g>
</g>
<!-- Node12&#45;&gt;Node15 -->
<g id="edge14" class="edge">
<title>Node12&#45;&gt;Node15</title>
<path fill="none" stroke="#63b8ff" d="M435.6,-842.04C438.17,-843.4 440.66,-844.88 443,-846.5 464.94,-861.66 456.7,-879.88 479,-894.5 484.61,-898.18 490.86,-901.15 497.32,-903.54"/>
<polygon fill="#63b8ff" stroke="#63b8ff" points="437.26,-838.95 426.7,-838.02 434.38,-845.33 437.26,-838.95"/>
</g>
<!-- Node16 -->
<g id="node16" class="node">
<title>Node16</title>
<g id="a_node16"><a xlink:href="class_ogre_1_1_g_l_e_s2_tex_buffer_emulated_packed.html" target="_top" xlink:title=" ">
<polygon fill="white" stroke="#666666" points="637.5,-885.5 482.5,-885.5 482.5,-855.5 637.5,-855.5 637.5,-885.5"/>
<text text-anchor="start" x="490.5" y="-873.5" font-family="Helvetica,sans-Serif" font-size="10.00">Ogre::GLES2TexBufferEmulated</text>
<text text-anchor="middle" x="560" y="-862.5" font-family="Helvetica,sans-Serif" font-size="10.00">Packed</text>
</a>
</g>
</g>
<!-- Node12&#45;&gt;Node16 -->
<g id="edge15" class="edge">
<title>Node12&#45;&gt;Node16</title>
<path fill="none" stroke="#63b8ff" d="M430.55,-840.07C450.29,-844.75 472.94,-850.11 493.67,-855.02"/>
<polygon fill="#63b8ff" stroke="#63b8ff" points="431.61,-836.72 421.07,-837.82 429.99,-843.53 431.61,-836.72"/>
</g>
<!-- Node17 -->
<g id="node17" class="node">
<title>Node17</title>
<g id="a_node17"><a xlink:href="class_ogre_1_1_n_u_l_l_tex_buffer_packed.html" target="_top" xlink:title=" ">
<polygon fill="white" stroke="#666666" points="631.5,-837 488.5,-837 488.5,-818 631.5,-818 631.5,-837"/>
<text text-anchor="middle" x="560" y="-825" font-family="Helvetica,sans-Serif" font-size="10.00">Ogre::NULLTexBufferPacked</text>
</a>
</g>
</g>
<!-- Node12&#45;&gt;Node17 -->
<g id="edge16" class="edge">
<title>Node12&#45;&gt;Node17</title>
<path fill="none" stroke="#63b8ff" d="M446.26,-827.5C460,-827.5 474.44,-827.5 488.24,-827.5"/>
<polygon fill="#63b8ff" stroke="#63b8ff" points="446.44,-824 436.44,-827.5 446.44,-831 446.44,-824"/>
</g>
<!-- Node18 -->
<g id="node18" class="node">
<title>Node18</title>
<g id="a_node18"><a xlink:href="class_ogre_1_1_read_only_buffer_packed.html" target="_top" xlink:title="Represents the best way to access read&#45;only data.">
<polygon fill="#fff0f0" stroke="red" points="631.5,-800 488.5,-800 488.5,-781 631.5,-781 631.5,-800"/>
<text text-anchor="middle" x="560" y="-788" font-family="Helvetica,sans-Serif" font-size="10.00">Ogre::ReadOnlyBufferPacked</text>
</a>
</g>
</g>
<!-- Node12&#45;&gt;Node18 -->
<g id="edge17" class="edge">
<title>Node12&#45;&gt;Node18</title>
<path fill="none" stroke="#63b8ff" d="M437.12,-815.35C460.82,-810.52 487.73,-805.03 510.23,-800.44"/>
<polygon fill="#63b8ff" stroke="#63b8ff" points="436.72,-811.86 427.62,-817.28 438.12,-818.71 436.72,-811.86"/>
</g>
<!-- Node27 -->
<g id="node19" class="node">
<title>Node27</title>
<g id="a_node19"><a xlink:href="class_ogre_1_1_vulkan_tex_buffer_packed.html" target="_top" xlink:title=" ">
<polygon fill="white" stroke="#666666" points="633,-763 487,-763 487,-744 633,-744 633,-763"/>
<text text-anchor="middle" x="560" y="-751" font-family="Helvetica,sans-Serif" font-size="10.00">Ogre::VulkanTexBufferPacked</text>
</a>
</g>
</g>
<!-- Node12&#45;&gt;Node27 -->
<g id="edge18" class="edge">
<title>Node12&#45;&gt;Node27</title>
<path fill="none" stroke="#63b8ff" d="M402.28,-811.66C422.31,-799.47 451.58,-782.98 479,-772.5 488.2,-768.99 498.25,-765.98 508.03,-763.48"/>
<polygon fill="#63b8ff" stroke="#63b8ff" points="400.65,-808.55 394,-816.8 404.34,-814.5 400.65,-808.55"/>
</g>
<!-- Node29 -->
<g id="node21" class="node">
<title>Node29</title>
<g id="a_node21"><a xlink:href="class_ogre_1_1_d3_d11_uav_buffer_packed.html" target="_top" xlink:title=" ">
<polygon fill="white" stroke="#666666" points="634,-726 486,-726 486,-707 634,-707 634,-726"/>
<text text-anchor="middle" x="560" y="-714" font-family="Helvetica,sans-Serif" font-size="10.00">Ogre::D3D11UavBufferPacked</text>
</a>
</g>
</g>
<!-- Node28&#45;&gt;Node29 -->
<g id="edge20" class="edge">
<title>Node28&#45;&gt;Node29</title>
<path fill="none" stroke="#63b8ff" d="M437.12,-691.65C460.82,-696.48 487.73,-701.97 510.23,-706.56"/>
<polygon fill="#63b8ff" stroke="#63b8ff" points="438.12,-688.29 427.62,-689.72 436.72,-695.14 438.12,-688.29"/>
</g>
<!-- Node30 -->
<g id="node22" class="node">
<title>Node30</title>
<g id="a_node22"><a xlink:href="class_ogre_1_1_g_l3_plus_uav_buffer_packed.html" target="_top" xlink:title=" ">
<polygon fill="white" stroke="#666666" points="638.5,-689 481.5,-689 481.5,-670 638.5,-670 638.5,-689"/>
<text text-anchor="middle" x="560" y="-677" font-family="Helvetica,sans-Serif" font-size="10.00">Ogre::GL3PlusUavBufferPacked</text>
</a>
</g>
</g>
<!-- Node28&#45;&gt;Node30 -->
<g id="edge21" class="edge">
<title>Node28&#45;&gt;Node30</title>
<path fill="none" stroke="#63b8ff" d="M447.69,-679.5C458.67,-679.5 470.07,-679.5 481.21,-679.5"/>
<polygon fill="#63b8ff" stroke="#63b8ff" points="447.94,-676 437.94,-679.5 447.94,-683 447.94,-676"/>
</g>
<!-- Node31 -->
<g id="node23" class="node">
<title>Node31</title>
<g id="a_node23"><a xlink:href="class_ogre_1_1_metal_uav_buffer_packed.html" target="_top" xlink:title=" ">
<polygon fill="white" stroke="#666666" points="631.5,-652 488.5,-652 488.5,-633 631.5,-633 631.5,-652"/>
<text text-anchor="middle" x="560" y="-640" font-family="Helvetica,sans-Serif" font-size="10.00">Ogre::MetalUavBufferPacked</text>
</a>
</g>
</g>
<!-- Node28&#45;&gt;Node31 -->
<g id="edge22" class="edge">
<title>Node28&#45;&gt;Node31</title>
<path fill="none" stroke="#63b8ff" d="M437.12,-667.35C460.82,-662.52 487.73,-657.03 510.23,-652.44"/>
<polygon fill="#63b8ff" stroke="#63b8ff" points="436.72,-663.86 427.62,-669.28 438.12,-670.71 436.72,-663.86"/>
</g>
<!-- Node32 -->
<g id="node24" class="node">
<title>Node32</title>
<g id="a_node24"><a xlink:href="class_ogre_1_1_n_u_l_l_uav_buffer_packed.html" target="_top" xlink:title=" ">
<polygon fill="white" stroke="#666666" points="633,-615 487,-615 487,-596 633,-596 633,-615"/>
<text text-anchor="middle" x="560" y="-603" font-family="Helvetica,sans-Serif" font-size="10.00">Ogre::NULLUavBufferPacked</text>
</a>
</g>
</g>
<!-- Node28&#45;&gt;Node32 -->
<g id="edge23" class="edge">
<title>Node28&#45;&gt;Node32</title>
<path fill="none" stroke="#63b8ff" d="M435.78,-665.3C438.27,-664.13 440.69,-662.87 443,-661.5 462.75,-649.83 459.05,-635.82 479,-624.5 485.46,-620.84 492.59,-617.88 499.86,-615.49"/>
<polygon fill="#63b8ff" stroke="#63b8ff" points="434.57,-662.02 426.65,-669.04 437.23,-668.49 434.57,-662.02"/>
</g>
<!-- Node33 -->
<g id="node25" class="node">
<title>Node33</title>
<g id="a_node25"><a xlink:href="class_ogre_1_1_vulkan_uav_buffer_packed.html" target="_top" xlink:title=" ">
<polygon fill="white" stroke="#666666" points="634.5,-578 485.5,-578 485.5,-559 634.5,-559 634.5,-578"/>
<text text-anchor="middle" x="560" y="-566" font-family="Helvetica,sans-Serif" font-size="10.00">Ogre::VulkanUavBufferPacked</text>
</a>
</g>
</g>
<!-- Node28&#45;&gt;Node33 -->
<g id="edge24" class="edge">
<title>Node28&#45;&gt;Node33</title>
<path fill="none" stroke="#63b8ff" d="M439.59,-664.1C440.76,-663.28 441.9,-662.41 443,-661.5 471.14,-638.13 450.46,-610.37 479,-587.5 483.57,-583.84 488.72,-580.86 494.16,-578.45"/>
<polygon fill="#63b8ff" stroke="#63b8ff" points="438.24,-660.84 431.29,-668.83 441.71,-666.92 438.24,-660.84"/>
</g>
<!-- Node36 -->
<g id="node28" class="node">
<title>Node36</title>
<g id="a_node28"><a xlink:href="class_ogre_1_1_multi_render_target.html" target="_top" xlink:title="This class represents a render target that renders to multiple RenderTextures at once.">
<polygon fill="white" stroke="#666666" points="437.5,-437 315.5,-437 315.5,-418 437.5,-418 437.5,-437"/>
<text text-anchor="middle" x="376.5" y="-425" font-family="Helvetica,sans-Serif" font-size="10.00">Ogre::MultiRenderTarget</text>
</a>
</g>
</g>
<!-- Node35&#45;&gt;Node36 -->
<g id="edge27" class="edge">
<title>Node35&#45;&gt;Node36</title>
<path fill="none" stroke="#63b8ff" d="M239.09,-250.44C270.64,-291.39 344.28,-386.98 368,-417.76"/>
<polygon fill="#63b8ff" stroke="#63b8ff" points="242,-248.47 233.12,-242.69 236.45,-252.75 242,-248.47"/>
</g>
<!-- Node42 -->
<g id="node34" class="node">
<title>Node42</title>
<g id="a_node34"><a xlink:href="class_ogre_1_1_render_texture.html" target="_top" xlink:title="This class represents a RenderTarget that renders to a Texture.">
<polygon fill="#fff0f0" stroke="red" points="429,-241 324,-241 324,-222 429,-222 429,-241"/>
<text text-anchor="middle" x="376.5" y="-229" font-family="Helvetica,sans-Serif" font-size="10.00">Ogre::RenderTexture</text>
</a>
</g>
</g>
<!-- Node35&#45;&gt;Node42 -->
<g id="edge33" class="edge">
<title>Node35&#45;&gt;Node42</title>
<path fill="none" stroke="#63b8ff" d="M285.71,-231.5C298.29,-231.5 311.41,-231.5 323.62,-231.5"/>
<polygon fill="#63b8ff" stroke="#63b8ff" points="285.88,-228 275.88,-231.5 285.88,-235 285.88,-228"/>
</g>
<!-- Node58 -->
<g id="node43" class="node">
<title>Node58</title>
<g id="a_node43"><a xlink:href="class_ogre_1_1_render_window.html" target="_top" xlink:title="Manages the target rendering window.">
<polygon fill="#fff0f0" stroke="red" points="430,-204 323,-204 323,-185 430,-185 430,-204"/>
<text text-anchor="middle" x="376.5" y="-192" font-family="Helvetica,sans-Serif" font-size="10.00">Ogre::RenderWindow</text>
</a>
</g>
</g>
<!-- Node35&#45;&gt;Node58 -->
<g id="edge42" class="edge">
<title>Node35&#45;&gt;Node58</title>
<path fill="none" stroke="#63b8ff" d="M275.98,-218.88C295.23,-214.17 316.8,-208.88 334.92,-204.44"/>
<polygon fill="#63b8ff" stroke="#63b8ff" points="275.31,-215.45 266.44,-221.22 276.98,-222.24 275.31,-215.45"/>
</g>
<!-- Node37 -->
<g id="node29" class="node">
<title>Node37</title>
<g id="a_node29"><a xlink:href="class_ogre_1_1_d3_d11_multi_render_target.html" target="_top" xlink:title=" ">
<polygon fill="white" stroke="#666666" points="635.5,-541 484.5,-541 484.5,-522 635.5,-522 635.5,-541"/>
<text text-anchor="middle" x="560" y="-529" font-family="Helvetica,sans-Serif" font-size="10.00">Ogre::D3D11MultiRenderTarget</text>
</a>
</g>
</g>
<!-- Node36&#45;&gt;Node37 -->
<g id="edge28" class="edge">
<title>Node36&#45;&gt;Node37</title>
<path fill="none" stroke="#63b8ff" d="M393.67,-445.67C412.29,-465.41 444.73,-496.43 479,-513.5 485.5,-516.74 492.58,-519.4 499.76,-521.59"/>
<polygon fill="#63b8ff" stroke="#63b8ff" points="396.29,-443.34 386.94,-438.34 391.13,-448.07 396.29,-443.34"/>
</g>
<!-- Node38 -->
<g id="node30" class="node">
<title>Node38</title>
<g id="a_node30"><a xlink:href="class_ogre_1_1_d3_d9_multi_render_target.html" target="_top" xlink:title=" ">
<polygon fill="white" stroke="#666666" points="633,-504 487,-504 487,-485 633,-485 633,-504"/>
<text text-anchor="middle" x="560" y="-492" font-family="Helvetica,sans-Serif" font-size="10.00">Ogre::D3D9MultiRenderTarget</text>
</a>
</g>
</g>
<!-- Node36&#45;&gt;Node38 -->
<g id="edge29" class="edge">
<title>Node36&#45;&gt;Node38</title>
<path fill="none" stroke="#63b8ff" d="M405.33,-442.6C425.36,-452.98 453.27,-466.47 479,-475.5 488.83,-478.95 499.56,-481.98 509.88,-484.54"/>
<polygon fill="#63b8ff" stroke="#63b8ff" points="407.17,-439.61 396.69,-438.05 403.91,-445.81 407.17,-439.61"/>
</g>
<!-- Node39 -->
<g id="node31" class="node">
<title>Node39</title>
<g id="a_node31"><a xlink:href="class_ogre_1_1_g_l3_plus_f_b_o_multi_render_target.html" target="_top" xlink:title="MultiRenderTarget for OpenGL.">
<polygon fill="white" stroke="#666666" points="636,-466.5 484,-466.5 484,-436.5 636,-436.5 636,-466.5"/>
<text text-anchor="start" x="492" y="-454.5" font-family="Helvetica,sans-Serif" font-size="10.00">Ogre::GL3PlusFBOMultiRender</text>
<text text-anchor="middle" x="560" y="-443.5" font-family="Helvetica,sans-Serif" font-size="10.00">Target</text>
</a>
</g>
</g>
<!-- Node36&#45;&gt;Node39 -->
<g id="edge30" class="edge">
<title>Node36&#45;&gt;Node39</title>
<path fill="none" stroke="#63b8ff" d="M449.11,-436.97C460.46,-438.47 472.22,-440.03 483.65,-441.54"/>
<polygon fill="#63b8ff" stroke="#63b8ff" points="449.81,-433.53 439.44,-435.69 448.89,-440.47 449.81,-433.53"/>
</g>
<!-- Node40 -->
<g id="node32" class="node">
<title>Node40</title>
<g id="a_node32"><a xlink:href="class_ogre_1_1_g_l_e_s2_f_b_o_multi_render_target.html" target="_top" xlink:title="MultiRenderTarget for GL ES 2.x.">
<polygon fill="white" stroke="#666666" points="633,-418.5 487,-418.5 487,-388.5 633,-388.5 633,-418.5"/>
<text text-anchor="start" x="495" y="-406.5" font-family="Helvetica,sans-Serif" font-size="10.00">Ogre::GLES2FBOMultiRender</text>
<text text-anchor="middle" x="560" y="-395.5" font-family="Helvetica,sans-Serif" font-size="10.00">Target</text>
</a>
</g>
</g>
<!-- Node36&#45;&gt;Node40 -->
<g id="edge31" class="edge">
<title>Node36&#45;&gt;Node40</title>
<path fill="none" stroke="#63b8ff" d="M449.08,-418.03C461.39,-416.41 474.2,-414.71 486.54,-413.08"/>
<polygon fill="#63b8ff" stroke="#63b8ff" points="448.89,-414.53 439.44,-419.31 449.81,-421.47 448.89,-414.53"/>
</g>
<!-- Node41 -->
<g id="node33" class="node">
<title>Node41</title>
<g id="a_node33"><a xlink:href="class_ogre_1_1_metal_multi_render_target.html" target="_top" xlink:title=" ">
<polygon fill="white" stroke="#666666" points="633,-370 487,-370 487,-351 633,-351 633,-370"/>
<text text-anchor="middle" x="560" y="-358" font-family="Helvetica,sans-Serif" font-size="10.00">Ogre::MetalMultiRenderTarget</text>
</a>
</g>
</g>
<!-- Node36&#45;&gt;Node41 -->
<g id="edge32" class="edge">
<title>Node36&#45;&gt;Node41</title>
<path fill="none" stroke="#63b8ff" d="M405.33,-412.4C425.36,-402.02 453.27,-388.53 479,-379.5 488.83,-376.05 499.56,-373.02 509.88,-370.46"/>
<polygon fill="#63b8ff" stroke="#63b8ff" points="403.91,-409.19 396.69,-416.95 407.17,-415.39 403.91,-409.19"/>
</g>
<!-- Node43 -->
<g id="node35" class="node">
<title>Node43</title>
<g id="a_node35"><a xlink:href="class_ogre_1_1_d3_d11_depth_texture_target.html" target="_top" xlink:title=" ">
<polygon fill="white" stroke="#666666" points="638.5,-333 481.5,-333 481.5,-314 638.5,-314 638.5,-333"/>
<text text-anchor="middle" x="560" y="-321" font-family="Helvetica,sans-Serif" font-size="10.00">Ogre::D3D11DepthTextureTarget</text>
</a>
</g>
</g>
<!-- Node42&#45;&gt;Node43 -->
<g id="edge34" class="edge">
<title>Node42&#45;&gt;Node43</title>
<path fill="none" stroke="#63b8ff" d="M396.27,-248.89C415.58,-265.84 447.25,-291.11 479,-305.5 486.13,-308.73 493.89,-311.41 501.68,-313.61"/>
<polygon fill="#63b8ff" stroke="#63b8ff" points="398.74,-246.4 388.96,-242.33 394.06,-251.61 398.74,-246.4"/>
</g>
<!-- Node44 -->
<g id="node36" class="node">
<title>Node44</title>
<g id="a_node36"><a xlink:href="class_ogre_1_1_d3_d11_null_texture_target.html" target="_top" xlink:title=" ">
<polygon fill="white" stroke="#666666" points="634.5,-296 485.5,-296 485.5,-277 634.5,-277 634.5,-296"/>
<text text-anchor="middle" x="560" y="-284" font-family="Helvetica,sans-Serif" font-size="10.00">Ogre::D3D11NullTextureTarget</text>
</a>
</g>
</g>
<!-- Node42&#45;&gt;Node44 -->
<g id="edge35" class="edge">
<title>Node42&#45;&gt;Node44</title>
<path fill="none" stroke="#63b8ff" d="M412.3,-245.44C431.72,-252.9 456.48,-261.89 479,-268.5 488.97,-271.43 499.76,-274.15 510.09,-276.54"/>
<polygon fill="#63b8ff" stroke="#63b8ff" points="413.82,-242.28 403.23,-241.91 411.28,-248.8 413.82,-242.28"/>
</g>
<!-- Node45 -->
<g id="node37" class="node">
<title>Node45</title>
<g id="a_node37"><a xlink:href="class_ogre_1_1_d3_d11_render_texture.html" target="_top" xlink:title="RenderTexture implementation for D3D11.">
<polygon fill="white" stroke="#666666" points="627,-259 493,-259 493,-240 627,-240 627,-259"/>
<text text-anchor="middle" x="560" y="-247" font-family="Helvetica,sans-Serif" font-size="10.00">Ogre::D3D11RenderTexture</text>
</a>
</g>
</g>
<!-- Node42&#45;&gt;Node45 -->
<g id="edge36" class="edge">
<title>Node42&#45;&gt;Node45</title>
<path fill="none" stroke="#63b8ff" d="M440.46,-237.74C457.35,-239.42 475.67,-241.24 492.73,-242.93"/>
<polygon fill="#63b8ff" stroke="#63b8ff" points="440.83,-234.26 430.53,-236.76 440.14,-241.23 440.83,-234.26"/>
</g>
<!-- Node46 -->
<g id="node38" class="node">
<title>Node46</title>
<g id="a_node38"><a xlink:href="class_ogre_1_1_d3_d9_render_texture.html" target="_top" xlink:title="RenderTexture implementation for D3D9.">
<polygon fill="white" stroke="#666666" points="624.5,-222 495.5,-222 495.5,-203 624.5,-203 624.5,-222"/>
<text text-anchor="middle" x="560" y="-210" font-family="Helvetica,sans-Serif" font-size="10.00">Ogre::D3D9RenderTexture</text>
</a>
</g>
</g>
<!-- Node42&#45;&gt;Node46 -->
<g id="edge37" class="edge">
<title>Node42&#45;&gt;Node46</title>
<path fill="none" stroke="#63b8ff" d="M440.39,-224.92C458.07,-223.07 477.31,-221.05 495.06,-219.19"/>
<polygon fill="#63b8ff" stroke="#63b8ff" points="440.11,-221.43 430.53,-225.95 440.84,-228.39 440.11,-221.43"/>
</g>
<!-- Node47 -->
<g id="node39" class="node">
<title>Node47</title>
<g id="a_node39"><a xlink:href="class_ogre_1_1_g_l3_plus_depth_texture_target.html" target="_top" xlink:title=" ">
<polygon fill="white" stroke="#666666" points="629,-184.5 491,-184.5 491,-154.5 629,-154.5 629,-184.5"/>
<text text-anchor="start" x="499" y="-172.5" font-family="Helvetica,sans-Serif" font-size="10.00">Ogre::GL3PlusDepthTexture</text>
<text text-anchor="middle" x="560" y="-161.5" font-family="Helvetica,sans-Serif" font-size="10.00">Target</text>
</a>
</g>
</g>
<!-- Node42&#45;&gt;Node47 -->
<g id="edge38" class="edge">
<title>Node42&#45;&gt;Node47</title>
<path fill="none" stroke="#63b8ff" d="M430.13,-218.13C434.52,-216.68 438.86,-215.14 443,-213.5 459.82,-206.84 462.3,-201.45 479,-194.5 487.2,-191.09 496.03,-187.89 504.73,-184.98"/>
<polygon fill="#63b8ff" stroke="#63b8ff" points="429.15,-214.77 420.62,-221.07 431.21,-221.46 429.15,-214.77"/>
</g>
<!-- Node48 -->
<g id="node40" class="node">
<title>Node48</title>
<g id="a_node40"><a xlink:href="class_ogre_1_1_g_l3_plus_null_texture_target.html" target="_top" xlink:title=" ">
<polygon fill="white" stroke="#666666" points="625,-136.5 495,-136.5 495,-106.5 625,-106.5 625,-136.5"/>
<text text-anchor="start" x="503" y="-124.5" font-family="Helvetica,sans-Serif" font-size="10.00">Ogre::GL3PlusNullTexture</text>
<text text-anchor="middle" x="560" y="-113.5" font-family="Helvetica,sans-Serif" font-size="10.00">Target</text>
</a>
</g>
</g>
<!-- Node42&#45;&gt;Node48 -->
<g id="edge39" class="edge">
<title>Node42&#45;&gt;Node48</title>
<path fill="none" stroke="#63b8ff" d="M438.96,-216.44C440.36,-215.52 441.71,-214.54 443,-213.5 469.67,-192.1 452.58,-167.21 479,-145.5 483.71,-141.63 489.02,-138.39 494.62,-135.67"/>
<polygon fill="#63b8ff" stroke="#63b8ff" points="437.65,-213.17 430.53,-221.02 440.99,-219.32 437.65,-213.17"/>
</g>
<!-- Node49 -->
<g id="node41" class="node">
<title>Node49</title>
<g id="a_node41"><a xlink:href="class_ogre_1_1_g_l3_plus_render_texture.html" target="_top" xlink:title="Base class for GL Render Textures.">
<polygon fill="#fff0f0" stroke="red" points="631.5,-88 488.5,-88 488.5,-69 631.5,-69 631.5,-88"/>
<text text-anchor="middle" x="560" y="-76" font-family="Helvetica,sans-Serif" font-size="10.00">Ogre::GL3PlusRenderTexture</text>
</a>
</g>
</g>
<!-- Node42&#45;&gt;Node49 -->
<g id="edge40" class="edge">
<title>Node42&#45;&gt;Node49</title>
<path fill="none" stroke="#63b8ff" d="M439.06,-216.88C440.44,-215.83 441.76,-214.7 443,-213.5 481.79,-175.96 439.56,-134.36 479,-97.5 482.96,-93.8 487.51,-90.77 492.39,-88.31"/>
<polygon fill="#63b8ff" stroke="#63b8ff" points="437.28,-213.87 430.52,-222.02 440.89,-219.86 437.28,-213.87"/>
</g>
<!-- Node51 -->
<g id="node42" class="node">
<title>Node51</title>
<g id="a_node42"><a xlink:href="class_ogre_1_1_g_l_e_s2_depth_texture_target.html" target="_top" xlink:title=" ">
<polygon fill="white" stroke="#666666" points="639.5,-51 480.5,-51 480.5,-32 639.5,-32 639.5,-51"/>
<text text-anchor="middle" x="560" y="-39" font-family="Helvetica,sans-Serif" font-size="10.00">Ogre::GLES2DepthTextureTarget</text>
</a>
</g>
</g>
<!-- Node42&#45;&gt;Node51 -->
<g id="edge41" class="edge">
<title>Node42&#45;&gt;Node51</title>
<path fill="none" stroke="#63b8ff" d="M439.17,-217C440.52,-215.91 441.8,-214.75 443,-213.5 491.47,-163.2 429.66,-109.95 479,-60.5 482.63,-56.86 486.82,-53.87 491.34,-51.42"/>
<polygon fill="#63b8ff" stroke="#63b8ff" points="437.38,-213.99 430.78,-222.27 441.11,-219.91 437.38,-213.99"/>
</g>
<!-- Node72 -->
<g id="node45" class="node">
<title>Node72</title>
<g id="a_node45"><a xlink:href="class_ogre_1_1_d3_d11_texture_gpu.html" target="_top" xlink:title=" ">
<polygon fill="#fff0f0" stroke="red" points="437.5,-167 315.5,-167 315.5,-148 437.5,-148 437.5,-167"/>
<text text-anchor="middle" x="376.5" y="-155" font-family="Helvetica,sans-Serif" font-size="10.00">Ogre::D3D11TextureGpu</text>
</a>
</g>
</g>
<!-- Node71&#45;&gt;Node72 -->
<g id="edge44" class="edge">
<title>Node71&#45;&gt;Node72</title>
<path fill="none" stroke="#63b8ff" d="M255.65,-117.23C271.68,-124.49 291.65,-133.05 310,-139.5 318.23,-142.4 327.18,-145.12 335.74,-147.53"/>
<polygon fill="#63b8ff" stroke="#63b8ff" points="257.18,-114.08 246.63,-113.09 254.26,-120.44 257.18,-114.08"/>
</g>
<!-- Node75 -->
<g id="node46" class="node">
<title>Node75</title>
<g id="a_node46"><a xlink:href="class_ogre_1_1_g_l3_plus_texture_gpu.html" target="_top" xlink:title=" ">
<polygon fill="#fff0f0" stroke="red" points="442,-130 311,-130 311,-111 442,-111 442,-130"/>
<text text-anchor="middle" x="376.5" y="-118" font-family="Helvetica,sans-Serif" font-size="10.00">Ogre::GL3PlusTextureGpu</text>
</a>
</g>
</g>
<!-- Node71&#45;&gt;Node75 -->
<g id="edge45" class="edge">
<title>Node71&#45;&gt;Node75</title>
<path fill="none" stroke="#63b8ff" d="M280.94,-109.23C290.64,-110.38 300.79,-111.59 310.69,-112.77"/>
<polygon fill="#63b8ff" stroke="#63b8ff" points="281.65,-105.79 271.31,-108.08 280.82,-112.74 281.65,-105.79"/>
</g>
<!-- Node79 -->
<g id="node47" class="node">
<title>Node79</title>
<g id="a_node47"><a xlink:href="class_ogre_1_1_metal_texture_gpu.html" target="_top" xlink:title=" ">
<polygon fill="#fff0f0" stroke="red" points="434.5,-93 318.5,-93 318.5,-74 434.5,-74 434.5,-93"/>
<text text-anchor="middle" x="376.5" y="-81" font-family="Helvetica,sans-Serif" font-size="10.00">Ogre::MetalTextureGpu</text>
</a>
</g>
</g>
<!-- Node71&#45;&gt;Node79 -->
<g id="edge46" class="edge">
<title>Node71&#45;&gt;Node79</title>
<path fill="none" stroke="#63b8ff" d="M281.15,-95.37C293.25,-93.85 306.04,-92.24 318.17,-90.71"/>
<polygon fill="#63b8ff" stroke="#63b8ff" points="280.79,-91.89 271.31,-96.61 281.67,-98.83 280.79,-91.89"/>
</g>
<!-- Node82 -->
<g id="node48" class="node">
<title>Node82</title>
<g id="a_node48"><a xlink:href="class_ogre_1_1_n_u_l_l_texture_gpu.html" target="_top" xlink:title=" ">
<polygon fill="#fff0f0" stroke="red" points="436,-56 317,-56 317,-37 436,-37 436,-56"/>
<text text-anchor="middle" x="376.5" y="-44" font-family="Helvetica,sans-Serif" font-size="10.00">Ogre::NULLTextureGpu</text>
</a>
</g>
</g>
<!-- Node71&#45;&gt;Node82 -->
<g id="edge47" class="edge">
<title>Node71&#45;&gt;Node82</title>
<path fill="none" stroke="#63b8ff" d="M255.69,-87.88C271.73,-80.65 291.7,-72.08 310,-65.5 319.02,-62.25 328.9,-59.16 338.17,-56.45"/>
<polygon fill="#63b8ff" stroke="#63b8ff" points="254.3,-84.66 246.66,-92 257.21,-91.03 254.3,-84.66"/>
</g>
<!-- Node84 -->
<g id="node49" class="node">
<title>Node84</title>
<g id="a_node49"><a xlink:href="class_ogre_1_1_vulkan_texture_gpu.html" target="_top" xlink:title=" ">
<polygon fill="#fff0f0" stroke="red" points="437.5,-19 315.5,-19 315.5,0 437.5,0 437.5,-19"/>
<text text-anchor="middle" x="376.5" y="-7" font-family="Helvetica,sans-Serif" font-size="10.00">Ogre::VulkanTextureGpu</text>
</a>
</g>
</g>
<!-- Node71&#45;&gt;Node84 -->
<g id="edge48" class="edge">
<title>Node71&#45;&gt;Node84</title>
<path fill="none" stroke="#63b8ff" d="M240.66,-84.64C256.72,-67.88 282.83,-43.27 310,-28.5 316.66,-24.88 324.08,-21.88 331.47,-19.42"/>
<polygon fill="#63b8ff" stroke="#63b8ff" points="238.53,-81.78 234.25,-91.48 243.64,-86.57 238.53,-81.78"/>
</g>
</g>
</svg>
